<?xml version="1.0"?>
<svg xmlns:rdf="http://www.w3.org/1999/02/22-rdf-syntax-ns#" xmlns="http://www.w3.org/2000/svg" xmlns:cc="http://creativecommons.org/ns#" xmlns:dc="http://purl.org/dc/elements/1.1/" xmlns:svg="http://www.w3.org/2000/svg" id="svg5757" viewBox="0 0 455.42 664.11" version="1.1">
  <g id="layer1" stroke="#000" transform="translate(-195.15 -123.17)">
    <path id="path5371" stroke-linejoin="round" stroke-width="39.3" stroke-linecap="round" d="m417.02 181.86-116.29 118.52 233.69-3.5808z"/>
    <path id="path5373" stroke-width="7.2" style="color:#000000" transform="matrix(.93438 -.017694 .017694 .93438 -406.49 747.5)" d="m975.58-205.96c0 9.8945-8.021 17.916-17.916 17.916-9.8945 0-17.916-8.021-17.916-17.916 0-9.8945 8.021-17.916 17.916-17.916 9.8945 0 17.916 8.0211 17.916 17.916z"/>
    <path id="path5375" stroke-width="7.2" style="color:#000000" transform="matrix(.93438 -.017694 .017694 .93438 -418.02 692.34)" d="m975.58-205.96c0 9.8945-8.021 17.916-17.916 17.916-9.8945 0-17.916-8.021-17.916-17.916 0-9.8945 8.021-17.916 17.916-17.916 9.8945 0 17.916 8.0211 17.916 17.916z"/>
    <path id="path5377" stroke-width="7.2" style="color:#000000" transform="matrix(.93438 -.017694 .017694 .93438 -427.14 636.7)" d="m975.58-205.96c0 9.8945-8.021 17.916-17.916 17.916-9.8945 0-17.916-8.021-17.916-17.916 0-9.8945 8.021-17.916 17.916-17.916 9.8945 0 17.916 8.0211 17.916 17.916z"/>
    <path id="path5379" stroke-width="7.2" style="color:#000000" transform="matrix(.93438 -.017694 .017694 .93438 -437.62 581.34)" d="m975.58-205.96c0 9.8945-8.021 17.916-17.916 17.916-9.8945 0-17.916-8.021-17.916-17.916 0-9.8945 8.021-17.916 17.916-17.916 9.8945 0 17.916 8.0211 17.916 17.916z"/>
    <path id="path5381" stroke-width="7.2" style="color:#000000" transform="matrix(.93438 -.017694 .017694 .93438 -361.9 968.43)" d="m975.58-205.96c0 9.8945-8.021 17.916-17.916 17.916-9.8945 0-17.916-8.021-17.916-17.916 0-9.8945 8.021-17.916 17.916-17.916 9.8945 0 17.916 8.0211 17.916 17.916z"/>
    <path id="path5383" stroke-width="7.2" style="color:#000000" transform="matrix(.93438 -.017694 .017694 .93438 -371.22 912.84)" d="m975.58-205.96c0 9.8945-8.021 17.916-17.916 17.916-9.8945 0-17.916-8.021-17.916-17.916 0-9.8945 8.021-17.916 17.916-17.916 9.8945 0 17.916 8.0211 17.916 17.916z"/>
    <path id="path5385" stroke-width="7.2" style="color:#000000" transform="matrix(.93438 -.017694 .017694 .93438 -393.63 802.39)" d="m975.58-205.96c0 9.8945-8.021 17.916-17.916 17.916-9.8945 0-17.916-8.021-17.916-17.916 0-9.8945 8.021-17.916 17.916-17.916 9.8945 0 17.916 8.0211 17.916 17.916z"/>
    <path id="path5387" stroke-width="7.2" style="color:#000000" transform="matrix(.93438 -.017694 .017694 .93438 -382.75 857.68)" d="m975.58-205.96c0 9.8945-8.021 17.916-17.916 17.916-9.8945 0-17.916-8.021-17.916-17.916 0-9.8945 8.021-17.916 17.916-17.916 9.8945 0 17.916 8.0211 17.916 17.916z"/>
    <path id="path5389" stroke-width="7.2" style="color:#000000" transform="matrix(.88450 .30172 -.30172 .88450 -556.17 432.24)" d="m975.58-205.96c0 9.8945-8.021 17.916-17.916 17.916-9.8945 0-17.916-8.021-17.916-17.916 0-9.8945 8.021-17.916 17.916-17.916 9.8945 0 17.916 8.0211 17.916 17.916z"/>
    <path id="path5391" stroke-width="7.2" style="color:#000000" transform="matrix(.88450 .30172 -.30172 .88450 -548.22 376.45)" d="m975.58-205.96c0 9.8945-8.021 17.916-17.916 17.916-9.8945 0-17.916-8.021-17.916-17.916 0-9.8945 8.021-17.916 17.916-17.916 9.8945 0 17.916 8.0211 17.916 17.916z"/>
    <path id="path5393" stroke-width="7.2" style="color:#000000" transform="matrix(.88450 .30172 -.30172 .88450 -537.83 321.04)" d="m975.58-205.96c0 9.8945-8.021 17.916-17.916 17.916-9.8945 0-17.916-8.021-17.916-17.916 0-9.8945 8.021-17.916 17.916-17.916 9.8945 0 17.916 8.0211 17.916 17.916z"/>
    <path id="path5395" stroke-width="7.2" style="color:#000000" transform="matrix(.88450 .30172 -.30172 .88450 -528.83 265.42)" d="m975.58-205.96c0 9.8945-8.021 17.916-17.916 17.916-9.8945 0-17.916-8.021-17.916-17.916 0-9.8945 8.021-17.916 17.916-17.916 9.8945 0 17.916 8.0211 17.916 17.916z"/>
    <path id="path5397" stroke-width="7.2" style="color:#000000" transform="matrix(.88450 .30172 -.30172 .88450 -589.52 655.16)" d="m975.58-205.96c0 9.8945-8.021 17.916-17.916 17.916-9.8945 0-17.916-8.021-17.916-17.916 0-9.8945 8.021-17.916 17.916-17.916 9.8945 0 17.916 8.0211 17.916 17.916z"/>
    <path id="path5399" stroke-width="7.2" style="color:#000000" transform="matrix(.88450 .30172 -.30172 .88450 -579.35 599.71)" d="m975.58-205.96c0 9.8945-8.021 17.916-17.916 17.916-9.8945 0-17.916-8.021-17.916-17.916 0-9.8945 8.021-17.916 17.916-17.916 9.8945 0 17.916 8.0211 17.916 17.916z"/>
    <path id="path5401" stroke-width="7.2" style="color:#000000" transform="matrix(.88450 .30172 -.30172 .88450 -562.79 488.24)" d="m975.58-205.96c0 9.8945-8.021 17.916-17.916 17.916-9.8945 0-17.916-8.021-17.916-17.916 0-9.8945 8.021-17.916 17.916-17.916 9.8945 0 17.916 8.0211 17.916 17.916z"/>
    <path id="path5403" stroke-width="7.2" style="color:#000000" transform="matrix(.88450 .30172 -.30172 .88450 -571.4 543.92)" d="m975.58-205.96c0 9.8945-8.021 17.916-17.916 17.916-9.8945 0-17.916-8.021-17.916-17.916 0-9.8945 8.021-17.916 17.916-17.916 9.8945 0 17.916 8.0211 17.916 17.916z"/>
    <path id="path5405" stroke-width="7.2" style="color:#000000" transform="matrix(.92201 .15253 -.15253 .92201 -496.94 585.63)" d="m975.58-205.96c0 9.8945-8.021 17.916-17.916 17.916-9.8945 0-17.916-8.021-17.916-17.916 0-9.8945 8.021-17.916 17.916-17.916 9.8945 0 17.916 8.0211 17.916 17.916z"/>
    <path id="path5407" stroke-width="7.2" style="color:#000000" transform="matrix(.92201 .15253 -.15253 .92201 -496.94 529.29)" d="m975.58-205.96c0 9.8945-8.021 17.916-17.916 17.916-9.8945 0-17.916-8.021-17.916-17.916 0-9.8945 8.021-17.916 17.916-17.916 9.8945 0 17.916 8.0211 17.916 17.916z"/>
    <path id="path5409" stroke-width="7.2" style="color:#000000" transform="matrix(.92201 .15253 -.15253 .92201 -496.94 472.93)" d="m975.58-205.96c0 9.8945-8.021 17.916-17.916 17.916-9.8945 0-17.916-8.021-17.916-17.916 0-9.8945 8.021-17.916 17.916-17.916 9.8945 0 17.916 8.0211 17.916 17.916z"/>
    <path id="path5411" stroke-width="7.2" style="color:#000000" transform="matrix(.92201 .15253 -.15253 .92201 -496.94 416.58)" d="m975.58-205.96c0 9.8945-8.021 17.916-17.916 17.916-9.8945 0-17.916-8.021-17.916-17.916 0-9.8945 8.021-17.916 17.916-17.916 9.8945 0 17.916 8.0211 17.916 17.916z"/>
    <path id="path5413" stroke-width="7.2" style="color:#000000" transform="matrix(.92201 .15253 -.15253 .92201 -496.94 810.99)" d="m975.58-205.96c0 9.8945-8.021 17.916-17.916 17.916-9.8945 0-17.916-8.021-17.916-17.916 0-9.8945 8.021-17.916 17.916-17.916 9.8945 0 17.916 8.0211 17.916 17.916z"/>
    <path id="path5415" stroke-width="7.2" style="color:#000000" transform="matrix(.92201 .15253 -.15253 .92201 -496.94 754.63)" d="m975.58-205.96c0 9.8945-8.021 17.916-17.916 17.916-9.8945 0-17.916-8.021-17.916-17.916 0-9.8945 8.021-17.916 17.916-17.916 9.8945 0 17.916 8.0211 17.916 17.916z"/>
    <path id="path5417" stroke-width="7.2" style="color:#000000" transform="matrix(.92201 .15253 -.15253 .92201 -496.94 641.95)" d="m975.58-205.96c0 9.8945-8.021 17.916-17.916 17.916-9.8945 0-17.916-8.021-17.916-17.916 0-9.8945 8.021-17.916 17.916-17.916 9.8945 0 17.916 8.0211 17.916 17.916z"/>
    <path id="path5419" stroke-width="7.2" style="color:#000000" transform="matrix(.92201 .15253 -.15253 .92201 -496.94 698.3)" d="m975.58-205.96c0 9.8945-8.021 17.916-17.916 17.916-9.8945 0-17.916-8.021-17.916-17.916 0-9.8945 8.021-17.916 17.916-17.916 9.8945 0 17.916 8.0211 17.916 17.916z"/>
    <path id="path5421" stroke-width="7.2" style="color:#000000" transform="matrix(.91806 -.17477 .17477 .91806 -293.9 887.01)" d="m975.58-205.96c0 9.8945-8.021 17.916-17.916 17.916-9.8945 0-17.916-8.021-17.916-17.916 0-9.8945 8.021-17.916 17.916-17.916 9.8945 0 17.916 8.0211 17.916 17.916z"/>
    <path id="path5423" stroke-width="7.2" style="color:#000000" transform="matrix(.91806 -.17477 .17477 .91806 -314.56 834.58)" d="m975.58-205.96c0 9.8945-8.021 17.916-17.916 17.916-9.8945 0-17.916-8.021-17.916-17.916 0-9.8945 8.021-17.916 17.916-17.916 9.8945 0 17.916 8.0211 17.916 17.916z"/>
    <path id="path5425" stroke-width="7.2" style="color:#000000" transform="matrix(.91806 -.17477 .17477 .91806 -332.91 781.27)" d="m975.58-205.96c0 9.8945-8.021 17.916-17.916 17.916-9.8945 0-17.916-8.021-17.916-17.916 0-9.8945 8.021-17.916 17.916-17.916 9.8945 0 17.916 8.0211 17.916 17.916z"/>
    <path id="path5427" stroke-width="7.2" style="color:#000000" transform="matrix(.91806 -.17477 .17477 .91806 -352.57 728.47)" d="m975.58-205.96c0 9.8945-8.021 17.916-17.916 17.916-9.8945 0-17.916-8.021-17.916-17.916 0-9.8945 8.021-17.916 17.916-17.916 9.8945 0 17.916 8.0211 17.916 17.916z"/>
    <path id="path5429" stroke-width="7.2" style="color:#000000" transform="matrix(.91806 -.17477 .17477 .91806 -212.74 1097.3)" d="m975.58-205.96c0 9.8945-8.021 17.916-17.916 17.916-9.8945 0-17.916-8.021-17.916-17.916 0-9.8945 8.021-17.916 17.916-17.916 9.8945 0 17.916 8.0211 17.916 17.916z"/>
    <path id="path5431" stroke-width="7.2" style="color:#000000" transform="matrix(.91806 -.17477 .17477 .91806 -231.3 1044.1)" d="m975.58-205.96c0 9.8945-8.021 17.916-17.916 17.916-9.8945 0-17.916-8.021-17.916-17.916 0-9.8945 8.021-17.916 17.916-17.916 9.8945 0 17.916 8.0211 17.916 17.916z"/>
    <path id="path5433" stroke-width="7.2" style="color:#000000" transform="matrix(.91806 -.17477 .17477 .91806 -271.98 938.96)" d="m975.58-205.96c0 9.8945-8.021 17.916-17.916 17.916-9.8945 0-17.916-8.021-17.916-17.916 0-9.8945 8.021-17.916 17.916-17.916 9.8945 0 17.916 8.0211 17.916 17.916z"/>
    <path id="path5435" stroke-width="7.2" style="color:#000000" transform="matrix(.91806 -.17477 .17477 .91806 -251.95 991.63)" d="m975.58-205.96c0 9.8945-8.021 17.916-17.916 17.916-9.8945 0-17.916-8.021-17.916-17.916 0-9.8945 8.021-17.916 17.916-17.916 9.8945 0 17.916 8.0211 17.916 17.916z"/>
    <path id="path5437" stroke-width="7.2" style="color:#000000" transform="matrix(.81746 .45292 -.45292 .81746 -588.75 262.28)" d="m975.58-205.96c0 9.8945-8.021 17.916-17.916 17.916-9.8945 0-17.916-8.021-17.916-17.916 0-9.8945 8.021-17.916 17.916-17.916 9.8945 0 17.916 8.0211 17.916 17.916z"/>
    <path id="path5439" stroke-width="7.2" style="color:#000000" transform="matrix(.81746 .45292 -.45292 .81746 -571.09 208.77)" d="m975.58-205.96c0 9.8945-8.021 17.916-17.916 17.916-9.8945 0-17.916-8.021-17.916-17.916 0-9.8945 8.021-17.916 17.916-17.916 9.8945 0 17.916 8.0211 17.916 17.916z"/>
    <path id="path5441" stroke-width="7.2" style="color:#000000" transform="matrix(.81746 .45292 -.45292 .81746 -551.1 156.06)" d="m975.58-205.96c0 9.8945-8.021 17.916-17.916 17.916-9.8945 0-17.916-8.021-17.916-17.916 0-9.8945 8.021-17.916 17.916-17.916 9.8945 0 17.916 8.0211 17.916 17.916z"/>
    <path id="path5443" stroke-width="7.2" style="color:#000000" transform="matrix(.81746 .45292 -.45292 .81746 -532.43 102.89)" d="m975.58-205.96c0 9.8945-8.021 17.916-17.916 17.916-9.8945 0-17.916-8.021-17.916-17.916 0-9.8945 8.021-17.916 17.916-17.916 9.8945 0 17.916 8.0211 17.916 17.916z"/>
    <path id="path5445" stroke-width="7.2" style="color:#000000" transform="matrix(.81746 .45292 -.45292 .81746 -660.88 475.83)" d="m975.58-205.96c0 9.8945-8.021 17.916-17.916 17.916-9.8945 0-17.916-8.021-17.916-17.916 0-9.8945 8.021-17.916 17.916-17.916 9.8945 0 17.916 8.0211 17.916 17.916z"/>
    <path id="path5447" stroke-width="7.2" style="color:#000000" transform="matrix(.81746 .45292 -.45292 .81746 -641.09 423.05)" d="m975.58-205.96c0 9.8945-8.021 17.916-17.916 17.916-9.8945 0-17.916-8.021-17.916-17.916 0-9.8945 8.021-17.916 17.916-17.916 9.8945 0 17.916 8.0211 17.916 17.916z"/>
    <path id="path5449" stroke-width="7.2" style="color:#000000" transform="matrix(.81746 .45292 -.45292 .81746 -605.14 316.24)" d="m975.58-205.96c0 9.8945-8.021 17.916-17.916 17.916-9.8945 0-17.916-8.021-17.916-17.916 0-9.8945 8.021-17.916 17.916-17.916 9.8945 0 17.916 8.0211 17.916 17.916z"/>
    <path id="path5451" stroke-width="7.2" style="color:#000000" transform="matrix(.81746 .45292 -.45292 .81746 -623.43 369.53)" d="m975.58-205.96c0 9.8945-8.021 17.916-17.916 17.916-9.8945 0-17.916-8.021-17.916-17.916 0-9.8945 8.021-17.916 17.916-17.916 9.8945 0 17.916 8.0211 17.916 17.916z"/>
    <path id="path5453" stroke-linejoin="round" d="m415.12 156.6-2.3818 74.363" stroke-linecap="round" stroke-width="66.87" fill="none"/>
  </g>
  <metadata>
    <rdf:RDF>
      <cc:Work>
        <dc:format>image/svg+xml</dc:format>
        <dc:type rdf:resource="http://purl.org/dc/dcmitype/StillImage"/>
        <cc:license rdf:resource="http://creativecommons.org/licenses/publicdomain/"/>
        <dc:publisher>
          <cc:Agent rdf:about="http://openclipart.org/">
            <dc:title>Openclipart</dc:title>
          </cc:Agent>
        </dc:publisher>
        <dc:title>shower2</dc:title>
        <dc:date>2013-08-18T18:58:48</dc:date>
        <dc:description/>
        <dc:source>http://openclipart.org/detail/181943/shower2-by-cyberscooty-181943</dc:source>
        <dc:creator>
          <cc:Agent>
            <dc:title>cyberscooty</dc:title>
          </cc:Agent>
        </dc:creator>
        <dc:subject>
          <rdf:Bag>
            <rdf:li>bath</rdf:li>
            <rdf:li>bathroom</rdf:li>
            <rdf:li>douche</rdf:li>
            <rdf:li>panneau</rdf:li>
            <rdf:li>salle de bain</rdf:li>
            <rdf:li>sdb</rdf:li>
            <rdf:li>shower</rdf:li>
            <rdf:li>sign</rdf:li>
          </rdf:Bag>
        </dc:subject>
      </cc:Work>
      <cc:License rdf:about="http://creativecommons.org/licenses/publicdomain/">
        <cc:permits rdf:resource="http://creativecommons.org/ns#Reproduction"/>
        <cc:permits rdf:resource="http://creativecommons.org/ns#Distribution"/>
        <cc:permits rdf:resource="http://creativecommons.org/ns#DerivativeWorks"/>
      </cc:License>
    </rdf:RDF>
  </metadata>
</svg>
