<?xml version="1.0"?>
<svg xmlns:rdf="http://www.w3.org/1999/02/22-rdf-syntax-ns#" xmlns="http://www.w3.org/2000/svg" xmlns:cc="http://web.resource.org/cc/" xmlns:dc="http://purl.org/dc/elements/1.1/" xmlns:svg="http://www.w3.org/2000/svg" id="Layer_1" style="enable-background:new 0 0 273.889 154.308" xml:space="preserve" viewBox="0 0 273.889 154.308" version="1.1">
<path id="path3" fill-rule="evenodd" clip-rule="evenodd" d="m173.54 88.945c-0.714 1.245-1.429 2.49-2.143 3.735-0.652 1.137-1.395 3.369-2.416 4.211-0.872 0.718-2.691 0.936-3.746 1.363-1.345 0.544-2.707 0.838-4.136 1.078-2.669 0.449-5.813 0.661-7.825 2.686-0.835 0.839-0.576 1.958-1.085 2.915-0.925 1.738-2.015 2.473-0.303 3.857 4.638 3.754 10.517 1.3 15.234-1.091 5.166-2.617 9.321-6.301 11.612-11.705 1.811-4.269 3.674-8.723 3.674-13.44 0-1.749-0.169-1.811-1.646-0.914-1.078 0.655-1.785 1.834-2.585 2.805-1.18 1.437-2.4 4.503-4.62 4.489"/>
<path id="path5" fill="#fff" d="m174.04 89.202c-1.383-1.34-2.045 1.286-2.617 2.284-0.985 1.717-1.97 3.433-2.955 5.149 1.382 1.336 2.045-1.289 2.617-2.285 0.99-1.716 1.98-3.433 2.96-5.148"/>
<path id="path7" fill="#fff" d="m168.98 97.404c-1.305 0.526-2.623 1.009-3.928 1.538-0.99 0.401-3.524 1.538-3.42-0.257 2.426-0.408 4.817-1.389 7.095-2.306 0.08 0.317 0.27 0.701 0.26 1.025"/>
<path id="path9" fill="#fff" d="m169.48 97.146c-0.564 0.56-0.766-0.115-0.758-0.767-0.085 0.085-0.169 0.17-0.254 0.256 0.31 0.157 0.68 0.433 1.01 0.511"/>
<path id="path11" fill="#fff" d="m161.88 99.71c-2.02 0.371-4.11 0.587-6.024 1.361-0.889 0.36-2.008 0.799-2.462 1.715-0.247 0.498-0.382 0.78-0.382 1.338 0 0.359-1.014 0.359-1.014 0 0-2.382 1.811-3.42 3.801-4.158 1.094-0.406 2.01-0.578 3.16-0.79 1.04-0.188 3.02-1.181 2.91 0.538"/>
<path id="path13" fill="#fff" d="m161.88 99.71c-0.085-0.342-0.169-0.684-0.254-1.025 0.09 0.342 0.17 0.684 0.25 1.025"/>
<path id="path15" fill="#fff" d="m153.02 104.58c-1.477-1.366-2.209 1.737-2.786 2.822 1.48 1.36 2.21-1.73 2.79-2.82"/>
<path id="path17" fill="#fff" d="m153.02 104.32c-0.157 0.349-0.599 0.071-1.014-0.256v0.256c0.33 0 0.67 0.02 1.01 0"/>
<path id="path19" fill="#fff" d="m150.99 107.4c3.36 3.399 6.79 2.867 11.118 2.139 1.788-0.301 4.043-1.623 5.564-2.604 0.951-0.612 1.897-1.229 2.864-1.816 0.285-0.173 1.403-1.109 1.732-1.052 0.512 0.089 0.503 0.771 0.188 0.994-3.22 2.281-7.263 5.027-11.239 5.696-1.854 0.313-4.036 0.855-5.922 0.487-2.212-0.432-3.552-1.801-5.066-3.334 0.25-0.17 0.5-0.43 0.77-0.52"/>
<path id="path21" fill="#fff" d="m150.23 107.4c-0.373 0.724 0.297 0.417 0.761 0 0.085 0.17 0.169 0.34 0.254 0.51-0.33-0.16-0.7-0.3-1.01-0.51"/>
<path id="path23" fill="#fff" d="m172.27 104.07c3.171-3.204 5.338-6.617 7.095-10.766 0.85-2.008 1.583-4.226 1.938-6.379 0.132-0.804 0.73-5.924 0.858-5.924 1.586 0 0.529 4.333 0.243 5.64-0.497 2.268-1.248 4.742-2.026 6.92-1.587 4.44-4.326 7.968-7.601 11.276-0.15-0.24-0.41-0.5-0.5-0.77"/>
<path id="path25" fill="#fff" d="m172.78 104.84l-0.507-0.768c0.17 0.25 0.34 0.51 0.51 0.77"/>
<path id="path27" fill="#fff" d="m182.4 81.512c-2.189 0.131-3.495 3.136-4.71 4.675-0.66 0.837-1.301 1.823-2.129 2.501-0.491 0.402-3.061 1.432-2.028-0.257 0.229-0.374 1.678-0.903 2.131-1.476 0.764-0.966 1.604-1.882 2.28-2.91 0.697-1.059 1.541-1.89 2.431-2.791 0.65-0.646 2.56-1.491 2.03 0.258"/>
<path id="path29" fill="#fff" d="m182.91 80.999c-0.31-0.959-0.759-0.335-0.508 0.513-0.169-0.171-0.337-0.342-0.506-0.513 0.34 0 0.7-0.054 1.02 0"/>
<path id="path31" fill="#fff" d="m173.54 88.432c-0.225 0.063-0.354-0.001-0.506 0.257 0.353 0.107 0.654 0.43 1.013 0.513-0.169 0.085-0.338 0.17-0.507 0.256 0.01-0.325-0.07-0.712 0.01-1.026"/>
<path id="path33" fill-rule="evenodd" clip-rule="evenodd" d="m132.5 99.199c-0.714 1.245-1.429 2.489-2.144 3.734-0.652 1.137-1.396 3.37-2.417 4.211-0.873 0.719-2.691 0.934-3.746 1.361-1.346 0.546-2.707 0.837-4.136 1.078-2.661 0.45-5.824 0.658-7.826 2.687-0.832 0.843-0.575 1.958-1.084 2.916-0.925 1.738-2.014 2.472-0.304 3.855 4.64 3.757 10.514 1.299 15.236-1.089 5.167-2.612 9.323-6.305 11.612-11.706 1.809-4.269 3.673-8.723 3.673-13.44 0-1.748-0.169-1.811-1.646-0.914-1.078 0.655-1.784 1.834-2.584 2.806-1.19 1.454-2.42 4.517-4.63 4.507"/>
<path id="path35" fill="#fff" d="m133 99.455c-1.383-1.341-2.045 1.286-2.618 2.284-0.985 1.716-1.97 3.433-2.955 5.149 1.383 1.341 2.045-1.286 2.618-2.284 0.99-1.72 1.98-3.44 2.96-5.155"/>
<path id="path37" fill="#fff" d="m127.94 107.66c-1.304 0.528-2.623 1.012-3.928 1.539-0.991 0.4-3.524 1.538-3.419-0.256 2.423-0.408 4.819-1.388 7.093-2.309 0.08 0.32 0.27 0.7 0.26 1.03"/>
<path id="path39" fill="#fff" d="m128.44 107.4c-0.565 0.554-0.767-0.121-0.759-0.771-0.084 0.086-0.169 0.172-0.253 0.258 0.31 0.16 0.67 0.43 1.01 0.51"/>
<path id="path41" fill="#fff" d="m120.84 109.96c-2.021 0.371-4.111 0.586-6.025 1.361-0.886 0.359-2.011 0.8-2.462 1.714-0.246 0.498-0.38 0.781-0.38 1.339 0 0.359-1.013 0.359-1.013 0 0-2.384 1.809-3.419 3.8-4.158 1.094-0.406 2.008-0.58 3.159-0.792 1.04-0.18 3.02-1.18 2.91 0.54"/>
<path id="path43" fill="#fff" d="m120.84 109.96c-0.084-0.342-0.169-0.684-0.253-1.025 0.09 0.34 0.17 0.68 0.25 1.02"/>
<path id="path45" fill="#fff" d="m111.98 114.84c-1.475-1.369-2.21 1.733-2.788 2.818 1.48 1.36 2.21-1.74 2.79-2.82"/>
<path id="path47" fill="#fff" d="m111.98 114.58c-0.156 0.353-0.598 0.073-1.013-0.256v0.256c0.33 0 0.67 0.01 1.01 0"/>
<path id="path49" fill="#fff" d="m109.95 117.65c3.361 3.398 6.79 2.868 11.119 2.141 1.787-0.3 4.043-1.626 5.564-2.606 0.951-0.612 1.898-1.229 2.865-1.815 0.286-0.173 1.403-1.108 1.732-1.051 0.512 0.089 0.503 0.771 0.187 0.994-3.218 2.28-7.264 5.026-11.239 5.696-1.854 0.313-4.036 0.852-5.921 0.485-2.213-0.43-3.553-1.801-5.068-3.332 0.24-0.14 0.49-0.41 0.76-0.5"/>
<path id="path51" fill="#fff" d="m109.19 117.65c-0.374 0.727 0.296 0.419 0.761 0 0.084 0.171 0.169 0.341 0.253 0.512-0.33-0.16-0.7-0.3-1.01-0.51"/>
<path id="path53" fill="#fff" d="m131.23 114.32c3.171-3.206 5.335-6.618 7.093-10.768 0.851-2.008 1.583-4.224 1.938-6.378 0.133-0.803 0.73-5.924 0.859-5.924 1.584 0 0.529 4.333 0.243 5.638-0.497 2.268-1.25 4.742-2.027 6.921-1.585 4.442-4.327 7.964-7.599 11.277-0.15-0.24-0.41-0.5-0.5-0.77"/>
<path id="path55" fill="#fff" d="m131.74 115.09l-0.507-0.768c0.17 0.26 0.34 0.51 0.51 0.77"/>
<path id="path57" fill="#fff" d="m141.36 91.765c-2.191 0.13-3.494 3.136-4.709 4.675-0.661 0.837-1.301 1.823-2.129 2.501-0.49 0.401-3.058 1.434-2.027-0.256 0.228-0.374 1.677-0.904 2.129-1.477 0.764-0.965 1.604-1.881 2.28-2.909 0.696-1.06 1.541-1.89 2.43-2.791 0.65-0.648 2.56-1.491 2.03 0.257"/>
<path id="path59" fill="#fff" d="m141.87 91.252c-0.31-0.96-0.758-0.334-0.507 0.512-0.169-0.171-0.337-0.341-0.506-0.512 0.34 0 0.7-0.054 1.02 0"/>
<path id="path61" fill="#fff" d="m132.5 98.685c-0.226 0.063-0.354-0.002-0.507 0.256 0.353 0.106 0.654 0.43 1.013 0.514-0.168 0.085-0.337 0.171-0.505 0.256 0-0.325-0.08-0.711 0-1.026"/>
<path id="path63" fill-rule="evenodd" clip-rule="evenodd" d="m105.64 112.53c-0.714 1.245-1.429 2.489-2.143 3.734-0.653 1.138-1.395 3.368-2.417 4.211-0.874 0.721-2.689 0.934-3.745 1.361-1.346 0.546-2.708 0.837-4.138 1.078-2.661 0.45-5.822 0.66-7.825 2.688-0.831 0.842-0.574 1.958-1.083 2.915-0.924 1.736-2.015 2.473-0.305 3.855 4.642 3.755 10.515 1.302 15.237-1.089 5.164-2.613 9.324-6.304 11.611-11.705 1.808-4.27 3.674-8.724 3.674-13.441 0-1.748-0.17-1.813-1.647-0.913-1.078 0.656-1.785 1.834-2.585 2.806-1.17 1.43-2.4 4.5-4.62 4.49"/>
<path id="path65" fill="#fff" d="m106.15 112.78c-1.386-1.338-2.047 1.286-2.62 2.285-0.985 1.716-1.97 3.433-2.955 5.148 1.384 1.341 2.046-1.285 2.62-2.284 0.98-1.71 1.97-3.43 2.95-5.15"/>
<path id="path67" fill="#fff" d="m101.08 120.99c-1.304 0.527-2.622 1.011-3.927 1.537-0.99 0.399-3.527 1.541-3.419-0.256 2.424-0.408 4.818-1.388 7.093-2.307 0.08 0.32 0.26 0.7 0.25 1.03"/>
<path id="path69" fill="#fff" d="m101.59 120.73c-0.566 0.557-0.769-0.117-0.761-0.77-0.084 0.085-0.169 0.171-0.253 0.256 0.31 0.16 0.67 0.43 1.01 0.51"/>
<path id="path71" fill="#fff" d="m93.989 123.29c-2.019 0.371-4.112 0.585-6.024 1.361-0.887 0.36-2.009 0.8-2.462 1.715-0.246 0.496-0.378 0.783-0.378 1.338 0 0.358-1.014 0.358-1.014 0 0-2.38 1.809-3.42 3.798-4.158 1.093-0.405 2.011-0.58 3.161-0.792 1.042-0.19 3.024-1.18 2.919 0.54"/>
<path id="path73" fill="#fff" d="m93.989 123.29c-0.084-0.342-0.168-0.684-0.252-1.025 0.084 0.35 0.168 0.69 0.252 1.03"/>
<path id="path75" fill="#fff" d="m85.124 128.16c-1.476-1.369-2.209 1.732-2.787 2.818 1.473 1.37 2.209-1.73 2.787-2.82"/>
<path id="path77" fill="#fff" d="m85.124 127.91c-0.156 0.353-0.599 0.073-1.014-0.256v0.256c0.337 0 0.676 0.01 1.014 0"/>
<path id="path79" fill="#fff" d="m83.095 130.98c3.365 3.399 6.787 2.87 11.12 2.141 1.787-0.301 4.043-1.626 5.565-2.606 0.951-0.612 1.899-1.229 2.866-1.815 0.285-0.173 1.404-1.108 1.732-1.051 0.511 0.09 0.5 0.772 0.185 0.996-3.222 2.281-7.26 5.021-11.238 5.694-1.853 0.314-4.038 0.854-5.923 0.487-2.21-0.431-3.552-1.8-5.065-3.332 0.238-0.16 0.494-0.43 0.761-0.52"/>
<path id="path81" fill="#fff" d="m82.336 130.98c-0.373 0.727 0.293 0.422 0.758 0 0.084 0.171 0.169 0.343 0.254 0.514-0.329-0.16-0.705-0.3-1.012-0.51"/>
<path id="path83" fill="#fff" d="m104.38 127.65c3.167-3.209 5.334-6.616 7.092-10.766 0.851-2.009 1.583-4.224 1.938-6.379 0.133-0.804 0.731-5.926 0.859-5.926 1.585 0 0.531 4.334 0.244 5.641-0.498 2.267-1.249 4.741-2.027 6.92-1.587 4.441-4.327 7.969-7.602 11.279-0.16-0.23-0.41-0.49-0.5-0.76"/>
<path id="path85" fill="#fff" d="m104.88 128.42c-0.168-0.257-0.336-0.513-0.504-0.77 0.16 0.26 0.33 0.51 0.5 0.77"/>
<path id="path87" fill="#fff" d="m114.51 105.09c-2.191 0.128-3.495 3.139-4.711 4.676-0.663 0.837-1.301 1.822-2.13 2.502-0.492 0.403-3.06 1.432-2.027-0.258 0.227-0.372 1.678-0.905 2.13-1.477 0.764-0.965 1.603-1.881 2.28-2.909 0.697-1.059 1.54-1.891 2.43-2.791 0.64-0.64 2.55-1.49 2.03 0.26"/>
<path id="path89" fill="#fff" d="m115.02 104.58c-0.31-0.959-0.757-0.332-0.507 0.514-0.169-0.171-0.338-0.343-0.507-0.514 0.33 0 0.69-0.06 1.02 0"/>
<path id="path91" fill="#fff" d="m105.64 112.01c-0.226 0.063-0.354-0.002-0.507 0.258 0.354 0.106 0.656 0.429 1.015 0.512-0.169 0.086-0.339 0.172-0.508 0.258 0.01-0.32-0.06-0.71 0.01-1.03"/>
<path id="path93" fill-rule="evenodd" clip-rule="evenodd" d="m68.402 54.34c3.538-11.615 9.1-21.512 17.656-30.166 4.258-4.308 9.129-7.729 14.42-10.651 4.867-2.688 10.254-5.599 15.698-6.872 2.794-0.653 5.487-1.87 8.326-2.311 3.219-0.5 6.437-1.001 9.656-1.502 5.402-0.842 11.819-1.247 17.269-0.746 12 1.104 23.728 4.469 33.804 11.264 9.993 6.738 18.011 14.968 23.774 25.606 5.111 9.434 10.701 22.871 3.726 32.762-6.909 9.796-20.222 12.679-31.338 14.786-5.39 1.022-10.994 1.499-16.034 3.735-6.225 2.763-12.439 5.51-18.736 8.105-10.987 4.529-22.498 7.257-34.44 7.257-1.249 0-2.55 0.118-3.781-0.091-0.788-0.134-4.089-0.44-4.53-0.937-0.556-0.625-0.2-3.646-0.249-4.535-0.081-1.477-0.132-2.962-0.258-4.435-0.471-5.511-1.91-12.068-4.36-17.024-3.258-6.591-6.002-12.39-11.741-17.229-5.324-4.479-11.888-7.012-18.867-7.012"/>
<path id="path95" d="m66.375 53.829c3.463-11.381 9.24-22.166 17.65-30.674 8.342-8.44 19.253-14.244 30.38-17.992 10.92-3.677 22.12-4.749 33.55-5.163 0 0.446 0.08 4.099-0.055 4.104l-5.613 0.21c-2.708 0.102-5.498 0.205-8.173 0.622-6.104 0.951-12.079 1.928-17.949 3.907-10.654 3.591-22.04 9.142-29.604 17.752-7.499 8.538-13.048 17.558-16.382 28.516-1.276-0.428-2.542-0.855-3.809-1.282"/>
<path id="path97" d="m147.95 0c23.825 0 46.691 12.958 59.724 32.71 4.492 6.808 7.566 14.271 9.69 22.143-0.683 0.173-3.521 1.354-4.052 1.025-0.556-0.344-1.073-3.98-1.279-4.747-0.757-2.813-2.049-5.576-3.337-8.181-2.595-5.248-5.481-10.061-9.319-14.499-7.737-8.945-17.165-15.563-28.119-19.993-4.316-1.746-8.99-2.748-13.555-3.589-2.259-0.416-4.56-0.548-6.846-0.758-0.407-0.038-2.907 0.108-2.907-0.107 0.01-1.333 0.01-2.669 0.01-4.004"/>
<path id="path99" d="m147.95 0v4.006-4.006"/>
<path id="path101" d="m217.36 55.11c1.08 5.985 0.887 11.906-2.532 17.173-2.999 4.621-7.79 8.333-12.921 10.353-5.877 2.313-11.759 4.057-17.9 5.52-2.938 0.7-6.017 1.082-8.989 1.619-1.348 0.244-2.691 0.491-4.034 0.762-0.731 0.148-1.427 0.327-2.145 0.535-1.01 0.292-0.868-0.561-1.171-1.48-0.718-2.178-1.012-2.074 1.156-2.896 1.037-0.394 2.27-0.45 3.366-0.648 2.898-0.523 5.798-1.039 8.69-1.588 5.449-1.035 10.894-2.243 16.088-4.213 5.177-1.964 10.041-4.522 13.628-8.873 3.629-4.403 3.766-10.163 2.712-15.494 1.34-0.257 2.69-0.513 4.04-0.77"/>
<path id="path103" d="m217.36 54.854c-0.084-0.085-0.169-0.171-0.253-0.256 0.084 0.171 0.169 0.342 0.253 0.513-1.351 0.256-2.701 0.512-4.052 0.769 1.35-0.343 2.7-0.685 4.05-1.026"/>
<path id="path105" d="m168.47 90.996c-11.134 5.138-22.026 9.976-33.743 13.619-5.437 1.689-11.483 2.541-17.155 2.896-1.495 0.094-2.958 0.145-4.456 0.145-0.327 0-1.91 0.229-2.153 0-0.295-0.277 0-2.45 0-2.869 0-0.554-0.279-1.232 0.353-1.232h2.96c1.486 0 2.97-0.15 4.452-0.25 8.829-0.595 17.978-2.892 26.153-6.337 3.823-1.611 7.628-3.264 11.42-4.947 2.921-1.296 5.843-2.592 8.764-3.888 0.193-0.086 1.58-0.832 1.674-0.641 0.59 1.162 1.17 2.331 1.74 3.499"/>
<path id="path107" d="m166.95 87.407c-0.697 0.331 1.893 2.997 1.267 3.845-0.42-1.281-0.85-2.563-1.27-3.845"/>
<path id="path109" d="m110.71 107.66c-1.886 0-3.473-0.477-5.321-0.768-0.958-0.15-1.824 0.166-1.693-0.898 0.143-1.153 0.285-2.306 0.428-3.459 2.353 0.297 4.444 1.023 6.84 1.023-0.09 1.37-0.18 2.74-0.26 4.11"/>
<path id="path111" d="m110.96 107.66c-0.609-0.469-0.062-3.105 0-4.102v4.1"/>
<path id="path113" d="m101.84 104.58c-0.333-5.719-0.927-11.118-1.908-16.749-0.898-5.154-3.4-10.458-5.956-14.987-5.457-9.669-14.463-16.452-25.832-16.452 0.084-1.367 0.169-2.734 0.254-4.102 5.921 0.667 11.021 1.576 16.262 4.604 5.12 2.959 8.693 7.724 12.019 12.436 6.635 9.4 8.489 22.055 9.101 33.208 0.038 0.681 0.075 1.36 0.112 2.041h-4.05"/>
<path id="path115" d="m103.62 106.63c-0.334-0.048-1.57-0.021-1.773-0.256-0.09-0.104-0.091-1.698 0-1.795 0.407-0.432 3.379 0 4.052 0-0.591-0.683-1.181-1.366-1.772-2.049-0.17 1.37-0.34 2.73-0.51 4.1"/>
<path id="path117" d="m68.148 56.392h-2.532c0.253-0.854 0.506-1.708 0.759-2.563 1.267 0.427 2.533 0.854 3.799 1.281-0.591-0.94-1.182-1.88-1.773-2.82-0.084 1.368-0.169 2.735-0.253 4.102"/>
<path id="path119" fill-rule="evenodd" clip-rule="evenodd" d="m106.91 84.074c-0.95 0.098-1.25-1.315-0.885-2.05 0.297-0.599 0.263-0.944 0.634-1.538 0.383-0.613 0.963-0.875 1.384-1.441 1.701-2.294 2.922-4.593 2.922-7.53 0-6.131-4.948-10.134-8.93-14.162-4.172-4.219-7.943-8.713-12.998-11.912-4.705-2.977-9.87-4.428-15.436-4.428-5.938 0-11.873 1.29-17.519 3.046-5.038 1.567-11.265 4.164-14.636 8.426-4.057 5.13-5.021 9.601-4.222 16.058 0.683 5.516-0.537 11.239-1.302 16.674-0.781 5.554-1.635 11.857-0.373 17.402 1.358 5.969 3.753 11.185 7.013 16.315 3.02 4.754 7.455 9.293 13.23 10.47 5.394 1.099 11.237-2.599 15.919-4.967 5.13-2.595 10.159-5.285 15.187-8.067 2.615-1.447 5.283-2.801 7.951-4.148 2.274-1.149 4.446-2.516 7.051-2.516 5.519 0 7.288-7.675 7.961-11.762 0.426-2.585 0.393-5.874 0.343-8.487-0.01-1.817-0.66-5.832-3.27-5.377"/>
<path id="path121" fill="#fff" d="m106.4 85.612c-3.331-0.587-1.664-4.836-0.762-6.664 0.466 0.419 2.28 1.578 2.28 2.178 0 0.577-0.613 1.145-0.507 1.922-0.069-0.249-0.143-0.281-0.254-0.513-0.25 1.027-0.5 2.052-0.76 3.077"/>
<path id="path123" fill="#fff" d="m105.9 78.949c2.151-2.179 3.998-5.21 3.546-8.459-0.2-1.437-0.723-3.158-1.52-4.358-0.172-0.259-1.377-1.436-1.187-1.607 0.733-0.66 1.466-1.32 2.2-1.98 4.94 5.829 4.278 13.359-1.013 18.711-0.68-0.77-1.36-1.539-2.03-2.307"/>
<path id="path125" fill="#fff" d="m105.64 78.949c0.875 0.247 1.654 1.594 2.28 2.306-0.24-0.881-1.57-1.671-2.28-2.306"/>
<path id="path127" fill="#fff" d="m106.91 64.595c-5.15-5.213-9.891-11.287-15.745-15.729-2.922-2.218-5.836-4.132-9.334-5.29-1.62-0.536-3.269-0.628-4.934-0.781-0.353-0.033-2.675-0.123-2.657-0.351 0.081-0.99 0.162-1.98 0.243-2.971 7.468 0.687 14.745 2.872 20.206 8.396 2.545 2.575 5.087 5.145 7.635 7.724 1.4 1.417 2.797 2.83 4.151 4.292 0.805 0.869 1.609 1.737 2.414 2.605 0.12 0.124-1.72 1.856-1.97 2.105"/>
<path id="path129" fill="#fff" d="m108.94 62.544c-0.084-0.085-0.168-0.171-0.252-0.257 0.332 0.625-1.292 2.075-2.026 2.308 0.76-0.684 1.52-1.367 2.28-2.051"/>
<path id="path131" fill="#fff" d="m74.481 42.55c-13.692 0-38.541 5.947-35.973 24.094-0.455 0.039-3.017 0.438-3.058 0.104-0.152-1.231-0.322-2.447-0.235-3.692 0.164-2.342 0.738-4.572 1.773-6.665 2.214-4.477 5.679-7.604 9.937-10.117 8.49-5.009 17.969-5.919 27.556-6.801v3.077"/>
<path id="path133" fill="#fff" d="m74.481 39.474v3.076h-0.251c0.084-1.025 0.167-2.05 0.251-3.076"/>
<path id="path135" fill="#fff" d="m38.508 66.645c0.671 5.432 0.131 10.91-0.685 16.296-0.426 2.813-0.825 5.598-1.012 8.437-0.095 1.433-0.189 2.866-0.283 4.299-0.086 1.305-1.959 0.702-3.085 0.702 0.597-9.73 3.22-19.744 2.027-29.478 1.012-0.086 2.025-0.171 3.038-0.256"/>
<path id="path137" fill="#fff" d="m35.469 66.901c1.013-0.085 2.026-0.171 3.039-0.256-1.013 0.085-2.026 0.17-3.039 0.256"/>
<path id="path139" fill="#fff" d="m36.481 96.379c0.369 4.104 0.841 7.894 2.28 11.791 1.484 4.017 3.554 7.44 5.708 11.077 1.692 2.857 5.5 6.504 8.629 7.69 1.824 0.692 3.833 1.499 5.804 1.098 0.56-0.114 2.437-0.887 2.913-0.641 0.436 0.225 0.832 2.311 1.014 2.818-9.055 3.063-15.551-2.68-20.878-9.422-2.793-3.535-4.217-7.526-6.188-11.51-1.892-3.823-1.951-8.502-2.321-12.646 1.014-0.095 2.026-0.18 3.039-0.265"/>
<path id="path141" fill="#fff" d="m33.442 96.379c0.274 0.547 2.279 0.064 3.039 0h-3.039"/>
<path id="path143" fill="#fff" d="m61.562 127.39c6.464-2.907 13.164-5.706 19.308-9.259 3.315-1.918 6.638-3.776 10.018-5.576 3.013-1.604 6.288-3.732 9.688-4.39 0.163 0.99 0.326 1.98 0.489 2.971 0.035 0.214-1.582 0.652-1.886 0.781-2.107 0.888-4.122 1.859-6.163 2.891-3.675 1.858-7.195 4.025-10.878 5.89-3.822 1.935-7.526 4.036-11.384 5.909-1.726 0.839-3.484 1.605-5.233 2.392-0.436 0.195-2.223 1.354-2.692 1.21-0.41-0.11-1.071-2.36-1.272-2.81"/>
<path id="path145" fill="#fff" d="m62.829 130.21c-0.422-0.939-0.845-1.879-1.268-2.818 0.703 0.27 0.987 2.04 1.268 2.82"/>
<path id="path147" fill="#fff" d="m100.58 108.17c6.582 0.504 7.854-8.528 7.854-13.329 1.013 0.085 2.026 0.17 3.04 0.256-0.385 3.897-0.461 8.664-2.904 11.952-1.181 1.589-2.772 3.243-4.75 3.644-1.076 0.218-1.689 0.554-2.827 0.554-0.36 0.01-0.37-2.6-0.41-3.07"/>
<path id="path149" fill="#fff" d="m100.58 108.17h0.507-0.51c0.084 1.025 0.169 2.051 0.253 3.076h0.253c-0.17-1.03-0.34-2.05-0.5-3.08"/>
<path id="path151" fill="#fff" d="m108.43 94.841c0-2.021 1.282-9.352-1.772-9.229 0.083-1.025 0.167-2.05 0.251-3.076 2.933 0.744 4.108 1.924 4.534 4.94 0.343 2.429 0.026 5.169 0.026 7.62-1.01-0.085-2.03-0.17-3.04-0.255"/>
<path id="path153" fill="#fff" d="m111.47 95.097c-1.013-0.085-2.026-0.17-3.04-0.256 1.01 0.085 2.03 0.17 3.04 0.256"/>
<path id="path155" fill="#fff" d="m106.66 85.612c-0.489-0.29 0.321-2.331 0.504-3.076h-0.253c-0.09 1.026-0.17 2.051-0.25 3.076"/>
<path id="path157" fill-rule="evenodd" clip-rule="evenodd" d="m127.43 98.429c-1.706-1.681 0.087-5.815 0.934-7.53 1.228-2.486 2.75-5.097 4.386-7.337 1.666-2.28 3.776-4.676 5.94-6.503 0.517-0.436 2.453-2.528 3.076-2.449 1.388 0.175 3.161 0.118 4.411 0.749 2.571 1.299 4.467 2.13 4.813 5.384 0.302 2.828-1.474 5.827-2.625 8.302-2.065 4.439-3.76 10.528-2.454 15.415 1.673 6.262 4.328 12.896 4.825 19.345 0.431 5.592 4.762 9.516 9.647 11.492 3.615 1.464 13.405 4.098 13.405 8.957 0 4.496-13.94 2.481-16.796 2.388-4.587-0.15-10.932 1.654-14.871-1.56-0.882-0.719-1.607-2.061-1.961-3.134-0.494-1.504 0.19-2.131 0.695-3.532 0.862-2.394 1.266-5.555 1.266-8.087 0-6.099-2.103-11.343-4.194-16.984-1.862-5.025-1.717-10.252-0.873-15.429-1.722 0-3.134 0.453-4.811 0.77-1.68 0.308-3.16-0.021-4.83-0.262"/>
<path id="path159" fill="#fff" d="m126.42 98.941c-1.435-4.333 1.185-9.673 3.698-13.233 1.417-2.008 2.904-4.723 4.76-6.332 2.045-1.772 4.084-3.634 5.983-5.555 1.212 1.474 1.482 1.454 0 2.82-1.027 0.946-2.057 1.824-3.041 2.821-2.035 2.061-3.892 4.218-5.446 6.664-1.341 2.11-2.943 4.438-3.727 6.824-0.205 0.624-1.285 3.358-0.833 3.813 1.09 1.102-0.57 1.702-1.39 2.178"/>
<path id="path161" fill="#fff" d="m141.62 73.565c3.424 0.384 6.356 0.79 8.868 3.333 2.592 2.625 1.354 6.77 0.253 9.741-0.819-0.312-2.186-0.342-1.829-1.301 0.307-0.827 0.606-1.65 0.882-2.487 0.528-1.604-0.002-3.259-0.698-4.671-0.483-0.98-2.84-1.93-3.858-2.077-1.03-0.148-2.06-0.289-3.092-0.42-0.94-0.12-0.52-1.283-0.52-2.118"/>
<path id="path163" fill="#fff" d="m140.86 73.821c0.227-0.168 0.483-0.261 0.759-0.256v2.05c0.169-0.085 0.338-0.17 0.507-0.256-0.43-0.512-0.85-1.025-1.27-1.538"/>
<path id="path165" fill="#fff" d="m150.48 86.639c-1.24 3.048-2.502 6.026-3.293 9.227-0.378 1.527-0.507 3.024-0.507 4.595v2.586c0 0.912-1.094 0.508-1.877 0.508-0.819 0 0.385-8.201 0.582-9.099 0.653-2.972 2.174-5.767 3.321-8.587 0.6 0.251 1.19 0.508 1.78 0.765"/>
<path id="path167" fill="#fff" d="m150.74 86.639c-0.704-0.115-1.361-0.481-2.026-0.77 0.68 0.256 1.35 0.513 2.03 0.77"/>
<path id="path169" fill="#fff" d="m146.68 103.3c-0.676 0.171-1.352 0.343-2.027 0.514l2.892 10.821c0.596 2.23 1.191 4.46 1.787 6.69 0.483 1.811 0.479 1.432 2.416 0.943-1.69-6.32-3.38-12.64-5.07-18.96"/>
<path id="path171" fill="#fff" d="m144.66 103.55c0.33 0.382 1.315-0.075 2.027-0.256v0.256h-2.03"/>
<path id="path173" fill="#fff" d="m151.75 122.52c0 2.508 0.441 4.623 2.026 6.664 1.081 1.392 4.351 5.291 6.333 4.871-0.169 0.684-0.338 1.367-0.507 2.051-3.347-0.519-5.851-3.611-7.728-6.151-1.092-1.478-1.41-2.871-1.965-4.558-0.253-0.77-0.188-1.527-0.188-2.335 0.01-0.97 1.21-0.54 2.04-0.54"/>
<path id="path175" fill="#fff" d="m151.75 122.27c-0.318 0.454-1.305 0.256-2.027 0.256v0.256c0.68-0.18 1.36-0.35 2.03-0.52"/>
<path id="path177" fill="#fff" d="m160.11 134.06c3.933 1.592 8.708 3.099 12.027 5.79 1.215 0.984 2.988 2.58 2.626 4.406-0.248 1.251-0.404 1.524-1.228 2.364-1.167 1.191-1.387 0.313-2.278-0.77 3.937-2.227-1.106-5.051-3.333-6.075-1.505-0.693-2.94-1.493-4.488-2.09-1.198-0.462-2.397-0.924-3.596-1.386-0.93-0.36-0.02-1.46 0.27-2.24"/>
<path id="path179" fill="#fff" d="m160.11 134.06c-0.254 0.684-0.507 1.367-0.761 2.051 0.53-0.33 0.58-1.32 0.76-2.05"/>
<path id="path181" fill="#fff" d="m172.02 147.64c-2.754 0.231-5.484 0.333-8.251 0.243-1.859-0.061-3.718-0.121-5.577-0.182-2.099-0.068-1.88 0.045-1.88-2.114 5.249 0.172 10.47 0.444 15.708 0v2.05"/>
<path id="path183" fill="#fff" d="m172.52 147.39c-0.195 0.159-0.229 0.298-0.507 0.258v-2.053c-0.233 0.033-0.554 0.142-0.759 0.258 0.43 0.5 0.85 1.01 1.27 1.53"/>
<path id="path185" fill="#fff" d="m156.31 147.64c-2.969 0.167-6.627 0.81-9.57 0.216-1.463-0.295-3.064-0.449-4.267-1.361-1.302-0.987-2.171-2.168-3.137-3.47 0.592-0.342 1.183-0.684 1.774-1.025 2.45 5.484 10.359 3.848 15.199 3.588 0.01 0.69 0.01 1.37 0.01 2.05"/>
<path id="path187" fill="#fff" d="m156.31 145.59v2.053-2.05"/>
<path id="path189" fill="#fff" d="m139.34 143.03c-0.37-1.495-0.426-2.04 0.053-3.492 0.401-1.219 0.73-2.42 0.962-3.684 0.948 0.239 2.114 0.067 1.899 1.152-0.178 0.896-0.552 1.716-0.887 2.563-0.351 0.888-0.451 1.318-0.188 2.122 0.33 1-0.97 1.01-1.83 1.34"/>
<path id="path191" fill="#fff" d="m139.34 143.03c0.676-0.256 1.352-0.512 2.027-0.768-0.53-0.48-1.46 0.44-2.03 0.77"/>
<path id="path193" fill="#fff" d="m140.35 135.85c0.597-3.319 1.086-6.634 0.507-9.998-0.535-3.108-1.836-5.8-2.705-8.79-0.993-3.411-2.214-6.632-2.564-10.182-0.315-3.19-0.067-6.045 0.457-9.224 0.37 0.094 2.058 0.319 2 0.674-0.136 0.822-0.28 1.64-0.442 2.458-0.326 1.647-0.292 3.389-0.292 5.062 0 3.368 1.653 7.283 2.804 10.391 1.091 2.946 2.471 6.078 2.784 9.241 0.37 3.731 0.087 7.19-0.521 10.88-0.69-0.17-1.36-0.34-2.04-0.51"/>
<path id="path195" fill="#fff" d="m142.38 136.36c-0.676-0.171-1.351-0.341-2.026-0.512 0.68 0.17 1.35 0.34 2.03 0.51"/>
<path id="path197" fill="#fff" d="m137.06 98.941c-1.668 0-3.204 0.77-4.82 0.77-1.773 0-3.247 0.006-5.059-0.256 0.333-1.347 0.042-2.129 1.492-1.885 0.841 0.142 1.702 0.437 2.562 0.346 1.895-0.199 3.902-0.748 5.825-1.025v2.05"/>
<path id="path199" fill="#fff" d="m138.07 98.173c0.154-0.384 0.173-0.876 0.253-1.283-1.712-0.296-1.268 0.688-1.268 2.05-0.337-0.427-0.674-0.854-1.011-1.281 0.68 0.172 1.36 0.343 2.03 0.514"/>
<path id="path201" fill="#fff" d="m127.18 99.455c-1.737-0.203 0.377-1.171 1.014-1.539-0.169-0.171-0.338-0.341-0.507-0.512-0.16 0.683-0.33 1.367-0.5 2.051"/>
<path id="path203" fill-rule="evenodd" clip-rule="evenodd" d="m150.99 94.841c4.316-3.279 8.356-8.048 11.463-12.5 3.532-5.063 5.668-10.36 8.377-15.855 1.118-2.271 2.898-5.556 5.651-6.019 2.93-0.493 5.062-0.667 7.789 0.716 4.991 2.531 6.769 8.041 7.56 13.243 1.842 12.113 7.018 23.156 10.816 34.698 1.929 5.859 4.604 10.012 9.3 14.085 2.119 1.838 4.416 3.463 6.531 5.297 1.169 1.014 2.261 2.046 3.348 3.147 0.484 0.49-0.728 3.149-1.167 3.688-3.366 4.12-11.737 1.368-15.901 0.26-2.851-0.759-5.859-1.734-8.799-2.067-0.804-0.091-3.559-0.001-4.181-0.499-0.313-0.251-0.325-1.098-0.665-1.441-0.641-0.647-1.198-1.299-1.764-2.014-1.614-2.04 0.529-4.544 0.908-6.799 0.456-2.716-0.352-5.542-0.572-8.23-0.47-5.708-2.385-11.725-4.317-17.104-2.816-7.838-5.37-15.794-6.003-24.134-3.847 6.746-7.722 13.504-12.109 19.915-1.564 2.286-4.664 7.096-7.905 6.998-1.708-0.052-3.201-1.681-4.369-2.732-1.069-0.963-3.743-1.965-4.244-3.162-0.038 0.538 0.049 0.807 0.254 1.282-0.01-0.254 0-0.512-0.01-0.767"/>
<path id="path205" fill="#fff" d="m150.23 94.072c5.768-4.381 9.913-10.384 14.188-16.149 0.709 0.598 1.785 0.925 1.161 1.767-0.838 1.129-1.676 2.259-2.513 3.389-1.209 1.63-2.434 3.269-3.716 4.841-1.278 1.567-2.697 2.984-4.116 4.421-0.815 0.826-1.583 1.636-2.507 2.336-1.49 1.135-1.32 0.813-2.49-0.605"/>
<path id="path207" fill="#fff" d="m164.16 77.923c2.4-3.816 3.666-7.941 5.65-11.951 2.146-4.334 4.814-6.334 9.55-7.017 0 1.722 0.357 1.991-1.363 2.28-0.953 0.161-2.141 0.493-2.944 1.052-1.613 1.122-2.924 3.479-3.708 5.227-1.013 2.256-1.957 4.536-2.9 6.822-0.519 1.257-1.049 2.286-1.772 3.438-0.96 1.515-1 1.027-2.52 0.149"/>
<path id="path209" fill="#fff" d="m165.94 79.205c-0.275-0.606-1.128-0.909-1.773-1.282 0.67 0.196 1.21 0.807 1.77 1.282"/>
<path id="path211" fill="#fff" d="m179.36 58.955c3.954 0 7.423 1.986 9.752 5.126 1.245 1.679 1.944 3.65 2.534 5.639 0.273 0.921 0.693 1.883 0.888 2.819 0.352 1.691-0.175 1.39-1.775 1.794-0.687-3.375-1.395-6.69-3.546-9.484-1.086-1.411-2.62-2.719-4.306-3.332-0.715-0.26-1.721-0.513-2.479-0.513-1.52 0.002-1.06-0.614-1.06-2.049"/>
<path id="path213" fill="#fff" d="m179.36 58.955v2.051-2.051"/>
<path id="path215" fill="#fff" d="m192.79 73.821c1.305 8.594 4.047 16.598 7.347 24.608-1.171 0.444-1.831 1.243-2.346-0.007-0.676-1.64-1.352-3.28-2.027-4.921-0.872-2.117-1.556-4.413-2.214-6.607-0.697-2.323-1.249-4.704-1.788-7.068-0.292-1.279-0.549-2.529-0.746-3.825-0.29-1.972-0.16-1.689 1.78-2.18"/>
<path id="path217" fill="#fff" d="m192.79 73.821c-0.676 0.171-1.353 0.342-2.028 0.513 0.68-0.17 1.36-0.342 2.03-0.513"/>
<path id="path219" fill="#fff" d="m200.14 98.429c1.404 3.908 2.276 8.075 3.799 11.918 0.745 1.88 1.566 3.733 2.534 5.512 0.537 0.986 1.146 1.674 1.931 2.467 1.189 1.202 0.46 1.268-0.663 2.404-2.529-3.198-4.362-6.06-5.649-9.968-1.277-3.878-2.309-7.844-3.978-11.563 0.68-0.255 1.35-0.511 2.03-0.768"/>
<path id="path221" fill="#fff" d="m200.14 98.429c-0.676 0.257-1.351 0.513-2.026 0.77 0.68-0.257 1.35-0.513 2.03-0.77"/>
<path id="path223" fill="#fff" d="m209.26 119.19c4.181 4.231 8.975 7.848 13.427 11.791-0.507 0.513-1.014 1.026-1.521 1.539-4.18-4.23-8.973-7.851-13.426-11.791 0.51-0.51 1.01-1.03 1.52-1.54"/>
<path id="path225" fill="#fff" d="m207.74 120.73c0.507-0.513 1.013-1.026 1.52-1.539-0.51 0.51-1.01 1.03-1.52 1.54"/>
<path id="path227" fill="#fff" d="m222.94 132.01c-0.78 3.157-1.978 5.246-5.312 6.086-2.711 0.683-5.911 0.192-8.638-0.421-3.307-0.743-6.563-1.717-9.881-2.388-1.597-0.322-3.162-0.698-4.779-0.904-0.801-0.102-1.601-0.202-2.401-0.304-0.343-0.043-0.15-1.699-0.15-2.069 5.379 0.604 10.425 1.975 15.69 3.158 3.005 0.676 5.615 1.199 8.7 1.199 2.983 0 4.13-2.388 4.742-4.869 0.68 0.16 1.35 0.33 2.03 0.5"/>
<path id="path229" fill="#fff" d="m222.69 130.98c0.202 0.33 0.303 0.637 0.254 1.025-0.676-0.171-1.353-0.341-2.028-0.512 0.007 0.295 0.12 0.764 0.254 1.025 0.51-0.51 1.02-1.02 1.53-1.54"/>
<path id="path231" fill="#fff" d="m190.76 133.29c0.036-1.632-2.569-3.111-3.039-4.869 0.676-0.171 1.351-0.343 2.026-0.514-0.341 1.418 2.612 3.263 3.041 4.871-0.67 0.17-1.35 0.34-2.03 0.51"/>
<path id="path233" fill="#fff" d="m191.78 134.06c-0.514 0.153-1.493 0.003-1.015-0.77 0.174-0.281 1.672-0.422 2.028-0.512-0.28-0.273-0.675-0.572-1.014-0.77v2.05"/>
<path id="path235" fill="#fff" d="m187.72 128.16c-0.276-2.143 1.766-4.095 1.52-6.152 0.676 0.085 1.352 0.171 2.027 0.256-0.431 0.912-0.429 2.158-0.707 3.146-0.284 1.006-0.942 1.921-0.813 3.007-0.67-0.1-1.35-0.18-2.03-0.27"/>
<path id="path237" fill="#fff" d="m187.72 128.42c0.322-0.418 1.309-0.091 2.026 0v-0.514c-0.67 0.17-1.35 0.34-2.03 0.51"/>
<path id="path239" fill="#fff" d="m189.24 122.01c0-8.511-2.348-16.658-5.098-24.663-1.522-4.43-3.057-8.847-4.179-13.397-0.476-1.928-0.651-3.936-1.096-5.88-0.24-1.053-0.333-2.034-0.416-3.116-0.136-1.784 0.181-1.426 1.922-1.646 0.625 8.231 3.063 16.394 5.849 24.151 2.927 8.149 4.388 15.931 5.045 24.551h-2.02"/>
<path id="path241" fill="#fff" d="m191.27 122.27c-0.318-0.454-1.305-0.256-2.027-0.256 0.68 0.09 1.36 0.17 2.03 0.26"/>
<path id="path243" fill="#fff" d="m180.12 73.821c-3.709 6.972-7.885 13.52-12.114 20.18-1.575 2.481-4.587 6.558-7.675 7.081-3.531 0.599-6.847-3.695-9.851-5.217 0.193-0.342 0.831-1.885 1.172-1.713 0.965 0.488 1.824 1.001 2.722 1.606 1.316 0.887 2.658 2.68 4.212 3.182 3.161 1.021 6.288-4.035 7.855-6.152 4.591-6.2 8.291-13.199 11.905-19.992 0.6 0.344 1.19 0.686 1.78 1.027"/>
<path id="path245" fill="#fff" d="m180.38 73.31c-0.169-1.025-0.337-2.05-0.506-3.076-0.507 0.854-1.015 1.708-1.521 2.563 0.591 0.341 1.183 0.683 1.773 1.024-0.591-0.085-1.183-0.17-1.773-0.256 0.68-0.085 1.35-0.17 2.03-0.255"/>
<path id="path247" fill="#fff" d="m149.98 95.354c0.643 0.147 1.411 0.083 1.774-0.513v0.256c-0.59 0.085-1.18 0.171-1.77 0.257-0.079-0.857 0.813-0.513 1.5-0.513 0.562 0 0.832 0.73 0.375 0.788-2.184 0.276-2.309 0.017-1.622-2.069 0.507 0.342 1.015 0.683 1.521 1.025-0.6 0.255-1.19 0.512-1.78 0.769"/>
<path id="path249" fill="#fff" d="m150.48 95.865c-0.186-0.132-0.347-0.35-0.507-0.512 0.592-0.256 1.183-0.513 1.774-0.77-0.085-0.17-0.169-0.341-0.254-0.512-0.33 0.599-0.67 1.197-1.01 1.794"/>
<path id="path251" fill="#fff" d="m149.98 94.841c-0.01-0.346-0.039-0.548 0.253-0.769 0.423 0.512 0.845 1.025 1.268 1.537 0.181-0.177 0.425-0.53 0.505-0.769-0.67 0.001-1.35 0.001-2.02 0.001"/>
<path id="path253" fill-rule="evenodd" clip-rule="evenodd" d="m191.27 74.591c3.006-11.146 6.492-23.472 15.454-31.4 1.946-1.722 4.43-3.483 7.038-4.012 2.095-0.425 5.669-1.201 7.4 0.552 1.92 1.944 2.104 4.71 1.775 7.433-0.33 2.737-0.941 5.667-1.637 8.341-1.534 5.898-1.817 11.474-1.404 17.548 0.397 5.842-0.761 11.521-0.761 17.393 0 1.117 5.223 3.332 6.132 3.861 3.745 2.179 7.49 4.358 11.236 6.537 2.552 1.485 2.896 1.681 4.013 4.434 0.782 1.928 1.564 3.855 2.346 5.784 0.653 1.61 0.615 1.457-0.925 2.235-5.489 2.773-13.734 1.005-19.144-1.186-6.354-2.573-12.056-5.385-17.337-9.838 3.038-2.46 5.673-5.215 6.765-9.089 0.81-2.87-0.116-6.412-0.364-9.337-0.782-9.237-1.565-18.474-2.348-27.711-1.598 6.467-3.196 12.935-4.794 19.402-0.3 1.212-6.482 2.616-7.674 2.858-2.78 0.584-5.35-0.988-5.78-3.782"/>
<path id="path255" fill="#fff" d="m190.26 74.334c1.522-5.904 3.429-11.507 5.752-17.145 2.079-5.044 5.143-10.508 9.258-14.15 2.272-2.011 4.627-3.462 7.412-4.59 1.013-0.41 2.479-0.769 3.578-0.769 0.774 0 1.36-0.321 1.36 0.532 0 1.335 0.292 1.519-1.067 1.519-5.574 0-10.218 4.719-13.318 8.754-2.889 3.758-5.323 8.526-6.81 13.035-0.854 2.592-1.906 5.047-2.618 7.688-0.39 1.444-0.778 2.888-1.167 4.332-0.45 1.717-0.65 1.231-2.37 0.794"/>
<path id="path257" fill="#fff" d="m217.62 37.68c6.873-0.651 6.71 7.545 5.771 12.061-1.225 5.886-2.73 11.766-2.73 17.79 0 1.441-2.025 1.441-2.025 0 0-1.379-0.166-2.861 0.1-4.213 0.626-3.185 1.085-6.259 1.907-9.417 0.694-2.668 1.284-5.884 1.284-8.634 0-2.744-0.217-4.407-2.983-5.345-1.57-0.53-1.33-0.315-1.33-2.242"/>
<path id="path259" fill="#fff" d="m217.62 37.68v2.05-2.05"/>
<path id="path261" fill="#fff" d="m220.66 68.439c0.206 3.779 0.84 7.688 0.226 11.438-0.335 2.047-0.554 4.075-0.724 6.143-0.072 0.882-0.009 1.793-0.009 2.678 0 1.42 0.478 2.041-1.014 2.041-1.338 0-1.013-0.217-1.013-1.522 0-1.056-0.078-2.144 0.009-3.197 0.166-2.017 0.335-4.019 0.662-6.017 0.623-3.821 0.047-7.706-0.163-11.564h2.01"/>
<path id="path263" fill="#fff" d="m218.63 68.439h1.875-1.87"/>
<path id="path265" fill="#fff" d="m219.64 89.97c-1.104 1.959-1.184 1.694 0.627 2.747 2.271 1.321 4.542 2.643 6.813 3.964l11.814 6.873c1.107-1.958 1.188-1.692-0.623-2.746-2.271-1.321-4.543-2.643-6.814-3.964-3.94-2.283-7.88-4.574-11.82-6.866"/>
<path id="path267" fill="#fff" d="m218.13 90.739c-0.021 0.456 0.082 0.767 0.508 1.025 0.337-0.598 0.674-1.196 1.011-1.794 0.185 0.181 0.419 0.527 0.508 0.769h-2.03"/>
<path id="path269" fill="#fff" d="m240.42 102.27c-0.676 0.257-1.352 0.513-2.027 0.77 0.849 2.093 1.697 4.186 2.546 6.279 0.462 1.14 0.925 2.28 1.387 3.42 0.263 0.647 1.608-0.266 2.149-0.471-1.36-3.33-2.71-6.66-4.06-10"/>
<path id="path271" fill="#fff" d="m239.91 101.76c0.259 0.105 0.44 0.104 0.506 0.512-0.676 0.257-1.352 0.513-2.027 0.77 0.169 0.171 0.338 0.341 0.507 0.512 0.34-0.59 0.68-1.19 1.01-1.79"/>
<path id="path273" fill="#fff" d="m243.97 113.55c-6.715 3.588-15.111 1.921-21.909-0.58-3.446-1.269-6.665-2.951-9.862-4.747-1.475-0.828-3.28-1.561-4.556-2.667-0.725-0.629-1.448-1.257-2.182-1.875-1.108-0.935-0.359-1.127 0.506-2.178 5.17 4.354 11.653 7.898 18.13 9.86 3.461 1.048 7.042 2.187 10.696 2.187 1.758 0 3.464-0.012 5.122-0.641 0.839-0.318 1.737-0.494 2.533-0.896 0.89-0.45 1.09 0.78 1.52 1.54"/>
<path id="path275" fill="#fff" d="m244.47 112.27c0.402 0.599 0.177 1.071-0.507 1.281-0.338-0.598-0.677-1.195-1.015-1.793-0.169 0.427-0.338 0.854-0.507 1.281 0.69-0.26 1.37-0.51 2.04-0.77"/>
<path id="path277" fill="#fff" d="m204.7 101.5c1.973-1.598 3.643-2.983 4.948-5.183 0.566-0.954 1.134-1.872 1.438-2.95 0.544-1.925 0.59-1.574 2.48-1.095-0.729 2.583-1.817 4.758-3.42 6.92-0.762 1.028-1.715 1.849-2.704 2.649-1.64 1.33-1.43 1.28-2.75-0.34"/>
<path id="path279" fill="#fff" d="m204.7 103.04c-0.844-0.498-0.845-1.039 0-1.537 0.422 0.513 0.844 1.024 1.266 1.537v-1.537c-0.43 0.52-0.85 1.03-1.27 1.54"/>
<path id="path281" fill="#fff" d="m211.54 92.277c0.679-0.086 2.064 0.194 1.993-0.652-0.091-1.065-0.181-2.131-0.271-3.196-0.35-4.137-0.7-8.275-1.051-12.413-0.562-6.627-1.123-13.254-1.685-19.881-0.679 0.086-2.065-0.194-1.994 0.652 0.091 1.065 0.181 2.131 0.271 3.196 0.351 4.137 0.701 8.275 1.052 12.413 0.57 6.627 1.13 13.254 1.69 19.881"/>
<path id="path283" fill="#fff" d="m213.56 92.277c-0.322-0.42-1.308-0.091-2.026 0v-0.513c0.69 0.172 1.36 0.342 2.03 0.513"/>
<path id="path285" fill="#fff" d="m210.52 56.392c-0.676-0.171-1.352-0.342-2.027-0.513-0.936 3.786-1.871 7.571-2.807 11.357-0.551 2.227-1.101 4.454-1.651 6.681-0.447 1.809-0.252 1.469 1.672 1.956 1.62-6.494 3.22-12.987 4.82-19.481"/>
<path id="path287" fill="#fff" d="m210.52 56.135c-0.676-0.085-1.352-0.171-2.027-0.256 0.676 0.171 1.352 0.342 2.027 0.513h-2.027c0.68-0.085 1.36-0.171 2.03-0.257"/>
<path id="path289" fill="#fff" d="m204.95 76.641c-2.563 1.113-6.437 3.365-9.317 2.781-1.765-0.358-2.908-0.367-4.109-1.754-0.574-0.664-0.864-1.195-1.078-2.061-0.303-1.219 0.752-0.998 1.839-1.272 1.134 5.742 8.539 1.972 11.906 0.513 0.25 0.597 0.51 1.195 0.76 1.793"/>
<path id="path291" fill="#fff" d="m205.71 75.873c-0.169 0.394-0.327 0.641-0.761 0.769-0.253-0.598-0.507-1.196-0.76-1.793-0.169 0.171-0.339 0.341-0.508 0.512 0.68 0.17 1.36 0.341 2.03 0.512"/>
<path id="path293" fill="#fff" d="m190.26 74.848v-0.513c0.676 0.171 1.352 0.342 2.027 0.513v-0.513c-0.68 0.17-1.36 0.342-2.03 0.513"/>
<path id="path295" fill="#fff" d="m31.415 102.27c-2.108-5.693-3.203-11.117-2.278-17.173 0.817-5.352 5.428-9.939 11.05-7.097 10.263 5.189 15.295 18.497 15.295 29.399 0 6.063-4.136 14.131-11.398 10.508-6.162-3.07-10.34-9.35-12.669-15.64"/>
<path id="path297" d="m30.401 102.79c-1.684-4.541-2.787-9.333-2.787-14.203 0-5.033 1.86-8.93 5.828-11.942 0.855 1.516 1.317 1.677-0.197 2.697-1.073 0.723-1.526 1.557-2.083 2.686-1.01 2.046-1.521 4.134-1.521 6.408 0 2.478 0.2 5.17 0.798 7.585 0.337 1.364 0.818 2.611 1.229 3.949 0.623 2.03 0.592 2.01-1.267 2.82"/>
<path id="path299" d="m33.694 76.641c2.718-0.566 4.24-0.364 6.841 0.513 2.527 0.853 4.084 2.801 6.081 4.486 1.651 1.393 3.542 3.965 4.507 5.917 0.573 1.158 1.282 2.273 1.826 3.439 0.939 2.015 0.787 2.035-1.012 3.076-1.667-4.494-4.15-8.298-7.479-11.669-1.703-1.725-3.326-3.18-5.75-3.671-1.202-0.244-1.651-0.699-2.975-0.363-1.846 0.468-1.603 0.036-2.039-1.728"/>
<path id="path301" d="m33.442 76.641c0.521 0.332 0.579 1.321 0.759 2.051 0.473-0.536-0.428-1.465-0.759-2.051"/>
<path id="path303" d="m53.962 93.302c2.942 7.927 5.289 20.673-3.292 25.889-0.338-0.598-0.676-1.195-1.014-1.793 3.963-1.513 4.814-6.513 4.814-10.183 0-4.699-1.069-8.958-2.534-13.4 0.675-0.175 1.351-0.347 2.026-0.518"/>
<path id="path305" d="m53.708 93.046c0.084 0.085 0.169 0.171 0.253 0.256-0.726 0.184-1.706 0.239-2.026 0.77 0.591-0.342 1.183-0.684 1.773-1.026"/>
<path id="path307" d="m50.669 119.19c-4.142 1.679-9.762-0.88-12.509-4.216-3.188-3.871-5.536-7.691-7.759-12.188 1.646-0.714 1.626-1.03 2.525 0.56 0.488 0.864 0.863 1.787 1.351 2.649 1.226 2.168 2.555 4.237 4.138 6.161 2.156 2.622 7.833 7.543 11.495 4.983 0.253 0.69 0.506 1.38 0.759 2.06"/>
<path id="path309" d="m50.669 119.19c-0.253-0.684-0.507-1.367-0.76-2.051-0.474 0.54 0.429 1.46 0.76 2.05"/>
<path id="path311" d="m30.401 102.79c0.591-0.257 1.182-0.513 1.773-0.77-0.591 0.25-1.181 0.51-1.773 0.77"/>
<path id="path313" stroke="#D01B31" fill="#FFBF00" d="m34.455 96.635c-1.346-4.532-3.427-11.888 1.519-15.123 5.023-3.285 10.751 2.151 13.068 6.369 2.368 4.309 4.302 12.051 0.106 15.932-4.588 4.244-10.536-0.973-13.309-4.711-0.553-0.744-0.938-1.65-1.384-2.464"/>
<path id="path315" d="m33.694 96.891c-1.233-3.125-1.772-5.564-1.772-8.915 0-1.665 0.7-2.884 1.08-4.423 0.434-1.757 1.911-2.329 3.227-3.323 0.338 0.598 0.676 1.196 1.015 1.794-2.256 0.395-3.298 4.258-3.549 6.151-0.353 2.669 0.731 5.572 1.775 7.946-0.593 0.257-1.184 0.513-1.776 0.77"/>
<path id="path317" d="m36.228 79.974c3.675-0.929 6.385-0.085 9.374 2.179 1.369 1.037 2.546 2.37 3.419 3.845 0.504 0.851 0.974 1.721 1.45 2.587 0.385 0.701-0.992 1.048-1.576 1.386-0.712-1.298-1.633-2.531-2.279-3.845-0.747-1.518-2.248-2.018-3.35-3.133-0.804-0.813-2.624-1.481-3.773-1.481-0.751 0-1.234 0.084-1.941 0.323-0.997 0.336-1.007-1.006-1.324-1.861"/>
<path id="path319" d="m36.228 80.23c0.068-0.434 0.467 1.645 1.015 1.794-0.339-0.597-0.677-1.195-1.015-1.794"/>
<path id="path321" d="m50.669 88.945c2.1 5.314 3.523 13.416-2.534 16.918-0.23-0.407-1.23-1.649-0.817-1.928 0.793-0.536 1.169-0.992 1.83-1.661 0.981-0.995 1.205-3.31 1.268-4.614 0.093-1.927-0.037-3.43-0.705-5.23-0.279-0.752-0.469-1.545-0.698-2.314-0.223-0.754 1.028-0.894 1.656-1.167"/>
<path id="path323" d="m50.669 88.945c-0.65 0.282-1.511 0.464-1.774 1.025 0.591-0.342 1.183-0.683 1.774-1.025"/>
<path id="path325" d="m48.136 105.86c-3.796 0.957-6.302 0.151-9.374-2.18-1.36-1.032-2.413-2.354-3.42-3.716-0.569-0.77-0.989-1.622-1.45-2.461-0.385-0.701 0.992-1.047 1.577-1.384 1.531 2.791 3.002 5.221 5.826 6.92 1.244 0.748 2.58 1.281 4.025 1.281 1.972 0 1.905-0.61 2.816 1.54"/>
<path id="path327" d="m48.136 105.86c-0.278-0.655-0.457-1.524-1.014-1.795 0.337 0.61 0.676 1.2 1.014 1.8"/>
<path id="path329" d="m33.694 97.146c0.264-0.561 1.125-0.743 1.775-1.024-0.592 0.341-1.183 0.683-1.775 1.024"/>
<path id="path331" fill="#fff" d="m48.136 99.199c-4.081-9.288-3.296-24.885 7.853-28.965 5.587-2.044 11.381-0.492 16.092 2.914 2.43 1.757 4.615 3.899 6.199 6.464 1.66 2.687 2.736 5.304 4 8.181 3.831 8.717 0.802 23.526-9.008 26.852-2.485 0.843-4.947 0.982-7.521 0.611-3.011-0.435-5.194-1.737-7.783-3.23-4.879-2.81-7.646-7.84-9.832-12.821"/>
<path id="path333" d="m47.122 99.71c-0.79-2.671-1.821-5.303-2.126-8.085-0.269-2.45-0.717-6.12 0.156-8.472 1.047-2.819 1.664-5.533 3.341-8.079 1.692-2.569 4.2-4.399 6.989-5.611 0.14 0.329 0.868 1.486 0.761 1.794-0.116 0.335-1.646 0.834-2.055 1.041-1.396 0.705-2.359 1.806-3.267 3.061-1.944 2.69-2.962 5.076-3.762 8.307-0.645 2.608-0.499 5.978-0.038 8.61 0.25 1.427 0.632 2.959 1.014 4.357 0.598 2.189 1.162 2.133-1.013 3.077"/>
<path id="path335" d="m55.481 69.208c3.258-0.818 5.657-1.086 9.004-0.603 3.036 0.439 5.52 1.909 7.97 3.679 2.542 1.836 4.597 3.775 6.333 6.408 0.858 1.302 1.644 2.661 2.463 3.988 0.432 0.699 0.698 1.541 1.028 2.292 0.128 0.292-1.411 0.976-1.717 1.153-2.311-5.257-5.682-10.316-10.762-13.253-2.322-1.342-4.696-2.091-7.343-2.473-1.633-0.236-2.93-0.165-4.512 0.292-1.921 0.557-1.714 0.538-2.464-1.483"/>
<path id="path337" d="m55.481 69.464c0.077-0.488 0.606 1.376 0.761 1.794-0.253-0.598-0.507-1.196-0.761-1.794"/>
<path id="path339" d="m82.336 85.355c0.999 3.04 1.916 5.909 2.266 9.101 0.336 3.057-0.356 5.948-0.728 8.947-0.358 2.888-2.438 5.233-3.95 7.528-0.939 1.425-2.255 2.536-3.716 3.381-0.671 0.388-1.389 0.668-2.101 0.977-0.299 0.129-0.969-1.424-1.146-1.736 10.963-4.76 10.833-17.859 7.601-27.684 0.592-0.168 1.183-0.34 1.774-0.511"/>
<path id="path341" d="m82.336 85.1c-0.25 0.707-1.526 0.317-1.773 1.025 0.591-0.341 1.182-0.683 1.773-1.025"/>
<path id="path343" d="m73.977 115.6c-5.353 1.346-11.248 1.244-15.914-2.127-4.966-3.588-8.477-8.162-10.941-13.766 2.05-0.89 1.809-0.7 2.788 1.281 0.686 1.389 1.386 2.578 2.28 3.844 1.636 2.316 3.791 4.975 6.286 6.418 2.365 1.368 5.437 3.324 8.312 3.324 1.674 0 3.108 0.008 4.725-0.46 1.921-0.54 1.715-0.52 2.464 1.5"/>
<path id="path345" d="m73.977 115.34c-0.067 0.438-0.468-1.643-1.014-1.793 0.337 0.6 0.676 1.2 1.014 1.79"/>
<path id="path347" d="m47.122 99.71c0.591-0.257 1.182-0.513 1.773-0.77-0.591 0.258-1.182 0.514-1.773 0.77"/>
<path id="path349" stroke="#D01B31" fill="#FFBF00" d="m52.948 92.021c-1.417-5.267-2.434-11.386 1.832-15.692 3.946-3.984 10.123-3.879 14.479-0.576 4.559 3.458 6.745 8.939 6.745 14.546 0 4.683-4.061 10.951-9.247 10.951-2.844 0-5.202-0.417-7.671-1.915-2.91-1.767-4.435-4.444-6.138-7.314"/>
<path id="path351" d="m52.189 92.534c-2.695-7.489-1.935-15.078 5.319-19.481 0.71 1.257 1.36 1.533 0.159 2.443-0.759 0.575-1.436 0.898-2.128 1.602-1.229 1.248-2.238 3.231-2.656 4.937-0.426 1.74-0.422 4.108-0.186 5.886 0.141 1.062 0.645 2.118 1.003 3.114 0.411 1.146-0.476 1.049-1.511 1.499"/>
<path id="path353" d="m57.508 73.053c7.861-3.18 14.239 2.66 17.988 8.972-0.958 0.363-1.851 1.213-2.28 0.128-0.326-0.825-0.866-1.47-1.393-2.179-1.1-1.48-2.192-2.674-3.73-3.712-2.653-1.791-6.835-2.944-9.824-1.159-0.253-0.684-0.507-1.367-0.761-2.05"/>
<path id="path355" d="m57.508 73.053c0.253 0.684 0.507 1.367 0.761 2.05 0.473-0.535-0.43-1.465-0.761-2.05"/>
<path id="path357" d="m75.496 82.025c1.341 3.729 2.119 7.636 1.014 11.534-0.58 2.046-1.932 3.803-3.176 5.479-0.436 0.587-1.504 1.335-2.146 1.697-1.533 0.865-1.45 0.079-2.026-1.281 3.016-0.182 5.045-5.026 5.532-7.49 0.647-3.273-0.003-6.076-1.226-9.171 0.677-0.261 1.352-0.517 2.028-0.773"/>
<path id="path359" d="m75.496 82.025c-0.676 0.256-1.351 0.512-2.027 0.769 0.676-0.257 1.351-0.513 2.027-0.769"/>
<path id="path361" d="m69.923 101.5c-1.854 0.28-3.263 0.95-5.208 0.753-2.283-0.23-4.26-0.721-6.193-2.036-1.637-1.113-2.993-2.415-4.172-4.003-0.597-0.804-1.365-1.673-1.733-2.604-0.581-1.469 0.028-1.345 1.345-2.107 1.772 5.367 9.432 11.391 15.201 7.947 0.254 0.697 0.507 1.377 0.76 2.057"/>
<path id="path363" d="m69.923 101.25c-0.077 0.486-0.605-1.377-0.76-1.795 0.254 0.595 0.507 1.195 0.76 1.795"/>
<path id="path365" d="m52.189 92.534c0.65-0.282 1.51-0.463 1.772-1.026-0.59 0.342-1.181 0.684-1.772 1.026"/>
<path id="path367" d="m96.522 73.821c2.639 8.673 3.349 18.274 0 26.915-3.189 8.23-10.623 15.785-18.239 19.994 7.857-4.977 14.579-10.504 18.295-19.272 3.742-8.839 3.233-18.772-0.056-27.639" fill-rule="evenodd" clip-rule="evenodd" fill="#fff"/>
<path id="path369" fill="#fff" d="m97.03 73.565c1.391 4.922 2.853 9.766 2.512 14.946-0.183 2.768-0.31 5.58-1.067 8.261-0.379 1.345-0.758 2.689-1.138 4.033-0.493 1.743-0.798 1.73-2.333 1.212 2.172-4.391 3.041-9.592 3.041-14.473 0-2.519-0.149-5.277-0.836-7.708-0.293-1.039-0.336-2.111-0.65-3.146-0.546-1.782-1.348-2.381 0.471-3.118"/>
<path id="path371" fill="#fff" d="m96.269 102.79c-2.137 3.966-4.524 7.942-7.893 11.008-1.714 1.561-3.38 3.207-5.248 4.581-0.95 0.699-1.9 1.396-2.863 2.077-1.5 1.062-1.345 1.212-2.49-0.236 7.378-4.752 13.051-10.455 17.227-18.199 0.423 0.25 0.845 0.51 1.267 0.77"/>
<path id="path373" fill="#fff" d="m96.522 102.53c-0.529 0.375-0.943-0.163-1.52-0.514 0.507 0.17 1.014 0.34 1.52 0.51"/>
<path id="path375" fill="#fff" d="m77.776 120.22c6.255-3.954 13.483-8.841 16.466-15.893 0.507 0.257 1.014 0.513 1.521 0.77-1.971 3.489-4.526 6.896-7.636 9.469-1.729 1.431-3.521 2.735-5.284 4.117-0.789 0.618-1.581 1.256-2.429 1.791-1.585 0.99-1.472 1.21-2.638-0.26"/>
<path id="path377" fill="#fff" d="m77.776 120.22c0.337 0.427 0.675 0.854 1.013 1.281-0.338-0.43-0.676-0.86-1.013-1.28 0.337 0.427 0.675 0.854 1.013 1.281-0.338-0.43-0.676-0.86-1.013-1.28"/>
<path id="path379" fill="#fff" d="m94.242 104.58c1.145-2.313 2.289-4.646 2.91-7.157 0.588-2.38 1.554-5.596 1.392-8.054-0.176-2.667 0.052-5.648-0.678-8.232-0.411-1.453-0.753-2.923-1.164-4.376-0.484-1.71-1.56-2.431 0.329-3.195 1.012 2.728 1.628 5.31 2.318 8.098 0.712 2.882 0.469 5.856 0.469 8.819 0 2.894-0.955 5.65-1.642 8.44-0.323 1.311-0.984 2.574-1.455 3.844-0.233 0.629-0.498 1.243-0.76 1.86-0.336 0.79-0.995 0.19-1.719-0.05"/>
<path id="path381" fill="#fff" d="m95.763 105.09c-0.621-0.21-1.268-0.282-1.521-0.77 0.507 0.26 1.014 0.52 1.521 0.77"/>
<path id="path383" fill="#fff" d="m97.03 73.565c-0.422 0.171-0.844 0.342-1.267 0.513 0.423-0.171 0.844-0.342 1.267-0.513-0.422 0.171-0.844 0.342-1.267 0.513 0.423-0.171 0.844-0.342 1.267-0.513"/>
<path id="path385" d="m97.283 66.132c-0.01 1.22 1.086 2.316 1.266 3.589 0.181 1.276-0.084 3.113-1.013 4.101-1.822 1.937-5.655-0.237-7.602-1.024 1.278 2.579 6.519 5.504 8.488 2.178 0.933-1.575 2.66-3.111 2.66-5.055 0-2.312-2.09-2.753-3.797-3.789" fill-rule="evenodd" clip-rule="evenodd" fill="#fff"/>
<path id="path387" fill="#fff" d="m98.044 65.876c0.122 0.75 0.394 1.568 0.759 2.306 0.68 1.374 0.393 1.32-1.013 1.795-0.274-0.833-0.545-1.616-0.935-2.403-0.65-1.315-0.049-1.282 1.189-1.698"/>
<path id="path389" fill="#fff" d="m99.31 69.721c0 1.79-0.141 2.901-1.135 4.415-0.209 0.319-1.258 1.172-1.652 1.225-1.297 0.172-1.084-0.437-1.266-1.539 1.24 0.153 1.985-0.642 2.346-1.737 0.58-1.762-0.512-2.364 1.707-2.364"/>
<path id="path391" fill="#fff" d="m99.31 69.464c-0.254 0.427-0.88 0.257-1.52 0.257v0.256c0.507-0.171 1.013-0.342 1.52-0.513"/>
<path id="path393" fill="#fff" d="m95.256 75.36c-1.103 0.027-2.284-0.599-3.322-0.949-0.697-0.235-1.373-0.489-2.054-0.765-0.409-0.165 0.184-1.238 0.309-1.617 1.597 0.644 3.628 1.679 5.321 1.793-0.085 0.512-0.169 1.025-0.254 1.538"/>
<path id="path395" fill="#fff" d="m95.51 75.36c-0.385-0.271-0.105-0.897 0-1.539h-0.253c0.084 0.513 0.168 1.026 0.253 1.539"/>
<path id="path397" fill="#fff" d="m90.442 72.54c1.353 1.098 1.641 2.396 3.546 2.82 0.643 0.143 1.484 0.081 2.144 0.155 1.215 0.136 0.897 0.447 0.897 1.639-1.583-0.178-3.135-0.102-4.561-0.769-1.566-0.733-2.24-1.81-3.292-3.076 0.423-0.256 0.845-0.513 1.266-0.769"/>
<path id="path399" fill="#fff" d="m90.189 72.028c-0.676-0.171-1.351-0.342-2.027-0.513 0.338 0.598 0.677 1.196 1.015 1.794 0.422-0.256 0.843-0.513 1.265-0.77-0.232 0.347-0.489 0.708-0.761 1.025 0.17-0.511 0.339-1.023 0.508-1.536"/>
<path id="path401" fill="#fff" d="m96.776 75.616c0.913 0.081 0.983-0.818 1.268-1.538 1.171 0.711 1.345 0.571 0.838 1.851-0.25 0.63-0.941 1.106-1.599 1.226-0.169-0.513-0.338-1.027-0.507-1.539"/>
<path id="path403" fill="#fff" d="m97.03 77.154c0.343-0.286-0.044-0.904-0.253-1.539h0.253v1.539"/>
<path id="path405" fill="#fff" d="m98.044 73.821c1.064-1.23 2.283-2.378 2.279-4.101 0.447 0.075 1.521 0.006 1.521 0.513 0 0.815-0.387 1.62-0.682 2.363-0.284 0.718-1.075 1.352-1.575 1.931-0.502 0.584-1.026-0.289-1.541-0.706"/>
<path id="path407" fill="#fff" d="m98.044 74.078c0.266-0.29 0.75 0.351 1.266 0.77-0.422-0.257-0.844-0.514-1.266-0.77"/>
<path id="path409" fill="#fff" d="m100.32 69.977c0.292-1.751-2.242-2.636-3.546-3.076 1.024-1.727 1.754-1.089 3.349-0.12 1.057 0.642 1.358 1.847 1.719 2.94-0.5 0.085-1.01 0.171-1.52 0.256"/>
<path id="path411" fill="#fff" d="m101.84 69.977c-0.265-0.393-0.883-0.107-1.521 0v-0.256c0.51 0.085 1.02 0.171 1.52 0.256"/>
<path id="path413" fill="#fff" d="m97.537 65.619c-0.422-0.256-0.845-0.513-1.268-0.769 0.084 0.513 0.169 1.025 0.253 1.538 0.507-0.17 1.014-0.341 1.521-0.512-0.422 0.342-0.845 0.683-1.268 1.025 0.255-0.427 0.508-0.855 0.762-1.282"/>
<path id="path415" d="m48.642 51.777c-2.265-1.963-4.233-3.619-6.839-5.125-2.642-1.527-5.324-2.309-8.243-3.152-5.478-1.584-12.062-0.95-17.711-0.95-4.875 0-11.98 1.08-13.755 6.465-0.699 2.121-1.828 4.961-0.442 7.063 0.513 0.778 1.184 2.638 2.092 2.943 0.88 0.296 2.906 1.089 3.478-0.067 0.356-0.721 1.093-1.053 1.139-2.05 0.04-0.859-0.358-2.081-0.472-2.943-0.208-1.586-0.4-4.25-1.809-5.26 6.502-2.922 14.265-2.317 21.28-2.049 7.483 0.286 14.416 2.231 21.282 5.125" fill-rule="evenodd" stroke="#D01B31" clip-rule="evenodd" fill="#FFBF00"/>
<path id="path417" d="m47.882 52.547c-4.08-4.132-8.593-6.292-14.051-7.871-2.688-0.777-5.43-0.747-8.194-0.921-1.453-0.092-2.886-0.179-4.34-0.179h-2.764c-0.607 0-0.291-1.394-0.291-1.899 0-0.918 15.169 0.813 16.72 1.129 5.646 1.152 10.206 4.531 14.439 8.203-0.505 0.512-1.012 1.026-1.519 1.538"/>
<path id="path419" d="m18.242 43.576c-3.594 0-7.143 0.33-10.631 1.215-1.315 0.333-2.899 1.827-3.684 2.886-0.387 0.521-0.456 1.347-0.885 1.794-0.67 0.699-1.2 0.273-2.28 0 0.854-3.153 4.014-6.299 7.291-6.961 1.954-0.394 3.883-0.628 5.866-0.83 1.164-0.118 2.271-0.156 3.442-0.156 1.363 0.001 0.881 0.796 0.881 2.052"/>
<path id="path421" d="m18.242 41.525v2.051-2.051"/>
<path id="path423" d="m2.788 49.983c-0.3 1.365-0.76 2.711-0.76 4.102 0 0.6 0.503 1.27 0.694 1.852 0.146 0.44-1.319 1-1.707 1.225-0.303-1.34-1.043-2.105-1.014-3.589 0.027-1.38 0.464-2.75 0.761-4.101 0.675 0.17 1.351 0.341 2.026 0.511"/>
<path id="path425" d="m0.762 49.471c0.675 0.17 1.351 0.341 2.026 0.512-0.675-0.17-1.351-0.341-2.026-0.512"/>
<path id="path427" d="m2.788 56.135c0.581 1.612 2.179 2.938 3.546 2.051 0.468-0.303 0.579-0.841 0.888-1.154 0.308-0.312-0.378-1.09 0.023-1.192 0.626-0.158 1.251-0.316 1.877-0.474 0.911 2.729-1.193 5.126-3.81 5.126-1.469 0-2.231-0.73-3.228-1.737-1.469-1.484-0.901-1.691 0.704-2.62"/>
<path id="path429" d="m2.788 56.135l-1.773 1.026 1.773-1.026"/>
<path id="path431" d="m7.095 55.879c0.676-0.085 1.351-0.17 2.027-0.255l-0.414-3.144c-0.155-1.174-1.072-0.578-2.12-0.445 0.169 1.281 0.338 2.562 0.507 3.844"/>
<path id="path433" d="m7.095 55.879c0.676-0.085 1.351-0.17 2.027-0.255v-0.257c-0.676 0.171-1.351 0.341-2.027 0.512"/>
<path id="path435" d="m6.588 52.291c-0.514-0.697-0.299-1.374-0.634-2.051-0.133-0.269-0.72-0.679-0.52-0.882 0.469-0.475 0.938-0.95 1.407-1.424 0.739 0.579 0.747 1.511 1.139 2.307 0.665 1.343-0.243 1.385-1.392 2.05"/>
<path id="path437" d="m8.615 51.777c-0.094-0.238-0.3-0.202-0.254-0.512-0.591 0.342-1.182 0.683-1.773 1.025 0.317-0.492 1.301-0.421 2.027-0.513"/>
<path id="path439" d="m5.574 47.933c2.98-1.341 5.838-2.307 9.121-2.307h4.642c1.032 0 4.732-0.567 4.732 0.532 0 0.964 0.364 1.519-0.651 1.519h-8.433c-3.074 0-5.85 0.791-8.651 2.051-0.253-0.599-0.507-1.197-0.76-1.795"/>
<path id="path441" d="m5.322 49.471c-0.338-0.342-0.676-0.684-1.015-1.026 1.605-0.649 1.375-0.255 2.026 1.282 0.169-0.598 0.338-1.196 0.507-1.794-0.505 0.513-1.011 1.025-1.518 1.538"/>
<path id="path443" d="m24.068 45.626c4.577 0 8.821 0.588 13.304 1.346 2.429 0.41 4.633 1.115 6.965 1.901 1.243 0.419 2.248 0.861 3.396 1.495 1.482 0.818 1.053 0.898 0.402 2.436-1.901-0.875-3.929-2.04-5.948-2.597-2.156-0.595-4.335-0.901-6.495-1.447-2.224-0.563-4.381-0.755-6.666-0.933-1.243-0.097-2.446-0.149-3.692-0.149-1.701-0.001-1.266-0.395-1.266-2.052"/>
<path id="path445" d="m24.068 47.677v-2.051 2.051"/>
<path id="path447" d="m48.136 52.804c0.422-0.598 0.844-1.197 1.266-1.795-0.506 0.513-1.013 1.026-1.52 1.539 0.337-0.513 0.675-1.026 1.013-1.539-0.253 0.598-0.506 1.197-0.759 1.795"/>
<path id="path449" d="m62.576 54.854c0-11.307-7.502-22.469-14.894-30.523-3.988-4.344-7.618-8.81-13.489-10.298-4.707-1.194-12.077 3.882-10.312 9.237 0.694 2.105 4.087 2.674 5.128 0.569 1.2-2.424 3.081-3.898 3.673-6.664 7.487 3.363 12.938 10.302 18 16.564 4.996 6.179 9.4 13.555 11.894 21.115" fill-rule="evenodd" stroke="#D01B31" clip-rule="evenodd" fill="#FFBF00"/>
<path id="path451" d="m61.562 54.854c0-6.555-2.938-13.057-6.334-18.561-1.72-2.788-3.403-5.492-5.524-7.997-0.914-1.079-1.825-2.154-2.781-3.196-0.717-0.781-1.435-1.563-2.151-2.344-0.395-0.43 0.978-1.371 1.339-1.736 4.497 4.902 8.34 10.12 11.836 15.778 3.472 5.621 4.843 11.592 5.645 18.056h-2.03"/>
<path id="path453" d="m44.841 22.557c-2.657-2.353-5.099-4.554-8.05-6.541-1.273-0.857-2.826-1.234-4.363-1.148-0.801 0.045-1.822 0.41-2.534 0.769-0.894 0.451-1.09-0.778-1.519-1.538 3.618-1.467 6.836-1.667 10.281 0.51 1.712 1.082 3.15 2.378 4.665 3.719 0.726 0.642 1.408 1.296 2.089 1.985 1.008 1.018 0.3 1.19-0.569 2.244"/>
<path id="path455" d="m46.109 21.019c-0.466 0.565-0.886 1.302-1.521 1.538 0.507-0.513 1.014-1.025 1.521-1.538"/>
<path id="path457" d="m29.388 15.892c-1.038 0.601-2.78 1.38-3.546 2.308-0.338 0.41-0.531 1.097-0.695 1.595-0.145 0.438-1.65-0.001-2.093-0.057 0.245-1.613 1.234-2.949 2.473-3.95 0.782-0.632 1.544-1.03 2.446-1.486 0.762-0.385 1.057 0.956 1.415 1.59"/>
<path id="path459" d="m28.375 14.099c0.337 0.598 0.675 1.195 1.012 1.793-0.337-0.598-0.674-1.196-1.012-1.793"/>
<path id="path461" d="m25.081 19.994c-0.474 1.333-0.66 3.764 1.014 4.102 0.597 0.121 1.042-0.095 1.519-0.257 0.25-0.084 0.214-0.938 0.639-0.692 0.437 0.252 1.769 0.691 1.514 1.206-0.766 1.552-3.412 2.345-4.938 1.538-2.226-1.178-2.524-4.265-1.775-6.409 0.676 0.17 1.351 0.341 2.027 0.512"/>
<path id="path463" d="m25.081 19.994c-0.676-0.171-1.351-0.342-2.027-0.513v0.257c0.676 0.085 1.351 0.17 2.027 0.256"/>
<path id="path465" d="m28.375 22.813c0.506 0.427 1.013 0.854 1.519 1.282 0.621-0.838 1.243-1.676 1.864-2.515 0.686-0.925-0.304-1.169-1.103-1.843-0.759 1.026-1.52 2.051-2.28 3.076"/>
<path id="path467" d="m28.122 23.07c0.515-0.479 1.288 0.616 1.772 1.025-0.59-0.342-1.181-0.683-1.772-1.025"/>
<path id="path469" d="m30.655 20.25c0.009-0.652 0.433-1.869 0.759-2.306 0.327-0.438 1.202-1.49 2.028-0.513 0.533 0.63-0.394 2.14-0.76 2.563-0.214 0.248-0.025 0.834-0.438 0.715-0.53-0.153-1.059-0.306-1.589-0.459"/>
<path id="path471" d="m32.175 21.019c0.084-0.085 0.169-0.171 0.253-0.257-0.751-0.217-1.795-0.154-1.773-1.024 0.507 0.427 1.013 0.854 1.52 1.281"/>
<path id="path473" d="m32.936 16.405c3.255 1.464 5.852 3.134 8.551 5.476 1.207 1.047 2.172 2.265 3.25 3.439 0.819 0.892 1.638 1.785 2.457 2.677 0.395 0.43-0.976 1.371-1.337 1.736-2.127-2.482-4.217-5.137-6.729-7.252-1.334-1.124-2.702-2.118-4.213-2.991-0.732-0.423-1.516-0.741-2.288-1.088-0.822-0.369 0.007-1.286 0.309-1.997"/>
<path id="path475" d="m31.668 17.175c-0.073-0.401 0-0.875 0-1.283 0.422 0.171 0.845 0.342 1.268 0.513-0.253 0.598-0.507 1.196-0.761 1.794 0.422-0.256 0.845-0.513 1.268-0.769-0.592-0.085-1.184-0.17-1.775-0.255"/>
<path id="path477" d="m47.375 28.196c3.596 4.041 7.232 8.513 9.899 13.234 1.36 2.407 2.907 4.779 3.985 7.325 0.588 1.391 1.177 2.781 1.767 4.171 0.809 1.908 0.335 1.758-1.465 2.44-1.381-4.903-4.127-9.993-7.001-14.193-1.52-2.221-2.945-4.574-4.637-6.666-0.851-1.052-1.691-2.103-2.59-3.113-1.553-1.746-1.615-1.521 0.042-3.198"/>
<path id="path479" d="m47.375 28.196c-0.506 0.513-1.013 1.025-1.519 1.538 0.506-0.513 1.013-1.026 1.519-1.538"/>
<path id="path481" d="m61.562 55.367c0.676-0.171 1.353-0.342 2.029-0.513h-2.029c0.676-0.085 1.353-0.171 2.029-0.256-0.677 0.256-1.353 0.512-2.029 0.769"/>
<path id="path483" d="m52.696 152.77c-0.527 1.441 0.815 1.029 1.687 1.033 1.856 0.008 3.712 0.017 5.568 0.024 6.627 0.03 13.254 0.061 19.882 0.09 17.915 0.081 35.83 0.162 53.745 0.242 10.872 0.05 21.743 0.099 32.614 0.147 0.526-1.441-0.815-1.029-1.687-1.033-1.855-0.008-3.712-0.017-5.568-0.024-6.627-0.03-13.255-0.061-19.882-0.09-17.915-0.081-35.83-0.162-53.745-0.242-10.866-0.05-21.738-0.1-32.609-0.15"/>
<path id="path485" d="m88.162 148.16c-0.529 1.53 1.39 1.159 2.356 1.253 2.395 0.23 4.79 0.462 7.185 0.692 3.913 0.378 7.826 0.755 11.739 1.133 0.53-1.532-1.389-1.161-2.356-1.254l-7.185-0.693c-3.907-0.38-7.82-0.76-11.733-1.13"/>
<path id="path487" d="m109.44 150.21h80.889c0.434 0 0.235 1.027 0.1 1.027h-79.422c-0.87-0.01-2.07 0.38-1.57-1.03"/>
<path id="path489" d="m109.44 151.23v-1.027 1.03"/>
<path id="path491" d="m106.91 145.59c-0.622 1.782 2.834 1.027 3.824 1.027h42.715c0.128 0 0.356-1.027-0.232-1.027h-46.3"/>
<path id="path493" d="m153.52 145.59c-0.09 0.299 0 0.712 0 1.027 2.048-0.296 4.095-0.592 6.143-0.888 1.1-0.158 5.081 0.105 4.497-1.677-3.54 0.52-7.09 1.03-10.64 1.54"/>
<path id="path495" d="m153.52 146.62v-1.027 1.03"/>
<path id="path497" d="m164.16 144.05h10.577c0.332 0 2.117 0.049 1.075 1.027-0.731 0.688-5.371 0-6.372 0-1.1 0-5.9 0.86-5.29-1.03"/>
<path id="path499" d="m164.16 144.05v1.027-1.03"/>
<path id="path501" d="m175.82 144.05c-0.096 0.291 0 0.717 0 1.027 6.103-0.806 12.205-1.611 18.309-2.417 3.965-0.523 7.931-1.047 11.896-1.57 1.045-0.138 5.395 0.128 4.757-1.653-11.67 1.54-23.32 3.08-34.97 4.61"/>
<path id="path503" d="m175.82 145.08v-1.027 1.03"/>
<path id="path505" d="m109.44 136.88c-0.103 0.28 0 0.722 0 1.025 27.312-0.061 54.624-0.121 81.937-0.182 8.356-0.019 16.713-0.036 25.069-0.055 2.417-0.006 4.834-0.011 7.252-0.017 0.913-0.002 2.852 0.537 2.278-1.03-27.313 0.061-54.624 0.121-81.937 0.182-11.53 0.04-23.06 0.06-34.6 0.09"/>
<path id="path507" d="m225.47 136.88c0.804 1.564 2.372-0.373 3.294-1.025-0.8-1.58-2.37 0.36-3.29 1.02"/>
<path id="path509" d="m225.98 137.65c0.061 0.161-0.061-0.441-0.507-0.768 0.169-0.086 0.338-0.172 0.507-0.258 0 0.33 0.07 0.71 0 1.03"/>
<path id="path511" d="m172.27 118.42h20.366c0.275 0 4.252-0.396 2.941 1.025-0.353 0.382-3.251 0-3.746 0h-16.62c-0.98 0.01-3.51 0.66-2.94-1.02"/>
<path id="path513" d="m195.58 118.42c-0.097 0.288 0 0.717 0 1.025 9.896-1.219 19.791-2.438 29.687-3.656 6.697-0.824 13.395-1.649 20.091-2.474 2.132-0.263 4.263-0.525 6.394-0.788 0.925-0.113 2.633 0.182 2.097-1.283-19.43 2.4-38.85 4.79-58.27 7.18"/>
<path id="path515" d="m195.58 119.45v-1.025 1.03"/>
<path id="path517" d="m253.85 111.25h17.561c0.302 0 3.422-0.33 2.2 1.025-0.31 0.344-2.965 0-3.408 0h-14.153c-0.97-0.01-2.71 0.52-2.2-1.03"/>
<path id="path519" d="m253.85 111.25v1.025-1.03"/>
<path id="path521" d="m61.815 142c-0.557 1.545 1.247 1.029 2.161 1.032 2.319 0.006 4.637 0.013 6.956 0.02l23.358 0.069c16.349 0.048 32.698 0.096 49.047 0.145l6.135 0.018c0.557-1.545-1.247-1.029-2.161-1.032-2.318-0.006-4.637-0.013-6.955-0.02l-23.358-0.069c-16.349-0.048-32.698-0.096-49.047-0.145-2.048 0-4.093-0.01-6.138-0.02"/>
<path id="path523" d="m149.47 142.26c-0.084 0.304 0 0.707 0 1.025 1.065-0.27 3.545-0.215 3.038-1.795-1.01 0.27-2.03 0.52-3.04 0.78"/>
<path id="path525" d="m149.47 143.29v-1.025 1.03"/>
<path id="path527" d="m80.563 135.85h58.988c1.171 0 1.171 1.025 0 1.025h-53.869c-1.031 0-5.787 0.84-5.13-1.03"/>
<path id="path529" d="m140.35 135.85c7.251-0.615 14.271-2.168 21.28-4.102 0.583 1.759-3.864 2.091-5.058 2.421-1.727 0.476-3.507 0.779-5.258 1.152-3.661 0.779-7.238 1.237-10.965 1.554 0.01-0.31-0.08-0.72 0.01-1.02"/>
<path id="path531" d="m140.35 136.88v-1.025 1.02"/>
<path id="path533" d="m97.79 126.62c-0.101 0.282 0 0.721 0 1.025 26.313-0.084 52.626-0.168 78.939-0.252 0.794-0.003 1.566 0.232 1.114-1.029-26.313 0.084-52.626 0.168-78.939 0.252-0.368 0.01-0.739 0.01-1.111 0.01"/>
<path id="path535" d="m177.84 126.37c-0.015 0.32 0.176 0.711 0.254 1.025 1.146-0.451 5.322-1.183 4.307-2.82-1.52 0.59-3.04 1.19-4.56 1.79"/>
<path id="path537" d="m177.84 127.39c0.091-0.185 0.303-0.448 0-1.025 0 0.35-0.01 0.69 0 1.03"/>
<path id="path539" d="m128.19 117.4c-0.097 0.287 0 0.716 0 1.023 8.968-0.916 17.936-1.831 26.904-2.747 6.058-0.619 12.116-1.237 18.174-1.856 1.92-0.195 3.84-0.392 5.76-0.588 0.908-0.093 2.374 0.21 1.856-1.217-17.56 1.81-35.12 3.6-52.69 5.4"/>
<path id="path541" d="m180.88 112.01c-0.101 0.284 0 0.721 0 1.027 10.497-0.044 20.993-0.088 31.49-0.133 7.054-0.029 14.108-0.059 21.162-0.089 2.209-0.009 4.418-0.019 6.627-0.027 0.914-0.004 2.564 0.482 2.029-1.032-20.43 0.08-40.87 0.17-61.31 0.25"/>
<path id="path543" d="m180.88 112.01v1.027-1.03"/>
<path id="path545" d="m158.08 114.32c-0.098 0.287 0 0.716 0 1.023 11.67-1.389 23.34-2.777 35.011-4.167 7.916-0.942 15.833-1.884 23.75-2.826 2.57-0.306 5.141-0.612 7.712-0.918 0.94-0.112 3.002 0.214 2.437-1.315-22.97 2.75-45.94 5.49-68.91 8.22"/>
<path id="path547" d="m226.99 106.12h5.366c0.438 0 5.524-0.515 4.259 1.025-0.427 0.52-4.676 0-5.366 0-1.06 0-4.84 0.81-4.26-1.02"/>
<path id="path549" d="m226.99 106.12v1.025-1.02"/>
<path id="path551" d="m236.62 106.12c-0.929 1.532 1.742 1.698 2.787 2.051 0.93-1.53-1.75-1.7-2.79-2.05"/>
<path id="path553" d="m236.62 106.12c-0.091 0.34-0.169 0.684-0.253 1.025h0.253v-1.02"/>
<path id="path555" d="m153.02 120.47h51.413c0.222 0 4.703-0.375 3.311 1.025-0.441 0.443-3.621 0-4.21 0h-47.203c-0.98 0-3.93 0.7-3.32-1.03"/>
<path id="path557" d="m150.99 125.6c-0.669 1.879 5.41 1.313 6.507 1.372 5.483 0.292 10.967 0.584 16.45 0.875 8.393 0.447 16.785 0.894 25.178 1.341 0.668-1.876-5.412-1.312-6.507-1.37-5.483-0.292-10.967-0.584-16.45-0.876-8.39-0.44-16.79-0.88-25.18-1.33"/>
<path id="path559" d="m124.64 120.99c-0.623 1.765 3.197 1.319 4.22 1.414 3.795 0.349 7.591 0.698 11.387 1.047 5.944 0.547 11.89 1.094 17.834 1.641 0.623-1.765-3.196-1.319-4.221-1.414-3.795-0.349-7.591-0.698-11.386-1.047-5.94-0.55-11.88-1.1-17.83-1.64"/>
<path id="path561" d="m106.4 129.19h61.494c0.512 0 3.361-0.304 3.361 0.266 0 1.362-1.919 0.76-3.1 0.76h-60.019c-0.89-0.01-2.25 0.42-1.74-1.03"/>
<path id="path563" d="m60.295 143.54c-0.094 0.292 0 0.715 0 1.025 3.14-0.182 6.281-0.363 9.421-0.545 2.108-0.122 4.217-0.243 6.325-0.365 0.945-0.055 2.482 0.333 1.988-1.137-5.911 0.34-11.822 0.68-17.734 1.02"/>
<path id="path565" d="m78.029 142.52c-0.593 1.747 2.506 1.021 3.497 1.021h20.764c0.66 0 4.667 0.515 5.125 0 1.307-1.469-3.185-1.021-3.497-1.021h-25.891"/>
<path id="path567" d="m78.029 142.52v1.021-1.02"/>
<path id="path569" d="m49.148 150.72h3.073c0.188 0 3.303-0.172 1.994 1.025-0.365 0.333-2.578 0-3.073 0-0.975 0-2.456 0.47-1.994-1.02"/>
<path id="path571" d="m54.215 150.72c-0.096 0.29 0 0.716 0 1.025 6.687-0.878 13.373-1.757 20.059-2.635 4.489-0.59 8.979-1.18 13.468-1.77 1.072-0.141 6.143 0.073 5.487-1.748-13.004 1.72-26.009 3.43-39.014 5.14"/>
<path id="path573" d="m54.215 151.74v-1.025 1.02"/>
<path id="path575" d="m93.229 145.59h5.609c0.418 0 5.838-0.481 4.525 1.027-0.486 0.559-4.855 0-5.609 0-1.075 0-5.108 0.83-4.522-1.03"/>
<path id="path577" d="m93.229 145.59v1.027-1.03"/>
<path id="path579" d="m52.189 144.57c-0.096 0.29 0 0.716 0 1.025 8.628-1.222 17.256-2.444 25.883-3.666 5.826-0.825 11.651-1.65 17.476-2.475 1.88-0.267 3.76-0.533 5.641-0.799 0.886-0.126 2.164 0.099 1.666-1.262-16.894 2.38-33.782 4.77-50.671 7.17"/>
<path id="path581" d="m59.788 146.1c-0.099 0.286 0 0.719 0 1.025 11.003-0.788 22.007-1.577 33.011-2.365 7.402-0.531 14.805-1.062 22.208-1.592 2.324-0.167 4.647-0.333 6.971-0.5 0.928-0.066 2.705 0.325 2.158-1.182-21.45 1.54-42.903 3.08-64.352 4.61"/>
<path id="path583" d="m101.34 135.85c14.625-2.467 29.378-3.74 44.081-5.641 0.575 1.709-2.644 1.374-3.688 1.513-2.488 0.328-4.977 0.657-7.465 0.985-3.6 0.476-7.237 0.731-10.85 1.088-7.398 0.73-14.749 1.844-22.078 3.08 0.01-0.31-0.08-0.72 0.01-1.02"/>
<path id="path585" d="m103.62 151.23c6.669-2.458 13.545-3.846 20.519-5.129 0.577 1.77-3.596 1.719-4.765 1.944-1.771 0.342-3.533 0.741-5.297 1.117-3.47 0.739-6.879 1.87-10.203 3.091-0.09-0.31-0.28-0.7-0.26-1.02"/>
<path id="path587" d="m124.14 146.1c11.495-1.837 23.006-3.578 34.543-5.137 11.39-1.539 22.521-4.216 33.606-7.166 0.955 1.625-2.195 1.713-3.277 2.018-1.313 0.368-2.631 0.715-3.948 1.066-3.024 0.805-6.1 1.38-9.163 2.019-5.61 1.169-11.269 2.337-16.953 3.054-11.628 1.468-23.235 3.322-34.808 5.172 0-0.3-0.09-0.72 0-1.02"/>
<path id="path589" d="m124.14 146.1v1.025-1.02"/>
<metadata><rdf:RDF><cc:Work><dc:format>image/svg+xml</dc:format><dc:type rdf:resource="http://purl.org/dc/dcmitype/StillImage"/><cc:license rdf:resource="http://creativecommons.org/licenses/publicdomain/"/><dc:publisher><cc:Agent rdf:about="http://openclipart.org/"><dc:title>Openclipart</dc:title></cc:Agent></dc:publisher><dc:title>Architetto -- mostricciatolo</dc:title><dc:date>2010-03-18T16:58:58</dc:date><dc:description>Drawing by Francesco 'Architetto' Rollandin. From OCAL 0.18 release.</dc:description><dc:source>http://openclipart.org/detail/32281/architetto----mostricciatolo-by-anonymous</dc:source><dc:creator><cc:Agent><dc:title>Anonymous</dc:title></cc:Agent></dc:creator><dc:subject><rdf:Bag><rdf:li>animal</rdf:li><rdf:li>black</rdf:li><rdf:li>black and white</rdf:li><rdf:li>clip art</rdf:li><rdf:li>clipart</rdf:li><rdf:li>spider</rdf:li></rdf:Bag></dc:subject></cc:Work><cc:License rdf:about="http://creativecommons.org/licenses/publicdomain/"><cc:permits rdf:resource="http://creativecommons.org/ns#Reproduction"/><cc:permits rdf:resource="http://creativecommons.org/ns#Distribution"/><cc:permits rdf:resource="http://creativecommons.org/ns#DerivativeWorks"/></cc:License></rdf:RDF></metadata></svg>
