<?xml version="1.0"?>
<svg xmlns:rdf="http://www.w3.org/1999/02/22-rdf-syntax-ns#" xmlns="http://www.w3.org/2000/svg" xmlns:cc="http://creativecommons.org/ns#" xmlns:dc="http://purl.org/dc/elements/1.1/" xmlns:svg="http://www.w3.org/2000/svg" id="svg3985" viewBox="0 0 250.03 134.06" version="1.1">
  <g id="layer1" transform="translate(-317.84 -482.48)">
    <path id="path31-2-2" stroke="#3f3f3f" fill-rule="evenodd" d="m427.31 608.02c0.97 8.063 19.191 4.798 25.506 6.377 22.601 1.5174 27.867 2.471 47.068 0.615 3.969 0 7.303-0.77 7.833-5.244-9.2548-11.59-29.012-6.1671-53.168-6.993-5.574 0.001-26.078 0.314-27.239 5.245"/>
    <path id="path29-8-8" stroke-width=".9243" stroke="#000" fill-rule="evenodd" d="m502.27 609.41c11.598-4.375 21.717-13.835 34.006-16.132 6.5284-1.2214 11.728-5.0683 18.256-6.2887 1.8918-0.35343 13.801-3.3846 12.817-4.6964-1.1394-1.5183-5.156 0.34645-6.0539 0.5571-1.2243 0.28682 0.96108 1.9102-2.2416 1.2924-1.407-0.27138-2.5534 0.55934-3.8114 0.98963-5.4279 1.854-14.814 3.6768-18.891 7.5358-2.0815 1.9706-6.5223 2.2695-9.1562 3.7625-2.4642 1.3955-5.7465 2.9667-8.2765 4.1167-3.8755 1.7617-15.651 3.8093-16.648 8.8633"/>
    <path id="path35-4-5" stroke-width=".83613" stroke="#000" fill-rule="evenodd" d="m496.27 609.71c11-3.0022 23.252-12.926 32.616-19.417 5.0674-3.5123 10.49-6.8117 15.372-10.655 1.3814-1.0876 10.964-10.583 11.432-8.7218 0.38847 1.5467-3.4163 3.8279-4.121 4.4519-0.91345 0.80975-0.7938-1.5323-2.3032 1.1825-0.75472 1.3574-2.1275 2.3007-3.2425 3.3341-1.9175 1.779-5.5134 2.9379-7.8434 4.7628-2.7398 2.1454-5.3401 4.626-8.3938 6.2169-11.517 6-22.378 13.517-33.005 20.883-0.17028-0.67929-0.34056-1.3586-0.51194-2.0376"/>
    <path id="path9-1" stroke-width="0pt" stroke-miterlimit="10" d="m552.45 501.35c-1.4468-7.7941-5.0354-14.3-11.985-17.592-9.6148-4.554-21.415 4.2566-29.248 7.6683-8.828 3.8437-17.328 7.2172-27.638 7.2172-2.876 0-5.1766 1.8043-8.4406 1.8043-2.232 0-5.0609-0.58408-6.8914 0.45108-4.96 2.8054-9.7636 2.3466-14.689 6.1862-8.0988 6.3119-4.1738 21.222-2.4594 31.221-5.2176-8.5183-5.942-13.887-15.344-18.043-4.5834-2.026-9.2958-5.4129-14.022-5.4129-4.922 0-6.6728 2.242-12.359-0.45108-6.6228-3.1364-5.955-2.3533-9.1758 2.2554-1.3354 1.9105 0.97256 2.062-1.1313 3.6086-1.0585 0.77842-3.953-0.44334-5.25 0-0.64999 0.22167-0.21016 3.3642-2.8813 3.6086-2.227 0.20415-4.7449-1.0898-6.589-2.7064-4.0516-3.5498-7.9229 3.0725-8.8203 4.5107-5.8313 9.3473-14.406 7.8196-26.488 3.8986-9.4488-3.0663-19.994-13.974-28.318-7.5072-11.405 8.8596 14.471 9.6112 19.325 10.826 6.2828 1.5734 12.829 5.8854 15.735 11.76 2.6597 5.3758 0.18375 9.6378 1.0006 14.402 0.57382 3.3467-0.78806 5.6103-0.21423 8.957 0.43612 2.5436 2.5082 4.4218 2.9819 7.185 0.67 3.9076 6.5438 6.5555 8.3664 8.1516 1.7936 1.5723 5.6605 7.2172 9.1125 7.2172 4.43 0 11.41 1.2896 15.977 2.4165 12.245 3.0199 24.75 5.982 36.889 9.9236 4.5936 1.4909 8.9733 2.1569 13.725 3.8664 4.7753 1.7167 7.9147 6.6893 13.147 5.4129-8.1385-4.552-15.456-10.294-24.132-12.437-7.7959-1.9239-15.691-3.7697-23.365-3.7697-4.629 0-15.737-4.7386-19.456-7.2172-7.4041-4.9345 0.0149-5.4129 6.0719-5.4129-2.9969-1.0259-12.737-5.684-8.2375-7.2172-5.5588-1.696 7.2181-3.2423 0.2087-8.9893 4.697 0 10.114 2.5219 14.309 1.8043-2.8672-3.5065-7.3189-9.5236-10.606-10.826 5.5325-0.94751 10.453 4.4076 16.369 3.6086-3.9338-3.2591-0.56082-2.5477-0.61873-3.6086 0.046 0.85163 3.8576-1.8043 0.56564-1.8043-1.4736 0-2.517-3.1967-3.792-5.3484 4.5203 3.7637 10.783 3.7444 15.445 7.1528-0.20726-8.4699-13.967-15.86-17.985-23.424 5.6442 4.9469 10.19 7.3324 15.819 10.794 0.45269-0.5461 0.83521-1.0791 0.99399-1.6754 2.8078 4.3381 7.1031 8.0739 5.8513 0.77327-0.43479-2.5358-0.52237-5.9396-1.3317-8.8604 3.8037 5.9001 9.4622 13.077 12.883 15.175 2.8743 1.7631 1.5952 1.1733 1.1313-3.6086-0.16987-1.7553-0.30499-3.5757-0.83797-5.2518 2.3516 4.324 4.1794 9.483 7.3254 12.469-0.27424-1.197-0.34449-2.4116-0.61873-3.6086 2.4374 1.962 5.4253 9.7473 5.6656 12.63 2.1283-2.3662 0.77966-5.6593 0.20317-9.0215 2.5263 4.1251 5.2906 15.196 9.6781 5.4129 1.2177 7.1017 3.8747 12.392 5.1475 19.815l3.3975 19.815c0.36452 2.126 3.2077 17.944 4.5343 16.239 1.3771-1.7723-2.4855-14.496-2.939-17.141-2.0598-12.014-4.285-23.679-7.7716-35.119-1.7858-5.8604-4.6043-12.331-4.8437-18.043-0.19545-4.6685 0.60687-13.653 4.19-16.206 2.5305 1.9569 3.3731 6.381 5.0468 9.0215 1.7833 2.8126 4.583 6.6839 6.7913 8.9893-0.006-4.154-2.4766-6.9437-3.6007-10.794-0.85006-2.9106-1.0426-6.081-1.5468-9.0215 10.377 9.0916 13.621 18.2 15.754 30.641 2.5342-2.8333 1.7025-13.58 0.41187-18.011-1.7542-6.0202-3.6898-11.313-4.8436-18.043 5.0093 7.6306 13.534 20.276 13.663 28.837 1.412-5.6222 1.2542-13.098 0.10251-19.815 3.0005 3.6674 6.9631 9.0132 7.6457 13.79-0.0109-0.0115-0.0262-0.0207-0.0367-0.0322l0.11048 0.64439 1.127 6.5728c2.3813-2.7162 0.72257-5.028-0.92669-6.8628 2.1225-2.867 0.0513-8.4494-0.61032-12.308 1.1767 2.891 2.69 4.6888 4.7319 7.185-1.1815-3.4962-0.4549-5.4992 0.51806-7.185 1.6591 1.803 2.313 3.912 4.2888 6.605-2.4234 0.68718-0.37436 6.0182 0.12953 8.957l0.19229-8.5382c0.0431 0.0559 0.0771 0.10474 0.12132 0.1611-0.0423-0.14384-0.0684-0.274-0.10305-0.41885l-0.007-0.22554c-0.0203 0.002-0.0427-0.002-0.0625 0-0.33428-1.5688-0.29365-3.1846-0.74958-4.7363 2.042 2.4961 3.5542 4.294 4.7319 7.185 1.2291-2.128 0.99889-5.5456 1.9274-8.9893 3.4397 2.7683 3.2264 8.6109 3.91 12.598 2.6557-2.9529 0.0142-10.123-0.71939-14.402 4.7377 2.8034 7.6541 11.181 8.0288 16.206l-0.61872-3.6086c0.22592 1.3177 0.58106 8.2647 1.5468 9.0215 2.5034 1.962 6.4096-2.9415 8.1313-3.6086-1.178 6.8996-5.4204 15.912-11.524 19.364-2.1103 1.1939-5.4762 6.3107-7.3062 8.6026-2.454 3.0735-6.4596 5.2526-7.6205 8.957-0.66277 2.1126-6.9086 5.658-8.9281 6.7983-3.406 1.9249-6.9707 4.3966-10.158 6.7339-3.0098 2.2076-6.1163 4.893-9.088 6.9594 4.8178-2.3421 12.217-4.4436 17.231-6.6695 21.208-9.4122 36.495-28.242 46.421-48.942 4.3334-9.0376 11.499-32.407 8.316-49.554zm-71.968 105.16c-1.3639 0.66303-2.5242 1.3578-3.3652 2.062 1.0962-0.54575 2.2217-1.2669 3.3652-2.062z"/>
  </g>
  <metadata>
    <rdf:RDF>
      <cc:Work>
        <dc:format>image/svg+xml</dc:format>
        <dc:type rdf:resource="http://purl.org/dc/dcmitype/StillImage"/>
        <cc:license rdf:resource="http://creativecommons.org/licenses/publicdomain/"/>
        <dc:publisher>
          <cc:Agent rdf:about="http://openclipart.org/">
            <dc:title>Openclipart</dc:title>
          </cc:Agent>
        </dc:publisher>
        <dc:title>Architetto -- Farfalla 02 side</dc:title>
        <dc:date>2010-12-29T00:37:48</dc:date>
        <dc:description>Black and white butterfly by Francesco 'Architetto' Rollandin. From OCAL 0.18 release.</dc:description>
        <dc:source>http://openclipart.org/detail/102403/architetto----farfalla-02-side-by-worker-102403</dc:source>
        <dc:creator>
          <cc:Agent>
            <dc:title>worker</dc:title>
          </cc:Agent>
        </dc:creator>
        <dc:subject>
          <rdf:Bag>
            <rdf:li>animal</rdf:li>
            <rdf:li>butterfly</rdf:li>
            <rdf:li>clip art</rdf:li>
            <rdf:li>clipart</rdf:li>
            <rdf:li>image</rdf:li>
            <rdf:li>insect</rdf:li>
            <rdf:li>media</rdf:li>
            <rdf:li>outline</rdf:li>
            <rdf:li>public domain</rdf:li>
            <rdf:li>svg</rdf:li>
          </rdf:Bag>
        </dc:subject>
      </cc:Work>
      <cc:License rdf:about="http://creativecommons.org/licenses/publicdomain/">
        <cc:permits rdf:resource="http://creativecommons.org/ns#Reproduction"/>
        <cc:permits rdf:resource="http://creativecommons.org/ns#Distribution"/>
        <cc:permits rdf:resource="http://creativecommons.org/ns#DerivativeWorks"/>
      </cc:License>
    </rdf:RDF>
  </metadata>
</svg>
