<?xml version="1.0"?>
<svg xmlns:rdf="http://www.w3.org/1999/02/22-rdf-syntax-ns#" xmlns="http://www.w3.org/2000/svg" xmlns:cc="http://creativecommons.org/ns#" xmlns:dc="http://purl.org/dc/elements/1.1/" xmlns:svg="http://www.w3.org/2000/svg" id="svg13095" viewBox="0 0 103.92 88.115" version="1.1">
  <g id="layer1" transform="translate(-102.78 -783.78)">
    <flowRoot id="flowRoot5209" style="word-spacing:0px;letter-spacing:0px" transform="translate(-435.45 -151.2)" xml:space="preserve" font-size="40px" font-family="Sans" line-height="125%" fill="#000000">
      <flowRegion id="flowRegion5211">
        <rect id="rect5213" y="42.21" width="123.24" x="-62.629" height="86.873"/>
      </flowRegion>
      <flowPara id="flowPara5215">rhetorical raptorrhetorical raptorR</flowPara>
    </flowRoot>
    <path id="path9267" d="m182.81 871.77c1.1109-0.26746 1.2111-0.83167 0.32279-1.8184-0.78593-0.87302-0.59254-1.2782 0.72835-1.526 0.78958-0.14813 1.2263-0.42806 1.2263-0.78599 0-0.91985-2.3833-2.9161-3.4815-2.9161-1.6411 0-2.6784-1.1503-3.5529-3.9399-0.69985-2.2325-0.78803-3.1823-0.72402-7.7978 0.0811-5.8439 0.99543-11.463 2.3133-14.216 0.42187-0.88128 1.6231-2.6157 2.6694-3.8542 3.3373-3.9504 4.0686-5.3923 4.2815-8.4422 0.11535-1.6521 0.48153-3.3385 0.95102-4.3798 1.0044-2.2278 2.0786-5.3926 2.0894-6.156 0.005-0.3502 1.0506-3.3206 1.706-3.5961 3.5413-0.23694 4.5753-0.80676 5.9545-2.4515 0.79718-0.95067 1.2378-2.1523 0.79546-3.636-0.36898-1.2376-1.8795-2.8782-1.5799-4.1699 0.29954-1.2916 0.72955-2.466 0.95557-2.6098 0.226-0.14376 1.0094-0.2638 1.7408-0.26675 1.2989-0.005 3.0499-1.1972 3.0499-2.0762 0-0.19291 0.62233-1.2392 1.383-2.325 1.572-2.2441 3.3445-6.5622 3.0301-7.3816-0.16544-0.43118-0.52581-0.49842-1.6984-0.31695-2.4779 0.3835-3.7636 0.87353-8.0271 3.0594l-4.086 2.095-2.9775-0.59084c-2.4751-0.49114-3.3109-0.52162-4.9532-0.18068l-1.9757 0.41015-1.6474-1.3395c-0.90608-0.73675-2.6101-2.23-3.7868-3.3183-1.9367-1.7912-4.7904-3.4577-5.921-3.4577-1.0569 0-1.274 0.93492-0.71665 3.0858 0.2987 1.1527 0.5431 2.5522 0.5431 3.1099 0 0.55775 0.31534 1.6326 0.70075 2.3886 0.38542 0.75598 0.70077 1.6352 0.70077 1.9539 0 1.0613 1.3904 2.3658 3.1415 2.9474 0.98054 0.32569 1.8 0.83097 1.8901 1.1654 0.72495 2.6917 0.69861 2.7813-2.08 7.0766-1.6932 2.6174-2.0354 2.8089-6.2417 3.4935-0.98852 0.16089-3.5109 0.64771-5.6054 1.0818-3.5675 0.73944-4.0543 0.76161-7.7049 0.3508-2.1433-0.24119-4.8429-0.58075-5.9991-0.7546-5.2206-0.78492-13.82-0.0768-19.621 1.6158-3.4848 1.0167-7.2902 3.1763-9.3544 5.3088-2.3594 2.4374-3.0758 4.6325-3.5772 10.961-0.41027 5.1781-0.52026 5.7222-1.4702 7.2724-1.955 3.1904-4.6197 3.7325-10.066 2.0475-1.7019-0.52655-3.1857-0.86602-3.2973-0.75441-0.36216 0.36216 1.0344 1.596 3.0352 2.6815 4.3114 2.3391 7.4247 2.2694 10.878-0.24358 1.1971-0.87107 2.2415-1.5188 2.3209-1.4394 0.30351 0.30351-0.88522 3.4803-2.1457 5.7343-1.2418 2.2205-3.4664 4.7447-6.0328 6.8449-1.0274 0.8408-1.1384 1.1149-1.1354 2.8031 0.004 2.2618-0.6185 8.021-1.2091 11.184-0.23674 1.2681-0.31241 2.6247-0.16814 3.0147 0.42377 1.1456 2.6875 2.1061 4.8776 2.0697 1.7202-0.0286 1.9391-0.1167 2.0391-0.82041 0.0753-0.53026-0.068-0.78836-0.43798-0.78836-0.30246 0-0.54994-0.24205-0.54994-0.53789 0-0.29585-0.24664-0.91432-0.54809-1.3744-1.334-2.036-0.87606-8.0412 0.84286-11.052 1.2727-2.229 3.9357-5.2557 4.6242-5.2557 0.7132 0 1.1772 1.0951 3.3402 7.8836 2.1049 6.606 2.3238 6.8521 6.04 6.7904 3.5508-0.059 3.9207-0.17458 3.9207-1.2258 0-0.66182-0.29098-0.99182-1.2151-1.3779-0.6683-0.27923-1.5868-0.5077-2.0412-0.5077-0.45437 0-1.1571-0.35476-1.5617-0.78836-1.0547-1.1304-2.1897-4.2409-2.1897-6.0011 0-1.9477 1.7788-5.5569 3.2708-6.6365 0.60992-0.44135 2.1904-1.5823 3.5122-2.5354 1.3218-0.95312 3.0111-2.2586 3.7539-2.901 1.4267-1.2339 3.4783-4.8925 3.4783-6.203 0-1.4459 0.74548-1.6503 3.3786-0.92626 1.3215 0.3634 4.2159 0.93757 6.4321 1.2759 6.0219 0.91946 8.3037 1.4178 11.297 2.4674 2.5882 0.90764 2.7288 1.0128 3.0754 2.2998 0.19974 0.74178 0.50409 1.4358 0.67632 1.5422 0.38111 0.23554 2.1807 5.6317 3.1618 9.481 0.39428 1.5469 1.0201 4.9088 1.3907 7.4709 0.60488 4.1816 1.3043 6.3585 2.0434 6.3604 0.43494 0.00083 2.0953 2.9171 2.3506 4.1282 0.4035 1.9144 1.8015 2.4332 5.7877 2.1475 0.28906-0.0207 0.99859 0.0434 1.5767 0.1424 0.57813 0.099 1.5242 0.0662 2.1023-0.073z"/>
  </g>
  <metadata>
    <rdf:RDF>
      <cc:Work>
        <dc:format>image/svg+xml</dc:format>
        <dc:type rdf:resource="http://purl.org/dc/dcmitype/StillImage"/>
        <cc:license rdf:resource="http://creativecommons.org/licenses/publicdomain/"/>
        <dc:publisher>
          <cc:Agent rdf:about="http://openclipart.org/">
            <dc:title>Openclipart</dc:title>
          </cc:Agent>
        </dc:publisher>
        <dc:title>Xolo silhouette</dc:title>
        <dc:date>2012-06-20T13:56:00</dc:date>
        <dc:description>animal, black, chiwawa, clip art, clipart, dog, drawing, puppy, silhouette, white, xolo, </dc:description>
        <dc:source>http://openclipart.org/detail/170813/xolo-silhouette-by-dear_theophilus-170813</dc:source>
        <dc:creator>
          <cc:Agent>
            <dc:title>dear_theophilus</dc:title>
          </cc:Agent>
        </dc:creator>
        <dc:subject>
          <rdf:Bag>
            <rdf:li>animal</rdf:li>
            <rdf:li>black</rdf:li>
            <rdf:li>chiwawa</rdf:li>
            <rdf:li>clip art</rdf:li>
            <rdf:li>clipart</rdf:li>
            <rdf:li>dog</rdf:li>
            <rdf:li>drawing</rdf:li>
            <rdf:li>puppy</rdf:li>
            <rdf:li>silhouette</rdf:li>
            <rdf:li>white</rdf:li>
            <rdf:li>xolo</rdf:li>
          </rdf:Bag>
        </dc:subject>
      </cc:Work>
      <cc:License rdf:about="http://creativecommons.org/licenses/publicdomain/">
        <cc:permits rdf:resource="http://creativecommons.org/ns#Reproduction"/>
        <cc:permits rdf:resource="http://creativecommons.org/ns#Distribution"/>
        <cc:permits rdf:resource="http://creativecommons.org/ns#DerivativeWorks"/>
      </cc:License>
    </rdf:RDF>
  </metadata>
</svg>
