<?xml version="1.0"?>
<svg xmlns:rdf="http://www.w3.org/1999/02/22-rdf-syntax-ns#" xmlns="http://www.w3.org/2000/svg" xmlns:cc="http://creativecommons.org/ns#" xmlns:dc="http://purl.org/dc/elements/1.1/" xmlns:svg="http://www.w3.org/2000/svg" id="svg2" viewBox="0 0 2196.1 1091.6" version="1.0">
  <g id="layer1" fill="#194a70" transform="translate(566.07 .14903)">
    <path id="path2626" d="m1018.3 493.35c-10.2 4.64-285.51 1.15-284.01-1.86-1.75-12.74-0.37-25.47-0.56-38.2-3.55 0.08-4.59 1.18-9.13-1.68l-1.12-7.26c-2.34 0.94-4 1.38-8.19 3.72-2.86 0-5.48-0.56-9.32-0.56l0.37 36.9c-2.58 4.81-6.08 4.98-9.13 7.45-14.72 0.94-29.44 0.8-44.16-0.74-0.62-81.68-8.54-161.27-7.13-243.45 13-1.91 31.02-4.28 47.97-2.24 0.33 0.5 0.68 2.32 0.53 2.82 3.92 1.79 8.74 3.74 11.18 5.29 0.14 1.63-0.08 4.02-0.19 5.4 54.85-1.01 106.75 3.27 158.2 8.02-26.15-8.82-51.56-21.1-77.7-26.46-1.41-3.22-0.44-3.58 0-5.41 2.15-0.28 3.49-0.88 4.65 1.31 4.19-14.49 8.54-30.13 14.54-44.16 5.84 1.37 8.57 2.23 16.58 5.59-4.76-6.91-7.47-9.52-11.18-28.33-1.16-10.7 111.93 49.57 167.89 74.35 18.14 10.99 36.21 20.64 52.51 32.98l0.4-9.13c4-1.9 7.6-5.36 9.7-8.2 2.3 0.04 5.7 0.41 6.7 0l-0.7-7.45c6.1-3.88 7.6-6.99 11.1-10.44h17.2c0.1 1.26-0.5 3.11 1.5 2.99 4.7 0.24 1.1-0.06 14.1 0.74-1.7-0.42-2.9-0.4 0.8-2.79 4.7 0.72 6.7 0.82 5.9 2.05 0.7 1.59 4.6-0.04 7.5-0.75l3-0.74c-9.5-1.99-17.4-4-27.6-6.71-0.6-1.1-1.5-1.95-0.7-4.47l2.2-1.5c7.5-15.99 6.3-35.15 8.9-52.91l-3.3-0.56c-2.5-1.56-1.4-3.11-0.6-4.66 6.5-8.02 14.4-8.09 21.8-11.18 47.7 9.69 95.4 21.75 143.1 29.07 0.1 11.68 4.1 1.66-4.4 61.86 10.4 1.74 19.5 2.13 31.3 5.22-7 79.14-14.2 158.11-23.1 236.27-9.3-1.79-19.2-3.17-31.4-2.98-15.5 1.71-26.1 0.88-38 0.74-12.2 0.8-24.5 1.41-37.2 0.75-16.9-0.28-34.1 0.16-52.4-2.43l0.2 4.66c-15.3 0.62-31.7 0.12-48.5-0.74-4.4 0.83-9.4 0.41-14.9-0.75-5.4-1.15-7.2-2.42-7.2-2.42l-0.2-46.02c-1.7 1.07-3.4 2.13-9 2.23 4.7 15.86 1.3 32.67 1.2 46.77zm-92.83-204.03c0.88 2.65-4.38 22.32-1.49 21.61 4.24-1.04 54.86-0.56 54.41-0.74-17.26-6-34.68-12.42-52.92-20.87zm105.13 12.67c-2.6 6.48-3.9 14.81-8.2 18.63 2.7 0.97 5.7 1.17 7.4 4.47l0.8-23.1zm-325.19 13.23c-0.42 3.91-0.32 6.95 0.74 8.38 1.59-2.14 2.77-4.87 4.85-6.52-3.12 0.64-3.79-1.18-5.59-1.86z"/>
    <path id="path3429" d="m615.73 483.56c-9.66 13-7.38 26-3.16 39l707.23-1.05c7.8-14.94 4.3-24.26 1.1-33.73l-705.17-4.22z"/>
    <g id="g2510" transform="matrix(1.0773 0 0 1 152.26 71.655)">
      <path id="path2453" d="m595.44-71.803c-11.63 1.623-20.95 1.914-34.25 3.219-12.94 0.765-27.39 0.854-46.62 6.625-13.38 4.011-23.22 8.421-27.41 8.062 4.53-3.699-19.48-14.699-33.68-16.072-10.16-0.983-31.13 0.885-52.88 7.416-35.46 10.639-76.79 1.282-112.37-4.612-44.74-8.156-59.05-1.606-70.48 13.893-4.19 0.359-14.03-4.051-27.4-8.062-19.24-5.771-33.69-5.86-46.63-6.625-13.3-1.305-22.61-1.596-34.25-3.219-7.02-0.058-14.12 1.773-18.592 5.844-11.125 9.233-8.959 22.875 4.438 27.969 6.464 2.458 25.104 4.468 41.404 4.468 31.23 0 44.67 8.717 35.03 24-11.07 17.558-92.673 22.61-167.06 12.875-18.378-2.4048-56.115-6.6013-83.843-9.3435-54.607-5.3995-71.237-8.9795-179-25.938-103.01-16.209-139.14-19.403-177.69-23.624s-45.19-2.775-76.41-0.687c-31.21 2.087-50.04 5.932-66.47 13.562-26.99 12.535-51.71 37.521-57.03 44.281-25.21 32.055-38.69 92.467-23.25 107.9 17.05 17.05 40.38-3.55 64.1-45.245 22.51-39.567 34.91-48.085 52.87-36.313 26.3 17.232 25.93 43.986-2.37 170.85-13.25 65.22-24.4 130.1-40.78 194.59-5.48 23.75-3.54 38.08-12.41 2.19-1.29-5.21-4.94-24.15-10.31-41.78-10.43-34.26-12.6-72.17-5.25-91.5 2.48-6.52 13.83-20.91 25.22-31.97 21.53-21.97 29.07-48.9-8.82-62.19-33.28 0-53 26.94-53 72.44 0 36.93 6.09 61.84 37.5 137.47 16.03 38.59 17.8 42.32 15.5 56.43-5.59 30.41-8.91 67.4-21.09 95.72-1.62 0-5.35-8-8.28-17.78-4.53-15.1-3.9-22.4 4.15-48.47 8.8-29.12 4.62-70.41-31.84-48.72-5.64 4.36-7.35 14.31-8.56 26.91-2.64 27.5 7.08 59.83 27.09 90.03 15.13 22.84 15.08 20.91 2.38 80.53-28.76 134.92-33.69 225.95-33.88 272.56 0.01 161.22 224.9 55.12 349.03 101.85 19.55 7.36 49.37 6.18 67.82 8.22 19.79 2.19 83.89 1.27 218.46-2.88 210.84-6.5 249.99-17.17 260.41 4.72 24.46 25.11 64.19 27.21 96.47 13.71 12.06-6.7 21.17-10.4 28.25-12.18 6.71 1.98 15.11 5.68 25.84 11.58 32.28 13.5 72.04 11.4 96.5-13.77 10.42-21.89 49.55-11.18 260.38-4.68 134.57 4.14 198.67 5.06 218.47 2.87 18.44-2.04 48.25-0.86 67.85-8.22 124.1-46.73 349 59.4 349-101.87-0.2-46.62-5.1-137.61-33.9-272.53-12.7-59.63-12.7-57.69 2.4-80.53 20-30.21 29.7-62.54 27.1-90.04-1.2-12.59-2.9-22.55-8.6-26.9-36.4-21.7-40.6 19.6-31.8 48.72 8 26.06 8.7 33.36 4.1 48.47-2.9 9.78-6.6 17.78-8.2 17.78-12.2-28.33-15.5-65.31-21.1-95.72-2.3-14.12-0.6-17.84 15.5-56.44 31.4-75.63 37.5-100.53 37.5-137.47 0-45.5-19.8-72.44-53-72.44-37.9 13.29-30.4 40.23-8.9 62.19 11.4 11.07 22.8 25.45 25.3 31.97 7.3 19.33 5.1 57.25-5.3 91.5-5.4 17.64-9 36.58-10.3 41.78-8.9 35.89-6.9 21.56-12.4-2.19-16.4-64.49-27.5-129.36-40.8-194.59-28.3-126.86-28.7-153.61-2.4-170.84 18-11.775 30.4-3.257 52.9 36.31 23.7 41.69 47.1 62.3 64.1 45.25 15.4-15.44 2-75.852-23.2-107.91-5.4-6.7567-30.1-31.743-57.1-44.278-16.4-7.63-35.2-11.475-66.4-13.562-31.3-2.088-37.9-3.534-76.4 0.687-38.6 4.221-74.7 7.415-177.73 23.625-107.77 16.958-124.4 20.538-179 25.938-27.73 2.7417-65.47 6.9382-83.85 9.3433-74.38 9.7347-155.99 4.6827-167.06-12.875-9.64-15.283 3.81-24 35.03-24 16.3 0 34.94-2.01 41.41-4.468 13.39-5.094 15.56-18.736 4.43-27.969-4.47-4.071-11.57-5.902-18.59-5.844zm595.06 2.219c-50.7 0.162-152.5 9.159-264.37 24.219-85.73 11.542-161.45 20.904-243.22 30.093-53.08 5.9655-115.18 6.0175-118.84 0.094-1.7-2.75 4.16-4.594 14.65-4.594 22.08 0 47.09-6.52 52.56-14.812 18.94-28.669-0.79-10.833-5.68-5.5-6.21 6.756-18.47 9.096-41.1 10.375-39.54 2.234-50.25 11.154-25.72 21.406 19.09 7.9743 99.97 9.4054 148.79 2.625 16.86-2.3427 53.33-6.673 81.06-9.594 27.73-2.92 61.76-7.239 75.62-9.625 13.87-2.386 39.63-6.435 57.28-8.75 67.44-8.838 48.12-6.806 61.88-9.031 62.09-10.042 141.49-21.422 165.79-20.937 24.2 0.484 32.6-1.986 44.6-2 13.3-0.015 25.1 0.837 28.3 2.562 4.9 2.62 6.7 2.056 0.2-3-2.6-2.03-12-3.595-31.8-3.531zm-1676.1 0.625c-19.84-0.064-29.21 1.501-31.81 3.531-6.49 5.056-4.7 5.62 0.15 3 3.2-1.725 15.01-2.577 28.32-2.562 11.97 0.014 20.39 2.484 44.65 2 24.26-0.485 103.64 10.895 165.75 20.937 13.77 2.225-5.55 0.193 61.88 9.031 17.66 2.315 43.42 6.364 57.28 8.75s47.9 6.705 75.624 9.625c27.728 2.921 64.195 7.2513 81.063 9.594 48.82 6.7804 129.69 5.3493 148.78-2.625 24.53-10.252 13.83-19.172-25.72-21.406-22.629-1.279-34.889-3.619-41.094-10.375-4.898-5.333-24.624-23.169-5.688 5.5 5.477 8.292 30.492 14.812 52.562 14.812 10.49 0 16.36 1.844 14.66 4.594-3.66 5.9235-65.768 5.8715-118.85-0.094-81.768-9.189-157.49-18.551-243.22-30.093-111.85-15.06-213.64-24.057-264.34-24.219zm938.76 3.665c13.83 1.322 27.24 8.122 26.74 10.835-1.71 9.269-9.3 11.303-19 14.562-16.89 7.543-32.02 15.079-34.53 24.438-4.84 18.064 17.77 19.039 31.91 17.312 33.4-7.3294-23.43 14.735-34.22-7.1872-2.76-5.4008-4.53-15.086 7.12-23.031 15.53-10.589 34.64-20.432 36.85-25.625 1.46-3.436-3.59-6.326-10.57-5.032l-31.25 5.782c-8.66 1.605-47.46 19.694-74.3 19.608-26.75-0.085-60.42-17.422-73.29-18.952-10.63-1.264-17.79-3.539-33.27-4.803-6.98-1.293-11.52 0.586-10.06 4.022 2.21 5.193 22.83 15.067 38.36 25.656 11.66 7.945 9.88 17.599 7.13 23-10.8 21.922-67.63-0.1424-34.22 7.1873 14.13 1.7269 36.74 0.7517 31.9-17.312-2.5-9.359-17.63-16.895-34.53-24.438-9.7-3.259-23.5-7.949-17.57-15.277 2.79-3.441 12.83-11.192 22.15-10.915 29.45 0.879 46.66 13.634 75.25 18.843 14.88 3.635 26.73 5.237 53.9-0.318 13.88-3.311 67.36-18.654 75.5-18.355zm124.62-0.759c6.48 0.012 17.89 0.842 20.62 1.25 7.85 1.174 11.44 4.34 11.44 10.594 0 5.563-31.67 14.067-37.19 15.375-5.52 1.307-24.37 3-32.87 3.469-20.35 1.12-37.03 15.016-24.38 30.468 14.15 17.282 29.17 23.437 89.88 24.407 74.54 1.19 119.88-12.862 211.62-21.907 42.39-4.1788 77.74-12.592 116.91-18.968 90.35-16.884 141.45-19.132 5.31 8.843-6.93 0.236-97.96 16.3-106.78 18.125-8.82 1.8251-22.99 3.1764-50.88 6.125-27.89 2.949-75.88 9.458-111.28 10.344l-64.34 1.625c-63.51-2.792-82.4-12.077-95.1-23.562-15.83-14.321-7.39-29.851-0.93-32.907 7.83-3.706 20.68-5.849 26.78-5.781 6.09 0.068 28.16-3.027 36.03-4.531 13.33-2.548 43.08-10.493 24.22-16.844-5.11-1.719-8.46-0.984-12.03-1.437-16.89-2.144-13.52-4.7-7.03-4.688zm-450.72 0.625c6.48-0.012 9.85 2.575-7.03 4.719-3.58 0.453-6.93-0.313-12.04 1.406-18.856 6.351 10.89 14.327 24.22 16.875 7.87 1.504 29.94 4.568 36.03 4.5 6.1-0.068 18.96 2.075 26.79 5.781 6.45 3.056 14.89 18.586-0.94 32.906-12.7 11.486-31.59 20.771-95.096 23.563l-64.343-1.625c-35.399-0.886-83.391-7.395-111.28-10.344-27.891-2.9486-42.051-4.2999-50.881-6.1247-8.82-1.8249-99.85-17.889-106.78-18.125-136.15-27.975-85.09-25.727 5.32-8.843 39.16 6.376 74.51 14.789 116.9 18.968 91.742 9.0449 137.08 23.097 211.63 21.907 60.71-0.97 75.72-7.093 89.87-24.376 12.65-15.451-4.03-29.379-24.37-30.499-8.51-0.469-27.36-2.162-32.88-3.469-5.52-1.308-37.186-9.812-37.186-15.375 0-6.254 3.587-9.42 11.436-10.594 2.73-0.408 14.14-1.238 20.63-1.25zm426.4 3.75c16.13-0.154 33.47 2.673 33.47 7.344 0 2.408-8.23 6.066-18.31 8.125-15.1 2.777-30.64 3.444-45.97 4.031-12.67 0.485-30.77 4.536-38.09 15.188-1.84 2.666-2.24 8.716-0.69 13.343 4.06 12.127 5.72 8.2631-23.59 12.656-8.4 0.41046-25.58-1.9864-27.5-9.156 0-5.014 1.06-12.17 24-21.812 8.63-3.631 19.17-6.443 27.43-11.063 19.77-8.669 47.18-17.941 69.25-18.656zm-405.12 0.625c1.01-0.013 2.02-0.01 3.03 0 22.08 0.715 49.48 9.987 69.25 18.656 8.27 4.62 18.8 7.432 27.44 11.063 22.94 9.642 24 16.829 24 21.844-1.92 7.1689-19.11 9.5657-27.5 9.1558-29.32-4.3934-27.66-0.52985-23.6-12.656 1.55-4.628 1.15-10.677-0.68-13.344-7.33-10.651-25.43-14.734-38.1-15.219-15.32-0.587-30.87-1.254-45.97-4.031-10.08-2.059-18.31-5.717-18.31-8.125 0-4.379 15.24-7.143 30.44-7.344zm307.31 8.219c5.21 0.012 6.48 1.019 2.75 2.219-36.83 18.604-66.79 40.403-107.95 39.651-38.02-0.694-70.75-20.952-105.53-38.521-9.02-6.217 23.04-3.008 70.3 17.754 39.01 13.517 37.68 10.752 74.9-0.625 31.53-12.854 55.59-20.502 65.53-20.478zm745.81 1.437c19.8-0.104 35.2 2.078 50 6.563 44.3 13.38 86.1 51.047 92.1 82.937 8.4 44.798-23.6 40.708-49.2-4.187-7.4-13.075-13.6-19.425-20.6-32.594-11.4-16.043-34.3-19.691-49.5-15.625-14.1 3.517-25.5 26.411-25.4 47.938 0.1 15.264 2.8 30.102 16.2 88.065 4.1 19.1 11.9 44.63 16.1 59 25.7 99.28 42.9 153.36 58.3 231.4 3.8 19.4 4.5 14.04-8.1 41.41-4.5 9.85-40.2 69.88-62.4 113.16-20.1 39.27-34.6 126.82-34 156.25v0.03c-0.1 0.32-0.2 0.66-0.2 1.03-0.2 3.07-1 18.07-5-5.85-2.6-14.94-1.7-75.84 7.1-107.71 3.5-12.61 12.9-40.45 20.9-61.88 36.8-98.97 41.5-115.07 41.5-144.94 0-34.63-8.2-53.58-27.4-63.5-15.3-7.89-33.6-3.56-38.5 9.1-6.9 18.08-3.2 21.29 18.3 46 20.1 38.1 15.4 37.45 19 54.4-1.5 27.22-7 51.69-20.7 92.07-26.1 76.85-30.1 98.69-28 154.34 1.6 43.33-1.1 62.08 11.8 77.91 18.5 22.32 38.4 20.86 60.9 2.53 20.5-17.43-6.6-58.19-24.9-37.44-1.5 6.15-5.9 7.47-8.8-0.06-9-23.28 25.1-46.92 54.6-37.88 24.3 7.48 35.4 32.73 33.2 75.81-3.6 82.03-61.4 127.26-128.1 166.79-33.5 17.31-26.7 17-193.38 8.78-57.56-2.84-140.04-5.13-183.32-5.1-78.54 0.06-220.68 9.97-259.72 18.13-11.34 2.37-43.08 14.69-49.37 8.5-10.34-10.17-0.74-7.62 32.66-12.88 32.63-5.14 62.01-8.45 95.59-14.53 25.25-5.32 44.84-19.2 44.84-31.72 0-5.9-3.55-8.74-9.06-8.68-6.24 0.06-14.97 3.85-23.72 11.21-12.62 10.63-54.63 23.49-69.75 28.91-15.25 5.47-27.46 7.45-43.72 9.97-13.81 3.68-27.96 4.69-30.84 4.72-6.64 0.07-12.04-20.89-8.38-32.44 2.84-8.94 17.32-9.13 20.5-1.41 1.77 4.29 7.66 6.61 11.69 5.1 9.73-3.66 8.97-13.36 3.16-17.91-19.7-15.41-56.17 8.87-56.1 38.6 1.64 11.43 3.39 13.28 0.16 14.81-25.38 13.62-65.18 16.3-82.62 5.84-11.98-6.03-1.59-22.91 3.79-27.43 2.98-0.77 7.95-1.6 11.11-1.22 9.23 1.1 12.83-1.37 14.6-7.94 2.61-9.71-11.45-17.89-18.57-21.78-6.81-3.73-12.84-16.35-19.37-26.63l-8.25-10.84-13.75 17.72c-7.27 8.32-9.75 18.22-14.1 20.37-9.44 4.68-18.62 10.25-18.68 21.78 1.76 6.58 5.4 9.05 14.62 7.94 3.99-0.48 8.03 0.23 11.63 1.44 5.2 5.78 12.08 20.95 3.25 27.22-17.45 10.45-57.25 7.78-82.63-5.85-3.22-1.52-1.47-3.38 0.16-14.81 0.07-29.72-36.4-53.98-56.1-38.56-5.8 4.54-6.56 14.25 3.16 17.9 4.03 1.52 9.92-0.83 11.69-5.12 3.18-7.73 17.66-7.53 20.5 1.41 3.66 11.55-1.74 32.5-8.38 32.43-2.87-0.03-17.03-1.04-30.84-4.72-16.25-2.52-28.47-4.46-43.72-9.93-15.11-5.43-57.126-18.32-69.749-28.94-8.749-7.36-17.48-11.16-23.719-11.22-5.505-0.05-9.063 2.78-9.063 8.69 0 12.52 19.594 26.4 44.844 31.72 33.587 6.08 62.967 9.39 95.597 14.53 33.39 5.26 42.99 2.73 32.65 12.9-6.29 6.19-38.03-6.16-49.37-8.53-39.04-8.15-181.18-18.06-259.72-18.12-43.28-0.04-125.76 2.25-183.31 5.09-166.68 8.23-159.89 8.53-193.35-8.78-66.71-39.52-124.52-84.75-128.15-166.78-2.18-43.09 8.88-68.33 33.25-75.81 29.47-9.05 63.53 14.59 54.56 37.87-2.9 7.53-7.26 6.22-8.81 0.06-18.32-20.75-45.36 20.01-24.88 37.44 22.52 18.33 42.38 19.79 60.85-2.53 12.98-15.83 10.24-34.57 11.84-77.91 2.06-55.64-1.92-77.48-27.97-154.34-13.69-40.38-19.2-64.85-20.75-92.06 3.65-16.95-1.03-16.31 19.06-54.41 21.42-24.71 25.19-27.91 18.25-46-4.85-12.65-23.22-16.99-38.5-9.09-19.16 9.91-27.34 28.87-27.34 63.5 0 29.86 4.62 45.96 41.5 144.94 7.98 21.42 17.39 49.27 20.87 61.87 8.83 31.87 9.67 92.77 7.13 107.72-4.07 23.92-4.87 8.92-5.03 5.84-0.02-0.37-0.09-0.71-0.19-1.03v-0.03c0.61-29.43-13.96-116.97-34.06-156.25-22.15-43.27-57.84-103.3-62.38-113.16-12.6-27.36-11.89-22-8.06-41.4 15.39-78.05 32.56-132.13 58.25-231.41 4.19-14.37 12.06-39.9 16.13-59 13.41-57.958 16.12-72.796 16.18-88.06 0.09-21.527-11.33-44.421-25.34-47.938-15.26-4.066-38.11-0.418-49.5 15.625-7.02 13.169-13.26 19.519-20.69 32.594-25.51 44.895-57.56 48.985-49.15 4.187 5.98-31.89 47.78-69.557 92.06-82.937 29.68-8.97 61.72-8.79 126.34 0.656 30.19 3.555 53.86 1.527 94.47 15.781 16.09 7.646 20.39 6.224 62.16 16.938 210.39 37.685 244.71 43.624 347.22 44.656 71.13 0.716 105.22-9.95 125.9-23.938 12-6.691 10.28-10.394 24.06-7.062 10.28 4.3183 18.69 6.6674 37.16 3.9688 8.15-1.1906 17.49-8.7188 17.34-18.406 10.22 4.813 22.89 14.094 37.87 18.232 15.99 5.891 41.92 5.915 54.77 1.1916 15.22-3.9586 25.96-15.253 36.21-20.081-0.15 9.6878 9.19 17.216 17.34 18.406 18.47 2.6991 26.88 0.3813 37.16-3.937 13.78-3.3323 12.07 0.371 24.06 7.0625 20.68 13.988 54.77 24.654 125.91 23.938 102.5-1.033 136.83-6.972 347.22-44.657 41.73-10.714 46.03-9.292 62.13-16.938 40.6-14.254 64.3-12.226 94.5-15.781 32.3-4.723 56.5-7.114 76.3-7.219zm21.1 9.313c-5.5-0.016-11.7 0.058-18.8 0.094-17 0.086-34.1 1.283-45.5 3.812-26.7 5.889-42.4 10.112-101.5 27.469-74.46 21.817-83.97 26.89-81.61 43.406 2.94 20.57 34.21 14.361 127.41-25.25 104-44.218 133.1-49.63 160.1-29.75 25.7 17.838 32.1 40.969 46.5 65.031 12.9 20.885 31.1 21.999 31.1 1.219 0-16.854-25.4-46.613-51.2-64.312-14-8.204-10.8-6.679-27.1-15.407-11.7-5.368-22.7-6.265-39.4-6.312zm-1740.3 0.625c-16.7 0.047-27.67 0.944-39.37 6.312-16.34 8.728-13.12 7.203-27.13 15.407-25.76 17.699-51.21 47.458-51.21 64.312 0 20.78 18.24 19.666 31.15-1.219 14.39-24.062 20.81-47.193 46.53-65.031 26.95-19.88 56.11-14.468 160.1 29.75 93.16 39.611 124.43 45.82 127.37 25.25 2.36-16.516-7.15-21.589-81.56-43.406-59.2-17.357-74.87-21.58-101.5-27.469-11.44-2.529-28.52-3.726-45.53-3.812-7.09-0.036-13.28-0.11-18.85-0.094zm1716.8 5.375c5.9 0.119 3.6 2.114-15.7 6-4.6 0.924-31.3 9.716-46.5 14.531-15.1 4.815-50.8 17.171-79.4 27.469-28.6 10.297-54.2 18.75-57.1 18.75-14 0 10.7-10.144 83.9-34.344 67.4-22.329 81.7-27.333 90.9-29.312 10-2.148 19.4-3.187 23.9-3.094zm-1693.3 0.625c4.54-0.093 13.92 0.946 23.91 3.094 9.21 1.979 23.49 6.983 90.97 29.312 73.13 24.2 97.85 34.344 83.81 34.344-2.81 0-28.49-8.453-57.06-18.75-28.57-10.298-64.31-22.654-79.44-27.469-15.12-4.815-41.87-13.607-46.47-14.531-19.32-3.886-21.54-5.881-15.72-6zm1763.4 8.062c2.6 0.03 12.7 5.889 19.4 12.594 22.6 22.52 39 47.895 38.6 54.656-0.9 12.321-10.2-5.253-20.4-20.343-8.7-16.317-22.5-27.474-33.8-41.438-4.4-3.899-5.2-5.484-3.8-5.469zm-846.45 0.032c1.46-0.108-3.05 5.399-12.87 13.343-25.28 20.443-80.03 23.667-114.85 0.625-18.62-12.325-19.57-18.827 3.35-3.437 33.84 17.833 74.66 19.219 108.15-0.625 10.03-6.733 15.09-9.823 16.22-9.906zm-987.03 0.593c1.35-0.015 0.6 1.57-3.81 5.469-11.27 13.964-25.12 25.121-33.75 41.438-10.29 15.09-19.59 32.664-20.41 20.343-0.45-6.761 16.01-32.136 38.53-54.656 6.71-6.705 16.88-12.564 19.44-12.594zm1810 23.25c8.2 0.0057 14.8 2.1012 21.4 8.625 14.3 15.738 12.5 19.408-2.1 6.9687-18.1-11.949-27-11.203-38.3 3.156-12.4 15.65-12.5 49.771-0.4 102.5 10.2 44.34 11.4 61.55 2.5 34.37-5.5-14.6-7.4-30.27-11.1-45.43-8.2-32.467-7.4-83.262 1.4-96.692 5.2-8.0436 16.2-13.507 26.6-13.5zm-1786.5 0.625c10.46-0.0074 21.39 5.4561 26.66 13.5 8.8 13.43 9.52 64.225 1.34 96.687-3.65 15.17-5.6 30.83-11.03 45.44-8.96 27.17-7.73 9.96 2.44-34.38 12.09-52.726 11.96-86.847-0.35-102.5-11.29-14.356-20.21-15.102-38.34-3.153-14.57 12.439-16.39 8.769-2.09-6.9687 6.58-6.5238 13.23-8.6193 21.37-8.625zm1895.4 46.688c1-0.177 2.8 3.753 5.6 13.719 3.8 13.454 1.8 34.223-8.2 38.312-16.9 5.708-35.9-10.601-43.2-25.062-6.8-11.83 0.4-6.434 11 5.312 6.1 6.768 18.3 12.763 24.8 11.844 8.8-1.239 8.2-8 10.1-22.906-1.5-11.914-1.7-20.961-0.1-21.219zm-2004.5 0.625c0.07-0.022 0.15-0.011 0.22 0 1.52 0.258 1.35 9.305-0.16 21.219 1.92 14.906 1.35 21.667 10.09 22.906 6.5 0.919 18.71-5.076 24.82-11.844 10.6-11.746 17.79-17.142 11-5.312-7.31 14.461-26.26 30.765-43.22 25.062-9.97-4.089-11.95-24.858-8.13-38.312 2.56-9.343 4.31-13.397 5.38-13.719zm1955.6 151.21c10.9 0 24.6 20.62 30.7 46.13 3 12.71 4.5 24.12 3.3 25.34s-4.6-7.09-7.4-18.47c-2.9-11.37-11.6-27.95-19.4-36.84-10-11.39-12.1-16.16-7.2-16.16zm-1906.5 0.63c4.95 0 2.81 4.77-7.19 16.16-7.8 8.88-16.51 25.46-19.37 36.84-2.87 11.37-6.22 19.69-7.44 18.47s0.3-12.64 3.34-25.35c6.12-25.51 19.82-46.12 30.66-46.12zm1802.7 161.87c2.2-0.1 5.8 0.64 10.9 2.63 16.3 8.72 27.3 32.12 26.8 57.16-0.2 12.6-2.2 28.07-4.4 34.37-3 8.31-3.4 5.54-1.6-10.09 3.5-31.11-3-59.24-22.1-68.16-9.2-4.32-17.6-15.54-9.6-15.91zm-1699.8 0.63c0.32-0.01 0.62-0.01 0.9 0 8.01 0.37-0.42 11.58-9.65 15.91-19.06 8.92-25.54 37.05-22.03 68.15 1.76 15.64 1.32 18.41-1.6 10.1-2.21-6.31-4.19-21.78-4.43-34.38-0.48-25.03 10.48-48.43 26.78-57.16 4.52-1.74 7.78-2.52 10.03-2.62zm1845.5 66.66c10.5-0.35 3.9 53.86-2.3 78.78-3 12.09-6.5 18.47-8.7 19.83s-1.3-1.27 2.7-10.8c5.2-12.5 6.6-26.63 5.1-50.6-1.2-18.28-3.5-28.24-1.6-34.31 1.8-1.87 3.4-2.8 4.8-2.9zm-1990.3 0.62c0.66-1.31 3.54-2.44 4.78 2.91 1.88 6.03 2.86 10.73 0.42 35.32-2.36 23.9-2.14 37.09 3.08 49.58 3.98 9.54 5.44 16.2 3.25 14.85-2.2-1.36-5.25-12.09-9.26-23.88-6.44-24.99-13.85-55.89-2.27-78.78zm1938.2 14.16c1-0.38 0.6 5.57 1.4 8.84 9 36.86 3.7 26.66 12 75.78 4.6 27.06 8.8 19.48-43.9 78.53-42.2 47.36-58 73.73-64.1 102.6-3.5 16.7-10.9 39.31-8.8 15.09 3.7-57.97 17-115.87 43.6-167.06 33.5-64.58 51-94.2 58.1-110.97 0.8-1.86 1.3-2.69 1.7-2.81zm-1886.2 0.62c0.35-0.05 0.92 0.75 1.81 2.85 7.11 16.77 24.61 46.36 58.09 110.93 26.55 51.2 39.92 109.09 43.63 167.07 2.05 24.22-5.36 1.6-8.88-15.1-6.09-28.87-21.84-55.23-64.09-102.59-52.68-59.05-48.46-51.48-43.88-78.53 8.33-49.13 2.97-38.93 12-75.78 0.77-3.14 0.41-8.72 1.32-8.85zm1906.2 120l3.6 15.63c12.8 55.81 22.7 124.39 25 173.75 2.2 49.66 1.3 62.06-7.2 93.06-6.1 22.23-14.4 41.71-24.6 58.12-14.8 23.96-33.7 41.37-55.8 51.1-17.8 7.82-34.1 10.6-69.1 11.75l-45.9 1.5c-26.3 2.21 17.6-8.94 26.3-13.41 3.2-1.58 6.3-3.23 9.4-4.97 0-0.01 0-0.02 0.1-0.03 47.1-26.2 94.3-68.76 110.8-100.62 25.4-54.11 36-148.64-35.3-156.07-16.7 0-38.3 13.14-43 24.25-7.4 17.82-14.2 24.4-8 6.69 2.3-6.63 12.9-39.07 31.6-65.31 10.8-15.12 33.7-42.79 50.9-61.47l31.2-33.97zm-1926.1 0.63l31.25 33.97c17.17 18.68 40.05 46.34 50.84 61.46 18.73 26.24 29.31 58.68 31.63 65.32 6.18 17.7-0.61 11.12-8.06-6.69-4.66-11.12-26.24-24.25-42.91-24.25-71.3 7.43-60.7 101.95-35.31 156.06 16.48 31.87 63.68 74.43 110.81 100.63l0.06 0.03c3.12 1.73 6.23 3.38 9.35 4.97 8.77 4.47 52.63 15.62 26.31 13.4l-45.85-1.5c-35.03-1.14-51.29-3.92-69.09-11.75-22.13-9.73-41-27.13-55.84-51.09-10.17-16.41-18.46-35.9-24.57-58.13-8.51-31-9.46-43.39-7.18-93.06 2.26-49.36 12.12-117.94 24.97-173.75l3.59-15.62zm1968.7 245.12c0.4-0.09 1 0.71 1.7 2.63 2.5 28.01 1.3 54.69-2.9 72.18-8 33.54-11.9 48.72-34.1 63.91-24.4 16.79-65.6 28.18-108 26.22-91.4-4.22 0.8-3.06 36.7-7.69 11.5-1.48 38.8-10.64 55.1-22.84 16.8-13.84 23.6-28 30.9-48.13 6.5-18.51 14-43.56 18.1-66.65 0.8-11.01 1.1-19.36 2.5-19.63zm-2011.4 0.63c1.46-0.44 1.82 8.16 2.59 19.62 4.17 23.1 11.59 48.15 18.16 66.66 7.25 20.12 14.06 34.32 30.88 48.15 16.32 12.2 43.6 21.36 55.12 22.85 35.9 4.62 128.03 3.46 36.63 7.69-42.35 1.95-83.51-9.47-108-26.25-22.17-15.2-26.04-30.37-34.07-63.91-4.18-17.5-5.35-44.18-2.84-72.19 0.61-1.67 1.12-2.5 1.53-2.62zm1005.9 87.25c5.02 3.1 8.39 11.88 11.46 16.66 7.97 12.39 8.92 10.52 17.49 13.47 9.22 3.17 16.16 17.44 1.7 12.73-3.11-1.02-10.46-0.22-18.21 3.65-6.74 3.36-9.59 6.45-13.24 6.2-4.01 0.52-7.7-3.37-11.62-5.33-6.13-4.25-11.89-6.39-17.96-4.4-16.06 5.25-6.01-12.41 5.06-13.46 8.5-0.81 10.46-9.31 13.13-14.51 3.69-7.19 9.99-15.01 12.19-15.01zm292.18 21.06c2.79-0.05 4.1 1.47 4.1 4.53 0 2.66-8.84 8.74-19.66 13.53s-28.93 9.52-40.12 11.13c-21.22 3.04-32.24 4.85-2.1-2.78 10.16-2.58 26.04-10.06 35.44-15.97 11.04-6.95 18.27-10.37 22.34-10.44zm-584.59 0.62c4.072 0.08 11.307 3.5 22.344 10.44 9.403 5.92 25.277 13.4 35.437 15.97 30.14 7.64 19.12 5.83-2.09 2.78-11.2-1.61-29.308-6.34-40.128-11.12-10.82-4.79-19.656-10.87-19.656-13.53 0-3.07 1.308-4.58 4.093-4.54zm404.75 18.13c1.32-0.2 1.88 2.95 0.5 11.78-1.58 10.08 0.07 16.77 5.31 27.16 7.6 15.07 2.95 18.86-3.22 23.34-18.74 13.66-38.65 23.86-5.22-7.47 7.54-7.06-4.73-28.03-4.9-33.72-0.25-8.2 5.01-20.71 7.53-21.09zm-225.16 0.66c0.08-0.02 0.17-0.02 0.25 0 2.52 0.38 7.82 12.89 7.57 21.09-0.18 5.69-12.79 27-4.94 33.72 33.1 28.37 12.76 20.67-5.22 7.44-6.15-4.51-10.82-8.27-3.22-23.35 5.24-10.39 6.89-17.08 5.31-27.15-1.29-8.28-0.89-11.54 0.25-11.75zm512.57 22c79.67-0.04 235.6 0.03 240.28 0.03 6.23 0 12.5 0.25 17.2 0.75 9.4 0.99 1.6 0.35-17.2 1.78-21.7 1.65-624.02 8.06-286.13-2.5 1.19-0.04 19.29-0.05 45.85-0.06zm-948 0.62c49.52-0.01 108.44-0.01 148.28 0 26.556 0.01 44.653 0.03 45.841 0.06 337.89 10.57-264.43 4.15-286.12 2.5-18.86-1.43-26.64-0.79-17.19-1.78 4.72-0.49 10.96-0.75 17.19-0.75 2.33 0 42.47-0.02 92-0.03zm1295.5 3.84c22.7 0.03 48.7 0.72-17.2 6.5-10.8 0.95 2.9 8.35-217.66 6.07-112.55-0.43-239.68 0.52-282.53 2.12-89.56 4.44-98.25 4.71-45.03-2.84 23.9-3.39 101.12-5.69 279.22-5.53 82.65 5.71 180.88-4.13 249.3-6.1 5.3-0.09 10.6-0.21 15.9-0.18 3.3 0.02 10.5-0.04 18-0.04zm-1494.7 0.63c7.55-0.01 14.72 0.05 18 0.03 5.3-0.02 10.6 0.1 15.9 0.19 68.43 1.96 166.67 11.81 249.32 6.09 178.1-0.15 255.32 2.14 279.21 5.53 53.22 7.56 44.53 7.28-45.03 2.85-42.849-1.6-169.98-2.55-282.53-2.13-220.51 2.28-206.89-5.11-217.69-6.06-65.89-5.78-39.85-6.48-17.18-6.5zm850.5 10.47c5.01-0.03-12.87 14.86-45.72 19.09-15.07 0.83-24.58 0.09-36.88-3.03-4.9-2.19-8.82-4.83-11.75-7.72-5.6-6.66 1.85-1.69 5.56-0.21 20.63 13.91 65.11 5.44 75.85-2.19 7.05-4.28 11.27-5.93 12.94-5.94zm-206.28 0.62c1.67 0.01 5.88 1.7 12.93 5.97 9.61 6.83 45.86 13.53 68.16 4.91 4.16-0.13 25.49-12.26 10.73 0.12-2.24 1.87-6.76 4.43-9.23 5.07-12.29 3.11-21.81 3.86-36.88 3.03-32.85-4.23-50.72-19.13-45.71-19.1zm542.18 6.63c11.36-0.03 213.1 0.99 214.1 0.97 59.7-1.18-37.22 9.94-168.75 8.75-111.8-1.02-234.74-5.46-235.75-7.1-1.09-1.76 141.83-1.36 166.12-2.15 9.11-0.3 17.47-0.45 24.28-0.47zm-878.09 0.62c6.813 0.02 15.172 0.17 24.282 0.47 24.293 0.8 167.21 0.4 166.13 2.16-1.01 1.63-123.96 6.11-235.75 7.12-131.53 1.2-228.44-9.92-168.79-8.75 1.02 0.02 202.78-1.03 214.13-1zm439.8 3.19c2.26 1.64 5.73 3.56 9.29 5.66 14.5 8.55 22.03 13.6 54.07 7.18 36.39-7.29 47.45-15.82 28.59 0.94-11.49 10.18-45.25 12.78-74.09 2.88-9.08-3.16-12.59-6.24-17.86-9.82-6.49 4.09-7.84 6.8-19.37 10.32-28.37 8.5-63.07 7-74.09-2.75-18.86-16.77-7.8-8.23 28.6-0.94 32.03 6.39 39.56 1.36 54.06-7.19 3.33-2.3 6.72-4.5 10.8-6.28z" fill="#194a70"/>
    </g>
    <path id="text3293" d="m-31.357 683.38c0-2.93 0.666-5.6 2-8 1.333-2.66 2-5.6 2-8.8 0-3.73-1.067-7.33-3.2-10.8-1.867-3.46-4.134-6.4-6.8-8.8-2.667-2.66-5.2-4.8-7.6-6.4-2.134-1.6-3.334-2.4-3.6-2.4-0.534 0-0.8 0.27-0.8 0.8 0 1.34 0.533 3.34 1.6 6 1.066 2.4 1.6 4.67 1.6 6.8 0 2.4-0.934 4.14-2.8 5.2-1.867 0.8-3.734 1.87-5.6 3.2-2.4 1.6-4.8 3.47-7.2 5.6-2.134 1.87-3.2 4.4-3.2 7.6 0 4 1.866 9.2 5.6 15.6 4 6.14 8.666 12.54 14 19.2 5.6 6.67 11.2 13.07 16.8 19.2 5.6 5.87 10.266 10.4 14 13.6-3.734-1.6-8-2.93-12.8-4-4.8-1.33-10.267-2-16.4-2-8.8 0-17.867 1.6-27.2 4.8-9.067 2.94-17.733 6.4-26 10.4-8.003 3.74-15.203 7.47-21.603 11.2-6.13 3.74-10.53 6.27-13.2 7.6-5.86 2.94-11.46 5.34-16.8 7.2-5.06 1.6-10 2.4-14.8 2.4-5.06 0-9.73-0.66-14-2-4.26-1.6-6.4-4.13-6.4-7.6 0-2.93 2.14-6.26 6.4-10 4.54-3.73 10-7.46 16.4-11.2 6.67-4 13.74-8 21.2-12 7.47-4 14.27-7.6 20.4-10.8 4.54-2.4 7.6-4.26 9.2-5.6 1.87-1.6 2.8-3.06 2.8-4.4 0-1.33-0.93-2.4-2.8-3.2-1.6-1.06-3.46-2.26-5.6-3.6-2.93-1.86-4.4-4.26-4.4-7.2v-144.8c0-5.06 1.2-9.06 3.6-12 2.67-2.93 6.27-6 10.8-9.2 3.74-2.4 6.27-4.53 7.603-6.4 1.6-1.86 2.4-4 2.4-6.4 0-4.8-6.133-7.2-18.403-7.2-4.8 0-9.86 0.8-15.2 2.4-5.06 1.6-11.06 2.4-18 2.4-3.46 0-6.53-0.26-9.2-0.8-2.4-0.53-4.93-1.06-7.6-1.6-2.66-0.53-5.46-1.06-8.4-1.6-2.66-0.53-6-0.8-10-0.8-10.4 0-15.6 2.4-15.6 7.2 0 3.74 3.6 8 10.8 12.8 4.54 2.94 7.74 6.4 9.6 10.4 2.14 3.74 3.2 7.34 3.2 10.8v166.4c0 4.27-0.4 7.87-1.2 10.8-0.8 2.94-2 5.6-3.6 8-1.6 2.14-3.86 4.27-6.8 6.4-2.66 1.87-6 4-10 6.4-4.53 2.67-9.2 5.6-14 8.8-4.53 3.2-6.8 6.54-6.8 10 0 2.67 1.2 5.47 3.6 8.4 2.4 2.94 5.6 5.6 9.6 8s8.67 4.4 14 6c5.6 1.6 11.6 2.4 18 2.4 8 0 15.2-0.26 21.6-0.8 6.67-0.26 12.8-0.66 18.4-1.2 5.87-0.53 11.6-1.06 17.2-1.6 5.87-0.26 12.14-0.4 18.803-0.4 6.933 0 13.066 0.14 18.4 0.4 5.333 0.54 10.533 1.07 15.6 1.6 5.066 0.54 10.4 0.94 16 1.2 5.866 0.54 12.8 0.8 20.8 0.8 15.733 0 27.866-2.4 36.4-7.2 8.533-4.8 12.8-10.66 12.8-17.6 0-5.06-1.867-10.8-5.6-17.2-3.467-6.4-7.867-13.06-13.2-20-5.3336-6.93-11.067-14-17.2-21.2-6.134-7.2-11.6-14.13-16.4-20.8-1.334-1.6-2.267-3.33-2.8-5.2-0.267-2.13-0.4-3.86-0.4-5.2m87.3-52c4.533 3.2 8 6.27 10.4 9.2 2.4 2.94 3.6 8.4 3.6 16.4v94.8c0 4-0.267 7.34-0.8 10-0.533 2.67-1.467 4.94-2.8 6.8-1.067 1.87-2.533 3.47-4.4 4.8-1.6 1.07-3.6 2.4-6 4-2.933 2.14-5.067 4.4-6.4 6.8-1.067 2.4-1.6 4.54-1.6 6.4 0 4.8 6 7.2 18 7.2 5.867 0 10.933-0.66 15.2-2 4.267-1.33 9.333-2 15.2-2 6.137 0 11.197 0.67 15.197 2 4 1.34 9.07 2 15.2 2 13.07 0 19.6-2.4 19.6-7.2 0-2.13-0.66-4.4-2-6.8-1.33-2.66-3.86-5.33-7.6-8-2.4-1.6-4.53-3.06-6.4-4.4-1.6-1.33-3.06-2.8-4.4-4.4-1.33-1.6-2.4-3.46-3.2-5.6-0.53-2.4-0.8-5.6-0.8-9.6v-94.8c0-8 1.2-13.6 3.6-16.8s6.14-6 11.2-8.4c4.27-2.13 6.94-4.26 8-6.4 1.07-2.13 1.6-4.13 1.6-6 0-5.86-6.13-8.8-18.4-8.8-5.06 0-10 0.67-14.8 2-4.8 1.07-10.66 1.6-17.597 1.6-6.933 0-12.533-0.53-16.8-1.6-4-1.33-8.533-2-13.6-2-6.4 0-11.067 0.8-14 2.4-2.667 1.6-4 3.74-4 6.4 0 4 2.933 8 8.8 12m6.8-70.4c0 4 0.933 7.47 2.8 10.4 2.133 2.67 4.667 4.94 7.6 6.8 3.2 1.87 6.667 3.34 10.4 4.4 4 0.8 8 1.2 12 1.2s7.867-0.4 11.597-1.2c4-1.06 7.47-2.53 10.4-4.4 3.2-1.86 5.74-4.13 7.6-6.8 2.14-2.93 3.2-6.4 3.2-10.4s-1.06-7.33-3.2-10c-1.86-2.93-4.4-5.33-7.6-7.2-2.93-1.86-6.4-3.2-10.4-4-3.73-1.06-7.597-1.6-11.597-1.6s-8 0.54-12 1.6c-3.733 0.8-7.2 2.14-10.4 4-2.933 1.87-5.467 4.27-7.6 7.2-1.867 2.67-2.8 6-2.8 10m101.78-35.2c0 1.34 0.4 2.67 1.2 4 0.8 1.34 2 2.54 3.6 3.6 5.34 3.74 9.47 7.34 12.4 10.8 2.94 3.2 4.4 7.6 4.4 13.2v204c0 6.4 1.07 11.87 3.2 16.4 2.14 4.54 4.94 8.27 8.4 11.2 3.47 2.94 7.34 5.07 11.6 6.4 4.54 1.6 9.07 2.4 13.6 2.4 3.2 0 6.14-0.26 8.8-0.8 2.94-0.26 5.87-0.66 8.8-1.2 3.2-0.53 6.54-1.06 10-1.6 3.47-0.26 7.47-0.4 12-0.4 4.8 0 9.07 0.14 12.8 0.4 4 0.54 7.6 1.07 10.8 1.6 3.47 0.54 6.94 0.94 10.4 1.2 3.47 0.54 7.47 0.8 12 0.8 11.2 0 20.67-2.66 28.4-8 8-5.33 14.54-12.13 19.6-20.4 5.34-8.53 9.2-18 11.6-28.4 2.4-10.66 3.6-21.2 3.6-31.6 0-16-2-30-6-42-3.73-12.26-9.06-22.53-16-30.8-6.93-8.53-15.06-14.93-24.4-19.2-9.33-4.26-19.6-6.4-30.8-6.4-9.06 0-17.46 1.6-25.2 4.8-7.46 3.2-15.06 7.07-22.8 11.6-2.13 1.34-3.73 2-4.8 2-2.4 0-3.6-2-3.6-6v-87.6c0-6.13-2-10.4-6-12.8-3.73-2.66-7.86-4-12.4-4-4.26 0-7.86 0.4-10.8 1.2-2.93 0.8-6.53 1.2-10.8 1.2-4.26 0-8-0.4-11.2-1.2-3.2-1.06-6.66-1.6-10.4-1.6-4.8 0-8 0.8-9.6 2.4s-2.4 3.2-2.4 4.8m88.4 230.8c-3.46 0-6.8-1.6-10-4.8s-4.8-8.26-4.8-15.2v-91.6l2.8 2.8c1.07 1.07 2.14 1.6 3.2 1.6 1.34 0 2.27-0.26 2.8-0.8 0.54-0.8 1.07-1.46 1.6-2 7.74-8 14.94-12.93 21.6-14.8 6.67-1.86 13.2-2.8 19.6-2.8 6.67 0 12.4 1.74 17.2 5.2 5.07 3.2 9.2 7.6 12.4 13.2 3.47 5.6 6 12.14 7.6 19.6 1.6 7.2 2.4 14.8 2.4 22.8 0 11.74-1.2 21.74-3.6 30-2.4 8.27-5.46 15.07-9.2 20.4-3.73 5.34-8 9.34-12.8 12-4.53 2.4-8.93 3.6-13.2 3.6-3.46 0-6.66-0.26-9.6-0.8-2.93-0.53-6.4-0.8-10.4-0.8-3.2 0-6.26 0.4-9.2 1.2-2.93 0.8-5.73 1.2-8.4 1.2m239.27 19.6c-2.4-1.6-4.53-2.93-6.4-4-1.6-1.06-3.06-2.26-4.4-3.6-1.33-1.6-2.4-3.6-3.2-6-0.53-2.66-0.8-6.13-0.8-10.4v-88c7.74-6.66 14.94-11.33 21.6-14 6.94-2.66 13.07-4 18.4-4 6.14 0 10.94 1.34 14.4 4 3.74 2.67 5.6 6.54 5.6 11.6 0 3.2-0.8 6-2.4 8.4-1.33 2.4-2.8 4.67-4.4 6.8-1.6 2.14-3.2 4.27-4.8 6.4-1.33 2.14-2 4.8-2 8 0 4.8 0.94 8.67 2.8 11.6 1.87 2.67 3.47 4 4.8 4 1.87 0 2.8-1.06 2.8-3.2 0-0.8-0.13-1.46-0.4-2v-2c0-2.4 0.67-4.26 2-5.6 1.6-1.6 3.6-2.8 6-3.6 2.67-1.06 5.47-1.86 8.4-2.4 3.2-0.8 6.4-1.86 9.6-3.2 5.87-2.4 10.4-5.2 13.6-8.4s5.6-6.4 7.2-9.6 2.54-6.26 2.8-9.2c0.27-2.93 0.4-5.2 0.4-6.8 0-4.8-0.93-9.6-2.8-14.4-1.6-4.8-4.4-9.06-8.4-12.8-4-4-9.2-7.2-15.6-9.6-6.13-2.4-13.73-3.6-22.8-3.6-6.13 0-11.86 1.2-17.2 3.6-5.33 2.4-10.26 5.47-14.8 9.2-4.53 3.74-8.93 7.74-13.2 12-4 4.27-7.86 8.4-11.6 12.4v-9.2c0-3.2 0.27-5.6 0.8-7.2 0.54-1.86 1.2-3.33 2-4.4 1.07-1.06 2.4-2 4-2.8s3.6-1.86 6-3.2c5.34-3.2 8-5.86 8-8 0-3.2-4.26-4.8-12.8-4.8-5.6 0-10.93 0.67-16 2-5.06 1.34-11.73 2-20 2-4.53 0-8.13-0.13-10.8-0.4-2.66-0.53-5.2-1.06-7.6-1.6-2.13-0.53-4.4-0.93-6.8-1.2-2.13-0.53-4.93-0.8-8.4-0.8-4.53 0-8.26 0.67-11.2 2-2.66 1.07-4 2.54-4 4.4 0 2.67 3.47 5.34 10.4 8 6.14 2.14 10 4.8 11.6 8 1.87 2.94 2.8 8.54 2.8 16.8v104.8c0 4.54-0.26 8.14-0.8 10.8-0.53 2.4-1.46 4.54-2.8 6.4-1.06 1.6-2.53 3.07-4.4 4.4-1.6 1.07-3.6 2.4-6 4-6.93 4.54-10.4 8.94-10.4 13.2 0 4.54 4.14 6.8 12.4 6.8 4 0 7.34-0.26 10-0.8 2.67-0.26 5.2-0.66 7.6-1.2 2.67-0.53 5.47-1.06 8.4-1.6 3.2-0.26 7.2-0.4 12-0.4 4.27 0 7.74 0.14 10.4 0.4 2.94 0.54 5.6 1.07 8 1.6 2.67 0.54 5.47 0.94 8.4 1.2 3.2 0.54 7.47 0.8 12.8 0.8 7.74 0 11.6-2.4 11.6-7.2 0-5.06-3.46-9.86-10.4-14.4m259.7 21.6c8.8 0 15.73-0.4 20.8-1.2 5.06-0.8 8.93-1.86 11.6-3.2 2.66-1.33 4.4-2.8 5.2-4.4s1.2-3.33 1.2-5.2c0-3.2-2.54-6.93-7.6-11.2-5.07-4.26-10.67-8.53-16.8-12.8v-118.8c0-11.2-3.34-19.6-10-25.2-6.67-5.6-15.47-8.4-26.4-8.4-4.54 0-8.54 0.27-12 0.8-3.47 0.54-6.94 1.07-10.4 1.6-3.2 0.54-6.67 1.07-10.4 1.6-3.47 0.54-7.6 0.8-12.4 0.8-5.87 0-11.07-0.26-15.6-0.8-4.54-0.53-8.8-1.06-12.8-1.6-3.74-0.53-7.34-1.06-10.8-1.6-3.2-0.53-6.67-0.8-10.4-0.8-9.07 0-15.87 2.94-20.4 8.8-4.27 5.6-6.4 11.87-6.4 18.8 0 3.2 0.4 6.54 1.2 10 1.06 3.2 2.8 6.27 5.2 9.2 2.66 2.67 6.13 4.94 10.4 6.8 4.26 1.6 9.86 2.4 16.8 2.4 5.33 0 10.8-0.4 16.4-1.2 5.86-0.8 10.4-1.2 13.6-1.2 2.4 0 3.6 1.07 3.6 3.2 0 1.34-0.67 2.4-2 3.2-6.94 3.74-14.54 7.74-22.8 12-8.27 4-16 8.8-23.2 14.4-7.2 5.34-13.2 11.74-18 19.2-4.8 7.2-7.2 15.74-7.2 25.6 0 8 1.33 15.6 4 22.8 2.93 6.94 6.93 13.2 12 18.8 5.06 5.34 11.06 9.6 18 12.8 6.93 3.2 14.53 4.8 22.8 4.8 5.33 0 9.73-0.26 13.2-0.8 3.73-0.26 7.06-0.66 10-1.2 3.2-0.53 6.13-1.06 8.8-1.6 2.93-0.26 6.13-0.4 9.6-0.4 12.26 0 22.4 0.67 30.4 2 8.26 1.34 15.2 2 20.8 2m-40-156v101.6c0 3.74-2.8 6.8-8.4 9.2-5.34 2.4-11.07 3.6-17.2 3.6-4.54 0-9.07-0.66-13.6-2-4.27-1.33-8.14-3.2-11.6-5.6-3.47-2.66-6.27-5.86-8.4-9.6-1.87-3.73-2.8-8-2.8-12.8 0-7.2 1.46-13.33 4.4-18.4 3.2-5.33 6.93-9.86 11.2-13.6 4.53-4 9.06-7.46 13.6-10.4 4.53-2.93 8.26-5.73 11.2-8.4 3.46-2.93 5.86-5.86 7.2-8.8 1.33-3.2 2-6.26 2-9.2 0-3.46-0.94-6.26-2.8-8.4-1.6-2.13-3.87-3.2-6.8-3.2-3.2 0-6 0.4-8.4 1.2-2.67 1.07-5.2 1.87-7.6 2.4-2.14 0.27-5.07 0.4-8.8 0.4-8 0-13.2-1.46-15.6-4.4-2.14-3.2-3.2-5.86-3.2-8 0-3.2 1.33-6 4-8.4 2.93-2.66 7.2-4 12.8-4h33.6c4.53 0 8.13 1.74 10.8 5.2 2.93 3.2 4.4 7.07 4.4 11.6m190.46 134.4c-2.4-1.6-4.53-2.93-6.4-4-1.6-1.06-3.07-2.26-4.4-3.6-1.33-1.6-2.4-3.6-3.2-6-0.53-2.66-0.8-6.13-0.8-10.4v-88c7.73-6.66 14.93-11.33 21.6-14 6.93-2.66 13.07-4 18.4-4 6.13 0 10.93 1.34 14.4 4 3.73 2.67 5.6 6.54 5.6 11.6 0 3.2-0.8 6-2.4 8.4-1.33 2.4-2.8 4.67-4.4 6.8-1.6 2.14-3.2 4.27-4.8 6.4-1.33 2.14-2 4.8-2 8 0 4.8 0.93 8.67 2.8 11.6 1.87 2.67 3.47 4 4.8 4 1.87 0 2.8-1.06 2.8-3.2 0-0.8-0.13-1.46-0.4-2v-2c0-2.4 0.67-4.26 2-5.6 1.6-1.6 3.6-2.8 6-3.6 2.67-1.06 5.47-1.86 8.4-2.4 3.2-0.8 6.4-1.86 9.6-3.2 5.87-2.4 10.4-5.2 13.6-8.4s5.6-6.4 7.2-9.6 2.53-6.26 2.8-9.2c0.27-2.93 0.4-5.2 0.4-6.8 0-4.8-0.93-9.6-2.8-14.4-1.6-4.8-4.4-9.06-8.4-12.8-4-4-9.2-7.2-15.6-9.6-6.13-2.4-13.73-3.6-22.8-3.6-6.13 0-11.87 1.2-17.2 3.6s-10.27 5.47-14.8 9.2c-4.53 3.74-8.93 7.74-13.2 12-4 4.27-7.87 8.4-11.6 12.4v-9.2c0-3.2 0.27-5.6 0.8-7.2 0.53-1.86 1.2-3.33 2-4.4 1.07-1.06 2.4-2 4-2.8s3.6-1.86 6-3.2c5.33-3.2 8-5.86 8-8 0-3.2-4.27-4.8-12.8-4.8-5.6 0-10.93 0.67-16 2-5.07 1.34-11.73 2-20 2-4.53 0-8.13-0.13-10.8-0.4-2.67-0.53-5.2-1.06-7.6-1.6-2.13-0.53-4.4-0.93-6.8-1.2-2.13-0.53-4.93-0.8-8.4-0.8-4.53 0-8.27 0.67-11.2 2-2.67 1.07-4 2.54-4 4.4 0 2.67 3.47 5.34 10.4 8 6.13 2.14 10 4.8 11.6 8 1.87 2.94 2.8 8.54 2.8 16.8v104.8c0 4.54-0.27 8.14-0.8 10.8-0.53 2.4-1.47 4.54-2.8 6.4-1.07 1.6-2.53 3.07-4.4 4.4-1.6 1.07-3.6 2.4-6 4-6.93 4.54-10.4 8.94-10.4 13.2 0 4.54 4.13 6.8 12.4 6.8 4 0 7.33-0.26 10-0.8 2.67-0.26 5.2-0.66 7.6-1.2 2.67-0.53 5.47-1.06 8.4-1.6 3.2-0.26 7.2-0.4 12-0.4 4.27 0 7.73 0.14 10.4 0.4 2.93 0.54 5.6 1.07 8 1.6 2.67 0.54 5.47 0.94 8.4 1.2 3.2 0.54 7.47 0.8 12.8 0.8 7.73 0 11.6-2.4 11.6-7.2 0-5.06-3.47-9.86-10.4-14.4m95.02-160c0 2.4 1.6 4.8 4.83 7.2 3.7 2.94 7.7 5.87 12 8.8 4.2 2.67 7.7 6.67 10.4 12 12.8 26.67 25 51.07 36.8 73.2 12 21.87 23.2 42.8 33.6 62.8v46.8c-3-2.4-6.6-5.06-10.8-8-4.3-2.93-9.6-4.4-16-4.4-9.9 0-17.6 2.67-23.2 8-5.6 5.6-8.4 11.6-8.4 18 0 0.54 0.1 0.8 0.4 0.8 0.5 0 1.2-0.4 2-1.2 2.6-2.66 6.6-4 12-4 5.3 0 9.6 0.67 12.8 2 3.2 1.34 5.8 2.94 8 4.8 2.1 2.14 3.8 4.4 5.2 6.8 1.6 2.67 3.2 5.2 4.8 7.6 2.9 5.07 6.6 9.6 11.2 13.6 4.5 4 11.4 6 20.8 6 8.5 0 15.4-2.66 20.8-8 5.6-5.33 8.4-12.26 8.4-20.8v-68.8c15.2-22.66 26.9-42 35.2-58 8.5-16 14.9-29.33 19.2-40 4.2-10.93 6.8-19.6 7.6-26 1-6.66 1.6-12 1.6-16 0-7.73-1.6-14.26-4.8-19.6-3-5.6-7.9-8.4-14.8-8.4h-64.8c-5.1 0-9.1 1.6-12 4.8-2.7 3.2-4 6.94-4 11.2 0 2.94 0.8 6 2.4 9.2 1.6 2.94 4.2 5.47 8 7.6 2.1 1.34 4 3.2 5.6 5.6 1.8 2.4 2.8 4.8 2.8 7.2 0 1.6-0.4 2.8-1.2 3.6-0.6 0.54-0.8 0.94-0.8 1.2 0 0.54 0.5 0.8 1.6 0.8 4 0 7.2-1.73 9.6-5.2 2.4-3.73 3.6-7.46 3.6-11.2 0-2.4-1-5.2-2.8-8.4-0.6-1.06-1.1-2-1.6-2.8-0.6-0.8-0.8-1.73-0.8-2.8 0-2.13 1.3-3.2 4-3.2h30.4c4.5 0 7.6 2 9.2 6s2.4 8.67 2.4 14c0 5.34-0.8 12-2.4 20s-4 16.8-7.2 26.4c-3.2 9.34-7.4 18.94-12.4 28.8-4.8 9.87-10.4 19.2-16.8 28-0.8 1.34-2.2 2-4 2-1.9 0-3.5-0.66-4.8-2-5.9-6.93-11.5-14.53-16.8-22.8-5.1-8.26-9.9-16.66-14.4-25.2-4.3-8.8-8.3-17.46-12-26-3.8-8.53-7.1-16.4-10-23.6-1.4-3.2-2.4-5.86-3.2-8-0.6-2.13-0.8-3.6-0.8-4.4 0-3.73 1.4-7.06 4.4-10 3.2-2.93 7.2-6.13 12-9.6 2.6-1.86 4-4 4-6.4 0-3.2-2.7-4.8-8-4.8h-81.6c-4.83 0-7.23 1.6-7.23 4.8"/>
  </g>
  <metadata>
    <rdf:RDF>
      <cc:Work>
        <dc:format>image/svg+xml</dc:format>
        <dc:type rdf:resource="http://purl.org/dc/dcmitype/StillImage"/>
        <cc:license rdf:resource="http://creativecommons.org/licenses/publicdomain/"/>
        <dc:publisher>
          <cc:Agent rdf:about="http://openclipart.org/">
            <dc:title>Openclipart</dc:title>
          </cc:Agent>
        </dc:publisher>
        <dc:title>Library door sign</dc:title>
        <dc:date>2011-06-16T08:59:28</dc:date>
        <dc:description>Door sign for your library with the silhouette of some old books on a shelf in art nouveau style, part of a series.</dc:description>
        <dc:source>http://openclipart.org/detail/145669/library-door-sign-by-moini</dc:source>
        <dc:creator>
          <cc:Agent>
            <dc:title>Moini</dc:title>
          </cc:Agent>
        </dc:creator>
        <dc:subject>
          <rdf:Bag>
            <rdf:li>art nouveau</rdf:li>
            <rdf:li>book</rdf:li>
            <rdf:li>books</rdf:li>
            <rdf:li>clip art</rdf:li>
            <rdf:li>clipart</rdf:li>
            <rdf:li>decoration</rdf:li>
            <rdf:li>door</rdf:li>
            <rdf:li>home</rdf:li>
            <rdf:li>house</rdf:li>
            <rdf:li>library</rdf:li>
            <rdf:li>read</rdf:li>
            <rdf:li>sign</rdf:li>
          </rdf:Bag>
        </dc:subject>
      </cc:Work>
      <cc:License rdf:about="http://creativecommons.org/licenses/publicdomain/">
        <cc:permits rdf:resource="http://creativecommons.org/ns#Reproduction"/>
        <cc:permits rdf:resource="http://creativecommons.org/ns#Distribution"/>
        <cc:permits rdf:resource="http://creativecommons.org/ns#DerivativeWorks"/>
      </cc:License>
    </rdf:RDF>
  </metadata>
</svg>
