<?xml version="1.0"?>
<svg xmlns:rdf="http://www.w3.org/1999/02/22-rdf-syntax-ns#" xmlns="http://www.w3.org/2000/svg" xmlns:cc="http://web.resource.org/cc/" xmlns:xlink="http://www.w3.org/1999/xlink" xmlns:dc="http://purl.org/dc/elements/1.1/" xmlns:svg="http://www.w3.org/2000/svg" id="Layer_1" y="0px" xml:space="preserve" viewBox="0 0 673.117 662.828" version="1.1" enable-background="new 0 0 673.117 662.828" x="0px">
<path stroke-linejoin="round" d="m348.8 435.08c27.622 55.43 50.708 74.164 23.588 130.23-54.935 113.56 68.352 114.1 43.66 22.215 40.362-0.7 80.725-1.399 121.09-2.1-24.985 84.457 73.015 82.796 62.836 45.419-22.068-81.001 16.387-109.62 65.646-166.15-103.81 51.549-232.57 93.479-288.65-38.938" stroke="#FCBA63" stroke-linecap="round" stroke-width="15" fill="#fff"/>
<path stroke-linejoin="round" d="m219.35 83.457c-43.383-143.05-147.62 46.44-170.62 99.009-35.593 81.34-88.827 213.1 43.813 120.46" stroke="#FCBA63" stroke-linecap="round" stroke-width="15" fill="#fff"/>
<path stroke-linejoin="round" d="m164.92 86.451c-79.78 69.129-124.86 202.68-83.042 303.19 59.804 143.73 271.19 109.3 375.08 40.219 287.35-191.07-25.46-574.4-292.04-343.41" stroke="#FCBA63" stroke-linecap="round" stroke-width="15" fill="#fff"/>
<path stroke-linejoin="round" d="m473.96 93.903c186.82-88.263 195.15 97.787 167.42 238.9-5.447 27.727-42.445 177.25-103.47 134.98-48.666-33.706-62.917-175.3-33.352-223.06" stroke="#FCBA63" stroke-linecap="round" stroke-width="15" fill="#fff"/>
<path stroke-linejoin="round" d="m238.89 207.44c-37.833 0.406-46.436 40.445-25.842 69.375 36.3 51 131.78-57.6 25.84-69.38" stroke="#FCBA63" stroke-linecap="round" stroke-width="15" fill="#fff"/>
<path d="m280.32 73.585c-15.786 26.728-33.526 31.109-53.221 13.144-12.37-64.84 58.4-9.608 53.22-13.144" fill="#FCBA63"/>
<path d="m422.88 99.732c-5.531 17.975 30.838 35.043 39.248 14.018 8.4-21.027-33.65-32.241-39.25-14.018z" fill="#FCBA63"/>
<path stroke-linejoin="round" d="m102 323.27c0 169.02 205.79 125.93 303.92 81.228-95.07 22.54-267.86 42.5-303.92-81.23" stroke="#FCBA63" stroke-linecap="round" stroke-width="15" fill="#fff"/>
<path stroke-linejoin="round" d="m193.6 89.092s75.425-168.88 109.71-20.709" stroke="#FCBA63" stroke-linecap="round" stroke-width="15" fill="#fff"/>
<path stroke-linejoin="round" d="m389.45 80.032s164.36-96.136 111.64 55.821" stroke="#FCBA63" stroke-linecap="round" stroke-width="15" fill="#fff"/>
<metadata><rdf:RDF><cc:Work><dc:format>image/svg+xml</dc:format><dc:type rdf:resource="http://purl.org/dc/dcmitype/StillImage"/><cc:license rdf:resource="http://creativecommons.org/licenses/publicdomain/"/><dc:publisher><cc:Agent rdf:about="http://openclipart.org/"><dc:title>Openclipart</dc:title></cc:Agent></dc:publisher><dc:title>dawg</dc:title><dc:date>2011-05-08T09:04:20</dc:date><dc:description>A simple illustration of a dog.</dc:description><dc:source>http://openclipart.org/detail/137197/dawg-by-jgm104</dc:source><dc:creator><cc:Agent><dc:title>jgm104</dc:title></cc:Agent></dc:creator><dc:subject><rdf:Bag><rdf:li>animal</rdf:li><rdf:li>clip art</rdf:li><rdf:li>clipart</rdf:li><rdf:li>dawg</rdf:li><rdf:li>dog</rdf:li><rdf:li>i love dogs</rdf:li><rdf:li>pet</rdf:li><rdf:li>pet lover</rdf:li></rdf:Bag></dc:subject></cc:Work><cc:License rdf:about="http://creativecommons.org/licenses/publicdomain/"><cc:permits rdf:resource="http://creativecommons.org/ns#Reproduction"/><cc:permits rdf:resource="http://creativecommons.org/ns#Distribution"/><cc:permits rdf:resource="http://creativecommons.org/ns#DerivativeWorks"/></cc:License></rdf:RDF></metadata></svg>
