<?xml version="1.0" encoding="UTF-8" standalone="no"?>
<!-- Created with Inkscape (http://www.inkscape.org/) -->

<svg
   xmlns:dc="http://purl.org/dc/elements/1.1/"
   xmlns:cc="http://creativecommons.org/ns#"
   xmlns:rdf="http://www.w3.org/1999/02/22-rdf-syntax-ns#"
   xmlns:svg="http://www.w3.org/2000/svg"
   xmlns="http://www.w3.org/2000/svg"
   xmlns:sodipodi="http://sodipodi.sourceforge.net/DTD/sodipodi-0.dtd"
   xmlns:inkscape="http://www.inkscape.org/namespaces/inkscape"
   width="744.09448819"
   height="1052.3622047"
   id="svg2"
   version="1.1"
   inkscape:version="0.48.4 r9939"
   sodipodi:docname="desktop_monitor.svg">
  <defs
     id="defs4" />
  <sodipodi:namedview
     id="base"
     pagecolor="#ffffff"
     bordercolor="#666666"
     borderopacity="1.0"
     inkscape:pageopacity="0.0"
     inkscape:pageshadow="2"
     inkscape:zoom="0.69827687"
     inkscape:cx="573.40469"
     inkscape:cy="515.15602"
     inkscape:document-units="px"
     inkscape:current-layer="layer1"
     showgrid="false"
     showguides="true"
     inkscape:guide-bbox="true"
     inkscape:window-width="1280"
     inkscape:window-height="961"
     inkscape:window-x="-8"
     inkscape:window-y="-8"
     inkscape:window-maximized="1" />
  <metadata
     id="metadata7">
    <rdf:RDF>
      <cc:Work
         rdf:about="">
        <dc:format>image/svg+xml</dc:format>
        <dc:type
           rdf:resource="http://purl.org/dc/dcmitype/StillImage" />
        <dc:title />
      </cc:Work>
    </rdf:RDF>
  </metadata>
  <g
     inkscape:label="Livello 1"
     inkscape:groupmode="layer"
     id="layer1">
    <g
       id="g4263"
       transform="translate(38.836914,4.8252572)">
      <rect
         ry="38.808601"
         y="334.25638"
         x="125.7448"
         height="305.25766"
         width="414.93106"
         id="rect4090-8"
         style="fill:#ffffff;fill-opacity:1;stroke:none" />
      <rect
         ry="36.869308"
         y="341.29288"
         x="131.90794"
         height="290.00369"
         width="402.1138"
         id="rect4090"
         style="fill:#000000;fill-opacity:1;stroke:none" />
      <rect
         ry="18.118832"
         y="358.33664"
         x="149.53865"
         height="227.74194"
         width="365.57803"
         id="rect4088"
         style="fill:#ffffff;fill-opacity:1;stroke:#4d4d4d;stroke-width:0.91394508;stroke-miterlimit:4;stroke-opacity:1;stroke-dasharray:none" />
      <path
         transform="matrix(1.7788482,0,0,1.897438,-291.33236,-463.24452)"
         sodipodi:open="true"
         sodipodi:end="10.949226"
         sodipodi:start="4.712389"
         d="m 350.97919,560.0922 c 2.83755,0 5.13784,2.15653 5.13784,4.81674 0,2.6602 -2.30029,4.81673 -5.13784,4.81673 -2.83756,0 -5.13785,-2.15653 -5.13785,-4.81673 0,-2.57344 2.15775,-4.69233 4.8998,-4.81156"
         sodipodi:ry="4.8167319"
         sodipodi:rx="5.1378474"
         sodipodi:cy="564.90894"
         sodipodi:cx="350.97919"
         id="path4092"
         style="fill:#ffffff;fill-opacity:1;stroke:none"
         sodipodi:type="arc" />
      <path
         inkscape:connector-curvature="0"
         id="rect4112"
         d="m 302.03509,646.36415 c -4.13214,0 -7.48292,3.35078 -7.48292,7.48293 l 0,32.67353 -27.8182,0 c -5.01215,0 -9.02521,4.07018 -9.02521,9.08233 l 0,3.82715 c 0,5.01215 4.01306,9.0252 9.02521,9.0252 l 132.06506,0 c 5.01214,0 9.0252,-4.01305 9.0252,-9.0252 l 0,-3.82715 c 0,-5.01215 -4.01306,-9.08233 -9.0252,-9.08233 l -27.47548,0 0,-32.67353 c 0,-4.13215 -3.29365,-7.48293 -7.4258,-7.48293 l -61.86266,0 z"
         style="fill:#000000;fill-opacity:1;stroke:none" />
    </g>
  </g>
</svg>
