<?xml version="1.0"?>
<svg xmlns:rdf="http://www.w3.org/1999/02/22-rdf-syntax-ns#" xmlns="http://www.w3.org/2000/svg" xmlns:cc="http://web.resource.org/cc/" xmlns:xlink="http://www.w3.org/1999/xlink" xmlns:dc="http://purl.org/dc/elements/1.1/" xmlns:svg="http://www.w3.org/2000/svg" id="Calque_1" version="1.1" xml:space="preserve" viewBox="0 0 290.741 364.288" enable-background="new 0 0 290.741 364.288" y="0px" x="0px">
		<path fill-rule="evenodd" clip-rule="evenodd" d="m271.77 138.67c-3.55 1.983-18.459 0.729-28.504 10.04 6.553 14.915 20.034 30.515 14.227 48.933 14.182-9.838 13.339-24.47 16.605-45.123l1.149-8.045c1.225-11.396 0.704-24.52 6.856-31.032 0.369 14.52-0.793 36.683-2.732 58.012-2.661 29.278-7.303 51.461-44.795 44.208-1.9 27.314-0.197 58.203-1.604 86.008 6.004 5.998 11.77 12.232 11.115 24.949 11.336 7.313 32.354 4.852 46.047 9.787 0.27 6.24 0.6 12.541-6.949 11.031-4.513-0.469-1.53-8.502-6.042-8.971-19.624-3.254-28.3-2.48-45.829-2.705-2.157 2.176 13.207 24.863 1.492 26.986-9.668-2.801 3.752 3.658-5.232-0.254-3.634-4.916-3.03-22.406-5.926-26.592-7.766 0.406-36.533 2.303-45.5 4.031-1.295 2.365-0.39 6.914-1.958 9.008-7.146 0.516-8.653-4.66-9.051-10.957 11.183-8.979 27.521-6.775 47.508-9.627 0 0-1.048-10.34 2.686-15.875l5.466-11.059 1.293-18.627c-1.068-22.756-0.357-44.039-1.512-65.982-10.812-3.424-33.114-2.758-44 0.203l-5.164-5.711s-2.783-5.506-9.636 4.08-4.065 30.631-4.065 30.631c-2.282 21.473-18.271 41.115-15.69 67.072 0.891 8.961 2.479 43.859-4.829 37.023 0.903-5.643 2.273-14.09-2.079-16.99-14.528 6.877-23.017 24.268-47.93 15.221 4.949-9.363 16.262-12.422 22.907-20.105 24.873-32.758 14.664-100.28 28.334-144.13 20.72-6.016 48.345-5.188 69.954-10.323 3.536-8.313 0.349-18.115-5.106-22.976-13.343 1.129-20.742-6.162-31.037-7.857-8.933-1.47-14.784-2.567-18.041-8.917-2.898 1.441-2.227 6.42-5.968 7.027 0.249-4.981 0.228-5.001-4.019-3.981 0.254-4.096 4.034-5.288 1.958-9.009 10.45-5.937 18.667 1.7 26.023 4.879 2.681-2.653 2.405-8.235 6.958-9.032 10.477 0.813 11.314 11.354 21.061 12.903 1.49-15.235-12.541-14.802-13.129-27.939 2.621-3.044 4.332-6.988 6.953-10.032-0.941-2.397-4.031-2.629-3.032-6.986 15.94-0.636 16.918-30.109 1.853-32.009-4.853 0.833-6.701 4.643-10.973 6.051-6.998-3.654-7.432-13.932-13.088-18.939 6.564-7.518 1.382-18.847-1.129-27.995 8.744-20.288 43.543-25.073 53.963-8.25 12.822 20.705 10.984 64.151 35.336 72.837-0.936 2.059-5.148 0.872-4.98 4.023 6.889 12.816 14.68 26.835 19.198 42.912 2.29 8.18 0.58 8.18 0.58 8.18zm-26.72-36.97c-6.061 2.623-4.189 13.103-4.902 21.023 4.563-0.456 11.016 0.96 13.995-1.064-2.55-7.14-6.79-12.58-9.09-19.96z" fill="#B35959"/>
			<path d="m271.2 138.5c-4.17 1.967-9.93 1.682-14.427 2.809-5.352 1.34-10.238 3.821-14.39 7.449-0.065 0.057-0.094 0.127-0.085 0.211 7.083 15.688 19.472 30.589 14.236 48.831-0.171 0.596 1.519 0.041 1.705-0.094 13.331-9.632 14.052-25.537 16.106-40.564 0.659-4.823 1.593-9.639 2.022-14.49 0.839-9.47 0.004-21.57 6.614-29.257-0.615 0.102-1.231 0.204-1.847 0.306 0.287 13.07-0.382 26.154-1.242 39.191-0.789 11.964-1.5 24.082-3.681 35.892-1.405 7.61-3.828 15.406-9.287 21.114-8.039 8.404-21.158 7.288-31.564 5.364-0.439-0.081-1.712 0.042-1.753 0.658-1.383 20.76-0.884 41.579-1.009 62.369-0.029 4.89-0.111 9.779-0.243 14.668-0.065 2.398-0.162 4.795-0.266 7.191-0.105 2.413 0.754 2.625 2.4 4.346 6.095 6.369 8.889 13.575 8.629 22.383 0.02 0.028 0.039 0.056 0.06 0.084 6.736 4.076 14.748 5.013 22.429 5.872 4.896 0.548 9.798 0.985 14.667 1.744 2.661 0.415 5.269 1.033 7.844 1.811 2.03 0.613 1.093 5.867 0.901 7.188-0.475 3.277-5.587 4.917-7.253 1.7-0.657-1.269-0.691-2.984-1.011-4.361-0.757-3.265-4.046-3.056-6.783-3.478-9.398-1.449-18.835-1.974-28.334-2.04-4.605-0.032-9.327-0.313-13.92-0.068-0.675 0.036-1.526 0.352-1.567 1.137-0.228 4.407 3.462 9.845 4.816 13.953 0.91 2.76 1.664 5.785 1.119 8.691-0.664 3.54-3.835 2.417-6.376 2.489-3.349 0.096 0.086 1.719 0.159 2.445 0.527-0.229 1.056-0.459 1.583-0.688-5.037-0.446-5.255-7.956-5.771-11.642-0.706-5.044-0.396-11.566-3.071-16.072-0.111-0.188-0.366-0.184-0.559-0.173-10.359 0.553-20.713 1.321-31.043 2.271-4.693 0.432-9.406 0.882-14.056 1.669-3.931 0.665-2.227 6.917-3.723 9.688 0.454-0.196 0.908-0.393 1.363-0.589-5.615 0.118-7.511-3.464-8.264-8.336-0.854-5.535 10.296-7.444 14.163-8.182 10.503-2.005 21.39-1.789 31.983-3.229 0.279-0.038 1.172-0.247 1.133-0.664-0.74-7.962 1.796-13.993 5.193-20.866 0.819-1.658 2.833-4.261 2.963-6.133 0.202-2.922 0.405-5.844 0.608-8.767 0.675-9.723 0.278-19.229 0.115-28.989-0.263-15.6-0.164-31.201-0.947-46.788-0.034-0.077-0.094-0.124-0.179-0.141-9.889-2.933-20.821-2.688-31.006-1.922-4.334 0.326-8.651 0.936-12.885 1.92-0.707 0.165-4.584-4.54-5.199-5.541-2.704-4.396-8.413 0.929-10.273 3.101-5.866 6.849-6.034 17.326-5.75 25.868 0.085 2.559 0.643 5.189 0.337 7.731-0.739 6.15-2.738 12.123-4.815 17.929-4.278 11.963-9.326 23.548-10.709 36.306-0.916 8.439 0.548 17.133 0.741 25.605 0.157 6.893 1.067 16.051-2.129 22.412-1.085 2.158-1.254-1.607-1.156-2.255 0.268-1.759 0.439-3.522 0.55-5.298 0.218-3.487-0.219-7.174-3.049-9.491-0.353-0.288-1.137 0.006-1.475 0.172-7.942 3.916-14.118 10.491-21.941 14.598-6.293 3.303-13.173 3.415-19.962 1.837-0.583-0.135-4.745-0.776-3.821-2.387 0.865-1.508 2.067-2.784 3.261-4.028 2.414-2.519 5.464-4.447 8.351-6.372 4.027-2.687 8.296-5.386 11.222-9.327 2.837-3.823 5.047-8.081 6.953-12.43 4.392-10.019 6.589-20.944 8.234-31.704 3.684-24.104 3.823-48.598 7.028-72.762 0.727-5.476 1.669-10.92 2.844-16.316 0.56-2.571 1.223-5.118 1.934-7.651 1.074-3.83 6.85-3.712 10.225-4.348 13.784-2.596 27.883-3.223 41.793-4.889 4.861-0.583 9.696-1.339 14.495-2.306 2.597-0.523 3.809-0.26 4.731-2.723 1.444-3.854 1.063-8.232 0.078-12.122-0.594-2.346-3.128-8.783-5.909-9.615-1.077-0.322-4.289 0.049-5.107 0.013-2.856-0.125-5.644-0.867-8.355-1.715-4.239-1.326-8.231-3.361-12.42-4.836-8.164-2.875-18.161-1.485-23.017-10.094-0.271-0.479-1.401-0.021-1.715 0.195-2.315 1.594-2.606 5.914-5.313 6.742 0.354 0.03 0.706 0.06 1.06 0.09 0.224-4.811-0.717-5.098-5.078-4.072 0.35 0.064 0.7 0.128 1.049 0.192 0.312-1.949 1.133-3.372 2.08-5.069 0.25-0.449 0.576-1.348 0.508-1.876-0.547-4.211 6.299-3.818 9.184-3.27 5.201 0.988 9.719 4.469 14.467 6.642 0.43 0.197 1.376-0.099 1.668-0.447 1.452-1.729 2.153-3.781 3.087-5.813 2.388-5.198 8.381-1.01 11.065 1.472 3.935 3.637 6.655 7.518 12.198 8.659 0.439 0.09 1.711-0.048 1.753-0.658 0.483-7.031-2.378-11.363-7.123-16.124-2.466-2.475-4.486-5.068-5.51-8.454-1.257-4.159 3.955-10.16 6.372-13.182 0.065-0.057 0.094-0.127 0.085-0.211-1.404-2.654-3.553-3.371-3.042-6.884-0.454 0.196-0.908 0.393-1.363 0.588 13.676-1.043 17.874-19.093 10.187-28.911-5.029-6.421-11.048-3.249-16.312 0.686-5.026 3.758-8.998-8.201-10.543-11.417-0.91-1.896-2.015-3.6-3.375-5.197-0.756-0.887 0.449-2.384 0.83-3.011 0.956-1.577 1.26-3.479 1.494-5.27 0.706-5.406-1.417-11.145-2.983-16.22-1.001-3.243-1.02-5.069 0.771-7.931 1.656-2.646 3.973-4.868 6.403-6.79 8.608-6.805 20.977-8.938 31.454-6.002 9.491 2.659 13.788 10.481 16.966 19.144 3.43 9.346 5.381 19.198 8.024 28.778 2.123 7.695 4.671 15.386 8.915 22.197 1.805 2.896 4.068 5.468 6.684 7.653 1.27 1.061 2.695 1.911 4.148 2.69 0.622 0.333 1.313 0.618 1.959 0.897 1.053 0.454-2.244 1.577-2.325 1.607-2.948 1.1-1.4 3.521-0.33 5.509 2.95 5.478 5.857 10.975 8.567 16.576 2.858 5.906 5.351 11.973 7.465 18.184 0.951 2.792 1.767 5.632 2.419 8.508 0.275 1.214-0.107 4.427 0.923 4.289-0.824 0.11-1.689 0.991-0.334 0.811 5.584-0.745-2.62-18.525-3.556-20.945-2.936-7.593-6.627-14.881-10.416-22.076-0.777-1.476-1.568-2.944-2.356-4.414-1.135-2.114-4-5.29-0.247-6.386 1.179-0.345 2.063-0.764 2.818-1.743 0.126-0.163 0.104-0.277-0.094-0.352-15.241-5.807-19.851-24.066-23.578-38.241-2.024-7.699-3.818-15.462-6.383-23.006-2.172-6.389-4.936-12.926-10.499-17.051-10.111-7.495-25.351-5.434-35.964-0.322-5.715 2.752-10.545 7.129-13.676 12.643-1.993 3.51 1.045 8.538 2.048 12.198 1.651 6.026 2.261 12.428-1.786 17.633-0.079 0.102-0.133 0.19-0.025 0.295 5.367 5.25 5.951 13.651 12.035 18.309 1.344 1.029 2.263 0.776 3.741-0.03 3.865-2.109 7.506-6.542 12.253-4.089 10.838 5.599 8.481 28.943-4.508 29.935-0.297 0.022-1.303 0.173-1.363 0.588-0.206 1.417-0.422 2.896 0.593 4.102 1.64 1.949 2.238 2.815 0.615 5.308-1.539 2.365-4.098 5.092-5.129 7.608-0.648 1.581 0.886 4.832 1.548 6.253 1.555 3.337 4.628 5.798 7.1 8.424 3.6 3.826 4.827 8.193 4.472 13.364 0.584-0.219 1.168-0.439 1.753-0.658-6.542-1.346-9.367-6.851-14.381-10.556-2.645-1.954-7.579-3.656-10.399-1.037-1.947 1.809-2.627 4.251-3.766 6.588-0.588 1.206-8.817-3.673-10.052-4.223-5.688-2.53-11.357-2.069-16.799 0.707-0.104 0.053-0.475 0.247-0.397 0.429 1.436 3.396-1.425 5.634-1.949 8.907-0.072 0.45 0.845 0.24 1.049 0.192 3.938-0.927 3.081 1.285 2.959 3.891-0.015 0.317 0.946 0.125 1.06 0.09 4.045-1.238 3.45-5.128 6.623-7.313-0.571 0.065-1.144 0.13-1.715 0.195 5.22 9.257 17.054 7.948 25.843 11.277 5.153 1.953 10.007 4.285 15.464 5.323 2.19 0.417 4.403 0.463 6.623 0.447 3.866-0.028 5.917 6.238 6.879 9.201 1.091 3.362 1.021 6.986 0.361 10.414-0.728 3.781-6.135 3.747-9.215 4.26-7.665 1.276-15.423 1.973-23.153 2.721-12.656 1.225-25.414 2.375-37.698 5.822-2.233 0.626-2.767 7.334-3.236 9.315-1.375 5.807-2.324 11.711-3.139 17.618-1.607 11.645-2.425 23.392-3.302 35.108-1.736 23.188-2.839 47.64-11.96 69.358-3.238 7.709-7.517 14.181-14.406 19.056-5.997 4.243-12.295 7.724-16.061 14.288-0.073 0.127 0.079 0.211 0.169 0.242 8.926 3.081 17.681 3.511 26.383-0.385 8.403-3.761 14.66-11.001 22.903-15.064-0.492 0.057-0.983 0.114-1.475 0.172 4.121 3.373 3.044 9.8 2.4 14.417-0.275 1.976-0.681 3.393 1.777 3.539 3.75 0.225 4.328-5.008 4.71-7.606 2.381-16.154-2.102-32.483 0.776-48.532 3.202-17.854 15.791-34.899 14.452-53.346-0.619-8.528-0.523-18.224 3.831-25.833 1.56-2.724 5.407-7.713 8.354-4.455 1.721 1.903 3.442 3.807 5.164 5.711 0.195 0.216 0.778 0.063 1 0.006 7.473-1.928 15.301-2.366 22.989-2.424 4.13-0.03 8.26 0.218 12.361 0.691 1.935 0.224 3.849 0.584 5.746 1.019 2.574 0.589 2.016 3.983 2.102 6.051 0.834 20.107 0.353 40.245 1.254 60.353 0.157 3.514-0.503 7.248-0.746 10.754-0.203 2.923 0.152 6.376-1.162 9.035-4.198 8.495-8.452 15.917-7.536 25.771 0.377-0.222 0.755-0.442 1.133-0.664-13.625 1.854-28.439 0.743-41.42 5.879-2.131 0.843-4.091 2.012-5.974 3.304-2.111 1.45-1.094 3.51-0.606 5.82 0.996 4.729 4.46 6.514 8.969 6.418 0.423-0.009 1.142-0.179 1.363-0.589 0.785-1.453 0.944-2.89 1.092-4.504 0.21-2.316-0.349-3.953 1.841-4.297 4.016-0.631 8.075-0.997 12.12-1.379 8.311-0.784 16.64-1.377 24.969-1.911 2.431-0.155 5.414-1.307 6.36 1.32 1.325 3.677 1.449 7.935 1.915 11.782 0.565 4.68 0.414 13.857 6.778 14.421 0.342 0.03 1.638-0.149 1.583-0.688-0.035-0.347-0.854-0.75-1.097-0.935-1.273-0.967 0.583 0.781 1.932 0.56 2.873-0.472 4.941-2.109 5.487-5.021 0.774-4.128-1.361-8.882-2.812-12.629-0.723-1.867-4.357-7.904-3.045-9.898-0.524 0.196-1.049 0.392-1.573 0.587 8.291 0.093 16.589-0.055 24.874 0.335 4.001 0.188 7.988 0.58 11.964 1.056 2.362 0.282 4.714 0.64 7.064 1.002 3.577 0.552 4.032 1.599 4.599 4.627 0.75 4.01 3.758 6.196 7.981 4.525 4.742-1.875 4.102-7.292 3.921-11.589-0.034-0.077-0.094-0.124-0.179-0.141-11.37-3.862-23.651-3.299-35.325-5.716-2.58-0.535-5.078-1.34-7.507-2.353-3.929-1.639-2.919-5.739-3.512-9.317-0.826-4.978-3.515-9.306-6.715-13.094-2.24-2.652-3.93-3.81-3.762-7.682 0.157-3.621 0.244-7.245 0.318-10.868 0.164-8.028 0.148-16.06 0.141-24.09-0.016-15.833-0.071-31.678 0.981-47.484-0.584 0.22-1.168 0.438-1.753 0.658 9.408 1.739 19.298 2.449 28.235-1.561 7.47-3.352 11.706-10.562 14.14-18.046 3.595-11.048 4.052-23.207 4.976-34.696 1.297-16.134 2.286-32.383 1.93-48.575-0.012-0.523-1.67 0.1-1.847 0.306-5.102 5.931-5.564 14.237-6.158 21.704-0.468 5.878-1.09 11.651-1.923 17.483-2.267 15.866-2.123 34.588-16.398 44.903 0.568-0.031 1.137-0.063 1.705-0.094 4.337-15.107-3.401-28.375-10.368-41.292-1.954-3.624-5.021-7.064-0.56-10.15 4.121-2.851 9.185-4.137 14.042-5.03 3.524-0.647 7.483-0.619 10.775-2.172 1.32-0.59-0.48-0.62-0.98-0.38z"/>
			<path d="m244.48 101.53c-7.108 3.702-4.81 14.917-5.3 21.452-0.015 0.19 0.477 0.179 0.559 0.173 4.863-0.333 10.473 1.135 14.971-1.326 0.108-0.059 0.469-0.24 0.397-0.429-2.587-6.869-6.768-12.979-9.093-19.958-0.172-0.516-2.088 0.048-1.932 0.518 1.455 4.37 3.576 8.384 5.703 12.454 1.057 2.021 2.021 4.077 2.893 6.185 0.896 2.167-7.472 1.647-8.521 1.614-1.864-0.059-3.027 0.431-2.907-1.963 0.096-1.925 0.072-3.859 0.096-5.787 0.052-4.19-0.075-10.328 4.271-12.591 1.14-0.58-0.64-0.58-1.14-0.32z"/>
		<path fill-rule="evenodd" clip-rule="evenodd" d="m153.93 149.53c-14.798 0.156-19.236-2.227-36.014-1.745-1.797 1.869-0.115 7.167-2.943 8.021-19.756 2.247-24.871-10.359-36.12-16.744 0.608-7.014-1.438-16.645 0.843-22.007 2.565 4.115 2.163 11.237 5.106 14.964 5.418 1.037 5.938-2.753 10.986-2.078-8.11-38.519-16.42-79.212-27.802-112.81-2.044-1.291-6.626 1.553-9.986 2.071 8.787 35.701 14.909 73.553 13.838 117.9-2.479 8.146-13.044 8.322-13.872 18.099-20.002-0.523-36.944 1.97-56.992 1.405 0.039 5.333 0.076 10.667 0.114 15.999 15.698 0.531 33.958-1.54 48.006 0.659 2.733 57.322 1.185 118.99 2.264 177.99 4.872-0.494 11.722 0.965 14.993-1.105 0.247-59.004-2.188-120.65-0.264-178 38.667-0.275 77.332-0.549 116-0.824l-0.074-16.081-17.066-0.61 0.672-4.142-11.69-0.96z" fill="#B35959"/>
			<path d="m154.02 148.84c-9.659 0.041-19.176-1.526-28.816-1.779-2.428-0.064-6.959-1.226-8.536 1.109-0.577 0.854-0.624 2.105-0.727 3.083-0.487 4.633-4.273 4.263-8.07 4-8.818-0.609-15.095-6.344-21.452-11.789-1.329-1.138-2.704-2.21-4.122-3.233-2.382-1.717-2.332-2.79-2.362-5.705-0.06-5.715-1.279-11.832 0.685-17.357-0.602 0.105-1.205 0.211-1.807 0.317 2.537 4.732 2.079 10.449 5.106 14.964 1.548 2.307 10.061-1.89 11.534-1.808 0.511 0.029 1.447-0.265 1.303-0.952-4.974-23.637-9.871-47.296-15.699-70.741-2.844-11.441-5.968-22.813-9.49-34.065-0.609-1.945-1.258-8.622-4.012-8.719-3.414-0.121-6.446 1.692-9.727 2.399-0.385 0.083-0.903 0.456-0.792 0.91 5.896 24.084 10.318 48.467 12.483 73.182 1.24 14.158 1.629 28.38 1.386 42.588-0.096 5.564-5.063 8.077-8.891 11.162-2.887 2.327-4.531 5.228-5.024 8.89 0.438-0.257 0.876-0.513 1.315-0.77-19.022-0.409-37.972 1.852-56.992 1.405-0.425-0.01-1.319 0.176-1.315 0.77 0.039 5.333 0.076 10.666 0.114 15.999 0.003 0.354 0.282 0.606 0.641 0.616 8.293 0.232 16.58-0.102 24.87-0.292 4.532-0.104 9.061-0.112 13.591 0.058 2.164 0.082 4.319 0.267 6.472 0.485 3.133 0.317 2.572 2.809 2.683 5.353 0.825 18.918 1.164 37.854 1.35 56.788 0.379 38.546-0.023 77.096 0.663 115.64 0.009 0.484 0.46 0.648 0.89 0.621 5.043-0.333 10.787 1.082 15.506-1.243 0.224-0.11 0.552-0.349 0.553-0.636 0.178-48.093-1.326-96.177-0.942-144.27 0.045-5.656 0.128-11.313 0.236-16.968 0.06-3.114 0.136-6.229 0.218-9.342 0.084-3.221-0.989-6.649 3.09-6.678 12.452-0.089 24.903-0.177 37.355-0.266 24.903-0.177 49.807-0.354 74.71-0.53 0.371-0.002 1.068-0.317 1.066-0.773-0.024-5.36-0.049-10.721-0.074-16.081-0.001-0.356-0.282-0.604-0.641-0.616-3.812-0.136-7.623-0.273-11.435-0.409-1.781-0.063-3.563-0.127-5.345-0.191 0.327 0.012 0.369 0.515 0.618-1.024 0.136-0.837 0.271-1.674 0.407-2.512 0.06-0.365-0.331-0.591-0.641-0.616-3.896-0.322-7.792-0.645-11.688-0.967-0.932-0.077-1.982 1.278-0.674 1.386 2.886 0.239 5.771 0.478 8.657 0.716 0.722 0.06 1.443 0.119 2.165 0.179 1.351 0.111 0.12 0.098 0.188-0.316-0.212 1.304-0.424 2.608-0.635 3.913-0.058 0.354 0.329 0.605 0.641 0.616 2.845 0.102 5.688 0.204 8.533 0.305 2.075 0.074 4.15 0.148 6.227 0.223 0.559 0.02 1.118 0.04 1.678 0.06 1.079 0.039-0.012-0.577-0.011-0.302 0.016 3.376 0.031 6.752 0.047 10.128 0.008 1.674 0.016 3.348 0.023 5.021 0.005 1.163 0.136-0.127-0.897-0.121-2.621 0.019-5.242 0.038-7.864 0.056-35.389 0.251-70.778 0.502-106.17 0.754-0.384 0.003-1.051 0.316-1.066 0.773-0.995 30.417-0.814 60.854-0.463 91.281 0.179 15.476 0.406 30.951 0.565 46.427 0.079 7.699 0.135 15.397 0.165 23.097 0.015 3.827 0.017 7.653 0.013 11.48-0.002 1.979 0.836 5.448-2.312 5.962-1.817 0.298-3.719 0.124-5.55 0.064-1.083-0.036-2.176-0.099-3.26-0.085-2.298 0.029-1.961-0.967-1.997-3.081-0.064-3.822-0.113-7.646-0.158-11.47-0.091-7.694-0.14-15.389-0.176-23.083-0.073-15.475-0.064-30.95-0.099-46.425-0.069-31.073-0.311-62.156-1.765-93.2-0.018-0.384-0.272-0.563-0.641-0.616-9.595-1.385-19.316-1.084-28.978-0.825-5.779 0.155-11.556 0.312-17.337 0.213-1.957-0.034-1.151-13.652-1.164-15.43-0.438 0.257-0.876 0.513-1.315 0.77 19.022 0.447 37.972-1.813 56.992-1.405 0.491 0.011 1.234-0.173 1.315-0.77 0.729-5.427 4.437-7.947 8.477-11.021 1.937-1.474 5.336-4.376 5.395-7.078 0.301-13.795-0.055-27.575-1.078-41.335-1.927-25.915-6.599-51.533-12.772-76.751-0.264 0.303-0.527 0.607-0.792 0.91 1.679-0.362 3.26-0.922 4.874-1.502 3.709-1.333 4.632 0.99 5.552 3.809 1.603 4.908 3.082 9.855 4.517 14.814 2.834 9.796 5.352 19.682 7.75 29.593 5.108 21.105 9.483 42.382 13.955 63.629 0.434-0.317 0.869-0.634 1.303-0.952-2.262-0.127-9.99 3.016-11.107 1.349-2.685-4.003-2.138-9.676-4.437-13.965-0.32-0.596-1.617-0.219-1.807 0.317-2.5 7.031-0.451 14.9-0.899 22.189-0.011 0.189 0.062 0.375 0.232 0.476 5.76 3.405 10.259 8.421 15.739 12.209 6.265 4.332 13.587 5.387 21.038 4.679 1.27-0.121 2.349-1.342 2.609-2.529 0.295-1.348 0.009-5.484 2.216-5.535 3.061-0.07 6.123 0.012 9.18 0.167 8.35 0.425 16.568 1.656 24.951 1.62 1.06-0.02 1.45-1.42 0.14-1.41z"/>
<metadata><rdf:RDF><cc:Work><dc:format>image/svg+xml</dc:format><dc:type rdf:resource="http://purl.org/dc/dcmitype/StillImage"/><cc:license rdf:resource="http://creativecommons.org/licenses/publicdomain/"/><dc:publisher><cc:Agent rdf:about="http://openclipart.org/"><dc:title>Openclipart</dc:title></cc:Agent></dc:publisher><dc:title>computer desk</dc:title><dc:date>2013-08-16T15:33:20</dc:date><dc:description/><dc:source>http://openclipart.org/detail/181870/computer-desk-by-presquesage-181870</dc:source><dc:creator><cc:Agent><dc:title>presquesage</dc:title></cc:Agent></dc:creator><dc:subject><rdf:Bag><rdf:li>computer desk</rdf:li><rdf:li>ordinateur de bureau</rdf:li></rdf:Bag></dc:subject></cc:Work><cc:License rdf:about="http://creativecommons.org/licenses/publicdomain/"><cc:permits rdf:resource="http://creativecommons.org/ns#Reproduction"/><cc:permits rdf:resource="http://creativecommons.org/ns#Distribution"/><cc:permits rdf:resource="http://creativecommons.org/ns#DerivativeWorks"/></cc:License></rdf:RDF></metadata></svg>
