<?xml version="1.0"?>
<svg xmlns:rdf="http://www.w3.org/1999/02/22-rdf-syntax-ns#" xmlns="http://www.w3.org/2000/svg" xmlns:cc="http://web.resource.org/cc/" xmlns:dc="http://purl.org/dc/elements/1.1/" xmlns:sodipodi="http://inkscape.sourceforge.net/DTD/sodipodi-0.dtd" xmlns:svg="http://www.w3.org/2000/svg" id="Layer_1" style="enable-background:new 0 0 410.96 260.202" space="preserve" sodipodi:version="0.32" viewBox="0 0 410.96 260.202" version="1.1" sodipodi:docname="Uccello01.svg" sodipodi:docbase="F:\openclip\svg da inviare">
  <sodipodi:namedview id="base" bordercolor="#666666" borderopacity="1.0" pagecolor="#ffffff"/>
  <g id="g3">
    <path id="path5" fill-rule="evenodd" clip-rule="evenodd" d="m122.61 260.2c1.831-10.378 11.34-16.83 12.03-27.3-9.104 2.688-15.61 5.485-24.291 7.171-9.317 1.81-15.413-2.667-21.977 4.165 1.498-12.848 22.363-6.912 30.074-12.262-6.52 0.776-7.622-7.811-13.88-0.693 3.884-11.647 18.359-1.481 26.141-4.166 6.071-2.093 11.624-9.286 15.961-14.112 8.111-9.021 17.935-18.002 24.521-28.226-4.868-0.433-9.984-0.284-14.805 0.231 0.128 0.666 0.373 1.202 0.462 2.081-5.458-3.644-5.689 0.737-7.865 1.62-5.444 2.209-9.291 2.457-15.268 2.545-12.142 0.179-12.58 2.105-19.2 10.411-3.631 4.555-12.102 6.884-8.328 12.957-10.996-5.117 7.27-16.997 8.328-23.368-8.875 1.924-41.727 5.548-45.11 12.031-0.389-11.012 21.174-12.342 29.148-12.956v-0.463c-0.231 0.076-0.309 0-0.231-0.232-6.456-0.821-11.64-6.858-16.425-1.619 1.49-10.05 13.85-3.411 18.044-2.314 9.244 2.418 14.545-2.804 24.521-4.395-44.319-5.98-87.4-41.893-87.906-89.536-0.197-18.282 7.205-37.184-1.854-54.15-7.189-13.464-21.701-15.842-34.7-21.285 8.644-8.913 23.907-3.131 33.543-6.71 5.639-2.094 11.981-6.801 18.275-8.329 16.772-4.071 31.96 1.751 45.11 11.799 9.051 6.916 16.22 16.759 26.141 22.442 12.684 7.266 28.892 9.455 42.565 14.807 14.303 5.6 26.793 13.759 41.409 18.509 14.507 4.715 29.22 9.514 42.796 16.658 14.904 7.843 29.535 8.264 46.035 11.105 8.45 1.455 25.436 2.479 29.611 10.412-8.889 1.938-18.899 3.082-28.223 5.321 28.062 0 56.642 4.712 84.667 7.519 8.361 0.837 21.742-1.903 26.372 5.437 1.387 2.199 0.41 6.727-1.157 7.867 4.031 4.463-0.497 6.112-5.09 5.321 12.268 0.715 11.324 6.542 0.463 6.478-20.495-0.123-42.244-4.212-62.921-5.784-13.054-0.993-26.084-2.052-39.097-3.354-7.064-0.708-15.225 3.913-22.207 5.669-13.827 3.478-31.997 1.476-42.102 10.642-16.102 14.606-33.5 23.001-51.588 30.309-8.065 3.259-34.363 27.559-35.856 37.942-0.127 0.879-1.238 2.379-1.619 3.24 7.732 0.364 28.869-11.199 28.685 3.237-6.48-7.833-7.866-0.856-12.492 1.156-3.407 1.483-8.458 1.325-12.029 2.314-8.707 2.412-10.649 5.353-16.193 13.882-3.69 5.68-8.25 11.12-12.48 15.95"/>
  </g>
  <metadata>
    <rdf:RDF>
      <cc:Work>
        <dc:format>image/svg+xml</dc:format>
        <dc:type rdf:resource="http://purl.org/dc/dcmitype/StillImage"/>
        <cc:license rdf:resource="http://creativecommons.org/licenses/publicdomain/"/>
        <dc:publisher>
          <cc:Agent rdf:about="http://openclipart.org/">
            <dc:title>Openclipart</dc:title>
          </cc:Agent>
        </dc:publisher>
        <dc:title>Architetto -- ucello profilo</dc:title>
        <dc:date>2010-03-28T12:22:36</dc:date>
        <dc:description>Drawing by Francesco 'Architetto' Rollandin. From OCAL 0.18 release.</dc:description>
        <dc:source>http://openclipart.org/detail/34927/architetto----ucello-profilo-by-anonymous</dc:source>
        <dc:creator>
          <cc:Agent>
            <dc:title>Anonymous</dc:title>
          </cc:Agent>
        </dc:creator>
        <dc:subject>
          <rdf:Bag>
            <rdf:li>animal</rdf:li>
            <rdf:li>bird</rdf:li>
            <rdf:li>black</rdf:li>
            <rdf:li>black and white</rdf:li>
            <rdf:li>clip art</rdf:li>
            <rdf:li>clipart</rdf:li>
            <rdf:li>silhouette</rdf:li>
          </rdf:Bag>
        </dc:subject>
      </cc:Work>
      <cc:License rdf:about="http://creativecommons.org/licenses/publicdomain/">
        <cc:permits rdf:resource="http://creativecommons.org/ns#Reproduction"/>
        <cc:permits rdf:resource="http://creativecommons.org/ns#Distribution"/>
        <cc:permits rdf:resource="http://creativecommons.org/ns#DerivativeWorks"/>
      </cc:License>
    </rdf:RDF>
  </metadata>
</svg>
