<?xml version="1.0" standalone="no"?>
<!DOCTYPE svg PUBLIC "-//W3C//DTD SVG 20010904//EN"
 "http://www.w3.org/TR/2001/REC-SVG-20010904/DTD/svg10.dtd">
<svg version="1.0" xmlns="http://www.w3.org/2000/svg"
 width="439.000000pt" height="500.000000pt" viewBox="0 0 439.000000 500.000000"
 preserveAspectRatio="xMidYMid meet">
<metadata>
Created by potrace 1.11, written by Peter Selinger 2001-2013
</metadata>
<g transform="translate(0.000000,500.000000) scale(0.100000,-0.100000)"
fill="#000000" stroke="none">
<path d="M1920 4770 c0 -5 -13 -10 -29 -10 -16 0 -34 -7 -41 -15 -7 -8 -21
-15 -31 -15 -11 0 -19 -4 -19 -10 0 -5 -9 -10 -19 -10 -11 0 -23 -4 -26 -10
-3 -5 -13 -10 -21 -10 -23 0 -154 -136 -154 -160 0 -11 -4 -28 -9 -38 -5 -9
-17 -34 -25 -54 -9 -20 -21 -40 -26 -43 -6 -3 -10 -19 -10 -35 0 -16 -4 -32
-10 -35 -5 -3 -10 -14 -10 -25 0 -10 -7 -20 -15 -24 -12 -4 -15 -30 -15 -144
0 -122 -2 -141 -18 -155 -23 -21 -31 -21 -53 -1 -10 9 -25 14 -34 11 -20 -8
-20 -80 0 -97 8 -7 15 -21 15 -31 0 -11 4 -19 9 -19 5 0 11 -10 13 -22 2 -15
11 -24 26 -26 14 -2 22 -10 22 -23 0 -12 7 -19 20 -19 11 0 23 -7 26 -15 4 -8
14 -15 24 -15 11 0 22 -4 25 -10 3 -5 14 -10 25 -10 10 0 20 -7 24 -15 4 -10
20 -15 51 -15 25 0 45 -4 45 -10 0 -5 8 -10 18 -10 11 0 27 -9 37 -20 16 -18
16 -20 1 -36 -16 -16 -19 -15 -46 11 -39 37 -60 28 -60 -26 0 -40 -5 -47 -95
-136 -52 -51 -95 -99 -95 -107 0 -7 -7 -19 -15 -26 -8 -7 -15 -21 -15 -31 0
-11 -4 -19 -10 -19 -6 0 -10 -85 -10 -234 0 -146 4 -237 10 -241 6 -3 10 -18
10 -33 0 -21 20 -47 85 -112 l85 -85 0 -102 c0 -57 -4 -105 -10 -108 -5 -3
-10 -42 -10 -86 0 -46 -4 -79 -10 -79 -6 0 -10 -46 -10 -119 0 -110 1 -119 20
-124 19 -5 20 -14 20 -136 0 -81 -4 -131 -10 -131 -6 0 -10 -87 -10 -240 0
-151 4 -240 10 -240 6 0 11 -96 12 -252 l3 -253 23 -3 c13 -2 22 -10 22 -21 0
-20 -80 -101 -101 -101 -8 0 -23 -11 -33 -25 -24 -31 -36 -31 -66 0 -13 14
-32 25 -42 25 -15 0 -18 8 -18 44 0 26 -6 48 -15 56 -10 9 -15 32 -15 76 0 34
-4 66 -10 69 -6 4 -10 -21 -10 -68 0 -60 3 -76 16 -81 12 -5 15 -16 12 -44 -5
-41 14 -82 41 -83 10 0 11 -2 4 -6 -7 -2 -13 -14 -13 -26 0 -16 -3 -18 -9 -8
-5 8 -16 11 -30 6 -17 -5 -21 -2 -21 14 0 12 -4 21 -10 21 -18 0 -10 -35 12
-50 12 -8 29 -23 39 -32 10 -10 25 -15 34 -12 10 4 15 0 15 -11 0 -12 -5 -15
-19 -10 -11 3 -22 2 -25 -3 -3 -5 -16 -7 -29 -5 -20 4 -24 1 -23 -19 1 -20 -3
-23 -28 -20 -16 2 -32 -2 -36 -8 -5 -8 -13 -9 -26 -2 -11 6 -27 13 -38 16 -13
5 -17 13 -13 32 3 16 -1 28 -9 31 -9 3 -14 21 -14 48 0 26 -6 47 -15 55 -9 7
-15 29 -15 51 0 22 -4 39 -10 39 -5 0 -10 -13 -10 -29 0 -31 -35 -72 -82 -95
-26 -14 -30 -13 -35 2 -10 28 -55 72 -75 72 -23 0 -24 -20 0 -20 26 -1 52 -25
51 -46 -4 -45 3 -65 37 -101 79 -83 79 -102 2 -110 -79 -9 -372 -3 -382 7 -6
6 -18 10 -28 10 -10 0 -18 5 -18 10 0 6 -8 10 -18 10 -26 0 -52 31 -52 63 0
14 -4 29 -10 32 -5 3 -10 -3 -10 -14 0 -32 -18 -34 -44 -7 -15 17 -34 26 -55
26 -17 0 -31 4 -31 9 0 5 -14 11 -31 15 -49 9 -59 27 -59 100 0 70 17 92 22
29 2 -28 9 -41 25 -48 13 -5 23 -13 23 -17 0 -5 11 -8 25 -8 14 0 25 5 25 10
0 6 16 10 35 10 35 0 35 0 35 -44 0 -25 5 -48 10 -51 6 -4 10 24 10 77 0 59 4
90 15 104 8 10 15 25 15 32 0 7 27 40 60 74 33 35 60 68 60 75 0 6 81 92 180
191 137 137 180 185 180 205 0 13 7 30 15 37 19 16 19 44 0 64 -15 14 -21 87
-8 99 3 4 12 2 19 -4 16 -13 44 10 44 36 0 8 7 18 15 21 8 4 12 10 9 15 -3 5
-22 0 -44 -11 l-38 -19 -29 21 c-15 12 -30 23 -32 24 -1 2 6 12 17 24 16 17
29 21 73 18 47 -3 54 -6 57 -26 5 -31 22 -17 22 19 0 27 3 29 35 29 39 0 48
17 13 22 -26 3 -37 36 -16 49 7 5 33 9 58 9 33 0 50 -5 63 -20 20 -23 22 -57
5 -62 -21 -7 3 -28 33 -28 27 0 29 -2 19 -20 -12 -22 -36 -27 -43 -7 -2 6 -8
9 -12 5 -16 -15 26 -40 58 -35 18 3 26 3 20 0 -7 -2 -13 -15 -13 -28 0 -13 6
-25 13 -28 10 -4 10 -7 0 -18 -7 -7 -13 -28 -13 -46 l0 -33 54 0 c54 0 80 -12
51 -24 -19 -7 -19 -31 1 -61 15 -23 15 -25 0 -31 -9 -3 -16 -15 -16 -26 0 -13
-5 -18 -14 -15 -10 4 -13 1 -10 -8 8 -20 -30 -53 -70 -61 -35 -6 -36 -5 -36
25 0 20 -5 31 -14 31 -8 0 -17 7 -20 16 -3 8 -11 12 -17 8 -9 -5 -7 -11 4 -19
10 -7 17 -26 17 -42 0 -60 71 -85 108 -38 17 21 21 23 32 10 16 -19 22 -19 48
4 17 14 22 30 22 68 0 33 5 55 15 63 24 20 16 94 -9 98 -24 5 -46 26 -46 45 0
7 -11 24 -25 37 -15 14 -25 35 -25 51 0 14 -7 32 -15 39 -8 7 -15 18 -15 24 0
7 -11 23 -25 36 -14 13 -25 29 -25 37 0 7 -13 27 -29 43 -23 25 -36 30 -75 30
-55 0 -86 -25 -86 -70 l0 -30 -68 0 c-64 0 -70 -2 -98 -31 -19 -21 -25 -33
-16 -36 6 -3 12 -13 12 -23 0 -9 7 -23 15 -30 10 -8 15 -31 15 -66 0 -30 5
-54 10 -54 6 0 10 -16 10 -35 0 -19 -4 -35 -10 -35 -5 0 -10 -14 -10 -30 0
-26 -27 -57 -185 -215 -102 -101 -185 -190 -185 -197 0 -8 -25 -38 -56 -68
-56 -56 -80 -95 -86 -140 -2 -20 -10 -26 -33 -28 -16 -2 -34 -8 -39 -13 -26
-25 -66 4 -66 47 0 15 10 38 22 51 20 22 20 24 4 42 -17 19 -18 18 -62 -25
-42 -42 -44 -47 -44 -102 0 -53 3 -61 33 -90 20 -20 43 -32 59 -32 15 0 30 -4
33 -10 3 -5 19 -10 34 -10 18 0 35 -9 47 -25 10 -14 26 -25 35 -25 8 0 26 -11
39 -25 13 -14 32 -25 42 -25 10 0 18 -4 18 -10 0 -5 8 -10 19 -10 10 0 24 -7
31 -15 10 -13 51 -15 254 -15 l242 0 33 35 c33 35 51 44 51 25 0 -6 36 -10 89
-10 87 0 90 1 120 31 17 17 31 37 31 45 0 20 14 17 35 -6 15 -17 31 -20 96
-20 43 0 81 5 84 10 3 6 19 10 34 10 16 0 37 10 51 25 13 14 28 25 34 25 6 0
36 26 68 57 l58 57 0 62 c0 57 2 63 23 66 20 3 22 9 25 76 2 39 7 72 12 72 6
0 10 57 10 139 0 83 4 142 10 146 6 4 10 64 10 146 0 115 3 141 15 145 13 5
15 42 15 245 0 153 4 239 10 239 6 0 10 -86 10 -239 0 -203 2 -240 15 -245 12
-4 15 -30 15 -145 0 -82 4 -142 10 -146 6 -4 10 -63 10 -146 0 -86 4 -139 10
-139 6 0 10 -30 10 -70 0 -54 4 -72 15 -76 10 -4 15 -20 15 -49 0 -30 6 -47
21 -61 12 -10 25 -29 30 -41 5 -13 14 -23 22 -23 7 0 28 -16 47 -35 19 -19 40
-35 48 -35 8 0 25 -11 38 -25 13 -14 30 -25 38 -25 8 0 18 -4 21 -10 3 -5 41
-10 84 -10 63 0 81 4 94 18 22 24 23 105 2 122 -8 7 -15 20 -15 30 0 19 -30
50 -49 50 -13 0 -91 72 -91 83 0 3 10 7 23 9 l22 3 3 253 c1 156 6 252 12 252
6 0 10 89 10 240 0 153 -4 240 -10 240 -6 0 -10 50 -10 129 0 76 4 132 10 136
6 4 10 55 10 120 0 65 -4 116 -10 120 -5 3 -10 42 -10 86 0 62 -3 81 -15 85
-10 4 -15 20 -15 50 0 36 3 44 19 44 10 0 24 7 31 15 7 8 24 15 38 15 28 0
112 73 112 98 0 13 23 42 34 42 3 0 6 -13 6 -29 0 -16 7 -34 15 -41 9 -7 15
-29 15 -51 0 -21 5 -41 10 -44 6 -3 10 -46 10 -94 0 -85 1 -88 33 -119 39 -38
93 -44 121 -13 16 18 16 20 -18 53 -35 34 -36 37 -36 110 0 55 -4 79 -15 88
-11 9 -15 33 -15 86 0 40 -4 76 -10 79 -5 3 -10 19 -10 34 0 16 -10 37 -25 51
-14 13 -25 30 -25 38 0 8 -16 29 -35 48 -42 39 -43 53 -10 84 15 14 25 35 25
51 0 15 5 31 10 34 6 4 10 55 10 120 0 65 -4 116 -10 120 -5 3 -10 14 -10 25
0 10 -7 20 -15 24 -8 3 -15 13 -15 23 0 10 -39 57 -87 105 -65 66 -94 88 -114
88 -14 0 -36 11 -49 25 -20 21 -32 25 -85 25 -34 0 -66 5 -73 12 -23 23 -25
-2 -2 -27 20 -22 21 -25 7 -39 -9 -9 -22 -16 -31 -16 -8 0 -18 -4 -21 -10 -3
-5 -20 -10 -36 -10 -17 0 -32 -6 -35 -15 -5 -12 -28 -15 -119 -15 -96 0 -114
3 -128 18 -10 10 -17 26 -17 35 0 9 -4 17 -10 17 -5 0 -10 8 -10 18 0 10 -11
29 -25 42 -17 16 -22 27 -15 34 5 5 10 17 10 25 0 11 -4 11 -20 -4 -17 -16
-21 -16 -35 -2 -22 23 -19 27 20 27 24 0 35 5 35 15 0 9 -9 15 -23 15 -13 0
-32 9 -44 19 -11 10 -28 21 -39 23 -10 2 -25 16 -34 33 -8 16 -21 35 -27 43
-7 7 -13 20 -13 28 0 8 -4 14 -10 14 -5 0 -10 14 -10 30 0 17 -4 39 -10 50 -5
11 -14 29 -20 40 -5 11 -10 38 -10 59 0 22 5 43 10 46 6 3 10 19 10 35 0 16 5
32 10 35 6 3 10 20 10 36 0 23 6 32 28 40 15 7 22 13 15 16 -22 8 -15 21 42
78 39 38 64 55 82 55 14 0 33 8 42 18 24 27 80 52 118 52 18 0 33 5 33 10 0 6
10 10 23 10 24 0 57 31 57 55 0 8 11 17 25 21 21 5 25 12 25 40 0 19 2 34 4
34 2 0 20 -16 39 -35 24 -24 33 -41 30 -55 -6 -22 45 -80 70 -80 8 0 20 -7 27
-15 7 -8 21 -15 31 -15 11 0 19 -4 19 -10 0 -5 13 -10 28 -10 15 0 32 -4 38
-9 5 -5 18 -11 29 -13 18 -3 19 -10 16 -85 -2 -68 0 -83 14 -91 26 -14 34
-176 11 -220 -9 -17 -16 -40 -16 -52 0 -11 -4 -20 -10 -20 -5 0 -10 -7 -10
-15 0 -18 -133 -155 -150 -155 -6 0 -20 -9 -32 -20 -12 -11 -32 -20 -45 -20
-14 0 -23 -6 -23 -15 0 -12 14 -15 64 -15 44 0 67 5 76 15 7 8 25 15 41 15 15
0 31 5 34 10 3 6 15 10 26 10 11 0 22 7 25 15 4 9 19 15 36 15 21 0 39 10 62
35 19 19 39 35 47 35 7 0 26 12 41 27 25 23 28 34 28 86 0 59 0 60 -20 42 -10
-9 -26 -15 -35 -12 -13 5 -15 34 -15 194 l0 188 -25 19 c-21 16 -25 27 -25 71
0 42 -5 56 -25 75 -14 13 -25 32 -25 42 0 10 -4 18 -10 18 -5 0 -10 8 -10 18
0 23 -150 172 -173 172 -9 0 -17 5 -17 10 0 6 -13 10 -29 10 -16 0 -34 7 -41
15 -7 8 -21 15 -31 15 -10 0 -21 5 -24 10 -4 6 -60 10 -136 10 -79 0 -129 -4
-129 -10z m54 -35 c3 -8 12 -15 20 -15 9 0 13 6 10 14 -9 22 34 8 51 -17 10
-15 12 -24 4 -32 -7 -7 -13 -5 -19 4 -7 12 -11 12 -24 -2 -9 -8 -16 -21 -16
-28 0 -10 3 -10 12 -1 20 20 58 15 58 -8 0 -13 -7 -20 -19 -20 -11 0 -23 -4
-26 -10 -9 -14 -48 -13 -63 2 -10 10 -17 10 -33 -1 -15 -9 -25 -9 -32 -2 -7 7
-18 2 -35 -16 -22 -24 -26 -25 -37 -10 -7 9 -22 17 -34 17 -11 0 -21 6 -21 13
0 6 -3 23 -7 36 -5 20 -3 22 16 16 14 -4 23 -2 27 9 3 9 15 16 25 16 11 0 22
6 25 13 3 8 18 11 44 9 32 -3 40 -1 40 12 0 20 26 21 34 1z m-184 -1181 c0 -4
18 -25 40 -46 22 -22 40 -48 40 -59 0 -10 4 -19 9 -19 5 0 12 -11 15 -25 4
-16 13 -25 26 -25 13 0 20 -7 20 -20 0 -11 7 -23 15 -26 8 -4 15 -13 15 -22 0
-17 99 -122 116 -122 6 0 17 -7 24 -15 7 -8 20 -15 29 -15 9 0 42 -25 71 -55
61 -61 100 -85 139 -85 15 0 31 -8 38 -19 10 -16 5 -25 -38 -70 -27 -28 -55
-51 -62 -51 -7 0 -47 -31 -88 -70 -74 -70 -74 -70 -134 -72 -82 -2 -83 -2 -97
-16 -6 -6 -22 -12 -35 -12 -13 0 -32 -6 -43 -12 -16 -10 -24 -10 -40 0 -29 18
-139 16 -146 -3 -4 -8 -14 -15 -23 -15 -21 0 -61 -40 -77 -78 -12 -26 -12 -24
-13 24 -1 38 4 56 20 73 32 34 13 39 -21 6 -20 -19 -30 -39 -30 -58 0 -36 -6
-34 -69 26 -39 37 -51 55 -51 77 0 17 -4 30 -10 30 -5 0 -10 16 -10 35 l0 35
54 0 c30 0 58 5 61 10 3 6 37 10 76 10 l69 0 0 -44 c0 -26 -5 -46 -12 -49 -7
-2 -10 -7 -6 -11 3 -4 16 1 27 11 25 21 28 75 6 117 -19 36 -19 90 0 106 9 7
15 29 15 51 0 21 5 41 10 44 30 18 -8 75 -50 75 -14 0 -31 5 -38 12 -9 9 -15
9 -24 0 -16 -16 -36 -15 -54 2 -16 17 -19 56 -4 56 6 0 10 15 10 34 0 21 6 36
16 40 11 4 14 17 12 48 -4 58 -28 63 -28 6 0 -35 -6 -50 -25 -68 -37 -35 -35
-91 5 -130 28 -27 37 -30 95 -30 58 0 65 -2 65 -19 0 -11 -4 -23 -10 -26 -5
-3 -10 -26 -10 -50 0 -29 -5 -45 -15 -49 -10 -4 -15 -20 -15 -51 l0 -45 -54 0
c-30 0 -58 -4 -61 -10 -3 -5 -31 -10 -61 -10 l-54 0 0 183 c0 147 3 190 16
215 8 18 19 34 25 37 5 4 9 13 9 21 0 18 126 145 134 136 3 -3 6 -14 6 -24 0
-26 18 -22 22 4 2 13 11 24 23 27 11 2 30 14 42 27 12 13 27 24 33 24 5 0 10
7 10 15 0 9 5 22 12 29 10 11 15 11 25 0 7 -7 13 -16 13 -20z m802 -181 c43
-43 78 -86 78 -95 0 -10 5 -18 10 -18 6 0 10 -9 10 -19 0 -11 5 -23 10 -26 6
-4 10 -55 10 -121 l0 -114 -29 0 c-17 0 -33 5 -36 10 -3 6 -19 10 -35 10 -16
0 -32 5 -35 10 -3 6 -19 10 -35 10 -16 0 -33 6 -37 14 -4 8 -17 15 -28 17 -17
4 -20 13 -23 72 -4 94 -22 84 -22 -13 0 -87 -13 -108 -49 -76 -10 9 -30 16
-44 16 -15 0 -27 5 -27 10 0 6 -9 10 -19 10 -11 0 -46 27 -79 60 -32 33 -66
60 -74 60 -9 0 -18 7 -22 15 -3 8 -15 15 -26 15 -18 0 -20 6 -20 80 0 47 4 80
10 80 6 0 10 -8 10 -17 0 -22 29 -53 50 -53 10 0 20 -7 24 -15 3 -8 16 -15 30
-15 14 0 31 7 40 15 8 8 21 15 30 15 8 0 18 5 21 10 3 6 18 10 32 10 17 0 43
18 85 60 82 81 92 80 190 -17z m-92 -363 c0 -5 13 -10 29 -10 16 0 34 -7 41
-15 7 -8 22 -15 35 -15 29 0 85 -28 85 -43 0 -16 -168 -187 -183 -187 -7 0
-24 -11 -39 -25 -15 -14 -33 -25 -41 -25 -8 0 -23 -11 -33 -25 -10 -14 -26
-25 -35 -25 -9 0 -22 -7 -29 -15 -7 -8 -20 -15 -29 -15 -9 0 -23 -9 -31 -20
-8 -11 -22 -20 -31 -20 -9 0 -22 -7 -29 -15 -7 -8 -21 -15 -31 -15 -11 0 -19
-4 -19 -10 0 -5 -13 -10 -29 -10 -16 0 -34 -7 -41 -15 -9 -10 -32 -15 -75 -15
-43 0 -66 5 -75 15 -7 8 -19 15 -26 15 -8 0 -14 9 -14 19 0 11 -5 23 -10 26
-15 9 -12 84 4 101 8 8 26 14 39 14 14 0 30 7 37 15 9 11 33 15 88 15 l75 0
68 70 c38 39 74 70 82 70 7 0 50 38 97 85 76 76 120 104 120 75z m187 -212
c18 -18 33 -37 33 -44 0 -6 12 -23 26 -37 17 -18 25 -34 21 -46 -3 -12 2 -26
10 -33 12 -10 14 -29 11 -91 -3 -43 -1 -80 4 -83 4 -3 8 -40 8 -82 0 -65 3
-80 20 -95 11 -9 25 -17 30 -17 6 0 10 -2 10 -4 0 -2 3 -12 6 -20 5 -14 0 -16
-27 -13 -67 7 -69 10 -69 112 0 73 -3 94 -15 99 -10 3 -15 19 -15 45 0 22 -4
43 -10 46 -5 3 -10 19 -10 34 0 15 -9 36 -19 45 -19 17 -21 16 -50 -12 -17
-16 -31 -34 -31 -40 0 -19 -61 -72 -84 -72 -24 0 -82 -25 -91 -39 -2 -5 -15
-6 -28 -4 -14 3 -29 -2 -36 -11 -9 -11 -30 -16 -60 -16 -38 0 -52 5 -71 25
-13 14 -31 25 -41 25 -9 0 -19 9 -22 20 -4 15 4 24 37 40 22 12 59 35 81 50
22 16 46 29 54 30 7 0 22 11 33 25 11 14 26 25 35 25 9 0 26 11 39 25 13 14
29 25 36 25 8 0 40 27 73 60 33 33 64 60 69 60 6 0 25 -14 43 -32z m-855 -135
c12 -11 18 -30 18 -60 0 -23 5 -43 10 -43 6 0 10 -8 10 -17 0 -22 29 -53 50
-53 10 0 23 -7 30 -15 18 -21 117 -20 141 1 19 17 25 16 74 -15 17 -11 38 -20
48 -20 10 -1 17 -9 17 -21 0 -11 7 -23 15 -27 13 -5 14 -8 3 -22 -8 -9 -20
-28 -28 -43 -13 -27 -16 -28 -90 -28 -57 0 -81 4 -90 15 -7 8 -25 15 -41 15
-16 0 -29 5 -29 10 0 6 -9 10 -19 10 -11 0 -23 5 -26 10 -3 6 -14 10 -24 10
-10 0 -27 11 -37 25 -10 14 -26 25 -36 25 -9 0 -20 4 -23 10 -3 5 -21 17 -40
26 -19 9 -35 20 -35 25 0 5 -8 9 -18 9 -11 0 -27 10 -38 21 -10 12 -30 25 -43
31 -18 7 -21 12 -13 20 7 7 12 22 12 35 0 26 32 63 54 63 8 0 18 5 21 10 10
17 106 12 127 -7z m-161 -178 c13 -13 31 -25 39 -25 9 0 22 -9 30 -20 8 -11
22 -20 31 -20 9 0 22 -7 29 -15 7 -8 20 -15 29 -15 9 0 25 -11 35 -25 10 -14
27 -25 37 -25 10 0 21 -4 24 -10 3 -5 15 -10 26 -10 10 0 19 -4 19 -9 0 -5 10
-11 23 -13 21 -3 22 -8 25 -112 l3 -110 -43 -43 c-29 -29 -51 -43 -69 -43 -15
0 -32 -7 -39 -15 -11 -13 -38 -15 -159 -13 -138 3 -146 4 -146 23 0 16 8 21
43 23 35 3 51 11 83 43 21 21 39 45 39 53 0 7 7 19 15 26 13 10 15 33 13 114
l-3 101 -72 3 -73 3 0 79 c0 72 2 80 19 80 10 0 29 -11 42 -25z m754 -100 c0
-30 0 -30 -70 -35 l-70 -5 -3 -107 c-2 -70 1 -108 8 -108 5 0 10 -8 10 -17 0
-10 20 -37 44 -60 37 -36 51 -43 85 -43 37 0 41 -2 41 -25 l0 -25 -134 0
c-106 0 -136 3 -146 15 -7 8 -24 15 -39 15 -18 0 -40 14 -69 43 l-43 44 3 94
3 94 78 3 c70 3 80 6 107 32 17 16 30 38 30 48 0 24 49 51 81 45 16 -3 30 1
39 12 21 25 45 14 45 -20z m-555 -1732 c0 -28 -25 -63 -45 -63 -7 0 -18 -7
-25 -15 -7 -8 -25 -15 -40 -15 -15 0 -35 -9 -45 -20 -15 -17 -31 -20 -99 -20
l-80 0 62 63 c34 34 62 70 62 80 0 15 12 17 105 17 l105 0 0 -27z m561 -13
c43 -43 52 -80 20 -80 -11 0 -23 -4 -26 -10 -3 -5 -31 -10 -61 -10 -30 0 -54
5 -54 10 0 6 -8 10 -17 10 -17 0 -123 97 -123 112 0 4 50 8 111 8 l111 0 39
-40z"/>
<path d="M3143 4476 c-6 -7 -13 -40 -14 -72 -3 -57 -2 -59 22 -59 21 0 24 5
27 38 l3 37 54 0 c30 0 57 -4 60 -10 3 -5 19 -10 35 -10 16 0 31 -4 35 -9 7
-12 64 -41 80 -41 16 0 65 -56 65 -74 0 -8 4 -17 9 -21 15 -9 41 -66 41 -90 0
-13 7 -28 15 -35 8 -7 15 -25 15 -41 0 -15 5 -31 10 -34 6 -3 10 -35 10 -70 0
-35 5 -67 10 -70 7 -4 10 -538 10 -1571 l0 -1564 -114 0 c-89 0 -116 -3 -126
-15 -9 -10 -32 -15 -76 -15 -34 0 -66 -4 -69 -10 -3 -5 -18 -10 -33 -10 -15 0
-38 -12 -54 -27 -39 -38 -39 -98 0 -136 16 -15 40 -27 54 -27 14 0 31 -7 38
-15 9 -10 32 -15 76 -15 34 0 66 -4 69 -10 8 -14 455 -14 455 0 0 6 30 10 70
10 54 0 72 4 76 15 4 9 19 15 36 15 40 0 88 52 88 96 0 39 -54 94 -92 94 -15
0 -30 5 -33 10 -3 6 -35 10 -70 10 -46 0 -66 4 -72 15 -6 10 -31 15 -88 17
l-80 3 -3 1585 c-1 1036 -6 1588 -12 1594 -6 6 -10 38 -10 72 0 42 -5 65 -15
74 -8 7 -15 25 -15 41 0 16 -4 29 -10 29 -5 0 -10 16 -10 35 0 19 -4 35 -10
35 -5 0 -10 8 -10 19 0 10 -7 24 -15 31 -8 7 -15 19 -15 26 0 17 -78 94 -95
94 -7 0 -18 7 -25 15 -7 8 -21 15 -31 15 -11 0 -19 5 -19 10 0 6 -13 10 -29
10 -17 0 -33 5 -36 10 -10 15 -168 12 -182 -4z m483 -3761 c3 -19 4 -44 1 -55
-3 -14 1 -24 15 -31 36 -19 48 -4 48 61 l0 60 75 0 c58 0 77 -4 81 -15 5 -11
23 -15 74 -15 38 0 72 -4 75 -10 3 -5 17 -10 31 -10 14 0 34 -9 45 -19 l20
-19 -22 -21 c-13 -12 -35 -21 -50 -21 -15 0 -29 -5 -31 -11 -2 -7 -31 -13 -66
-15 -35 -1 -68 -7 -75 -13 -8 -6 -94 -10 -226 -10 -170 -1 -215 2 -227 13 -9
10 -32 13 -75 11 -45 -2 -62 1 -66 11 -3 8 -18 14 -35 14 -16 0 -36 7 -45 16
-13 13 -14 19 -3 40 11 19 21 24 52 24 21 0 38 5 38 10 0 6 30 10 70 10 56 0
70 3 70 15 0 12 19 15 110 15 l109 0 7 -35z"/>
<path d="M3088 3984 c-5 -4 -8 -16 -8 -26 0 -10 -4 -18 -10 -18 -14 0 -12 -46
3 -58 6 -6 28 -12 47 -14 27 -2 36 -8 38 -25 2 -13 8 -23 13 -23 5 0 9 -27 9
-60 0 -33 4 -60 10 -60 6 0 10 -11 10 -25 0 -14 -4 -25 -10 -25 -5 0 -33 23
-62 52 -51 50 -52 53 -50 105 1 43 -2 54 -18 63 -24 13 -37 -4 -20 -25 10 -12
10 -22 0 -45 -16 -38 -30 -39 -30 -1 0 17 -4 33 -10 36 -6 4 -10 -8 -10 -29 0
-20 5 -36 10 -36 6 0 10 -10 10 -23 0 -21 46 -77 63 -77 12 0 7 28 -5 33 -7 2
-9 8 -5 13 8 8 57 -41 57 -57 0 -3 -13 -6 -30 -6 -16 0 -33 -3 -37 -7 -12 -12
29 -37 49 -30 21 6 24 -9 4 -25 -19 -16 -66 23 -66 55 0 23 -16 41 -27 31 -3
-3 -6 -24 -7 -47 -2 -30 2 -44 15 -51 20 -10 14 -49 -8 -49 -26 0 -8 -25 20
-28 23 -3 27 0 27 22 0 19 5 26 20 26 25 0 25 -8 3 -33 -17 -18 -17 -19 12
-15 26 3 30 8 33 36 2 17 7 32 12 32 5 0 10 -15 12 -32 2 -25 8 -33 23 -33 17
0 20 8 23 55 2 30 7 59 13 65 12 12 12 75 -1 75 -5 0 -10 24 -10 54 0 30 -4
58 -10 61 -5 3 -10 15 -10 26 0 11 -7 22 -15 25 -8 4 -15 14 -15 23 0 10 -11
28 -24 40 -14 13 -26 32 -28 43 -2 11 -6 16 -10 12z"/>
</g>
</svg>
