<?xml version="1.0"?>
<svg xmlns:rdf="http://www.w3.org/1999/02/22-rdf-syntax-ns#" xmlns="http://www.w3.org/2000/svg" xmlns:cc="http://web.resource.org/cc/" xmlns:dc="http://purl.org/dc/elements/1.1/" xmlns:svg="http://www.w3.org/2000/svg" id="Layer_1" style="enable-background:new 0 0 275.407 196.684" xml:space="preserve" viewBox="0 0 275.407 196.684" version="1.1">
<path id="path3" fill-rule="evenodd" clip-rule="evenodd" d="m110.89 55.219c11.872-1.006 16.06-14.597 23.473-22.068 7.81-7.871 21.321-7.837 26.149 3.115 3.872 8.782 5.909 23.933-1.696 31.259-8.067 7.77-22.881 7.888-33.313 7.888-5.522 0-9.559-2.99-11.792-7.888-0.93-2.034-5.06-11.752-2.82-12.306"/>
<path id="path5" d="m110.89 54.272c7.079-0.475 11.753-6.72 15.468-12.163 2.274-3.332 4.521-6.711 7.379-9.589 1.465-1.476 9.255-8.011 9.418-3.49-7.083 1.134-11.652 9.119-15.498 14.402-4.458 6.125-8.728 11.883-16.768 12.734 0-0.587-0.16-1.334 0-1.894"/>
<path id="path7" d="m142.84 27.136c18.32-3.237 21.615 14.58 21.615 28.901 0 0.593-1.535 0.842-1.88 0.444-0.326-0.376 0-2.299 0-2.84 0-1.798 0.064-3.58-0.156-5.364-0.482-3.896-1.143-7.587-2.516-11.281-2.852-7.672-9.888-8.946-17.063-7.966 0-0.593-0.15-1.324 0-1.894"/>
<path id="path9" d="m142.52 27.136c0.045 0.166 0.57 1.722 0.628 1.894-0.21-0.632-0.42-1.262-0.63-1.894"/>
<path id="path11" d="m164.45 56.481c0.637 8.453-6.681 14.062-13.784 16.724-3.927 1.472-8.332 2.111-12.483 2.49-2.307 0.21-11.6 2.189-13.515 0.664-2.666-2.124 4.388-1.893 4.641-1.893 2.47 0 4.914-0.315 7.372-0.551 4.016-0.385 8.107-0.84 11.951-2.131 3.904-1.311 8.048-2.883 10.737-6.133 1.363-1.648 2.017-3.019 2.573-5.069 0.49-1.841-0.06-4.855 2.5-4.101"/>
<path id="path13" d="m164.45 56.481h-1.88 1.88"/>
<path id="path15" d="m124.67 76.359c-3.881-0.41-6.767-1.765-9.554-4.574-1.57-1.583-5.907-9.193-2.037-9.308 0.722 3 1.551 6.666 4.053 8.766 1.11 0.932 2.346 2.073 3.779 2.436 1.83 0.461 4.46 0.154 3.76 2.68"/>
<path id="path17" d="m124.67 76.359v-1.893 1.893"/>
<path id="path19" d="m111.2 63.107c0.021-1.728-4.73-8.954-0.313-8.835-0.08 0.87 0.029 1.453-0.313 1.894 0.72 1.456 4.23 6.812 0.62 6.941"/>
<path id="path21" d="m113.08 62.477c-0.626 0.21-1.253 0.42-1.88 0.631 0.63-0.211 1.25-0.421 1.88-0.631"/>
<path id="path23" d="m110.89 54.272v1.894-1.894"/>
<path id="path25" fill-rule="evenodd" clip-rule="evenodd" d="m162.26 45.753c1.948-8.721 9.835-22.335 20.267-16.022 8.201 4.964 15.049 15.139 11.219 24.763-3.873 9.73-15.809 10.981-24.757 10.081-5.53-0.557-8.867-2.045-12.692-5.896-2.878-2.896-0.631-2.898 1.206-5.541 1.61-2.331 3.99-4.61 4.75-7.385"/>
<path id="path27" d="m161.32 45.437c1.811-2.934 2.254-6.722 4.266-9.762 2.292-3.462 4.489-6.621 8.574-7.908 3.53-1.112 6.305-0.42 9.491 1.508 1.852 1.12 8.842 6.64 5.858 8.273-3.568-4.58-9.599-10.78-15.976-7.888-5.421 2.458-9.179 10.961-10.336 16.407-0.57-0.194-1.36-0.289-1.87-0.63"/>
<path id="path29" d="m190.76 36.287c1.548 1.773 8.104 11.989 3.622 11.989-0.197 0-1.205-4.942-1.742-5.994-0.87-1.716-4.46-4.609-1.88-5.995"/>
<path id="path31" d="m190.76 36.287c-0.417 0.42-0.835 0.841-1.252 1.262 0.42-0.421 0.84-0.841 1.25-1.262"/>
<path id="path33" d="m195.78 48.276c0.342 4.237-1.968 9.537-5.313 12.061-1.1 0.829-13.169 8.018-13.169 4.803 0-2.386 3.613-1.327 5.64-2.349 2.375-1.197 4.159-2.121 6.274-3.717 1.807-1.363 3.284-3.94 4.063-6.065 0.67-1.831-0.32-5.562 2.51-4.733"/>
<path id="path35" d="m195.78 48.276h-1.879 1.88"/>
<path id="path37" d="m177.29 65.631c-5.57 0-10.081-0.581-15.44-1.659-2.352-0.474-10.583-6.758-6.487-8.438 0.91 3.841 5.684 6.566 9.214 7.356 2.068 0.463 4.13 0.849 6.26 0.849 2.06-0.001 7.38-1.374 6.46 1.892"/>
<path id="path39" d="m177.29 65.631v-1.893 1.893"/>
<path id="path41" d="m153.8 55.534c2.729-2.749 6.442-6.268 7.52-10.097 0.511 0.032 1.46 0.338 1.878 0.631-0.98 1.971-7.38 13.238-9.4 9.466"/>
<path id="path43" d="m153.8 56.797c-0.209-0.315-0.419-0.631-0.628-0.947 0.799 0.228 0.972-0.142 1.88 0.947 0.104-0.421 0.208-0.842 0.313-1.263-0.5 0.412-1.11 0.784-1.56 1.263"/>
<path id="path45" d="m163.2 46.068c-0.626-0.21-1.252-0.42-1.878-0.631 0.63 0.21 1.25 0.42 1.88 0.631"/>
<path id="path47" fill-rule="evenodd" clip-rule="evenodd" d="m194.21 55.219c7.544-9.529 17.061-11.36 28.772-11.36 10.395 0 21.977 1.194 30.742 7.258 19.354 13.389 20.676 40.753 20.676 61.958 0 11.383-10.033 20.48-21.3 20.398-11.177-0.082-17.919-8.848-23.941-17.249-3.065-4.276-6.651-9.566-11.236-12.342-4.868-2.948-10.21-4.77-15.45-6.944-9.375-3.89-22.044-9.549-22.044-21.618 0-10.378 6-14.448 13.78-20.109"/>
<path id="path49" d="m193.58 54.588c3.247-4.074 6.423-7.087 11.277-9.151 2.203-0.937 13.126-4.529 15.036-2.523 2.186 2.295-4.552 2.026-5.638 2.208-2.674 0.449-5.217 1.08-7.833 1.736-4.698 1.179-8.84 5.185-11.587 8.993-0.39-0.395-0.98-0.786-1.26-1.263"/>
<path id="path51" d="m219.9 42.914c9.075 0 17.686 0.659 26.312 3.47 4.457 1.453 8.754 3.77 12.071 7.111 1.652 1.663 9.188 8.436 5.473 9.927-4.649-7.8-11.047-13.065-19.735-15.776-3.886-1.212-7.729-1.915-11.753-2.319-2.224-0.224-4.453-0.52-6.688-0.52-1.98-0.001-6.59 1.181-5.68-1.893"/>
<path id="path53" d="m219.9 42.914v1.893-1.893"/>
<path id="path55" d="m265.32 62.16c3.83 8.099 6.894 15.94 8.727 24.723 0.586 2.81 2.108 26.395 0.811 26.395-2.527 0-1.393-3.523-1.393-5.688 0-2.456-0.159-4.905-0.275-7.358-0.208-4.36-0.26-8.825-0.976-13.142-1.415-8.533-4.818-16.377-8.773-23.981 0.56-0.291 1.24-0.834 1.87-0.947"/>
<path id="path57" d="m265.32 62.16c-0.632 0.304-1.254 0.632-1.88 0.947 0.105 0.105 0.21 0.209 0.315 0.314 0.51-0.42 1.04-0.834 1.56-1.261"/>
<path id="path59" d="m275.34 113.28c0.594 5.083-2.896 11.753-6.578 15.146-1.374 1.266-15.661 8.557-15.661 5.504 0-2.035 0.705-1.229 2.447-1.483 1.715-0.249 3.256-0.781 4.896-1.333 2.745-0.924 4.667-2.312 6.751-4.266 1.962-1.839 3.98-3.831 4.862-6.486 0.519-1.564 1.051-3.071 1.321-4.699 0.26-1.59-0.41-3.05 1.96-2.38"/>
<path id="path61" d="m275.34 113.28h-1.88 1.88"/>
<path id="path63" d="m253.1 134.42c-9.521 0.611-16.787-6.861-21.928-13.883-2.986-4.08-5.76-8.333-9.34-11.933-1.687-1.695-3.635-3.552-5.695-4.79-1.743-1.048-6.036-1.342-4.072-4.104 9.337 4.272 14.892 11.805 20.867 19.827 2.944 3.951 5.945 7.138 9.841 10.078 1.748 1.319 3.599 1.937 5.72 2.361 1.93 0.38 5.34-0.19 4.6 2.44"/>
<path id="path65" d="m253.1 134.42v-1.891 1.89"/>
<path id="path67" d="m211.44 101.6c-7.233-2.834-14.758-5.206-21.3-9.467-3.332-2.17-5.855-5.03-8.214-8.192-0.764-1.024-3.582-9.793-1.948-9.793 2.303 0 1.044 1.436 1.489 3.234 0.482 1.947 1.1 3.552 2.095 5.285 1.849 3.22 4.329 5.842 7.519 7.888 3.171 2.034 6.775 3.702 10.251 5.144 1.982 0.822 3.943 1.727 5.979 2.41 1.88 0.634 6.04 0.804 4.13 3.491"/>
<path id="path69" d="m212.07 99.709c-0.209 0.632-0.419 1.263-0.628 1.895 0.21-0.63 0.42-1.26 0.63-1.891"/>
<path id="path71" d="m179.49 74.152c-0.281-4.438 1.256-8.368 4.071-11.675 1.557-1.829 3.114-2.791 4.971-4.246 1.643-1.287 5.005-5.686 6.308-2.38-3.444 2.505-7.527 4.865-10.271 8.184-1.493 1.806-2.196 3.159-2.656 5.478-0.38 1.932 0.21 5.379-2.42 4.639"/>
<path id="path73" d="m179.49 74.152h1.879-1.88"/>
<path id="path75" d="m194.84 55.85c-0.501-0.555-1.04-0.918-1.256-1.578 0.42 0.526 0.85 1.045 1.26 1.578"/>
<path id="path77" fill-rule="evenodd" clip-rule="evenodd" d="m146.6 72.258c-3.791-0.636-7.138-1.982-10.871-0.479-1.973 0.794-4.646 0.77-3.467 3.144 1 2.016 2.133 3.884 3.688 5.54 5.334 5.682 14.232 8.884 18.169 15.776 0.418-1.62 2.506-2.948 2.506-4.733 0-2.826-0.671-4.777-2.506-6.942-3.675-4.335-9.832-5.685-15.038-7.257 2.4-1.977 4.58-3.934 7.52-5.049"/>
<path id="path79" d="m146.6 73.205c-2.222-0.304-8.282-0.462-7.52-3.157 2.622 0.358 5.208 0.95 7.834 1.263-0.1 0.59-0.07 1.355-0.31 1.894"/>
<path id="path81" d="m139.08 71.942c-2.396-0.006-5.035 1.569-7.203 2.524-1.543-2.277 1.307-2.774 3.133-3.471 1.57-0.601 4.98-2.234 4.07 0.947"/>
<path id="path83" d="m139.08 70.048v1.894-1.894"/>
<path id="path85" d="m132.5 73.205c1.061 5.011 6.311 9.058 10.254 11.838 2.036 1.437 14.647 9.732 10.73 11.827-6.733-8.608-18.851-12.291-22.865-23.034 0.58-0.194 1.28-0.606 1.88-0.631"/>
<path id="path87" d="m131.25 72.573c-0.633 0.471-1.301 0.189-0.625 1.263 0.563-0.299 1.361-0.268 1.88-0.631-0.209 0.42-0.418 0.841-0.628 1.261-0.2-0.614-0.52-1.256-0.62-1.893"/>
<path id="path89" d="m153.17 95.924c0.429-1.918 2.761-3.107 2.508-5.05 4.473-0.59-0.532 4.322-0.628 5.681-0.58-0.194-1.38-0.286-1.88-0.631"/>
<path id="path91" d="m153.49 96.87c0.309 0.571 0.849 1.068 1.254 1.578 0.726-1.521 0.11-2.461-1.567-2.523 0.481-0.161 1.062-0.269 1.567-0.316-0.41 0.412-0.79 0.904-1.25 1.261"/>
<path id="path93" d="m155.68 91.19c0.741-8.413-10.813-11.093-16.917-12.937 0.088-4.331 11.411 1.995 13.458 3.542 1.832 1.384 2.809 2.526 4.155 4.335 1.1 1.479 2.53 5.969-0.7 5.06"/>
<path id="path95" d="m157.56 91.19c-0.828 0.02-1.523 0.152-1.88-0.316 0.63 0.105 1.26 0.195 1.88 0.316"/>
<path id="path97" d="m138.46 76.675c2.534-2.089 4.992-3.73 7.829-5.364 1.73 2.532-1.486 2.706-3.131 3.786-1.53 0.999-3.31 4.204-4.7 1.578"/>
<path id="path99" d="m138.76 78.253c-0.528-0.091-1.067-0.43-1.567-0.631 0.887-1.161 1.831-0.956 2.508 0.315-0.047-0.509-0.153-1.093-0.313-1.578-0.2 0.623-0.49 1.252-0.63 1.894"/>
<path id="path101" d="m146.91 73.205c0.939-0.421 1.88-0.842 2.819-1.263-0.939-0.21-1.88-0.42-2.819-0.631-0.057 0.607-0.379 1.292-0.314 1.894-0.125-0.621-0.255-1.264-0.313-1.894 0.2 0.631 0.43 1.257 0.62 1.894"/>
<path id="path103" fill-rule="evenodd" clip-rule="evenodd" d="m155.37 93.083c-4.965 1.504-7.123 6.944-7.516 11.673-0.159 1.918 0.493 3.852-1.566 4.893-2.031 1.026-4.528 1.128-6.753 1.502-5.447 0.917-10.958 4.263-16.185 6.142-5.069 1.822-9.483 4.569-12.459 9.08-2.096 3.177-1.251 9.104-1.251 12.739v25.822c0 4.162-1.241 10.422 1.008 14.197 2.824 4.74-0.925 8.845-4.048 11.991-1.761 1.773-4.328 2.75-6.358 4.194h14.87c1.901 0 0.985-0.042 1.732-1.578 1.68-3.454 0.553-7.957 0.128-11.512-1.788-14.952-3.576-29.904-5.363-44.856-1.288-10.77 14.444-14.774 21.808-17.246 10.534-3.535 20.704-6.276 20.704-19.073 0.01-2.646 0.41-5.441 1.26-7.957"/>
<path id="path105" d="m155.68 94.029c-3.146 1.146-4.569 3.21-6.022 6.136-0.446 0.897-0.923 9.149-2.748 6.804-1.069-1.374 0.892-7.461 1.564-8.837 1.353-2.767 3.841-4.72 6.578-5.995 0.2 0.598 0.6 1.287 0.63 1.901"/>
<path id="path107" d="m148.79 106.97c0.741 5.439-8.94 4.52-11.904 5.994-2.5-3.578 5.287-2.635 6.984-3.32 1.79-0.72 3.35-3.13 4.92-2.67"/>
<path id="path109" d="m148.79 106.97h-1.88 1.88"/>
<path id="path111" d="m136.89 112.96c-5.968 2.576-12.227 4.579-18.029 7.503-2.736 1.38-4.805 3.259-6.705 5.654-1.512 1.905-0.483 6.904-3.458 6.089 1.038-6.249 3.107-10.723 9.368-13.419 6.05-2.605 12.326-4.764 18.196-7.722 0.18 0.59 0.59 1.29 0.62 1.9"/>
<path id="path113" d="m136.26 111.07c0.209 0.632 0.418 1.263 0.628 1.895l-0.63-1.89"/>
<path id="path115" d="m110.58 132.21v38.854c0 0.626 0.805 7.589-1.88 5.323-0.676-0.57 0-6.057 0-6.902v-31.952c0-1.8-1.2-6.35 1.88-5.32"/>
<path id="path117" d="m108.7 132.21h1.88-1.88"/>
<path id="path119" d="m110.58 176.07c0.037 0.699 3.432 9.01 0 6.629-0.428-0.297-0.536-2.69-0.871-3.25-0.91-1.51-1.74-3.31 0.87-3.38"/>
<path id="path121" d="m108.7 176.39c0.059-0.004 1.201 0.062 1.88-0.318-0.37 0.48-1.05 0.31-1.88 0.32"/>
<path id="path123" d="m112.46 182.7c0.133 3.556-2.135 6.897-5.013 8.833-1.761 1.184-6.465 5.751-7.831 3.155 2.646-1.903 5.385-3.648 7.923-5.692 2-1.61 2.57-6.99 4.92-6.29"/>
<path id="path125" d="m112.46 182.7h-1.879 1.88"/>
<path id="path127" d="m100.24 194.37h9.252c0.607 0 9.514-0.805 7.037 1.893-0.867 0.944-7.953 0-9.252 0-1.93 0-8.105 1.43-7.04-1.89"/>
<path id="path129" d="m99.611 194.69c-0.731 0.526-1.461 1.052-2.192 1.578 1.758 0 3.514 0.556 2.819-1.893 0.247 0.492 0.464 1.05 0.625 1.576-0.41-0.43-0.874-0.82-1.249-1.27"/>
<path id="path131" d="m115.59 195c0.415-2.099 0.974-4.192 1.253-6.313 3.259 0.089 0.905 4.847 0.626 6.941-0.59-0.19-1.37-0.29-1.88-0.63"/>
<path id="path133" d="m116.53 196.26h0.939c-0.532-0.536-0.569-1.012-1.88-1.26 0.313-0.211 0.627-0.422 0.941-0.633 0 0.61 0.12 1.3 0 1.89"/>
<path id="path135" d="m116.84 189.01c0.54 0.169 1.307 0 1.879 0-1.11-9.283-2.22-18.566-3.331-27.85-0.708-5.916-1.415-11.833-2.123-17.75-0.227-1.898 0.45-7.842-2.69-6.781 2.08 17.46 4.17 34.92 6.26 52.38"/>
<path id="path137" d="m118.72 189.32c-0.166-0.045-1.708-0.57-1.879-0.629 0.63 0.21 1.25 0.42 1.88 0.63"/>
<path id="path139" d="m110.58 136.31c0.612-11.171 14.618-14.481 23.004-17.297 4.655-1.563 9.818-2.635 13.958-5.424 2.11-1.422 3.74-3.324 4.698-5.678 0.493-1.21 0.938-2.212 0.938-3.566 0-1.483 1.88-1.707 1.88-0.677 0 22.665-40.937 11.788-42.6 33.274-0.59-0.18-1.38-0.28-1.88-0.62"/>
<path id="path141" d="m110.58 136.63c0.059 0.004 1.2-0.063 1.879 0.318-0.37-0.49-1.05-0.31-1.88-0.32"/>
<path id="path143" d="m153.17 103.18c-0.106-3.472 0.215-7.098 1.254-10.412 3.228 0.13 0.874 3.398 0.626 5.364-0.23 1.868 1.23 5.948-1.88 5.048"/>
<path id="path145" d="m155.05 103.18h-1.88 1.88"/>
<path id="path147" d="m156.31 93.398c0.309-0.67 0.425-1.497 0.627-2.208-1.739 0.315-2.256 1.371-1.252 2.839-0.441-0.364-0.892-0.819-1.254-1.262 0.61 0.209 1.27 0.361 1.87 0.631"/>
<path id="path149" fill-rule="evenodd" clip-rule="evenodd" d="m187.32 67.209c-2.306-1.161-4.191-2.524-6.773-2.524-1.503 0-9.232-0.856-9.678 0.491-0.687 2.072-2.344 4.214-2.344 6.451 0 3.08 2.668 3.551 5.012 4.733 9.341 4.71 7.336 22.679 2.7 29.68-2.912 4.399-6.683 8.201-9.591 12.602-3.244 4.906-3.179 10.038-2.555 15.647 0.586 5.276 3.901 10.083 6.451 14.574 3.004 5.293 5.34 10.058 6.654 16.034 2.559 11.634-10.902 15.619-17.442 22.214 9.667-2.996 23.806-4.966 23.806-17.575 0-11.901-10.533-19.744-15.467-29.673-1.74-3.502-4.531-9.394-3.171-13.491 1.506-4.535 7.024-5.248 9.867-8.677 8.282-9.989 7.519-22.062 7.519-34.205v-9.735c-0.01-1.741 3.87-5.112 5-6.531"/>
<path id="path151" d="m187 68.156c1.911-2.633-2.538-3.489-4.383-4.418-1.91 2.633 2.54 3.489 4.38 4.418"/>
<path id="path153" d="m171.03 63.738h6.69c0.707 0 6.722-0.728 4.587 1.893-0.523 0.643-5.831 0-6.69 0-1.85 0-5.52 1.077-4.59-1.893"/>
<path id="path155" d="m182.62 63.738c-0.045 0.165-0.571 1.721-0.629 1.893 0.21-0.631 0.43-1.261 0.63-1.893"/>
<path id="path157" d="m171.97 65c-0.26 0.952-2.524 7.257-2.995 7.257-3.218 0 0.512-5.914 1.115-7.888 0.57 0.196 1.37 0.289 1.87 0.631"/>
<path id="path159" d="m171.03 63.738c-0.516 0.137-0.791-0.092-0.939 0.631 0.644 0.084 1.237 0.532 1.88 0.631-0.313 0.21-0.627 0.42-0.94 0.631 0-0.605-0.12-1.303 0-1.893"/>
<path id="path161" d="m169.46 72.258c0.015 2.225 8.451 3.539 4.698 5.679-2.472-2.01-5.909-1.977-6.578-5.679 0.59 0 1.32-0.145 1.88 0"/>
<path id="path163" d="m167.58 72.258h1.88-1.88"/>
<path id="path165" d="m175.42 76.675c2.105 2.475 3.942 5.313 4.698 8.519 0.334 1.418 1.396 9.782 0.141 9.782-2.306 0-1.393-1.989-1.393-4.047 0-1.742-0.197-3.729-0.628-5.419-0.469-1.842-1.422-3.499-2.261-5.189-0.75-1.487-2.85-2.397-0.56-3.646"/>
<path id="path167" d="m175.42 76.675c0.416-0.362-0.93 0.9-1.254 1.262 0.41-0.42 0.83-0.841 1.25-1.262"/>
<path id="path169" d="m180.74 94.976c0 7.585-4.349 12.147-8.615 17.878-2.093 2.812-4.3 5.617-5.863 8.767-0.837 1.687-1.013 3.146-1.498 4.908-0.083 0.302-0.214 2.449-0.313 2.527-0.437 0.346-1.88 0.169-1.88-0.409 0-7.061 4.643-12.136 8.614-17.473 2.251-3.024 4.175-5.864 6.226-8.961 1.37-2.07 0.45-8.085 3.33-7.244"/>
<path id="path171" d="m180.74 94.976h-1.88 1.88"/>
<path id="path173" d="m164.45 129.06c0.831 7.546 3.336 12.662 7.029 19.175 0.95 1.675 9.615 19.948 6.265 19.948-2.305 0-1.225-2.157-1.705-4.102-0.416-1.684-0.835-3.366-1.253-5.049-0.851-3.416-3.456-6.804-5.187-9.853-3.813-6.722-6.26-12.357-7.029-20.12 0.58-0.01 1.33-0.17 1.88-0.01"/>
<path id="path175" d="m162.57 129.06h1.88-1.88"/>
<path id="path177" d="m178.23 168.18c1.127 9.505-12.439 14.092-17.854 19.564-2.602-1.467 1.35-3.945 2.819-5.047 2.224-1.666 4.735-3.076 7.046-4.628 1.806-1.213 3.875-2.858 4.857-4.84 0.93-1.88 0.66-5.76 3.12-5.04"/>
<path id="path179" d="m178.23 168.18h-1.88 1.88"/>
<path id="path181" d="m159.44 186.17c4.551-1.359 12.427-2.377 16.299-5.296 1.811-1.364 4.26-2.363 5.313-4.487 0.977-1.968 1.206-6.311 3.445-5.68-0.771 5.824-3.122 9.752-8.736 12.109-2.694 1.131-5.362 2.045-8.154 2.909-2.08 0.65-8.07 4.11-8.17 0.45"/>
<path id="path183" d="m159.13 186.48c0.287 0.539 0.626 1.054 0.938 1.578-0.238-0.618-0.385-1.272-0.623-1.891 0.337 0.503 0.653 1.042 0.938 1.576-0.43-0.43-0.87-0.83-1.26-1.27"/>
<path id="path185" d="m182.62 170.7c0.627-8.285-5.049-15.275-9.624-21.564-2.717-3.733-5.625-7.542-7.293-11.883-0.714-1.859-1.114-3.723-1.499-5.668-0.148-0.749-0.816-6.098 1.499-3.799 0.455 0.452 0.502 4.847 0.579 5.551 0.218 1.979 1.283 4.085 2.241 5.809 2.15 3.868 4.754 7.394 7.354 10.966 2.617 3.596 5.124 6.933 6.742 11.122 0.73 1.9 3.74 10.52 0 9.46"/>
<path id="path187" d="m184.5 170.7h-1.878 1.88"/>
<path id="path189" d="m163.82 127.79c-0.471-5.948 7.202-7.084 10.337-10.729 3.533 1.925-4.015 5.395-5.417 6.241-2 1.22-2.88 5.12-4.92 4.49"/>
<path id="path191" d="m163.82 127.79h1.88-1.88"/>
<path id="path193" d="m174.16 117.06c3.792-5.384 5.636-11.031 7.206-17.354 4.934 0.109-4.248 16.214-5.952 18.617-0.4-0.39-0.98-0.78-1.26-1.26"/>
<path id="path195" d="m175.42 118.33c-0.418-0.421-0.836-0.843-1.254-1.264 0.41 0.41 0.83 0.83 1.25 1.26"/>
<path id="path197" d="m181.37 73.52c3.508-1.144 1.88 8.984 1.88 11.054v10.454c0 0.606 0.485 4.595 0 5-2.786 2.325-1.88-10.037-1.88-11.054v-15.456"/>
<path id="path199" d="m183.25 100.34c-0.167-0.045-1.708-0.571-1.88-0.631 0.63 0.21 1.25 0.421 1.88 0.631"/>
<path id="path201" d="m181.68 72.889c0.271 0.477 0.862 0.87 1.252 1.263 1.326-1.67 6.616-5.979 3.76-7.574-1.67 2.104-3.34 4.207-5.01 6.311"/>
<path id="path203" d="m181.37 73.52c0.161-0.175-0.008-0.439 0.313-0.631 0.409 0.372 0.959 0.797 1.252 1.263 0.105-0.211 0.21-0.421 0.315-0.632-0.62 0-1.25 0.024-1.87 0"/>
<path id="path205" d="m187.94 67.84c0.313-0.315 0.626-0.63 0.938-0.945-0.417-0.211-0.834-0.421-1.251-0.632-0.131 0.629-0.591 1.257-0.628 1.894-0.16-0.485-0.267-1.069-0.313-1.578 0.41 0.413 0.9 0.799 1.25 1.261"/>
<path id="path207" fill-rule="evenodd" clip-rule="evenodd" d="m30.385 138.52c10.242-7.974 20.318-16.326 32.265-21.459-6.381-0.412-12.944 3.64-17.856 7.26-5.379 3.97-11.202 8.16-14.409 14.2"/>
<path id="path209" d="m29.757 137.89c10.045-7.814 20.491-17.285 32.578-21.771 1.817 2.6-4.329 3.855-6.285 5.166-3.065 2.055-6.186 3.896-9.188 6.058-2.949 2.122-5.898 4.243-8.847 6.364-1.789 1.28-6.661 7.14-8.258 4.18"/>
<path id="path211" d="m62.65 118.01c-6.053-0.358-12.616 3.537-17.283 7.061-4.875 3.681-11.602 7.884-14.042 13.766-0.534-0.104-1.477-0.58-1.879-0.947 4.476-5.742 9.157-9.993 14.981-14.395 1.976-1.5 19.696-10.69 18.223-5.49"/>
<path id="path213" d="m62.962 118.01c-0.081-0.633-0.208-1.263-0.313-1.893 0.023 0.63-0.022 1.263 0 1.893-0.125-0.624-0.233-1.262-0.315-1.893 0.21 0.63 0.441 1.25 0.628 1.89"/>
<path id="path215" d="m29.446 137.89c0.511 0.433 1.045 0.842 1.567 1.262-0.439-0.397-0.828-0.852-1.255-1.262 0.525 0.306 1.065 0.605 1.567 0.947-0.626-0.32-1.259-0.62-1.879-0.95"/>
<path id="path217" fill-rule="evenodd" clip-rule="evenodd" d="m67.034 72.258c-2.155 11.737-4.61 23.384-5.011 35.34-0.173 5.162-1.166 10.62-0.627 15.777 0.643 6.161 3.82 7.56 9.397 6.152 10.584-2.67 19.545-11.327 27.03-18.865 8.023-8.08 17.475-16.085 22.148-26.729 3.597-8.193 6.533-18.514 4.387-27.452-2.184-9.097-14.922-9.214-21.3-4.417-1.025 0.771-0.747 1.716-2.195 2.208-1.856 0.631-5.107-0.786-6.812-1.43-3.775-1.426-7.65-1.286-11.495 0.004-8.314 2.795-14.605 10.636-15.519 19.414"/>
<path id="path219" d="m67.973 72.258c-1.057 5.958-1.926 11.998-3.184 17.915-0.642 3.021-1.002 5.833-1.223 8.917-0.155 2.169 0.676 9.467-2.483 8.507 0.434-6.129 0.837-12.097 1.906-18.134 0.522-2.951 1.027-5.906 1.569-8.854 0.403-2.198 0.166-9.346 3.415-8.354"/>
<path id="path221" d="m62.962 107.6c0 4.744-0.83 9.452-0.627 14.199 0.071 1.662 0.023 4.757 1.253 5.996 1.176 1.186 3.468 1.36 2.818 3.469-4.947-0.91-5.951-5.328-5.951-9.745 0-2.579 0.115-5.083 0.347-7.653 0.182-2.02-0.779-7.15 2.16-6.27"/>
<path id="path223" d="m62.962 107.6h-1.879 1.879"/>
<path id="path225" d="m66.406 129.37c8.039-1.294 14.766-4.883 20.936-10.325 3.269-2.884 6.349-5.858 9.449-8.923 1.657-1.638 3.345-3.245 5.018-4.866 0.29-0.281 4.701-5.355 4.693-2.075-0.004 1.978-7.053 7.56-8.776 9.079-3.231 2.847-6.38 5.854-9.705 8.591-6.326 5.207-13.324 9.535-21.615 10.412 0.002-0.58-0.154-1.33 0.002-1.89"/>
<path id="path227" d="m66.406 131.26v-1.893 1.89"/>
<path id="path229" d="m105.25 101.92c10.278-10.351 17.027-21.601 18.481-36.287 3.684-0.479 0.694 7.304 0.181 9.373-0.889 3.583-1.789 7.111-3.626 10.349-3.807 6.708-8.342 12.35-13.783 17.827-0.39-0.4-0.97-0.78-1.25-1.26"/>
<path id="path231" d="m106.5 103.18c-0.418-0.421-0.835-0.841-1.253-1.262 0.42 0.42 0.83 0.84 1.25 1.26"/>
<path id="path233" d="m123.73 65.947c0.895-4.612 0.379-11.058-3.538-14.211-3.505-2.821-11.283-2.314-14.944 0.327-2.703-3.888 12.702-4.537 15.662-2.051 2.493 2.094 3.691 4.224 4.305 7.321 0.43 2.182 1.76 9.483-1.49 8.614"/>
<path id="path235" d="m125.61 65.947c-0.828 0.02-1.523 0.152-1.879-0.316 0.63 0.106 1.26 0.196 1.88 0.316"/>
<path id="path237" d="m105.25 52.063c-0.619 0.062-5.637 5.132-5.637 2.665 0-1.066 3.365-3.884 5.011-4.558 0.2 0.59 0.59 1.279 0.63 1.893"/>
<path id="path239" d="m104.62 50.17c0.209 0.631 0.417 1.262 0.626 1.893-0.21-0.63-0.42-1.262-0.63-1.893"/>
<path id="path241" d="m99.611 55.219c-2.234-0.377-5.196-2.209-7.206-2.209-2.12 0-6.901 0.705-6.577-1.894 2.785-0.44 14.842 0.52 13.783 4.103"/>
<path id="path243" d="m99.611 55.219v-1.894 1.894"/>
<path id="path245" d="m86.141 53.01c-5.083 0.992-8.962 3.347-12.542 6.954-1.934 1.949-2.76 4.221-4.13 6.521-1.11 1.864-0.337 6.654-3.375 5.772 0.399-4.95 2.905-10.294 6.266-13.884 3.918-4.186 8.11-5.245 13.155-7.257 0.192 0.583 0.607 1.288 0.626 1.894"/>
<path id="path247" d="m85.829 51.117c-0.013 0.165-0.094 1.158 0.313 1.894-0.105-0.631-0.188-1.268-0.313-1.894"/>
<path id="path249" d="m67.973 72.258h-1.879 1.879"/>
<path id="path251" fill="#fff" d="m60.456 78.253c0.462-3.251 2.187-20.51 7.204-20.51 5.216 0 2.423 18.521 2.216 21.445-0.243 3.439-2.648 20.521-7.54 20.521-5.022 0-2.312-18.622-1.88-21.456"/>
<path id="path253" d="m59.516 77.937c0.863-5.642 1.645-19.159 8.458-21.14 0.381 1.397-0.585 2.485-1.565 3.47-1.479 1.487-1.627 3.617-2.355 5.459-0.952 2.407-1.446 4.9-1.867 7.444-0.29 1.737-0.203 6.067-2.671 4.767"/>
<path id="path255" d="m68.286 57.112c3.19 0.429 3.427 7.876 3.447 10.413 0.018 2.238-0.375 4.589-0.546 6.825-0.15 1.965 0.684 6.074-2.274 5.165 0.328-4.633 3.185-17.799-1.252-20.825 0.198-0.502 0.324-1.134 0.625-1.578"/>
<path id="path257" d="m67.973 56.797c-0.011 0.524 0.266 1.139-0.313 1.893 0.504-0.396 0.221-1.049 0.313-1.893"/>
<path id="path259" d="m70.793 79.515c-0.67 4.716-2.296 9.058-3.214 13.662-0.378 1.899-6.134 10.65-5.557 5.586 2.447-0.22 3.787-5.915 4.384-7.889 0.694-2.296 1.232-4.648 1.81-6.976 0.459-1.847-0.273-5.272 2.577-4.383"/>
<path id="path261" d="m70.793 79.515h-1.88 1.88"/>
<path id="path263" d="m61.71 100.66c-5.837-2.913-2.912-17.646-2.194-22.719 2.596-0.034 1.374 2.864 1.231 4.722-0.187 2.442-0.291 4.821-0.291 7.27 0 2.015-0.166 4.227 0.477 6.17 0.62 1.876 1.865 2.776 0.777 4.557"/>
<path id="path265" d="m62.335 100.66c-0.564-0.423-0.757-0.695 0-1.893-0.426 0.386-0.106 1.041 0 1.893"/>
<path id="path267" d="m59.516 77.937c0.522 0.105 1.045 0.21 1.567 0.316-0.522-0.106-1.045-0.211-1.567-0.316"/>
<path id="path269" fill="#fff" d="m74.24 79.831c1.863-10.029 11.013-20.51 21.52-20.51 11.481 0 13.71 17.913 11.801 26.081-2.57 10.989-8.19 21.121-19.365 24.873-11.242 3.773-16.778-13.213-15.712-21.285 0.413-3.13 1.038-6.093 1.757-9.164"/>
<path id="path271" d="m73.3 79.515c2.176-5.842 4.748-11.09 9.175-15.555 2.341-2.36 5.161-4.012 8.366-4.954 1.501-0.441 8.575-1.826 6.891 1.576-11.625-3.287-19.567 10.7-22.868 19.563-0.486-0.195-1.152-0.315-1.564-0.63"/>
<path id="path273" d="m98.358 59.006c5.993 2 8.997 7.718 10.023 13.567 0.433 2.467 1.379 19.052-2.82 17.039 2.305-9.279 3.31-25.196-8.143-29.03 0.294-0.489 0.534-1.184 0.941-1.576"/>
<path id="path275" d="m98.045 59.006c0.027-0.099-0.164 1.033-0.626 1.576 0.571-0.291 0.394-0.854 0.626-1.576"/>
<path id="path277" d="m107.13 90.243c-1.96 10.472-13.061 23.586-24.747 20.825 0.069-2.853 4.289-1.368 6.486-1.813 2.622-0.53 5.051-2.563 7.078-4.194 4.812-3.875 7.51-9.791 9.616-15.449 0.49 0.187 1.16 0.307 1.57 0.622"/>
<path id="path279" d="m107.13 89.928c0.008 0-0.954 0.083-1.567-0.316 0.52 0.105 1.05 0.19 1.57 0.316"/>
<path id="path281" d="m82.382 110.75c-13.071-3.165-11.341-21.577-9.082-31.239 2.852 0.232 0.514 6.573 0.246 8.741-0.423 3.425 0.048 6.628 0.613 10.017 0.43 2.584 1.996 5.578 3.851 7.443 1.458 1.47 5.815 3.16 4.372 5.04"/>
<path id="path283" d="m82.382 111.07c0.189-0.617 0.309-1.289 0.628-1.895-0.21 0.63-0.41 1.26-0.628 1.89"/>
<path id="path285" d="m73.3 79.515c0.521 0.21 1.042 0.42 1.564 0.631-0.522-0.21-1.043-0.42-1.564-0.631"/>
<path id="path287" fill-rule="evenodd" clip-rule="evenodd" d="m82.069 119.27c-2.387 6.254-4.944 12.377-7.611 18.518-2.38 5.479-4.849 12.37-9.304 16.506 5.449-1.394 9.824-10.777 11.904-15.461 2.543-5.73 5.419-13.19 5.011-19.57"/>
<path id="path289" d="m82.697 119.59c-1.193 3.473-14.133 36.828-17.01 35.093-2.026-1.222 2.159-5.721 3.226-7.642 1.636-2.947 3.123-5.974 4.62-8.992 3.016-6.08 5.178-12.751 7.597-19.09 0.486 0.19 1.157 0.31 1.567 0.63"/>
<path id="path291" d="m64.841 153.67c5.264-2.539 9.347-10.144 11.353-15.341 1.323-3.427 2.529-6.812 3.617-10.319 0.656-2.114 0.593-8.734 2.48-8.734 2.649 0-3.434 18.081-4.292 19.877-2.763 5.781-6.358 12.937-12.218 16.094-0.291-0.49-0.794-1.04-0.94-1.58"/>
<path id="path293" d="m64.527 153.98c0.394 0.441 0.837 0.844 1.254 1.264-0.341-0.507-0.599-1.069-0.94-1.576 0.435 0.393 0.862 0.821 1.252 1.258-0.52-0.31-1.063-0.6-1.566-0.94"/>
<path id="path295" d="m82.697 119.27c-0.517-0.126-1.045-0.211-1.567-0.316 0.53 0.188 1.037 0.442 1.567 0.631-0.523-0.081-1.053-0.189-1.567-0.314 0.522 0 1.047-0.02 1.567 0"/>
<path id="path297" fill-rule="evenodd" clip-rule="evenodd" d="m81.13 51.748c-7.809-7.865-16.14-15.244-26.259-20.001-10.281-4.833-21.677-7.041-32.601-10.192-4.786-1.38-11.541-0.621-16.003 1.479-3.145 1.479-8.966 9.186-2.977 11.202 4.932 1.66 7.82 0.603 7.048-5.206-0.303-2.276-1.073-3.593 1.097-5.05 1.813-1.216 5.331-1.439 7.389-0.848 11.95 3.436 24.53 6.908 35.681 12.523 5.472 2.756 12.059 4.964 16.601 9.15 3.541 3.265 4.245 13.618 10.024 6.943"/>
<path id="path299" d="m80.502 52.379c-4.472-4.506-9.015-9.208-14.304-12.762-2.651-1.781-5.304-3.507-8.115-5.031-2.133-1.157-9.297-3.152-7.337-5.874 5.999 3.023 11.975 5.973 17.346 10.029 2.757 2.083 5.27 4.342 7.817 6.675 1.629 1.493 7.437 5.289 4.593 6.963"/>
<path id="path301" d="m50.118 30.607c-4.992-2.096-10.075-2.964-15.349-4.103 0.068-3.524 6.271-0.458 8.458 0 1.978 0.414 9.22 0.846 6.891 4.103"/>
<path id="path303" d="m50.746 28.713c-0.209 0.631-0.418 1.263-0.628 1.894 0.209-0.631 0.418-1.262 0.628-1.894"/>
<path id="path305" d="m34.769 26.505c-5.904-1.983-11.83-4.62-18.168-4.417-0.417-3.381 7.232-1.029 9.37-0.415 2.214 0.637 10.929 1.827 8.798 4.832"/>
<path id="path307" d="m34.769 26.505c0.209-0.631 0.418-1.262 0.627-1.893-0.208 0.631-0.418 1.262-0.627 1.893"/>
<path id="path309" d="m16.916 22.088c-3.696 0-7.968 0.327-11.277 2.207-1.266 0.719-2.819 1.897-3.29 3.314-0.236 0.709-0.47 1.298-0.47 2.051 0 1.046-1.879 1.046-1.879 0 0-3.668 3.097-6.494 6.342-7.72 1.905-0.719 3.358-0.917 5.327-1.165 1.941-0.242 5.603-1.743 5.247 1.313"/>
<path id="path311" d="m16.916 20.194c-0.003 0.029-0.309 1.853-0.315 1.894 0.105-0.631 0.214-1.262 0.315-1.894"/>
<path id="path313" d="m1.879 30.292c-0.198 2.457 3.147 4.328 5.327 4.103 0.366 2.967-2.229 1.755-3.759 0.946-2.182-1.156-3.059-2.609-3.447-5.049 0.588 0 1.314-0.146 1.879 0"/>
<path id="path315" d="m0 30.292h1.879-1.879"/>
<path id="path317" d="m6.891 34.394c0.938-0.031 1.805-0.483 2.193-1.263 0.359-0.721 2.506-3.042 2.506-1.104 0 2.385-5.182 6.494-4.699 2.367"/>
<path id="path319" d="m6.891 36.287c0.003-0.029 0.309-1.852 0.315-1.893-0.105 0.631-0.215 1.261-0.315 1.893"/>
<path id="path321" d="m9.71 31.553c0.079-1.704-0.635-3.371-0.94-5.048 2.491-0.708 2.462 3.065 2.82 5.048-0.585 0-1.321 0.152-1.88 0"/>
<path id="path323" d="m11.59 31.553h-1.88 1.88"/>
<path id="path325" d="m8.77 26.189c0.55-2.156 4.817-5.991 7.206-4.101 2.082 1.647-2.63 2.144-3.289 2.365-1.205 0.406-2.11 1.05-2.037 2.367-0.588-0.197-1.363-0.296-1.88-0.631"/>
<path id="path327" d="m8.77 26.505c0.06 0.004 1.199-0.065 1.88 0.315-0.366-0.478-1.046-0.307-1.88-0.315"/>
<path id="path329" d="m15.976 22.088c6.085-0.387 11.428 3.415 17.228 4.732-0.095 3.691-6.832-0.39-8.783-1.145-1.462-0.566-2.919-0.735-4.403-1.162-1.873-0.539-4.753 0.219-4.042-2.425"/>
<path id="path331" d="m15.976 22.088v1.893-1.893"/>
<path id="path333" d="m33.204 26.82c3.023 0.87 6.067 1.686 9.072 2.618 2.102 0.652 9.708 1.926 7.529 4.956-5.603-2.42-11.366-3.993-17.229-5.681 0.193-0.58 0.28-1.399 0.628-1.893"/>
<path id="path335" d="m32.577 28.713c0.209-0.631 0.418-1.262 0.627-1.893-0.209 0.631-0.418 1.263-0.627 1.893"/>
<path id="path337" d="m50.433 32.5c3.07 1.493 6.162 2.947 9.21 4.482 2.134 1.075 10.451 3.379 7.703 6.246-2.958-1.596-5.874-3.378-8.918-4.802-2.137-0.999-10.14-2.927-7.995-5.926"/>
<path id="path339" d="m50.433 32.5c-0.209 0.631-0.418 1.263-0.627 1.894 0.209-0.631 0.418-1.263 0.627-1.894"/>
<path id="path341" d="m68.286 41.335c2.762 1.601 4.518 3.984 6.578 6.311-1.832 2.664-2.761-0.57-4.071-1.893-1.494-1.509-4.482-2.241-2.507-4.418"/>
<path id="path343" d="m68.286 41.335c-0.313 0.631-0.626 1.262-0.94 1.894 0.314-0.632 0.627-1.263 0.94-1.894"/>
<path id="path345" d="m74.864 47.961c0.561 1.692 1.04 5.214 2.82 5.364 0.053 0.496-0.103 1.442-0.313 1.894-3.6-0.334-2.884-4.317-4.386-6.627 0.586-0.196 1.267-0.591 1.879-0.631"/>
<path id="path347" d="m74.864 47.646c-0.351 0.165-1.096 0.859-1.879 0.947l0.315 0.315c0.521-0.421 1.04-0.845 1.564-1.262"/>
<path id="path349" d="m77.371 53.325c1.311-0.306 2.315-1.149 3.131-2.208 3.031 1.66-1.347 3.911-3.131 4.103 0-0.59-0.153-1.332 0-1.895"/>
<path id="path351" d="m77.371 55.219c-0.019-0.828-0.146-1.532 0.313-1.894-0.104 0.631-0.194 1.266-0.313 1.894"/>
<path id="path353" d="m81.755 52.379c0.318-0.63 0.965-0.672 0-1.263-0.339 0.476-0.878 0.813-1.253 1.263v-1.263c0.407 0.41 0.92 0.795 1.253 1.263"/>
<path id="path355" fill-rule="evenodd" clip-rule="evenodd" d="m106.19 70.996c3.683-3.227 4.359-10.849 5.62-15.502 1.43-5.279 2.209-11.093 2.209-16.565 0-9.883-0.617-24.087-8.124-31.65-4.333-4.366-9.217-6.331-15.427-6.331-4.19 0-10.59 3.211-10.59 8.045 0 4.523 6.619 4.215 8.925 1.894 3.236-3.256 5.407-7.402 10.495-3.945 4.537 3.083 7.799 9.175 10.454 13.855 2.688 4.739 1.769 11.81 2.092 17.032 0.351 5.657 1.268 13.045-1.27 18.337-1.13 2.357-2.921 4.357-3.911 6.848-0.95 2.382-0.48 5.455-0.48 7.982"/>
<path id="path357" d="m105.56 70.365c2.098-1.643 1.653-3.093 2.507-5.364 4.017 0.119 0.163 5.361-1.253 6.626-0.4-0.395-0.98-0.786-1.26-1.262"/>
<path id="path359" d="m108.07 65c1.431-4.943 2.91-9.809 3.824-14.875 0.308-1.704 1.36-14.469 1.674-14.469 2.551 0 1.415 4.139 1.236 6.31-0.211 2.558-0.418 5.087-0.875 7.614-0.985 5.455-2.496 10.711-3.98 16.051-0.57-0.193-1.38-0.283-1.87-0.631"/>
<path id="path361" d="m108.07 65c0.626 0.21 1.253 0.42 1.88 0.631-0.63-0.21-1.25-0.42-1.88-0.631"/>
<path id="path363" d="m113.08 35.656c0-7.684-1.33-15.79-4.699-22.719-1.664-3.422-4.387-6.625-7.675-8.519-1.5-0.865-2.808-1.834-4.541-2.052-1.864-0.235-4.86 0.361-4.066-2.366 9.252 0.933 15.524 5.833 19.107 14.515 1.441 3.492 2.182 7.195 2.914 10.88 0.45 2.231 2.37 11.223-1.03 10.261"/>
<path id="path365" d="m114.96 35.656h-1.879 1.88"/>
<path id="path367" d="m92.093 1.893c-2.714-0.312-6.42 0.83-8.458 2.525-1.766 1.468-2.557 5.048-4.209 5.048-2.279 0 2.515-6.33 3.427-6.942 2.818-1.89 5.99-2.03 9.241-2.524-0.001 0.593 0.144 1.323-0.001 1.893"/>
<path id="path369" d="m92.093 0v1.893-1.893"/>
<path id="path371" d="m80.818 9.466c0.377 3.015 5.988 0.692 4.384 4.102-2.695-0.645-6.025-0.43-6.264-4.102 0.588 0 1.314-0.146 1.88 0"/>
<path id="path373" d="m78.938 9.466h1.88-1.88"/>
<path id="path375" d="m85.202 11.675c2.356-0.128 3.739-2.288 5.083-4.09 0.866-1.162 6.65-4.89 4.942-0.958-0.002 0.005-1.782 0.533-2.038 0.789-1.054 1.058-1.914 2.243-2.964 3.301-0.953 0.96-5.621 5.389-5.023 0.958"/>
<path id="path377" d="m85.202 13.568c0.003-0.032 0.305-1.85 0.313-1.893-0.104 0.631-0.213 1.261-0.313 1.893"/>
<path id="path379" d="m95.227 4.733c2.966-0.411 11.519 5.98 8.142 7.889-1.301-1.53-2.544-3.603-4.228-4.732-1.688-1.133-4.61-0.723-3.915-3.157"/>
<path id="path381" d="m95.227 4.733v1.894-1.894"/>
<path id="path383" d="m104.62 11.359c2.45 3.29 4.654 5.977 6.1 9.86 0.747 2.004 1.34 3.942 1.575 6.074 0.09 0.813 0.534 6.956-1.722 4.576-0.43-0.454-0.159-4.815-0.314-5.68-0.294-1.64-0.747-3.541-1.4-5.079-0.759-1.784-1.708-3.28-2.829-4.861-1.07-1.492-3.86-3.581-1.42-4.89"/>
<path id="path385" d="m104.62 11.359c-0.417 0.421-0.835 0.841-1.253 1.262 0.42-0.42 0.83-0.841 1.25-1.262"/>
<path id="path387" d="m112.46 31.869c0.207 3.745 0.625 7.552 0.625 11.301 0 2.327 0.836 10.808-2.505 9.84 0.785-7.132 0.394-13.99 0-21.141 0.57 0 1.33-0.164 1.88 0"/>
<path id="path389" d="m110.58 31.869h1.879-1.88"/>
<path id="path391" d="m112.46 53.325c-0.179 2.361-1.975 4.298-2.981 6.324-0.919 1.852-1.654 6.13-4.225 5.352 0.787-4.441 4.858-7.862 5.327-12.306 0.57 0.195 1.36 0.287 1.87 0.63"/>
<path id="path393" d="m112.46 53.01c-0.06-0.004-1.199 0.064-1.879-0.316 0.36 0.48 1.04 0.308 1.88 0.316"/>
<path id="path395" d="m105.25 65c2.677-0.748 3.005 4.893 1.88 5.995-2.49 2.436-1.88-5.273-1.88-5.995"/>
<path id="path397" d="m105.25 65h1.88-1.88"/>
<path id="path399" d="m105.25 70.996c-0.111 0.708 0 1.491 0 2.209 1.532-0.838 1.878-1.918 0.313-2.84 0.523 0.163 1.078 0.383 1.567 0.631-0.62 0-1.26 0.052-1.88 0"/>
<path id="path401" fill-rule="evenodd" clip-rule="evenodd" d="m228.67 69.734c-2.306-1.162-4.189-2.525-6.772-2.525-1.503 0-9.23-0.856-9.678 0.491-0.686 2.07-2.345 4.217-2.345 6.451 0 3.079 2.672 3.552 5.014 4.732 9.337 4.709 7.342 22.684 2.701 29.682-2.916 4.397-6.678 8.203-9.592 12.601-3.248 4.9-3.178 10.043-2.555 15.648 0.585 5.274 3.9 10.082 6.45 14.572 3.007 5.294 5.334 10.059 6.657 16.035 2.572 11.625-10.916 15.63-17.445 22.217 9.667-3 23.807-4.968 23.807-17.579 0-11.902-10.535-19.741-15.467-29.673-1.736-3.498-4.537-9.396-3.172-13.49 1.514-4.535 7.023-5.245 9.869-8.676 8.282-9.986 7.517-22.066 7.517-34.206v-9.734c0-1.756 3.88-5.127 5.01-6.546"/>
<path id="path403" d="m228.36 70.679c1.904-2.632-2.545-3.488-4.388-4.417-1.91 2.634 2.54 3.489 4.39 4.417"/>
<path id="path405" d="m212.38 66.262h6.689c0.707 0 6.723-0.728 4.587 1.894-0.524 0.643-5.83 0-6.689 0-1.85 0-5.52 1.077-4.59-1.894"/>
<path id="path407" d="m223.97 66.262c-0.044 0.165-0.569 1.722-0.626 1.894 0.21-0.631 0.42-1.261 0.63-1.894"/>
<path id="path409" d="m213.32 67.525c-0.26 0.951-2.523 7.257-2.993 7.257-3.22 0 0.513-5.914 1.113-7.888 0.58 0.196 1.38 0.289 1.88 0.631"/>
<path id="path411" d="m212.38 66.262c-0.517 0.138-0.792-0.092-0.94 0.632 0.636 0.083 1.243 0.598 1.88 0.631-0.313 0.21-0.626 0.42-0.939 0.631 0-0.605-0.12-1.304 0-1.894"/>
<path id="path413" d="m210.81 74.783c0.015 2.225 8.454 3.538 4.698 5.68-2.47-2.016-5.907-1.975-6.578-5.68 0.59 0 1.32-0.145 1.88 0"/>
<path id="path415" d="m208.93 74.783h1.88-1.88"/>
<path id="path417" d="m216.76 79.2c2.105 2.475 3.942 5.314 4.697 8.52 0.334 1.418 1.394 9.781 0.14 9.781-2.306 0-1.393-1.99-1.393-4.048 0-1.742-0.197-3.729-0.627-5.418-0.469-1.842-1.423-3.499-2.262-5.188-0.74-1.489-2.84-2.398-0.56-3.647"/>
<path id="path419" d="m216.76 79.2c0.415-0.362-0.931 0.901-1.254 1.263 0.42-0.421 0.84-0.842 1.25-1.263"/>
<path id="path421" d="m222.09 97.5c0 7.586-4.347 12.145-8.614 17.879-2.093 2.813-4.3 5.617-5.863 8.768-0.838 1.687-1.014 3.146-1.499 4.909-0.083 0.301-0.215 2.446-0.313 2.523-0.437 0.346-1.878 0.169-1.878-0.409 0-7.06 4.641-12.137 8.613-17.473 2.252-3.024 4.177-5.861 6.227-8.959 1.35-2.06 0.43-8.08 3.32-7.24"/>
<path id="path423" d="m222.09 97.5h-1.88 1.88"/>
<path id="path425" d="m205.8 131.58c0.831 7.545 3.335 12.664 7.03 19.174 0.951 1.675 9.614 19.951 6.266 19.951-2.303 0-1.222-2.16-1.705-4.102-0.418-1.684-0.837-3.366-1.253-5.051-0.843-3.411-3.46-6.807-5.187-9.851-3.813-6.723-6.265-12.357-7.029-20.122 0.57 0 1.32-0.16 1.87 0"/>
<path id="path427" d="m203.92 131.58h1.878-1.88"/>
<path id="path429" d="m219.58 170.7c1.124 9.496-12.434 14.101-17.853 19.564-2.602-1.466 1.35-3.948 2.818-5.049 2.224-1.666 4.735-3.076 7.045-4.628 1.807-1.214 3.878-2.854 4.858-4.839 0.92-1.87 0.66-5.76 3.12-5.04"/>
<path id="path431" d="m219.58 170.7h-1.877 1.88"/>
<path id="path433" d="m200.79 188.69c4.547-1.356 12.434-2.374 16.3-5.294 1.813-1.368 4.255-2.362 5.313-4.488 0.981-1.969 1.199-6.313 3.445-5.681-0.776 5.825-3.118 9.75-8.736 12.109-2.695 1.131-5.364 2.041-8.156 2.908-2.07 0.64-8.05 4.11-8.15 0.44"/>
<path id="path435" d="m200.48 189.01c0.288 0.539 0.628 1.054 0.94 1.578-0.239-0.62-0.389-1.274-0.628-1.895 0.338 0.504 0.654 1.043 0.94 1.578-0.42-0.43-0.86-0.83-1.25-1.27"/>
<path id="path437" d="m223.97 173.23c0.625-8.282-5.043-15.277-9.621-21.564-2.718-3.733-5.623-7.539-7.294-11.881-0.716-1.859-1.115-3.723-1.5-5.669-0.147-0.748-0.815-6.098 1.5-3.798 0.455 0.452 0.501 4.849 0.578 5.553 0.217 1.975 1.285 4.086 2.24 5.807 2.148 3.869 4.758 7.393 7.357 10.964 2.616 3.597 5.121 6.933 6.739 11.122 0.72 1.9 3.73 10.52-0.01 9.47"/>
<path id="path439" d="m225.85 173.23h-1.88 1.88"/>
<path id="path441" d="m205.17 130.32c-0.467-5.952 7.199-7.081 10.338-10.729 3.532 1.921-4.016 5.396-5.418 6.241-2.01 1.21-2.88 5.11-4.92 4.49"/>
<path id="path443" d="m205.17 130.32h1.88-1.88"/>
<path id="path445" d="m215.51 119.59c3.793-5.38 5.636-11.037 7.206-17.355 4.933 0.114-4.248 16.213-5.952 18.617-0.4-0.4-0.99-0.8-1.26-1.27"/>
<path id="path447" d="m216.76 120.85c-0.418-0.421-0.836-0.841-1.254-1.262 0.42 0.42 0.84 0.84 1.25 1.26"/>
<path id="path449" d="m222.72 76.044c3.507-1.144 1.879 8.985 1.879 11.053v10.454c0 0.606 0.485 4.595 0 5-2.785 2.323-1.879-10.036-1.879-11.053v-15.453"/>
<path id="path451" d="m224.6 102.86c-0.165-0.045-1.708-0.574-1.879-0.633 0.62 0.21 1.25 0.43 1.88 0.63"/>
<path id="path453" d="m223.03 75.414c0.271 0.477 0.861 0.869 1.251 1.262 1.327-1.67 6.62-5.979 3.76-7.572-1.67 2.103-3.34 4.206-5.01 6.31"/>
<path id="path455" d="m222.72 76.044c0.163-0.179-0.012-0.438 0.313-0.631 0.409 0.371 0.958 0.796 1.251 1.262 0.105-0.21 0.21-0.42 0.315-0.631-0.63 0-1.26 0.025-1.88 0"/>
<path id="path457" d="m229.29 70.365c0.313-0.315 0.626-0.631 0.938-0.947-0.418-0.21-0.836-0.42-1.254-0.631-0.129 0.628-0.588 1.256-0.624 1.892-0.16-0.484-0.269-1.068-0.315-1.576 0.41 0.414 0.9 0.8 1.25 1.262"/>
<path id="path459" fill-rule="evenodd" clip-rule="evenodd" d="m176.67 74.783c-4.969 1.495-7.126 6.949-7.519 11.675-0.159 1.917 0.492 3.85-1.567 4.891-2.029 1.026-4.525 1.128-6.749 1.501-5.446 0.913-10.962 4.262-16.187 6.143-5.08 1.829-9.467 4.566-12.459 9.079-2.1 3.168-1.253 9.11-1.253 12.739v25.822c0 4.162-1.241 10.422 1.008 14.197 2.826 4.743-0.925 8.844-4.048 11.989-1.762 1.774-4.328 2.748-6.358 4.196h14.87c1.901 0 0.984-0.042 1.732-1.576 1.682-3.452 0.553-7.962 0.128-11.516-1.788-14.951-3.575-29.903-5.363-44.854-1.288-10.771 14.444-14.773 21.807-17.246 10.534-3.537 20.704-6.275 20.704-19.074 0.01-2.649 0.41-5.453 1.26-7.963"/>
<path id="path461" d="m176.98 75.728c-3.147 1.146-4.568 3.21-6.022 6.136-0.446 0.897-0.921 9.145-2.747 6.801-1.069-1.373 0.892-7.46 1.563-8.834 1.352-2.768 3.841-4.721 6.578-5.995 0.2 0.589 0.6 1.278 0.63 1.892"/>
<path id="path463" d="m170.09 88.665c0.741 5.446-8.939 4.517-11.904 5.996-2.494-3.577 5.288-2.634 6.984-3.319 1.79-0.72 3.35-3.134 4.92-2.677"/>
<path id="path465" d="m170.09 88.665h-1.879 1.88"/>
<path id="path467" d="m158.19 94.661c-5.968 2.578-12.227 4.579-18.029 7.502-2.737 1.38-4.803 3.263-6.705 5.658-1.512 1.904-0.483 6.903-3.458 6.087 1.039-6.249 3.108-10.722 9.369-13.421 6.05-2.608 12.326-4.764 18.198-7.72 0.18 0.582 0.59 1.283 0.62 1.891"/>
<path id="path469" d="m157.56 92.768c0.208 0.631 0.417 1.262 0.625 1.894-0.2-0.632-0.41-1.263-0.62-1.894"/>
<path id="path471" d="m131.88 113.91v38.854c0 0.626 0.805 7.589-1.88 5.323-0.676-0.57 0-6.057 0-6.902v-31.952c0-1.8-1.2-6.35 1.88-5.32"/>
<path id="path473" d="m130 113.91h1.88-1.88"/>
<path id="path475" d="m131.88 157.77c0.037 0.698 3.431 9.009 0 6.627-0.427-0.296-0.537-2.688-0.87-3.247-0.91-1.51-1.75-3.31 0.87-3.38"/>
<path id="path477" d="m130 158.09c0.06-0.004 1.203 0.06 1.88-0.318-0.37 0.48-1.05 0.31-1.88 0.32"/>
<path id="path479" d="m133.75 164.4c0.134 3.557-2.132 6.899-5.012 8.835-1.762 1.185-6.462 5.754-7.832 3.157 2.644-1.905 5.385-3.648 7.923-5.692 2.01-1.63 2.58-7.01 4.92-6.31"/>
<path id="path481" d="m133.75 164.4h-1.879 1.88"/>
<path id="path483" d="m121.54 176.07h9.252c0.607 0 9.517-0.805 7.037 1.895-0.868 0.944-7.952 0-9.252 0-1.93 0-8.11 1.43-7.04-1.89"/>
<path id="path485" d="m120.91 176.39c-0.731 0.525-1.461 1.051-2.192 1.576 1.759 0 3.515 0.556 2.819-1.895 0.248 0.493 0.466 1.053 0.628 1.58-0.42-0.43-0.88-0.82-1.26-1.27"/>
<path id="path487" d="m136.89 176.7c0.411-2.1 0.97-4.188 1.252-6.309 3.262 0.089 0.903 4.845 0.626 6.939-0.59-0.19-1.37-0.29-1.88-0.63"/>
<path id="path489" d="m137.83 177.96h0.938c-0.532-0.537-0.568-1.012-1.878-1.262l0.939-0.633c0 0.6 0.12 1.3 0 1.89"/>
<path id="path491" d="m138.14 170.7c0.54 0.169 1.307 0 1.88 0-1.11-9.283-2.221-18.565-3.331-27.849-0.708-5.916-1.416-11.833-2.123-17.749-0.227-1.899 0.45-7.842-2.69-6.781 2.08 17.47 4.17 34.92 6.26 52.38"/>
<path id="path493" d="m140.02 171.02c-0.158-0.044-1.711-0.573-1.88-0.629 0.63 0.21 1.25 0.42 1.88 0.63"/>
<path id="path495" d="m131.88 118.01c0.617-11.172 14.615-14.479 23.004-17.295 4.652-1.562 9.82-2.633 13.959-5.423 2.11-1.423 3.739-3.326 4.697-5.679 0.492-1.209 0.938-2.209 0.938-3.564 0-1.484 1.88-1.708 1.88-0.678 0 22.665-40.927 11.79-42.6 33.272-0.59-0.21-1.38-0.3-1.88-0.64"/>
<path id="path497" d="m131.88 118.33c0.059 0.004 1.197-0.066 1.879 0.316-0.37-0.49-1.05-0.32-1.88-0.32"/>
<path id="path499" d="m174.47 84.879c-0.106-3.469 0.213-7.102 1.255-10.413 3.229 0.129 0.873 3.398 0.625 5.364-0.22 1.873 1.24 5.955-1.87 5.049"/>
<path id="path501" d="m176.35 84.879h-1.88 1.88"/>
<path id="path503" d="m177.61 75.097c0.309-0.67 0.424-1.497 0.625-2.208-1.739 0.315-2.256 1.371-1.252 2.839-0.44-0.364-0.892-0.819-1.253-1.262 0.61 0.208 1.27 0.361 1.87 0.631"/>
<path id="path505" fill-rule="evenodd" clip-rule="evenodd" d="m208.62 48.908c-2.306-1.161-4.191-2.524-6.773-2.524-1.503 0-9.232-0.856-9.678 0.491-0.687 2.071-2.344 4.214-2.344 6.451 0 3.08 2.668 3.552 5.011 4.733 9.339 4.709 7.342 22.68 2.702 29.68-2.916 4.398-6.682 8.202-9.593 12.602-3.244 4.905-3.177 10.04-2.554 15.648 0.586 5.274 3.902 10.082 6.451 14.572 3.005 5.293 5.336 10.06 6.656 16.035 2.565 11.613-10.902 15.646-17.444 22.217 9.667-3 23.806-4.966 23.806-17.577 0-11.906-10.536-19.737-15.466-29.673-1.739-3.507-4.53-9.387-3.172-13.491 1.501-4.534 7.024-5.251 9.867-8.677 8.284-9.987 7.519-22.064 7.519-34.205v-9.734c-0.02-1.766 3.86-5.137 4.99-6.556"/>
<path id="path507" d="m208.31 49.855c1.906-2.633-2.542-3.489-4.386-4.418-1.91 2.634 2.54 3.489 4.39 4.418"/>
<path id="path509" d="m192.33 45.437h6.69c0.707 0 6.723-0.728 4.587 1.894-0.524 0.644-5.831 0-6.69 0-1.85 0-5.52 1.077-4.59-1.894"/>
<path id="path511" d="m203.92 45.437c-0.044 0.163-0.569 1.723-0.626 1.894 0.21-0.631 0.43-1.262 0.63-1.894"/>
<path id="path513" d="m193.27 46.7c-0.261 0.952-2.522 7.256-2.995 7.256-3.217 0 0.512-5.914 1.115-7.888 0.57 0.196 1.37 0.289 1.87 0.632"/>
<path id="path515" d="m192.33 45.437c-0.516 0.137-0.791-0.092-0.939 0.631 0.644 0.084 1.237 0.533 1.88 0.632-0.313 0.21-0.627 0.42-0.94 0.631 0-0.605-0.12-1.304 0-1.894"/>
<path id="path517" d="m190.76 53.956c0.016 2.226 8.455 3.54 4.698 5.681-2.471-2.019-5.902-1.975-6.578-5.681 0.59 0 1.32-0.145 1.88 0"/>
<path id="path519" d="m188.88 53.956h1.88-1.88"/>
<path id="path521" d="m196.72 58.374c2.106 2.474 3.944 5.314 4.7 8.521 0.334 1.418 1.39 9.781 0.138 9.781-2.306 0-1.393-1.99-1.393-4.048 0-1.741-0.195-3.73-0.625-5.418-0.469-1.841-1.425-3.5-2.264-5.189-0.75-1.489-2.85-2.397-0.56-3.647"/>
<path id="path523" d="m196.72 58.374c0.414-0.36-0.932 0.902-1.255 1.263 0.42-0.421 0.84-0.842 1.26-1.263"/>
<path id="path525" d="m202.04 76.675c0 7.586-4.346 12.147-8.615 17.88-2.093 2.811-4.303 5.616-5.863 8.766-0.836 1.688-1.012 3.146-1.497 4.909-0.083 0.301-0.216 2.446-0.313 2.523-0.437 0.346-1.88 0.169-1.88-0.409 0-7.057 4.643-12.138 8.614-17.472 2.252-3.024 4.177-5.861 6.227-8.959 1.37-2.059 0.45-8.074 3.33-7.234"/>
<path id="path527" d="m202.04 76.675h-1.88 1.88"/>
<path id="path529" d="m185.75 110.75c0.834 7.547 3.335 12.662 7.029 19.177 0.951 1.676 9.615 19.95 6.268 19.95-2.306 0-1.223-2.159-1.706-4.104-0.419-1.682-0.837-3.364-1.254-5.047-0.846-3.415-3.458-6.807-5.188-9.853-3.816-6.724-6.253-12.361-7.029-20.124 0.58-0.01 1.33-0.16 1.88-0.01"/>
<path id="path531" d="m183.87 110.75h1.88-1.88"/>
<path id="path533" d="m199.54 149.88c1.129 9.5-12.446 14.092-17.856 19.563-2.598-1.469 1.351-3.948 2.819-5.049 2.224-1.666 4.736-3.075 7.046-4.626 1.808-1.214 3.872-2.858 4.857-4.841 0.93-1.88 0.66-5.76 3.13-5.04"/>
<path id="path535" d="m199.54 149.88h-1.88 1.88"/>
<path id="path537" d="m180.74 167.86c4.552-1.358 12.427-2.374 16.3-5.296 1.811-1.366 4.258-2.358 5.313-4.485 0.976-1.968 1.205-6.311 3.444-5.68-0.772 5.826-3.121 9.749-8.736 12.107-2.694 1.131-5.363 2.044-8.155 2.91-2.08 0.65-8.06 4.11-8.16 0.44"/>
<path id="path539" d="m180.43 168.18c0.287 0.539 0.626 1.055 0.938 1.58-0.238-0.62-0.388-1.274-0.626-1.895 0.338 0.504 0.653 1.043 0.938 1.578-0.42-0.42-0.86-0.82-1.25-1.26"/>
<path id="path541" d="m203.92 152.4c0.627-8.281-5.045-15.278-9.622-21.564-2.718-3.732-5.628-7.54-7.295-11.883-0.714-1.857-1.113-3.723-1.499-5.666-0.149-0.749-0.815-6.101 1.499-3.801 0.456 0.452 0.502 4.849 0.579 5.552 0.218 1.979 1.283 4.085 2.241 5.808 2.15 3.868 4.755 7.393 7.355 10.965 2.618 3.596 5.123 6.933 6.741 11.123 0.73 1.89 3.74 10.52 0 9.46"/>
<path id="path543" d="m205.8 152.4h-1.878 1.88"/>
<path id="path545" d="m185.12 109.49c-0.468-5.955 7.202-7.075 10.337-10.727 3.532 1.923-4.015 5.391-5.417 6.238-2 1.21-2.88 5.11-4.92 4.49"/>
<path id="path547" d="m185.12 109.49h1.88-1.88"/>
<path id="path549" d="m195.46 98.763c3.793-5.38 5.64-11.034 7.206-17.354 4.937 0.109-4.249 16.215-5.951 18.618-0.4-0.397-0.98-0.789-1.26-1.267"/>
<path id="path551" d="m196.72 100.03c-0.418-0.422-0.837-0.843-1.255-1.264 0.42 0.419 0.84 0.839 1.26 1.264"/>
<path id="path553" d="m202.67 55.219c3.508-1.144 1.88 8.983 1.88 11.053v10.453c0 0.606 0.485 4.594 0 4.999-2.786 2.326-1.88-10.036-1.88-11.053v-15.452"/>
<path id="path555" d="m204.55 82.04c-0.161-0.044-1.71-0.574-1.88-0.631 0.62 0.211 1.25 0.424 1.88 0.631"/>
<path id="path557" d="m202.98 54.588c0.272 0.477 0.862 0.869 1.252 1.262 1.327-1.67 6.618-5.978 3.76-7.574-1.67 2.104-3.34 4.208-5.01 6.312"/>
<path id="path559" d="m202.67 55.219c0.163-0.179-0.012-0.438 0.313-0.631 0.409 0.371 0.959 0.796 1.252 1.262 0.105-0.21 0.21-0.42 0.315-0.631-0.62 0-1.25 0.025-1.87 0"/>
<path id="path561" d="m209.25 49.54c0.313-0.316 0.627-0.631 0.94-0.947-0.418-0.21-0.836-0.42-1.254-0.631-0.13 0.628-0.589 1.257-0.625 1.894-0.16-0.485-0.269-1.069-0.315-1.579 0.4 0.413 0.89 0.8 1.25 1.263"/>
<path id="path563" fill-rule="evenodd" clip-rule="evenodd" d="m249.97 51.433c-2.307-1.162-4.191-2.525-6.774-2.525-1.502 0-9.232-0.855-9.677 0.491-0.685 2.074-2.343 4.212-2.343 6.451 0 3.08 2.667 3.552 5.011 4.733 9.34 4.707 7.338 22.681 2.701 29.68-2.915 4.399-6.682 8.203-9.593 12.602-3.247 4.905-3.171 10.04-2.554 15.648 0.58 5.272 3.907 10.085 6.453 14.572 3.003 5.294 5.334 10.058 6.654 16.033 2.566 11.62-10.905 15.639-17.445 22.217 9.667-2.995 23.807-4.967 23.807-17.576 0-11.904-10.534-19.741-15.467-29.674-1.74-3.507-4.524-9.387-3.17-13.491 1.496-4.535 7.026-5.251 9.867-8.677 8.283-9.988 7.517-22.063 7.517-34.205v-9.734c0-1.748 3.88-5.119 5.01-6.538"/>
<path id="path565" d="m249.66 52.379c1.908-2.634-2.543-3.489-4.388-4.418-1.91 2.634 2.54 3.49 4.39 4.418"/>
<path id="path567" d="m233.68 47.961h6.689c0.708 0 6.722-0.728 4.587 1.894-0.523 0.643-5.831 0-6.689 0-1.85 0-5.52 1.077-4.59-1.894"/>
<path id="path569" d="m245.27 47.961c-0.044 0.164-0.568 1.722-0.625 1.894 0.21-0.631 0.42-1.261 0.63-1.894"/>
<path id="path571" d="m234.62 49.223c-0.258 0.952-2.521 7.258-2.992 7.258-3.222 0 0.514-5.914 1.112-7.889 0.58 0.196 1.38 0.289 1.88 0.631"/>
<path id="path573" d="m233.68 47.961c-0.516 0.137-0.79-0.09-0.94 0.631 0.636 0.083 1.242 0.598 1.88 0.631-0.313 0.21-0.626 0.421-0.939 0.632 0-0.605-0.12-1.304 0-1.894"/>
<path id="path575" d="m232.11 56.481c0.014 2.223 8.452 3.54 4.697 5.679-2.469-2.013-5.912-1.974-6.577-5.679 0.59 0 1.32-0.145 1.88 0"/>
<path id="path577" d="m230.23 56.481h1.88-1.88"/>
<path id="path579" d="m238.06 60.899c2.106 2.475 3.942 5.313 4.698 8.519 0.334 1.418 1.392 9.782 0.139 9.782-2.306 0-1.393-1.989-1.393-4.047 0-1.741-0.195-3.73-0.625-5.419-0.469-1.841-1.424-3.5-2.263-5.189-0.74-1.488-2.84-2.399-0.56-3.646"/>
<path id="path581" d="m238.06 60.899c0.416-0.362-0.93 0.899-1.254 1.261 0.42-0.42 0.84-0.841 1.25-1.261"/>
<path id="path583" d="m243.39 79.2c0 7.583-4.343 12.149-8.611 17.88-2.095 2.812-4.301 5.616-5.867 8.766-0.839 1.686-1.01 3.145-1.495 4.908-0.082 0.299-0.22 2.448-0.315 2.523-0.437 0.345-1.878 0.169-1.878-0.408 0-7.059 4.641-12.136 8.613-17.471 2.252-3.025 4.177-5.862 6.227-8.961 1.36-2.064 0.44-8.079 3.33-7.238"/>
<path id="path585" d="m243.39 79.2h-1.88 1.88"/>
<path id="path587" d="m227.1 113.28c0.838 7.547 3.338 12.661 7.032 19.177 0.95 1.675 9.612 19.95 6.265 19.95-2.305 0-1.222-2.16-1.705-4.104-0.419-1.682-0.835-3.364-1.252-5.047-0.848-3.414-3.46-6.806-5.188-9.853-3.813-6.726-6.259-12.358-7.03-20.124 0.57-0.01 1.32-0.17 1.87-0.01"/>
<path id="path589" d="m225.22 113.28h1.878-1.88"/>
<path id="path591" d="m240.88 152.4c1.128 9.5-12.44 14.096-17.854 19.563-2.6-1.465 1.35-3.948 2.818-5.049 2.224-1.666 4.738-3.075 7.048-4.626 1.803-1.211 3.877-2.859 4.856-4.839 0.92-1.87 0.66-5.76 3.12-5.04"/>
<path id="path593" d="m240.88 152.4h-1.879 1.88"/>
<path id="path595" d="m222.09 170.39c4.543-1.357 12.438-2.376 16.301-5.296 1.81-1.369 4.254-2.363 5.313-4.488 0.98-1.969 1.197-6.315 3.444-5.683-0.777 5.831-3.117 9.745-8.736 12.109-2.695 1.134-5.363 2.046-8.156 2.911-2.07 0.65-8.05 4.11-8.15 0.45"/>
<path id="path597" d="m221.78 170.7c0.288 0.539 0.628 1.054 0.94 1.578-0.239-0.618-0.389-1.272-0.628-1.891 0.338 0.502 0.654 1.04 0.94 1.574-0.42-0.41-0.86-0.81-1.25-1.26"/>
<path id="path599" d="m245.27 154.93c0.623-8.285-5.042-15.273-9.621-21.563-2.718-3.733-5.624-7.54-7.291-11.883-0.714-1.859-1.116-3.721-1.502-5.666-0.149-0.749-0.808-6.099 1.502-3.799 0.456 0.454 0.497 4.847 0.575 5.551 0.218 1.978 1.286 4.086 2.243 5.809 2.149 3.868 4.755 7.393 7.354 10.964 2.619 3.597 5.121 6.933 6.739 11.124 0.73 1.9 3.74 10.52 0 9.47"/>
<path id="path601" d="m247.15 154.93h-1.88 1.88"/>
<path id="path603" d="m226.48 112.02c-0.47-5.957 7.2-7.076 10.335-10.73 3.53 1.927-4.015 5.395-5.418 6.243-2.01 1.21-2.89 5.11-4.92 4.49"/>
<path id="path605" d="m226.48 112.02h1.88-1.88"/>
<path id="path607" d="m236.81 101.28c3.794-5.378 5.637-11.035 7.206-17.353 4.934 0.109-4.251 16.215-5.952 18.618-0.4-0.38-0.99-0.78-1.26-1.26"/>
<path id="path609" d="m238.06 102.55c-0.418-0.422-0.836-0.844-1.254-1.266 0.42 0.43 0.84 0.85 1.25 1.27"/>
<path id="path611" d="m244.02 57.743c3.507-1.144 1.879 8.984 1.879 11.053v10.453c0 0.606 0.485 4.595 0 5-2.785 2.324-1.879-10.036-1.879-11.053v-15.453"/>
<path id="path613" d="m245.9 84.563c-0.162-0.044-1.709-0.573-1.879-0.631 0.62 0.211 1.25 0.424 1.88 0.631"/>
<path id="path615" d="m244.33 57.112c0.272 0.477 0.863 0.869 1.254 1.262 1.326-1.669 6.614-5.978 3.76-7.572-1.67 2.103-3.34 4.207-5.01 6.31"/>
<path id="path617" d="m244.02 57.743c0.162-0.177-0.01-0.439 0.313-0.631 0.41 0.371 0.961 0.796 1.254 1.262 0.104-0.21 0.208-0.42 0.313-0.631-0.62 0-1.25 0.025-1.87 0"/>
<path id="path619" d="m250.59 52.063c0.313-0.315 0.627-0.631 0.94-0.947-0.418-0.21-0.836-0.42-1.254-0.631-0.13 0.628-0.59 1.257-0.626 1.894-0.16-0.485-0.266-1.069-0.313-1.578 0.41 0.414 0.9 0.801 1.25 1.262"/>
<path id="path621" stroke="#fff" d="m89.588 79.831c0-6.504 3.125-17.04 11.275-17.04 8.151 0 11.278 10.534 11.278 17.04s-3.126 17.039-11.278 17.039c-8.148 0-11.272-10.536-11.272-17.039"/>
<metadata><rdf:RDF><cc:Work><dc:format>image/svg+xml</dc:format><dc:type rdf:resource="http://purl.org/dc/dcmitype/StillImage"/><cc:license rdf:resource="http://creativecommons.org/licenses/publicdomain/"/><dc:publisher><cc:Agent rdf:about="http://openclipart.org/"><dc:title>Openclipart</dc:title></cc:Agent></dc:publisher><dc:title>Architetto -- Fromichina</dc:title><dc:date>2009-07-02T16:31:53</dc:date><dc:description>Cartoon ant by Francesco Rollandin. From OCAL 0.18 release.</dc:description><dc:source>http://openclipart.org/detail/26950/architetto----fromichina-by-anonymous</dc:source><dc:creator><cc:Agent><dc:title>Anonymous</dc:title></cc:Agent></dc:creator><dc:subject><rdf:Bag><rdf:li>animal</rdf:li><rdf:li>ant</rdf:li><rdf:li>black</rdf:li><rdf:li>cartoon</rdf:li><rdf:li>clip art</rdf:li><rdf:li>clipart</rdf:li><rdf:li>image</rdf:li><rdf:li>insect</rdf:li><rdf:li>media</rdf:li><rdf:li>public domain</rdf:li><rdf:li>svg</rdf:li></rdf:Bag></dc:subject></cc:Work><cc:License rdf:about="http://creativecommons.org/licenses/publicdomain/"><cc:permits rdf:resource="http://creativecommons.org/ns#Reproduction"/><cc:permits rdf:resource="http://creativecommons.org/ns#Distribution"/><cc:permits rdf:resource="http://creativecommons.org/ns#DerivativeWorks"/></cc:License></rdf:RDF></metadata></svg>
