<?xml version="1.0" encoding="UTF-8" standalone="no"?>
<!-- Created with Inkscape (http://www.inkscape.org/) -->
<svg
   xmlns:svg="http://www.w3.org/2000/svg"
   xmlns="http://www.w3.org/2000/svg"
   xmlns:xlink="http://www.w3.org/1999/xlink"
   version="1.0"
   width="709.07758"
   height="470.88339"
   id="svg2"
   xml:space="preserve"><defs
     id="defs6"><linearGradient
       id="linearGradient15703"><stop
         id="stop15705"
         style="stop-color:#ffffff;stop-opacity:1"
         offset="0" /></linearGradient><linearGradient
       x1="-37.125"
       y1="465.375"
       x2="967.87512"
       y2="465.375"
       id="linearGradient15707"
       xlink:href="#linearGradient15703"
       gradientUnits="userSpaceOnUse"
       gradientTransform="translate(961.6578,56.04101)" /></defs><g
     transform="matrix(34.167339,0,0,34.167339,-1488.3396,735.83767)"
     id="g2991" /><path
     d="M 372.05199,0.00045021685 C 395.69957,-0.10659978 414.72131,18.93288 414.56045,42.50892 C 414.72128,43.77801 414.64975,45.14717 414.56045,46.70233 L 404.94054,46.70233 L 404.94054,74.16431 C 404.99414,96.88244 384.47455,97.92273 378.21859,98.17292 C 374.92973,97.92273 378.21859,104.33943 378.21859,104.33943 L 407.73607,155.81019 L 439.3091,181.21659 C 441.3825,182.59285 448.37131,188.38059 455.75338,183.92991 C 462.49196,179.65799 460.40068,170.57784 459.86445,167.48561 C 459.86445,167.48561 438.94445,71.27932 438.56909,69.31314 C 437.85414,67.95469 437.51809,65.18063 439.96688,63.80439 C 443.05911,62.96425 445.47571,67.25758 445.47571,67.25758 C 445.47571,67.25758 484.09475,129.10241 492.83525,144.1346 C 522.07747,194.36128 573.82335,192.15198 573.82335,192.15198 L 601.94309,192.15198 L 601.94309,237.45606 C 600.35228,237.349 599.11896,237.31278 597.83202,237.45606 C 581.87031,237.31278 566.55928,240.45166 552.52799,245.76028 L 558.6946,256.03805 C 570.79545,251.64102 584.05099,249.09561 597.83202,249.1315 C 659.12273,249.0953 708.82736,298.78241 709.0776,360.37705 C 708.82738,421.34604 659.12273,471.04352 597.83202,470.88255 C 536.55918,471.04338 486.90099,421.34604 486.66864,360.37705 C 486.90096,326.18365 502.10483,295.82253 525.80603,275.19567 L 519.55721,265.65793 C 492.51352,287.85773 475.15406,321.91171 474.9932,360.37705 C 475.15402,417.36003 422.12481,413.90319 422.12481,413.90319 L 228.57557,413.90319 C 209.59315,448.07867 173.32277,471.04352 131.80095,470.88255 C 70.40299,471.04338 20.72696,421.34604 20.63758,360.37705 L -5.6843419e-14,360.37705 C 0.16083,305.61045 33.30327,258.85506 80.33034,238.85371 C 80.49116,205.32168 104.339,206.54072 104.339,206.54072 L 207.28023,206.54072 C 207.58409,175.90437 223.06673,164.77231 223.06673,164.77231 L 275.27733,107.79281 L 329.46127,84.44194 L 337.68342,84.44194 L 337.68342,67.91534 C 332.71438,60.76565 329.58639,51.94658 329.46127,42.50892 C 329.58652,18.93288 348.69035,-0.10671978 372.05199,0.00045021685 L 372.05199,0.00045021685 z M 352.81215,171.59656 C 345.448,198.35437 325.35021,206.54072 325.35021,206.54072 L 354.20992,251.92695 L 442.02242,223.06717 L 352.81215,171.59656 L 352.81215,171.59656 z M 249.87091,268.37125 C 249.87091,268.37125 211.74878,268.31785 207.28023,268.37125 C 202.34694,268.31785 203.38007,275.08835 205.88246,277.25122 C 222.11226,293.82063 236.78339,313.661 240.25101,337.68394 C 240.57274,339.02446 241.39854,343.58247 245.75984,343.85045 C 249.71005,343.58247 249.87091,338.42383 249.87091,338.42383 L 249.87091,268.37125 z M 597.83202,293.77766 C 592.43399,293.74146 587.13964,294.36759 582.0455,295.83322 L 595.1187,317.78628 C 596.24479,317.82248 597.04555,317.78628 597.83202,317.78628 C 621.19362,317.78628 640.13671,336.72942 640.4227,360.37705 C 640.13671,383.39903 621.19362,402.33492 597.83202,402.22777 C 574.48827,402.33482 555.60953,383.39903 555.32352,360.37705 C 555.60953,351.51138 558.10832,343.58593 562.14791,337.02618 L 549.0747,314.99083 C 538.24292,326.60898 531.46502,342.57429 531.23266,360.37705 C 531.46498,396.69744 561.18984,426.37942 597.83202,426.23638 C 634.47417,426.37966 664.18112,396.69744 664.43136,360.37705 C 664.18115,323.43099 634.47417,293.74194 597.83202,293.77766 L 597.83202,293.77766 z M 136.56979,293.77766 C 134.74661,293.77766 133.24876,293.74146 131.80095,293.77766 C 95.03366,293.74146 65.29097,323.43099 65.20159,360.37705 C 65.29089,396.69744 95.03366,426.37942 131.80095,426.23638 C 168.3001,426.37966 197.96417,396.69744 197.66033,360.37705 C 197.96417,338.62415 187.78658,319.5737 172.2539,307.50866 L 162.71622,331.51727 C 169.81227,339.20322 173.91976,349.16992 173.65165,360.37705 C 173.91976,383.39903 155.01958,402.33492 131.80095,402.22777 C 108.31422,402.33482 89.33537,383.39903 89.21025,360.37705 C 89.3355,338.17725 106.04422,320.16364 127.68988,317.78628 L 136.56979,293.77766 L 136.56979,293.77766 z"
     id="path9"
     style="fill:#000000;fill-opacity:1;fill-rule:nonzero;stroke:none" /></svg>