<?xml version="1.0"?>
<svg xmlns:rdf="http://www.w3.org/1999/02/22-rdf-syntax-ns#" xmlns="http://www.w3.org/2000/svg" xmlns:cc="http://creativecommons.org/ns#" xmlns:dc="http://purl.org/dc/elements/1.1/" xmlns:svg="http://www.w3.org/2000/svg" id="svg2" viewBox="0 0 512 512" version="1.1">
  <g id="layer1" transform="translate(1196.5 6491.7)">
    <path id="path3064" transform="matrix(.0098592 0 0 .0098592 -935.14 -6170.3)" fill="#367abb" d="m25417-6627.6a25966 25966 0 1 1 -51931 0 25966 25966 0 1 1 51931 0z"/>
    <path id="path3868" transform="matrix(.0090504 0 0 .0090504 -935.58 -6175.7)" fill="#fff" d="m25417-6627.6a25966 25966 0 1 1 -51931 0 25966 25966 0 1 1 51931 0z"/>
    <path id="path3870" transform="matrix(.0084727 0 0 .0084727 -935.9 -6179.5)" fill="#367abb" d="m25417-6627.6a25966 25966 0 1 1 -51931 0 25966 25966 0 1 1 51931 0z"/>
    <g id="g3834" fill="#fff" transform="matrix(.74144 0 0 .74144 -236.6 -1613.2)" fill-rule="evenodd">
      <g id="g3001" transform="matrix(.0094876 0 0 .0094876 -1015 -6315.6)">
        <g id="Default" transform="translate(-4115.3 -5381.9)">
          <desc id="desc3128">Master slide</desc>
        </g>
        <path id="path3225" fill-rule="nonzero" transform="translate(-4275.3 -5381.9)" d="m10880 10820a1760 3040 0 1 1 -3520 0 1760 3040 0 1 1 3520 0z"/>
        <path id="path3995" fill-rule="nonzero" transform="translate(-495.3 -5271.9)" d="m10880 10820a1760 3040 0 1 1 -3520 0 1760 3040 0 1 1 3520 0z"/>
        <path id="path3997" fill-rule="nonzero" transform="matrix(.73642 -.34496 .34496 .73642 -8523.9 4151.1)" d="m10880 10820a1760 3040 0 1 1 -3520 0 1760 3040 0 1 1 3520 0z"/>
        <path id="path3999" fill-rule="nonzero" transform="matrix(-.76816 -.35983 -.35983 .76816 22424 3968.3)" d="m10880 10820a1760 3040 0 1 1 -3520 0 1760 3040 0 1 1 3520 0z"/>
        <path id="path4007" fill-rule="nonzero" d="m6684.7 9508.1c-743.85 0-1494.5 251.73-1684.8 825.53s-340.68 1275.9-827.19 1762.4c-486.51 486.51-821.05 453.11-1463.7 670.55s-1324.3 1063.4-1324.3 2091.5 1200.2 2192.7 1806.8 2192.7c606.58 0 1023.3-33.413 1220-222.68 196.71-189.26 1188.5-970 2123.2-970s1984.6 1030.3 2262.5 1170.8c277.83 140.47 768.71 83.54 1264.8 65.862 496.11-17.678 1647.7-1127 1647.7-2086.6 0-959.63-354.46-1702-917.16-1945.3s-1022.5-93.345-1545.8-616.7c-523.36-523.36-558.82-1678.9-867.88-2112.1-309.06-433.26-950.29-825.82-1694.1-825.82z"/>
        <path id="path4153" fill-rule="nonzero" d="m4458.4 2600s388.91-2669.3 371.23-2598.6c-17.7 70.691 512.6 2793.1 512.6 2793.1z"/>
        <path id="path4155" fill-rule="nonzero" d="m8365.1 2776.8s388.91-2669.3 371.23-2598.6c-17.678 70.711 512.65 2793.1 512.65 2793.1z"/>
        <path id="path4157" fill-rule="nonzero" d="m1117.3 6842.6c-592.49-941.92-423.43-1736.1-406.59-2368.8-948.74 219.19-853.35 3167-265.17 3341.1z"/>
        <path id="path4159" fill-rule="nonzero" d="m12286 6842.6c592.49-941.92 423.43-1736.1 406.59-2368.8 948.74 219.19 853.35 3167 265.16 3341.1z"/>
      </g>
      <g id="g3026" transform="matrix(.0099148 0 0 .0099148 -1167.2 -6294.1)">
        <g id="Default-2" transform="translate(-4429.6 -8277.8)">
          <desc id="desc3128-3">Master slide</desc>
        </g>
        <path id="path3225-9" fill-rule="nonzero" transform="translate(-4589.6 -7780)" d="m10880 10820a1760 3040 0 1 1 -3520 0 1760 3040 0 1 1 3520 0z"/>
        <path id="path3995-5" fill-rule="nonzero" transform="translate(-809.6 -7624.7)" d="m10880 10820a1760 3040 0 1 1 -3520 0 1760 3040 0 1 1 3520 0z"/>
        <path id="path3997-3" fill-rule="nonzero" transform="matrix(.80060 -.14261 .14261 .80060 -7369.9 -832.22)" d="m10880 10820a1760 3040 0 1 1 -3520 0 1760 3040 0 1 1 3520 0z"/>
        <path id="path3999-4" fill-rule="nonzero" transform="matrix(-.83511 -.14875 -.14875 .83511 20527 -1215)" d="m10880 10820a1760 3040 0 1 1 -3520 0 1760 3040 0 1 1 3520 0z"/>
        <path id="path4007-6" fill-rule="nonzero" d="m6370.4 6612.2c-743.85 0-1494.5 251.73-1684.8 825.53s-340.68 1275.9-827.19 1762.4-821.04 453.09-1463.7 670.53c-642.65 217.44-1324.3 1063.4-1324.3 2091.5s1211.6 2192.7 1806.8 2192.7c595.24 0 991.82-30.958 1092.2-272 100.34-241.04 300.92-441.62 548.34-441.62s448 200.58 617.64 420.92 562.22 317.83 1021.8 317.83 986.65-59.119 1193.6-305.84c207-246.72 282.02-432.91 526.91-432.91 244.9 0 448 200.58 665.49 516.38s708.39 258.86 1204.5 241.18c496.11-17.677 1647.7-1127 1647.7-2086.6 0-959.63-354.46-1702-917.16-1945.3-562.69-243.3-1022.5-93.332-1545.8-616.69-523.36-523.36-558.81-1678.9-867.88-2112.2-309.06-433.26-950.3-825.81-1694.2-825.81z"/>
      </g>
      <g id="g3051" transform="matrix(.010978 0 0 .010978 -866.89 -6293.8)">
        <g id="Default-6" transform="translate(-15380 4071.8)">
          <desc id="desc3128-0">Master slide</desc>
        </g>
        <path id="path4566" d="m6155 5198.5c-233.44 134.62-222.34 361.17-333.87 536.05-111.52 174.88-105.6 415.56-100.69 605.58 4.908 190.02 136.4 274.89 214.22 485.47 77.815 210.59 416.92 158.72 569.74 170.07 152.82 11.347 219.56 10.155 195-102.19-24.56-112.35 69.616-258.61 67.447-464.25s-52.712-551.9-3.771-768.6 64.593-372.99-53.365-517.58-321.27-79.168-554.71 55.456z"/>
        <path id="path4568" d="m3711.2 6642.6s27.566 741.27 68.934 1078.9c41.368 337.67 54.43 631.52 79.046 914.27s210.88 524.92 352.75 664.43c141.87 139.52 218.96-17.562 338.16 181.48s524.59-52.142 645.91-414.45 388.75-864.07 195.8-993.11c-192.96-129.04-580.62-84.765-693.77-397.92-113.14-313.16-448.68-529.22-596.04-721.96s-390.79-311.68-390.79-311.68z"/>
        <path id="path4570" d="m4555.5 11492c51.943 194.52 185.5 301.03 286.69 426.18 101.19 125.14 185.82 172.98 290.51 291.88s267.51 228.79 315.08 351.59 246.46 308.1 566.24 227.66c319.79-80.439 218.25-435.09 157.06-578.26-61.181-143.17-175.6-377.99-239.14-479.73-63.537-101.74-23.104-106.92-102.32-184.59-79.218-77.676-201.98-285.28-287.26-386.89-85.281-101.62-25.55-82.934-129.7-170.06-104.16-87.123-405.35 75.464-537.58 142.6-132.23 67.137-206.76 83.079-275.48 140.09-68.728 57.007-96.039 25.021-44.096 219.54z"/>
        <path id="path4572" d="m7000.3 12419c-88.192-154.94-84.308-273.33-77.822-504.06s-73.069-665.29-138.89-849.81c-65.818-184.52-93.194-217.55-4.804-308.89 88.39-91.337 252.35-126.38 403.83-145.97 151.48-19.591 334.54 45.464 482.19 82.666s266.53 42.015 412.51 104.92c145.98 62.899 118.05 283.07 156.26 436.23 38.202 153.16-30.449 323.1-80.762 465.76s-138.43 265.91-186.57 395.83c-48.142 129.92-122.03 214.2-256.77 283.36-134.74 69.15-228.73 317.36-398.62 310.01-169.9-7.346-222.35-115.09-310.54-270.04z"/>
        <path id="path4574" d="m7999.4 8022.4c23.467 42.214-26.624 250.44-140.94 342.98-114.32 92.542-80.776 299.56-175.6 447.18-94.823 147.62-56.476 370.15-151.73 523.19-95.257 153.04 105.66 157.54 252.88 206.41 147.22 48.877 400.22-75.19 529.83-24.214 129.6 50.977 274.31 174.67 280.37 62.722 6.062-111.94-72.765-239.97-73.248-408.5s11.523-422.12 2.358-596.52c-9.165-174.41 61.374-330.66-53.616-428.33-114.99-97.672-493.77-167.14-470.3-124.92z"/>
        <path id="path4576" d="m10755 7537.1c236.71-113.98 643.42-69.556 905.13-70.774 261.71-1.2181 462.91-46.809 660.44 56.051-77.083-6.6337-131.08-50.161-242.2 49.178s-396.05 184.79-527.43 325.85-339.99 111.59-466.15 241.34c-126.16 129.76-273.85 232.03-392.52 329.31-118.66 97.281-366.92 162.05-346.28-51.484 20.639-213.54-31.026-366.24-14.196-571.38s186.49-194.12 423.2-308.1z"/>
        <path id="path4578" d="m9454 1852.9c97.615-313.22 72.227-741.72 43.551-1079.4-28.676-337.66-204.99-578.56-443.76-773.49 33.743 127.39-21.824 473.67-41.599 721.09s-151.9 500.21-304.22 739.62c-152.32 239.4-374.67 532.73-326.24 816.99 48.43 284.27 566.2 311.51 779.29 395.43 213.09 83.917 195.36-507.03 292.98-820.25z"/>
        <path id="path4580" d="m3077.7 2626.6c-207.4-432.1-209.9-1413.8-133.4-1873.8 76.533-460.02 386.48-747.71 386.7-225.8 43.366 409.87 270.82 814.37 305.31 1181.2 34.491 366.85 621.05 699.06 229.15 817.75s-580.36 532.83-787.8 100.66z"/>
        <path id="path4582" d="m347.54 5707.4c136.92 479.76 433 820.28 741.06 1224.2s453.82-394.05 739.93-629.1-100.93-285.45-414.88-647.02c-313.9-361.6-898.39-912.3-1405.2-1300-58.397 415.5 202.22 872.1 339.14 1351.9z"/>
      </g>
    </g>
  </g>
  <metadata>
    <rdf:RDF>
      <cc:Work>
        <dc:format>image/svg+xml</dc:format>
        <dc:type rdf:resource="http://purl.org/dc/dcmitype/StillImage"/>
        <cc:license rdf:resource="http://creativecommons.org/licenses/publicdomain/"/>
        <dc:publisher>
          <cc:Agent rdf:about="http://openclipart.org/">
            <dc:title>Openclipart</dc:title>
          </cc:Agent>
        </dc:publisher>
        <dc:title>Cat-Dog-Mouse Unification Peace Logo</dc:title>
        <dc:date>2012-06-03T13:48:57</dc:date>
        <dc:description>But what about tigers?</dc:description>
        <dc:source>http://openclipart.org/detail/170372/cat-dog-mouse-unification-peace-logo-by-qubodup-170372</dc:source>
        <dc:creator>
          <cc:Agent>
            <dc:title>qubodup</dc:title>
          </cc:Agent>
        </dc:creator>
        <dc:subject>
          <rdf:Bag>
            <rdf:li>alliance</rdf:li>
            <rdf:li>animals</rdf:li>
            <rdf:li>can not hug every cat</rdf:li>
            <rdf:li>cat</rdf:li>
            <rdf:li>cats</rdf:li>
            <rdf:li>clip art</rdf:li>
            <rdf:li>clipart</rdf:li>
            <rdf:li>dog</rdf:li>
            <rdf:li>logo</rdf:li>
            <rdf:li>mice</rdf:li>
            <rdf:li>mouse</rdf:li>
          </rdf:Bag>
        </dc:subject>
      </cc:Work>
      <cc:License rdf:about="http://creativecommons.org/licenses/publicdomain/">
        <cc:permits rdf:resource="http://creativecommons.org/ns#Reproduction"/>
        <cc:permits rdf:resource="http://creativecommons.org/ns#Distribution"/>
        <cc:permits rdf:resource="http://creativecommons.org/ns#DerivativeWorks"/>
      </cc:License>
    </rdf:RDF>
  </metadata>
</svg>
