<?xml version="1.0"?>
<svg xmlns:rdf="http://www.w3.org/1999/02/22-rdf-syntax-ns#" xmlns="http://www.w3.org/2000/svg" xmlns:cc="http://web.resource.org/cc/" xmlns:dc="http://purl.org/dc/elements/1.1/" xmlns:svg="http://www.w3.org/2000/svg" id="Layer_1" style="enable-background:new 0 0 277.695 190.112" space="preserve" viewBox="0 0 277.695 190.112" version="1.1">
  <path id="path3" d="m153.36 190.11c2.887-0.065 2.91-2.449 5.157-3.258 2.273-0.817 6.731 0.385 9.176 0.525 2.563 0.146 2.02-7.117 1.955-9.211-0.128-4.153-2.935-8.063 0.814-9.501 1.004-0.386 4.127 0.23 5.429 0.271 3.532 0.109 9.003-1.475 12.216 0.135 1.876 0.94 4.509 6.057 5.429 8.009-4.892 0.118-4.463 7.294-1.9 9.771 1.299 1.255 1.712 0.39 3.258 1.086 0.559 0.252 1.177-0.491 1.899-0.271 0.807 0.244 1.213 2.189 2.715 2.172 2.036-0.023 6.38-2.398 8.552-3.123 3.157-1.052 8.222 1.311 9.366-1.763 0.595-1.599-3.005-9.643-3.534-11.545-1.327-4.762-2.729-5.156 1.091-6.371 3.45-1.1 9.108 0 12.758 0 7.84 0 15.855-2.843 23.21-5.294 14.146-4.716 23.468-16.892 26.332-31.218 2.813-14.07-9.38-27.319-19.952-33.798-6.269-3.84-13.515-4.915-20.089-7.058 0.802-1.667 5.248-6.485 3.258-8.415-0.941-0.914-5.114 1.106-5.972 1.357-2.532 0.742-5.025 1.459-7.602 1.9-2.243 0.383-5.417-0.51-7.329 0-4.282 1.141-1.062 4.036 1.086 7.058 2.246 3.163 4.51 6.299 6.244 9.771 0.822 1.651 1.916 5.804 3.393 6.787 2.722 1.815 2.854-9.232 3.122-10.587 7.501 0.869 14.024 5.248 20.63 8.551 2.374 1.188 1.215 2.931 2.444 4.208 0.508 0.526 3.132 1.357 3.258 1.629 1.117 2.429-3.345 8.104 2.715 7.059-1.321 3.003 0.663 4.626 1.9 7.058-4.517 1.326-3.067 3.559-2.037 6.649 0.467 1.398-4.166 0.577-5.021 1.766-0.843 1.171 0.556 2.602 0 3.801-1.676 3.621-0.444-0.373-3.53 0.814-1.443 0.556-2.191 3.152-2.715 3.257-3.121 0.623-3.539-5.247-7.329-0.543-1.277-6.078-6.382 0.263-7.041-1.492-1.518-4.048-3.656-5.265-7.074-2.308-1.093-5.246-1.738-10.079-7.601-5.158-1.247-4.518-2.087-11.434-7.601-7.058-0.858-2.301-0.416-6.182-2.716-7.329-2.314-1.157-4.358 2.234-6.243 1.9-3.526-0.626-0.892-5.438-3.257-7.33-1.115-0.893-3.168 0.241-3.802-0.271-1.501-1.214-1.551-4.691 0.543-6.787 2.529-2.528 4.955-1.057 3.259-5.293-1.563-3.906 0.111-6.873 1.763-10.18 3.237-6.472-6.742-3.085-10.45-1.629-1.933-2.845 2.836-7.609 1.357-9.501-1.864-2.388-8.435 2.094-10.18 3.258-6.252 4.168-13.896 9.814-18.324 15.473-0.654-4.928-5.135-2.192-7.872-0.543 1-5.427 4.743-10.012 6.108-15.473 0.467-1.866-10.274 1.327-11.809 1.628 1.743-5.709 7.054-9.431 7.601-15.745-4.665-0.206-9.576 2.306-13.845 1.629 2.027-3.578 5.047-6.563 6.923-10.315 3.394-6.788-6.313-4.291-10.724-3.801 0.091-0.271 0-0.362-0.271-0.271 1.509-1.778 5.516-7.243 5.159-9.772-0.532-3.766-6.147-1.986-9.501-2.714 2.791-3.16 7.927-4.762 10.587-8.144-2.423-1.73-12.339-6.332-10.316-9.366 2.047-3.071 3.865-6.575 5.022-10.043 2.013-6.043-10.325 0.36-12.895 1.493-1.018-4.051 1.742-9.495 0.543-13.031-1.163-3.429-1.794-2.051-4.072 0-2.079 1.872-5.961 9.784-7.872 9.23-2.229-0.646-3.889-8.093-5.701-9.773-5.992-5.558-3.267 8.096-4.343 12.216-3.103-4.688-8.104-8.221-13.302-4.344-2.643 1.972-2.54 5.194-5.158 6.244-2.568 1.029-7.987-0.128-10.452-0.95-5.17-1.724-8.881-6.32-14.794-7.194-3.994-0.611-5.974-0.7-9.254-2.468-3.4-1.832-6.776-2.628-9.5 0.543-4.008 4.666-0.317 9.495 0 14.388 0.427 6.591-1.341 11.708 1.899 18.188 1.711 3.423 3.891 6.333 6.516 8.958 3.23 3.23 11.116-0.448 14.659-1.628 12.403-4.135 29.385-6.096 41.126 0.95 1.474 0.883 2.756 0.783 3.665 2.036 1.75 2.415 2.207 8.396 2.986 11.401 2.211 8.534 3.868 17.258 6.183 25.749 3.893 14.273 6.457 28.891 10.043 43.232 2.587 10.346 4.319 19.229 10.104 27.93 2.121 3.189 3.829 7.168 4.751 10.86 0.478 1.905 2.979 6.229 2.308 7.872-1.213 2.967-5.221-1.107-6.108 2.442-0.859 3.438-1.099 9.014 2.58 9.772 3.02 0.63 3.49-1.99 5.98 0.82" fill-rule="evenodd" clip-rule="evenodd" fill="#0E0D0D"/>
  <path id="path5" d="m149.02 186.04h1.085c-1.12-9.55-3.5-2.38-1.08 0" fill-rule="evenodd" clip-rule="evenodd" fill="#5FC46A"/>
  <path id="path7" d="m154.72 185.77c2.901-4.117 3.825-1.456 7.515-1.262 4.747 0.25 4.017-3.261 3.545-7.516-0.171-1.527-2.901-10.611-2.373-11.311 1.098-1.457 17.5-0.235 20.359-0.271 7.646-0.103 8.389 3.995 12.486 9.501 0.716 0.96 1.458 1.828 2.036 2.986 0.962 1.921 5.729 1.284 6.108 3.528 0.519 3.072-6.54-1.889-4.072 4.344 3.85-2.58 8.446-1.22 12.759-1.9-0.233-4.005-1.989-9.956-3.8-13.572-0.424-0.849-1.909-4.601-1.494-5.43 1.122-2.244 1.875-0.805 3.665-0.814 5.444-0.031 15.658 1.672 20.903-0.951 5.473-2.736 13.023-2.582 19.001-5.294 9.537-4.324 18.57-12.08 21.719-22.53 4.648-15.427-5.773-30.948-19.275-37.462-4.777-2.305-10.272-3.631-15.201-4.615-6.329-1.263-5.881-2.117-2.172-7.6-4.371 0.76-8.504 2.903-13.029 2.714 1.246 4.576 4.704 8.892 7.058 12.758 0.739-4.623-0.631-8.896 5.294-6.921 3.665 1.221 7.238 2.318 10.722 3.936 5.877 2.729 11.719 5.771 15.475 10.315 7.87 9.528 9.099 24.833-0.271 34.204-10.814 10.813-25.846 8.099-36.647-0.543-6.272-5.018-12.55-10.104-19.546-14.115-3.678-2.109-7.515-4.225-11.536-5.565-1.436-0.479-2.845-1.241-4.242-1.823-1.615-0.674-0.58 1.322-1.053 1.417-0.702 0.139-2.952 0.372-3.8 0.814-1.458 0.761-2.754 3.621-3.801 4.071-2.335 1.005-5.146-0.559-2.714-2.986 3.308-3.302 6.027-4.674 8.958-8.143 1.259-1.49 3.216-3.335 5.022-3.938 1.521-0.506 2.893-6.345 4.206-8.279 1.813-2.668 1.479-0.938 1.629-4.343 0.146-3.283-0.311-6.088 1.629-8.958-5.743 0.71-10.947 3.528-16.151 6.651-3.796 2.278-12.364 5.898-13.979 10.45-0.979 2.759 3.714 9.888 4.478 13.71 1.182 5.903-1.731 8.521-3.663 2.308-1.624-5.227 0.123-6.56-4.888-9.229-1.077-0.575-1.827-0.729-3.257-1.63-1.522-0.96-2.955-2.241-4.48-3.259-3.737-2.491-4.78-5.446-6.378-9.5-3.788-9.605-6.956-19.62-10.315-29.317-2.817-8.134-9.332-19.581-8.958-28.232 0.136-3.137 2.275-5.825 1.899-9.23-0.374-3.389-2.542-5.834-4.479-8.415-4.307-5.74-12.589-7.061-18.867-5.429 1.093 1.503 1.749 5.906-1.899 4.615-1.021-0.361-2.172-5.228-2.715-6.244-1.944-3.638-6.062-8.205-9.772-3.801 2.549 1.156 11.988 7.266 10.858 10.859-0.944 3.003-13.924 4.646-15.744 2.443-1.477-1.787 1.346-5.566-0.815-7.058-0.981-0.678-3.783 0.271-4.886 0.271-2.917 0-6.311-0.226-8.823-1.9-4.164-2.776-8.846-5.71-13.98-6.244 1.066 1.103 2.241 3.494 0.543 4.344-1.975 0.988-3.36-2.004-4.615-3.258-2.207-2.204-6.803-7.053-9.773-4.344-4.112 3.751 0.503 10.363 3.258 12.759 1.363 1.184 3.793 0.954 2.444 2.715-1.235 1.609-3.92 0.683-5.159-0.271-0.789 6.481 0.973 18.956 7.873 22.26 4.273 2.046 14.105-2.885 19.002-3.801 6.356-1.188 13.875-2.575 20.359-2.171 4.849 0.302 16.994 2.432 20.36 6.244 2.87 3.248 2.85 13.167 4.343 17.645 1.115 3.345 1.308 7.502 2.851 10.587 4.757 9.513 4.783 22.92 7.736 33.253 2.959 10.352 4.725 20.897 7.194 31.354 1.36 5.765 2.757 9.043 5.158 13.844 1.688 3.379 3.839 6.597 5.564 10.044 2.073 4.144 2.916 13.97 6.415 16.157 6.135 3.835 0.182 3.993-2.614 1.76-0.45 1.66 0.23 3.91 0.81 4.61" fill-rule="evenodd" clip-rule="evenodd" fill="#00A33D"/>
  <path id="path9" d="m194.62 185.5c3.506-0.723 1.776-4.56-1.086-5.158-0.18 1.86 0.07 3.72 1.09 5.16" fill-rule="evenodd" clip-rule="evenodd" fill="#5FC46A"/>
  <path id="path11" d="m245.66 146.14c1.063-0.028 2.222-0.555 3.258-0.814-1.75-2.83-3.25-1.47-3.26 0.81" fill-rule="evenodd" clip-rule="evenodd" fill="#86F22F"/>
  <path id="path13" d="m239.69 145.59h1.357c-0.02-0.83-0.397-2.269-0.814-2.986-0.915 0.585-1.697 1.467-2.172 2.443 0.53 0.19 1.07 0.37 1.62 0.55" fill-rule="evenodd" clip-rule="evenodd" fill="#86F22F"/>
  <path id="path15" d="m254.35 143.69c0.855-0.367 1.518-0.146 1.63-1.086-2.37-0.68-1.32 0.28-1.63 1.09" fill-rule="evenodd" clip-rule="evenodd" fill="#86F22F"/>
  <path id="path17" d="m233.17 143.42c0.503-0.797-0.111-2.45-0.543-4.071-2.61 1.41-1.55 3.21 0.54 4.07" fill-rule="evenodd" clip-rule="evenodd" fill="#86F22F"/>
  <path id="path19" d="m260.59 139.08c0.775-0.781 1.306-2.053 1.9-2.986-3.06-0.96-2.96 1.43-1.9 2.99" fill-rule="evenodd" clip-rule="evenodd" fill="#86F22F"/>
  <path id="path21" d="m225.84 137.72c0.044-1.048-0.369-2.218-0.543-3.258-2.2 1.31-1.45 2.75 0.54 3.26" fill-rule="evenodd" clip-rule="evenodd" fill="#86F22F"/>
  <path id="path23" d="m218.24 131.48c-0.042-1.235-0.556-2.589-0.814-3.801-0.702 0.333-1.712 1.271-2.172 1.9 0.88 0.92 2.34 1.79 2.98 1.9" fill-rule="evenodd" clip-rule="evenodd" fill="#86F22F"/>
  <path id="path25" d="m264.66 130.39c0.181-0.452 0.361-0.905 0.543-1.357h-0.814c0.09 0.46 0.18 0.91 0.27 1.36" fill-rule="evenodd" clip-rule="evenodd" fill="#86F22F"/>
  <path id="path27" d="m210.64 126.59c-0.271-1.629-0.543-3.257-0.814-4.886l-4.344 1.629c1.71 1.09 3.43 2.17 5.15 3.26" fill-rule="evenodd" clip-rule="evenodd" fill="#86F22F"/>
  <path id="path29" d="m200.32 121.16c-0.271-1.9-0.543-3.8-0.814-5.7-1.99 0.904-3.98 1.809-5.972 2.714 2.26 1 4.52 2 6.78 2.99" fill-rule="evenodd" clip-rule="evenodd" fill="#86F22F"/>
  <path id="path31" d="m262.49 116.28c0.169-0.326 0.73-0.12 0.271-0.813-0.25 0.26-0.07 0.43-0.27 0.81" fill-rule="evenodd" clip-rule="evenodd" fill="#fff"/>
  <path id="path33" d="m161.78 107.04c0.147-2.805 0.355-5.61 0.543-8.415-3.871 1.844-6.499 1.655-4.344 5.429 0.74 1.31 2.48 2.3 3.8 2.99" fill-rule="evenodd" clip-rule="evenodd" fill="#86F22F"/>
  <path id="path35" d="m166.39 105.96c0.322-0.297 0.415-0.615 0.814-1.086-0.235-0.444-0.863-1.239-1.357-1.629-0.66 1.66-0.08 1.94 0.55 2.72" fill-rule="evenodd" clip-rule="evenodd" fill="#fff"/>
  <path id="path37" d="m169.38 102.97c3.862-3.582 8.528-6.332 13.03-8.958 1.811-1.056 5.427-2.094 6.786-3.528 1.519-1.603 1.49-0.145 0.679-2.579-0.532-1.596 0.038-3.733 0.407-5.293-4.482 1.86-8.521 4.97-12.215 8.144-2.064 1.773-3.924 3.649-5.837 5.565-2.01 2.008-5.98 4.159-2.86 6.649" fill-rule="evenodd" clip-rule="evenodd" fill="#006B33"/>
  <path id="path39" d="m154.99 97.272c2.126-4.182 4.994-8.288 5.972-13.03-3.258 0.996-6.515 1.99-9.772 2.986 1.27 3.348 2.53 6.697 3.8 10.044" fill-rule="evenodd" clip-rule="evenodd" fill="#86F22F"/>
  <path id="path41" d="m149.83 82.614c2.688-3.883 5.041-7.541 6.787-11.944-3.405 0.851-6.946 0.636-10.045 2.171 1.08 3.257 2.17 6.515 3.25 9.773" fill-rule="evenodd" clip-rule="evenodd" fill="#86F22F"/>
  <path id="path43" d="m144.68 67.412c2.366-3.155 5.473-6.395 6.244-9.773-3.165 0.246-6.331 0.393-9.502 0.543 0.93 2.886 1.67 6.963 3.26 9.23" fill-rule="evenodd" clip-rule="evenodd" fill="#86F22F"/>
  <path id="path45" d="m139.79 54.11c1.421-1.426 2.36-3.364 3.256-5.158 2.423-4.845-2.155-3.139-5.971-2.986 0.25 2.756 1.59 5.943 2.71 8.144" fill-rule="evenodd" clip-rule="evenodd" fill="#86F22F"/>
  <path id="path47" d="m137.35 39.723c2.31-1.365 5.155-2.453 6.786-4.615-1.99-1.268-3.981-2.534-5.971-3.801 0.12 2.789-0.37 6.35-0.82 8.416" fill-rule="evenodd" clip-rule="evenodd" fill="#86F22F"/>
  <path id="path49" d="m16.275 39.723c8.183 0.485 7.841-9.527 6.786-15.202 3.934-0.835 7.847-0.05 11.673-1.629-3.588-0.393-7.082 0-10.722 0-2.592 0-3.409-1.869-4.616 0.543-0.072 0.146 1.29 3.097 1.493 3.8 0.75 2.585 0.43 5.384-0.95 8.144-1.937 3.875-5.069-0.295-6.107-0.543-2.411-0.576-4.375 1.488-7.058-1.358-3.148-3.339 0.656-4.556-0.814-7.601 0.112 0.231-2.883-1.795-3.258-2.171-1.02-1.019-0.722-3.715-0.136-4.886 1.308-2.617-0.678-5.301-0.136-8.145-0.047 0.247 1.222-3.288 1.087-2.985 1.018-2.284 1.486-4.292 3.801-5.158 1.495-0.56 2.725-0.266 4.071 0.407 1.462 0.731 1.251 2.696 1.9 3.122 2.201 1.441 7.058 0.156 7.058 4.479 0 1.99 3.563 5.551 1.629 6.516-1.026 0.511-3.224 4.545-4.479 2.036-0.734-1.47-0.875-2.499-2.85-2.443-2.464 0.069-0.1 3.541 0.543 4.343 1.001 1.25-1.074 1.047 1.357 1.628-0.067-0.017 1.045-1.626 2.028-1.616 2.545 0.027 5.089 0.053 7.633 0.08 5.552 0.058 11.104 0.115 16.656 0.174 2.554 0.026-0.133-1.637-1.947-1.662-5.681-0.078-11.361-0.155-17.042-0.233 2.896-4.875-2.024-13.092-6.516-15.338-5.2-2.6-10.581-7.919-14.928 0.679-3.377 6.678-2.923 15.933-0.543 22.531 1 2.773 1.505 7.286 4.072 9.23 2.768 2.097 5.966 1.021 8.958 2.443 0.475 0.226 0.942 0.49 1.357 0.815" fill-rule="evenodd" clip-rule="evenodd" fill="#0E0D0D"/>
  <path id="path51" d="m134.9 25.335c2.058-2.518 4.735-6.226 5.159-9.5-2.408 0.185-4.635 1.229-6.788 2.307-4.99 2.502-2.18 3.379 1.63 7.193" fill-rule="evenodd" clip-rule="evenodd" fill="#86F22F"/>
  <path id="path53" d="m94.999 24.792c2.533-0.362 5.067-0.724 7.601-1.085-1.404-2.931-4.85-6.284-8.143-7.058-0.219 2.442-1.675 7.119 0.542 8.143" fill-rule="evenodd" clip-rule="evenodd" fill="#FFBF00"/>
  <path id="path55" d="m56.451 23.978c5.336-0.495-0.4-7.698-3.8-7.601-4.016 0.115 1.957 5.833 3.8 7.601" fill-rule="evenodd" clip-rule="evenodd" fill="#0E0D0D"/>
  <path id="path57" d="m95.542 22.349c1.902-0.283 2.486-3.494 0.543-3.8-1.787-0.283-2.008 3.354-0.543 3.8" fill-rule="evenodd" clip-rule="evenodd" fill="#0E0D0D"/>
  <path id="path59" d="m35.82 18.277h4.344c-0.384-2.692-9.458-2.622-11.673-1.086 1.621 1.174 5.02 0.909 7.329 1.086" fill-rule="evenodd" clip-rule="evenodd" fill="#0E0D0D"/>
  <path id="path61" d="m126.49 18.006c0.453-3.529 0.905-7.059 1.357-10.587-2.985 1.994-4.458 5.711-6.243 8.688 1.62 0.647 3.23 1.32 4.88 1.899" fill-rule="evenodd" clip-rule="evenodd" fill="#86F22F"/>
  <path id="path63" d="m112.37 15.563c1.329 0.073 2.744-0.183 4.073-0.271-1.226-2.451-2.411-5.695-4.073-7.602-0.08 2.461-0.49 5.905 0 7.873" fill-rule="evenodd" clip-rule="evenodd" fill="#86F22F"/>
  <metadata>
    <rdf:RDF>
      <cc:Work>
        <dc:format>image/svg+xml</dc:format>
        <dc:type rdf:resource="http://purl.org/dc/dcmitype/StillImage"/>
        <cc:license rdf:resource="http://creativecommons.org/licenses/publicdomain/"/>
        <dc:publisher>
          <cc:Agent rdf:about="http://openclipart.org/">
            <dc:title>Openclipart</dc:title>
          </cc:Agent>
        </dc:publisher>
        <dc:title>Architetto -- Dragon</dc:title>
        <dc:date>2009-05-03T05:32:45</dc:date>
        <dc:description>Cute winged dragon by Francesco 'Architetto' Rollandin.</dc:description>
        <dc:source>http://openclipart.org/detail/25737/architetto----dragon-by-anonymous-25737</dc:source>
        <dc:creator>
          <cc:Agent>
            <dc:title>Anonymous</dc:title>
          </cc:Agent>
        </dc:creator>
        <dc:subject>
          <rdf:Bag>
            <rdf:li>animal</rdf:li>
            <rdf:li>clip art</rdf:li>
            <rdf:li>clipart</rdf:li>
            <rdf:li>creature</rdf:li>
            <rdf:li>dragon</rdf:li>
            <rdf:li>fantasy</rdf:li>
            <rdf:li>green</rdf:li>
            <rdf:li>image</rdf:li>
            <rdf:li>media</rdf:li>
            <rdf:li>png</rdf:li>
            <rdf:li>public domain</rdf:li>
            <rdf:li>svg</rdf:li>
          </rdf:Bag>
        </dc:subject>
      </cc:Work>
      <cc:License rdf:about="http://creativecommons.org/licenses/publicdomain/">
        <cc:permits rdf:resource="http://creativecommons.org/ns#Reproduction"/>
        <cc:permits rdf:resource="http://creativecommons.org/ns#Distribution"/>
        <cc:permits rdf:resource="http://creativecommons.org/ns#DerivativeWorks"/>
      </cc:License>
    </rdf:RDF>
  </metadata>
</svg>
