<?xml version="1.0"?>
<svg xmlns:rdf="http://www.w3.org/1999/02/22-rdf-syntax-ns#" xmlns="http://www.w3.org/2000/svg" xmlns:cc="http://creativecommons.org/ns#" xmlns:dc="http://purl.org/dc/elements/1.1/" xmlns:svg="http://www.w3.org/2000/svg" id="svg3751" viewBox="0 0 400.1 223.52" version="1.1">
  <g id="layer1" transform="translate(-363.35 -125.32)">
    <path id="path9417" d="m-25.357 316.65c0 6.1146-5.0368 11.071-11.25 11.071s-11.25-4.9568-11.25-11.071c0-6.1146 5.0368-11.071 11.25-11.071s11.25 4.9568 11.25 11.071z" fill-rule="evenodd" transform="matrix(.16811 0 0 .16811 70.879 297.53)" stroke="#000" stroke-linecap="round" stroke-width="8.216e11"/>
    <g id="g3578" transform="matrix(1.9018 0 0 1.9018 -327.66 -314.57)">
      <path id="path11295-7" d="m553.51 336.88 14.743 0.2027 5.4759-5.5742-26.548-0.2027-5.7263 7.6013-7.8785-1.5203 7.3598-6.385-9.7534 0.8108-8.6058 8.6148 16.007 1.0135-3.8632 3.2432-15.107 0.4054-4.1226 3.75 29.427-0.8108 1.6425-6.1824 9.5418-1.1149-4.6323 6.2837h8.1318l7.2406-8.8175-16.201 1.723 2.8676-3.0405z" fill-rule="evenodd"/>
      <path id="path11297-4" d="m555.95 339.39c0 0.33674-2.9378 1.4879-3.2391 1.7875-0.59094 0.58767 3.1264 1.876-1.4618 2.7967-3.4619 0.69469-2.3191-1.809-4.8705-1.9909-2.5481-0.18166-0.93136 3.2103-4.0049 2.9524-0.86924-0.0729-2.2148-1.5907-2.6534-1.8679-0.73316-0.46337-4.5985 1.1947-6.222 1.3008-1.4716 0.0962 0.36975-1.5821-2.4447-2.8953-1.4224-0.66366 2.691-1.3569 3.2726-1.6396 1.3184-0.64091-0.68585-2.2302 1.0276-3.0199 2.6691-1.2301 5.0616 1.8329 5.1477 1.9849 0.1833 0.32351-1.3511-1.2376-0.53543-1.3611 0.81571-0.12353-1.3562-1.6407 1.6705-1.6214 4.641 0.0296 0.62633 3.3403 5.3564 2.1636 1.9398-0.48254-0.92554-3.5122 4.0105-3.0261 3.251 0.32011 1.2395 1.9626 1.5847 2.2545 0.34521 0.29189 3.362 1.8451 3.362 2.1819z" fill-rule="evenodd" stroke="#000" stroke-linecap="round" stroke-width="1.0525" fill="#fff"/>
      <path id="path11299-0" d="m534.98 342.45c0.20701 0.0748 0.4336 0.1031 0.66043 0.12612 0.17192 0.0102 0.34921 0.0389 0.51565-0.004 0.2934-0.13033 0.0264-0.011-0.61434 0.25102-0.0272 0.0111 0.0537-0.023 0.0802-0.0349 0.0567-0.0255 0.11063-0.0541 0.16818-0.0785 0.27885-0.11824 0.55929-0.23452 0.83894-0.35177-1.3075 0.4846-0.69251 0.32582-0.46833 0.17864 0.0421-0.0276 0.0409-0.0315 0.0709-0.0661 0.0555-0.1015 0.0512-0.21344 0.0521-0.32091-0.004-0.10692 0.009-0.21423-0.0228-0.31923-0.0451-0.11535-0.15165-0.20793-0.24073-0.30625-0.13166-0.12463-0.23134-0.26546-0.31902-0.40842-0.073-0.14791-0.1458-0.29574-0.22499-0.44198-0.072-0.12158-0.1286-0.21557-0.0418-0.34105 0.33299-0.27201 0.82625-0.39803 1.3-0.46706 0.32237-0.0474 0.64611-0.0868 0.97349-0.11013 0.33326-0.0322 0.66865-0.0497 1.0041-0.064 0.10372-0.004 0.20756-0.007 0.3114-0.009l-0.70878 0.37463c-0.0999 0.00096-0.19971 0.002-0.2995 0.005-0.33218 0.0105-0.66336 0.0307-0.99307 0.0623-0.32857 0.0271-0.65434 0.0684-0.97703 0.12092-0.0982 0.0174-0.14699 0.0247-0.24185 0.0467-0.034 0.008-0.068 0.016-0.10103 0.0258-0.0282 0.008-0.10867 0.0399-0.0826 0.0285 0.2072-0.0913 0.94949-0.40981 0.62642-0.26805-0.13789 0.0923-0.0647 0.17781-0.004 0.28719 0.0729 0.14691 0.14708 0.29339 0.21653 0.44118 0.0858 0.1398 0.18833 0.27542 0.31813 0.39656 0.0963 0.10395 0.20683 0.20234 0.25952 0.32394 0.0395 0.10954 0.032 0.2211 0.0312 0.33365-0.00092 0.11469 0.004 0.23144-0.032 0.34382-0.045 0.0987-0.1319 0.14673-0.25327 0.19832-0.2769 0.11771-0.5541 0.23505-0.83114 0.35256 0.21796-0.0916 0.43568-0.18341 0.6539-0.27464 0.029-0.0121-0.0584 0.0239-0.0862 0.0373-0.20852 0.1006 0.0476-0.0114-0.15865 0.075-0.27575 0.11538-0.54887 0.2341-0.8268 0.34671-0.0243 0.01-0.0525 0.0134-0.0787 0.0202-0.17423 0.0184-0.35007-0.007-0.52311-0.0233-0.23828-0.0296-0.47713-0.0635-0.69822-0.13725l0.74683-0.34999z" fill-rule="evenodd"/>
      <path id="path11301-9" d="m416.23 242.51c-3.7516 3.3236-4.5123 1.9572-10.035 2.5331-11.838 3.3087-24.566 10.813-30.099 22.601-0.85485 3.6174-2.5895 8.7127-4.7017 13.167-2.1122 4.454-5.7067 10.476-6.6512 14.244-3.4378 13.714-0.96502 38.689 12.05 44.656 16.319 7.4813 33.577-15.657 44.117-26.653 6.2871-6.5589 9.3137-16.727 12.075-23.534-0.0562-2.4045 0.29743-2.4796 2.4228-1.1026-0.46339 6.5069-0.982 10.782 1.1505 17.441-1.2584 2.5757-4.1169 11.553-2.9436 20.512-0.0281 2.0078-5.1997 0.97013-5.3988 10.659-0.10013 4.8737 2.3971 7.3731 5.0192 7.0841 1.7392 4.8567 9.1255 3.9784 13.861 4.0499 4.6781 0.0706 17.133-0.35272 17.462-5.1394 0.56357-8.1429-1.5187-7.0811-2.1248-9.3873-0.98276-3.7391 2.5568-6.4757 0.72746-13.73-0.73628-2.9197-1.1373-6.2847 1.3243-7.9349 14.084 5.222 25.436 1.7827 29.266 0.93834-1.1806 10.824 4.8077 10.68 3.3748 19.205-0.98547 3.444-5.6084 0.036-7.2118 10.159-0.97002 6.1239 7.7849 6.1109 13.226 6.0818 9.2332-0.0494 14.992-0.87599 15.775-6.7588 1.2078-9.0764-2.6427-6.838-1.6871-8.8676 2.0069-4.2621 2.2763-18.42-0.36538-25.794 5.0718-6.824 6.2144-7.316 7.0721-15.425 3.1624 2.1567 2.1268 2.4308 13.3 5.1814 4.1085 1.0114 8.2263-7.5459 3.0584-8.1352-2.0816-0.23739-12.141-1.8112-12.966-8.4779 4.1928-4.3199 3.8378-12.214 3.9992-16.759 3.3026-5.3456 1.9911-8.2252 2.4513-13.021 0.21912-2.2833 3.1913-4.8162 2.3663-6.9489-1.6184-4.1836-9.992-11.637-14.363-12.037-2.5898-0.23712-9.4877 4.3779-8.9397 7.8202 0.68405 4.297 2.351 3.8888 4.804 6.3628-2.355 1.9461-3.851-1.9974-14.451 8.9042-3.8034-2.4998-7.9493-5.0698-14.506-5.3515-19.855-0.84762-6.7918 0.4673-23.331-5.0966-3.7405-1.2583-12.264-0.4191-18.204 1.3489-3.7582 1.1186-4.7257 1.0029-10.443 1.3673-5.4302 1.5597-5.1982 0.86716-10.092 2.1332-0.77482 0.51312-2.3823-3.1439-5.8045-3.2005-0.0478-3.3252-4.0097-3.6045-4.5842-3.0955z" fill-rule="evenodd"/>
      <path id="path11303-4" d="m449.14 262.72c-6.0929 0-11.664 14.269-11.547 26.829 0.0641 6.9178 1.1497 12.556 2.8 16.895-1.3906 2.7043-2.0672 7.115-2.1223 14.268-0.0261 3.425 0.21473 6.0561 0.65141 8.0796-6.2662 1.3474-7.7802 4.4321-7.7802 7.7959 0 4.6868 1.9215 6.3943 11.631 6.283 11.924-0.13678 15.37-0.40902 16.049-5.6053 0-2.4937-0.5978-4.8752-2.3588-6.5877 0.76486-2.1351 1.2129-5.2579 1.3396-9.7974-0.0499-3.3806-0.42271-6.3888-1.0402-8.9517 3.4095-6.597 5.7944-18.023 5.7944-26.456-0.67926-16.636-7.3241-22.752-13.417-22.752z" fill="#fff" fill-rule="evenodd"/>
      <path id="path11305-8" d="m431.25 251.8c11.164-1.7267 27.131-10.498 38.545-3.9042 10.804 6.2412 24.666 0.99131 31.757 8.9986 10.474 11.827 13.325 39.611 1.3585 49.925-13.296 11.461-45.088 5.0158-58.076-6.7925-7.4743-14.885-6.3263-35.82-13.585-48.227z" fill-rule="evenodd" stroke="#000" stroke-linecap="round" stroke-width="1.524" fill="#fff"/>
      <path id="path11307-8" d="m498.75 270.91s-3.9067 12.607-4.3302 17.491c-0.82669 9.5328 2.2565 17.622 1.9222 26.643-0.22067 5.9551 5.3796 13.126 4.1062 18.952-0.3923 1.7946-6.2764 0.11317-8.2649 6.368-2.284 7.1843 4.8309 5.3599 13.784 5.8586 10.794 0.60117 11.602-4.2338 10.672-9.0806-0.75122-3.9168-2.8962-2.4526-1.6193-5.4866 1.4814-3.5201 1.0987-11.572 0.71162-15.744-1.0128-11.003-3.1992-7.6651-0.84907-10.104 2.4754-2.5688 5.4904-10.91 7.0472-15.962 1.1154-3.6193-1.7029-6.7783-0.33962-9.1699 1.1576-2.0308 2.667 0.0872 3.7359-2.0378 3.5711-7.0982 1.7335-10.618 2.5472-14.01 0.77127-3.215 3.0364-5.1571 3.3962-9.8492 0.18339-2.3911-0.30469-3.2375 0.0849-5.6038 0.19303-1.1724 2.0572-5.1494 1.1038-5.8586-1.548-1.1515-8.7739 4.5003-13.681 5.4123-4.5913 0.85339-6.2323 1.2648-9.8253 4.1105-7.186 5.6914-8.3338 10.94-8.3338 10.94" fill="#fff" fill-rule="evenodd"/>
      <path id="path11309-2" d="m520.07 244.08s-6.0566-1.2852-4.3814-5.5211c2.7463-4.5463 6.6638-3.9896 10.104-2.717 2.643 0.97772 6.9785 4.7259 7.3869 7.5142 0.24573 1.6779-2.25 5.7736-2.25 5.7736" fill="#fff" fill-rule="evenodd"/>
      <path id="path11311-4" d="m524.31 250.23s-3.7879-2.1675-5.3229-2.1597c-0.27998 0.001 2.5125-2.536 2.3088-3.5291-0.23399-1.1403 6.2831-0.6368 6.2831-0.6368" fill-rule="evenodd" stroke="#000" stroke-linecap="round" stroke-width="2.024" fill="#fff"/>
      <path id="path11313-5" d="m515.3 276.58s7.9201 15.762 20.857 17.475c3.5709 0.47291 8.7695-3.286 0.46074-4.3785-11.694-1.5377-17.221-15.61-17.221-15.61" fill-rule="evenodd" stroke="#000" stroke-linecap="round" stroke-width="1.524" fill="#fff"/>
      <path id="path11315-5" d="m537.45 329.27c-2.3936-6.9405 1.0337-26.382-9.092-32.922" stroke="#000" stroke-linecap="round" stroke-width=".82372" fill="none"/>
      <path id="path11317-1" d="m545.43 333.82c-3.8335-14.723-4.3592-25.586-13.178-33.769" stroke="#000" stroke-linecap="round" stroke-width=".82372" fill="none"/>
      <path id="path11319-7" d="m548.43 326.08c-2.4649-14.188-13.102-21.389-16.333-28.64" stroke="#000" stroke-linecap="round" stroke-width=".82372" fill="none"/>
      <path id="path11321-1" d="m531.07 327.12c1.7777 1.5803-1.7325-5.2964-3.9625-6.1239-2.6855-0.99643-5.3177 3.1702-1.6811 3.3621 3.5792 0.18894 3.9172 1.2272 5.6436 2.7618z" fill-rule="evenodd" stroke="#000" stroke-linecap="round" stroke-width="1.316" fill="#fff"/>
      <path id="path11323-1" d="m530.72 336.8c1.597 0.24457-3.0432-3.378-4.5894-2.7195-1.862 0.79304-1.6511 5.8692 0.41218 3.8279 2.0307-2.009 2.6264-1.3459 4.1772-1.1084z" fill-rule="evenodd" stroke="#000" stroke-linecap="round" stroke-width="1.314" fill="#fff"/>
      <path id="path11325-5" d="m554.97 321.24c-1.6277 0.31486 3.0079-3.1316 4.6127-2.6581 1.9326 0.57023 1.8803 4.9968-0.29873 3.3543-2.1446-1.6166-2.7333-1.0019-4.314-0.69617z" fill-rule="evenodd" stroke="#000" stroke-linecap="round" stroke-width="1.413" fill="#fff"/>
      <path id="path11327-2" d="m556.01 333.67c-1.6439-0.63186 4.0821-0.63752 5.3817 0.54044 1.5651 1.4186-0.29646 4.5249-1.6518 2.2178-1.3339-2.2707-2.1336-2.1447-3.7299-2.7582z" fill-rule="evenodd" stroke="#000" stroke-linecap="round" stroke-width="1.012" fill="#fff"/>
      <path id="path11329-7" d="m542.05 340.95c0.17011 0.16137 0.33294 0.3293 0.48561 0.50722 0.16806 0.20395 0.32591 0.41574 0.4262 0.66141 0.0759 0.21214 0.0751 0.44032 0.081 0.66278-0.0112 0.19988 0.0288 0.38487 0.12197 0.56065 0.0151 0.0145 0.0263 0.0348 0.0454 0.0434 0.0377 0.0171 0.0801-0.0177 0.10744-0.0326-0.22708 0.12463-0.45028 0.2566-0.68124 0.37388-0.0399 0.0203 0.0721-0.0532 0.10638-0.082 0.0373-0.0313 0.0722-0.0653 0.10837-0.0979 0.28364-0.27283 0.483-0.60939 0.66848-0.95232 0.17551-0.3327 0.30162-0.68917 0.41871-1.0459 0.0796-0.23821 0.16471-0.4733 0.21179-0.7205 0.018-0.16745 0.0625-0.32963 0.12876-0.48409 0.21071-0.41235 0.58102-0.49739 1.0128-0.74851 0.21921-0.0371 0.44449-0.0221 0.66596-0.021 0.34882 0.0108 0.69937-0.0206 1.046 0.0272 0.18777 0.0313 0.36764 0.0971 0.55058 0.14854 0.18741 0.05 0.37655 0.0858 0.56952 0.10519 0.0299 0.002 0.0597 0.005 0.0897 0.006 0.0687 0.004 0.0963 0.0112 0.16203-0.0136 0.0266-0.01 0.0996-0.0544 0.0749-0.0404-0.72611 0.41307-0.88874 0.52415-0.60026 0.33185 0.13001-0.0989 0.24379-0.21676 0.35831-0.33266l0.80677-0.33493c-0.11463 0.11697-0.22735 0.23626-0.35058 0.34433-0.29217 0.23821-0.61728 0.49803-0.99293 0.55713-0.0873 0.0137-0.17504-0.005-0.26178-0.0119-0.19579-0.0256-0.38894-0.0647-0.57974-0.11578-0.17663-0.0522-0.35167-0.11347-0.53348-0.14463-0.34142-0.0435-0.68671-0.0214-1.03-0.0239-0.21916 0.004-0.46007-0.0152-0.66509 0.0738 0.23579-0.13853 0.47144-0.27729 0.70737-0.41559 0.0165-0.01-0.0337 0.0182-0.049 0.0297-0.074 0.0555-0.12832 0.14017-0.18038 0.21465-0.0759 0.14507-0.12307 0.3037-0.14317 0.46631-0.0489 0.25412-0.13244 0.49586-0.22243 0.73805-0.12026 0.36217-0.25132 0.72344-0.4237 1.0643-0.18253 0.34437-0.37161 0.68513-0.6413 0.97104-0.35539 0.344-0.36079 0.32027-1.0337 0.66506-0.0828 0.0424-0.17235-0.0519-0.21101-0.10745-0.0979-0.18756-0.15092-0.3852-0.1371-0.5988-0.002-0.21291-0.003-0.42993-0.0666-0.63518-0.0901-0.23944-0.2391-0.44551-0.40456-0.63937-0.154-0.17233-0.3145-0.34159-0.49693-0.48415l0.75102-0.46965z" fill-rule="evenodd"/>
      <path id="path11331-6" d="m549.79 342.53c-0.11363-0.0691-0.23462-0.13496-0.36213-0.19639-0.19899-0.0808-0.3221-0.1917-0.41882-0.31411-0.12787-0.21675-0.12772-0.44798-0.13889-0.6735 0.004-0.29924 0.11727-0.59097 0.28256-0.87467 0.16454-0.2718 0.40504-0.52538 0.72138-0.75279 0.35802-0.21127 0.8424-0.39009 1.3703-0.42812 0.18903-0.007 0.37865-0.003 0.56789-0.001 0.15609-0.001 0.31389 0.0123 0.46319-0.017 0.28131-0.11502-0.0426 0.0194-0.64064 0.19341-0.0207 0.006 0.0347-0.0175 0.0485-0.0278 0.0528-0.0395 0.0674-0.0869 0.0847-0.1336 0.0574-0.14916-0.0222-0.28669-0.12584-0.42346-0.14252-0.16192-0.3404-0.30662-0.5556-0.4414-0.14124-0.0845-0.27784-0.17116-0.41595-0.25713-0.0534-0.0374-0.029-0.0182-0.0736-0.0574l0.76575-0.24335c0.0374 0.0347 0.0164 0.0173 0.0634 0.0522 0.12958 0.089 0.26154 0.17665 0.39778 0.26267 0.21331 0.14115 0.4173 0.29 0.56739 0.4542 0.11215 0.14203 0.20607 0.2864 0.1621 0.44339-0.0715 0.29591-0.31365 0.34198-0.97905 0.47208-0.15581 0.0137-0.31351 0.004-0.47067 0.004-0.18651-0.002-0.37444-0.005-0.55977 0.009-0.0772 0.009-0.105 0.01-0.17999 0.0262-0.0321 0.007-0.12317 0.0338-0.0937 0.024 1.2035-0.40227 0.60346-0.21505 0.38386-0.0931-0.10716 0.0706-0.16892 0.1079-0.26436 0.1861-0.20988 0.17197-0.3658 0.36282-0.49164 0.5572-0.16821 0.2793-0.27606 0.56191-0.28229 0.85721 0.0124 0.21835 0.0165 0.4422 0.14488 0.65134 0.095 0.11606 0.22142 0.2163 0.41016 0.29291 0.13202 0.0637 0.25576 0.13241 0.38163 0.19973l-0.76262 0.24963z" fill-rule="evenodd"/>
      <path id="path11333-1" d="m542.06 340.68c0.0115-0.17316 0.0127-0.34666 0.0148-0.52 0.006-0.29124 0.0147-0.58238-0.0168-0.87297-0.0308-0.27014-0.0981-0.537-0.16029-0.80406-0.0374-0.15285-0.0594-0.30734-0.0709-0.46222-0.005-0.0675-0.004-0.13508-0.004-0.20264l0.78556-0.28648c-0.00003 0.0671 0.00058 0.13417 0.00095 0.20126 0.004 0.1549 0.0166 0.3096 0.0466 0.46314 0.0519 0.27059 0.12183 0.53962 0.15142 0.81222 0.034 0.29061 0.0267 0.58156 0.0318 0.87297 0.002 0.16973 0.003 0.33966 0.0148 0.5092l-0.79397 0.28958z" fill-rule="evenodd"/>
      <path id="path11335-4" d="m441.92 291.79c0.0641 6.9201 0.8371 13.836 2.4884 18.176-1.3885 2.7048-2.062 7.1153-2.1171 14.263-0.0261 3.425 0.21473 6.0562 0.65142 8.0796-6.2705 1.3469-7.7854 4.4312-7.7854 7.7959 0 4.6868 1.9267 6.3943 11.636 6.283 11.924-0.13678 15.364-0.40902 16.044-5.6053 0-2.4948-0.59064-4.875-2.3535-6.5877 0.76447-2.135 1.2077-5.2592 1.3343-9.7974-0.0499-3.3806-0.41746-6.3888-1.0349-8.9517 3.4095-6.597 5.7892-18.023 5.7892-26.456-0.67926-16.636-7.3188-22.752-13.412-22.752" fill-rule="evenodd" stroke="#000" stroke-linecap="round" stroke-width="2.024" fill="#fff"/>
      <path id="path11337-2" d="m430.74 254.83s-12.506-16.454-38.664 1.2008c-6.1465 4.1485-12.295 11.455-14.645 18.115-2.789 7.9067-3.5709 10.659-6.6413 15.858-6.9394 11.75-4.4989 44.377 7.8085 47.861 15.386 4.355 32.836-19.832 41.985-31.261 13.188-16.473 11.392-43.146 11.392-43.146" fill="#fff" fill-rule="evenodd"/>
      <path id="path11339-3" d="m428.82 250.75c6.7782 5.2073 8.8599 20.039 4.0826 33.381-0.48817 1.3633 4.2578 1.8218 4.803 0.4803 4.2828-10.537 3.3637-25.227-2.1614-35.062-1.2018-2.1393-8.6701-0.29412-6.7242 1.2008z" fill-rule="evenodd"/>
      <path id="path11341-2" d="m444.19 274.77 2.8818 41.546" fill-opacity=".57082" fill="#fff" fill-rule="evenodd"/>
      <path id="path11343-2" d="m393.28 284.61s-1.3283 5.7692 3.6023 4.0826c2.9981-1.0256 1.6172-8.9506 2.834-12.762 1.2167-3.8112 3.5301-2.668 3.5301-2.668" stroke="#000" stroke-linecap="round" stroke-width="2.024" fill="none"/>
      <path id="path11345-1" d="m403.31 281.19c0 1.0274-0.84725 1.8612-1.8912 1.8612-1.0439 0-1.8912-0.8338-1.8912-1.8612s0.84726-1.8612 1.8912-1.8612 1.8912 0.83381 1.8912 1.8612z" fill-rule="evenodd" stroke="#000" stroke-linecap="round" stroke-width="1.736"/>
      <path id="path11347-6" d="m383.28 339.48c7.0722-3.6185 10.393-12.508 1.5855-18.573-3.4942-1.5932-13.151-1.1281-14.949 2.265-2.1452 4.0477 2.5192 14.846 13.364 16.308z" fill-rule="evenodd"/>
      <path id="path11351-5" d="m419.9 308.69c5.5386-18.137-8.6975-24.434-5.7736-26.83 3.4586 2.3566 8.468 1.5118 10.019 1.6981 2.1797 4.1766 0.48695 17.691-4.2453 25.132z" stroke="#000" stroke-linecap="round" stroke-width="1.524" fill="none"/>
      <path id="path11353-7" d="m416.27 285.96c-0.44503 0.45548 0.39722 1.5497 0.99765 1.7618 0.67291 0.23773 0.33554-0.86783 1.6132-1.1675 1.795-0.5667-2.0582-1.16-2.6109-0.59434z" fill-rule="evenodd"/>
      <path id="path11355-6" d="m425.45 288.72c0.44503 0.45547-0.39722 1.5497-0.99765 1.7618-0.67292 0.23773-0.33554-0.86783-1.6132-1.1675-1.795-0.56671 2.0582-1.16 2.6109-0.59434z" fill-rule="evenodd"/>
      <path id="path11357-1" d="m424.77 295.43c0.44503 0.45548-0.39723 1.5497-0.99766 1.7618-0.67291 0.23773-0.33553-0.86783-1.6132-1.1675-1.795-0.56671 2.0582-1.16 2.6109-0.59435z" fill-rule="evenodd"/>
      <path id="path11359-8" d="m419.44 292.54c-0.44504 0.45548 0.39722 1.5497 0.99765 1.7618 0.67291 0.23773 0.33553-0.86783 1.6132-1.1675 1.795-0.5667-2.0582-1.16-2.6109-0.59434z" fill-rule="evenodd"/>
      <path id="path11361-9" d="m408.33 264.62s0.96832-8.208 5.6887-14.264c7.5524-9.6896 5.9458-0.59902 6.6227 0.50944 1.886 3.0881-0.93397 11.887-0.93397 11.887" fill-rule="evenodd" stroke="#000" stroke-linecap="round" stroke-width="2.024" fill="#fff"/>
      <path id="path11363-2" d="m412.66 263.18c1.6056-5.2718 3.2915-10.463 7.5567-13.076" fill-rule="evenodd" stroke="#000" stroke-linecap="round" stroke-width="2.024" fill="#fff"/>
      <path id="path11367-9" d="m494.44 275.37c-7.1706 4.1231-5.0902 22.94 0.71427 34.688" stroke="#000" stroke-linecap="round" stroke-width="2.024" fill="none"/>
      <path id="path11369-5" d="m519.05 257.34c-0.65117-0.0339-2.4787 1.2152 0.53656 0.74916 1.9042-0.29428 8.2215 2.3553 8.767 5.7055 0.55777-1.2186 0.72524-1.3182 1.2266-2.6238-4.3639 0.33992-3.9147-3.4868-10.53-3.8309z" fill-rule="evenodd" stroke="#000" stroke-linecap="round" stroke-width="1.524"/>
    </g>
  </g>
  <metadata>
    <rdf:RDF>
      <cc:Work>
        <dc:format>image/svg+xml</dc:format>
        <dc:type rdf:resource="http://purl.org/dc/dcmitype/StillImage"/>
        <cc:license rdf:resource="http://creativecommons.org/licenses/publicdomain/"/>
        <dc:publisher>
          <cc:Agent rdf:about="http://openclipart.org/">
            <dc:title>Openclipart</dc:title>
          </cc:Agent>
        </dc:publisher>
        <dc:title>bully</dc:title>
        <dc:date>2011-10-22T08:25:00</dc:date>
        <dc:description>bulli, bullterrier, clip art, clipart, dog, drunken-duck, </dc:description>
        <dc:source>http://openclipart.org/detail/164389/bully-by-drunken_duck</dc:source>
        <dc:creator>
          <cc:Agent>
            <dc:title>drunken_duck</dc:title>
          </cc:Agent>
        </dc:creator>
        <dc:subject>
          <rdf:Bag>
            <rdf:li>bulli</rdf:li>
            <rdf:li>bullterrier</rdf:li>
            <rdf:li>clip art</rdf:li>
            <rdf:li>clipart</rdf:li>
            <rdf:li>dog</rdf:li>
            <rdf:li>drunken-duck</rdf:li>
          </rdf:Bag>
        </dc:subject>
      </cc:Work>
      <cc:License rdf:about="http://creativecommons.org/licenses/publicdomain/">
        <cc:permits rdf:resource="http://creativecommons.org/ns#Reproduction"/>
        <cc:permits rdf:resource="http://creativecommons.org/ns#Distribution"/>
        <cc:permits rdf:resource="http://creativecommons.org/ns#DerivativeWorks"/>
      </cc:License>
    </rdf:RDF>
  </metadata>
</svg>
