<?xml version="1.0"?>
<svg xmlns:rdf="http://www.w3.org/1999/02/22-rdf-syntax-ns#" xmlns="http://www.w3.org/2000/svg" xmlns:cc="http://web.resource.org/cc/" xmlns:dc="http://purl.org/dc/elements/1.1/" xmlns:sodipodi="http://inkscape.sourceforge.net/DTD/sodipodi-0.dtd" xmlns:svg="http://www.w3.org/2000/svg" id="Layer_1" style="enable-background:new 0 0 416.359 295.835" space="preserve" sodipodi:version="0.32" viewBox="0 0 416.359 295.835" version="1.1" sodipodi:docname="pennuto02.svg" sodipodi:docbase="F:\openclip\svg da inviare">
  <sodipodi:namedview id="base" bordercolor="#666666" borderopacity="1.0" pagecolor="#ffffff"/>
  <path id="path3" fill-rule="evenodd" clip-rule="evenodd" d="m277.46 23.436c4.86 7.023 11.04 14.018 16.54 21.164 1.954 2.539 7.722 7.309 7.939 10.582 0.358 5.365-4.226 5.032-8.602 0.661-6.965-6.957-23.7-12.496-33.085-16.535-14.011-6.029-21.743-6.34-16.213 10.251 6.365 19.093 25.001 33.488 31.432 51.918 2.637 7.562-0.588 24.103-3.971 31.085-0.191 0.394-8.886 11.243-8.271 11.243-6.627 0-5.701 9.815-6.946 13.889-7.21 23.581-16.717 36.133-37.058 46.296-10.24 5.116-20.885 8.019-25.609 17.465-4.944 9.884-3.838 45.952 11.053 42.059-4.149-2.657-3.001-3.527-3.309-7.937 2.382-0.094 26.535-1.658 27.46 2.977 1.759 8.79-18.923 15.626-22.167 8.268-14.199 12.079-32.799 5.291-49.064 5.291-9.788 0-20.176 0.43-29.804-1.634-6.06-1.297-23.124-2.176-27.006-6.965-11.302-13.942 33.095-18.519 41.026-18.519 9.346 0 5.496 6.614-2.647 6.614-10.504 0-22.71 3.386-32.424 7.274 16.82 8.722 39.195 6.614 57.569 6.614-0.818-0.334-20.274-6.692-9.595-10.251 5.086-1.695 10.806-2.107 16.212-1.653-1.108-6.612-3.967-13.039-3.309-19.842 0.485-5.009 9.48-17.717 7.61-20.833-4.159-6.928-28.739 3.637-35.733 3.637-11.275 0-23.707-11.722-32.754-11.903-4.403-0.09-19.38 10.122-15.219-3.308-7.642 0.978-19.239-2.412-12.573-10.582 0.138-0.169 9.582-3.506 11.911-5.291 6.261-4.801 13.722-10.862 17.205-17.857 5.325-10.696 8.639-19.672 16.211-29.762 8.053-10.73 13.34-14.4 24.483-21.826 13.312-8.87 19.562-12.299 36.953-14.344 9.333-1.098 18.807 1.539 27.809 3.615 6.156 1.419 22.611 11.458 27.547 10.067 16.824-4.74-4.603-28.347-6.617-34.392-1.913-5.741-7.804-12.038-10.241-19.186-3.418-10.017-6.656-18.005-11.926-26.78-9.244-15.392 19.222-31.507 30.77-34.392 11.99-2.998 42.37 4.949 34.41 22.816"/>
  <path id="path5" d="m274.15 21.451c-3.031 7.405-1.586 9.051-8.604 11.244-4.375 1.367-12.829-1.003-15.549-4.63-6.147-8.197-10.896 1.966-14.889 5.952-4.647 4.642 1.521 13.607 3.308 17.857 7.734 18.388 30.459 39.822 29.777 59.524-0.238 6.895-3.116 18.047-7.278 23.809-3.187 4.411-8.602 3.956-8.602 10.913 0 11.028-9.729 27.649-15.22 36.045-11.755 17.974-36.435 21.825-55.915 21.825-18.963 0-39.656 8.079-57.899 0.662 13.907 0.992 23.66-12.408 37.717-13.89 0.513 12.322 10.996-2.393 14.228-5.621 4.71-4.708 15.494-2.571 22.167-8.268 6.271-5.354 12.478-8.506 17.866-13.889 4.008-4.002 19.14-6.589 18.527-14.55-0.091-1.193-6.466-5.682-8.271-6.283-3.88-1.292-6.742 6.796-8.934 9.589-1.402 1.789-2.299 3.934-3.308 5.953-1.662 3.324-3.971-0.492-4.632 0-3.215 2.393-7.029 3.464-9.926 9.259-3.423 6.846-7.773 0.494-10.587 3.307-4.127 4.124-4.054 5.291-10.257 5.291-6.128 0-16.93 5.177-20.182 10.583-1.876-14.122-22.015 5.917-30.439 9.259-4.55 1.804-12.827 5.483-17.866 2.645-2.069-1.164 0.121-5.964-2.646-7.274-4.136-1.958-9.251 0.92-13.896 1.984 2.408-3.137 5.678-7.091 8.933-9.26 1.625-1.083 2.921-2.59 4.301-3.968 2.758-2.757 3.822 1.249 5.956-0.661 9.593-8.589 1.577-15.99 8.933-25.794 4.032-5.374 10.133-13.261 15.881-17.857 3.63-2.902 4.182-8.208 6.948-9.59 4.119-2.059 8.766-3.651 12.572-6.283 8.661-5.989 14.68-12.238 27.792-13.228 14.013-1.058 44.265 5.217 53.598 14.55 8.346 8.346 13.859-6.939 14.559-12.566 0.951-7.652-1.737-11.403-5.295-18.518-5.069-10.14-13.206-19.134-18.527-29.763-2.688-5.369-3.208-11.157-5.294-16.534-1.592-4.105-6.06-9.635-5.955-13.889 0.146-5.975 8.768-11.407 12.903-15.542 13.32-13.292 37.56-11.534 44.01 7.627" fill-rule="evenodd" clip-rule="evenodd" fill="#E4BC96"/>
  <path id="path7" fill-rule="evenodd" clip-rule="evenodd" d="m264.22 20.129c-4.081 5.71-14.202 0.968-9.926-3.308 3.57-3.564 8.27-0.45 9.93 3.308"/>
  <path id="path9" d="m79.605 33.356c0 27.798 1.324 55.534 1.324 83.333 10.883-12.164 17.425-29.318 29.777-41.667 5.984-5.982 11.901-17.192 20.182-20.502 5.604-2.24 8.827-7.019 14.558-8.929 7.382-2.459 4.666 4.277 0.662 6.944-25.646 17.09-57.523 48.16-51.282 82.672 9.958-19.905 20.146-39.422 32.423-58.201 5.036-7.703 9.921-13.224 16.542-19.841 10.699-10.692 10.782 3.771 3.971 10.582-11.7 11.7-20.873 27.75-29.777 41.667-4.102 6.412-8.427 13.805-11.249 21.164-2.324 6.061-6.276 38.752-13.896 21.164-1.132 4.648 2.676 14.375-4.633 13.228-2.815 3.874-2.678 4.459-7.278 1.984-1.555 14.71-7.349 24.789-9.264 40.344-12.379 0.216 2.032-48.133-2.316-61.177-5.298-15.895-15.286-36.97-29.777-46.627-6.527-4.349-14.661-11.015-20.183-16.534-2.11-2.11-11.497-6.285-9.925-10.582 1.641-4.484 17.829 1.684 20.844 2.976 25.948 11.115 27.862 34.562 44.004 53.241 1.498-20.01 0.822-40.313 0.131-60.351-0.331-9.575-0.69-19.146-1.222-28.713-0.363-6.622-0.023-13.949 6.39-6.16" fill-rule="evenodd" clip-rule="evenodd" fill="#00A33D"/>
  <path id="path11" d="m337.01 60.472c-0.607 10.488 3.771 22.364 6.618 32.408 4.487 15.833 6.789 15.309 22.105 12.248 9.485-1.896 7.382 6.898-2.155 7.765-15.009 1.364-11.348 5.317-11.348 18.103 0 18.786-9.431 34.404-7.279 53.155 0.469 4.074 4.137 16.478-0.001 17.856-6.459 2.152-5.902-16.034-6.616-19.841-4.095 6.159-3.176 13.803-7.941 19.18 7.424-1.436 18.756 11.02 25.808 3.969 4.316-4.316 23.765-1.338 29.115 0 3.069 0.768 37.061 5.289 30.108 12.234-4.777 4.772-15.007 3.639-21.175 3.639-23.014 0-45.888 3.182-68.818 1.653-20.907-1.395-42.699 0.396-63.193 3.637 18.239 6.4 39.951 5.421 59.017 8.144 2.559 0.365 11.636 0.211 13.772 1.777 2.938 2.155 0.844 6.036 1.983 7.937-1.552-2.586 14.926 7.275 3.641 7.275-10.463 0-21.216-5.437-31.433-5.952 0.643 0.032-14.32 4.676-9.925-2.646 1.996-3.325 11.706-2.443 15.22-4.629-19.942-2.345-41.281-2.298-60.877-6.613-2.507-0.553-10.587-1.234-10.587-4.63 0-6.342 3.009-2.056 7.278-3.308 8.676-2.544 18.451-2.521 27.422-3.063 24.073-1.458 48.163-2.665 72.25-3.868 15.152-0.758 36.878 2.715 54.506-2.327-29.952-9.904-61.806-0.485-92.887-2.786-5.854-0.434-11.556 2.14-16.956 1.464-9.086-1.139-11.857-5.292-21.861-5.292-4.833 0-47.396 0.03-31.738-7.274 3.769-1.758 13.182 2.141 17.45 1.813 10.386-0.798 13.344 0.271 18.944-7.765 8.864-12.723 11.615-30.02 13.896-44.974 0.746-4.894 3.716-36.795 9.265-21.164 2.636 7.427-5.585 15.359-2.647 23.147 4.745-8.063 10.18-16.316 16.543-23.147 3.547-3.807 7.76-6.479 11.91-9.59 3.608-2.704 15.656-5.536 17.205-9.59 2.915-7.637-10.13-27.676-11.579-36.376-0.619-3.708-4.076-15.112-1.656-18.518 3.44-4.842 7.53 1.065 6.63 5.936" fill-rule="evenodd" clip-rule="evenodd" fill="#00A33D"/>
  <path id="path13" d="m57.769 108.09c0.5 1.745 0.425 3.529 1.323 5.291-11.376-12.43-22.318-24.682-35.732-35.712 16.563 3.829 24.973 17.883 34.409 30.422" fill-rule="evenodd" clip-rule="evenodd" fill="#fff"/>
  <path id="path15" d="m374.07 165.63c-2.36 4.634-6.664 27.565-9.264 28.439-11.62 3.907-0.049-20.742 0.662-22.486 8.247-20.217 20.239-39.004 29.114-56.878-7.512 0.317-15.035 16.587-19.189 22.817-8.375 12.563-10.813 29.974-19.851 41.336-11.417 14.352-8.317-3.62-3.971-12.566 4.938-10.161 11.507-19.232 17.867-28.77 4.679-7.019 25.685-41.923 33.746-40.013 7.923 1.877-19.172 48.904-23.159 56.878-1.9 3.79-4.11 7.72-5.96 11.25" fill-rule="evenodd" clip-rule="evenodd" fill="#00A33D"/>
  <path id="path17" d="m345.61 124.63c3.271 12.251-28.449 71.245-15.22 76.719h-15.88c0.126-6.427 6.645-44.014 0-45.635-7.115-1.736-8.759 38.88-4.633 45.635-7.906 0.745-15.665 0.78-23.576 0.172-4.77-0.368-0.168-8.628 1.079-11.746 4.495-11.239 8.657-22.692 14.889-33.069 5.909-9.84 10.819-19.58 19.52-27.447 5.1-4.62 25.78-20.81 23.82-4.63" fill-rule="evenodd" clip-rule="evenodd" fill="#fff"/>
  <path id="path19" fill-rule="evenodd" clip-rule="evenodd" d="m203.34 136.53c-2.923 7.851-7.595 17.942-14.558 23.148-1.876 1.403-21.003 12.423-23.159 10.582-3.979-3.399 11.689-16.153 15.219-18.519 2.331-1.561 4.331 0.94 7.279-1.322 0.993-0.763 2.365-4.095 3.309-5.291 3.086-3.914 5.277-8.532 6.617-13.228 2.5 0.71 3.95 2.17 5.29 4.63"/>
  <path id="path21" d="m72.988 136.53c-2.56-1.46-1.889-1.08 0 0" fill-rule="evenodd" clip-rule="evenodd" fill="#fff"/>
  <path id="path23" fill-rule="evenodd" clip-rule="evenodd" d="m155.7 172.24c-6.308 6.981-10.022 2.931-17.204 4.63-2.584 0.61-5.265 5.466-7.941 5.291-2.586-0.169-9.303-5.278-4.301-6.944 7.523-2.507 24.198-6.329 29.323-11.452 8.05-8.05 11.11 5 0.12 8.47"/>
  <path id="path25" d="m55.784 211.27c4.303 0.657 8.575 1.449 12.842 2.303 5.853 1.169 3.16 6.547 10.587 5.805 9.178-0.917 19.545 0.49 28.846 0.49 10.953 0 21.556 0.04 32.439 1.186 11.521 1.212-0.629 8.735-6.84 8.735-20.993 0-41.146-2.109-62.141 0.515-8.339 1.041-50.461 10.052-52.79 2.792 12.792-4.534 26.125-3.329 39.041-6.614-7.393-5.907-46.195 7.38-50.29-7.274-2.518-9.011 25.444-8.137 31.101-7.937-10.385-3.731-17.288-11.961-26.137-17.857-5.108-3.403-19.776-25.083-7.941-17.195 8.02 5.343 13.692 13.554 21.505 19.18 9.103 6.53 19.783 10.62 29.776 15.85" fill-rule="evenodd" clip-rule="evenodd" fill="#00A0C6"/>
  <path id="path27" d="m189.45 214.57c-1.662 5.348-10.906 16.581-9.595 21.825 2.308 9.23 5.439 20.655 9.595 29.101-3.747 1.883-7.842 2.336-11.911 1.323 4.688-7.443-0.338-18.865-2.978-26.786-2.407-7.222 6.565-24.376 11.58-28.77 0.99 1.43 2.22 1.93 3.3 3.31" fill-rule="evenodd" clip-rule="evenodd" fill="#fff"/>
  <path id="path29" d="m65.709 217.88c0.662 0.661 1.324 1.323 1.985 1.984-16.929 1.354-32.214 0.807-48.966-1.984 14.444-5.33 31.948 0.24 46.981 0" fill-rule="evenodd" clip-rule="evenodd" fill="#fff"/>
  <path id="path31" d="m286.06 260.21c1.525 9.313-12.563 10.354-18.858 14.551-3.547 2.364-8.959-1.299-5.293-4.961 4.299-4.296 12.278-4.578 17.535-7.605-7.867-7.618-20.804-9.926-31.102-11.905-6.604-1.269-30.21-1.045-35.069-5.291-10.203-8.914 26.533-0.931 31.1 0 12.91 2.62 34.63 1.78 41.69 15.2" fill-rule="evenodd" clip-rule="evenodd" fill="#00A0C6"/>
  <path id="path33" d="m53.798 243.67c-2.649 7.177-35.51 14.221-42.349 11.904-9.804-3.321 11.394-6.278 14.337-6.932 7.954-1.76 20.921-8.98 28.012-4.97" fill-rule="evenodd" clip-rule="evenodd" fill="#00A0C6"/>
  <path id="path35" d="m147.1 278.73c25.517 0 51.043 0.661 76.531 0.661 4.684 0 26.766-2.867 30.005-0.661 6.771 4.61-1.349 7.274-6.183 7.274-24.473 0-48.845-1.983-73.419-1.983-7.849 0-24.055 4.027-30.905-0.661-7.76-5.3-2.61-10.15 3.96-4.63" fill-rule="evenodd" clip-rule="evenodd" fill="#00A0C6"/>
  <path id="path37" d="m111.37 292.62c0.854 6.954-33.64 0.544-40.695 0.103-14.122-0.882-39.518 4.723-50.621-5.395 28.028-6.92 63.38 0.64 91.316 5.3" fill-rule="evenodd" clip-rule="evenodd" fill="#00A0C6"/>
  <metadata>
    <rdf:RDF>
      <cc:Work>
        <dc:format>image/svg+xml</dc:format>
        <dc:type rdf:resource="http://purl.org/dc/dcmitype/StillImage"/>
        <cc:license rdf:resource="http://creativecommons.org/licenses/publicdomain/"/>
        <dc:publisher>
          <cc:Agent rdf:about="http://openclipart.org/">
            <dc:title>Openclipart</dc:title>
          </cc:Agent>
        </dc:publisher>
        <dc:title>Architetto -- pennuto 02</dc:title>
        <dc:date>2010-03-22T13:17:52</dc:date>
        <dc:description>Drawing by Francesco 'Architetto' Rollandin. From OCAL 0.18 release.</dc:description>
        <dc:source>http://openclipart.org/detail/33055/architetto----pennuto-02-by-anonymous</dc:source>
        <dc:creator>
          <cc:Agent>
            <dc:title>Anonymous</dc:title>
          </cc:Agent>
        </dc:creator>
        <dc:subject>
          <rdf:Bag>
            <rdf:li>animal</rdf:li>
            <rdf:li>bird</rdf:li>
            <rdf:li>clip art</rdf:li>
            <rdf:li>clipart</rdf:li>
            <rdf:li>waterfowl</rdf:li>
          </rdf:Bag>
        </dc:subject>
      </cc:Work>
      <cc:License rdf:about="http://creativecommons.org/licenses/publicdomain/">
        <cc:permits rdf:resource="http://creativecommons.org/ns#Reproduction"/>
        <cc:permits rdf:resource="http://creativecommons.org/ns#Distribution"/>
        <cc:permits rdf:resource="http://creativecommons.org/ns#DerivativeWorks"/>
      </cc:License>
    </rdf:RDF>
  </metadata>
</svg>
