<?xml version="1.0" encoding="UTF-8" standalone="no"?>
<!-- Created with Inkscape (http://www.inkscape.org/) -->
<!-- ClipArt by Arvin61r58 (http://openclipart.org/user-detail/Arvin61r58) -->

<svg
   xmlns:dc="http://purl.org/dc/elements/1.1/"
   xmlns:cc="http://creativecommons.org/ns#"
   xmlns:rdf="http://www.w3.org/1999/02/22-rdf-syntax-ns#"
   xmlns:svg="http://www.w3.org/2000/svg"
   xmlns="http://www.w3.org/2000/svg"
   xmlns:inkscape="http://www.inkscape.org/namespaces/inkscape"
   version="1.1"
   width="397.21875"
   height="451.6875"
   id="svg4443">
  <title
     id="title3030">Restrooms</title>
  <defs
     id="defs4445">
    <inkscape:path-effect
       effect="spiro"
       id="path-effect4418" />
    <inkscape:path-effect
       effect="spiro"
       id="path-effect3807" />
    <inkscape:path-effect
       effect="spiro"
       id="path-effect4575" />
  </defs>
  <metadata
     id="metadata4448">
    <rdf:RDF>
      <cc:Work
         rdf:about="">
        <dc:format>image/svg+xml</dc:format>
        <dc:type
           rdf:resource="http://purl.org/dc/dcmitype/StillImage" />
        <dc:title>Restrooms</dc:title>
        <dc:creator>
          <cc:Agent>
            <dc:title>Arvin61r58</dc:title>
          </cc:Agent>
        </dc:creator>
        <dc:description>Humorous Restroom Sign</dc:description>
        <dc:subject>
          <rdf:Bag>
            <rdf:li>restrooms</rdf:li>
            <rdf:li>restroom sign</rdf:li>
            <rdf:li>bathrooms</rdf:li>
            <rdf:li>sign</rdf:li>
            <rdf:li>parody</rdf:li>
            <rdf:li>humorous</rdf:li>
            <rdf:li>joke</rdf:li>
          </rdf:Bag>
        </dc:subject>
        <dc:source>http://openclipart.org/user-detail/Arvin61r58</dc:source>
        <cc:license
           rdf:resource="http://creativecommons.org/licenses/publicdomain/" />
      </cc:Work>
      <cc:License
         rdf:about="http://creativecommons.org/licenses/publicdomain/">
        <cc:permits
           rdf:resource="http://creativecommons.org/ns#Reproduction" />
        <cc:permits
           rdf:resource="http://creativecommons.org/ns#Distribution" />
        <cc:permits
           rdf:resource="http://creativecommons.org/ns#DerivativeWorks" />
      </cc:License>
    </rdf:RDF>
  </metadata>
  <g
     transform="translate(-173.44119,-300.34879)"
     id="layer1">
    <rect
       width="389.22986"
       height="443.70566"
       rx="25"
       ry="24.617876"
       x="177.43564"
       y="304.33331"
       id="rect3632"
       style="fill:#ffffff;stroke:#000000;stroke-width:8;stroke-miterlimit:4;stroke-opacity:1;stroke-dasharray:none" />
    <g
       transform="translate(-3.64e-4,0)"
       id="g3149">
      <g
         transform="translate(134.2125,-296.30806)"
         id="g3455">
        <path
           d="m 330.46833,798.41963 0,131.82298 27.80246,0 0,-131.82298 -27.80246,0 z"
           id="path3080-4"
           style="font-size:86px;font-style:normal;font-variant:normal;font-weight:normal;font-stretch:normal;line-height:125%;letter-spacing:0px;word-spacing:0px;fill:#000000;fill-opacity:1;stroke:none;font-family:Winbats;-inkscape-font-specification:Winbats" />
        <path
           d="m 288.38878,799.78742 19.38689,65.9115 -19.38689,65.9115 30.0284,0 19.3869,-65.9115 -19.3869,-65.9115 z"
           id="path3375"
           style="font-size:86px;font-style:normal;font-variant:normal;font-weight:normal;font-stretch:normal;line-height:125%;letter-spacing:0px;word-spacing:0px;fill:#000000;fill-opacity:1;stroke:#ffffff;stroke-width:2.00000024;stroke-opacity:1;font-family:Winbats;-inkscape-font-specification:Winbats" />
        <path
           d="m 287.16145,724.78828 -21.09375,0 0,58.1875 21.09375,0 0,-56.71875 0,-1.46875 z"
           id="path3448"
           style="font-size:86px;font-style:normal;font-variant:normal;font-weight:normal;font-stretch:normal;line-height:125%;letter-spacing:0px;word-spacing:0px;fill:#000000;fill-opacity:1;stroke:none;font-family:Winbats;-inkscape-font-specification:Winbats" />
        <path
           d="m 289.875,725.75 0,76.125 68.8125,0 0,-76.125 -68.8125,0 z"
           id="path3453"
           style="font-size:86px;font-style:normal;font-variant:normal;font-weight:normal;font-stretch:normal;line-height:125%;letter-spacing:0px;word-spacing:0px;fill:#000000;fill-opacity:1;stroke:none;font-family:Winbats;-inkscape-font-specification:Winbats" />
        <path
           d="m 383.85711,724.08821 4.80364,28.64357 -26.54769,29.27411 -10.25764,0.0438 -10.25764,0.0438 26.59252,-29.65883 -4.82038,-28.55607 10.2436,0.1048 z"
           id="path3443"
           style="font-size:86px;font-style:normal;font-variant:normal;font-weight:normal;font-stretch:normal;line-height:125%;letter-spacing:0px;word-spacing:0px;fill:#000000;fill-opacity:1;stroke:#ffffff;stroke-width:2;font-family:Winbats;-inkscape-font-specification:Winbats" />
        <path
           d="m 289.67943,725.94557 68.8125,0 0,-0.3125 0.3125,0 0,-0.0937 3.09375,0 0,0.0312 21.09375,0 0,-0.0312 0,-1.5 -0.5625,-8.375 c -0.56038,-3.00277 -1.59039,-5.50399 -3.09375,-7.5 -2.43547,-2.80133 -5.0682,-4.52057 -7.875,-5.125 l -9.5625,-0.90625 -37.34375,0.3125 -32.90625,0 -1.96875,0 -10.375,0.90625 c -3.18427,0.60442 -5.94027,2.23995 -8.28125,4.9375 -2.34104,2.69795 -3.74999,5.39312 -4.21875,8.09375 -0.40079,2.3087 -0.56352,5.67438 -0.625,9.375 l 20.5625,0 0,-0.125 2.9375,0 0,0.3125 z"
           id="path3078-7"
           style="font-size:86px;font-style:normal;font-variant:normal;font-weight:normal;font-stretch:normal;line-height:125%;letter-spacing:0px;word-spacing:0px;fill:#000000;fill-opacity:1;stroke:none;font-family:Winbats;-inkscape-font-specification:Winbats" />
        <g
           transform="matrix(0.54,0,0,0.49554018,122.47216,511.60057)"
           id="g3030">
          <path
             d="m 431.14338,318.86743 a 57.164379,61.296745 0 1 1 -114.32876,0 57.164379,61.296745 0 1 1 114.32876,0 z"
             id="path3761"
             style="fill:#000000;fill-opacity:1;fill-rule:evenodd;stroke:none" />
          <g
             transform="translate(-3.0981445e-6,-6)"
             id="g3026">
            <path
               d="m 133.61312,424.93146 a 7.5760021,7.5760021 0 1 1 -15.15201,0 7.5760021,7.5760021 0 1 1 15.15201,0 z"
               transform="translate(231.41243,-123.97094)"
               id="path3777"
               style="fill:#ffffff;fill-opacity:1;fill-rule:evenodd;stroke:#ffffff;stroke-width:1.93314183" />
            <path
               d="m 133.61312,424.93146 a 7.5760021,7.5760021 0 1 1 -15.15201,0 7.5760021,7.5760021 0 1 1 15.15201,0 z"
               transform="translate(264.47135,-123.97094)"
               id="path3779"
               style="fill:#ffffff;fill-opacity:1;fill-rule:evenodd;stroke:#ffffff;stroke-width:1.93314183" />
          </g>
          <path
             d="m 348.49609,342.84255 c 5.31202,-3.95883 11.45168,-6.80177 17.90691,-8.29171 0.9101,-0.21006 1.83102,-0.39417 2.76423,-0.43312 0.93322,-0.0389 1.88422,0.0719 2.74559,0.43312 1.32434,0.55531 2.34431,1.6581 3.16354,2.83755 0.81923,1.17945 1.48161,2.46501 2.34628,3.61156 1.37856,1.82797 3.26537,3.26849 5.39201,4.11663 2.12664,0.84813 4.48694,1.10142 6.74511,0.72383 2.25818,-0.37759 4.40767,-1.38497 6.14271,-2.87882 1.73503,-1.49385 3.05057,-3.46983 3.75945,-5.64685"
             id="path3805"
             style="fill:none;stroke:#ffffff;stroke-width:5.79942513;stroke-linecap:butt;stroke-linejoin:miter;stroke-opacity:1" />
        </g>
      </g>
      <g
         transform="translate(-41.974872,270.25356)"
         id="g3614">
        <g
           transform="translate(-3.3372533,0)"
           id="g3610">
          <path
             d="m 321.3959,231.85801 0,131.82298 -27.80246,0 0,-131.82298 27.80246,0 z"
             id="path3528"
             style="font-size:86px;font-style:normal;font-variant:normal;font-weight:normal;font-stretch:normal;line-height:125%;letter-spacing:0px;word-spacing:0px;fill:#000000;fill-opacity:1;stroke:none;font-family:Winbats;-inkscape-font-specification:Winbats" />
          <path
             d="m 363.47545,233.2258 -19.38689,65.9115 19.38689,65.9115 -30.0284,0 -19.3869,-65.9115 19.3869,-65.9115 z"
             id="path3530"
             style="font-size:86px;font-style:normal;font-variant:normal;font-weight:normal;font-stretch:normal;line-height:125%;letter-spacing:0px;word-spacing:0px;fill:#000000;fill-opacity:1;stroke:#ffffff;stroke-width:2.00000024;stroke-opacity:1;font-family:Winbats;-inkscape-font-specification:Winbats" />
        </g>
        <g
           id="g3602">
          <path
             d="m 364.57442,158.48339 21.09375,0 0,58.1875 -21.09375,0 0,-56.71875 0,-1.46875 z"
             id="path3532"
             style="font-size:86px;font-style:normal;font-variant:normal;font-weight:normal;font-stretch:normal;line-height:125%;letter-spacing:0px;word-spacing:0px;fill:#000000;fill-opacity:1;stroke:none;font-family:Winbats;-inkscape-font-specification:Winbats" />
          <g
             transform="matrix(1.036719,0,0,0.96223678,-210.53091,-107.79682)"
             id="g3595">
            <path
               d="m 484.09375,270.18838 0,59.125 63.8125,0 0,-59.125 -63.8125,0 z"
               id="path3534"
               style="font-size:86px;font-style:normal;font-variant:normal;font-weight:normal;font-stretch:normal;line-height:125%;letter-spacing:0px;word-spacing:0px;fill:#000000;fill-opacity:1;stroke:none;font-family:Winbats;-inkscape-font-specification:Winbats" />
            <path
               d="m 492.33118,272.30093 47.3377,0 1.22635,2.9154 22.81037,102.624 0,0.5831 -95.4112,0 24.03678,-106.1225 z"
               id="path3556"
               style="fill:#000000;fill-opacity:1;fill-rule:evenodd;stroke:none" />
          </g>
          <path
             d="m 268.00712,157.52659 -4.80364,28.64357 26.54769,29.27411 10.25764,0.0438 10.25764,0.0438 -26.59252,-29.65883 4.82038,-28.55607 -10.2436,0.1048 z"
             id="path3536"
             style="font-size:86px;font-style:normal;font-variant:normal;font-weight:normal;font-stretch:normal;line-height:125%;letter-spacing:0px;word-spacing:0px;fill:#000000;fill-opacity:1;stroke:#ffffff;stroke-width:2;font-family:Winbats;-inkscape-font-specification:Winbats" />
          <path
             d="m 289.96875,135.5625 -9.5625,0.90625 c -2.8068,0.60443 -5.43953,2.32367 -7.875,5.125 -1.50336,1.99601 -2.53337,4.49723 -3.09375,7.5 l -0.5625,8.375 0,1.5 0,0.0312 21.09375,0 0,-0.0312 3.09375,0 0,0.0937 0.3125,0 0,0.3125 65.90625,0 0,0.0625 7.0625,0 0,-0.25 19.34375,0 c -0.0615,-3.70062 -0.22421,-7.0663 -0.625,-9.375 -0.46876,-2.70063 -1.87771,-5.3958 -4.21875,-8.09375 -2.34098,-2.69755 -5.09698,-4.33308 -8.28125,-4.9375 l -10.375,-0.90625 -1.96875,0 -32.90625,0 -37.34375,-0.3125 z"
             id="path3538"
             style="font-size:86px;font-style:normal;font-variant:normal;font-weight:normal;font-stretch:normal;line-height:125%;letter-spacing:0px;word-spacing:0px;fill:#000000;fill-opacity:1;stroke:none;font-family:Winbats;-inkscape-font-specification:Winbats" />
        </g>
        <g
           transform="matrix(0.54,0,0,0.49554018,121.99683,-54.96105)"
           id="g3540">
          <path
             d="m 431.14338,318.86743 a 57.164379,61.296745 0 1 1 -114.32876,0 57.164379,61.296745 0 1 1 114.32876,0 z"
             id="path3542"
             style="fill:#000000;fill-opacity:1;fill-rule:evenodd;stroke:none" />
          <g
             transform="translate(-3.0981445e-6,-6)"
             id="g3544">
            <path
               d="m 133.61312,424.93146 a 7.5760021,7.5760021 0 1 1 -15.15201,0 7.5760021,7.5760021 0 1 1 15.15201,0 z"
               transform="translate(231.41243,-123.97094)"
               id="path3546"
               style="fill:#ffffff;fill-opacity:1;fill-rule:evenodd;stroke:#ffffff;stroke-width:1.93314183" />
            <path
               d="m 133.61312,424.93146 a 7.5760021,7.5760021 0 1 1 -15.15201,0 7.5760021,7.5760021 0 1 1 15.15201,0 z"
               transform="translate(264.47135,-123.97094)"
               id="path3548"
               style="fill:#ffffff;fill-opacity:1;fill-rule:evenodd;stroke:#ffffff;stroke-width:1.93314183" />
          </g>
          <path
             d="m 348.49609,342.84255 c 5.31202,-3.95883 11.45168,-6.80177 17.90691,-8.29171 0.9101,-0.21006 1.83102,-0.39417 2.76423,-0.43312 0.93322,-0.0389 1.88422,0.0719 2.74559,0.43312 1.32434,0.55531 2.34431,1.6581 3.16354,2.83755 0.81923,1.17945 1.48161,2.46501 2.34628,3.61156 1.37856,1.82797 3.26537,3.26849 5.39201,4.11663 2.12664,0.84813 4.48694,1.10142 6.74511,0.72383 2.25818,-0.37759 4.40767,-1.38497 6.14271,-2.87882 1.73503,-1.49385 3.05057,-3.46983 3.75945,-5.64685"
             id="path3550"
             style="fill:none;stroke:#ffffff;stroke-width:5.79942513;stroke-linecap:butt;stroke-linejoin:miter;stroke-opacity:1" />
        </g>
      </g>
      <path
         d="M 370.78972,334.12975 368.7303,645.10174"
         id="path4416"
         style="fill:none;stroke:#000000;stroke-width:10;stroke-linecap:round;stroke-linejoin:round;stroke-opacity:1" />
    </g>
    <g
       transform="matrix(1,0,0,1.1325983,-40.991935,220.87183)"
       id="text4420"
       style="font-size:86px;font-style:normal;font-variant:normal;font-weight:normal;font-stretch:normal;line-height:125%;letter-spacing:0px;word-spacing:0px;fill:#000000;fill-opacity:1;stroke:none;font-family:Arial Rounded MT Bold;-inkscape-font-specification:Arial Rounded MT Bold">
      <path
         d="m 260.48,423.18094 -3.25,0 0,14.71875 c -2e-5,1.9375 -0.4271,3.36458 -1.28125,4.28125 -0.85418,0.91667 -1.96877,1.375 -3.34375,1.375 -1.47918,0 -2.62501,-0.47917 -3.4375,-1.4375 -0.81251,-0.95833 -1.21876,-2.36458 -1.21875,-4.21875 l 0,-35.25 c -1e-5,-1.99996 0.44791,-3.44787 1.34375,-4.34375 0.89582,-0.89579 2.34374,-1.34371 4.34375,-1.34375 l 15.09375,0 c 2.0833,4e-5 3.86455,0.0886 5.34375,0.26562 1.47913,0.17713 2.81246,0.53651 4,1.07813 1.43746,0.60421 2.70829,1.46879 3.8125,2.59375 1.10412,1.12504 1.94266,2.43233 2.51562,3.92187 0.57288,1.48962 0.85933,3.06775 0.85938,4.73438 -5e-5,3.4167 -0.96359,6.14586 -2.89063,8.1875 -1.92712,2.04169 -4.84899,3.4896 -8.76562,4.34375 1.6458,0.87502 3.21871,2.16668 4.71875,3.875 1.49996,1.70835 2.8385,3.52605 4.01562,5.45312 1.17704,1.9271 2.09371,3.66668 2.75,5.21875 0.65621,1.55209 0.98433,2.6198 0.98438,3.20313 -5e-5,0.60417 -0.19276,1.20313 -0.57813,1.79687 -0.38546,0.59375 -0.9115,1.0625 -1.57812,1.40625 -0.66671,0.34375 -1.43754,0.51563 -2.3125,0.51563 -1.04171,0 -1.91671,-0.24479 -2.625,-0.73438 -0.70837,-0.48958 -1.31775,-1.10937 -1.82813,-1.85937 -0.51045,-0.75 -1.20316,-1.85416 -2.07812,-3.3125 l -3.71875,-6.1875 c -1.33336,-2.27082 -2.52607,-3.99999 -3.57813,-5.1875 -1.05211,-1.18748 -2.11981,-1.99998 -3.20312,-2.4375 -1.08336,-0.43748 -2.44794,-0.65623 -4.09375,-0.65625 z m 5.3125,-19.25 -8.5625,0 0,12.59375 8.3125,0 c 2.22914,2e-5 4.10414,-0.19268 5.625,-0.57813 1.5208,-0.38539 2.68226,-1.04164 3.48437,-1.96875 0.80205,-0.92705 1.20309,-2.20309 1.20313,-3.82812 -4e-5,-1.2708 -0.32295,-2.39059 -0.96875,-3.35938 -0.64587,-0.96871 -1.5417,-1.69267 -2.6875,-2.17187 -1.08337,-0.4583 -3.21878,-0.68746 -6.40625,-0.6875 z"
         id="path4425"
         style="font-size:64px" />
      <path
         d="m 317.23,428.30594 -16.6875,0 c 0.0208,1.93751 0.41144,3.64584 1.17187,5.125 0.7604,1.47917 1.77082,2.59376 3.03125,3.34375 1.2604,0.75 2.65102,1.125 4.17188,1.125 1.02081,0 1.9531,-0.11979 2.79687,-0.35938 0.84373,-0.23957 1.66143,-0.61457 2.45313,-1.125 0.79164,-0.51041 1.5208,-1.05728 2.1875,-1.64062 0.66663,-0.58333 1.53122,-1.37499 2.59375,-2.375 0.43747,-0.37499 1.06246,-0.56249 1.875,-0.5625 0.87496,10e-6 1.5833,0.23959 2.125,0.71875 0.54163,0.47918 0.81246,1.15626 0.8125,2.03125 -4e-5,0.77084 -0.30212,1.67188 -0.90625,2.70312 -0.6042,1.03126 -1.51566,2.02084 -2.73438,2.96875 -1.21878,0.94792 -2.75003,1.73438 -4.59375,2.35938 -1.84377,0.625 -3.96356,0.9375 -6.35937,0.9375 -5.47919,0 -9.7396,-1.5625 -12.78125,-4.6875 -3.04168,-3.12499 -4.56251,-7.36457 -4.5625,-12.71875 -1e-5,-2.52082 0.37499,-4.85935 1.125,-7.01563 0.74999,-2.15622 1.84374,-4.00518 3.28125,-5.54687 1.43749,-1.54164 3.20832,-2.72393 5.3125,-3.54688 2.10415,-0.82288 4.43748,-1.23434 7,-1.23437 3.33331,3e-5 6.19268,0.70316 8.57812,2.10937 2.38539,1.40628 4.17184,3.22399 5.35938,5.45313 1.18746,2.22919 1.78121,4.50002 1.78125,6.8125 -4e-5,2.14585 -0.61462,3.53647 -1.84375,4.17187 -1.2292,0.63544 -2.95837,0.95314 -5.1875,0.95313 z m -16.6875,-4.84375 15.46875,0 c -0.20836,-2.91665 -0.99482,-5.09894 -2.35938,-6.54688 -1.36461,-1.44789 -3.16148,-2.17184 -5.39062,-2.17187 -2.12502,3e-5 -3.86981,0.7344 -5.23438,2.20312 -1.3646,1.46878 -2.19272,3.64065 -2.48437,6.51563 z"
         id="path4427"
         style="font-size:64px" />
      <path
         d="m 358.88625,432.39969 c -4e-5,2.35417 -0.57295,4.3698 -1.71875,6.04687 -1.14587,1.67709 -2.83857,2.94792 -5.07813,3.8125 -2.23961,0.86459 -4.96356,1.29688 -8.17187,1.29688 -3.06252,0 -5.68752,-0.46875 -7.875,-1.40625 -2.18751,-0.9375 -3.80209,-2.10937 -4.84375,-3.51563 -1.04167,-1.40624 -1.56251,-2.8177 -1.5625,-4.23437 -1e-5,-0.93749 0.33333,-1.73957 1,-2.40625 0.66666,-0.66666 1.51041,-0.99999 2.53125,-1 0.89582,10e-6 1.58332,0.21876 2.0625,0.65625 0.47915,0.43751 0.93749,1.05209 1.375,1.84375 0.87499,1.52084 1.92186,2.65626 3.14062,3.40625 1.21874,0.75 2.88019,1.125 4.98438,1.125 1.70831,0 3.10935,-0.3802 4.20312,-1.14063 1.09373,-0.76041 1.6406,-1.6302 1.64063,-2.60937 -3e-5,-1.49999 -0.56774,-2.59374 -1.70313,-3.28125 -1.13544,-0.68749 -3.00523,-1.34374 -5.60937,-1.96875 -2.93752,-0.72915 -5.32814,-1.49478 -7.17188,-2.29688 -1.84376,-0.80206 -3.31771,-1.85935 -4.42187,-3.17187 -1.10417,-1.31248 -1.65626,-2.92706 -1.65625,-4.84375 -1e-5,-1.70831 0.51041,-3.32289 1.53125,-4.84375 1.02082,-1.5208 2.52603,-2.73434 4.51562,-3.64063 1.98957,-0.90621 4.39061,-1.35934 7.20313,-1.35937 2.20831,3e-5 4.19268,0.2292 5.95312,0.6875 1.76039,0.45836 3.22914,1.07295 4.40625,1.84375 1.17706,0.77086 2.07289,1.62503 2.6875,2.5625 0.61455,0.93753 0.92185,1.85419 0.92188,2.75 -3e-5,0.97919 -0.32816,1.78127 -0.98438,2.40625 -0.65628,0.62502 -1.58857,0.93752 -2.79687,0.9375 -0.87503,2e-5 -1.61982,-0.24998 -2.23438,-0.75 -0.61461,-0.49998 -1.31773,-1.24998 -2.10937,-2.25 -0.64586,-0.83331 -1.40627,-1.49997 -2.28125,-2 -0.87502,-0.49997 -2.06252,-0.74997 -3.5625,-0.75 -1.54169,3e-5 -2.82293,0.32815 -3.84375,0.98437 -1.02085,0.65628 -1.53127,1.47399 -1.53125,2.45313 -2e-5,0.89586 0.37498,1.63023 1.125,2.20312 0.74998,0.57294 1.7604,1.0469 3.03125,1.42188 1.27081,0.37502 3.02081,0.83335 5.25,1.375 2.64581,0.64585 4.80726,1.41668 6.48437,2.3125 1.67706,0.89585 2.94789,1.95314 3.8125,3.17187 0.86455,1.21877 1.29684,2.60939 1.29688,4.17188 z"
         id="path4429"
         style="font-size:64px" />
      <path
         d="m 366.63625,409.61844 0.9375,0 0,-5.125 c -1e-5,-1.37496 0.0365,-2.45309 0.10937,-3.23438 0.0729,-0.7812 0.27604,-1.45308 0.60938,-2.01562 0.33332,-0.58329 0.81249,-1.05725 1.4375,-1.42188 0.62499,-0.36453 1.3229,-0.54683 2.09375,-0.54687 1.08332,4e-5 2.06248,0.40629 2.9375,1.21875 0.58332,0.54171 0.95311,1.20317 1.10937,1.98437 0.15624,0.7813 0.23436,1.89067 0.23438,3.32813 l 0,5.8125 3.125,0 c 1.20831,3e-5 2.13018,0.28649 2.76562,0.85937 0.6354,0.57295 0.9531,1.30733 0.95313,2.20313 -3e-5,1.14586 -0.45315,1.94794 -1.35938,2.40625 -0.90627,0.45836 -2.20314,0.68753 -3.89062,0.6875 l -1.59375,0 0,15.6875 c -2e-5,1.33334 0.0469,2.35938 0.14062,3.07812 0.0937,0.71876 0.34374,1.30209 0.75,1.75 0.40624,0.44793 1.06769,0.67188 1.98438,0.67188 0.49998,0 1.17706,-0.0885 2.03125,-0.26563 0.85414,-0.17707 1.52081,-0.26561 2,-0.26562 0.68747,10e-6 1.30726,0.27605 1.85937,0.82812 0.55206,0.55209 0.8281,1.23438 0.82813,2.04688 -3e-5,1.375 -0.75003,2.42708 -2.25,3.15625 -1.50002,0.72916 -3.65627,1.09375 -6.46875,1.09375 -2.66668,0 -4.68751,-0.44792 -6.0625,-1.34375 -1.37501,-0.89583 -2.27605,-2.13542 -2.70313,-3.71875 -0.42709,-1.58333 -0.64063,-3.69791 -0.64062,-6.34375 l 0,-16.375 -1.125,0 c -1.22917,3e-5 -2.16667,-0.29164 -2.8125,-0.875 -0.64584,-0.58331 -0.96876,-1.32289 -0.96875,-2.21875 -1e-5,-0.8958 0.33854,-1.63018 1.01562,-2.20313 0.67708,-0.57288 1.66146,-0.85934 2.95313,-0.85937 z"
         id="path4431"
         style="font-size:64px" />
      <path
         d="m 397.26125,431.24344 0,7.125 c -2e-5,1.72917 -0.40627,3.02604 -1.21875,3.89062 -0.81252,0.86459 -1.84376,1.29688 -3.09375,1.29688 -1.22918,0 -2.23959,-0.4375 -3.03125,-1.3125 -0.79168,-0.875 -1.18751,-2.16667 -1.1875,-3.875 l 0,-23.75 c -1e-5,-3.8333 1.38541,-5.74997 4.15625,-5.75 1.41665,3e-5 2.43748,0.44795 3.0625,1.34375 0.62498,0.89586 0.96873,2.21878 1.03125,3.96875 1.02082,-1.74997 2.06769,-3.07289 3.14062,-3.96875 1.0729,-0.8958 2.50519,-1.34372 4.29688,-1.34375 1.79164,3e-5 3.53122,0.44795 5.21875,1.34375 1.68747,0.89586 2.53122,2.08336 2.53125,3.5625 -3e-5,1.04169 -0.35941,1.90107 -1.07813,2.57812 -0.71878,0.67711 -1.49482,1.01565 -2.32812,1.01563 -0.31253,2e-5 -1.06774,-0.19268 -2.26563,-0.57813 -1.19794,-0.38539 -2.25523,-0.57809 -3.17187,-0.57812 -1.25002,3e-5 -2.27085,0.32815 -3.0625,0.98437 -0.79169,0.65628 -1.40627,1.63024 -1.84375,2.92188 -0.43752,1.29169 -0.7396,2.82814 -0.90625,4.60937 -0.16668,1.78127 -0.25002,3.95314 -0.25,6.51563 z"
         id="path4433"
         style="font-size:64px" />
      <path
         d="m 448.73,426.21219 c -4e-5,2.54168 -0.39587,4.88543 -1.1875,7.03125 -0.79171,2.14584 -1.93754,3.98959 -3.4375,5.53125 -1.50003,1.54167 -3.2917,2.72396 -5.375,3.54687 -2.08336,0.82292 -4.42711,1.23438 -7.03125,1.23438 -2.58335,0 -4.90627,-0.41667 -6.96875,-1.25 -2.06251,-0.83333 -3.84897,-2.02604 -5.35938,-3.57813 -1.51042,-1.55207 -2.65625,-3.38541 -3.4375,-5.5 -0.78125,-2.11457 -1.17188,-4.45311 -1.17187,-7.01562 -1e-5,-2.58332 0.39583,-4.9479 1.1875,-7.09375 0.79166,-2.14581 1.92707,-3.97914 3.40625,-5.5 1.47915,-1.5208 3.27082,-2.69268 5.375,-3.51563 2.10415,-0.82288 4.42706,-1.23434 6.96875,-1.23437 2.58331,3e-5 4.92705,0.4167 7.03125,1.25 2.10413,0.83336 3.90622,2.02086 5.40625,3.5625 1.49996,1.54169 2.64059,3.37502 3.42187,5.5 0.78121,2.12502 1.17184,4.46877 1.17188,7.03125 z m -8.5625,0 c -3e-5,-3.47915 -0.76566,-6.18748 -2.29688,-8.125 -1.53127,-1.93747 -3.58856,-2.90622 -6.17187,-2.90625 -1.66669,3e-5 -3.13544,0.43232 -4.40625,1.29687 -1.27085,0.86461 -2.25002,2.14065 -2.9375,3.82813 -0.68752,1.68752 -1.03127,3.65627 -1.03125,5.90625 -2e-5,2.22918 0.33853,4.17709 1.01562,5.84375 0.67707,1.66667 1.64582,2.94271 2.90625,3.82812 1.2604,0.88543 2.74477,1.32813 4.45313,1.32813 2.58331,0 4.6406,-0.97395 6.17187,-2.92188 1.53122,-1.9479 2.29685,-4.64061 2.29688,-8.07812 z"
         id="path4435"
         style="font-size:64px" />
      <path
         d="m 487.355,426.21219 c -4e-5,2.54168 -0.39587,4.88543 -1.1875,7.03125 -0.79171,2.14584 -1.93754,3.98959 -3.4375,5.53125 -1.50003,1.54167 -3.2917,2.72396 -5.375,3.54687 -2.08336,0.82292 -4.42711,1.23438 -7.03125,1.23438 -2.58335,0 -4.90627,-0.41667 -6.96875,-1.25 -2.06251,-0.83333 -3.84897,-2.02604 -5.35938,-3.57813 -1.51042,-1.55207 -2.65625,-3.38541 -3.4375,-5.5 -0.78125,-2.11457 -1.17188,-4.45311 -1.17187,-7.01562 -1e-5,-2.58332 0.39583,-4.9479 1.1875,-7.09375 0.79166,-2.14581 1.92707,-3.97914 3.40625,-5.5 1.47915,-1.5208 3.27082,-2.69268 5.375,-3.51563 2.10415,-0.82288 4.42706,-1.23434 6.96875,-1.23437 2.58331,3e-5 4.92705,0.4167 7.03125,1.25 2.10413,0.83336 3.90622,2.02086 5.40625,3.5625 1.49996,1.54169 2.64059,3.37502 3.42187,5.5 0.78121,2.12502 1.17184,4.46877 1.17188,7.03125 z m -8.5625,0 c -3e-5,-3.47915 -0.76566,-6.18748 -2.29688,-8.125 -1.53127,-1.93747 -3.58856,-2.90622 -6.17187,-2.90625 -1.66669,3e-5 -3.13544,0.43232 -4.40625,1.29687 -1.27085,0.86461 -2.25002,2.14065 -2.9375,3.82813 -0.68752,1.68752 -1.03127,3.65627 -1.03125,5.90625 -2e-5,2.22918 0.33853,4.17709 1.01562,5.84375 0.67707,1.66667 1.64582,2.94271 2.90625,3.82812 1.2604,0.88543 2.74477,1.32813 4.45313,1.32813 2.58331,0 4.6406,-0.97395 6.17187,-2.92188 1.53122,-1.9479 2.29685,-4.64061 2.29688,-8.07812 z"
         id="path4437"
         style="font-size:64px" />
      <path
         d="m 522.4175,426.83719 0,11.34375 c -4e-5,1.79167 -0.40629,3.13542 -1.21875,4.03125 -0.81254,0.89583 -1.88545,1.34375 -3.21875,1.34375 -1.2917,0 -2.33857,-0.44792 -3.14063,-1.34375 -0.80211,-0.89583 -1.20315,-2.23958 -1.20312,-4.03125 l 0,-13.59375 c -3e-5,-2.14581 -0.0729,-3.81248 -0.21875,-5 -0.14586,-1.18748 -0.54169,-2.16143 -1.1875,-2.92188 -0.64586,-0.76039 -1.66669,-1.14059 -3.0625,-1.14062 -2.79169,3e-5 -4.63023,0.95836 -5.51563,2.875 -0.88543,1.91669 -1.32814,4.66669 -1.32812,8.25 l 0,11.53125 c -2e-5,1.77083 -0.40106,3.10938 -1.20313,4.01562 -0.80209,0.90625 -1.85938,1.35938 -3.17187,1.35938 -1.29168,0 -2.34897,-0.45313 -3.17188,-1.35938 -0.82292,-0.90624 -1.23438,-2.24479 -1.23437,-4.01562 l 0,-24.40625 c -1e-5,-1.60414 0.36978,-2.82289 1.10937,-3.65625 0.73958,-0.8333 1.71354,-1.24997 2.92188,-1.25 1.16665,3e-5 2.14061,0.39066 2.92187,1.17187 0.78124,0.78129 1.17186,1.85941 1.17188,3.23438 l 0,0.8125 c 1.47915,-1.7708 3.06248,-3.07289 4.75,-3.90625 1.68748,-0.8333 3.56248,-1.24997 5.625,-1.25 2.1458,3e-5 3.98955,0.42712 5.53125,1.28125 1.54163,0.8542 2.81246,2.14586 3.8125,3.875 1.43746,-1.74997 2.97913,-3.04684 4.625,-3.89063 1.64579,-0.84371 3.46871,-1.26559 5.46875,-1.26562 2.33328,3e-5 4.3437,0.45837 6.03125,1.375 1.68745,0.9167 2.94786,2.2292 3.78125,3.9375 0.72911,1.54169 1.09369,3.96877 1.09375,7.28125 l 0,16.65625 c -6e-5,1.79167 -0.40631,3.13542 -1.21875,4.03125 -0.81255,0.89583 -1.88547,1.34375 -3.21875,1.34375 -1.29172,0 -2.34901,-0.45313 -3.17188,-1.35938 -0.82296,-0.90624 -1.23442,-2.24479 -1.23437,-4.01562 l 0,-14.34375 c -5e-5,-1.83331 -0.0782,-3.30206 -0.23438,-4.40625 -0.15629,-1.10414 -0.57817,-2.03123 -1.26562,-2.78125 -0.68755,-0.74997 -1.72921,-1.12497 -3.125,-1.125 -1.12504,3e-5 -2.19275,0.33336 -3.20313,1 -1.01045,0.66669 -1.79691,1.56252 -2.35937,2.6875 -0.62504,1.43752 -0.93754,3.97918 -0.9375,7.625 z"
         id="path4439"
         style="font-size:64px" />
      <path
         d="m 578.13625,432.39969 c -4e-5,2.35417 -0.57295,4.3698 -1.71875,6.04687 -1.14587,1.67709 -2.83857,2.94792 -5.07813,3.8125 -2.23961,0.86459 -4.96356,1.29688 -8.17187,1.29688 -3.06252,0 -5.68752,-0.46875 -7.875,-1.40625 -2.18751,-0.9375 -3.80209,-2.10937 -4.84375,-3.51563 -1.04167,-1.40624 -1.56251,-2.8177 -1.5625,-4.23437 -10e-6,-0.93749 0.33333,-1.73957 1,-2.40625 0.66666,-0.66666 1.51041,-0.99999 2.53125,-1 0.89582,10e-6 1.58332,0.21876 2.0625,0.65625 0.47915,0.43751 0.93749,1.05209 1.375,1.84375 0.87499,1.52084 1.92186,2.65626 3.14062,3.40625 1.21874,0.75 2.88019,1.125 4.98438,1.125 1.70831,0 3.10935,-0.3802 4.20312,-1.14063 1.09373,-0.76041 1.6406,-1.6302 1.64063,-2.60937 -3e-5,-1.49999 -0.56774,-2.59374 -1.70313,-3.28125 -1.13544,-0.68749 -3.00523,-1.34374 -5.60937,-1.96875 -2.93752,-0.72915 -5.32814,-1.49478 -7.17188,-2.29688 -1.84376,-0.80206 -3.31771,-1.85935 -4.42187,-3.17187 -1.10417,-1.31248 -1.65626,-2.92706 -1.65625,-4.84375 -10e-6,-1.70831 0.51041,-3.32289 1.53125,-4.84375 1.02082,-1.5208 2.52603,-2.73434 4.51562,-3.64063 1.98957,-0.90621 4.39061,-1.35934 7.20313,-1.35937 2.20831,3e-5 4.19268,0.2292 5.95312,0.6875 1.76039,0.45836 3.22914,1.07295 4.40625,1.84375 1.17706,0.77086 2.07289,1.62503 2.6875,2.5625 0.61455,0.93753 0.92185,1.85419 0.92188,2.75 -3e-5,0.97919 -0.32816,1.78127 -0.98438,2.40625 -0.65628,0.62502 -1.58857,0.93752 -2.79687,0.9375 -0.87503,2e-5 -1.61982,-0.24998 -2.23438,-0.75 -0.61461,-0.49998 -1.31773,-1.24998 -2.10937,-2.25 -0.64586,-0.83331 -1.40627,-1.49997 -2.28125,-2 -0.87502,-0.49997 -2.06252,-0.74997 -3.5625,-0.75 -1.54169,3e-5 -2.82293,0.32815 -3.84375,0.98437 -1.02085,0.65628 -1.53127,1.47399 -1.53125,2.45313 -2e-5,0.89586 0.37498,1.63023 1.125,2.20312 0.74998,0.57294 1.7604,1.0469 3.03125,1.42188 1.27081,0.37502 3.02081,0.83335 5.25,1.375 2.64581,0.64585 4.80726,1.41668 6.48437,2.3125 1.67706,0.89585 2.94789,1.95314 3.8125,3.17187 0.86455,1.21877 1.29684,2.60939 1.29688,4.17188 z"
         id="path4441"
         style="font-size:64px" />
    </g>
  </g>
</svg>
