<?xml version="1.0"?>
<svg xmlns:rdf="http://www.w3.org/1999/02/22-rdf-syntax-ns#" xmlns="http://www.w3.org/2000/svg" xmlns:cc="http://creativecommons.org/ns#" xmlns:xlink="http://www.w3.org/1999/xlink" xmlns:dc="http://purl.org/dc/elements/1.1/" xmlns:svg="http://www.w3.org/2000/svg" id="svg2850" viewBox="0 0 496.95 500" version="1.1">
  <defs id="defs2852">
    <linearGradient id="linearGradient4098-04-9-8">
      <stop id="stop4100-8-2-2" stop-color="#ffb142" offset="0"/>
      <stop id="stop4104-4-7-3" stop-color="#c87600" offset="1"/>
    </linearGradient>
    <linearGradient id="linearGradient11535" y2="362.28" xlink:href="#linearGradient4098-04-9-8" gradientUnits="userSpaceOnUse" x2="219.61" gradientTransform="matrix(.69430 0 0 .66476 463.14 -101.49)" y1="354.02" x1="219.61"/>
    <linearGradient id="linearGradient11537" y2="362.28" xlink:href="#linearGradient4098-04-9-8" gradientUnits="userSpaceOnUse" x2="238.98" gradientTransform="matrix(.69430 0 0 .66476 449.69 -101.49)" y1="354.02" x1="238.98"/>
    <linearGradient id="linearGradient11539" y2="362.28" xlink:href="#linearGradient4098-04-9-8" gradientUnits="userSpaceOnUse" x2="229.44" gradientTransform="matrix(.69430 0 0 .66476 456.32 -101.49)" y1="354.02" x1="229.44"/>
    <linearGradient id="linearGradient11541" y2="362.28" xlink:href="#linearGradient4098-04-9-8" gradientUnits="userSpaceOnUse" x2="176.39" gradientTransform="matrix(.69430 0 0 .66476 493.15 -101.49)" y1="354.02" x1="176.39"/>
    <linearGradient id="linearGradient11543" y2="362.28" xlink:href="#linearGradient4098-04-9-8" gradientUnits="userSpaceOnUse" x2="195.75" gradientTransform="matrix(.69430 0 0 .66476 479.71 -101.49)" y1="354.02" x1="195.75"/>
    <linearGradient id="linearGradient11545" y2="362.28" xlink:href="#linearGradient4098-04-9-8" gradientUnits="userSpaceOnUse" x2="186.21" gradientTransform="matrix(.69430 0 0 .66476 486.33 -101.49)" y1="354.02" x1="186.21"/>
    <linearGradient id="linearGradient11547" y2="537.41" xlink:href="#linearGradient4098-04-9-8" gradientUnits="userSpaceOnUse" x2="359.47" gradientTransform="matrix(.25004 0 0 .30327 525.65 -97.817)" y1="537.41" x1="346.24"/>
    <linearGradient id="linearGradient11549" y2="680.23" gradientUnits="userSpaceOnUse" x2="393.93" gradientTransform="matrix(.19783 0 0 .19362 535.49 14.959)" y1="615.83" x1="375.02">
      <stop id="stop3837-2-3-1-8" stop-color="#a9a9a9" offset="0"/>
      <stop id="stop3843-6-3-6-5" stop-color="#9c9c9c" offset=".26286"/>
      <stop id="stop3847-6-37-5-5" stop-color="#97989c" offset=".48949"/>
      <stop id="stop3845-4-98-7-0" stop-color="#9e9fa1" offset=".77823"/>
      <stop id="stop3839-9-6-8-7" stop-color="#acacac" offset="1"/>
    </linearGradient>
  </defs>
  <g id="layer1" transform="translate(-60.941 -522.59)">
    <text id="text2911" font-size="56.297px" xml:space="preserve" y="737.43268" x="1105.6608" font-family="Asenine" fill="#000000">
      <tspan id="tspan2913" y="737.43268" x="1105.6608"/>
    </text>
    <text id="text2911-4" font-size="12px" xml:space="preserve" y="377.27899" x="1177.5544" font-family="Asenine" fill="#000000">
      <tspan id="tspan2913-9" y="377.27899" x="1177.5544"/>
    </text>
    <g id="g11023" transform="matrix(3.3727 0 0 3.3727 -1760.2 525.65)">
      <path id="path3226-99-2-1" stroke-linejoin="round" d="m611.72 133.26a5.5544 8.9743 0 0 1 -11.109 0 5.5544 8.9743 0 1 1 11.109 0z" stroke="#000" stroke-linecap="round" stroke-width="1.9489" fill="url(#linearGradient11535)"/>
      <path id="path3228-6-2-1" stroke-linejoin="round" d="m598.27 133.26a5.5544 8.9743 0 0 1 -11.109 0 5.5544 8.9743 0 1 1 11.109 0z" stroke="#000" stroke-linecap="round" stroke-width="1.9489" fill="url(#linearGradient11537)"/>
      <path id="path3230-06-1-9" stroke-linejoin="round" d="m604.9 133.26a5.5544 8.9743 0 0 1 -11.109 0 5.5544 8.9743 0 1 1 11.109 0z" stroke="#000" stroke-linecap="round" stroke-width="1.9489" fill="url(#linearGradient11539)"/>
      <path id="path3224-49-6-0" stroke-linejoin="round" d="m641.73 133.26a5.5544 8.9743 0 0 1 -11.109 0 5.5544 8.9743 0 1 1 11.109 0z" stroke="#000" stroke-linecap="round" stroke-width="1.9489" fill="url(#linearGradient11541)"/>
      <path id="path3220-9-3-8" stroke-linejoin="round" d="m628.29 133.26a5.5544 8.9743 0 0 1 -11.109 0 5.5544 8.9743 0 1 1 11.109 0z" stroke="#000" stroke-linecap="round" stroke-width="1.9489" fill="url(#linearGradient11543)"/>
      <path id="path3222-0-0-9" stroke-linejoin="round" d="m634.91 133.26a5.5544 8.9743 0 0 1 -11.109 0 5.5544 8.9743 0 1 1 11.109 0z" stroke="#000" stroke-linecap="round" stroke-width="1.9489" fill="url(#linearGradient11545)"/>
      <path id="path3250-893-2-8" d="m592.72 124.28c-2.2632 0-4.202 2.1946-5.0671 5.3351 7.3946 1.9779 15.519 3.1316 24.057 3.2888-0.1163-4.7884-2.5503-8.624-5.5422-8.624-1.2867 0-2.4686 0.71233-3.4106 1.9002-0.94197-1.1879-2.124-1.9002-3.4106-1.9002-1.2418 0-2.3879 0.66457-3.3132 1.7784-0.92533-1.1138-2.0713-1.7784-3.3131-1.7784zm30.013 0c-2.9843 0-5.4143 3.8162-5.5422 8.5874 8.5287-0.27452 16.611-1.5527 23.947-3.642-0.9149-2.9294-2.7897-4.9454-4.9575-4.9454-1.2867 0-2.4686 0.71233-3.4106 1.9002-0.94197-1.1879-2.124-1.9002-3.4106-1.9002-1.2418 0-2.3879 0.66457-3.3132 1.7784-0.92532-1.1138-2.0713-1.7784-3.3131-1.7784z" fill-opacity=".31373"/>
      <path id="path2385-1-1-8" d="m678.24 64.62a64.534 64.534 0 0 1 -129.07 0 64.534 64.534 0 1 1 129.07 0z" stroke="#000" stroke-linecap="round" stroke-width="1.9489" fill="#784421"/>
      <path id="path3167-48-5-0" stroke-linejoin="round" d="m645.6 96.886c-10.329-1.9191-0.876 8.4314-2.4598 12.174-6.2612-3.0786-3.8755 7.1135-6.7067 9.9448-5.3649-0.28689-6.2023 5.123-9.9449 6.7068-4.5221-2.5089-7.8565 2.4598-12.174 2.4598-4.3174 0-6.8723-4.7738-12.174-2.4598-3.7425-1.5838-4.5799-6.7988-9.9448-6.7068-2.8314-2.8313-2.3946-13.608-6.7068-9.9448-1.5838-3.7425 5.7256-14.873-2.4598-12.174 0-4.3174 8.6716-12.329 2.4598-12.174 1.5838-3.7425 9.5273-6.5288 6.7068-9.9448 5.6626-5.6626 13.484-9.1666 22.119-9.1666 8.6347 0 16.456 3.504 22.119 9.1666-4.1848 2.0518 5.1229 6.2023 6.7067 9.9448-6.9913-0.35018 2.4598 7.8565 2.4598 12.174z" stroke="#000" stroke-linecap="round" stroke-width="1.9489" fill="#fff"/>
      <path id="path3211-96-6-3" d="m670.72 34.387c0.77199 3.9884 1.1815 8.1018 1.1815 12.315 0 1.4538-0.0513 2.8942-0.14616 4.3241-1.4315-0.07126-2.9539 0.007-4.5799 0.24361-13.726 2.9228-7.8632 20.138-11.438 38.15-11.827 13.381-29.12 21.816-48.37 21.816-11.839 0-22.931-3.199-32.474-8.7701-9.2297-21.61 3.148-45.084-13.119-49.137-17.973-3.2451-24.935 13.43-13.313 38.418 6.4162 13.796 17.042 20.573 24.861 23.204 11.056 8.8872 25.099 14.203 40.379 14.203 17.91 0 34.128-7.3042 45.824-19.099 6.8031-3.3979 14.368-9.5866 19.623-19.94 9.8273-19.361 7.9456-33.942-2.1316-37.979-1.2356-6.2895-3.3778-12.255-6.2974-17.747z" fill-rule="evenodd" fill-opacity=".31373"/>
      <path id="path3169-7-5-7" d="m561.73 50.19c18.753 6.7432-5.5207 36.695 14.741 62.83 3.7452 4.8307-22.556 0.81494-31.854-25.954-9.0423-26.032-0.44137-41.917 17.113-36.876z" fill-rule="evenodd" stroke="#000" stroke-width="1.9489" fill="#784421"/>
      <path id="path3800-73-0-0" d="m665.58 50.19c-18.753 6.7432 5.5207 36.695-14.741 62.83-3.7452 4.8307 22.556 0.81494 31.854-25.954 9.0423-26.032 0.44131-41.917-17.113-36.876z" fill-rule="evenodd" stroke="#000" stroke-width="1.9487" fill="#784421"/>
      <path id="path2413-7-0-6" stroke-linejoin="round" d="m658.69 46.664c5.2187-1.7965 10.61 2.956 11.641 5.5271-5.2668-1.3456-7.6864-1.7251-9.0501-0.53818 0.58732 1.3141 6.7855 2.6279 8.7067 11.253-4.8445-3.3586-8.6935-7.2404-10.241-5.6453 1.1232 1.9621 2.4165 5.6508 1.5449 9.3083-2.7836-3.6735-5.6279-7.5534-8.2406-7.6584" fill-rule="evenodd" stroke="#000" stroke-linecap="round" stroke-width="1.9489" fill="#784421"/>
      <path id="path2387-1-3-9" d="m595.79 14.806c-12.175 0-22.063 11.433-22.063 25.52s9.8883 25.52 22.063 25.52c7.1547 0 13.504-3.9527 17.534-10.068 4.0303 6.1196 10.393 10.068 17.551 10.068 12.175 0 22.063-11.433 22.063-25.52s-9.8883-25.52-22.063-25.52c-7.1569 0-13.521 3.9495-17.551 10.068-4.0305-6.1138-10.38-10.068-17.534-10.068z" stroke="#000" stroke-linecap="round" stroke-width="1.9489" fill="#fff"/>
      <path id="path3407-2-4-2" d="m614 58.036c-3.6202 0-7.5554 4.0254-7.398 6.5677 0.15745 2.5423 6.4536 13.135 7.8703 13.135 1.4166 0 6.9257-10.381 6.7684-13.347-0.15745-2.9661-4.8795-6.5677-7.2406-6.3558z" fill-rule="evenodd" fill-opacity=".31373"/>
      <path id="path2391-21-6-1" d="m613.17 53.901c-3.6203 0-7.5554 3.6274-7.398 5.9184 0.15744 2.291 6.4536 11.837 7.8702 11.837s6.9258-9.3548 6.7684-12.028c-0.15745-2.6728-4.8796-5.9184-7.2406-5.7275z" fill-rule="evenodd" stroke="#000" stroke-width="1.9489" fill="url(#linearGradient11547)"/>
      <path id="path3193-50-6-7" stroke-linejoin="round" d="m568.51 46.664c-5.2187-1.7965-10.61 2.956-11.641 5.5271 5.2668-1.3456 7.6864-1.7251 9.0501-0.53818-0.5873 1.3141-6.7854 2.6279-8.7067 11.253 4.8445-3.3586 8.6935-7.2404 10.241-5.6453-1.1232 1.9621-2.4165 5.6508-1.5449 9.3083 2.7836-3.6735 5.628-7.5534 8.2406-7.6584" fill-rule="evenodd" stroke="#000" stroke-linecap="round" stroke-width="1.9489" fill="#784421"/>
      <path id="path3283-90-0-7" stroke-linejoin="round" d="m618.72 19.101c5.1747-12.535 13.902-14.232 13.902-14.232s-4.8541 6.5387-0.45765 4.7198c6.8077-2.8165 28.453 6.0098 28.453 6.0098s-28.678-6.6754-41.897 3.5026z" fill-rule="evenodd" stroke="#000" stroke-width="1.9489" fill="#fff"/>
      <path id="path3285-4-2-9" stroke-linejoin="round" d="m606.86 17.931c-5.18-12.535-13.9-14.232-13.9-14.232s4.8541 6.5387 0.45757 4.7198c-6.8076-2.8165-28.453 6.0098-28.453 6.0098s28.678-6.6754 41.897 3.5026z" fill-rule="evenodd" stroke="#000" stroke-width="1.9489" fill="#fff"/>
      <g id="g4399-0-5-7" transform="matrix(.38978 0 0 .38978 467.48 -131.83)">
        <path id="path2411-13-8-6" stroke="#000" stroke-width="5" stroke-linecap="round" d="m370.59 457.69a16.387 16.387 0 1 1 -32.774 0 16.387 16.387 0 1 1 32.774 0z"/>
        <path id="path3341-7-9-2" d="m352.54 451.95a4.25 4.25 0 0 1 -8.5 0 4.25 4.25 0 1 1 8.5 0z" fill="#fff"/>
      </g>
      <g id="g4395-4-5-7" transform="matrix(.38978 0 0 .38978 467.48 -131.83)">
        <path id="path3301-1-0-1" stroke="#000" stroke-width="5" stroke-linecap="round" d="m404.65 443.96a16.387 16.387 0 1 1 -17.885 27.464 16.387 16.387 0 1 1 17.885 -27.464z"/>
        <path id="path3343-13-6-5" d="m394.04 451.95a4.25 4.25 0 0 1 -8.5 0 4.25 4.25 0 1 1 8.5 0z" fill="#fff"/>
      </g>
      <path id="path3200-0-0-8" d="m671.72 49.259c-0.16087-0.000233-0.32415 0.008-0.48728 0.01221 6.3192 5.0923 8.9936 16.876 5.7615 33.265-4.2966 21.787-20.883 31.186-26.396 31.682 1.79 2.5439 23.765-3.1673 32.096-27.151 7.912-22.778 2.3078-37.789-10.975-37.809z" fill-rule="evenodd" fill-opacity=".31373"/>
      <path id="path3205-32-8-8" d="m541.58 61.806c-1.3454 6.4337-0.50614 15.074 3.033 25.263 9.2982 26.769 35.598 30.788 31.852 25.957-1.6016-2.0658-2.9313-4.1607-4.0196-6.2608-7.387-1.7702-21.067-9.5014-27.248-27.297-2.2917-6.5977-3.4511-12.543-3.6177-17.662zm27.784 2.4727c-0.34412 3.3272-0.72352 6.8648-0.88919 10.573 0.38717-3.8162 0.81051-7.3829 0.88919-10.573z" fill-rule="evenodd" fill-opacity=".31373"/>
      <path id="rect2830-0-7-4-7-4" d="m562.92 140v2.3658c0 2.2219 1.8223 4.0116 4.0926 4.0116l7.2331 0.00008v-1.1313h78.735v1.1313h6.8374c2.2702 0 4.0987-1.7897 4.0987-4.0117v-2.3658h-101z" stroke="#000" stroke-width="1.9487" fill="url(#linearGradient11549)"/>
      <path id="rect2830-2-2-8-5" d="m562.66 75.159h102.24c2.5011 0 4.5146 1.7714 4.5146 3.9717l-3.3438 60.088c0 2.2003-1.6582 3.9718-4.1592 3.9718h-95.124c-2.5011 0-5.3687-1.7714-5.3687-3.9718l-3.2726-60.088c0-2.2003 2.0135-3.9717 4.5146-3.9717z" stroke="#000" stroke-width="1.9487" fill="#999"/>
      <g id="g11018" fill="#fff" transform="translate(-.40812 .68803)">
        <path id="rect3628-1-7-1-5" d="m616.57 100.87c-1.6979 0.14205-2.6271 1.1441-2.7207 2.8074-0.0319 0.24108 0.0529 0.16951 0.19682 0.15769 1.8971-0.36336 2.7739-1.3948 2.7467-2.83-0.008-0.16693-0.0404-0.14578-0.22287-0.13504z"/>
        <g id="g3913-6-9-2" transform="matrix(.30131 0 0 .25109 420.65 -24.695)">
          <path id="rect3604-6-5-2-5-1-26-6" d="m644.6 515.98c6.6465-2.7664 8.4769 11.02 10.374 15.537 0.42761 1.0853 0.49531 1.5146-0.031 2.1544-8.6365 10.711 0.41744 15.742 5.2981 16.564 1.2156 0.22651 1.3109 0.86454 1.0276 1.7982-0.11207 0.46085-0.37805 0.84814-0.61549 1.2512-2.717 4.4892-6.4132 8.3035-12.13 7.147-1.5348-0.5505-2.9122-1.2534-4.5347-1.6044-1.6706-0.25931-3.521-0.096-4.9524 0.41858-1.0096 0.39776-1.9211 0.90111-2.9658 1.2349-2.8678 0.8024-5.5041-0.17319-7.2158-1.3409-1.2106-0.89903-1.8216-1.7977-2.4748-2.8966-2.9469-4.073-3.9701-9.4689-2.4012-13.681 0.44626-1.0461 0.81955-2.1106 1.3371-3.0915 3.9256-7.44 7.1943-14.244 10.156-21.484 0.64698-1.6471 2.1307-2.046 3.6677-2.0514 1.8075-0.0679 2.8668 1.7804 5.4612 0.0446v0.00013h-0.00002z" fill="#fff"/>
        </g>
      </g>
    </g>
  </g>
  <metadata>
    <rdf:RDF>
      <cc:Work>
        <dc:format>image/svg+xml</dc:format>
        <dc:type rdf:resource="http://purl.org/dc/dcmitype/StillImage"/>
        <cc:license rdf:resource="http://creativecommons.org/licenses/publicdomain/"/>
        <dc:publisher>
          <cc:Agent rdf:about="http://openclipart.org/">
            <dc:title>Openclipart</dc:title>
          </cc:Agent>
        </dc:publisher>
        <dc:title>Owl with notebook</dc:title>
        <dc:date>2012-03-17T16:03:58</dc:date>
        <dc:description>Owl with notebook</dc:description>
        <dc:source>http://openclipart.org/detail/168877/owl-with-notebook-by-bocian</dc:source>
        <dc:creator>
          <cc:Agent>
            <dc:title>bocian</dc:title>
          </cc:Agent>
        </dc:creator>
        <dc:subject>
          <rdf:Bag>
            <rdf:li>animal</rdf:li>
            <rdf:li>bird</rdf:li>
            <rdf:li>cartoon</rdf:li>
            <rdf:li>clip art</rdf:li>
            <rdf:li>clipart</rdf:li>
            <rdf:li>computer</rdf:li>
            <rdf:li>funny</rdf:li>
            <rdf:li>laptop</rdf:li>
            <rdf:li>notebook</rdf:li>
            <rdf:li>owl</rdf:li>
            <rdf:li>pc</rdf:li>
            <rdf:li>portable device</rdf:li>
          </rdf:Bag>
        </dc:subject>
      </cc:Work>
      <cc:License rdf:about="http://creativecommons.org/licenses/publicdomain/">
        <cc:permits rdf:resource="http://creativecommons.org/ns#Reproduction"/>
        <cc:permits rdf:resource="http://creativecommons.org/ns#Distribution"/>
        <cc:permits rdf:resource="http://creativecommons.org/ns#DerivativeWorks"/>
      </cc:License>
    </rdf:RDF>
  </metadata>
</svg>
