<?xml version="1.0"?>
<svg xmlns:rdf="http://www.w3.org/1999/02/22-rdf-syntax-ns#" xmlns="http://www.w3.org/2000/svg" xmlns:cc="http://creativecommons.org/ns#" xmlns:dc="http://purl.org/dc/elements/1.1/" xmlns:svg="http://www.w3.org/2000/svg" id="svg4678" viewBox="0 0 316.52 310.99" version="1.1">
  <g id="layer1" transform="translate(-33.977 -37.261)">
    <path id="path4697" d="m184.3 348.02c-3.4497-0.21432-8.3043-0.51866-10.788-0.67631-2.4838-0.15765-5.3047-0.51448-6.2688-0.79295-0.96409-0.27847-2.503-0.50631-3.4199-0.50631-0.91687 0-2.0945-0.22876-2.6169-0.50836-0.52244-0.2796-2.822-0.86342-5.1101-1.2974-2.2882-0.43395-4.3861-0.96371-4.662-1.1772-0.27597-0.21352-1.292-0.53672-2.258-0.71824-0.9659-0.18151-2.8852-0.75846-4.265-1.2821-1.3799-0.52365-3.5249-1.2229-4.7668-1.554-1.2419-0.33103-2.7096-0.79571-3.2615-1.0326-0.55195-0.23691-2.2448-0.9073-3.762-1.4897-1.5172-0.58246-3.0122-1.2696-3.3224-1.527-0.31016-0.25741-1.7122-0.80904-3.1158-1.2258-1.4035-0.4168-2.6862-0.9753-2.8505-1.2411-0.16428-0.26582-2.6013-1.6394-5.4156-3.0524s-6.6517-3.504-8.5275-4.6468c-1.8759-1.1427-3.8419-2.3195-4.369-2.615-0.5271-0.29555-1.5887-1.1677-2.3592-1.9382-0.77043-0.77043-2.9643-2.4479-4.8753-3.7277s-4.1692-2.8078-5.0182-3.3954c-1.4135-0.97848-19.858-18.95-19.858-19.349 0-0.0953-1.3672-1.6369-3.0383-3.4258-2.6299-2.8153-10.289-12.667-11.764-15.131-0.27597-0.46116-2.0362-3.1111-3.9117-5.8887-1.8754-2.7776-3.7608-5.8998-4.1896-6.9381-0.42881-1.0384-1.0753-2.2266-1.4366-2.6406-2.8198-3.2305-9.3553-20.734-13.021-34.873-1.4614-5.6366-1.8879-11.525-2.0349-28.099-0.1238-13.954 0.0078-17.861 0.8368-24.838 1.1069-9.3158 1.7064-12.781 2.7779-16.057 0.40627-1.2419 1.1697-4.0122 1.6964-6.1563 0.52678-2.1441 1.4118-4.7882 1.9666-5.8758 0.55486-1.0876 1.0088-2.2697 1.0088-2.6268 0-0.35713 0.9236-2.5676 2.0524-4.9122s2.8409-5.9564 3.8045-8.0262c3.6857-7.9165 7.8598-15.743 9.6222-18.043 0.73155-0.95446 1.7817-2.4541 2.3336-3.3325 1.022-1.6265 4.94-7.2598 6.9448-9.9852 4.252-5.7804 6.1797-8.2956 7.7814-10.153 2.5238-2.9268 10.993-11.596 13.126-13.436 5.5201-4.7617 8.0058-6.7742 9.9728-8.074 5.3171-3.5138 6.4995-4.2691 9.3411-5.9672 1.6558-0.98955 3.3493-2.0015 3.7633-2.2488 0.41396-0.24727 1.5429-0.8278 2.5088-1.29 0.9659-0.46225 2.9981-1.4651 4.5159-2.2285 10.524-5.2932 16.225-7.5618 23.834-9.4847 12.222-3.0885 16.606-4.119 18.565-4.3635 1.1039-0.13776 4.0392-0.60055 6.523-1.0284 6.0623-1.0444 20.087-1.9874 27.829-1.8714 6.1425 0.09209 8.4326 0.24972 14.069 0.96842 1.5178 0.19354 3.6629 0.42285 4.7668 0.50958s4.265 0.52132 7.0248 0.96575c2.7597 0.44443 5.5822 0.88811 6.2721 0.98595 3.1512 0.44689 9.0725 1.9157 12.042 2.9871 1.7938 0.64715 5.9514 2.0226 9.239 3.0565 5.5343 1.7405 19.422 8.2668 21.399 10.057 0.44067 0.3988 0.96363 0.7251 1.1621 0.7251 0.19851 0 1.5355 0.7483 2.9711 1.6629 1.4356 0.91458 3.852 2.3135 5.3699 3.1086 1.5178 0.79515 3.4371 2.0671 4.265 2.8265 0.82792 0.75945 3.2254 2.6911 5.3278 4.2925 9.0554 6.8977 16.51 14.095 23.284 22.481 1.3376 1.6558 2.6162 3.0859 2.8413 3.1779 0.22507 0.09199 0.40922 0.48714 0.40922 0.8781s0.30494 0.71084 0.67765 0.71084c0.65386 0 3.4486 3.9443 4.622 6.523 0.31392 0.68994 1.1333 1.9318 1.8208 2.7597 0.68751 0.82792 1.9069 2.5983 2.7097 3.9342 2.4786 4.1243 3.0018 4.9706 5.6328 9.1118 2.1916 3.4495 3.4939 5.9085 7.9269 14.968 0.38229 0.78129 0.69508 1.8405 0.69508 2.3538 0 0.51329 0.20951 1.0627 0.46557 1.221 0.62914 0.38883 5.7226 16.148 6.7377 20.846 1.53 7.0818 3.4188 19.316 3.6797 23.834 0.14342 2.4838 0.26061 10.612 0.26042 18.064-0.0003 11.214-0.18456 14.801-1.0697 20.823-1.6293 11.085-3.3767 18.095-5.8159 23.332-1.9922 4.2773-6.275 13.739-7.2788 16.081-0.52574 1.2265-1.9239 3.76-3.107 5.6301-1.1831 1.87-2.4339 3.8466-2.7795 4.3923-0.34562 0.54569-0.8308 1.4548-1.0782 2.0202-0.60585 1.3848-8.5927 12.132-12.915 17.379-11.228 13.63-11.499 13.945-15.631 18.222-4.0008 4.141-10.109 9.7845-10.59 9.7845-0.21829 0-0.82703 0.48608-1.3528 1.0802-0.52573 0.5941-2.6493 2.1686-4.7191 3.4988s-4.6664 3.0665-5.7703 3.8584c-3.0564 2.1925-7.9009 4.7144-14.551 7.5748-3.3117 1.4244-6.6986 2.8955-7.5265 3.2692-4.863 2.1947-21.691 7.4731-25.855 8.1098-1.2345 0.18877-2.4726 0.52089-2.7514 0.73805-0.84461 0.65791-9.1207 1.5374-16.302 1.7324-3.7256 0.10117-9.935 0.27818-13.799 0.39336-3.8636 0.11518-9.8472 0.0341-13.297-0.18026zm76.121-33.76c0.33281-0.31855 2.6763-4.6435 5.2077-9.611s4.7732-9.2576 4.9818-9.5336c0.20859-0.27597 0.53588-1.2343 0.7273-2.1295 0.19142-0.89527 0.63971-1.7984 0.99619-2.0071 1.2435-0.72771 2.9558-4.9238 3.5783-8.7688 0.34492-2.1304 0.65315-7.3264 0.68495-11.547 0.0318-4.2202 0.14742-9.0252 0.25694-10.678 0.51793-7.8154 0.82428-21.867 1.0368-47.554 0.21731-26.271 0.17782-28.011-0.64259-28.326-0.48077-0.18406-1.2618-0.79723-1.7355-1.3626-0.82522-0.98476-0.8621-0.98764-0.87809-0.0685-0.009 0.5277 0.57048 1.9614 1.2882 3.186 2.1857 3.7296-0.0546 4.2356-2.5852 0.5839-2.0728-2.9911-2.8476-2.3533-1.7577 1.4469 0.37674 1.3136 0.32019 1.7129-0.27499 1.9412-0.80177 0.30767-1.7913-0.73586-2.8205-2.9744-1.0256-2.2307-1.3761-1.6031-1.0506 1.8816 0.28999 3.1054 0.25248 3.2615-0.78396 3.2615-1.1547 0-1.9272-1.3947-2.4262-4.3805-0.37756-2.2591-1.1463-1.53-1.1463 1.0872 0 2.7767-1.0667 3.8382-2.2128 2.2021-0.43883-0.62651-0.81569-1.8227-0.83748-2.6582-0.0451-1.73-0.24142-1.344-0.69468 1.3661-0.19309 1.1544-0.59313 1.8816-1.0351 1.8816-0.71396 0-1.5658-2.1802-1.3233-3.3869 0.0693-0.34497-0.0808-0.62722-0.33359-0.62722-0.2528 0-0.60655 0.91875-0.78611 2.0417-0.25098 1.5696-0.52599 2.0032-1.1894 1.8755-0.61539-0.11851-0.9829-0.92003-1.2812-2.7943-0.4658-2.9264-0.89966-3.2527-1.7738-1.3343-0.99472 2.1832-1.8001 1.1383-2.2833-2.9622-0.24959-2.1181-0.58828-3.8452-0.75265-3.8381-0.16437 0.007-0.73344 0.96675-1.2646 2.1325-0.53117 1.1658-1.4908 2.8183-2.1325 3.6722-0.64172 0.85397-1.1668 1.678-1.1668 1.8312s-0.81412 1.4867-1.8092 2.9632c-3.0964 4.5948-4.2121 7.2126-4.2121 9.8824 0 3.2078 0.86855 5.1866 4.2491 9.6803 3.6813 4.8935 3.6454 5.1744-0.61126 4.7764-1.8628-0.17419-4.6288-0.64338-6.1467-1.0426-2.1248-0.55892-2.8932-0.58921-3.34-0.13167-0.52081 0.53334-1.1873 35.814-1.2247 64.826l-0.009 7.0302 2.6632 4.0239c2.9796 4.5018 3.7728 5.7502 10.668 16.789 2.6721 4.2776 5.2381 7.9411 5.7023 8.1412 1.2349 0.53234 9.772-0.10965 10.481-0.78817zm-43.296 0.37068c0.57411-0.2203 0.79369-0.98381 0.79369-2.7597 0-1.3503-0.22259-2.4552-0.49465-2.4552-0.81188 0-3.1585 3.927-2.841 4.7544 0.30892 0.80504 1.216 0.96936 2.542 0.46051zm57.859-1.0753c0.25521-0.75893 0.32624-1.933 0.15783-2.6092-0.29899-1.2004-0.33234-1.185-1.4185 0.65589-1.3638 2.3115-1.4122 3.3331-0.15784 3.3331 0.59422 0 1.1296-0.5208 1.4185-1.3799zm-72.405-3.2529c1.5237-2.2815 3.9048-5.6066 5.2914-7.3891s2.5211-3.3691 2.5211-3.5259c0-0.15674 0.84674-1.442 1.8816-2.8562 5.8926-8.052 5.6626-7.4929 5.9966-14.58 0.33916-7.1978 0.36553-8.5629 0.22062-11.423-0.0559-1.1039 0.007-5.0553 0.13897-8.781 0.13237-3.7256 0.37887-15.015 0.54778-25.088 0.16892-10.073 0.48809-19.556 0.70928-21.074 0.22119-1.5178 0.29902-3.0347 0.17295-3.3708-0.12607-0.33612-1.8935-1.4448-3.9276-2.4637l-3.6984-1.8526-1.9942 1.382c-1.7778 1.232-2.3561 1.3634-5.3292 1.2105-3.3152-0.17049-3.3389-0.16228-3.9886 1.383-0.77827 1.851-1.553 2.2064-4.8091 2.2064-1.7398 0-3.2284-0.41462-5.1021-1.421-1.4551-0.78155-5.468-2.9369-8.9177-4.7897s-7.2882-4.1382-8.5301-5.0788c-1.2419-0.94053-3.4041-2.4968-4.805-3.4584-3.9652-2.7218-4.1433-3.0638-2.8053-5.3886 0.62227-1.0812 0.96623-2.2426 0.76436-2.5808-2.1563-3.6127-5.9834-6.6628-12.344-9.8382-4.2909-2.142-6.635-4.1741-8.5108-7.3777-0.47105-0.80451-1.596-2.3254-2.4998-3.3798-1.605-1.8724-1.6426-2.0246-1.6119-6.523 0.0173-2.5332 0.3268-5.4944 0.68779-6.5805 0.95495-2.8729 4.9218-8.1445 6.7988-9.0353 1.4563-0.69107 1.8476-0.68644 4.0013 0.0474 2.0634 0.70305 2.8391 0.72809 5.7195 0.1846 3.2871-0.62022 3.3647-0.60924 5.7134 0.80946 1.3096 0.79101 2.5252 1.8898 2.7014 2.4418 0.17617 0.55197 0.2784 3.1708 0.22719 5.8197-0.0661 3.4168 0.0943 4.9655 0.5518 5.3304 0.3547 0.28283 2.79 1.5763 5.4117 2.8744s5.3777 2.6883 6.1243 3.0894c0.78476 0.42161 1.8857 0.59674 2.6095 0.41509 0.8386-0.21048 2.2047 0.13648 4.1374 1.0508 3.3146 1.568 5.753 1.8692 5.9778 0.73839 0.0823-0.41396 0.59746-1.8816 1.1448-3.2615 2.5869-6.5222 4.0876-10.584 4.0893-11.067 0.001-0.29136-0.56748-1.3014-1.2633-2.2445-0.69582-0.94313-1.1637-1.979-1.0398-2.302 0.12393-0.32298-0.34481-1.1193-1.0417-1.7696-1.7723-1.6539-3.1836-4.6037-3.137-6.5564 0.0552-2.3106 2.3103-5.772 5.4028-8.293 3.0408-2.4788 4.4722-2.6648 6.8065-0.88432 2.7238 2.0775 3.5704 1.5181 4.5555-3.0106 0.1801-0.82792 1.2145-3.4813 2.2987-5.8965 1.0842-2.4151 1.9713-4.6469 1.9713-4.9595 0-0.91655 3.5096-10.474 4.9497-13.48 1.1376-2.3741 1.3243-3.4258 1.3358-7.5265 0.007-2.6217 0.17385-6.9119 0.37001-9.5336 0.19617-2.6217 0.47879-7.3389 0.62806-10.483 0.14927-3.1437 0.3665-5.8697 0.48273-6.0577 0.11624-0.18807 0.33617-3.7125 0.48874-7.832s0.41096-8.5626 0.5742-9.8734c0.26056-2.0924 0.18383-2.3815-0.62837-2.3674-1.5733 0.02714-2.5027 1.1454-2.8692 3.4523-0.29565 1.8607-0.13037 2.6367 1.036 4.8645l1.3878 2.6507-1.1053 1.9093c-1.2719 2.1972-2.8653 2.4327-4.6157 0.68232-0.98503-0.98504-1.1386-1.001-2.5595-0.26627-1.7066 0.88249-2.4856 0.63355-2.4856-0.79429 0-1.343-1.4351-1.2289-1.9511 0.15506-0.23153 0.62094-0.57994 2.258-0.77424 3.6378-0.61334 4.3556-1.3143 6.0708-2.8523 6.9793-1.7697 1.0454-2.4507 0.70118-2.4507-1.2386 0-1.9053-0.76725-1.8828-1.7677 0.0518-0.81636 1.5787-3.6179 3.6321-4.3436 3.1837-0.64625-0.39941-0.48387-2.1128 0.35376-3.7326 0.7007-1.355 0.6943-1.4804-0.0754-1.4804-0.46253 0-2.0489 0.59098-3.5253 1.3133-1.9519 0.95496-2.6843 1.5956-2.6843 2.3478 0 2.9836-3.6525 8.1235-5.5132 7.7583-0.82543-0.16198-0.96557-3.5868-0.23908-5.8427 0.35789-1.1113 0.28111-1.176-1.0707-0.90273-0.80091 0.16192-2.811 0.54311-4.4668 0.84708s-3.6293 0.86111-4.3854 1.2381c-2.4775 1.2351-4.2556 1.3511-7.6531 0.499-3.0094-0.75474-3.4098-0.76006-4.1881-0.05568-1.3504 1.2221-2.8094 6.0008-2.187 7.1636 0.53635 1.0022 0.52846 7.4496-0.01 7.9879-0.16882 0.16882-0.75087 0.06935-1.2934-0.22102-0.76483-0.40933-1.068-1.2923-1.349-3.9294-0.41331-3.8776-1.0751-5.546-1.8805-4.7406-0.84568 0.84569-3.2978 6.9903-3.9466 9.8897-0.53638 2.3968-0.48755 2.9446 0.47593 5.3393 0.65563 1.6296 0.96817 3.2321 0.80276 4.116-0.38193 2.041-1.6422 4.3229-2.3876 4.3229-0.77241 0-1.8973-2.814-1.519-3.7998 0.15113-0.39385 0.0493-0.71608-0.22627-0.71608-0.27558 0-0.63201 0.52173-0.79205 1.1594-0.77428 3.085-5.2066 7.2003-6.4335 5.9733-0.86403-0.86403 0.88673-6.9731 2.6459-9.2325 0.92726-1.1909 1.868-2.2958 2.0906-2.4553 0.22259-0.15951 0.8215-1.4014 1.3309-2.7597 2.0326-5.4197 1.874-5.8456-1.1239-3.0183-0.99688 0.94017-3.1004 2.5772-4.6745 3.6378-2.679 1.8051-2.9165 2.1308-3.7144 5.0943-1.9864 7.378-4.4761 10.515-9.4524 11.912-2.951 0.82801-4.5715 0.7496-4.5715-0.22121 0-1.2546 2.7365-3.56 5.158-4.3456 3.438-1.1153 4.0478-1.7299 1.7163-1.7299-1.5194 0-1.8565-0.18147-1.8565-0.99929 0-0.54961 0.45159-1.2813 1.0035-1.626 1.0162-0.63463 1.341-1.3889 0.59803-1.3889-0.22304 0-1.0696 0.88291-1.8814 1.962-1.3738 1.8264-1.6993 1.986-4.709 2.3083-1.7855 0.19121-4.257 0.87364-5.5197 1.5242-1.2576 0.64785-3.3259 1.6139-4.5961 2.1468-2.0829 0.87378-2.3413 1.1675-2.6333 2.9937-0.36564 2.2866-3.5368 6.1252-5.0601 6.1252-0.79295 0-0.88113-0.32933-0.6717-2.5088 0.25513-2.6552-0.38756-3.4639-0.89727-1.129-0.63685 2.9173-1.4631 4.3071-3.3907 5.7034-2.1626 1.5666-4.3555 1.9212-4.3555 0.7043 0-1.0764 1.5416-4.8881 2.3685-5.8561 0.38913-0.45555 0.51811-0.94533 0.28662-1.0884-0.71-0.43881-5.7554-0.003-6.097 0.5264-0.81865 1.2689-3.4727 3.9804-4.6297 4.73-1.1458 0.74234-3.0653 1.1297-4.8489 0.97849-1.1476-0.0973-0.64862-1.4232 1.2178-3.2361l1.845-1.7921-1.2178-0.44922c-0.6698-0.24707-2.0603-0.34537-3.09-0.21844-3.7912 0.46733-10.421-3.2482-10.421-5.8403 0-0.95987 0.29972-1.068 3.1361-1.1314 5.8369-0.13053 7.0441 0.0933 8.7949 1.6305 1.9198 1.6856 4.6296 2.0208 4.6241 0.57214-0.002-0.48296-0.45192-1.5555-1.0002-2.3834-1.8972-2.8647-0.94303-4.5435 2.0071-3.5314 2.0627 0.70767 4.0141 3.3142 4.0141 5.3618 0 1.2492 0.18755 1.4311 1.4757 1.4311 2.0363 0 2.1919-0.52506 0.97274-3.2812-2.3979-5.4208-2.157-6.3947 1.2997-5.2539 2.2686 0.7487 4.2802 3.3394 4.2802 5.5124 0 1.6183 0.0355 1.6445 1.8816 1.3862 3.8303-0.53576 11.508-3.9866 14.444-6.4921 2.4483-2.0892 2.6634-2.4087 1.6215-2.4087-0.69667 0-1.8202 0.65889-2.6749 1.5688-1.6257 1.7306-5.8726 3.9381-7.5908 3.9458-1.8459 0.008-1.8288-0.94149 0.0545-3.0261 2.0418-2.26 2.2357-2.9903 0.79396-2.9903-0.55195 0-1.0035 0.20128-1.0035 0.44729 0 0.60758-3.7343 2.0616-5.2948 2.0616-1.4908 0-4.7484-1.2804-4.7222-1.856 0.02293-0.5028 4.1765-3.1617 4.939-3.1617 0.30917 0 0.56212-0.18987 0.56212-0.42193 0-0.23205-1.2647-0.70495-2.8105-1.0509-2.2272-0.49843-3.3207-1.1207-5.2686-2.9982-3.5537-3.4253-3.2973-5.0277 0.64586-4.0357 1.1906 0.29952 3.0068 0.72434 4.0361 0.94405 1.1958 0.25525 2.645 1.1743 4.0142 2.5455 1.1785 1.1803 3.0459 2.5336 4.1498 3.0073 3.0299 1.3003 8.207 2.0438 12.35 1.7738 4.3176-0.28137 10.48-1.3438 10.48-1.8067 0-0.17584-1.9059-0.2172-4.2352-0.0919-3.6978 0.19888-4.5302 0.0805-6.5597-0.9331-1.2784-0.63849-2.4403-1.3483-2.5818-1.5774-0.48654-0.78723 0.91618-1.8269 3.4782-2.5779 2.5277-0.74098 2.6403-0.72638 7.5353 0.97746 2.7331 0.95132 5.2603 1.7297 5.6162 1.7297 0.87971 0 6.7825-3.9785 6.7825-4.5714 0-0.28586-1.7438-0.34792-4.3905-0.15625-7.6823 0.55636-8.1814 0.54057-10.067-0.31841-1.0175-0.46353-2.4145-1.4553-3.1044-2.2038-1.2275-1.3318-1.2335-1.3763-0.28043-2.0733 0.5357-0.39172 1.5919-0.71222 2.3472-0.71222 1.3538 0 1.3696-0.03708 1.1224-2.6343-0.19372-2.0348-0.0159-3.0832 0.78132-4.6071 0.56766-1.0851 0.953-2.052 0.85632-2.1486-0.51826-0.51825-5.2894 1.2485-6.5829 2.4376-2.9072 2.6727-11.29 5.6518-11.29 4.0123 0-0.46388 2.6525-3.1411 4.2162-4.2555 0.52511-0.37422 0.80974-0.91505 0.6325-1.2018-0.17724-0.28678-2.7519-1.3657-5.7216-2.3977-5.2155-1.8124-6.9609-2.9512-8.4296-5.4999-0.44703-0.77576-0.62652-0.80541-1.2578-0.20775-0.40502 0.38343-2.0896 1.8165-3.7436 3.1847-4.8505 4.0123-12.056 11.166-16.951 16.831-2.5044 2.8977-5.2873 6.0589-6.1841 7.0248-3.3717 3.6314-8.9184 11.367-11.333 15.806-7.1977 13.231-12.571 25.146-15.612 34.622-4.9339 15.37-7.5315 39.333-6.1464 56.7 0.88685 11.119 3.0069 23.479 5.164 30.106 3.4024 10.453 11.916 28.124 15.128 31.399 1.0069 1.0268 3.2473 3.9238 12.343 15.961 3.2692 4.3261 10.981 13.252 13.554 15.687 5.1109 4.8372 14.511 12.44 15.4 12.455 0.69847 0.012 0.76936-0.24248 0.4133-1.484-0.45825-1.5978 0.0273-2.3025 1.2604-1.8293 0.39191 0.15039 0.84602 0.0575 1.0091-0.20642 0.59656-0.96527 1.7426-0.47534 1.7426 0.74495 0 1.3671 0.77789 2.1372 1.1734 1.1617 0.19522-0.48155 0.37518-0.45834 0.7624 0.0984 0.27877 0.40078 0.39554 0.90882 0.25947 1.129-0.13606 0.22015-0.0324 0.40028 0.23031 0.40028 0.69901 0 1.0609-1.2451 0.72987-2.511-0.22956-0.87786-0.0984-1.066 0.64351-0.9231 0.60172 0.11588 1.0892 0.84484 1.376 2.0577 0.59594 2.5199 1.1498 2.3661 1.6701-0.46389 0.56803-3.0896 1.3945-3.2474 2.1868-0.41761 0.35572 1.2705 0.89101 2.2025 1.1993 2.0882 0.30627-0.11359 0.49736-0.46969 0.42464-0.79134-0.0727-0.32165 0.12635-1.068 0.44238-1.6585 0.53487-0.99942 0.61834-1.0138 1.2074-0.20826 0.57856 0.79123 0.74515 0.72374 1.9442-0.78766 1.0716-1.3508 1.3976-1.518 1.783-0.91446 0.40427 0.63311 0.51898 0.61519 0.80318-0.12544 0.40802-1.0633 1.2277-1.1376 1.2277-0.11138 0 0.41396 0.31236 0.75265 0.69413 0.75265s0.81995 0.48114 0.97372 1.0692c0.24644 0.94236 0.3674 0.98139 1.0198 0.32903 0.75761-0.7576 2.5152-0.81236 4.9644-0.15466 0.89823 0.24121 1.3799 0.17642 1.3799-0.18562 0-0.3059 0.2258-0.55617 0.50177-0.55617s0.50177 0.36634 0.50177 0.81409c0 0.65586 0.14202 0.69623 0.73068 0.20769 0.40186-0.33352 1.0126-0.43217 1.3572-0.21921 0.34458 0.21296 1.2421 0.45459 1.9946 0.53697 1.5975 0.17488 3.9459 2.1742 3.9459 3.3594 0 0.66748 0.55609 0.82056 2.981 0.82056 1.6396 0 3.0971-0.18783 3.239-0.41739 0.36839-0.59607-3.962-4.6345-7.2852-6.794-3.0634-1.9907-4.7542-4.134-6.4703-8.2022-0.92227-2.1864-1.6544-2.9892-4.4365-4.8649-3.8392-2.5885-6.8075-3.3046-13.696-3.3046-5.5377 0-12.358-1.6968-17.233-4.2876-3.8238-2.032-9.0411-6.7238-9.497-8.5404-0.15717-0.62623-1.1028-1.6436-2.1014-2.2607-0.99862-0.61718-2.8454-2.0133-4.1038-3.1026-1.2585-1.0892-3.0949-2.3504-4.081-2.8025-3.0524-1.3998-7.5784-5.8259-9.1763-8.9736-1.4512-2.8588-1.4594-2.9207-0.59628-4.541 0.94075-1.766 2.4619-2.418 4.4675-1.9146 1.1455 0.2875 1.2551 0.1724 1.2621-1.3255 0.004-0.90217 0.17357-1.8888 0.37633-2.1924 0.57701-0.86415 2.4412-1.7059 3.778-1.7059 1.4457 0 4.6392 2.06 6.3224 4.0784 0.66096 0.79256 1.5179 1.441 1.9044 1.441 0.70962 0 0.70857-0.069-0.07599-5.0177-0.20984-1.3236-1.2662-2.7796-4.2886-5.9107-2.7493-2.8482-4.0101-4.534-4.0101-5.3614 0-0.66377-0.21126-1.7625-0.46946-2.4416-0.75974-1.9983 0.66252-6.9197 2.9815-10.317 1.1132-1.6308 2.3375-3.0854 2.7207-3.2325 0.38318-0.14703 1.8615 0.60174 3.2852 1.6639 2.977 2.2211 6.202 2.9165 9.4588 2.0396 3.7067-0.99811 7.4187 0.80293 12.748 6.1851 3.3292 3.3624 3.665 3.5681 6.3407 3.885 2.9618 0.35074 8.3731 2.2234 9.76 3.3776 0.92813 0.77237 2.9546 7.084 4.0444 12.597 0.93743 4.742 0.52957 5.7902-2.0636 5.3038-2.9533-0.55404-12.127-4.8071-13.136-6.0902-1.2151-1.5447-2.2384-1.5838-1.7707-0.0677 1.1782 3.8194 3.1511 6.1262 7.8518 9.1806 5.5777 3.6242 6.4756 4.0392 26.372 12.187 4.2133 1.7255 6.8868 3.1648 8.4753 4.5631 1.8233 1.6049 2.7194 2.0426 4.182 2.0426 1.7629 0 4.0413-0.55229 6.2763-1.5214 4.8656-2.1097 7.7195-2.1672 9.0205-0.18171 0.72414 1.1052 0.70666 1.3537-0.22342 3.1768-1.3956 2.7355-3.49 4.5591-8.3341 7.2565-4.7641 2.6528-5.5734 4.0155-5.0625 8.5244 0.25961 2.2911 0.55952 2.8065 2.8069 4.8232 1.6627 1.492 2.7829 3.0209 3.3023 4.507 0.43233 1.2369 1.8164 3.7709 3.0758 5.6311l2.2898 3.3821 6.5978 0.13927c3.6288 0.0766 9.3535 0.19958 12.722 0.2733l6.1238 0.13403 2.7703-4.1482zm33.905 3.7025c0-0.23567-0.54697-1.0187-1.2155-1.74-0.66851-0.72133-1.3611-1.7704-1.5391-2.3312-0.178-0.56084-0.62264-1.0197-0.98809-1.0197-0.36544 0-0.80612-0.56449-0.97928-1.2544-0.56578-2.2543-1.2976-1.3192-1.3745 1.7562-0.0414 1.6558-0.0978 3.2827-0.12545 3.6152-0.0276 0.33252 0.51432 0.7616 1.2042 0.95352 1.8225 0.50695 5.0177 0.51999 5.0177 0.0205zm55.035-6.4194c0.59228-0.89202 0.54506-1.1928-0.3698-2.3559-1.4774-1.8782-1.9795-1.6649-1.9795 0.84102 0 3.0884 0.91343 3.6774 2.3493 1.5149zm12.293-12.455c1.7439-2.0616 4.5765-5.505 6.2946-7.652 1.7182-2.147 4.5175-5.5971 6.2207-7.6669 2.8389-3.45 4.9514-6.5206 10.701-15.555 2.0387-3.2033 4.124-7.3351 9.2431-18.315 1.44-3.0885 2.9903-7.3979 3.5199-9.7845 0.52055-2.3458 1.1677-4.8295 1.4381-5.5195 0.27042-0.68993 0.64449-2.6092 0.83128-4.265s0.55965-4.1396 0.82859-5.5195c0.70021-3.5927 0.88563-5.174 1.5297-13.046 0.63467-7.7573 0.28958-24.498-0.56372-27.346-0.28938-0.9659-0.75024-3.5626-1.0241-5.7703-0.51699-4.1674-1.238-8.2692-1.9844-11.29-0.23868-0.96591-0.8008-3.4497-1.2491-5.5195-0.91205-4.2105-3.4611-11.9-6.1232-18.47-0.97161-2.3982-2.1735-5.4892-2.671-6.8691-0.49742-1.3799-1.9346-4.541-3.1938-7.0248s-2.2946-4.6971-2.301-4.9186c-0.0225-0.78594-7.4465-11.633-11.805-17.249-0.97504-1.2562-7.0957-5.052-7.3274-4.5442-0.0296 0.0648-0.11879 1.4444-0.19827 3.0657-0.10114 2.0632 0.13756 3.569 0.79539 5.0177 1.3686 3.0139 1.2175 3.7851-1.4177 7.2343-2.3647 3.0952-3.7577 3.84-4.3406 2.321-0.58372-1.5211-0.29917-7.2798 0.44808-9.0682 1.2876-3.0817 0.95857-3.3424-1.8125-1.4362-2.8737 1.9768-3.9578 2.2057-3.9578 0.83585 0-2.1347 1.2835-4.4806 3.6497-6.6704 2.8312-2.6203 2.901-3.2641 0.83092-7.6679-1.0439-2.2207-2.4735-3.1006-2.4735-1.5222 0 1.158-1.7506 4.3606-3.0025 5.4928-1.0868 0.98295-1.1121 0.98336-1.8096 0.02955-0.38903-0.53204-0.70733-1.308-0.70733-1.7245 0-0.46222-0.17174-0.57144-0.44093-0.28042-0.24252 0.26217-0.58527 11.428-0.76168 24.812-0.17641 13.385-0.41998 25.578-0.54127 27.096-0.12129 1.5178-0.34676 9.7594-0.50103 18.315-0.15427 8.5552-0.40002 19.055-0.54612 23.332-0.1461 4.2776-0.32668 27.715-0.40128 52.083l-0.13565 44.305 2.8792 3.8646c5.6243 7.5495 8.142 10.639 8.6706 10.639 0.13149 0 1.6659-1.6867 3.4097-3.7483zm-105.29-123.44c1.2949-1.2407 3.2545-2.8241 4.3548-3.5187 2.1885-1.3815 2.498-2.3457 1.0766-3.3543-0.50815-0.36061-1.1935-1.1637-1.523-1.7846-1.1195-2.1098-1.9203-1.2398-4.2748 4.6439-2.2659 5.6624-2.4741 6.2696-2.149 6.2696 0.0886 0 1.2206-1.0151 2.5154-2.2558zm36.764-14.93c-0.002-3.2777 2.5662-8.9882 4.6117-10.254 0.74697-0.4622 2.0852-1.5148 2.9739-2.3392 1.5292-1.4185 1.7205-1.4675 3.5706-0.91317 2.5334 0.75902 3.5665 0.72986 5.0999-0.14399 5.0398-2.8721 7.7884-3.4835 10.1-2.2465 0.55106 0.29492 1.7216 0.54449 2.6013 0.55459 2.9744 0.0342 7.41 2.6213 9.8379 5.7381 2.0135 2.5848 4.5148 7.5783 4.5446 9.0726 0.007 0.32868 0.20715 0.71826 0.44577 0.86574 0.24142 0.1492 0.40834-8.1281 0.37633-18.661-0.0317-10.411 0.11445-24.687 0.32466-31.725 0.2102-7.0373 0.51126-17.444 0.66903-23.127l0.28684-10.332-3.1379-2.8397c-1.7259-1.5618-3.2952-2.8397-3.4875-2.8397-0.73252 0-2.9921 4.0554-2.9995 5.3833-0.005 0.91479-0.14804 1.1694-0.41789 0.74407-0.47699-0.75181-2.5399 2.1871-6.3869 9.099-1.3586 2.4411-3.2026 5.7151-4.0977 7.2756s-2.268 4.0792-3.0508 5.5971c-0.78284 1.5178-2.5159 4.679-3.8512 7.0248s-2.9108 5.1682-3.501 6.2721c-0.59027 1.1039-1.7226 3.0232-2.5164 4.265-0.79374 1.2419-2.1837 3.6987-3.0888 5.4596-0.90508 1.7609-1.9645 3.5673-2.3543 4.0142-0.38977 0.44689-2.2447 3.5221-4.122 6.8338s-4.014 6.9244-4.7481 8.0283c-1.873 2.8163-2.5052 6.6807-2.1477 13.127l0.30159 5.438 1.8053 1.6099c0.99291 0.88543 1.9301 1.6193 2.0827 1.6308 0.15259 0.0115 0.27668-1.1645 0.27577-2.6134zm-16.172-23.227c0.039-9.8461-0.12311-16.133-0.41997-16.287-0.47807-0.24807-1.7483 2.7745-5.0606 12.042-0.93701 2.6217-1.9118 5.2184-2.1663 5.7703-0.89858 1.9491-2.0741 5.5634-2.0741 6.3771 0 0.96326 8.3578 8.5662 9.1327 8.3078 0.34873-0.11624 0.54602-5.5533 0.58824-16.211zm15.932-6.0273c3.9326-6.5108 8.3831-14.58 12.163-22.051 0.55842-1.1039 1.1557-2.12 1.3274-2.258 0.17165-0.13798 1.7257-2.9604 3.4535-6.2721s3.5756-6.4874 4.1064-7.0571c0.53075-0.56973 0.96499-1.1702 0.96499-1.3344 0-0.39884 7.6435-12.956 10.025-16.47 3.1321-4.6212 3.6979-5.9659 3.0805-7.321-0.29693-0.65168-0.80644-1.1849-1.1322-1.1849-0.32581 0-1.8255-0.93104-3.3327-2.069-1.5072-1.1379-5.0276-2.9663-7.823-4.063-2.7955-1.0967-6.5503-2.6698-8.3442-3.4958-1.7938-0.82593-3.8063-1.5378-4.4722-1.5819-1.2955-0.08578-1.4697 0.29572-5.5768 12.213-0.80842 2.3458-2.1784 5.9585-3.0444 8.0283-4.3774 10.463-4.0624 9.1811-4.2546 17.311-0.0979 4.1396-0.29638 9.7845-0.44112 12.544-0.14473 2.7597-0.37325 7.5014-0.50781 10.537-0.13456 3.0357-0.3883 8.737-0.56385 12.67-0.40107 8.9844-0.029 9.1423 4.3726 1.8549zm-100.91-21.89c0.54885-0.34681 0.41297-0.40017-0.50177-0.19704-0.68993 0.1532-1.5367 0.28164-1.8816 0.28541-0.34497 0.004-0.62721 0.24786-0.62721 0.54243 0 0.56493 1.6731 0.21438 3.0106-0.6308zm172.07-11.821c-0.66904-0.75892-1.2729-1.4739-1.3419-1.5889-0.069-0.11498-0.2415-0.09301-0.38335 0.04882-0.36619 0.36619 1.7231 2.92 2.3889 2.92 0.30406 0 0.005-0.62094-0.66363-1.3799zm-14.012-1.6604c0-0.29226-0.2258-0.39183-0.50177-0.22127s-0.50177 0.40968-0.50177 0.53138 0.2258 0.22127 0.50177 0.22127 0.50177-0.23912 0.50177-0.53138zm-157.05-2.1324c0-0.36121-0.33151-1.095-0.7367-1.6307-1.063-1.4054-0.93645-2.1735 0.46321-2.8112 1.6248-0.74033 3.6948 0.10852 5.7368 2.3525 1.3239 1.4549 1.7222 1.6265 2.955 1.2729 3.0517-0.87522 7.1392-3.6812 12.072-8.2869 1.1965-1.1173 2.4949-2.2119 2.8852-2.4326 1.5366-0.86883 0.7256-1.6691-1.6593-1.6373-2.7981 0.03723-3.5343-1.1295-1.2806-2.0296 8.1024-3.236 11.672-5.1365 13.978-7.4425 0.43046-0.43046 0.9482-0.78266 1.1505-0.78266 0.20234 0 1.2587-0.82073 2.3476-1.8239 1.0888-1.0031 2.8829-2.4085 3.9868-3.1231 1.1039-0.71458 2.9335-2.0389 4.0658-2.943 1.1323-0.90405 2.3178-1.6437 2.6343-1.6437 0.31654 0 0.57553-0.2258 0.57553-0.50177s-0.55387-0.50177-1.2308-0.50177c-1.4349 0-3.7869-0.97903-3.7869-1.5763 0-0.58894 1.6319-0.86918 6.7739-1.1633 3.572-0.2043 5.7221-0.68685 10.286-2.3085 3.1737-1.1276 6.2219-2.1418 6.7739-2.2538 0.55194-0.112 2.3149-0.5937 3.9177-1.0704 2.4678-0.73403 2.7467-0.92873 1.8209-1.2712-1.815-0.6714-9.4801-0.50518-14.018 0.30398-9.3107 1.6603-12.132 2.3073-14.362 3.2941-2.8746 1.2716-8.4225 6.8941-10.112 10.248-1.4291 2.8375-4.4323 6.335-5.4397 6.335-0.38185 0-0.69427-0.45739-0.69427-1.0164 0-0.94714-0.0941-0.96783-1.3799-0.30351-2.2641 1.1698-7.512 2.7599-8.4939 2.5737-0.50285-0.09537-1.0836-0.19068-1.2906-0.2118-1.0609-0.10823-0.12452-2.1498 1.7995-3.9232 3.079-2.8381 4.2607-3.4788 7.0743-3.8357 2.7166-0.34454 5.0158-1.5588 4.5079-2.3806-0.22263-0.36022-0.49361-0.35335-0.869 0.02204-0.30002 0.30002-1.4035 0.54549-2.4522 0.54549-3.19 0-2.264-1.2243 2.7091-3.582 8.115-3.8472 1.8139-2.7921-7.3626 1.2329-3.4983 1.5344-7.4012 4.9193-12.729 11.039l-4.5777 5.2584 1.8965 1.9321c2.1189 2.1587 3.622 5.8799 2.7337 6.7681-0.73521 0.73521-4.1172-0.39035-4.5058-1.4996-0.53741-1.5338-2.6955-4.0891-3.4535-4.0891-0.41361 0-1.3953 0.33266-2.1816 0.73926-1.265 0.65418-1.471 1.1017-1.7898 3.8887-0.43043 3.7627-1.1606 5.3232-3.3612 7.1833-0.90682 0.76653-1.423 1.4721-1.147 1.5679 0.27597 0.0958 1.1792 0.60801 2.0071 1.1382 1.7538 1.1232 3.7633 1.3264 3.7633 0.38066zm158.26-2.167c0.71352-1.2766 1.2973-2.5964 1.2973-2.9328 0-0.89666-1.8554-2.4255-2.4772-2.0412-0.48924 0.30237-0.80115 7.2952-0.3254 7.2952 0.11439 0 0.79178-1.0445 1.5053-2.3212zm-167.08-11.847c0.96979-0.51902 0.96586-0.54937-0.17293-1.3353-2.2336-1.5415-4.0956-3.811-3.9533-4.8184 0.11985-0.84844 0.49073-0.99094 2.3997-0.92202 3.6578 0.13204 5.3418 0.68169 6.822 2.2267 1.683 1.7566 2.5027 1.7947 4.4459 0.2066 1.0948-0.89477 1.292-1.2744 0.75265-1.4492-0.40193-0.13022-1.5524-0.48892-2.5565-0.79712-1.7358-0.53276-5.4499-3.6022-5.4499-4.504 0-0.63671 1.1819-0.97199 4.6953-1.3319 3.1352-0.32121 3.1922-0.30473 4.2929 1.2411 0.61355 0.86164 1.4007 1.5666 1.7492 1.5666 0.74111 0 7.828-7.1778 7.828-7.9285 0-0.27988-1.1097-0.79329-2.466-1.1409-2.486-0.63715-5.5623-2.9569-5.5623-4.1944 0-0.80881 1.5623-1.2746 4.265-1.2716 1.2892 0.0015 2.9925 0.54534 4.762 1.5206 2.7348 1.5073 2.7705 1.5124 4.8922 0.70206 1.1756-0.44895 2.1374-0.99738 2.1374-1.2188 0-0.22137-1.4677-0.28468-3.2615-0.14069-1.8814 0.15102-3.2615 0.06271-3.2615-0.20868 0-0.76894 4.2035-2.5781 7.354-3.1651 2.4324-0.45319 16.134-2.8366 18.738-3.2593 0.80053-0.12999 2.3698-0.48786 6.0212-1.3731 1.2419-0.30109 2.4838-0.76877 2.7597-1.0393 0.624-0.6117-10.243-0.08151-12.795 0.62423-1.7288 0.47812-3.0593 0.70666-7.5265 1.2928-2.9121 0.3821-10.876 2.1164-15.053 3.2781-7.79 2.1665-10.868 3.1172-12.772 3.9447-1.1166 0.48535-3.8366 1.6339-6.0444 2.5523-2.2078 0.91841-5.5585 2.533-7.446 3.588s-3.5515 1.9181-3.6976 1.9181c-0.38303 0-5.8477 3.3013-9.8518 5.9517-3.1121 2.0599-3.3498 2.334-2.5384 2.9273 0.49237 0.36002 1.2472 0.65567 1.6774 0.65699 0.81777 0.0025 4.0528 2.7406 4.8412 4.0975 0.25128 0.43246 0.99878 0.95473 1.6611 1.1606l1.2042 0.37431-1.1105-1.5596c-1.316-1.8482-1.0311-2.57 1.0145-2.57 2.1282 0 4.2904 1.2576 4.6542 2.7071 0.53111 2.1161 1.7402 2.9379 3.7638 2.5583 0.98736-0.18523 2.2418-0.57577 2.7876-0.86787zm48.694 0.54331c0.10898-0.10898-1.0303-0.84132-2.5318-1.6274-2.2322-1.1687-2.8671-1.3154-3.4826-0.8046-0.91399 0.75854-0.98778 2.3316-0.1255 2.6753 0.69177 0.27574 5.8242 0.07241 6.1399-0.24323zm7.4923-1.733c0.98895-0.3795 1.0419-1.2007 0.0774-1.2007-0.39396 0-1.3033-0.73384-2.0207-1.6307-1.2518-1.5649-1.3336-1.5923-2.0278-0.67814-0.63506 0.8363-0.62019 1.1273 0.12182 2.3834 0.8333 1.4107 2.124 1.7883 3.8493 1.1262zm9.1542-3.4799c2.5321-1.4839 2.7012-1.9964 0.79674-2.4138-2.0523-0.44977-3.5779-1.8789-3.9367-3.6877-0.28252-1.4244-0.17281-1.6433 0.96699-1.9293 1.7618-0.44217 4.5909 0.57821 6.6738 2.4071 1.7403 1.528 2.3658 1.532 4.6462 0.02913 0.10809-0.07123-0.2649-0.5303-0.82887-1.0202-1.3159-1.143-2.9375-6.0515-2.2323-6.7568 0.89651-0.89651 3.783 0.15063 5.459 1.9804 1.8638 2.0348 3.1798 1.989 5.3554-0.18661 1.6808-1.6808 1.673-2.1005-0.0469-2.5055-0.75892-0.1787-2.1155-0.76703-3.0146-1.3074-2.0724-1.2455-3.9065-0.96914-10.518 1.585-7.4088 2.8622-10.624 4.8706-12.018 7.5081-0.64289 1.2163-1.1689 2.2704-1.1689 2.3425 0 0.07207 0.73383 0.59035 1.6308 1.1517 0.89691 0.56138 2.0823 1.7081 2.6343 2.5483 1.25 1.9028 2.678 1.9678 5.6008 0.25494zm-14.884-1.2616v-2.0354l-1.5053 0.88921c-1.7951 1.0604-1.9079 1.8306-0.37632 2.5693 1.7535 0.84568 1.8816 0.74878 1.8816-1.423zm57.585-2.8568c0.27808-0.75892 1.6496-4.4281 3.0478-8.1537s2.6093-7.2131 2.6913-7.7498c0.11615-0.75992-0.39674-1.1813-2.3171-1.9035-1.3564-0.51017-2.736-0.82407-3.0657-0.69756-0.39618 0.15203-0.71307 2.4137-0.9346 6.6703-0.18435 3.5422-0.471 7.9644-0.63699 9.8272-0.31693 3.5566 0.28389 4.5489 1.2152 2.0071zm-18.448-14.175 1.2544-0.98122-1.7562 0.02411c-0.9659 0.01326-2.1978 0.19683-2.7375 0.40793-0.97387 0.38092-0.97387 0.38812 0 0.95301 1.3498 0.78292 1.7926 0.72771 3.2392-0.40383z"/>
  </g>
  <metadata>
    <rdf:RDF>
      <cc:Work>
        <dc:format>image/svg+xml</dc:format>
        <dc:type rdf:resource="http://purl.org/dc/dcmitype/StillImage"/>
        <cc:license rdf:resource="http://creativecommons.org/licenses/publicdomain/"/>
        <dc:publisher>
          <cc:Agent rdf:about="http://openclipart.org/">
            <dc:title>Openclipart</dc:title>
          </cc:Agent>
        </dc:publisher>
        <dc:title>Child on swing</dc:title>
        <dc:date>2013-08-06T09:02:29</dc:date>
        <dc:description>Child on swing silhouette traced from http://vintagefeedsacks.blogspot.se/2012/04/vintage-silhouette-of-child-on-swing.html</dc:description>
        <dc:source>http://openclipart.org/detail/181575/child-on-swing-by-liftarn-181575</dc:source>
        <dc:creator>
          <cc:Agent>
            <dc:title>liftarn</dc:title>
          </cc:Agent>
        </dc:creator>
        <dc:subject>
          <rdf:Bag>
            <rdf:li>child</rdf:li>
            <rdf:li>dog</rdf:li>
            <rdf:li>silhouette</rdf:li>
            <rdf:li>swing</rdf:li>
            <rdf:li>vintage</rdf:li>
          </rdf:Bag>
        </dc:subject>
      </cc:Work>
      <cc:License rdf:about="http://creativecommons.org/licenses/publicdomain/">
        <cc:permits rdf:resource="http://creativecommons.org/ns#Reproduction"/>
        <cc:permits rdf:resource="http://creativecommons.org/ns#Distribution"/>
        <cc:permits rdf:resource="http://creativecommons.org/ns#DerivativeWorks"/>
      </cc:License>
    </rdf:RDF>
  </metadata>
</svg>
