<?xml version="1.0"?>
<svg xmlns:rdf="http://www.w3.org/1999/02/22-rdf-syntax-ns#" xmlns="http://www.w3.org/2000/svg" xmlns:cc="http://creativecommons.org/ns#" xmlns:dc="http://purl.org/dc/elements/1.1/" xmlns:svg="http://www.w3.org/2000/svg" id="svg2221" viewBox="0 0 744.09 1052.4" version="1.0">
  <g id="g2823">
    <g id="g2819" transform="matrix(.82087 0 0 .82087 64.548 45.236)">
      <path id="path2815" style="color:#000000" d="m360.34 22.906c-126.52 0-229.62 103.11-229.62 229.62 0 126.52 103.11 229.62 229.62 229.62 126.52 0 229.62-103.11 229.62-229.62 0-126.52-103.11-229.62-229.62-229.62z"/>
      <path id="path2813" style="color:#000000" fill="#fff" d="m563.93 252.52c0 112.44-91.153 203.6-203.6 203.6-112.44 0-203.6-91.153-203.6-203.6 0-112.44 91.153-203.6 203.6-203.6 112.44 0 203.6 91.153 203.6 203.6z"/>
    </g>
    <path id="path2232" d="m413.03 370.5c10.456-3.2584 21.87-7.682 25.712-9.9651 2.5815-1.534 2.9454-2.0512 2.0522-2.9164-6.4717-6.2687-51.999-46.158-52.4-45.91-0.29368 0.1815-1.0369 3.0249-1.6516 6.3186-1.2133 6.5015-2.3564 7.9892-6.1372 7.9874-3.113-0.002-5.1659-1.7456-8.15-6.924-1.3008-2.2574-3.4039-5.435-4.6736-7.0613-1.2696-1.6263-3.8354-5.6896-5.7018-9.0296-1.8664-3.3399-5.1464-8.843-7.289-12.229-4.9116-7.7624-10.627-17.226-12.789-21.175-0.91535-1.6722-3.1738-5.0806-5.0187-7.5741-1.845-2.4936-4.1972-6.1875-5.2272-8.2087s-3.9826-6.8148-6.5613-10.652c-2.5787-3.8376-5.6774-8.929-6.8858-11.314-1.2085-2.3853-3.4277-6.2639-4.9316-8.6192-3.458-5.4155-7.4841-13.464-8.1798-16.351-0.42409-1.7604-0.067-2.6587 1.7288-4.3486 2.4214-2.2787 2.5806-2.278 10.284 0.043 2.6056 0.78504 4.9063 1.2585 5.1128 1.0521 0.37117-0.37118-17.258-68.7-17.888-69.329-0.46204-0.46204-21.103 16.874-21.103 17.724 0 0.38544-1.7966 2.4884-3.9923 4.6733-2.1958 2.1849-5.312 6.0668-6.925 8.6265-2.5426 4.0351-3.0534 5.727-3.8406 12.724-2.4987 22.207 3.3589 55.035 14.476 81.127 5.9846 14.046 9.58 21.088 13.83 27.084 1.9217 2.7112 4.5076 6.9612 5.7465 9.4443 6.6561 13.341 27.633 37.663 42.271 49.013 10.101 7.832 31.537 21.839 36.491 23.845 14.489 5.8669 18.308 6.1019 31.642 1.9466zm36.952-25.173c3.1408-7.719 3.2287-8.1698 1.8477-9.4727-1.167-1.101-37.948-33.128-43.024-37.463-1.1862-1.0131-2.3788-0.63862-9.7574 3.0642-7.0789 3.5524-8.2263 4.3914-7.2677 5.3148 3.5016 3.373 54.467 47.098 54.666 46.899 0.13079-0.13077 1.7218-3.8849 3.5355-8.3425zm-113.05-147.62c3.4806-2.6507 6.3182-4.8671 6.3057-4.9252-0.94376-4.4003-14.699-58.196-14.942-58.44-0.47194-0.47193-18.03-2.9341-18.386-2.5782-0.22266 0.22266 4.5974 18.858 17.83 68.936 0.93751 3.5478 0.35466 3.7376 9.1919-2.9926z"/>
  </g>
  <metadata>
    <rdf:RDF>
      <cc:Work>
        <dc:format>image/svg+xml</dc:format>
        <dc:type rdf:resource="http://purl.org/dc/dcmitype/StillImage"/>
        <cc:license rdf:resource="http://creativecommons.org/licenses/publicdomain/"/>
        <dc:publisher>
          <cc:Agent rdf:about="http://openclipart.org/">
            <dc:title>Openclipart</dc:title>
          </cc:Agent>
        </dc:publisher>
        <dc:title>phone sign</dc:title>
        <dc:date>2010-05-12T17:19:05</dc:date>
        <dc:description>phone sign</dc:description>
        <dc:source>http://openclipart.org/detail/60043/phone-sign-by-voyeg3r</dc:source>
        <dc:creator>
          <cc:Agent>
            <dc:title>voyeg3r</dc:title>
          </cc:Agent>
        </dc:creator>
        <dc:subject>
          <rdf:Bag>
            <rdf:li>clip art</rdf:li>
            <rdf:li>clipart</rdf:li>
            <rdf:li>comunication</rdf:li>
            <rdf:li>office</rdf:li>
            <rdf:li>phone</rdf:li>
            <rdf:li>sign</rdf:li>
          </rdf:Bag>
        </dc:subject>
      </cc:Work>
      <cc:License rdf:about="http://creativecommons.org/licenses/publicdomain/">
        <cc:permits rdf:resource="http://creativecommons.org/ns#Reproduction"/>
        <cc:permits rdf:resource="http://creativecommons.org/ns#Distribution"/>
        <cc:permits rdf:resource="http://creativecommons.org/ns#DerivativeWorks"/>
      </cc:License>
    </rdf:RDF>
  </metadata>
</svg>
