<?xml version="1.0" encoding="UTF-8" standalone="no"?>
<!-- Created with Inkscape (http://www.inkscape.org/) -->

<svg
   xmlns:dc="http://purl.org/dc/elements/1.1/"
   xmlns:cc="http://creativecommons.org/ns#"
   xmlns:rdf="http://www.w3.org/1999/02/22-rdf-syntax-ns#"
   xmlns:svg="http://www.w3.org/2000/svg"
   xmlns="http://www.w3.org/2000/svg"
   xmlns:sodipodi="http://sodipodi.sourceforge.net/DTD/sodipodi-0.dtd"
   xmlns:inkscape="http://www.inkscape.org/namespaces/inkscape"
   width="512"
   height="512"
   id="svg2"
   version="1.1"
   inkscape:version="0.48.4 r9939"
   sodipodi:docname="Documento nuevo 1">
  <defs
     id="defs4" />
  <sodipodi:namedview
     id="base"
     pagecolor="#ffffff"
     bordercolor="#666666"
     borderopacity="1.0"
     inkscape:pageopacity="0.0"
     inkscape:pageshadow="2"
     inkscape:zoom="0.35"
     inkscape:cx="-2.8571429"
     inkscape:cy="520"
     inkscape:document-units="px"
     inkscape:current-layer="layer1"
     showgrid="false"
     inkscape:window-width="1440"
     inkscape:window-height="838"
     inkscape:window-x="-8"
     inkscape:window-y="-8"
     inkscape:window-maximized="1" />
  <metadata
     id="metadata7">
    <rdf:RDF>
      <cc:Work
         rdf:about="">
        <dc:format>image/svg+xml</dc:format>
        <dc:type
           rdf:resource="http://purl.org/dc/dcmitype/StillImage" />
        <dc:title></dc:title>
      </cc:Work>
    </rdf:RDF>
  </metadata>
  <g
     inkscape:label="Capa 1"
     inkscape:groupmode="layer"
     id="layer1"
     transform="translate(0,-540.36218)">
    <g
       id="g3030"
       transform="matrix(0.56762749,0,0,0.56762749,251.25626,685.42869)">
      <g
         transform="translate(-442.64286,195.43361)"
         inkscape:label="Layer 1"
         id="layer1-9">
        <path
           inkscape:connector-curvature="0"
           style="color:#000000;fill:#ffffff;fill-opacity:1;fill-rule:nonzero;stroke:#000000;stroke-width:1;stroke-linecap:butt;stroke-linejoin:miter;stroke-miterlimit:4;stroke-opacity:1;stroke-dashoffset:0;marker:none;visibility:visible;display:inline;overflow:visible"
           d="m 38,0.5 375,0 c 20.775,0 37.5,16.725 37.5,37.5 l 0,375 c 0,20.775 -16.725,37.5 -37.5,37.5 l -375,0 C 17.225,450.5 0.5,433.775 0.5,413 L 0.5,38 C 0.5,17.225 17.225,0.5 38,0.5 z"
           id="rect1872" />
        <path
           inkscape:connector-curvature="0"
           style="color:#000000;fill:#003f87;fill-opacity:1;fill-rule:nonzero;stroke:none;stroke-width:0.8735441;marker:none;visibility:visible;display:inline;overflow:visible"
           d="m 38,13 375,0 c 13.85,0 25,11.15 25,25 l 0,375 c 0,13.85 -11.15,25 -25,25 L 38,438 C 24.15,438 13,426.85 13,413 L 13,38 C 13,24.15 24.15,13 38,13 z"
           id="rect2760" />
        <path
           style="fill:none;stroke:#ffffff;stroke-width:20;stroke-linecap:butt;stroke-linejoin:miter;stroke-miterlimit:4;stroke-opacity:1;stroke-dasharray:none"
           d="m 114.74719,179.38325 c 29.74448,-164.920974 225.72429,-119.698047 225.86311,4.35749 0.0315,28.19196 -9.8967,59.17117 -29.77617,79.16103 -25.73206,25.87496 -37.90076,42.02453 -53.74234,65.36232 -10.40609,15.33022 -13.91006,35.41808 -26.87118,48.65861 -36.01467,36.79106 -68.26731,3.63124 -68.26731,3.63124"
           id="path3072"
           inkscape:connector-curvature="0"
           sodipodi:nodetypes="cssasc" />
        <path
           style="fill:none;stroke:#ffffff;stroke-width:20;stroke-linecap:butt;stroke-linejoin:miter;stroke-miterlimit:4;stroke-opacity:1;stroke-dasharray:none"
           d="m 158.32206,163.4058 c 44.13031,-104.480158 198.6909,-25.30075 121.28341,76.98228"
           id="path3842"
           inkscape:connector-curvature="0"
           sodipodi:nodetypes="cc" />
        <path
           style="fill:#ffffff;stroke:#ffffff;stroke-width:1px;stroke-linecap:butt;stroke-linejoin:miter;stroke-opacity:1"
           d="m 315.19163,74.077295 c 21.8392,21.167201 43.419,42.561385 50.11111,76.982285 l 74.80354,-80.613525 0.72625,-44.301127 -18.88245,-18.8824481 -42.12238,-10e-8 z"
           id="path3844"
           inkscape:connector-curvature="0"
           sodipodi:nodetypes="ccccccc" />
        <path
           style="fill:#ffffff;stroke:#ffffff;stroke-width:1px;stroke-linecap:butt;stroke-linejoin:miter;stroke-opacity:1"
           d="m 117.65217,275.24799 75.52979,49.38486 -114.747177,115.47343 -55.921095,-0.72625 -14.5249601,-19.60869 -10e-8,-34.13366 z"
           id="path3846"
           inkscape:connector-curvature="0"
           sodipodi:nodetypes="ccccccc" />
      </g>
    </g>
    <g
       id="g3101"
       transform="translate(741.5,141.35714)">
      <g
         transform="matrix(0.56762749,0,0,0.56762749,-485.5,399.00504)"
         inkscape:label="Layer 1"
         id="layer1-4">
        <path
           inkscape:connector-curvature="0"
           style="color:#000000;fill:#ffffff;fill-opacity:1;fill-rule:nonzero;stroke:#000000;stroke-width:1;stroke-linecap:butt;stroke-linejoin:miter;stroke-miterlimit:4;stroke-opacity:1;stroke-dashoffset:0;marker:none;visibility:visible;display:inline;overflow:visible"
           d="m 38,0.5 375,0 c 20.775,0 37.5,16.725 37.5,37.5 l 0,375 c 0,20.775 -16.725,37.5 -37.5,37.5 l -375,0 C 17.225,450.5 0.5,433.775 0.5,413 L 0.5,38 C 0.5,17.225 17.225,0.5 38,0.5 z"
           id="rect1872-5" />
        <path
           inkscape:connector-curvature="0"
           style="color:#000000;fill:#003f87;fill-opacity:1;fill-rule:nonzero;stroke:none;stroke-width:0.8735441;marker:none;visibility:visible;display:inline;overflow:visible"
           d="m 38,13 375,0 c 13.85,0 25,11.15 25,25 l 0,375 c 0,13.85 -11.15,25 -25,25 L 38,438 C 24.15,438 13,426.85 13,413 L 13,38 C 13,24.15 24.15,13 38,13 z"
           id="rect2760-5" />
        <g
           id="g3989">
          <path
             transform="matrix(0.87074964,0,0,0.87074964,18.906409,23.269987)"
             d="m 87.149755,169.5789 c 0,5.0137 -4.064403,9.0781 -9.0781,9.0781 -5.013696,0 -9.0781,-4.0644 -9.0781,-9.0781 0,-5.01369 4.064404,-9.0781 9.0781,-9.0781 5.013697,0 9.0781,4.06441 9.0781,9.0781 z"
             sodipodi:ry="9.0781002"
             sodipodi:rx="9.0781002"
             sodipodi:cy="169.5789"
             sodipodi:cx="78.071655"
             id="path3878"
             style="fill:#ffffff;stroke:#ffffff;stroke-width:14;stroke-miterlimit:4;stroke-dasharray:none"
             sodipodi:type="arc" />
          <path
             transform="matrix(0.87074964,0,0,0.87074964,36.598845,-7.4949074)"
             d="m 87.149755,169.5789 c 0,5.0137 -4.064403,9.0781 -9.0781,9.0781 -5.013696,0 -9.0781,-4.0644 -9.0781,-9.0781 0,-5.01369 4.064404,-9.0781 9.0781,-9.0781 5.013697,0 9.0781,4.06441 9.0781,9.0781 z"
             sodipodi:ry="9.0781002"
             sodipodi:rx="9.0781002"
             sodipodi:cy="169.5789"
             sodipodi:cx="78.071655"
             id="path3878-1"
             style="fill:#ffffff;stroke:#ffffff;stroke-width:14;stroke-miterlimit:4;stroke-dasharray:none"
             sodipodi:type="arc" />
          <path
             transform="matrix(0.87074964,0,0,0.87074964,61.291276,-32.913587)"
             d="m 87.149755,169.5789 c 0,5.0137 -4.064403,9.0781 -9.0781,9.0781 -5.013696,0 -9.0781,-4.0644 -9.0781,-9.0781 0,-5.01369 4.064404,-9.0781 9.0781,-9.0781 5.013697,0 9.0781,4.06441 9.0781,9.0781 z"
             sodipodi:ry="9.0781002"
             sodipodi:rx="9.0781002"
             sodipodi:cy="169.5789"
             sodipodi:cx="78.071655"
             id="path3878-7"
             style="fill:#ffffff;stroke:#ffffff;stroke-width:14;stroke-miterlimit:4;stroke-dasharray:none"
             sodipodi:type="arc" />
          <path
             transform="matrix(0.87074964,0,0,0.87074964,162.23975,-65.594746)"
             d="m 87.149755,169.5789 c 0,5.0137 -4.064403,9.0781 -9.0781,9.0781 -5.013696,0 -9.0781,-4.0644 -9.0781,-9.0781 0,-5.01369 4.064404,-9.0781 9.0781,-9.0781 5.013697,0 9.0781,4.06441 9.0781,9.0781 z"
             sodipodi:ry="9.0781002"
             sodipodi:rx="9.0781002"
             sodipodi:cy="169.5789"
             sodipodi:cx="78.071655"
             id="path3878-4"
             style="fill:#ffffff;stroke:#ffffff;stroke-width:14;stroke-miterlimit:4;stroke-dasharray:none"
             sodipodi:type="arc" />
          <path
             transform="matrix(0.87074964,0,0,0.87074964,125.2011,-62.689754)"
             d="m 87.149755,169.5789 c 0,5.0137 -4.064403,9.0781 -9.0781,9.0781 -5.013696,0 -9.0781,-4.0644 -9.0781,-9.0781 0,-5.01369 4.064404,-9.0781 9.0781,-9.0781 5.013697,0 9.0781,4.06441 9.0781,9.0781 z"
             sodipodi:ry="9.0781002"
             sodipodi:rx="9.0781002"
             sodipodi:cy="169.5789"
             sodipodi:cx="78.071655"
             id="path3878-0"
             style="fill:#ffffff;stroke:#ffffff;stroke-width:14;stroke-miterlimit:4;stroke-dasharray:none"
             sodipodi:type="arc" />
          <path
             transform="matrix(0.87074964,0,0,0.87074964,93.246187,-50.343539)"
             d="m 87.149755,169.5789 c 0,5.0137 -4.064403,9.0781 -9.0781,9.0781 -5.013696,0 -9.0781,-4.0644 -9.0781,-9.0781 0,-5.01369 4.064404,-9.0781 9.0781,-9.0781 5.013697,0 9.0781,4.06441 9.0781,9.0781 z"
             sodipodi:ry="9.0781002"
             sodipodi:rx="9.0781002"
             sodipodi:cy="169.5789"
             sodipodi:cx="78.071655"
             id="path3878-0-9"
             style="fill:#ffffff;stroke:#ffffff;stroke-width:14;stroke-miterlimit:4;stroke-dasharray:none"
             sodipodi:type="arc" />
          <path
             transform="matrix(0.87074964,0,0,0.87074964,197.09965,-61.237258)"
             d="m 87.149755,169.5789 c 0,5.0137 -4.064403,9.0781 -9.0781,9.0781 -5.013696,0 -9.0781,-4.0644 -9.0781,-9.0781 0,-5.01369 4.064404,-9.0781 9.0781,-9.0781 5.013697,0 9.0781,4.06441 9.0781,9.0781 z"
             sodipodi:ry="9.0781002"
             sodipodi:rx="9.0781002"
             sodipodi:cy="169.5789"
             sodipodi:cx="78.071655"
             id="path3878-4-4"
             style="fill:#ffffff;stroke:#ffffff;stroke-width:14;stroke-miterlimit:4;stroke-dasharray:none"
             sodipodi:type="arc" />
          <path
             transform="matrix(0.87074964,0,0,0.87074964,229.78081,-46.712299)"
             d="m 87.149755,169.5789 c 0,5.0137 -4.064403,9.0781 -9.0781,9.0781 -5.013696,0 -9.0781,-4.0644 -9.0781,-9.0781 0,-5.01369 4.064404,-9.0781 9.0781,-9.0781 5.013697,0 9.0781,4.06441 9.0781,9.0781 z"
             sodipodi:ry="9.0781002"
             sodipodi:rx="9.0781002"
             sodipodi:cy="169.5789"
             sodipodi:cx="78.071655"
             id="path3878-4-8"
             style="fill:#ffffff;stroke:#ffffff;stroke-width:14;stroke-miterlimit:4;stroke-dasharray:none"
             sodipodi:type="arc" />
          <path
             transform="matrix(0.87074964,0,0,0.87074964,258.10448,-27.829851)"
             d="m 87.149755,169.5789 c 0,5.0137 -4.064403,9.0781 -9.0781,9.0781 -5.013696,0 -9.0781,-4.0644 -9.0781,-9.0781 0,-5.01369 4.064404,-9.0781 9.0781,-9.0781 5.013697,0 9.0781,4.06441 9.0781,9.0781 z"
             sodipodi:ry="9.0781002"
             sodipodi:rx="9.0781002"
             sodipodi:cy="169.5789"
             sodipodi:cx="78.071655"
             id="path3878-4-82"
             style="fill:#ffffff;stroke:#ffffff;stroke-width:14;stroke-miterlimit:4;stroke-dasharray:none"
             sodipodi:type="arc" />
          <path
             transform="matrix(0.87074964,0,0,0.87074964,282.07067,-3.8636672)"
             d="m 87.149755,169.5789 c 0,5.0137 -4.064403,9.0781 -9.0781,9.0781 -5.013696,0 -9.0781,-4.0644 -9.0781,-9.0781 0,-5.01369 4.064404,-9.0781 9.0781,-9.0781 5.013697,0 9.0781,4.06441 9.0781,9.0781 z"
             sodipodi:ry="9.0781002"
             sodipodi:rx="9.0781002"
             sodipodi:cy="169.5789"
             sodipodi:cx="78.071655"
             id="path3878-4-45"
             style="fill:#ffffff;stroke:#ffffff;stroke-width:14;stroke-miterlimit:4;stroke-dasharray:none"
             sodipodi:type="arc" />
          <path
             transform="matrix(0.87074964,0,0,0.87074964,302.4056,20.828764)"
             d="m 87.149755,169.5789 c 0,5.0137 -4.064403,9.0781 -9.0781,9.0781 -5.013696,0 -9.0781,-4.0644 -9.0781,-9.0781 0,-5.01369 4.064404,-9.0781 9.0781,-9.0781 5.013697,0 9.0781,4.06441 9.0781,9.0781 z"
             sodipodi:ry="9.0781002"
             sodipodi:rx="9.0781002"
             sodipodi:cy="169.5789"
             sodipodi:cx="78.071655"
             id="path3878-4-5"
             style="fill:#ffffff;stroke:#ffffff;stroke-width:14;stroke-miterlimit:4;stroke-dasharray:none"
             sodipodi:type="arc" />
          <path
             sodipodi:nodetypes="ccssc"
             inkscape:connector-curvature="0"
             id="path3983"
             d="m 198.99195,287.59421 55.19485,-10e-6 c 0,0 17.5408,-11.69197 -1.4525,-24.69243 -14.58853,-9.98549 -37.48191,-9.89194 -53.0161,-1.45249 -22.14734,12.03225 -0.72625,26.14493 -0.72625,26.14493 z"
             style="fill:#ffffff;stroke:#ffffff;stroke-width:1px;stroke-linecap:butt;stroke-linejoin:miter;stroke-opacity:1" />
          <path
             sodipodi:nodetypes="scccccccs"
             inkscape:connector-curvature="0"
             id="path3985"
             d="m 93.68599,194.63446 c 4.331684,0.53179 0.726248,13.07246 0.726248,13.07246 -58.299983,9.97861 -69.370079,78.38752 -1.452496,100.94847 55.986488,90.62772 193.383458,97.09822 258.544288,2.17875 80.2328,-24.66908 59.56811,-91.08559 2.17874,-103.85346 l -2.90499,-13.79872 c 92.40688,4.14669 95.43328,112.36868 17.42995,124.18841 -62.63772,106.22349 -229.39425,106.37643 -289.046699,0 C -16.516477,291.58117 29.994824,186.8152 93.68599,194.63446 z"
             style="fill:#ffffff;stroke:none" />
          <path
             sodipodi:nodetypes="cc"
             inkscape:connector-curvature="0"
             id="path3987"
             d="m 156.86957,327.53784 c 33.41952,43.12454 99.26236,46.49877 143.7971,0.72625"
             style="fill:none;stroke:#ffffff;stroke-width:15;stroke-linecap:butt;stroke-linejoin:miter;stroke-miterlimit:4;stroke-opacity:1;stroke-dasharray:none" />
        </g>
      </g>
    </g>
    <g
       id="g3159"
       transform="translate(131.5,294.5)">
      <g
         transform="matrix(0.56762749,0,0,0.56762749,124.5,501.86218)"
         inkscape:label="Layer 1"
         id="layer1-5">
        <path
           inkscape:connector-curvature="0"
           style="color:#000000;fill:#ffffff;fill-opacity:1;fill-rule:nonzero;stroke:#000000;stroke-width:1;stroke-linecap:butt;stroke-linejoin:miter;stroke-miterlimit:4;stroke-opacity:1;stroke-dashoffset:0;marker:none;visibility:visible;display:inline;overflow:visible"
           d="m 38,0.5 375,0 c 20.775,0 37.5,16.725 37.5,37.5 l 0,375 c 0,20.775 -16.725,37.5 -37.5,37.5 l -375,0 C 17.225,450.5 0.5,433.775 0.5,413 L 0.5,38 C 0.5,17.225 17.225,0.5 38,0.5 z"
           id="rect1872-2" />
        <path
           inkscape:connector-curvature="0"
           style="color:#000000;fill:#003f87;fill-opacity:1;fill-rule:nonzero;stroke:none;stroke-width:0.8735441;marker:none;visibility:visible;display:inline;overflow:visible"
           d="m 38,13 375,0 c 13.85,0 25,11.15 25,25 l 0,375 c 0,13.85 -11.15,25 -25,25 L 38,438 C 24.15,438 13,426.85 13,413 L 13,38 C 13,24.15 24.15,13 38,13 z"
           id="rect2760-7" />
        <g
           id="g3051"
           transform="translate(9.480675,-2.0656229)">
          <path
             transform="translate(-7.262482,1.452496)"
             d="m 236.75685,92.233498 c 0,22.060262 -17.55822,39.943642 -39.21739,39.943642 -21.65917,0 -39.21739,-17.88338 -39.21739,-39.943642 0,-22.060262 17.55822,-39.943638 39.21739,-39.943638 21.65917,0 39.21739,17.883376 39.21739,39.943638 z"
             sodipodi:ry="39.943638"
             sodipodi:rx="39.217392"
             sodipodi:cy="92.233498"
             sodipodi:cx="197.53946"
             id="path3029"
             style="fill:#ffffff"
             sodipodi:type="arc" />
          <g
             id="g3045">
            <path
               style="fill:#ffffff;stroke:#ffffff;stroke-width:1px;stroke-linecap:butt;stroke-linejoin:miter;stroke-opacity:1"
               d="m 168.48953,138.71337 0,142.3446 -53.0161,115.47343 41.39614,0.72625 67.54106,-108.9372 -2.17875,-71.1723 -25.41868,-29.04992 8.71498,-10.16747 81.33977,90.05475 8.71498,-7.26248 -23.96618,-28.32367 -57.37359,-92.95975 z"
               id="path3037"
               inkscape:connector-curvature="0" />
            <path
               style="fill:#ffffff;stroke:#ffffff;stroke-width:1px;stroke-linecap:butt;stroke-linejoin:miter;stroke-opacity:1"
               d="m 302.11916,270.8905 -9.44122,7.26248 63.18357,120.55716 16.70371,0.72625 -37.03865,-72.6248 z"
               id="path3039"
               inkscape:connector-curvature="0" />
            <path
               style="fill:#ffffff;stroke:#ffffff;stroke-width:1px;stroke-linecap:butt;stroke-linejoin:miter;stroke-opacity:1"
               d="m 228.76812,303.57166 -19.6087,26.14493 45.02738,71.1723 22.51368,-15.97746 z"
               id="path3041"
               inkscape:connector-curvature="0" />
            <path
               style="fill:#ffffff;stroke:#ffffff;stroke-width:1px;stroke-linecap:butt;stroke-linejoin:miter;stroke-opacity:1"
               d="M 161.22705,154.69082 163.4058,224.41063 124.91465,181.562 z"
               id="path3043"
               inkscape:connector-curvature="0" />
          </g>
        </g>
      </g>
    </g>
    <g
       id="layer1-3"
       inkscape:label="Layer 1"
       transform="matrix(0.56762749,0,0,0.56762749,0,540.36218)">
      <path
         id="rect1872-22"
         d="m 38,0.5 375,0 c 20.775,0 37.5,16.725 37.5,37.5 l 0,375 c 0,20.775 -16.725,37.5 -37.5,37.5 l -375,0 C 17.225,450.5 0.5,433.775 0.5,413 L 0.5,38 C 0.5,17.225 17.225,0.5 38,0.5 z"
         style="color:#000000;fill:#ffffff;fill-opacity:1;fill-rule:nonzero;stroke:#000000;stroke-width:1;stroke-linecap:butt;stroke-linejoin:miter;stroke-miterlimit:4;stroke-opacity:1;stroke-dashoffset:0;marker:none;visibility:visible;display:inline;overflow:visible"
         inkscape:connector-curvature="0" />
      <path
         id="rect2760-1"
         d="m 38,13 375,0 c 13.85,0 25,11.15 25,25 l 0,375 c 0,13.85 -11.15,25 -25,25 L 38,438 C 24.15,438 13,426.85 13,413 L 13,38 C 13,24.15 24.15,13 38,13 z"
         style="color:#000000;fill:#003f87;fill-opacity:1;fill-rule:nonzero;stroke:none;stroke-width:0.8735441;marker:none;visibility:visible;display:inline;overflow:visible"
         inkscape:connector-curvature="0" />
      <path
         id="path1938"
         d="m 180.95162,412.82907 c -10.41667,-0.9223 -19.78961,-2.8684 -29.0078,-6.0229 -42.14695,-14.4232 -73.433508,-51.83941 -80.726912,-96.54291 -0.426471,-2.614 -0.934867,-6.2329 -1.129784,-8.0422 -0.476624,-4.4242 -0.474669,-20.0007 0.0031,-24.39721 1.585138,-14.5879 5.396585,-28.1575 11.549567,-41.1189 11.659099,-24.5602 30.949259,-44.6283 54.558459,-56.75861 l 3.4107,-1.7524 0.15651,1.4317 c 0.16406,1.5007 2.55369,33.75821 2.55369,34.47201 0,0.2264 -0.99256,1.088 -2.20566,1.9148 -5.13855,3.5021 -11.33767,9.0742 -15.54937,13.9764 -11.77103,13.7011 -18.81591,29.2695 -21.58376,47.698 -0.51053,3.39911 -0.59943,5.12621 -0.61375,11.92441 -0.0172,8.1709 0.1904,10.9925 1.22039,16.5847 3.37897,18.3459 11.50929,34.0987 24.41061,47.2965 4.48359,4.5866 8.25041,7.7367 13.59512,11.3692 20.59883,14.00011 46.12488,18.28331 70.16074,11.77261 5.85678,-1.5864 10.47062,-3.4448 17.32176,-6.9767 18.34007,-9.45491 33.59773,-26.49391 41.36249,-46.19171 2.31289,-5.8674 4.3421,-13.2941 5.21184,-19.0747 0.25895,-1.7212 0.53301,-3.1282 0.609,-3.1265 0.076,0.002 4.85171,9.901 10.61271,21.9986 l 10.47457,21.9956 -1.35639,2.5914 c -14.07606,26.89281 -38.49378,48.14041 -67.04791,58.34331 -8.91457,3.1853 -16.68845,5.0107 -26.60161,6.2464 -4.06002,0.506 -17.33889,0.7476 -21.38827,0.3891 z m 144.31322,-40.8857 c -0.27807,-0.6549 -11.32326,-27.18821 -24.54483,-58.96281 l -24.03921,-57.77211 -59.82865,0 c -32.90574,0 -59.83954,-0.0308 -59.85289,-0.0685 -0.0133,-0.0377 -2.65014,-37.754 -5.85954,-83.81411 l -5.83528,-83.745496 -0.93882,-2.0966 c -1.88891,-4.218401 -2.82978,-8.250001 -3.02921,-12.980302 -0.68835,-16.326402 10.6437,-30.837603 26.57511,-34.030404 3.42094,-0.6856 8.77105,-0.6189 12.37172,0.1543 9.73734,2.090901 17.91202,8.479401 22.41058,17.513702 2.51821,5.057301 3.58216,9.542901 3.5884,15.128802 0.0119,10.654201 -4.77846,20.356102 -13.29971,26.935803 -3.90258,3.013495 -10.17921,5.679295 -14.42071,6.124895 l -1.70838,0.1794 0.12134,1.4038 c 0.146,1.689 3.57583,64.5565 3.57583,65.5436 l 0,0.6909 41.84077,0 41.84076,0 0,15.6252 0,15.62521 -40.27589,0 -40.27586,0 0.15589,1.9874 c 0.0857,1.0931 0.42865,5.9073 0.76199,10.6984 l 0.60608,8.7109 11.10763,-0.1505 c 25.04638,-0.3394 100.07867,-0.7168 100.26704,-0.5044 0.11155,0.1259 10.83523,25.423 23.83041,56.21601 12.99519,30.793 23.72281,55.9886 23.83913,55.9903 0.11634,0.002 8.22386,-2.9609 18.01667,-6.5836 9.79281,-3.6226 17.86755,-6.5226 17.94382,-6.4443 0.35366,0.3625 9.85894,23.8792 9.71213,24.0283 -0.16501,0.1676 -62.8498,25.41641 -63.70638,25.66041 -0.32021,0.0911 -0.58551,-0.2061 -0.94994,-1.0642 z"
         style="fill:#ffffff;fill-opacity:1"
         inkscape:connector-curvature="0" />
    </g>
  </g>
</svg>
