<?xml version="1.0"?>
<svg xmlns:rdf="http://www.w3.org/1999/02/22-rdf-syntax-ns#" xmlns="http://www.w3.org/2000/svg" xmlns:cc="http://web.resource.org/cc/" xmlns:dc="http://purl.org/dc/elements/1.1/" xmlns:sodipodi="http://inkscape.sourceforge.net/DTD/sodipodi-0.dtd" xmlns:svg="http://www.w3.org/2000/svg" id="Layer_1" style="enable-background:new 0 0 264.95 264.744" xml:space="preserve" sodipodi:version="0.32" viewBox="0 0 264.95 264.744" version="1.0" sodipodi:docname="Simbolo giapponese.svg" sodipodi:docbase="F:\openclip\svg3">
<sodipodi:namedview id="base" bordercolor="#666666" borderopacity="1.0" pagecolor="#ffffff"/>
<path id="path3" d="m138.38 2.539v52.056c26.683 2.94 58.81 0.439 87.604 1.269-5.462-12.229-16.686-22.298-27.932-29.201-9.081-5.575-20.839-9.101-31.74-12.696-2.934 4.261-0.445 13.944-1.27 20.314 12.972 0.231 28.942 1.657 30.47 11.427h-41.898v-44.438c22.741 1.996 40.824 12.09 55.865 22.853 14.328 10.252 29.842 22.885 35.55 41.898-9.847 2.85-24.886 0.505-36.819 1.27-2.354 2.726-0.858 9.301-1.269 13.966 13.725 2.779 32.452 0.558 48.244 1.27 6.958 17.827 11.852 40.775 8.889 64.751-11.271 0.487-15.876 0.034-27.932 0-3.989 1.936-2.114 9.736-2.539 15.236 5.351 2.219 19.757-2.502 26.663 1.27-3.308 17.007-9.724 30.905-20.314 40.627-14.447-0.786-32.085 1.616-44.439-1.27-3.194 6.323-0.957 10.192-2.538 17.774 5.523 4.188 18.45-0.21 31.74 1.271 0.109 4.773-6.263 9.504-10.155 12.698-15.725 12.895-42.903 26.331-69.832 29.2-43.126 4.593-85.117-15.493-104.11-39.359 8.825-2.601 22.169-0.683 33.01-1.27 2.926-3.422 0.451-12.244 1.27-17.773-14.602-2.154-36.129-1.861-50.786 0-10.402-8.641-13.687-24.4-17.772-39.359 9.097 1.224 13.466 0.618 22.852 0 2.921-3.006 0.455-11.396 1.271-16.507-13.387-0.433-17.562 1.163-29.202 1.27-3.49-24.475 0.583-50.562 8.888-67.29h54.594c1.221-3.343 2.453-10.876 0-13.966-13.126-2.957-31.738-0.427-46.977-1.27 2.102-10.755 12.167-18.59 19.045-26.662 6.515-7.648 11.676-12.206 21.584-19.045 13.76-9.512 31.234-20.591 55.853-20.318v43.168c-14.1-1.06-30.035 1.656-40.629 0 5.039-11.122 15.765-13.371 29.203-10.158 2.286-4.447 1.868-17.068 0-21.583-28.628 6.499-50.437 19.816-63.482 41.897 27.895 3.428 64.102 0.003 88.874 0 1.365-12.087-1.972-38.825 1.27-55.863 2.9 0.919 6.49 1.131 8.9 2.539zm-63.49 66.021v12.696c17.464 4.246 36.155 1.082 58.405 1.27 18.23 0.154 40.838-0.006 62.211 0v-15.236c-43.21-0.02-78.68-0.045-120.62 1.27zm-58.403 26.663c-4.282 11.799-5.752 26.411-5.077 43.167h19.044c-0.213-10.369 0.547-19.766 2.54-27.933 56.56-0.739 105.7-1.269 168.86-1.269 10.77 0 22.922-2.005 33.013 2.54v24.123c6.187-0.583 14.871 1.329 19.041-1.269-0.394-14.842-2.653-27.819-6.347-39.36-79.92-1.72-146.17 0.53-231.06 0.003zm24.124 25.397v17.774c12.313 1.71 24.528-4.272 33.01 1.27-1.848 6.281 1.111 15.92 0 25.394 17.997-3.371 37.375 1.256 55.864-2.539-0.699-1.563 0.547-9.994-1.27-13.967h-40.627v-11.426c5.292 1.35 5.6 0.327 11.426 0v-16.506c-12.891-1.64-41.596-2.31-58.398 0.02zm67.289 0c-2.907 4.826 0.123 12.948 1.27 17.774 18.392 0.286 27.258-2.09 46.977-1.269 2.5-3.428 0.756-11.095 1.271-16.506-18.27-2.33-34.71-1.09-49.52 0.01zm58.41 15.23c1.605 3.049 10.013-0.701 11.426 2.539v10.157h-38.089c-0.464 6.981-1.296 8.67 0 15.236 18.39-0.657 39.519 1.43 55.863-1.27 0.009-4.77-1.133-19.063 1.27-25.393 6.959-2.777 18.91-0.561 27.933-1.271-0.512-5.411 1.229-13.079-1.27-16.505h-58.402c0.32 5.58 2.03 9.81 1.27 16.49zm39.36 12.7c-3.387 5.502 0.686 18.463-2.541 24.122-29.871 2.403-56.216 2.539-85.066 2.539-18.229 0-37 2.054-54.594-2.539v-21.584c-5.345-2.696-15.466-0.616-22.854-1.27-0.832 8.057 1.673 19.45-1.27 25.393-6.232 3.179-13.095-0.466-19.045 1.271 1.002 7.041 3.951 12.132 7.618 16.506 71.488-0.304 148.2 0.894 210.76-1.27 1.074-6.965 5.269-10.81 6.347-17.776-6.585-0.61-15.757 1.369-20.314-1.27 0.941-7.944-0.424-13.896 0-24.122-5.17-0.84-13.48-0.89-19.05 0zm-120.62 55.86c-1.792 7.163 0.406 10.496 0 19.045 32.799-0.633 68.266 1.4 99.032-1.27v-17.775c-35.08-0.29-63.24-0.04-99.031-0.01zm-15.237 30.47c25.312 25.598 97.585 24.626 123.16 0-39.44-1.76-76.66 1-123.16 0z" fill-rule="evenodd" clip-rule="evenodd" fill="#BF0000"/>
<metadata><rdf:RDF><cc:Work><dc:format>image/svg+xml</dc:format><dc:type rdf:resource="http://purl.org/dc/dcmitype/StillImage"/><cc:license rdf:resource="http://creativecommons.org/licenses/publicdomain/"/><dc:publisher><cc:Agent rdf:about="http://openclipart.org/"><dc:title>Openclipart</dc:title></cc:Agent></dc:publisher><dc:title>Architetto -- simbolo giapponese</dc:title><dc:date>2010-03-26T20:38:00</dc:date><dc:description>Drawing by Francesco 'Architetto' Rollandin. From OCAL 0.18 release.</dc:description><dc:source>http://openclipart.org/detail/34387/architetto----simbolo-giapponese-by-anonymous</dc:source><dc:creator><cc:Agent><dc:title>Anonymous</dc:title></cc:Agent></dc:creator><dc:subject><rdf:Bag><rdf:li>abstract</rdf:li><rdf:li>circle</rdf:li><rdf:li>clip art</rdf:li><rdf:li>clipart</rdf:li><rdf:li>japanese</rdf:li><rdf:li>oriental</rdf:li><rdf:li>red</rdf:li><rdf:li>sign</rdf:li><rdf:li>symbol</rdf:li></rdf:Bag></dc:subject></cc:Work><cc:License rdf:about="http://creativecommons.org/licenses/publicdomain/"><cc:permits rdf:resource="http://creativecommons.org/ns#Reproduction"/><cc:permits rdf:resource="http://creativecommons.org/ns#Distribution"/><cc:permits rdf:resource="http://creativecommons.org/ns#DerivativeWorks"/></cc:License></rdf:RDF></metadata></svg>
