<?xml version="1.0"?>
<svg xmlns:rdf="http://www.w3.org/1999/02/22-rdf-syntax-ns#" xmlns="http://www.w3.org/2000/svg" xmlns:cc="http://creativecommons.org/ns#" xmlns:dc="http://purl.org/dc/elements/1.1/" xmlns:svg="http://www.w3.org/2000/svg" id="svg4749" viewBox="0 0 790.14 693.25" version="1.1">
  <g id="layer1" transform="translate(98.194 -122.59)">
    <path id="path4322" d="m448.03 813.08c-66.661-0.37967-146.91 1.4094-205.79-0.0606-38.379 4.263-192.98 4.9939-206.41-7.1566-7.3788-6.6777-7.449-22.01-0.14213-31.034 4.9088-6.0621 55.145-16.386 81.77-18.631 16.666-1.4056 38.541-2.7316 48.611-2.9466 10.071-0.21502 18.31-1.1499 18.31-2.0775-30.484-30.824-70.838-53.551-95.685-88.414-25.563-40.45-27.368-73.924-7.255-132.99 6.6668-19.579 12.121-37.681 12.121-40.226 23.189-73.564 2.955-80.601-43.823-46.789-27.635 20.69-98.545 85.027-145.22 145.56-11.036 14.31 9.7599-67.489 96.341-160.53 46.618-50.09 108.93-81.84 136.69-33.35 6.6575 11.629 7.2926 15.8 7.2926 47.894 0 27.575-1.5648 41.473-7.2571 64.452-5.4568 22.028-7.2351 36.927-7.1686 60.057 0.10612 36.852 6.0677 53.537 26.182 73.278 16.016 14.799 25.405 13.68 45.371 15.336l0.0234-30.391c1.2531-39.353 11.045-164.2 42.611-162.23 23.777-5.3593 40.371 45.833 47.016 76.728 1.008 5.373 2.8854 10.42 4.1722 11.215 11.936 12.78 19.349-7.9438 26.984-27.025 6.0177-15.04 1.6846-69.036-3.3948-87.899-3.7165-13.802-2.4375-13.311-48.565-18.637-16.113-1.8601-33.45-5.2088-38.528-7.4413-5.0774-2.2326-10.92-4.0593-12.984-4.0593-2.0637 0-13.954-2.7527-26.423-6.1172-27.199-7.3389-86.649-58.185-93.282-70.578-5.609-13.55 41.519 3.4415 63.3-9.5355 20.191-14.258 13.793-40.454 14.343-48.108 2.8791-30.628 7.5125-59.038 12.652-91.242 1.7031-34.227 2.2222-36.677 7.9443-37.495 4.2787-0.61134 9.3419 3.0545 16.815 12.174 5.881 7.177 19.299 19.897 29.818 28.267l19.125 15.218c24.409 1.0725 84.35-1.0881 90.568-12.034 1.5528-2.9013 7.6052-10.999 13.45-17.994 5.8446-6.9956 14.532-20.456 19.306-29.913 10.704-21.205 15.645-21.046 24.116 0.77549 3.4433 8.8699 9.795 22.053 14.115 29.296 12.059 20.219 22.951 39.06 28.78 68.608 2.3717 21.733 8.8704 59.991 32.841 66.042 5.2366 1.0468 34.584-10.271 40.148-6.4784 0 0-11.629 24.931-21.291 32.739-27.802 29.101-77.063 50.719-110.41 67.105-20.891 10.209-37.983 20.097-37.982 21.972-9.4097 28.726 16.192 114.21 45.863 97.028 20.843-5.2363 31.226-61.354 45.077-63.477 18.182 0 29.554 18.896 28.329 59.63-1.0766 35.782-14.477 130.15-24.061 150.28-43.793 142.83 157.46 121.67 171.39 122.02 186.89 27.18-60.117 32.666-153.52 28.271zm-185.64-502.43c-4.9169-10.706-5.1794-9.1718-5.0091-26.64 0.0993-10.189 7.315-18.436 6.2951-21.844 0 0-18.167 0.72788-30.33 6.6158-16.91 8.1859-26.606 17.571-24.19 25.184 2.7387 8.6288 28.955 22.87 39.797 26.011 9.5004 2.7527 25.372 6.2602 27.064 4.8128 1.6854-1.4413-10.083-6.4221-13.628-14.14zm30.85 11.557c11.26-5.7848 22.743-10.928 26.154-21.261 3.1022-9.3997 2.7044-10.666-6.2566-19.911-9.1687-9.4598-21.068-16.807-35.576-18.339l-14.161-1.4954 7.2238 5.8154c9.3898 7.5592 11.197 20.546 10.354 39.11-0.57652 12.695-7.3905 18.904-6.0641 18.904 1.3263 0 14.807-1.0152 18.327-2.8233zm85.195-8.8261c0-1.4145-3.4765-3.6133-6.0235-9.7092-2.9723-7.1137-2.8912-16.283-2.2694-27.266 0.53284-9.4113 8.6975-19.662 8.2146-19.659-4.6963 0.029-28.218 10.344-35.333 18.976-8.2261 9.9797-7.6775 12.825-5.1869 19.836 1.8022 5.0737 8.0769 12.034 13.44 15.66 9.5966 6.4873 33.788 10.384 33.469 6.9065zm39.172-2.0927c14.22-6.6211 24.589-19.877 24.577-26.832-0.0171-5.1503-14.427-20.557-42.506-26.86-7.9113-1.7759-20.313-1.5339-20.794-1.0531-0.48087 0.48099 9.266 10.654 11.731 18.635 2.6587 8.6097 1.0109 9.9889 0.35028 19.983-0.56547 8.5548-6.2459 22.978-6.2459 22.978-1.3898 3.4627 19.963-0.83298 32.888-6.8516z"/>
  </g>
  <metadata>
    <rdf:RDF>
      <cc:Work>
        <dc:format>image/svg+xml</dc:format>
        <dc:type rdf:resource="http://purl.org/dc/dcmitype/StillImage"/>
        <cc:license rdf:resource="http://creativecommons.org/licenses/publicdomain/"/>
        <dc:publisher>
          <cc:Agent rdf:about="http://openclipart.org/">
            <dc:title>Openclipart</dc:title>
          </cc:Agent>
        </dc:publisher>
        <dc:title>Cat -6</dc:title>
        <dc:date>2010-09-20T20:02:45</dc:date>
        <dc:description>Cat and Halloween Clip Art.</dc:description>
        <dc:source>http://openclipart.org/detail/85915/cat--6-by-inky2010</dc:source>
        <dc:creator>
          <cc:Agent>
            <dc:title>inky2010</dc:title>
          </cc:Agent>
        </dc:creator>
        <dc:subject>
          <rdf:Bag>
            <rdf:li>2010</rdf:li>
            <rdf:li>Halloween</rdf:li>
            <rdf:li>Inkscape</rdf:li>
            <rdf:li>avatar</rdf:li>
            <rdf:li>black</rdf:li>
            <rdf:li>cat</rdf:li>
            <rdf:li>clip</rdf:li>
            <rdf:li>clip art</rdf:li>
            <rdf:li>clipart</rdf:li>
            <rdf:li>dark</rdf:li>
            <rdf:li>free</rdf:li>
            <rdf:li>halloween2010</rdf:li>
            <rdf:li>icon</rdf:li>
            <rdf:li>inky2010</rdf:li>
            <rdf:li>shade</rdf:li>
            <rdf:li>silhouette</rdf:li>
            <rdf:li>spooky</rdf:li>
          </rdf:Bag>
        </dc:subject>
      </cc:Work>
      <cc:License rdf:about="http://creativecommons.org/licenses/publicdomain/">
        <cc:permits rdf:resource="http://creativecommons.org/ns#Reproduction"/>
        <cc:permits rdf:resource="http://creativecommons.org/ns#Distribution"/>
        <cc:permits rdf:resource="http://creativecommons.org/ns#DerivativeWorks"/>
      </cc:License>
    </rdf:RDF>
  </metadata>
</svg>
