<?xml version="1.0"?>
<svg xmlns:rdf="http://www.w3.org/1999/02/22-rdf-syntax-ns#" xmlns="http://www.w3.org/2000/svg" xmlns:cc="http://creativecommons.org/ns#" xmlns:dc="http://purl.org/dc/elements/1.1/" xmlns:svg="http://www.w3.org/2000/svg" id="svg4010" viewBox="0 0 262.2 372.05" version="1.1">
  <g id="layer1" transform="translate(0 -680.31)">
    <path id="path3198" d="m27.901 690.27-18.797 1.4122 13.462 1.4122-4.9597 10.965 7.7939-4.9427-3.5427 5.6488 8.169-2.8244 7.7522-1.786 8.5024-0.33229 12.42 6.6872 15.921 14.828 15.588 12.71 13.087 32.481v2.4506l-5.2932 10.218-4.9597-5.9811s4.7039 7.1072 4.195 3.4708c-0.62237-4.4473-4.8543-23.671-8.1128-26.772 0 0-4.2581-5.7604-7.4188-7.061-5.2398-2.1561-11.678-1.7425-17.003-0.35174-5.3251 1.3908-13.797 8.1189-13.797 8.1189s-4.9862 12.121-4.2512 18.359c0.18426 1.5637-0.27496 4.2311-0.27496 4.2311s0.40174 6.9254 0.63083 9.5357c0.22908 2.6103 2.1049 5.6508 2.1049 5.6508s-2.0614 9.9782-1.0437 13.769c2.5274 2.1052 6.1027 3.1675 9.3969 3.0657 2.4737-0.0764 4.5298-2.0216 6.8993-2.7334 1.2104-0.36356 2.4499-0.69479 3.7114-0.77715 1.834-0.11975 3.7729 1.0512 5.4978 0.41871 1.0929-0.40075 1.4018-2.0174 2.48-2.452 3.4778-1.4017 9.2291 3.311 11.248 0.15129 3.0504-4.7743-7.3494-15.326-7.3494-15.326s2.7396 1.2624 3.5427 2.4506c0.8831 1.3066 1.042 4.6104 1.042 4.6104l0.70854 2.1183-1.042 2.8244s-8.512 6.9156-11.003 11.63c-3.8815 7.3453-5.2932 24.34-5.2932 24.34s-4.7367 13.45-5.3348 20.477c-0.36065 4.2367 1.0836 12.71 1.0836 12.71s18.459 6.1649 27.966 8.141c8.1578 1.6956 24.799 3.1567 24.799 3.1567l2.1256-1.0384 0.33343 2.4506-6.0017 12.336s-8.2656 33.088-14.171 49.053c-1.8837 5.0928-6.7519 14.828-6.7519 14.828s-5.5281 9.6044-8.1273 14.496c-3.4542 6.5006-13.968 28.748-13.968 28.748s-1.6149-0.71667-2.8103 1.1571c-2.1098 3.307-0.22625 5.0257-0.22625 5.0257l-6.9305 8.0105-3.3224 9.9744s-4.0156 3.4109-3.2092 5.3166c0.18855 0.4455 1.4171 0.3323 1.4171 0.3323l-6.7102 17.279s5.3668 3.7819 8.5024 4.2366c3.3226 0.4818 9.9195-1.7445 9.9195-1.7445s0.16941-5.004 0.70853-7.4349c0.45805-2.0652 2.1256-5.9811 2.1256-5.9811s1.9863 1.579 2.8341 1.0385c2.4888-1.5871 0.70853-8.8055 0.70853-8.8055s3.4183-0.7753 4.2512-2.1184c0.86917-1.4015 0-4.9427 0-4.9427s3.9024-2.5881 4.9597-4.5689c1.0695-2.0036 5.5997-8.3238 2.2328-10.764 1.2067-2.9288 5.186-7.969 5.186-7.969l8.1273-10.924c4.3755-5.8811 4.8045-14.01 8.8775-20.103 1.9886-2.9748 7.4188-7.7671 7.4188-7.7671s2.6383-6.9268 4.2512-10.259c4.3365-8.9594 14.546-26.084 14.546-26.084 4.7118-8.4495 10.452-15.123 14.129-23.675 1.2171-2.2058 4.6263-5.9811 4.6263-5.9811s2.7586-1.3551 4.2512-1.4122c1.9461-0.0744 5.6683 1.4122 5.6683 1.4122l7.0853 17.653c2.8798 7.1748 7.5507 13.566 10.253 20.809 2.1266 5.7003 4.6263 17.653 4.6263 17.653s3.8242 5.713 5.2932 8.8055c5.526 11.633 13.087 36.344 13.087 36.344l-1.4171 1.4122s8.0201 8.9234 9.586 14.496c0.92229 3.2819-0.3751 10.218-0.3751 10.218l6.0434 8.1409s-1.8926 2.4477-1.7922 3.8629c0.13892 1.9574 3.2092 4.9426 3.2092 4.9426l1.042 9.1794s7.8962 3.0081 12.045 3.1567c3.8422 0.1375 11.337-2.1184 11.337-2.1184s-2.8118-5.8811-4.2512-8.8055c-1.6281-3.3075-2.835-9.5325-2.835-9.5325s-1.1538-8.2288-2.1247-11.983c-0.91103-3.5225-5.2932-9.5532-5.2932-9.5532l-1.7922-9.1792-5.2938-10.571s-3.2228-13.038-5.3343-19.418c-1.6372-4.9463-6.7102-14.122-6.7102-14.122l-3.9184-16.24s-1.5153-9.6689-2.125-14.454c-0.80418-6.3113-3.8761-18.691-3.8761-18.691-1.3776-6.643-3.7116-13.066-6.0434-19.439-1.4461-3.9523-4.9181-11.63-4.9181-11.63-0.64387-1.5226-0.009-3.3311-0.3751-4.9427-1.7318-7.6313-8.5024-21.889-8.5024-21.889l-11.67-11.298s-5.9748-15.809-9.9195-23.26c-3.9941-7.5444-13.837-21.557-13.837-21.557-3.6802-5.7334-10.865-8.5444-14.838-14.081-1.8152-2.5296-2.4063-5.7525-3.9178-8.4732-2.1874-3.9374-7.4188-11.298-7.4188-11.298s-8.3-21.4-15.589-30.01c-4.2883-5.0654-15.92-11.983-15.92-11.983l-33.304-19.36-23.715-3.53zm64.435 132.87s3.8929 6.6401 6.7102 9.1793c3.6528 3.2923 12.754 7.4348 12.754 7.4348 3.7055 2.1602 6.2969 6.208 7.7939 10.218 0.69898 1.8722 0.3751 5.9811 0.3751 5.9811s-3.1761 3.2458-3.9178 5.3165c-0.71551 1.9978-0.33343 6.3549-0.33343 6.3549l-15.046-2.1183c-5.0885-0.71642-9.4605-4.0339-14.337-5.6488-3.0192-0.99975-9.211-2.4921-9.211-2.4921l-1.0836-2.8244s6.1753-16.443 10.628-23.966c1.5868-2.6808 5.6683-7.4348 5.6683-7.4348z"/>
  </g>
  <metadata>
    <rdf:RDF>
      <cc:Work>
        <dc:format>image/svg+xml</dc:format>
        <dc:type rdf:resource="http://purl.org/dc/dcmitype/StillImage"/>
        <cc:license rdf:resource="http://creativecommons.org/licenses/publicdomain/"/>
        <dc:publisher>
          <cc:Agent rdf:about="http://openclipart.org/">
            <dc:title>Openclipart</dc:title>
          </cc:Agent>
        </dc:publisher>
        <dc:title>athlete stretching</dc:title>
        <dc:date>2011-10-08T17:17:43</dc:date>
        <dc:description>editing of architetto----fitness-by-anonymous</dc:description>
        <dc:source>http://openclipart.org/detail/163069/athlete-stretching-by-fabuio</dc:source>
        <dc:creator>
          <cc:Agent>
            <dc:title>Fabuio</dc:title>
          </cc:Agent>
        </dc:creator>
        <dc:subject>
          <rdf:Bag>
            <rdf:li>aerobics</rdf:li>
            <rdf:li>black</rdf:li>
            <rdf:li>black and white</rdf:li>
            <rdf:li>clip art</rdf:li>
            <rdf:li>clipart</rdf:li>
            <rdf:li>fitness</rdf:li>
            <rdf:li>gymnastics</rdf:li>
            <rdf:li>silhouette</rdf:li>
            <rdf:li>sport</rdf:li>
            <rdf:li>stretching</rdf:li>
            <rdf:li>woman</rdf:li>
          </rdf:Bag>
        </dc:subject>
      </cc:Work>
      <cc:License rdf:about="http://creativecommons.org/licenses/publicdomain/">
        <cc:permits rdf:resource="http://creativecommons.org/ns#Reproduction"/>
        <cc:permits rdf:resource="http://creativecommons.org/ns#Distribution"/>
        <cc:permits rdf:resource="http://creativecommons.org/ns#DerivativeWorks"/>
      </cc:License>
    </rdf:RDF>
  </metadata>
</svg>
