<?xml version="1.0"?>
<svg xmlns:rdf="http://www.w3.org/1999/02/22-rdf-syntax-ns#" xmlns="http://www.w3.org/2000/svg" xmlns:cc="http://creativecommons.org/ns#" xmlns:dc="http://purl.org/dc/elements/1.1/" xmlns:svg="http://www.w3.org/2000/svg" id="svg6218" viewBox="0 0 708.01 778.88" version="1.1">
  <g id="layer1" stroke="#000" transform="translate(196.88 334.11)">
    <path id="path4648" stroke-linejoin="round" stroke-width="39.3" stroke-linecap="round" d="m20.484-261.81-43.905 160.14 202.41-116.86z"/>
    <path id="path4679" stroke-width="7.2" style="color:#000000" transform="matrix(.80765 -.47019 .47019 .80765 -411.57 626.38)" d="m975.58-205.96c0 9.8945-8.021 17.916-17.916 17.916-9.8945 0-17.916-8.021-17.916-17.916 0-9.8945 8.021-17.916 17.916-17.916 9.8945 0 17.916 8.0211 17.916 17.916z"/>
    <path id="path4681" stroke-width="7.2" style="color:#000000" transform="matrix(.80765 -.47019 .47019 .80765 -448.49 583.81)" d="m975.58-205.96c0 9.8945-8.021 17.916-17.916 17.916-9.8945 0-17.916-8.021-17.916-17.916 0-9.8945 8.021-17.916 17.916-17.916 9.8945 0 17.916 8.0211 17.916 17.916z"/>
    <path id="path4694" stroke-width="7.2" style="color:#000000" transform="matrix(.80765 -.47019 .47019 .80765 -483.53 539.64)" d="m975.58-205.96c0 9.8945-8.021 17.916-17.916 17.916-9.8945 0-17.916-8.021-17.916-17.916 0-9.8945 8.021-17.916 17.916-17.916 9.8945 0 17.916 8.0211 17.916 17.916z"/>
    <path id="path4696" stroke-width="7.2" style="color:#000000" transform="matrix(.80765 -.47019 .47019 .80765 -519.63 496.38)" d="m975.58-205.96c0 9.8945-8.021 17.916-17.916 17.916-9.8945 0-17.916-8.021-17.916-17.916 0-9.8945 8.021-17.916 17.916-17.916 9.8945 0 17.916 8.0211 17.916 17.916z"/>
    <path id="path4698" stroke-width="7.2" style="color:#000000" transform="matrix(.80765 -.47019 .47019 .80765 -265.09 797.69)" d="m975.58-205.96c0 9.8945-8.021 17.916-17.916 17.916-9.8945 0-17.916-8.021-17.916-17.916 0-9.8945 8.021-17.916 17.916-17.916 9.8945 0 17.916 8.0211 17.916 17.916z"/>
    <path id="path4700" stroke-width="7.2" style="color:#000000" transform="matrix(.80765 -.47019 .47019 .80765 -300.29 753.66)" d="m975.58-205.96c0 9.8945-8.021 17.916-17.916 17.916-9.8945 0-17.916-8.021-17.916-17.916 0-9.8945 8.021-17.916 17.916-17.916 9.8945 0 17.916 8.0211 17.916 17.916z"/>
    <path id="path4702" stroke-width="7.2" style="color:#000000" transform="matrix(.80765 -.47019 .47019 .80765 -373.62 668.08)" d="m975.58-205.96c0 9.8945-8.021 17.916-17.916 17.916-9.8945 0-17.916-8.021-17.916-17.916 0-9.8945 8.021-17.916 17.916-17.916 9.8945 0 17.916 8.0211 17.916 17.916z"/>
    <path id="path4704" stroke-width="7.2" style="color:#000000" transform="matrix(.80765 -.47019 .47019 .80765 -337.21 711.09)" d="m975.58-205.96c0 9.8945-8.021 17.916-17.916 17.916-9.8945 0-17.916-8.021-17.916-17.916 0-9.8945 8.021-17.916 17.916-17.916 9.8945 0 17.916 8.0211 17.916 17.916z"/>
    <path id="path4754" stroke-width="7.2" style="color:#000000" transform="matrix(.91952 -.16689 .16689 .91952 -695.76 423.83)" d="m975.58-205.96c0 9.8945-8.021 17.916-17.916 17.916-9.8945 0-17.916-8.021-17.916-17.916 0-9.8945 8.021-17.916 17.916-17.916 9.8945 0 17.916 8.0211 17.916 17.916z"/>
    <path id="path4756" stroke-width="7.2" style="color:#000000" transform="matrix(.91952 -.16689 .16689 .91952 -715.96 371.22)" d="m975.58-205.96c0 9.8945-8.021 17.916-17.916 17.916-9.8945 0-17.916-8.021-17.916-17.916 0-9.8945 8.021-17.916 17.916-17.916 9.8945 0 17.916 8.0211 17.916 17.916z"/>
    <path id="path4758" stroke-width="7.2" style="color:#000000" transform="matrix(.91952 -.16689 .16689 .91952 -733.85 317.76)" d="m975.58-205.96c0 9.8945-8.021 17.916-17.916 17.916-9.8945 0-17.916-8.021-17.916-17.916 0-9.8945 8.021-17.916 17.916-17.916 9.8945 0 17.916 8.0211 17.916 17.916z"/>
    <path id="path4760" stroke-width="7.2" style="color:#000000" transform="matrix(.91952 -.16689 .16689 .91952 -753.06 264.78)" d="m975.58-205.96c0 9.8945-8.021 17.916-17.916 17.916-9.8945 0-17.916-8.021-17.916-17.916 0-9.8945 8.021-17.916 17.916-17.916 9.8945 0 17.916 8.0211 17.916 17.916z"/>
    <path id="path4762" stroke-width="7.2" style="color:#000000" transform="matrix(.91952 -.16689 .16689 .91952 -616.4 634.79)" d="m975.58-205.96c0 9.8945-8.021 17.916-17.916 17.916-9.8945 0-17.916-8.021-17.916-17.916 0-9.8945 8.021-17.916 17.916-17.916 9.8945 0 17.916 8.0211 17.916 17.916z"/>
    <path id="path4764" stroke-width="7.2" style="color:#000000" transform="matrix(.91952 -.16689 .16689 .91952 -634.5 581.4)" d="m975.58-205.96c0 9.8945-8.021 17.916-17.916 17.916-9.8945 0-17.916-8.021-17.916-17.916 0-9.8945 8.021-17.916 17.916-17.916 9.8945 0 17.916 8.0211 17.916 17.916z"/>
    <path id="path4766" stroke-width="7.2" style="color:#000000" transform="matrix(.91952 -.16689 .16689 .91952 -674.28 475.96)" d="m975.58-205.96c0 9.8945-8.021 17.916-17.916 17.916-9.8945 0-17.916-8.021-17.916-17.916 0-9.8945 8.021-17.916 17.916-17.916 9.8945 0 17.916 8.0211 17.916 17.916z"/>
    <path id="path4768" stroke-width="7.2" style="color:#000000" transform="matrix(.91952 -.16689 .16689 .91952 -654.7 528.8)" d="m975.58-205.96c0 9.8945-8.021 17.916-17.916 17.916-9.8945 0-17.916-8.021-17.916-17.916 0-9.8945 8.021-17.916 17.916-17.916 9.8945 0 17.916 8.0211 17.916 17.916z"/>
    <path id="path4770" stroke-width="7.2" style="color:#000000" transform="matrix(.87969 -.31547 .31547 .87969 -568.79 528.68)" d="m975.58-205.96c0 9.8945-8.021 17.916-17.916 17.916-9.8945 0-17.916-8.021-17.916-17.916 0-9.8945 8.021-17.916 17.916-17.916 9.8945 0 17.916 8.0211 17.916 17.916z"/>
    <path id="path4772" stroke-width="7.2" style="color:#000000" transform="matrix(.87969 -.31547 .31547 .87969 -597.35 480.1)" d="m975.58-205.96c0 9.8945-8.021 17.916-17.916 17.916-9.8945 0-17.916-8.021-17.916-17.916 0-9.8945 8.021-17.916 17.916-17.916 9.8945 0 17.916 8.0211 17.916 17.916z"/>
    <path id="path4774" stroke-width="7.2" style="color:#000000" transform="matrix(.87969 -.31547 .31547 .87969 -623.77 430.3)" d="m975.58-205.96c0 9.8945-8.021 17.916-17.916 17.916-9.8945 0-17.916-8.021-17.916-17.916 0-9.8945 8.021-17.916 17.916-17.916 9.8945 0 17.916 8.0211 17.916 17.916z"/>
    <path id="path4776" stroke-width="7.2" style="color:#000000" transform="matrix(.87969 -.31547 .31547 .87969 -651.41 381.19)" d="m975.58-205.96c0 9.8945-8.021 17.916-17.916 17.916-9.8945 0-17.916-8.021-17.916-17.916 0-9.8945 8.021-17.916 17.916-17.916 9.8945 0 17.916 8.0211 17.916 17.916z"/>
    <path id="path4778" stroke-width="7.2" style="color:#000000" transform="matrix(.87969 -.31547 .31547 .87969 -455.91 723.77)" d="m975.58-205.96c0 9.8945-8.021 17.916-17.916 17.916-9.8945 0-17.916-8.021-17.916-17.916 0-9.8945 8.021-17.916 17.916-17.916 9.8945 0 17.916 8.0211 17.916 17.916z"/>
    <path id="path4780" stroke-width="7.2" style="color:#000000" transform="matrix(.87969 -.31547 .31547 .87969 -482.52 674.07)" d="m975.58-205.96c0 9.8945-8.021 17.916-17.916 17.916-9.8945 0-17.916-8.021-17.916-17.916 0-9.8945 8.021-17.916 17.916-17.916 9.8945 0 17.916 8.0211 17.916 17.916z"/>
    <path id="path4782" stroke-width="7.2" style="color:#000000" transform="matrix(.87969 -.31547 .31547 .87969 -539.06 576.59)" d="m975.58-205.96c0 9.8945-8.021 17.916-17.916 17.916-9.8945 0-17.916-8.021-17.916-17.916 0-9.8945 8.021-17.916 17.916-17.916 9.8945 0 17.916 8.0211 17.916 17.916z"/>
    <path id="path4784" stroke-width="7.2" style="color:#000000" transform="matrix(.87969 -.31547 .31547 .87969 -511.08 625.5)" d="m975.58-205.96c0 9.8945-8.021 17.916-17.916 17.916-9.8945 0-17.916-8.021-17.916-17.916 0-9.8945 8.021-17.916 17.916-17.916 9.8945 0 17.916 8.0211 17.916 17.916z"/>
    <path id="path4786" stroke-width="7.2" style="color:#000000" transform="matrix(.71695 -.59947 .59947 .71695 -245.32 693.47)" d="m975.58-205.96c0 9.8945-8.021 17.916-17.916 17.916-9.8945 0-17.916-8.021-17.916-17.916 0-9.8945 8.021-17.916 17.916-17.916 9.8945 0 17.916 8.0211 17.916 17.916z"/>
    <path id="path4788" stroke-width="7.2" style="color:#000000" transform="matrix(.71695 -.59947 .59947 .71695 -288.88 657.72)" d="m975.58-205.96c0 9.8945-8.021 17.916-17.916 17.916-9.8945 0-17.916-8.021-17.916-17.916 0-9.8945 8.021-17.916 17.916-17.916 9.8945 0 17.916 8.0211 17.916 17.916z"/>
    <path id="path4790" stroke-width="7.2" style="color:#000000" transform="matrix(.71695 -.59947 .59947 .71695 -330.85 620.08)" d="m975.58-205.96c0 9.8945-8.021 17.916-17.916 17.916-9.8945 0-17.916-8.021-17.916-17.916 0-9.8945 8.021-17.916 17.916-17.916 9.8945 0 17.916 8.0211 17.916 17.916z"/>
    <path id="path4792" stroke-width="7.2" style="color:#000000" transform="matrix(.71695 -.59947 .59947 .71695 -373.72 583.51)" d="m975.58-205.96c0 9.8945-8.021 17.916-17.916 17.916-9.8945 0-17.916-8.021-17.916-17.916 0-9.8945 8.021-17.916 17.916-17.916 9.8945 0 17.916 8.0211 17.916 17.916z"/>
    <path id="path4794" stroke-width="7.2" style="color:#000000" transform="matrix(.71695 -.59947 .59947 .71695 -72.081 837.66)" d="m975.58-205.96c0 9.8945-8.021 17.916-17.916 17.916-9.8945 0-17.916-8.021-17.916-17.916 0-9.8945 8.021-17.916 17.916-17.916 9.8945 0 17.916 8.0211 17.916 17.916z"/>
    <path id="path4796" stroke-width="7.2" style="color:#000000" transform="matrix(.71695 -.59947 .59947 .71695 -114.19 800.19)" d="m975.58-205.96c0 9.8945-8.021 17.916-17.916 17.916-9.8945 0-17.916-8.021-17.916-17.916 0-9.8945 8.021-17.916 17.916-17.916 9.8945 0 17.916 8.0211 17.916 17.916z"/>
    <path id="path4798" stroke-width="7.2" style="color:#000000" transform="matrix(.71695 -.59947 .59947 .71695 -200.89 728.18)" d="m975.58-205.96c0 9.8945-8.021 17.916-17.916 17.916-9.8945 0-17.916-8.021-17.916-17.916 0-9.8945 8.021-17.916 17.916-17.916 9.8945 0 17.916 8.0211 17.916 17.916z"/>
    <path id="path4800" stroke-width="7.2" style="color:#000000" transform="matrix(.71695 -.59947 .59947 .71695 -157.75 764.44)" d="m975.58-205.96c0 9.8945-8.021 17.916-17.916 17.916-9.8945 0-17.916-8.021-17.916-17.916 0-9.8945 8.021-17.916 17.916-17.916 9.8945 0 17.916 8.0211 17.916 17.916z"/>
    <path id="path4802" stroke-width="7.2" style="color:#000000" transform="matrix(.93454 -.0021705 .0021705 .93454 -806.93 291.21)" d="m975.58-205.96c0 9.8945-8.021 17.916-17.916 17.916-9.8945 0-17.916-8.021-17.916-17.916 0-9.8945 8.021-17.916 17.916-17.916 9.8945 0 17.916 8.0211 17.916 17.916z"/>
    <path id="path4804" stroke-width="7.2" style="color:#000000" transform="matrix(.93454 -.0021705 .0021705 .93454 -817.55 235.87)" d="m975.58-205.96c0 9.8945-8.021 17.916-17.916 17.916-9.8945 0-17.916-8.021-17.916-17.916 0-9.8945 8.021-17.916 17.916-17.916 9.8945 0 17.916 8.0211 17.916 17.916z"/>
    <path id="path4806" stroke-width="7.2" style="color:#000000" transform="matrix(.93454 -.0021705 .0021705 .93454 -825.73 180.09)" d="m975.58-205.96c0 9.8945-8.021 17.916-17.916 17.916-9.8945 0-17.916-8.021-17.916-17.916 0-9.8945 8.021-17.916 17.916-17.916 9.8945 0 17.916 8.0211 17.916 17.916z"/>
    <path id="path4808" stroke-width="7.2" style="color:#000000" transform="matrix(.93454 -.0021705 .0021705 .93454 -835.3 124.56)" d="m975.58-205.96c0 9.8945-8.021 17.916-17.916 17.916-9.8945 0-17.916-8.021-17.916-17.916 0-9.8945 8.021-17.916 17.916-17.916 9.8945 0 17.916 8.0211 17.916 17.916z"/>
    <path id="path4810" stroke-width="7.2" style="color:#000000" transform="matrix(.93454 -.0021705 .0021705 .93454 -766.01 512.86)" d="m975.58-205.96c0 9.8945-8.021 17.916-17.916 17.916-9.8945 0-17.916-8.021-17.916-17.916 0-9.8945 8.021-17.916 17.916-17.916 9.8945 0 17.916 8.0211 17.916 17.916z"/>
    <path id="path4812" stroke-width="7.2" style="color:#000000" transform="matrix(.93454 -.0021705 .0021705 .93454 -774.41 457.12)" d="m975.58-205.96c0 9.8945-8.021 17.916-17.916 17.916-9.8945 0-17.916-8.021-17.916-17.916 0-9.8945 8.021-17.916 17.916-17.916 9.8945 0 17.916 8.0211 17.916 17.916z"/>
    <path id="path4814" stroke-width="7.2" style="color:#000000" transform="matrix(.93454 -.0021705 .0021705 .93454 -794.99 346.32)" d="m975.58-205.96c0 9.8945-8.021 17.916-17.916 17.916-9.8945 0-17.916-8.021-17.916-17.916 0-9.8945 8.021-17.916 17.916-17.916 9.8945 0 17.916 8.0211 17.916 17.916z"/>
    <path id="path4816" stroke-width="7.2" style="color:#000000" transform="matrix(.93454 -.0021705 .0021705 .93454 -785.03 401.78)" d="m975.58-205.96c0 9.8945-8.021 17.916-17.916 17.916-9.8945 0-17.916-8.021-17.916-17.916 0-9.8945 8.021-17.916 17.916-17.916 9.8945 0 17.916 8.0211 17.916 17.916z"/>
    <path id="path5338" stroke-linejoin="round" d="m-163.43 411.12v-614.29c0-123.04 196.96-133.33 196.96-9.6864" stroke-linecap="round" stroke-width="66.87" fill="none"/>
  </g>
  <metadata>
    <rdf:RDF>
      <cc:Work>
        <dc:format>image/svg+xml</dc:format>
        <dc:type rdf:resource="http://purl.org/dc/dcmitype/StillImage"/>
        <cc:license rdf:resource="http://creativecommons.org/licenses/publicdomain/"/>
        <dc:publisher>
          <cc:Agent rdf:about="http://openclipart.org/">
            <dc:title>Openclipart</dc:title>
          </cc:Agent>
        </dc:publisher>
        <dc:title>Shower1</dc:title>
        <dc:date>2013-08-18T18:58:44</dc:date>
        <dc:description/>
        <dc:source>http://openclipart.org/detail/181942/shower1-by-cyberscooty-181942</dc:source>
        <dc:creator>
          <cc:Agent>
            <dc:title>cyberscooty</dc:title>
          </cc:Agent>
        </dc:creator>
        <dc:subject>
          <rdf:Bag>
            <rdf:li>bath</rdf:li>
            <rdf:li>bathroom</rdf:li>
            <rdf:li>douche</rdf:li>
            <rdf:li>panneau</rdf:li>
            <rdf:li>salle de bain</rdf:li>
            <rdf:li>sdb</rdf:li>
            <rdf:li>shower</rdf:li>
            <rdf:li>sign</rdf:li>
          </rdf:Bag>
        </dc:subject>
      </cc:Work>
      <cc:License rdf:about="http://creativecommons.org/licenses/publicdomain/">
        <cc:permits rdf:resource="http://creativecommons.org/ns#Reproduction"/>
        <cc:permits rdf:resource="http://creativecommons.org/ns#Distribution"/>
        <cc:permits rdf:resource="http://creativecommons.org/ns#DerivativeWorks"/>
      </cc:License>
    </rdf:RDF>
  </metadata>
</svg>
