<?xml version="1.0"?>
<svg xmlns:rdf="http://www.w3.org/1999/02/22-rdf-syntax-ns#" xmlns="http://www.w3.org/2000/svg" xmlns:cc="http://creativecommons.org/ns#" xmlns:dc="http://purl.org/dc/elements/1.1/" xmlns:svg="http://www.w3.org/2000/svg" id="svg2" viewBox="0 0 207.89 388.77" version="1.1">
  <title id="title2814">Sad Penguin</title>
  <g id="layer1" transform="translate(-211.24 -139.44)">
    <path id="path2830" d="m215.53 527.13c-2.7068-1.8506-3.7918-3.6202-4.1682-6.7979-0.27493-2.3213-0.14446-3.1098 0.71003-4.291 0.57575-0.79591 1.6036-2.777 2.2841-4.4025 1.2218-2.9184 4.4556-9.7197 5.3653-11.284 1.1088-1.9067 5.9788-13.23 5.974-13.889-0.002-0.39864 0.33-1.4867 0.73981-2.418 1.0326-2.3466 2.0117-8.6202 2.2163-14.201 0.0945-2.5778 0.33111-8.9183 0.52582-14.09 0.30705-8.1554 0.18207-10.758-0.94175-19.613-1.0374-8.1736-1.2154-11.281-0.89263-15.583 0.22172-2.9554 0.68212-10.814 1.0231-17.463 0.34511-6.7302 1.0981-14.829 1.6986-18.269 0.59325-3.3986 1.1464-6.6629 1.2292-7.254 0.68374-4.8806 1.1301-7.0754 2.2949-11.284 0.73614-2.6598 1.6707-6.2868 2.0769-8.06 1.5745-6.8739 3.4669-11.952 9.9115-26.598 1.2354-2.8076 2.915-6.6764 3.7324-8.5974 1.4211-3.3396 4.3505-9.5866 9.4796-20.215 1.3008-2.6956 2.3651-5.0579 2.3651-5.2497 0-0.19178 0.57716-1.263 1.2826-2.3804 2.5016-3.9628 9.6942-23.912 15.049-41.74 0.71016-2.3643 2.2705-7.0247 3.4675-10.356 1.8875-5.254 3.6619-13.407 4.5871-21.078 0.54594-4.526 3.1955-18.706 3.8153-20.419 1.6933-4.679 2.716-7.2749 2.9638-7.5231 0.14778-0.14799 0.73177-1.1152 1.2978-2.1493 0.56601-1.0342 1.7016-3.0893 2.5235-4.5669 1.9682-3.5385 6.9397-8.7004 10.955-11.375 5.3286-3.5488 13.618-6.4389 22.147-7.7215 4.0736-0.6126 7.9986-1.2139 8.7221-1.3361 0.72352-0.12228 2.7788-0.35964 4.5673-0.52746 7.2813-0.68324 10.543-1.846 21.029-7.497 2.0212-1.0892 5.9191-2.3928 10.209-3.4143 6.1959-1.4753 7.8706-1.6566 15.621-1.6911 8.7396-0.0389 16.146 0.82398 20.619 2.4021 2.6681 0.94136 8.3398 4.7662 8.7839 5.9237 0.70588 1.8395 0.27629 3.4053-1.378 5.0227-0.94271 0.92167-2.2658 1.6758-2.9402 1.6758-2.5889 0-17.187 4.1248-20.146 5.6924-0.78443 0.41556-1.7919 0.75556-2.2389 0.75556-0.44695 0-0.89325 0.18135-0.99176 0.40301-0.0985 0.22166-1.7508 1.198-3.6718 2.1696s-4.9344 2.6614-6.6966 3.755c-5.1781 3.2138-14.259 12.157-14.259 14.042 0 0.24256-0.48716 1.0603-1.0826 1.8173-1.4733 1.873-4.2908 7.2942-4.2908 8.256 0 0.4295-0.45698 1.7953-1.0155 3.0351-0.55853 1.2398-1.4389 3.5841-1.9564 5.2095s-1.1674 3.4053-1.4443 3.9553c-0.69253 1.3757-1.8107 7.3213-3.6521 19.419-0.62976 4.1375-1.1419 8.4714-1.1381 9.6308 0.0111 3.3802 0.67624 8.5566 1.2341 9.6039 0.55205 1.0364 2.2322 7.0118 3.2035 11.393 0.32759 1.4777 0.82919 2.9774 1.1147 3.3327 0.28549 0.3553 0.60908 1.2016 0.7191 1.8807 0.25281 1.5605 1.7412 6.8839 2.2231 7.9513 0.20015 0.4433 0.66532 2.2568 1.0337 4.03 0.89274 4.2969 1.5466 6.9255 2.6066 10.478 0.48497 1.6254 1.2046 4.4062 1.5992 6.1793 0.3946 1.7732 1.4825 6.1804 2.4175 9.7938 0.93503 3.6134 1.7929 7.2404 1.9063 8.06 0.11344 0.81961 0.5549 3.9082 0.98103 6.8635 0.42612 2.9553 0.81684 6.3266 0.86826 7.4916 0.0514 1.165 0.41446 2.8576 0.80677 3.7613 0.39231 0.90369 0.9813 3.2148 1.3089 5.1358 1.6265 9.5379 2.7185 17.368 2.9974 21.493 0.95356 14.103 1.2916 38.541 0.66138 47.807-0.32969 4.8474-2.0416 11.41-3.9106 14.992-0.40512 0.77641-0.73807 1.8052-0.73989 2.2862-0.002 0.481-0.36602 1.1756-0.80932 1.5434-0.4433 0.36792-0.806 0.90646-0.806 1.1968 0 1.0877-2.8412 6.1614-5.047 9.0126-5.431 7.0202-6.9359 10.808-9.393 23.643-2.1006 10.972-2.0827 24.605 0.0418 31.927 1.4789 5.0967 4.8105 8.6053 8.699 9.1611 2.786 0.39827 7.0233 2.1666 8.413 3.5109 1.3289 1.2855 2.5102 3.4035 3.1102 5.5766 0.47291 1.7128 0.40718 2.1628-0.43957 3.0095-2.7066 2.7066-10.883 4.4196-20.602 4.3165-2.1218-0.0225-10.87 0.1076-19.44 0.28913-26.503 0.56135-26.588 0.55934-29.016-0.68725l-2.1493-1.1033-3.224 1.5466c-4.4955 2.1566-7.828 2.6414-18.299 2.6618-5.0078 0.01-11.765 0.24077-15.016 0.51336-14.504 1.2161-20.756 1.5912-31.165 1.8698-4.433 0.11865-10.841 0.36964-14.239 0.55776-5.878 0.32535-6.2687 0.28096-8.0106-0.91001zm37.162-20.611c1.9952-1.6173 3.8317-2.9406 4.0811-2.9406 0.24939 0 0.87479-0.46558 1.3898-1.0346 1.3881-1.5339 8.5985-4.8094 13.201-5.997 3.1532-0.81358 11.978-0.82639 12.248-0.0177 0.11024 0.33074 0.53358 0.60135 0.94075 0.60135 1.0339 0 6.288 4.3382 10.51 8.6781 1.9518 2.0062 4.1485 3.8756 4.8815 4.1543 3.2957 1.253 6.718-0.21318 17.362-7.4385 5.7755-3.9206 6.9511-4.6102 9.4034-5.5165 7.0229-2.5953 12.406-1.4792 20.443 4.2387 1.3434 0.95572 3.1261 1.9975 3.9614 2.3151 1.4327 0.54472 1.4968 0.50828 1.1318-0.64326-0.64491-2.0342-1.9012-7.5197-2.31-10.087-0.63746-4.0027-0.40762-23.154 0.30307-25.255 0.70295-2.0776 2.0297-9.3772 2.5393-13.971 0.18032-1.6254 0.70991-3.5436 1.1769-4.2625 0.46696-0.71895 1.2978-3.0161 1.8464-5.1047 3.6602-13.936 4.0078-15.441 5.2825-22.873 0.22812-1.3299 0.79751-4.5942 1.2653-7.254 1.812-10.303 2.1924-13.068 3.3309-24.216 1.073-10.507 1.3158-45.652 0.35605-51.548-0.33675-2.0687-0.86971-6.0292-1.1844-8.801-0.66699-5.8756-2.2224-13.801-3.7562-19.14-0.59434-2.0687-1.2133-4.4867-1.3755-5.3733-0.30118-1.6463-2.2406-9.0459-4.0138-15.314-0.54341-1.921-1.1026-4.0972-1.2427-4.836-0.14007-0.73884-1.0322-3.8822-1.9825-6.9854-0.95029-3.1031-2.483-8.4633-3.4061-11.911-0.92307-3.4482-1.8227-6.4136-1.9992-6.5897-0.3069-0.30635-7.4507 4.207-8.0078 5.0592-0.14778 0.22603-1.0521 0.58094-2.0097 0.78867-0.95755 0.20773-3.5644 1.568-5.793 3.0228s-4.1712 2.6452-4.317 2.6452c-0.14574 0-1.4746 0.83204-2.9529 1.849-1.4784 1.0169-3.1047 1.9969-3.614 2.1776-0.84745 0.30074-2.9406 3.0042-7.9072 10.213-1.0181 1.4777-2.5663 4.1375-3.4406 5.9107-1.4893 3.0208-4.7473 12.116-5.197 14.508-0.75231 4.0018-2.8696 20.18-3.1996 24.449-0.3572 4.62-1.8648 20.177-2.3954 24.717-0.86885 7.436-1.2987 13.005-1.2028 15.583 0.12222 3.2847-1.219 11.379-2.5376 15.314-0.59414 1.7732-1.0862 3.636-1.0935 4.1396-0.0181 1.2576-2.7838 9.5419-4.7469 14.219-1.6254 3.8726-2.5795 5.659-6.983 13.075-3.851 6.486-10.468 14.114-15.917 18.349-0.86507 0.67236-2.1434 1.7513-2.8408 2.3976-0.69736 0.64629-2.6494 1.7025-4.3378 2.3471s-3.4326 1.3423-3.8759 1.5504c-1.2644 0.59371-3.9376-0.0792-5.6202-1.4148l-1.5359-1.2192 2.2374-9.2588c1.2306-5.0924 2.3734-10.951 2.5396-13.02 0.16618-2.0687 0.53592-4.6076 0.82166-5.642 0.78144-2.8289 2.6004-15.089 3.2103-21.638 0.81016-8.6993-0.42739-9.4683-1.4008-0.87052-0.054 0.47624-0.26117 1.5159-0.46055 2.3103-0.89426 3.563-2.1194 11.626-2.7835 18.317-0.38098 3.8391-2.3948 13.191-3.1821 14.777-0.36678 0.73883-0.95938 2.6732-1.3169 4.2987-0.35751 1.6254-0.87125 3.5598-1.1416 4.2987-0.27039 0.73884-0.62939 2.5385-0.79775 3.9993s-0.408 2.8208-0.53253 3.0223c-0.35337 0.57177-0.33874 44.818 0.0165 49.936 0.17436 2.512 0.58195 7.4689 0.90574 11.015 0.32379 3.5464 0.54915 7.2237 0.50078 8.1717-0.0848 1.6631-0.0355 1.7051 1.4051 1.1942 0.82113-0.29121 3.1254-1.8527 5.1206-3.47zm100.89-177.85c-0.38557-0.46457-0.43779-0.806-0.12329-0.806 0.3001 0 0.68482 0.3627 0.85494 0.806 0.1701 0.4433 0.22558 0.806 0.12327 0.806-0.10229 0-0.48702-0.3627-0.85492-0.806zm-32.55-131.75c1.207-0.84074 3.2342-3.0744 4.5048-4.9638 1.9355-2.878 2.2841-3.7912 2.1493-5.6302-0.13689-1.8676-0.42147-2.3253-1.9074-3.0675-2.3236-1.1607-4.2974-0.6703-7.0491 1.7514-2.5655 2.2579-2.6938 2.6137-0.94226 2.6137 2.5998 0 3.106 2.5454 0.90277 4.5393-0.82874 0.74999-1.2326 0.80389-2.1889 0.29213-0.93463-0.50019-1.1292-0.99965-0.9586-2.4608 0.11771-1.0083 0.17867-1.8333 0.13547-1.8333-0.33347 0-2.3923 2.0988-2.3923 2.4387 0 0.23759-0.33578 0.81373-0.7462 1.2803-0.4104 0.46657-0.90623 1.6024-1.1018 2.524-0.30668 1.445-0.11504 1.8782 1.3916 3.1459 1.4572 1.2261 2.101 1.4228 3.8776 1.1845 1.1717-0.15715 3.1179-0.97362 4.3249-1.8144zm32.524-9.1906c3.6778-3.6488 7.3652-6.9851 8.1944-7.4138 0.82913-0.42876 1.5075-0.98569 1.5075-1.2376 0-0.85142 9.9212-7.9169 12.493-8.897 1.4038-0.53497 2.5523-1.1816 2.5523-1.437 0-0.25539 0.54405-0.47203 1.209-0.48143 0.66495-0.009 1.6693-0.36544 2.2318-0.79121 0.88298-0.66829 0.9084-0.81804 0.18589-1.0953-1.4303-0.54885-12.311 4.0922-14.677 6.2604-0.61011 0.55911-1.294 1.0166-1.5197 1.0166-0.22571 0-1.3123 0.96721-2.4146 2.1493s-2.2924 2.1493-2.6446 2.1493c-0.35225 0-0.6409 0.18134-0.64147 0.40299-0.00054 0.22165-1.237 1.2454-2.7476 2.275-2.9379 2.0024-7.9919 7.2073-8.0073 8.2463-0.005 0.34559-0.5853 1.1744-1.2893 1.8418-1.2051 1.1424-4.0818 6.071-4.0688 6.971 0.003 0.2271 0.66823-0.42815 1.4777-1.4561 0.80944-1.028 4.4808-4.8544 8.1585-8.5032zm-27.374-47.628c0-0.13032 0.24179-0.38639 0.53733-0.56904 0.29553-0.18265 0.53734-0.076 0.53734 0.23695 0 0.31298-0.24181 0.56905-0.53734 0.56905-0.29554 0-0.53733-0.10663-0.53733-0.23696z"/>
  </g>
  <metadata>
    <rdf:RDF>
      <cc:Work>
        <dc:format>image/svg+xml</dc:format>
        <dc:type rdf:resource="http://purl.org/dc/dcmitype/StillImage"/>
        <cc:license rdf:resource="http://creativecommons.org/licenses/publicdomain/"/>
        <dc:publisher>
          <cc:Agent rdf:about="http://openclipart.org/">
            <dc:title>Openclipart</dc:title>
          </cc:Agent>
        </dc:publisher>
        <dc:title>Sad Penguin</dc:title>
        <dc:date>2011-05-21T10:15:43</dc:date>
        <dc:description>A sad looking penguin. I drew this penguin as part of a series of penguins for use in a company logo. Unsurprisingly, this little guy was not chosen due to his sad appearance.</dc:description>
        <dc:source>http://openclipart.org/detail/139717/sad-penguin-by-corenominal</dc:source>
        <dc:creator>
          <cc:Agent>
            <dc:title>corenominal</dc:title>
          </cc:Agent>
        </dc:creator>
        <dc:subject>
          <rdf:Bag>
            <rdf:li>animal</rdf:li>
            <rdf:li>bird</rdf:li>
            <rdf:li>clip art</rdf:li>
            <rdf:li>clipart</rdf:li>
            <rdf:li>penguin</rdf:li>
            <rdf:li>sad</rdf:li>
          </rdf:Bag>
        </dc:subject>
      </cc:Work>
      <cc:License rdf:about="http://creativecommons.org/licenses/publicdomain/">
        <cc:permits rdf:resource="http://creativecommons.org/ns#Reproduction"/>
        <cc:permits rdf:resource="http://creativecommons.org/ns#Distribution"/>
        <cc:permits rdf:resource="http://creativecommons.org/ns#DerivativeWorks"/>
      </cc:License>
    </rdf:RDF>
  </metadata>
</svg>
