<?xml version="1.0" encoding="UTF-8" standalone="no"?>
<!-- Created with Inkscape (http://www.inkscape.org/) -->

<svg
   xmlns:dc="http://purl.org/dc/elements/1.1/"
   xmlns:cc="http://creativecommons.org/ns#"
   xmlns:rdf="http://www.w3.org/1999/02/22-rdf-syntax-ns#"
   xmlns:svg="http://www.w3.org/2000/svg"
   xmlns="http://www.w3.org/2000/svg"
   xmlns:sodipodi="http://sodipodi.sourceforge.net/DTD/sodipodi-0.dtd"
   xmlns:inkscape="http://www.inkscape.org/namespaces/inkscape"
   id="svg3228"
   version="1.1"
   inkscape:version="0.48.0 r9654"
   width="700"
   height="700"
   xml:space="preserve"
   sodipodi:docname="gats.pdf"><metadata
     id="metadata3234"><rdf:RDF><cc:Work
         rdf:about=""><dc:format>image/svg+xml</dc:format><dc:type
           rdf:resource="http://purl.org/dc/dcmitype/StillImage" /><dc:title></dc:title></cc:Work></rdf:RDF></metadata><defs
     id="defs3232"><clipPath
       clipPathUnits="userSpaceOnUse"
       id="clipPath3242"><path
         d="m 0,0 1190.551,0 0,841.89 L 0,841.89 0,0 z"
         id="path3244"
         inkscape:connector-curvature="0" /></clipPath></defs><sodipodi:namedview
     pagecolor="#ffffff"
     bordercolor="#666666"
     borderopacity="1"
     objecttolerance="10"
     gridtolerance="10"
     guidetolerance="10"
     inkscape:pageopacity="0"
     inkscape:pageshadow="2"
     inkscape:window-width="1276"
     inkscape:window-height="938"
     id="namedview3230"
     showgrid="false"
     inkscape:zoom="1.0128571"
     inkscape:cx="350"
     inkscape:cy="350"
     inkscape:window-x="62"
     inkscape:window-y="82"
     inkscape:window-maximized="0"
     inkscape:current-layer="g3236" /><g
     id="g3236"
     inkscape:groupmode="layer"
     inkscape:label="gats"
     transform="matrix(1.25,0,0,-1.25,0,699.99995)"><g
       id="g3246"
       transform="matrix(0.88815387,0,0,0.88815387,456.77682,214.39209)"><path
         d="m 0,0 c -4.942,32.123 -20.005,60.481 -24.658,69.321 -4.652,8.84 -10.7,26.519 -9.002,51.363 1.699,24.843 -9.608,96.585 -67.298,142.644 -57.69,46.059 -110.997,60.386 -118.172,65.134 -7.773,5.143 -39.08,19.54 -46.471,22.983 -7.391,3.444 -37.273,7.258 -50.677,8.968 -13.404,1.71 -27.537,-3.105 -32.96,-3.148 -5.423,-0.042 -35.984,9.347 -40.636,9.347 -4.652,0 -1.861,-4.652 -1.396,-7.444 0.466,-2.791 10.277,-21.046 10.277,-21.046 0,0 -10.742,0.11 -11.207,-2.216 -0.465,-2.326 12.769,-12.274 12.769,-12.274 0,0 -6.256,-20.293 -6.581,-24.874 -0.326,-4.582 5.908,-20.077 6.839,-24.264 0.93,-4.187 0,-13.958 0,-13.958 l 4.622,-4.716 c 0,0 7.939,-5.519 9.8,-6.449 1.861,-0.931 8.132,0.126 8.132,0.126 4.875,-1.734 20.713,6.853 29.088,11.97 8.374,5.118 20.005,6.513 23.361,6.539 3.355,0.024 6.414,-10.727 6.274,-14.241 -0.141,-3.516 2.932,-16.491 3.862,-20.678 0.931,-4.187 -4.332,-12.528 -4.332,-12.528 -4.798,2.359 -11.486,4.619 -15.673,6.015 -4.188,1.396 -17.214,10.7 -20.936,11.631 -3.722,0.931 -6.979,1.396 -13.585,3.216 -6.606,1.821 -28.287,6.554 -32.942,5.95 -4.654,-0.603 -16.746,-7.306 -18.451,-14.149 -1.704,-6.845 7.753,-13.627 11.475,-15.023 3.722,-1.395 15.353,1.396 19.447,0.973 4.095,-0.423 6.71,-3.791 6.71,-3.791 14.526,-0.491 21.298,-9.278 29.672,-16.722 8.374,-7.444 47.92,-29.31 53.503,-30.241 5.583,-0.931 20.933,2.981 20.933,2.981 0,0 4.655,-18.799 6.516,-29.964 1.861,-11.166 -6.048,-47.456 -6.978,-54.434 -0.931,-6.979 -1.163,-15.818 -2.908,-18.145 -1.423,-1.898 -2.908,-1.512 -10.628,-2.678 -9.245,-1.396 -19.409,-15.013 -19.031,-21.049 0.465,-7.444 8.536,-9.667 12.137,-9.667 l 12.753,0 c 5.583,0 21.401,2.223 21.401,2.223 l 25.124,-2.223 151.721,0 c 15.146,0 30.171,-30.879 32.748,-54.071 2.791,-25.123 -14.669,-90.658 -25.589,-113.986 -10.235,-21.866 -32.824,-46.467 -54.433,-51.176 -36.289,-7.909 -60.947,15.818 -79.092,12.562 -16.51,-2.964 -13.027,-21.401 -5.583,-28.846 6.869,-6.869 66.112,-27.327 105.145,-14.887 42.337,13.492 67.63,62.931 81.418,102.818 C -0.465,-74.438 5.583,-36.289 0,0 m -198.832,69.434 c -8.839,-3.256 -16.283,-8.374 -21.866,-6.979 -5.583,1.396 -7.909,-2.791 -12.562,-1.395 0,0 4.653,13.957 9.297,21.925 4.643,7.969 10.918,33.922 10.918,33.922 1.606,-9.753 10.957,-25.141 17.935,-34.446 6.979,-9.305 5.118,-9.771 -3.722,-13.027"
         style="fill:#000000;fill-opacity:1;fill-rule:nonzero;stroke:none"
         id="path3248"
         inkscape:connector-curvature="0" /></g></g></svg>