<?xml version="1.0"?>
<svg xmlns:rdf="http://www.w3.org/1999/02/22-rdf-syntax-ns#" xmlns="http://www.w3.org/2000/svg" xmlns:cc="http://web.resource.org/cc/" xmlns:xlink="http://www.w3.org/1999/xlink" xmlns:dc="http://purl.org/dc/elements/1.1/" xmlns:svg="http://www.w3.org/2000/svg" id="svg2" viewBox="0 0 514.59 689.93" version="1.1">
  <g id="layer3" transform="translate(-130.44 -124.47)" display="none">
    <path id="path3301" opacity=".6" d="m109.83 190.6c-1.0624-1.0327-11.941 7.5304 0.17332 28.903 6.8153 12.024 18.994 27.719 19.827 36.97 2.1775 24.198 4.5777 20.358 11.342 35.108 9.2785 20.232-13.734 16.312-21.169 33.637 6.0756 0.92359 10.618-0.91301 15.714 0-1.617 4.1047-5.5307 3.4769-8.6581 7.2295 5.2879 6.5673 16.009 7.5404 16.046 15.123 0.0845 17.271-24.236 24.298-25.959 60.505 5.6648-3.3286 9.719-8.4838 15.714-10-4.8587 6.4462-4.8203 14.304 1.4286 21.429 3.9214-4.0661 3.1119-8.0841 7.1429-11.429 1.9152 13.986 11.843 15.37 19.582 18.903 2.729 1.2461 6.0103 2.1756 8.9898 2.5254 9.1885 1.0788 11.823 9.3527 30 7.1429 0.66026 2.3327-4.251 4.3649-5.7143 5.7143 3.9646 2.4418 9.3986 2.1482 12.857 4.2857 3.0934 1.9118 8.4946 4.9357 8.5714 8.5714-16.442-4.8708-41.065 14.833-46.046 51.342-3.5417 25.958 11.918 16.535 17.301 19.827-0.92367 5.6232-6.6114 12.463 0.75018 17.648 4.0658 2.8634 21.059 4.2605 26.566 8.3263 9.8053 7.2388 27.47-6.0742 36.061-9.3365 24.607 3.3348 34.239-15.986 35.699-40.158 2.7822-3.2598 8.2727-15.157 11.097-11.934 14.21 16.22 17.901 41.2 14.799 61.955-2.4109 16.131-8.4096 14.758-13.37 33.759-12.144-2.7774-44.693-19.515-65.591-8.7935-42.121 21.61-21.78 81.597 21.305 101.65-5.4368 3.4305-17.442 5.0431-21.429 0-13.326-16.857-40.262-1.6549-55.714 5.3571-8.5988 3.9021-4.8637 35.848 3.9286 47.5 5.4701 7.249 21.257 8.258 33.571 6.4286 6.0696-0.90173 13.304 8.8689 19.286 7.5 9.5266-2.1802 18.21-6.9631 23.214-16.071 5.9316 1.9376-1.2534 11.881 7.1428 16.429 6.8249 3.6968 20.573 0.78004 25.714-2.8572 7.5333 7.0011 22.694 16.893 45.357 2.8571 0.11949 4.1453-6.1112 11.362 16.071 17.143 5.2982 1.3807 20.012 0.88034 27.143-2.8571 2.0442-1.0714 2.7333-3.4029 2.8571-7.1429 3.956 1.5824 13.703 6.4146 27.143 1.4286 9.2766-3.4414 19.028 4.3911 28.214 0.71428 7.643-3.0593 19.708-15.491 26.071-20.714 8.2284-6.7542 25.935-12.28 27.143-22.857 0.48624-4.258-8.0131-8.424-15.714-13.929 32.711-8.9119 107.71 0.74187 64.286 38.929-13.766 12.106-39.987 20.162-30 52.143 3.5865 11.485 17.449 16.281 28.571 18.571 32.925 6.7811 50.009-12.468 62.857-41.429 11.437-25.782 19.517-57.04-26.071-94.643-22.173-18.289-95.183-7.257-113.93-2.5-5.2264-9.5977 9.6851-24.07 7.1987-36.698-4.1152-20.902-27.617-58.232-39.342-70.444-3.2783-3.4148-13.807-8.508-17.77-11.097-9.1205-11.485-28.924-55.752-42.684-80.584-7.774-14.029-19.542-30.141-34.87-38.824-7.6875-4.3548-14.671-11.365-29.676-18.066 47.288 2.1635 85.317-21.817 105.97-46.061-14.809 10.23-48.013 5.4233 12.605-19.653-2.8381-13.702-23.183-21.811-35.714-30 3.7935-5.8301 10.669-3.592 17.143-5.7143-12.278-14.996-49.607-18.069-58.16-33.709-8.0857-14.784-6.285-39.814-17.799-59.653-11.257-19.396-18.119-42.966-29.827-62.092-4.4751-7.3105-20.457-27.965-24.214-27.403-5.6894 0.85201-11.634 16.464-14.286 25.714-2.9168 10.177-6.7124 28.163-5.2592 41.819 1.9311 18.148-1.4432 20.123-1.6385 22.127-0.91765 9.4138 2.4566 20.532-19.574 8.4848-4.8883-2.6731-11.915 0.25788-17.814 3.283 2.3683 1.0109 5.3818 2.179 7.9005 4.2783-9.8195 5.3223-13.18 9.1331-23.615 11.436-2.2537 0.49737 1.3967-5.0953 0.33176-7.1429-20.039 7.9327-38.525-7.1743-51.602-14.459-10.06-5.6041-12.363-17.218-21.587-24.112-3.5576-2.6592-11.79-6.3492-15.888-10.332z" stroke="#000" stroke-width="10" fill="none"/>
  </g>
  <g id="layer2" transform="translate(-130.44 -124.47)" fill-rule="evenodd">
    <path id="path3399" fill="#162d50" d="m304.27 124.47c-0.3159 0.009-0.66345 0.0387-1.0312 0.0937-3.5081 0.52536-5.6268 2.6768-7.4062 4.875-1.7795 2.1982-3.2583 4.7707-4.625 7.5625-2.7334 5.5836-4.9507 11.983-6.3438 16.844-3.0302 10.573-7.0052 28.692-5.4062 43.719 0.93112 8.7501 0.54108 13.261 0.0625 15.562-0.47858 2.3012-1.3668 1.9516-1.7188 5.5625-0.26734 2.7425-0.21046 5.2753-0.34375 7.125-0.11632 1.6142-0.40414 2.1446-0.34375 2.1562-0.12762-0.0361-0.15122-0.0425-0.78125-0.15625-1.8231-0.32908-5.448-1.6802-10.719-4.5625-4.004-2.1895-8.384-1.8811-12.156-0.9375-3.7722 0.94363-7.2605 2.6063-10.344 4.1875l-9.4688 4.8438 9.5 4.0625c-2.5975 1.6042-5.3988 3.2178-8.0312 4.3125-0.0731-0.75821-0.15114-1.5601-0.65625-2.5312l-2.0938-4-4.1875 1.6562c-8.5204 3.3729-16.539 1.9421-24.625-1.4688-8.0856-3.4109-15.74-8.8175-22.688-12.688-3.889-2.1664-6.4809-5.6253-9.4062-10-2.9254-4.3747-6.0945-9.6162-11.625-13.75-2.3719-1.7729-5.2939-3.2997-8.2188-5s-5.7857-3.5436-7.1875-4.9062c-1.4501-1.4095-3.2105-1.5837-4.2188-1.5s-1.625 0.35975-2.1875 0.625c-1.125 0.5305-1.9363 1.1768-2.75 2-1.6274 1.6465-3.1097 4.0091-4 7.125-1.7806 6.2317-1.015 15.193 5.5 26.688 3.5774 6.3115 8.3212 13.243 12.219 19.656 3.8976 6.4134 6.725 12.604 6.9688 15.312 1.1056 12.286 2.3118 18.033 4.3438 22.656 2.0319 4.6234 4.2174 7.041 7.4375 14.062 2.0187 4.4017 1.8808 6.4561 1.4688 7.625-0.41204 1.1689-1.5749 2.4103-4.0312 4.0625-4.9128 3.3045-14.148 7.4001-18.656 17.906l-2.5625 5.9375 6.4062 0.96875c1.0988 0.16704 2.0147 0.19284 3 0.25l-1.6562 2 2.5625 3.1875c3.6035 4.4754 8.2936 6.4972 11.312 8.3125 1.5094 0.90766 2.5718 1.7467 3.0625 2.3125 0.49073 0.56578 0.55899 0.65723 0.5625 1.375 0.0154 3.1426-0.98543 5.762-3 8.9688-2.0146 3.2067-5.0534 6.8102-8.3125 11.188-6.5181 8.7546-13.711 20.89-14.625 40.094l-0.4375 9.2188 7.9688-4.6875c2.0206-1.1873 3.3944-2.3186 4.9688-3.5 0.26727 4.8295 2.1854 9.7307 5.875 13.938l3.5938 4.0625 3.75-3.9062c1.1216-1.163 1.864-2.3318 2.5312-3.4688 1.6592 2.5404 3.6582 4.5815 5.8125 6.0625 4.6025 3.164 9.3603 4.4352 12.719 5.9688 3.2521 1.485 6.8928 2.5177 10.469 2.9375 3.1789 0.37323 5.4455 2.1792 10.094 4.375 2.277 1.0756 5.0384 2.0181 8.4062 2.5938l-1.875 1.7188c4.2731 3.0164 8.7023 5.2234 13.812 6.3438 1.7113 0.3735 2.572 0.70489 3.4375 1.0312-6.4312 1.7484-12.817 5.6617-18.438 11.312-9.7088 9.7605-17.501 24.803-20.125 44.031-0.94581 6.9321-0.77286 11.94 0.71875 16 1.4916 4.0602 4.8605 6.8681 8.0312 7.875 2.7061 0.85936 5.0439 0.84164 7 0.8125-4.0694 12.544 6.2026 19.112 11.062 20.25 7.7778 1.8209 10.092 3.8803 18.367 2.7341 3.6176 2.6707 9.3965 6.2133 13.383 5.8597 9.8759 0.46069 17.517 0.0891 28-11.312 12.9 1.2653 23.213-3.4818 29.562-11.812 6.3481-8.3291 9.1366-19.54 10.031-31.625 1.7657-2.4189 3.2875-5.1528 4.8125-7.3438 10.873 14.728 14.05 36.526 11.312 54.844-1.1128 7.4455-2.7051 9.9747-5.0938 13.969-1.9346 3.2348-4.3725 7.4434-6.625 14.188-5.8901-1.9295-14.607-5.2732-24.969-7.9688-12.753-3.3178-27.298-5.2621-39.625 1.0625-23.023 11.812-29.463 35.286-23.844 57.094 4.6446 18.026 16.94 35.433 34.031 47-2.1751-0.22794-3.8489-0.78399-4.0938-1.0938-4.0664-5.1438-9.549-8.0783-15.188-9.0938-5.6385-1.0154-11.404-0.32942-17 1.0625-11.192 2.7838-22.048 8.5415-29.531 11.938-4.6116 2.0927-6.2326 6.5856-7.0938 11.031-0.8611 4.4457-0.88719 9.534-0.375 14.844 1.0244 10.619 3.9855 21.88 9.5 29.188 4.061 5.3816 10.608 7.5333 17.438 8.5625s5.7473-0.70748 12.344-1.6875c2.5383 4.8297 12.753 12.914 28.156 8.9062 7.2402-1.6569 14.299-4.9784 19.938-10.312 0.13558 1.0555 0.37012 2.1622 0.8125 3.3438 0.96664 2.5818 3.0924 5.2011 6.125 6.8438 5.133 2.7804 11.041 2.6875 16.594 1.875 3.9883-0.58354 7.7198-1.5418 10.906-3.0312 4.0443 3.2683 9.508 6.6389 16.562 8.125 6.8727 1.4478 15.124 0.82459 24.188-3.0625 0.12485 0.52117 0.0964 0.99628 0.3125 1.5312 2.1732 5.3794 7.9943 9.109 19.688 12.156 3.8847 1.0123 8.9384 1.0761 14.562 0.625 5.6241-0.45114 11.451-1.3925 16.188-3.875 2.0253-1.0615 3.5089-3.0125 4.3125-4.9375 5.7087 1.7763 14.585 3.3672 25.094-0.53125 2.9429-1.0917 6.5492-0.44729 11.312 0.625 4.7633 1.0723 10.734 2.5517 17.031 0.0312 5.1481-2.0606 10.047-6.156 14.938-10.406 4.8902-4.2503 9.5616-8.7019 12.438-11.062 3.2716-2.6855 9.7419-5.8738 15.719-9.6562 5.9768-3.7825 12.314-8.5727 13.219-16.5 0.31828-2.7872-0.90184-5.2065-2.2188-6.875-1.3169-1.6685-2.8455-2.9278-4.5312-4.1875-0.29573-0.221-0.66383-0.43714-0.96875-0.65625 14.855-1.628 33.738-0.55967 46.094 3.75 7.9633 2.7776 12.402 6.6015 13.219 10.094 0.4086 1.7461 0.25767 3.8482-1.375 6.9688-1.6327 3.1205-4.7856 7.0593-9.9062 11.562-6.1139 5.3767-16.399 10.529-24.281 18.969-7.8818 8.4395-12.588 21.144-7.1875 38.438 2.2806 7.303 7.8037 12.316 13.812 15.625 6.0088 3.3089 12.666 5.1421 18.5 6.3438 17.545 3.6136 31.933 0.18135 43-8.2188 11.067-8.4001 18.847-21.206 25.438-36.062 5.8455-13.177 11.202-28.466 8.75-45.625-2.4521-17.159-12.757-35.58-36.188-54.906-13.545-11.173-37.908-12.117-61.688-11.031-20.551 0.93801-39.906 3.9587-51.375 6.4062 0.0473-0.34065 0.008-0.57194 0.0937-0.96875 0.47906-2.2288 1.6337-5.1191 3-8.2812 2.7326-6.3242 6.6166-13.909 4.9375-22.438-2.2971-11.667-9.4035-26.307-17.406-40.031-8.0028-13.725-16.75-26.168-23.219-32.906-2.6311-2.7406-6.1188-4.6726-9.75-6.75-3.3139-1.8958-6.3871-3.5541-8.125-4.625-3.8197-5.0796-11.068-18.682-18.625-33.781-7.7914-15.567-16.19-32.872-23.188-45.5-8.0242-14.481-20.1-31.301-36.781-40.75-3.8202-2.1641-8.0858-5.4869-13.688-9.1875 35.233-3.2999 78.092-24.59 98.189-43.87 2.9242-2.8053 0.64139-6.6886-6.8768-5.5952-8.7098 3.3968-11.6 2.236-17.312-1.2849 4.3329-4.9325 19.388-11.161 28.031-14.875l3.8125-1.5625-0.84375-4.0625c-1.8606-8.9827-8.8668-15.147-16.281-20.188-4.5562-3.0973-9.2675-5.7661-13.719-8.3125 2.2762-0.19197 4.9434-0.40483 8.0938-1.4375l6.9375-2.2812-4.625-5.6562c-7.6064-9.2902-20.654-13.519-32.531-18.094-11.877-4.5751-22.22-9.5896-25.094-14.844-3.3979-6.2129-5.0765-15.791-7.0938-26.469-2.0172-10.678-4.5092-22.474-10.781-33.281-10.817-18.638-17.666-42.243-29.875-62.188-2.5266-4.1274-7.6344-11.09-12.812-17.281-2.5891-3.0954-5.1476-5.9441-7.5-8.1562-1.1762-1.1061-2.2821-2.0494-3.5-2.8438-0.91346-0.59578-1.8508-1.3651-3.5-1.5312-0.27486-0.0277-0.5591-0.04-0.875-0.0312z"/>
    <path id="path3397" fill="#e5ff80" d="m304.11 135.19c-0.19235 0.17987-0.2975 0.24251-0.53125 0.53125-1.0182 1.2578-2.2441 3.3135-3.4062 5.6875-2.3243 4.748-4.4294 10.798-5.6875 15.188-1.3029 4.5457-2.7699 10.84-3.8438 17.5 1.0331 5.9593 2.1487 14.372 1.1875 18.969-3.2768 15.67 13.484 43.632 16.781 43.594 0 0 1.7858 10.223-1.0625 12.844-0.7096 0.65293-3.9536 0.62443-3.2188 0 2.8892-2.4552 0.86301-12.542-1.0625-15l-14.25-18.156c-0.699 2.9815-1.3885 4.7334-1.25 3.3125-0.19148 1.9644-0.16316 4.3689-0.34375 6.875s-0.39352 5.387-2.6562 8.125-6.4497 3.6804-10.219 3c-3.7691-0.68036-8.0054-2.4836-13.75-5.625-0.71094-0.38877-2.0208-0.44939-3.7188-0.1875l5.0938 4.25-6.5 3.5c-9.3606 5.0736-13.558 9.4331-24.906 11.938-1.1058 0.24404-3.3545 0.30183-5.0625-1.2812-1.5548-1.4411-1.7397-2.994-1.75-3.9688-8.6998 1.3272-17.022-0.6253-24.281-3.6875-9.4363-3.9806-17.558-9.7728-23.688-13.188-6.1712-3.4377-9.7966-8.5994-12.844-13.156-3.0472-4.5569-5.6191-8.5519-9.3125-11.312-1.1857-0.88628-4.1448-2.5386-7.25-4.3438-1.7492-1.0169-3.5464-2.1343-5.2812-3.3438-0.14826 0.3356-0.28303 0.35003-0.40625 0.78125-0.89572 3.1348-1.0368 9.1214 4.5625 19 3.2378 5.7123 7.9899 12.653 12.094 19.406 4.1039 6.7529 7.7863 13.052 8.375 19.594 1.072 11.912 2.1277 16.338 3.5312 19.531 1.4036 3.1936 3.831 6.2098 7.375 13.938 2.6206 5.7142 3.338 10.766 1.8125 15.094-1.5255 4.3277-4.8088 6.9688-7.875 9.0312-3.3206 2.2335-6.5708 4.0904-9.3438 6.3438 1.8988-0.0949 3.9136-0.0804 6.2812 0.34375l6 1.0625-2.2188 5.6875c-1.1412 2.8969-3.3635 4.5837-5.125 5.6562 1.3444 0.8383 2.7985 1.677 4.375 2.625 1.8364 1.1043 3.7736 2.3581 5.4688 4.3125 1.6951 1.9544 2.985 4.833 3 7.9062 0.0269 5.4928-1.9556 10.213-4.5312 14.312-2.5757 4.0999-5.724 7.7795-8.75 11.844-4.5694 6.1373-9.0041 13.042-11.25 23.375 2.2913-1.5806 4.8222-3.0555 8.0625-3.875l13.781-3.4688-8.5625 11.344c-2.0351 2.7-2.8397 5.2885-2.4375 8.0312 0.84838-1.6242 1.9603-3.3435 3.8438-4.9062l6.9062-5.75c-0.0115 16.703 19.987 17.398 38.188 19.531-15.079-18.025 1.7618-49.754 2.0312-49.5-3.4531 1.1962-7.1847 2.1401-8.625 1.0938-0.71833-1.7563 2.5128-4.6111 5.875-6.375-13.199 3.6449-14.539 1.3995-18.062-0.75-0.37092 2.0225 1.4391 4.5087 2.3438 6.5312-4.4955-0.60572-4.543-9.1411-7.5625-11.625-1.1393-1.8379-0.55438-3.3824-0.625-5.5 0.57292-1.375 1.6458-0.625 2.4688 0 3.174 9.7805 15.927 9.754 23.656 5.8125 2.9368-2.1299 4.8176-2.3709 6.0625-7.375 1.2401-4.9846-7.2857-7.9452-17.625-8-4.7811 0.0507-8.8688 0.30276-11.219 3.5625h-3.6875c-1.8084-5.1725-1.4248-8.7937-1.2812-12.75-2.0765-0.54237-6.0684 1.4334-10.125 3.5312 2.8116-7.745 8.1383-12.343 18.688-10.594 14.015 2.3244 25.385 9.4093 37.875 14.156-0.30957 2.497-2.2243 5.0918-2 7.0625 1.13 9.929 3.3099 7.26 5.0312 10.094-8.4941 6.7245-14.429 13.257-18.406 19.469 4.1266-1.9603 10.077-3.7284 18.406-5.3125 5.8512-1.1129 11.988-2.4646 17.125-2.3438 6.6047 0.15535 11.578 2.7496 12.188 11.438 0.83678 11.933-13.958 19.914-25.75 25.75-5.38 2.6627-10.948 0.22059-16.688-4.5625-2.7268-2.2724-8.6598-6.2917-11.344-10.656-4.3206 20.775 12.304 35.482 20.938 36.938 4.0234 0.67806 16.688-4.943 37.375 0 2.5545 0.6104 4.5935 5.7368 5.6875 9.125h0.1875c1.518-0.0616 5.4804-0.26188 9.375-1.0312 3.8946-0.76937 7.5511-2.4823 8.2812-3.3125l5.75-6.5312c28.995-19.471 8.9395-30.768 0.3125-43.969 8.243 2.3565 28.333 25.12 19.969 35.906l15.02-16.91c-0.091 2.4774-0.46699 5.0396-0.4375 7.4688 36.054 1.2234 66.31-13.475 87-31.188-0.64457-0.0284-1.3111-0.007-1.9375-0.0937-2.2437-0.31202-4.5998-0.8198-6.5938-3.1875-0.99697-1.1838-1.688-2.9555-1.6875-4.5938 0.00055-1.6382 0.53863-3.0537 1.2188-4.25 1.3602-2.3927 3.3817-4.2696 6.2812-6.4062 5.1205-3.7733 13.871-8.3086 26.25-13.656-2.0174-3.5037-5.7796-6.9761-10.688-10.312-6.6004-4.4869-14.767-8.5472-21.438-12.906l-4.1562-2.7188 2.7188-4.1875c2.3177-3.562 5.8818-5.2434 9.0625-6.0312-5.5934-3.1343-12.641-6.0715-20-8.9062-11.995-4.6205-24.601-8.9584-30.281-19.344-4.6878-8.5715-6.1739-18.913-8.1562-29.406s-4.3518-21.124-9.5938-30.156c-11.696-20.154-18.543-43.66-29.75-61.969-1.9485-3.183-7.0666-10.239-11.938-16.062-2.4355-2.9118-4.8781-5.5816-6.7188-7.3125-0.50875-0.47841-0.77041-0.65675-1.1562-0.96875zm-157.28 76.469c11.885 13.438 21.644 21.211 36.062 41.406l1.0625-6.4062c3.2648 6.4384 8.0595 12.658 5 20 1.7716 3.8028 6.9628-0.3706 11.438-2.875 0.51211-3.0952-2.9016-6.186-5-9.2812 4.8373 3.147 9.6557 6.2417 13.562 2.875-0.47779-1.9048-3.452-3.814-5.6875-5.7188 3.9885 0.7334 6.2952 4.252 12.844 0.71875l8.5625 0.6875c-12.483 4.9447-19.125 11.364-28.219 17.156l-11.062 7.1562c5.8473-1.7332 8.4269-1.8414 8.5625-0.71875-1.131 2.381-6.765 4.744-13.562 7.125 2.8572 0.00001 7.875 0 7.875 0-3.1772 2.1429-5.8735 4.2946-7.1562 6.4375-1.5504-2.5109-5.9568-3.7637-5.3438-10.344 0.88323-9.4796 2.1488-17.729-0.375-23.938-2.1078-5.1856-8.1178-19.517-13.312-21.688-4.791-2.0017-3.1092-1.4186-5.7188-3.3125-4.7858-3.4732-10.744-18.968-9.5312-19.281zm178.75 12.375c-0.26523 6.0609-2.8596 12.127 0.5 18.188 2.459 0.94851 4.4477-0.97694 5.5625-8.0938-0.3456 1.0368 8.2623 11.86 8.0625 13.656-0.25572 2.2987-6.5625 4.0313-6.5625 4.0312 2.6876 5.4248 9.7809 8.2003 19.188 9.5938-2.7553 5.0879-6.1605 7.8162-11.594 3.5312l-12.625-11.594c3.0556 4.0507 8.4084 8.107 4.0312 10.094-4.8824-4.3574-9.7738-5.4829-14.656-14.656-2.9059-5.4598 4.6567-17.492 8.0938-24.75zm-32.844 91.375c8.2923 0.0405 14.471 1.2994 18.125 2.7188l-3.25 5.25c-11.1 3.2857-25.31-2.1359-33.25 10-1.866 9.053 1.8713 15.855 9.25 14.5 7.3621 2.4831 24.32-9.9606 37-15.75 1.0262 0.11239-25.063 21.322-39.25 22.75-1.2825 5.7692 21.9 20.163 23.75 20-1.7411 0.58037-26.245-9.2515-32-15.75-1.4824-1.674-12.5-2.5-16.75-4.25s-5.5-13.75-5.5-13.75c9.0243-11.869 21.51-23.707 24.75-24.25 6.419-1.0758 12.15-1.4931 17.125-1.4688zm-42 56.625c-8.0846 0.20684-23.027 4.8068-26.688 7.0625-5.3031 3.2678 13.625 7.9936 19.688 6.5625 5.0053-1.1816 14.153-7.3987 12.125-12.125-0.49638-1.1571-2.4301-1.569-5.125-1.5zm89.375 50.438v2.9062l-3 8 18.5 37c2.2149 4.4522 6.1798 7.596 10.594 8.6562-3.9545-0.74636-7.574-1.3899-16.094 2.3438 5.5179 0.0992 11.236-2.1017 13 0.5 0.36058 4.1645 5.9335 8.3355 10 12.5-5.3656-2.7502-16.181-17.774-18-1-5.6914 12.935-6.3181 19.218-8.0312 25.719 0.002 0.01-0.002 0.0212 0 0.0312 2.4447 11.526 2.542 23.555 0.90625 34.5-1.2981 8.6857-3.9214 13.522-6.375 17.625-2.4536 4.1025-4.7453 7.6612-7.0938 16.656l-1.2188 4.6875-4.7188-1.0625c-7.2535-1.6589-17.874-6.4349-29.656-9.5s-23.992-4.1161-32.562 0.28125c-19.098 9.7982-17.895 26.774-14.719 45.719 3.1188 18.602 18.84 36.589 39.875 45.938l4.3125 4.875-7.75 4.875c-3.824 2.4128-8.6734 3.7269-13.688 3.9688-5.0141 0.24185-10.675-0.45343-14.344-5.0938-2.5965-3.2845-5.4822-4.7815-9.125-5.4375-3.6428-0.65604-8.077-0.24044-12.812 0.9375-9.4711 2.3559-19.813 7.6964-27.781 11.312 0.31223-0.14169-0.82404 0.8379-1.4062 3.8438-0.58221 3.0058-0.69576 7.3477-0.25 11.969 1.8885 12.119 4.2617 29.831 18.469 28.812 12.098 0.32506 4.3563-9.4549 4.7812-19.656 2.531 5.7209 4.7346 12.007 8.8125 16.844 7.735 6.7615 15.307 13.024 23.188 10.188 8.6205-1.9728 10.753-2.4774 14.938-10.094l4.6875-20.844c1.5091-6.7106 5.5455-14.54 11.906-24.219l0.28125-0.4375 0.5-0.25c5.4584-2.6429 10.079-4.2784 14.312-5.5312-3.1513-33.725 4.6166-52.874 12.281-70.375-2.9187 26.699-9.4129 56.976 6.8125 64.531 5.598-2.3478 11.896-5.9183 20.25-12.406 34.66-26.96 49.22-115.83 27.8-152.81l2.3125-8.25c23.295 71.124 8.9214 135.76-27.688 164.19-12.553 9.7488-21.114 13.387-29.031 15.75-7.7794 2.3216-14.786 3.4729-24.812 8.25-6.9251 12.819-7.1629 29.161-5.9062 43.406 0.54254 3.3987 2.4587 7.859 5.1875 9.9062 1.5298 1.1477 6.0937 1.4122 10.406 0.78125 4.3125-0.63098 8.6929-2.3436 10.062-3.3125l3.3125-2.3438 2.9688 2.75c3.4016 3.1613 8.3105 6.7635 14.625 8.0938s6.727 2.6658 17.188-3.8125c1.6103-18.559 4.1723-33.361 11.344-38.781 9.1143-6.8887 12.099-10.238 24.875-10.156 18.681-24.933 8.2579-21.861 3.8125-42.688-5.7108-26.755-3.0157-53.979 4.8125-74.5 6.3115-14.591 16.53-28.309 34.125-26.594-5.0795-7.3797-11.277-19.661-18.188-33.469-7.8304-15.645-16.206-32.921-22.969-45.125-7.5237-13.578-18.994-28.958-32.969-36.875-6.7273-3.8109-12.112-8.7144-21.062-13.75zm-85.469 6.8438c-6.3886 0.15848-12.965 1.4421-14.938 4.3438-3.783 5.566 19.552 22.136 19.969 22.969 7.5714 3.5595 15.487 5.3966 24 4.25 14.844-2.9178-4.2071-9.8234-9.625-15.125-3.4513-2.75-3.2965-5.5-3.5-8.25-0.014-1.3111-0.30571-3.7669-2.0625-5.875-1.2627-1.5152-7.4551-2.471-13.844-2.3125zm41.781 14.469c-2.182 0.94019-4.4421 1.4786-6.6562 1.9375 1.1698 0.87153 2.3534 1.6537 3.5 2.75 3.2222 3.0809 5.2667 7.8799 5.4688 14.375 0.94915 0.21367 1.6846 0.27913 2.1562 0.25 0.8922-0.0551 1.0005-0.16154 1.375-0.53125 0.59884-0.59111 1.4437-2.8689 2.1875-5.6875-2.5325-3.1569-5.3035-6.8418-8.0312-13.094zm-53.906 13.125c-6.4613 0.0385-12.377 3.1436-19.469 12-5.9211 6.907-31.065 48.926-8.9375 47.469 3.4604-1.5609 6.9833-1.2334 11-16-2-5.6667 6.3333-8.3333 5.5-2.5-3.1769 16.727-17.654 41.178-0.0625 47.844 13.176 4.9929 20.837-12.819 23.469-15.75-8.1042 24.838 18.439 31.786 25.656 8.375 1.8585-6.0281 7.3975-22.606 10.688-20.938-3.0157 12.448-2.3077 13.899-3.7188 20.656 10.944 1.4832 12.656-1.6526 17.375-7.8438 4.7186-6.1911 7.4613-16.15 8.1562-27.656l0.0937-1.6562 0.4375-0.5c-0.57971-7.73 0.64433-15.036-12.594-27.375-4.0941-0.26071-7.9119-1.6308-11.656-3.3438-16.352-4.1496-14.586-3.4269-23.156-6.3438-9.3273-3.456-16.32-6.476-22.781-6.4375zm185.59 96.33c-10.937 0.45344-17.295 12.108-23.219 26.469-7.4274 19.471-5.6924 47.777-1.5938 72.406 4.1446 12.724 12.009 29.565 22.719 35.219 11.441 6.0395 11.711 5.8186 38.594 14.531-8.5 2.3225-19 1.1537-27.5-0.5 3.3199 3.6734 11.434 4.9495 20 6-4.4375 0.14063-5.7812 1.0547-15 0-0.8273 3.6636 5.4047 3.7976 9.5 5-6.9694-1.723-6.1306 4.3729-26.031-10.281l-18.22-3.34c-12.352-0.0788-26.891 2.0161-34.156 7.9688-0.98071 0.80348-2.2305 3.5953-2.9062 7.3438-0.67573 3.7485-0.96159 8.3697-1 12.812 0.23547 8.7065-0.27126 17.692 1.5625 25.844 0.287 0.71045 2.448 3.4852 12.938 6.2188 1.4135 0.36836 6.3788 0.76324 11.219 0.375 4.7404-0.38025 9.6718-1.5254 12.125-2.75 0.68877-3.3017 1.9306-11.206 2.125-14.562l5.625 4.1562c1.5859 9.3343 11.349 8.7204 23.062 4.375 6.3337-2.3497 12.24-0.8144 16.969 0.25 4.7282 1.0644 8.236 1.6564 11.125 0.5 2.495-0.99865 7.4498-4.62 12.094-8.6562 4.6439-4.0362 9.1687-8.4186 12.656-11.281 4.9568-4.0688 11.452-7.0304 16.688-10.344 4.9621-3.1403 7.9374-6.2129 8.5-8.7812-0.39014-0.48656-1.3318-1.354-2.6562-2.3438-2.682-2.0042-6.7707-4.4637-10.844-7.375-16.431-5.0517-19.863-20.508-18.062-28.125l9.6562 8.25c11.422 14.1 56.231 1.3778 75.156 7.875 9.4632 3.2488 16.133 13.502 18.188 22.281 1.0272 4.3896 0.19954 9.2245-2.25 13.906-2.4495 4.6818-6.4524 9.394-12.188 14.438-7.6523 6.7295-16.63 11.358-18.562 19.781-4.7093 20.529-1.9626 34.729 14.844 42.281 15.38 3.1675 25.988 0.36299 34.906-6.4062 8.9184-6.7692 16.118-18.051 22.375-32.156 5.592-12.605 10.015-25.84 7.9688-40.156-2.0459-14.316-10.499-30.317-32.656-48.594-8.6279-7.1166-31.889-9.829-54.844-8.7812-22.955 1.0477-45.921 5.0255-54.688 7.25l-5.625-2.4375c-2.0366-3.7399-1.988-7.89-1.2188-11.469 0.76922-3.5787 2.1963-6.8908 3.5938-10.125 2.7949-6.4684 5.1198-12.431 4.3125-16.531-1.8181-9.2343-8.5107-23.718-16.219-36.938-7.708-13.219-16.557-25.557-21.812-31.031-0.64721-0.67415-4.0564-2.9987-7.5-4.9688-2.4786-1.418-4.9992-2.7604-7.125-4-4.8127-2.6531-8.9793-3.7449-12.625-3.5938z"/>
  </g>
  <metadata>
    <rdf:RDF>
      <cc:Work>
        <dc:format>image/svg+xml</dc:format>
        <dc:type rdf:resource="http://purl.org/dc/dcmitype/StillImage"/>
        <cc:license rdf:resource="http://creativecommons.org/licenses/publicdomain/"/>
        <dc:publisher>
          <cc:Agent rdf:about="http://openclipart.org/">
            <dc:title>Openclipart</dc:title>
          </cc:Agent>
        </dc:publisher>
        <dc:title>lime cat</dc:title>
        <dc:date>2011-01-02T12:34:57</dc:date>
        <dc:description>animal, cartoon, cat, clip art, clipart, </dc:description>
        <dc:source>http://openclipart.org/detail/103051/lime-cat-by-tzunghaor</dc:source>
        <dc:creator>
          <cc:Agent>
            <dc:title>tzunghaor</dc:title>
          </cc:Agent>
        </dc:creator>
        <dc:subject>
          <rdf:Bag>
            <rdf:li>animal</rdf:li>
            <rdf:li>cartoon</rdf:li>
            <rdf:li>cat</rdf:li>
            <rdf:li>clip art</rdf:li>
            <rdf:li>clipart</rdf:li>
          </rdf:Bag>
        </dc:subject>
      </cc:Work>
      <cc:License rdf:about="http://creativecommons.org/licenses/publicdomain/">
        <cc:permits rdf:resource="http://creativecommons.org/ns#Reproduction"/>
        <cc:permits rdf:resource="http://creativecommons.org/ns#Distribution"/>
        <cc:permits rdf:resource="http://creativecommons.org/ns#DerivativeWorks"/>
      </cc:License>
    </rdf:RDF>
  </metadata>
</svg>
