<?xml version="1.0"?>
<svg xmlns:rdf="http://www.w3.org/1999/02/22-rdf-syntax-ns#" xmlns="http://www.w3.org/2000/svg" xmlns:cc="http://creativecommons.org/ns#" xmlns:dc="http://purl.org/dc/elements/1.1/" xmlns:svg="http://www.w3.org/2000/svg" id="svg3730" viewBox="0 0 758.1 719.27" version="1.1">
  <g id="layer1" transform="translate(-5.6708 -266.58)">
    <g id="g4340">
      <path id="path5129" d="m168.12 653.3c-142.39 95.95-142.39 99.05-142.39 99.05s-49.525-34.048 27.858-123.81c77.383-89.764 92.859-123.81 92.859-123.81l3.0954-3.0953v3.0953" fill-rule="evenodd" stroke="#000" stroke-width="8.9039" fill="#fff"/>
      <path id="path5131" d="m601.33 653.3c142.38 95.955 142.38 99.05 142.38 99.05s49.525-34.048-27.858-123.81c-77.38-89.77-92.85-123.82-92.85-123.82l-3.0954-3.0953v3.0953" fill-rule="evenodd" stroke="#000" stroke-width="8.9039" fill="#fff"/>
      <path id="path4741" d="m338.57 784.51a85 55 0 1 1 -170 0 85 55 0 1 1 170 0z" fill-rule="evenodd" transform="matrix(1.0834 0 0 1.0834 -14.507 70.364)" stroke="#000" stroke-width="8.2188" fill="#fff"/>
      <path id="path4743" d="m338.57 784.51a85 55 0 1 1 -170 0 85 55 0 1 1 170 0z" fill-rule="evenodd" transform="matrix(1.0834 0 0 1.0834 257.88 71.912)" stroke="#000" stroke-width="8.2188" fill="#fff"/>
      <path id="path4150" d="m660 486.65a288.57 248.57 0 1 1 -577.14 0 288.57 248.57 0 1 1 577.14 0z" fill-rule="evenodd" transform="matrix(.91707 0 0 1.3293 42.616 -45.43)" stroke="#000" stroke-width="8.07" fill="#fff"/>
      <path id="path5109" d="m295.38 1002.4a131.1 123.98 0 1 1 -262.2 0 131.1 123.98 0 1 1 262.2 0z" transform="matrix(.74917 -.41029 .54265 .67380 -275.39 176.43)" stroke="#000" stroke-width="10.44" fill="none"/>
      <path id="path1885" stroke-linejoin="round" d="m368.57 388.08a60 58.571 0 1 1 -120 0 60 58.571 0 1 1 120 0z" fill-rule="evenodd" transform="matrix(1.0834 0 0 1.0834 -39.27 8.458)" stroke="#000" stroke-linecap="round" stroke-width="8.2244" fill="#e6e6e6"/>
      <path id="path1889" d="m345.71 403.79a45.714 42.857 0 1 1 -91.429 0 45.714 42.857 0 1 1 91.429 0z" stroke-opacity="0" fill-rule="evenodd" transform="matrix(1.0834 0 0 1.0834 -23.793 2.2674)" fill="#fff"/>
      <path id="path1893" d="m328.57 418.08a22.857 20 0 1 1 -45.714 0 22.857 20 0 1 1 45.714 0z" fill-rule="evenodd" stroke-opacity="0" transform="matrix(1.0834 0 0 1.0834 -26.889 -8.5662)"/>
      <path id="path1887" stroke-linejoin="round" d="m520 406.65a58.571 60 0 1 1 -117.14 0 58.571 60 0 1 1 117.14 0z" fill-rule="evenodd" transform="matrix(1.0834 0 0 1.0834 -36.175 -10.114)" stroke="#000" stroke-linecap="round" stroke-width="8.2244" fill="#e6e6e6"/>
      <path id="path1891" d="m500 405.22a44.286 44.286 0 1 1 -88.571 0 44.286 44.286 0 1 1 88.571 0z" stroke-opacity="0" fill-rule="evenodd" transform="matrix(1.0834 0 0 1.0834 -36.175 4.5889)" fill="#fff"/>
      <path id="path1895" d="m328.57 418.08a22.857 20 0 1 1 -45.714 0 22.857 20 0 1 1 45.714 0z" fill-rule="evenodd" stroke-opacity="0" transform="matrix(1.0834 0 0 1.0834 123.23 -8.5662)"/>
      <path id="path2844" d="m266.79 532.71 195.01-28.82-54.79 118.73-140.22-89.91z" fill-rule="evenodd" stroke="#000" stroke-width="8.9039" fill="#fff"/>
    </g>
  </g>
  <metadata>
    <rdf:RDF>
      <cc:Work>
        <dc:format>image/svg+xml</dc:format>
        <dc:type rdf:resource="http://purl.org/dc/dcmitype/StillImage"/>
        <cc:license rdf:resource="http://creativecommons.org/licenses/publicdomain/"/>
        <dc:publisher>
          <cc:Agent rdf:about="http://openclipart.org/">
            <dc:title>Openclipart</dc:title>
          </cc:Agent>
        </dc:publisher>
        <dc:title>Penguin Line Art</dc:title>
        <dc:date>2010-07-29T16:33:29</dc:date>
        <dc:description>animal, bird, black and white, clip art, clipart, coloring, coloring book, line art, penguin, </dc:description>
        <dc:source>http://openclipart.org/detail/75247/penguin-line-art-by-gammillian</dc:source>
        <dc:creator>
          <cc:Agent>
            <dc:title>gammillian</dc:title>
          </cc:Agent>
        </dc:creator>
        <dc:subject>
          <rdf:Bag>
            <rdf:li>animal</rdf:li>
            <rdf:li>bird</rdf:li>
            <rdf:li>black and white</rdf:li>
            <rdf:li>clip art</rdf:li>
            <rdf:li>clipart</rdf:li>
            <rdf:li>coloring</rdf:li>
            <rdf:li>coloring book</rdf:li>
            <rdf:li>line art</rdf:li>
            <rdf:li>penguin</rdf:li>
          </rdf:Bag>
        </dc:subject>
      </cc:Work>
      <cc:License rdf:about="http://creativecommons.org/licenses/publicdomain/">
        <cc:permits rdf:resource="http://creativecommons.org/ns#Reproduction"/>
        <cc:permits rdf:resource="http://creativecommons.org/ns#Distribution"/>
        <cc:permits rdf:resource="http://creativecommons.org/ns#DerivativeWorks"/>
      </cc:License>
    </rdf:RDF>
  </metadata>
</svg>
