<?xml version="1.0"?>
<svg xmlns:rdf="http://www.w3.org/1999/02/22-rdf-syntax-ns#" xmlns="http://www.w3.org/2000/svg" xmlns:cc="http://web.resource.org/cc/" xmlns:dc="http://purl.org/dc/elements/1.1/" xmlns:sodipodi="http://inkscape.sourceforge.net/DTD/sodipodi-0.dtd" xmlns:svg="http://www.w3.org/2000/svg" id="Layer_1" style="enable-background:new 0 0 412.808 272.768" space="preserve" sodipodi:version="0.32" viewBox="0 0 412.808 272.768" version="1.1" sodipodi:docname="mucca.svg" sodipodi:docbase="F:\openclip\svg da inviare">
  <sodipodi:namedview id="base" bordercolor="#666666" borderopacity="1.0" pagecolor="#ffffff"/>
  <g id="g3">
    <path id="path5" d="m403.71 176.38c1.256 5.879 3.666 8.828 9.101 10.238-4.676-7.569-2.75-17.25-4.551-28.439-1.793-11.136-6.874-14.828-10.238-22.751-5.168-12.177-4.461-33.679-7.963-51.19-3.663-18.313-9.642-36.224-22.75-42.09-16.272-7.281-38.882-4.316-58.017-2.275-43.039 4.592-83.136-3.559-124-7.963-22.659-2.442-44.037 1.505-65.979 2.275-11.758 0.413-24.414 1.839-27.302-6.825-3.449-10.348 8.876-17.063-4.55-17.063-3.966 0-8.018 6.132-10.238 5.688-7.841-1.567-2.718-5.781-6.826-10.238-8.679-9.418-13.03-4.717-23.889-3.413-9.482 1.138-34.782-3.91-22.751 6.826 6.424 5.731 27.072 6.237 35.264 6.825-14.691 5.871-26.809 16.583-36.396 26.156-11.528 11.51-35.731 23.394-13.651 34.127 15.039 7.31 39.659 1.628 54.603 9.101 14.168 7.084 19.949 26.218 28.439 44.365 4.841 10.349 11.218 26.934 17.063 36.402 5.665 9.176 18.045 9.79 22.751 17.063 7.614 11.768 1.188 44.382-3.413 56.879-4.065 11.045-10.786 16.83-12.513 29.576 19.458 0 20.116 1.024 22.751-14.787 7.774 6.139 6.545-17.919 7.963-25.027 1.288-6.452 5.364-31.82 10.238-27.302 5.151 4.776 0.811 31.921 0 38.678-1.676 13.965-6.475 17.213-10.238 28.438 4.784 0 20.355 2.756 23.89 0 1.097-0.855-1.104-5.981 0-6.825-0.698 0.533 6.771-10.455 5.687-6.824 2.627-8.794 1.173-26.918 2.275-36.403 1.761-15.153 8.073-36.45 18.201-40.953 12.552-5.577 48.643 2.431 65.979 1.138 14.416-1.074 13.821-1.699 21.613 5.688 2.939 2.788 3.771 5.902 7.963 7.963 4.729 2.324 4.314 0.233 7.963 1.138-3.613-0.895 13.204 1.763 9.102 2.275 1.999-0.251 8.475-4.64 9.101-4.551 10.487 1.498 6.382 12.712 3.412 25.026-5.343 22.156-15.633 32.851-19.339 51.19 27.559 0 27.065-17.853 30.715-40.952 2.008-12.707 10.382-37.419 19.339-43.228 7.536 13.695 11.611 32.542 9.1 53.466-0.919 7.67-4.262 15.206-6.824 21.613-0.476 1.19-5.544 7.233-4.551 9.101 2.989 5.62 17.462 5.315 21.613 1.138 2.264-2.277-0.434-10.555 0-11.376 1.979-3.736 6.575-2.663 7.963-6.825 2.762-8.282-1.138-16.397-1.138-25.025 0-9.43 6.062-17.752 6.826-25.027 0.889-8.461-4.225-15.273-6.826-23.889-8.997-29.802-3.412-76.706-3.412-112.62 10.35 18.973 12.839 34.897 13.65 58.016 0.376 10.685 0.622 22.687 4.551 31.852 3.68 8.57 9.69 11.56 10.24 21.59" fill-rule="evenodd" clip-rule="evenodd" stroke-miterlimit="10" stroke-width="0"/>
  </g>
  <metadata>
    <rdf:RDF>
      <cc:Work>
        <dc:format>image/svg+xml</dc:format>
        <dc:type rdf:resource="http://purl.org/dc/dcmitype/StillImage"/>
        <cc:license rdf:resource="http://creativecommons.org/licenses/publicdomain/"/>
        <dc:publisher>
          <cc:Agent rdf:about="http://openclipart.org/">
            <dc:title>Openclipart</dc:title>
          </cc:Agent>
        </dc:publisher>
        <dc:title>Architetto -- mucca</dc:title>
        <dc:date>2010-03-18T17:06:50</dc:date>
        <dc:description>Drawing by Francesco 'Architetto' Rollandin. From OCAL 0.18 release.</dc:description>
        <dc:source>http://openclipart.org/detail/32311/architetto----mucca-by-anonymous</dc:source>
        <dc:creator>
          <cc:Agent>
            <dc:title>Anonymous</dc:title>
          </cc:Agent>
        </dc:creator>
        <dc:subject>
          <rdf:Bag>
            <rdf:li>animal</rdf:li>
            <rdf:li>black</rdf:li>
            <rdf:li>black and white</rdf:li>
            <rdf:li>bovine</rdf:li>
            <rdf:li>clip art</rdf:li>
            <rdf:li>clipart</rdf:li>
            <rdf:li>cow</rdf:li>
            <rdf:li>mammal</rdf:li>
            <rdf:li>silhouette</rdf:li>
          </rdf:Bag>
        </dc:subject>
      </cc:Work>
      <cc:License rdf:about="http://creativecommons.org/licenses/publicdomain/">
        <cc:permits rdf:resource="http://creativecommons.org/ns#Reproduction"/>
        <cc:permits rdf:resource="http://creativecommons.org/ns#Distribution"/>
        <cc:permits rdf:resource="http://creativecommons.org/ns#DerivativeWorks"/>
      </cc:License>
    </rdf:RDF>
  </metadata>
</svg>
