<?xml version="1.0"?>
<svg xmlns:rdf="http://www.w3.org/1999/02/22-rdf-syntax-ns#" xmlns="http://www.w3.org/2000/svg" xmlns:cc="http://web.resource.org/cc/" xmlns:dc="http://purl.org/dc/elements/1.1/" xmlns:sodipodi="http://inkscape.sourceforge.net/DTD/sodipodi-0.dtd" xmlns:svg="http://www.w3.org/2000/svg" id="Layer_1" style="enable-background:new 0 0 271.585 243.289" xml:space="preserve" sodipodi:version="0.32" viewBox="0 0 271.585 243.289" version="1.0" sodipodi:docname="Viti.svg" sodipodi:docbase="F:\openclip\svg3">
<sodipodi:namedview id="base" bordercolor="#666666" borderopacity="1.0" pagecolor="#ffffff"/>
<g id="g3">
	<path id="path5" d="m143.47 0.086c0.953 0.496 7.848 1.16 7.32 2.364-2.218 5.071-6.006 10.604-5.764 16.207 0.448 10.358 0.32 20.722 0.751 31.074 0.447 10.746 1.012 21.411 2.857 32.019 0.348 2.003-0.726 3.027-0.997 5.021-0.231 1.7 0.213 3.456-0.071 5.175-0.269 1.628 2.529 2.136 1.078 5.032-1.206 2.407-1.951 4.596 1.149 5.751-1.494 1.682-1.438 3.633-1.438 5.749 0 2.574 1.141 3.894 1.295 6.325 0.151 2.383-2.248 6.278 0.718 7.764 1.299 0.65-1.176 4.914-1.365 6.253-0.406 2.867 0.983 4.179 1.222 6.828 0.246 2.734-1.271 5.242-0.358 7.979 0.514 1.544 0.604 1.456 0.503 2.803-0.08 1.067-0.652 2.202-0.791 3.307-0.257 2.043-0.139 6.52 2.803 5.606-3.664 6.794-0.896 14.578-1.438 21.852 1.736-0.107 0.863 9.813 0.863 11.788 0.488-0.418 0.826-0.246 1.438-0.576-2.135 3.548-2.276 6.511-1.438 10.352 0.853 3.904-1.341 8.965 1.438 12.362-1.889 0.898-2.45 2.92-2.301 4.888 0.263 3.471 1.372 4.942-0.245 8.504-0.554 1.22-3.723 8.747-3.779 8.747-1.921 0-3.386-7.123-3.738-8.77-0.727-3.395-1.255-6.979-1.46-10.445-0.066-1.121 0.236-3.96-0.638-4.659-1.714-1.372-2.066-3.02-1.064-5.021 0.771-1.54 1.984-3.144 1.581-4.96-0.387-1.741-2.054-2.684-2.443-4.386-0.987-4.313 3.001-7.025-1.151-10.925 2.357-0.97 2.131-3.65 1.87-5.75-0.341-2.74-0.387-3.709-2.732-5.175 2.702-1.849 3.014-6.96 0.585-9.083-3.208-2.805 3.543-8.733-0.565-12.098-2.078-1.701 2.443-6.207 0.841-9.296-0.355-0.687-1.854-0.618-2.299-1.582-0.521-1.129 0.373-2.674 0.719-3.737 0.878-2.7 1.353-4.895-1.869-6.182 3.487-2.058 3.021-9.221-0.863-10.351 1.609-1.102 2.129-2.888 2.156-4.743 0.014-0.949-0.06-1.847-0.431-2.732-0.505-1.204-1.869-1.331-1.869-2.803 0-2.41 2.39-4.352 1.15-6.828-1.14-2.276-1.677-2.063-0.575-4.816 0.456-1.139 1.217-4.234-0.144-4.744-1.823-0.683-1.88-1.499-0.504-2.875 1.204-1.204-0.144-7.552-0.229-8.989-1-16.823-2-33.645-3.001-50.467-0.352-5.918-0.704-11.837-1.056-17.756-0.214-3.608-4.143-6.113-6.28-8.825-0.488-0.619-1.03-1.164-1.581-1.725 3.179-1.317 6.622-2.997 10.063-3.45 1.939-0.255 3.572 0.11 5.462 0.431 2.52 0.435 3.86 0.215 6.6-0.428"/>
	<path id="path7" fill="#B4D4CF" d="m136.57 2.673c-0.044 3.089 4.183 0.534 5.464 0-1.028 1.608-0.571 5.941-2.588 6.613-3.873 1.29-2.309-3.742-4.816-5.535-1.824-1.304-6.967-1.768-7.116 1.078-0.091 1.741 2.297 3.926 3.594 4.745-2.245-1.112-4.441-3.458-4.887-6.038 3.36-0.366 7.11-2.371 10.37-0.863"/>
	<path id="path9" fill="#B4D4CF" d="m146.92 2.673c-1.033 1.992-3.438 6.943-5.462 6.326 1.15-1.978 2.46-6.946 5.46-6.326"/>
	<path id="path11" fill="#B4D4CF" d="m144.91 84.041c-1.438 0.958-2.875 1.917-4.313 2.875-0.863-24.822-1.726-49.644-2.589-74.466 1.809 0 3.41-0.856 3.504 1.086 0.111 2.313 0.223 4.627 0.334 6.94 0.393 8.139 0.784 16.278 1.177 24.417 0.63 13.049 1.26 26.099 1.89 39.148"/>
	<path id="path13" fill="#B4D4CF" d="m133.12 13.024c1.43 25.297 2.538 50.612 4.025 75.903-2.577-25.249-3.079-50.636-5.462-75.903h1.44"/>
	<path id="path15" d="m102.07 53.851c-1.044 2.234-3.32 1.939-5.318 2.588-3.675 1.193-3.6 2.356-2.589 5.894 1.624 5.684 3.048 11.384 4.377 17.145 0.566 2.454 0.842 4.986 1.224 7.475 0.266 1.729-0.119 7.053 0.868 8.301 1.425 1.8 5.505 0.615 3.877 4.686-0.771 1.927-2.516 5.551 0.508 6.497 2.318 0.725 1.963 1.431 0.935 3.481-0.979 1.953-0.921 3.816 1.06 4.664 2.511 1.075 2.098 3.617 1.234 5.773-1.777 4.437 2.132 3.333 3.024 6.096 0.495 1.532-1.126 3.11-1.149 4.599-0.05 3.245 3.876 3.281 4.313 5.607 0.15 0.801-1.888 3.159-2.013 4.313-0.329 3.039 1.353 3.616 3.77 5.025-0.669-0.39-0.825 7.032-0.678 7.913 0.415 2.492 1.711 2.141 3.809 2.013-0.488 6.08-4.822 7.333 2.637 10.813 1.313 0.613-1.365 3.568-1.63 4.281-1.117 3.011 0.316 3.229 3.02 5.031-4.475 2.962 0.875 9.614-3.451 12.362 1.578 1.079-0.167 2.157-0.576 3.451-1.629-1.138-3.541-1.787-5.175-2.876-1.904-1.269-3.34-4.722-5.75-4.025 4.429-4.691-6.625-6.118-2.946-11.428 1.983-2.862-2.003-7.16-4.817-7.835 1.73-0.771 2.442-2.449 2.084-4.241-0.605-3.031-2.125-3.715-4.672-5.534 2.776-0.894 2.127-5.036 1.293-7.116-0.369-0.92-4.427-2.85-4.025-3.449 0.562-0.84 1.277-1.763 1.726-2.66 1.786-3.578-4.881-2.222-4.563-5.729 0.349-3.841 3.009-7.988-2.769-8.646 1.178-2.121 2.697-5.921 0.144-7.619-1.834-1.22-3.327 0.188-3.595-2.731 6.559-2.26-0.25-6.793-2.875-8.337 1.042-1.36 2.333-3.526 2.301-5.319-0.016-0.884-0.26-1.928-0.863-2.587-1.137-1.244-1.727 0.171-2.73-0.719-1.519-1.347-0.433-4.232-0.719-6.038-0.344-2.168-1.383-4.411-1.997-6.556-1.326-4.632-3.092-9.173-4.683-13.72-0.893-2.548-1.766-5.127-2.489-7.729-0.488-1.755-0.127-2.285-1.889-1.911-2.308 0.49-4.616 0.979-6.923 1.469-5.484 1.164-1.248-10.589 0.155-12.667 3.035-4.497 6.983-7.695 12.076-9.631 9.652-3.641 21.42 0.677 26.467 9.654"/>
	<path id="path17" fill="#B4D4CF" d="m98.618 52.988c-5.942 2.108-11.884 4.217-17.826 6.326 0.383-0.958 0.767-1.917 1.15-2.875-2.648-0.279-5.128 0.48-5.606-2.156-0.19-1.052 0.619-3.245 1.293-4.026 2.748-3.185 8.707 2.947 12.652 2.731l-9.489-6.9c3.818-3.609 17.237 1.568 17.826 6.9"/>
	<path id="path19" fill="#B4D4CF" d="m64.116 64.201c-3.17 0.842-0.468-6.107 0.245-7.533 1.299-2.597 3.24-5.018 5.218-7.129-3.529 3.85-5.653 9.447-5.463 14.662"/>
	<path id="path21" fill="#B4D4CF" d="m98.618 88.927c-2.485 1.707-5.722 3.795-8.77 4.313-1.115 0.189-1.988 1.144-2.371-0.147-0.488-1.649-0.977-3.297-1.465-4.946-2.506-8.461-5.013-16.922-7.52-25.383 0.175-0.081 1.249-0.516 1.438-0.574 2.384 9.538 6.224 18.469 9.775 27.602-0.372-7.095-2.867-13.345-4.568-20.144-0.46-1.841-1.102-3.738-1.371-5.615-0.381-2.665-0.555-1.921 1.05-2.992 1.428-0.953 3.814-1.228 5.464-1.726 2.78 9.87 5.558 19.741 8.338 29.612"/>
	<path id="path23" d="m184.3 62.763c0 2.512-0.537 4.459 2.013 5.464 2.842 1.12 7.29-0.732 7.476-4.026 6.229 1.15 12.459 2.3 18.688 3.451-1.062 3.58-3.925 6.106-6.757 8.338-1.334 1.051-3.243 1.972-4.313 3.306-1.483 1.852-1.017 2.759-1.294 5.104-0.428 3.636-1.729 6.902-2.588 10.423-0.38 1.559-0.719 3.353-0.719 4.958 0 0.771-0.067 1.562 0.067 2.323 0.425 2.407 0.03 1.112-0.786 2.349-1.279 1.938-3.866 5.308-3.737 8.051 0.094 2.003 1.747 3.094 1.367 5.554-0.309 2.004-1.739 3.923-2.581 5.75-0.905 1.962-1.303 3.521-0.66 5.606 0.897 2.911 2.247 1.411 0.149 4.223-2.323 3.115-4.937 6.755-0.864 9.919-1.729 1.197-3.014 2.852-3.88 4.743-0.393 0.857-1.038 2.203-1.007 3.163 0.044 1.354 1.019 1.56 1.294 2.804 0.883 3.98-7.713 8.494-1.294 12.003-1.716 0.605-2.663 1.971-3.306 3.594-0.979 2.47-0.546 2.967 0.934 4.744 1.521 1.827-1.697 3.784-2.803 4.888-2.189 2.188 0.097 3.51 1.725 5.463-4.763 2.02-4.439 6.433-6.9 10.207-1.6 2.454-3.82 3.493-5.894 1.078-1.721-2.004-0.613-4.049-1.294-6.254-0.481-1.561-3.642-3.112-2.731-4.025 3.626-3.632 4.545-4.174-0.432-7.906 1.113-1.261 5.847-5.221 3.151-7.108-2.766-1.938-2.678-1.941-0.636-4.392 1.038-1.246 2.271-3.622 1.797-5.319-0.487-1.744-4.676-2.602-3.737-4.744 0.326-0.744 3.102-1.621 3.81-2.804 0.92-1.534 0.089-3.464 1.078-4.672-1.342-0.958-2.684-1.917-4.025-2.875 2.715-0.692 4.681-4.182 4.313-6.9-0.305-2.247-0.822-2.323-2.843-3.503-1.221-0.712-1.24-1.393 0.184-1.96 5.428-2.16 5.34-10.757-0.216-12.938 1.295-2.614 4.071-4.108 4.888-6.972 0.917-3.216-4.694-6.363-3.805-7.444 0.895-1.086 3.444-3.169 3.539-4.591 0.137-2.042 0.274-4.052 0.554-6.079 0.488-3.548 0.893-7.148 1.017-10.73 0.257-7.406-0.752-14.402-5.799-20.169-3.999-4.57 0.342-3.927 4.097-3.51 4.24 0.486 8.49 0.959 12.75 1.431"/>
	<path id="path25" fill="#B4D4CF" d="m182.86 69.089c2.862 0.293 7.114 2.484 9.92 1.149 1.813-0.862 2.083-2.806 4.313-3.306 1.446-0.325 3.319 0.178 4.743 0.431 1.925 0.342 8.642 0.449 6.161 2.627-2.152 1.89-4.305 3.78-6.456 5.669-1.048 0.919-2.938 3.388-4.305 3.779-1.425 0.408-4.688-0.938-6.113-1.223l-7.86-1.572c-1.305-0.261-2.237-8.307-3.07-9.835-0.843-1.547-1.979-3.116-3.854-3.403-1.141-0.174-4.69-0.693-4.69 0.578 0 4.268 3.265 8.205 4.889 12.003-2.492-4.217-4.983-8.434-7.476-12.65 4.72 0.003 13.19-0.581 13.81 5.753"/>
	<path id="path27" fill="#B4D4CF" d="m76.479 74.552c-0.67-2.587-1.341-5.175-2.012-7.762 0.844 2.41 2.385 5.131 2.012 7.762"/>
	<path id="path29" fill="#B4D4CF" d="m178.55 79.44c-0.191 3.45-0.383 6.9-0.574 10.351 0.18-3.451 0.38-6.901 0.57-10.351"/>
	<path id="path31" fill="#B4D4CF" d="m184.3 80.014c-0.24 5.863-2.72 11.995-0.862 17.826 1.529-3.82 1.996-8.302 2.337-12.378 0.155-1.847-0.453-4.955 1.761-4.771 3.043 0.253 6.086 0.507 9.129 0.76-0.944 6.8-1.89 13.6-2.834 20.4-0.19 1.371-15.682 2.572-17.868 2.889 4.791-2.326 5.154-7.337 5.392-12.075 0.14-2.992-1.49-13.67 2.94-12.651"/>
	<path id="path33" fill="#B4D4CF" d="m144.04 94.39c-1.533 0.958-3.067 1.917-4.601 2.875 2.149-1.81-0.51-2-0.862-3.449-0.684-2.809 2.687-3.593 4.889-4.888 0.95 1.744 0.69 3.578 0.57 5.462"/>
	<path id="path35" d="m262.21 93.24c4.275 2.354 13.892 16.144 6.9 19.552-2.063 1.005-4.599-0.543-6.612 0.144-1.894 0.646-1.939 2.906-2.732 4.888-1.529 3.824-3.717 7.55-4.455 11.645-0.365 2.024-0.399 4.072 0.215 6.038 0.573 1.835-1.589 1.725-2.947 2.875-2.389 2.021-3.078 4.438-2.3 7.188 1.153 4.07 0.362 2.305-2.587 5.319-3.403 3.479-2.216 6.432-0.719 10.494-4.059 0.102-5.388 3.267-6.183 6.757-0.371 1.629-0.509 1.938-0.144 3.449 0.22 0.909 1.15 1.351 1.15 2.443 0 2.857-3.754 1.351-4.6 3.883-0.425 1.271-0.623 2.683-1.223 3.881-0.961 1.923 0.066 2.62 1.222 4.6-3.003 0.524-5.263 4.293-5.606 7.188-0.199 1.677 0.53 3.222-0.032 5.091-0.423 1.405-2.059 2.879-2.976 4.025-1.127 1.41-1.778 2.878-1.629 4.669 0.208 2.505 0.941 2.338-1.4 3.897-3.521 2.344-4.278 5.21-1.295 8.194-5.305 1.146-6.374 5.863-10.494 8.481-5.403 3.435-7.106-5.737-11.069-7.906 1.647-0.979 4.151-1.705 5.176-3.451 1.791-3.052-1.883-5.371-3.738-7.474 1.603-1.205 3.752-2.373 4.745-4.17 1.561-2.822-0.528-5.086-1.87-7.618 2.585-0.755 7.299-3.661 6.901-6.9-0.173-1.408-2.577-3.814-3.45-4.889 1.974-1.159 5.055-2.113 6.325-4.169 1.851-2.993-0.926-6.156-2.301-8.769 4.893-3.036 8.359-3.479 4.021-9.553-1.256-1.758 6.789-4.976 5.754-9.279-0.308-1.28-1.17-1.813-1.724-2.875-0.553-1.059-1.218 0.266-1.007-1.582 0.146-1.28 1.995-2.22 3.02-2.731 2.222-1.11 4.449-3.127 3.162-5.895-0.854-1.838-2.325-1.597-3.811-2.587-2.014-1.343 2.897-3.932 3.588-4.375 1.66-1.068 1.793-4.052 2.302-5.862 2.042-7.262 4.085-14.524 6.127-21.786 0.292-1.039-2.862-3.316-3.679-4.131-2.539-2.538-1.887-5.008 0.562-7.213 4.016-3.615 10.774-5.462 16.043-5.367 0.972 0.018 3.61-0.097 4.456 0.432 0.939 0.587 0.377 2.028 1.869 2.587 2.55 0.95 4.88-2.122 7.05 0.861"/>
	<path id="path37" fill="#B4D4CF" d="m244.96 91.802c-1.654 0.629-4.842 3.229-6.325 2.013 1.9-1.475 3.98-1.778 6.32-2.013"/>
	<path id="path39" fill="#B4D4CF" d="m93.155 102.73c-1.15 0.287-2.3 0.575-3.451 0.862v-1.438c1.605 0.75 1.522-0.948 2.443-1.87 0.196-0.196-0.324-2.425 0.001-3.162 0.507-1.149 1.935-1.865 2.946-2.444 2.443-1.398 6.029-1.538 5.104 2.587-0.616 2.739-5.051 3.949-7.045 5.469"/>
	<path id="path41" fill="#B4D4CF" d="m259.19 99.278c-3.49 0.586-1.563-3.675-2.443-5.462 2.99-0.126 2.29 3.804 2.44 5.462"/>
	<path id="path43" d="m41.403 94.39c-5.007 6.375-7.161 13.074-4.225 21.084 2.597 7.085 6.355 13.855 8.25 21.181 0.508 1.963 0.119 2.049 1.726 3.594 0.983 0.945 2.759 1.529 3.162 3.019 0.519 1.921-0.854 2.676 0.288 4.672 0.835 1.462 2.217 2.682 2.875 4.241 0.483 1.146-0.109 3.625 0.288 4.313 0.752 1.301 3.191 0.654 4.025 2.875 1.189 3.168-1.785 8.243 3.451 8.913-2.158 3.828 0.858 6.32 2.811 9.249 2.428 3.644-0.422 6.864 3.586 10.303 1.832 1.572 1.935 2.798 2.516 4.888 0.478 1.718-1.503 1.261 0.703 2.363 0.739 0.369 1.272 1.154 1.64 1.891 1.68 3.363-0.146 9.278 4.845 10.121-3.07 4.354 3.755 7.663 3.88 11.789 0.097 3.187-1.136 4.395 3.02 5.462-5.225 4.84 5.695 6.757 0.863 10.782-1.509 1.257 0.549 4.788-0.432 6.756-3.103 6.227-13.393-10.146-14.412-12.313-1.098-2.333-2.288-4.459-3.845-6.52-0.601-0.795-1.897-1.676-1.539-2.678 0.49-1.373 0.776-2.52 0.03-3.863-1.011-1.821-2.958-2.816-4.395-4.251-2.687-2.684 0.138-3.802-0.493-6.314-0.31-1.236-1.059-2.04-1.941-2.875-0.31-0.294-1.03-0.547-1.437-0.647-1.593-0.395-0.118-0.961-0.432-2.228-1.163-4.691-7.039-7.313-5.319-12.65-7.491 0.138-0.608-10.476-8.05-10.927 2.929-5.531-2.541-5.604-4.745-9.199-1.324-2.16 0.779-3.931 0.145-5.464-0.462-1.117-1.476-1.432-2.301-0.574-0.92-1.879-0.354-4.194-1.293-6.038-0.537-1.056-1.111-1.161-1.868-2.014-1-1.126-1.469-1.158-2.182-3.12-1.837-5.055-4.147-9.851-6.371-14.741-1.117-2.457-2.384-4.846-3.524-7.296-0.577-1.24-1.98-5.776-3.154-6.307-5.849-2.642-11.698-5.283-17.547-7.924 11.291-11.77 25.364-17.595 41.401-19.54"/>
	<path id="path45" fill="#B4D4CF" d="m260.78 102.73c0.91 0.064 1.621-0.476 2.014-1.438 1.579 1.284 1.765 3.667 3.449 4.887 1.003-2.527-0.641-5.384-2.012-7.476 2.168 3.403 4.029 6.957 4.887 10.926-10.907-4.957-22.199-8.483-33.926-10.926 6.655-1.57 15.118 6.946 16.675-3.45-0.02 5.026 4.78 6.676 8.92 7.476"/>
	<path id="path47" fill="#B4D4CF" d="m37.952 97.265c-1.359 2.508-3.806 15.112-6.9 14.376 1.656-4.75-1.266-14.997 6.9-14.375"/>
	<path id="path49" fill="#DCECF2" d="m140.02 106.18c0-1.91-1.313-4.323-0.432-5.75 0.876-1.419 3.391-1.129 4.456-2.587 0.5 3.327 0.01 7.727-4.03 8.337"/>
	<path id="path51" fill="#B4D4CF" d="m27.602 113.08c-1.982-3.534-3.866-7.747-4.744-11.715-0.319-1.441 3.554-1.838 4.744-2.085v13.805"/>
	<path id="path53" fill="#DCECF2" d="m102.64 107.62c-3.45 2.108-6.9 4.217-10.351 6.326 0.482-1.285 1.545-2.1 2.156-3.306 0.399-0.788 0.666-1.645 0.792-2.517 0.084-0.585-0.725-2.326-0.647-2.515 0.509-1.229 4.121-2.993 5.463-2.732 2.25 0.44 2.53 2.84 2.59 4.75"/>
	<path id="path55" fill="#B4D4CF" d="m23.289 114.52c-3.75-1.928-6.523-6.446-8.914-9.775 1.892-0.43 2.507-1.773 4.313-0.574 2.441 1.62 4.341 7.59 4.601 10.35"/>
	<path id="path57" fill="#DCECF2" d="m175.96 117.97c1.198-1.303 2.485-2.484 3.738-3.737 1.701-1.703 1.576-3.047 2.443-5.031 0.152-0.349-0.435-1.537 0.012-1.606 1.305-0.204 2.61-0.408 3.915-0.611 1.595-0.25 4.953-1.721 5.316 0.167 2.28 11.81-8.42 7.67-15.42 10.82"/>
	<path id="path59" fill="#B4D4CF" d="m144.91 107.04c0.115 3.275 0.051 8.579-4.313 8.912-0.25-3.9-1.19-8.73 4.31-8.91"/>
	<path id="path61" fill="#B4D4CF" d="m251 112.5c-1.795 6.726-6.447 14.128-5.462 21.276 3.953-3.558 4.595-8.394 6.043-13.46 0.72-2.52 1.2-5.285 2.295-7.672 0.572-1.248-0.035-2.156 1.473-2.156h4.852c-0.767-0.767-1.533-1.533-2.3-2.299 1.825 0.932 3.832 1.601 5.75 2.299-5.65 0.786-8.004 6.198-9.564 11.106-0.784 2.463-1.477 4.963-2.224 7.438-0.557 1.848-2.888 5.614-0.862 6.757-5.242 2.837-12.668 1.438-18.4 1.438 0.901-3.144 10.275-1.129 5.836-5.128-0.107-0.097 3.97-10.741 4.401-12.294 1.189-4.282 2.321-8.513 4.511-12.407 1.12-2.03 5.78 2.07 3.64 5.09"/>
	<path id="path63" fill="#B4D4CF" d="m243.52 108.19c-2.292 6.877-4.585 13.755-6.877 20.632-0.03 0.09-0.03 0.09 0 0 2.3-6.87 4.59-13.75 6.88-20.63"/>
	<path id="path65" fill="#B4D4CF" d="m17.826 117.97c-4.004-1.256-9.499-3.158-11.788-6.9 4.623 1.54 8.15 3.65 11.788 6.9"/>
	<path id="path67" fill="#B4D4CF" d="m104.94 117.39c-3.038 2.518-7.463 2.756-10.35 5.464 4.467-2.667 0.992-9.58 6.469-11.357 4.84-1.56 2.06 3.57 3.88 5.9"/>
	<path id="path69" fill="#B4D4CF" d="m33.64 114.52c1.719 6.533 10.237 16.343 7.26 23.146-0.713 1.629-1.631 2.593-2.948 2.587-0.176-0.001-0.774-2.577-1.582-1.365-0.965 1.448 2.687 3.733-0.432 4.672-3.363-8.661-7.074-17.006-11.787-25.013 2.068-1.543 3.879 4.573 4.823 6.303 1.597 2.925 2.83 6.157 4.665 8.935-1.029-6.178-3.632-11.862-5.462-17.826 1.784-0.46 3.826-0.65 5.463-1.45"/>
	<path id="path71" fill="#DCECF2" d="m145.48 123.43c-2.3 1.438-4.601 2.875-6.9 4.313 6.049-0.819-0.774-8.813 4.979-11.026 2.19-0.84 1.92 5.57 1.92 6.72"/>
	<path id="path73" fill="#DCECF2" d="m97.18 131.77v-1.438c1.822 0.432 3.36-1.766 3.45-3.449 0.105-1.965-1.594-2.337 0.432-4.313 1.155-1.126 3.148-1.597 4.456-2.587 4.48 6.73-2.45 10.31-8.34 11.79"/>
	<path id="path75" fill="#B4D4CF" d="m186.31 130.33c-4.265 0.221-8.001 2.711-12.363 2.014 3.508 0.562 5.16-4.976 6.038-7.476 0.758-2.157-0.55-2.91 2.301-3.882 1.816-0.62 3.731 0.044 5.462-1.005 1.33 3.23 0.16 7.38-1.44 10.35"/>
	<path id="path77" fill="#B4D4CF" d="m140.02 137.23c5.294 0.697-2.584-8.949 2.946-9.986 3.016-0.565 3.035 2.882 2.372 5.53-0.65 2.59-2.7 4.21-5.32 4.46"/>
	<path id="path79" fill="#B4D4CF" d="m108.97 137.23c-1.713 1.311-7.99 5.638-9.777 4.313 5.073 0.156 0.731-9.133 5.319-10.927 4.18-1.63 4.57 3.81 4.46 6.62"/>
	<path id="path81" fill="#DCECF2" d="m186.31 134.64c-0.276 2.412-2.938 5.809 0 7.476-4.601 0.479-9.2 0.958-13.801 1.438 2.132 0.669 2.445-0.643 3.45-2.012 0.534-0.728 2.309-2.365 2.588-2.876 1.126-2.058-0.601-2.77 2.301-3.738 1.65-0.55 3.73-0.04 5.46-0.29"/>
	<path id="path83" fill="#DCECF2" d="m146.34 144.13c-2.108 1.438-4.217 2.875-6.325 4.313l3.45-3.45c-1.01-0.416-1.812-1.352-2.085-2.443-0.722-2.888 2.016-3.832 4.097-5.319 0.04 2.33 0.88 4.54 0.86 6.9"/>
	<path id="path85" fill="#B4D4CF" d="m245.54 147.58h1.438c-4.572 2.768-11.725 1.858-16.677 0.863 2.198-1.695 4.8 0.572 6.9-1.438-2.528-1.699-1.398-6.831 1.438-7.764 1.715-0.564 5.763 1.067 7.583 1.404 0.43 0.08-0.58 6.09-0.68 6.94"/>
	<path id="path87" fill="#B4D4CF" d="m46.29 144.99c-2.3 3.163-4.6 6.325-6.9 9.488-0.605-3.797-0.503-9.991 2.3-13.082 3.442-3.8 3.25 1.44 4.6 3.59"/>
	<path id="path89" fill="#DCECF2" d="m111.84 147c-2.473 2.2-5.811 4.036-9.201 4.025 5.447-1.388 0.179-9.896 5.516-10.713 3.93-0.59 2.13 4.57 3.68 6.69"/>
	<path id="path91" fill="#B4D4CF" d="m183.43 146.14c-0.295 2.557-0.349 6.354-2.875 7.906-2.377 1.46-6.976 0.122-9.488-0.143 6.7 0.6 5.59-8.15 12.36-7.77"/>
	<path id="path93" fill="#DCECF2" d="m47.44 158.79c-1.533 1.342-3.066 2.684-4.599 4.025 1.401-5.443-0.023-11.053 4.599-15.239 1.854 3.54 3.679 8.22 0 11.21"/>
	<path id="path95" fill="#B4D4CF" d="m146.34 148.44c0 4.471-0.174 10.804-6.325 10.351 1.387-0.68 2.768-1.416 4.024-2.301-4.45-2.03-1.74-7.83 2.3-8.05"/>
	<path id="path97" fill="#B4D4CF" d="m114.43 157.36c-2.779 1.342-5.558 2.684-8.337 4.025v-1.438c1.555 0.546 2.687-1.253 2.875-2.588 0.224-1.591-1.228-2.035 0-4.026 0.776-1.259 2.218-2.123 3.449-2.875 0.69 2.32 1.37 4.6 2.02 6.92"/>
	<path id="path99" fill="#DCECF2" d="m241.51 159.94c0.771 0.543-0.972 0.846-2.012 1.149-1.527 0.446-3.17 0.441-4.744 0.431-2.819-0.02-5.652-0.143-8.481-0.143 2.288-1.54 5.696 0.656 7.476-2.014-3.527 0.12-1.765-6.899-0.402-6.899 1.333 0 6.38-0.818 7.302 0 0.94 0.84 0.69 6.1 0.85 7.47"/>
	<path id="path101" fill="#B4D4CF" d="m51.752 166.27c-1.15 1.15-2.299 2.301-3.449 3.451-1.675-5.016-0.291-8.815 3.449-12.363 0.984 2.72 3.843 6.97 0 8.91"/>
	<path id="path103" fill="#DCECF2" d="m181.42 157.36c-0.111 2.166-3.363 7.028 0.575 7.475-3.45 0.288-6.9 0.575-10.351 0.863 4.91-1 3.88-9 9.77-8.34"/>
	<path id="path105" fill="#DCECF2" d="m141.46 169.72c1.15-1.15 2.3-2.301 3.45-3.451-1.004-0.289-1.688-0.658-2.013-1.293-0.555-1.084-0.06-4.089 0.646-5.032 2.125-2.839 2.784 3.204 2.659 4.457-0.29 2.84-1.71 5.07-4.75 5.31"/>
	<path id="path107" fill="#DCECF2" d="m110.41 171.73h-1.438c2.285-1.326 2.54-12.478 6.324-10.927 1.86 0.763 0.881 5.444 0.288 6.614-1 1.98-3.16 3.55-5.17 4.32"/>
	<path id="path109" fill="#B4D4CF" d="m236.62 164.26c2.722 3.089-2.971 7.043 0 9.487-2.761 2.091-11.249 1.2-14.376 0 2.887-0.177 5.695 1.234 8.05-1.149-2.899-1.933-4.677-3.187-1.94-6.47 2.1-2.52 5.38-2.13 8.27-1.87"/>
	<path id="path111" fill="#DCECF2" d="m53.766 177.2c-0.98 0.791-2.078 1.304-2.875 2.299-0.836-4.63 0.802-10.617 4.313-13.8 2.817 4.13 1.859 7.82-1.438 11.5"/>
	<path id="path113" fill="#B4D4CF" d="m179.41 174.61c-2.849 0.899-5.915 1.766-8.913 1.438 2.825-0.396 5.116-8.556 7.476-7.764 2.35 0.78-1.68 4.95 1.43 6.32"/>
	<path id="path115" fill="#B4D4CF" d="m146.92 178.63c-1.029 0.242-2.083 0.727-2.875 1.438 0.614-2.806-2.219-7.163 0.432-9.057 2.94-2.09 2.19 6.01 2.45 7.62"/>
	<path id="path117" fill="#B4D4CF" d="m118.74 175.18c-1.466 3.016-4.511 4.976-7.763 5.463 2.2-1.98 5.87-13.54 7.76-5.46"/>
	<path id="path119" fill="#B4D4CF" d="m57.791 186.97c-0.597 0.543-1.354 0.968-2.012 1.438 0.982-4.879-1.784-9.975 2.875-13.8 2.58 4.33 3.36 8.77-0.863 12.36"/>
	<path id="path121" fill="#DCECF2" d="m231.74 177.2c2.57 2.933-2.865 7.418 0.863 9.199-4.104 0.942-10.146 1.822-13.801-0.862 2.323 0.374 5.316 0.487 7.476-0.575-6.34-1.78-0.16-10.27 5.46-7.76"/>
	<path id="path123" fill="#DCECF2" d="m176.54 178.63c1.295 4.261-2.13 5.277-5.464 6.324-0.16-2.92 3.16-5.17 5.46-6.32"/>
	<path id="path125" fill="#DCECF2" d="m143.47 191.86c5.4-0.333-2.642-8.812 3.449-10.351 0.51 3.51 1.93 10.03-3.45 10.35"/>
	<path id="path127" fill="#DCECF2" d="m62.103 197.32c-0.798 0.465-1.498 0.384-2.012 1.438 0-4.914-0.875-10.667 2.587-14.664 2.975 3.95 3.916 9.98-0.575 13.22"/>
	<path id="path129" fill="#DCECF2" d="m117.31 185.53c-1.8-0.29-0.11-2.94 0 0"/>
	<path id="path131" fill="#B4D4CF" d="m174.52 186.97c-2.233 2.065-1.952 5.664-2.875 8.338-2.83-2.528 2.713-5.185 1.438-8.338h1.44"/>
	<path id="path133" fill="#B4D4CF" d="m228.29 191.86c-0.032 1.835-3.482 4.333-0.575 5.463h-13.227c1.812-1.252 3.809-0.432 5.822-0.432 2.527 0 1.929-3.566-0.359-3.02 0.647-2.083 0.492-4.109 2.875-4.887 2.2-0.71 4.86 0.72 5.47 2.88"/>
	<path id="path135" fill="#B4D4CF" d="m145.48 201.34h-1.438c1.899-1.099 3.426-1.171 1.653-2.947-1.895-1.898-0.983-4.929 1.222-5.966 0.64 2.4 2.28 8.24-1.43 8.92"/>
	<path id="path137" fill="#B4D4CF" d="m67.565 203.64c-1.342 0.863-2.683 1.726-4.025 2.589 1.177-4.313 0.807-7.921 3.451-11.789 2.173 2.34 4.271 7.2 0.574 9.2"/>
	<path id="path139" fill="#DCECF2" d="m224.26 202.78c-1.131 1.424-2.497 4.803-1.438 6.326h-12.362c2.559 0 5.279 0.102 7.476-1.438-1.631-1.075-1.657-5.721 0-6.901 1.41-1.01 6.15-0.04 6.32 2.01"/>
	<path id="path141" fill="#B4D4CF" d="m72.454 212.56c-1.15 1.15-2.3 2.3-3.451 3.45 0.158-4.127-1.475-9.1 2.013-12.363 1.068 2.61 4.515 6.44 1.438 8.91"/>
	<path id="path143" fill="#DCECF2" d="m144.04 214c4.748-2.069-0.808-7.646 2.875-10.351 0.58 4.17 1.82 8.15-2.88 10.35"/>
	<path id="path145" fill="#B4D4CF" d="m220.81 211.7c-0.78 2.534-3.299 5.125-1.438 7.763-4.117-0.746-8.327 1.766-12.364 0.575 2.716-0.987 6.055-0.544 8.339-2.588-6.55-5.24 1.27-5.15 5.46-5.75"/>
	<path id="path147" fill="#DCECF2" d="m73.029 224.92c-0.192 0.191-0.383 0.382-0.575 0.573 2.977-3.213-1.869-8.977 2.251-12.64 1.573-1.397 2.499 4.282 2.133 5.381-0.805 2.43-2.32 4.63-3.809 6.69"/>
	<path id="path149" fill="#B4D4CF" d="m148.93 217.45c-0.862 0.671-1.726 1.342-2.588 2.013 0.1-1.356-1.074-4.179 0.431-5.032 1.61-0.91 2.22 1.66 2.16 3.02"/>
	<path id="path151" fill="#B4D4CF" d="m78.492 221.47c0.733 2.524 1.315 11.3-3.451 10.351 1.046-3.19 0.317-8.24 3.451-10.35"/>
	<path id="path153" fill="#B4D4CF" d="m149.79 222.91c-0.287-0.287-0.574-0.575-0.861-0.862-0.671 0.959-1.343 1.917-2.014 2.876-0.513-0.14-1.46-0.38-2.012-0.576 0.76-1.15 5.78-5.36 4.88-1.44"/>
	<path id="path155" fill="#DCECF2" d="m213.05 226.93c-1.66 0.657-3.169-0.25-2.73-2.157 0.403-1.756 2.753-2.071 4.168-2.73 0.36 1.62-0.24 3.73-1.44 4.89"/>
	<path id="path157" fill="#B4D4CF" d="m81.367 235.27c-0.671 0.671-1.342 1.343-2.013 2.014 0.479-2.3 0.958-4.601 1.438-6.9 0.173 1.7 2.283 3.45 0.575 4.89"/>
	<path id="path159" fill="#DCECF2" d="m81.941 240.16c-1.145-0.854-0.177-2.143 0.863-2.875 0.134 1.01 0.116 2.26-0.863 2.88"/>
</g>
<metadata><rdf:RDF><cc:Work><dc:format>image/svg+xml</dc:format><dc:type rdf:resource="http://purl.org/dc/dcmitype/StillImage"/><cc:license rdf:resource="http://creativecommons.org/licenses/publicdomain/"/><dc:publisher><cc:Agent rdf:about="http://openclipart.org/"><dc:title>Openclipart</dc:title></cc:Agent></dc:publisher><dc:title>Architetto -- viti</dc:title><dc:date>2010-03-28T12:31:01</dc:date><dc:description>Drawing by Francesco 'Architetto' Rollandin. From OCAL 0.18 release.</dc:description><dc:source>http://openclipart.org/detail/34987/architetto----viti-by-anonymous</dc:source><dc:creator><cc:Agent><dc:title>Anonymous</dc:title></cc:Agent></dc:creator><dc:subject><rdf:Bag><rdf:li>clip art</rdf:li><rdf:li>clipart</rdf:li><rdf:li>metal</rdf:li><rdf:li>screw</rdf:li><rdf:li>tool</rdf:li></rdf:Bag></dc:subject></cc:Work><cc:License rdf:about="http://creativecommons.org/licenses/publicdomain/"><cc:permits rdf:resource="http://creativecommons.org/ns#Reproduction"/><cc:permits rdf:resource="http://creativecommons.org/ns#Distribution"/><cc:permits rdf:resource="http://creativecommons.org/ns#DerivativeWorks"/></cc:License></rdf:RDF></metadata></svg>
