<?xml version="1.0"?>
<svg xmlns:rdf="http://www.w3.org/1999/02/22-rdf-syntax-ns#" xmlns="http://www.w3.org/2000/svg" xmlns:cc="http://web.resource.org/cc/" xmlns:dc="http://purl.org/dc/elements/1.1/" xmlns:sodipodi="http://inkscape.sourceforge.net/DTD/sodipodi-0.dtd" xmlns:svg="http://www.w3.org/2000/svg" id="Layer_1" style="enable-background:new 0 0 241.246 248.856" xml:space="preserve" sodipodi:version="0.32" viewBox="0 0 241.246 248.856" version="1.0" sodipodi:docname="Decorazione.svg" sodipodi:docbase="F:\openclip\svg3">
<sodipodi:namedview id="base" bordercolor="#666666" borderopacity="1.0" pagecolor="#ffffff"/>
<g id="g3" clip-rule="evenodd" fill-rule="evenodd">
	<path id="path5" d="m237.71 4.822c6.161 48.617 2.242 98.345 2.948 147.42 0.431 29.891-0.536 60.337-3.931 89.437-31.291 8.284-71.36 6.88-113.02 6.88-41.203 0-84.086 1.415-122.85-1.966-2.349-53.159 0.784-108.88 1.965-164.13 2.492 51.407-3.918 106.59 0 161.18 10.077 1.095 20.896 1.544 31.451 1.966 53.667 2.146 113-1.356 163.15-1.966 12.069-0.146 23.922 1.555 34.399-2.948 8.24-69.307 5.355-156.82 4.914-233.91-76.1-5.889-155-6.472-230.98-3.924-4.398 24.545-0.677 51.138-1.961 78.626-1.473-28.321-3.531-52.959 0.983-80.591 84.69-1.832 152.9-0.988 232.93 3.931z"/>
	<path id="path7" d="m86.356 48.066c-0.623 3.636-5.519 2.999-9.828 2.948 0.16-1.143-0.217-1.749-0.983-1.965 2.414-5.224 8.229 1.146 10.811-0.983z"/>
	<path id="path9" d="m16.576 13.667c-0.72 78.05-4.417 143.71-1.966 219.17 74.565 3.09 136.25 2.599 208.36-3.932 7.549-58.589-0.052-118.56 3.932-179.86 0.021 59.442 5.435 126.95-2.949 182.8-25.021 2.314-58.744 5.927-82.557 2.948-40.83 2.727-89.208 3.706-129.73 0-1.633-77.317 3.712-149.11 1.965-223.1 70.696 0.301 142.23-0.948 211.31 2.948 3.118 8.788 2.966 14.766 2.948 26.536-2.75-5.439-1.405-14.975-2.948-21.622 0.361-1.671-0.767-1.854-1.966-1.965-69.67-5.004-132.55-3.986-206.39-3.93z"/>
	<path id="path11" d="m212.16 218.09c-60.347 9.048-126.34 4.953-189.68 7.863-0.021-66.716 2.424-134.99 2.948-199.51 56.843-3.062 126.78-6.885 186.74 0 4.275 21.455 3.658 47.352 3.931 69.78 0.51 43 1.14 85.06-3.94 121.87zm-18.68-110.07c-4.187 2.366-10.633 2.472-8.846 10.811 32.613-4.84 30.57-53.35 26.536-88.454-15.479 13.677-31.108 27.206-45.21 42.262 0.612 2.664 4.106 2.446 3.932 5.896 13.647-6.664 18.946-21.676 33.416-27.519 1.87 20.783 3.68 48.483-9.83 57.005zm-1.96 0c7.567-7.843-0.37-27.358 3.932-42.261-20.724 14.659-39.657 31.106-54.056 52.089 9.317-0.526 24.378 5.772 30.468-0.983-2.534-0.236 1.35-1.691 0-3.931-2.021-2.565-9.866 0.693-11.794-1.966 8.269-8.479 15.941-22.663 26.536-25.553-0.85 6.32-3.25 19.543 4.91 22.603zm16.71-79.61c-22.202-3.773-52.117-4.124-72.729 0.982-0.532 3.48 3.479 2.417 2.948 5.897 16.022-2.406 31.724-4.558 47.175 0-19.935 25.93-47.668 44.062-68.797 68.798 3.154 0.777 4.294 3.568 6.88 4.914 26.76-28.279 58.33-51.749 84.53-80.59zm-106.15 3.931c-0.573 3.85 4.043 2.509 4.914 4.914 11.69-12.023 24.665 1.455 31.451 8.845 8.78-14.58-25.19-27.182-36.36-13.759zm7.86 12.777c-3.782 4.653-15.349 9.599-7.863 16.708 9.482-7.226 17.772-15.644 27.519-22.604-6.663-7.041-14.174 1.961-19.656 4.914-0.22-1.858 1.107-2.168 0.983-3.932-21.431-9.901-46.769-15.604-77.636-11.794 12.203 17.281 27.516 31.453 41.279 47.175 3.451 0.175 3.232-3.32 5.897-3.931-7.825-15.435-25.012-21.508-31.45-38.33 22.177-1.612 43.919 11.761 60.93 11.794zm9.83 29.485c-13.665 1.4-17.337-12.389-25.553-20.639-9.93 22.142 40.966 40.623 42.261 11.794-9.17-1.458-7.96 7.949-16.71 8.845zm-92.383 18.673c0.407 5.962 0.02 14.652 6.88 17.69 6.78-4.889 1.365-14.54 0.983-22.604-0.652-13.763 1.203-24.415 1.965-34.399 22.667 19.923 39.423 45.754 63.883 63.883-0.19-3.794 4.565-2.643 3.932-6.88-27.186-27.618-51.866-54.347-76.66-82.56 0.55 20.264-2.528 42.21-0.983 64.866zm74.693-63.883c-2.537-0.788-9.521-2.207-11.794 0 3.463 1.253 9.944 5.595 11.794 0zm35.38 22.605c2.556 0.394 2.965 2.933 5.897 2.949 2.87-5.923 10.573-16.568 18.674-10.811-4.625 4.477-12.437-0.121-13.76 7.862 12.465 2.828 22.453-4.075 26.536-12.776-14.51-6.465-34.59-1.298-37.35 12.776zm-70.76-4.915c-0.68-3.955 4.139-2.413 3.931-5.897-2.987 0.617-8.465-1.258-9.828 0.983 2.587 1.018 3.31 3.898 5.897 4.914zm1.966 0.983c-1.534 13.552 26.646 11.821 29.485-1.966-5.381-2.803-6.622-0.457-10.811 1.966 0.3-8.694-17.7-8.605-18.674 0zm60.934-1.965c0.566 2.472 6.475 5.238 6.88 1.966-3.665 1.044-1.556-3.686-4.914-2.948-0.22 0.765-0.83 1.142-1.97 0.982zm-12.78 6.879c12.314 3.738 21.256 10.85 30.467 17.691 1.741-1.208 3.982-1.915 4.915-3.931-7.47-7.378-24.41-25.546-35.38-13.76zm38.33 9.829c2.636-1.623 4.351-4.167 6.88-5.897-4.163 0.984-10.748 1.745-14.743 0 0.67 3.914 4.93 4.246 7.86 5.897zm-48.15 2.948c2.893 8.164 19.759 7.471 21.623-0.983-7.09-7.472-16.42-7.492-21.62 0.983zm91.4-4.914c5.824 7.403 0.188 21.203 2.948 30.467 1.705-9.848 1.903-21.46 0-32.433-0.41 1.236-1.27 2.009-2.95 1.966zm-115.98 1.966c-0.074 1.712 0.219 3.057 0.983 3.932 3.177-0.426 3.901-3.307 5.897-4.915-3.525 0.359-3.601 2.639-6.88 0.983zm-4.914 15.725c1.328 0.965 1.964 2.623 2.948 3.932 6.041-3.46 10.791-8.21 14.743-13.76-5.142-10.648-13.673 4.506-17.691 9.828zm-34.399 8.845c-0.439 26.184-25.001 35.157-12.777 59.952 1.425-1.852 1.445-5.107 3.932-5.897-3.163-23.228 19.259-29.167 16.708-55.038 4.331 2.221 5.669 7.435 10.811 8.845 1.472-1.477 1.758-4.138 3.931-4.914-6.093-9.96-14.577-17.528-22.605-25.553-2.935 9.687 0.125 15.179 0 22.609zm53.073-9.828c3.248 6.915 13.663 15.162 20.64 21.622 6.974-9.774 21.998-16.605 25.553-26.536-6.653 5.565-12.938 14.372-23.587 13.759-7.068-0.406-13.57-4.199-17.691-10.811-1.69-0.388-2.519 1.458-2.948 0 0.546 0.003 1.116-0.796 0-0.983-0.08 1.55-2.498 0.77-1.957 2.949zm62.895 1.966c2.432 2.483 3.867 5.962 6.88 7.863 1.018-2.587 3.897-3.31 4.914-5.897-2.57-3.951-9.72-11.042-11.79-1.966zm-66.827 15.725c6.952 7.393 17.326 16.192 23.588 20.64 2.02-0.929 2.031-3.866 4.914-3.932-10.36-11.262-20.838-22.406-32.433-32.433-7.448 4.638-1.469 9.977 3.936 15.725zm62.897-13.76c-10.741 13.83-27.182 21.959-36.365 37.347 28.365 32.242 57.805 63.409 91.403 90.42 4.946-17.771 3.483-38.797 1.966-57.004-15 6.225-3.044 26.539-8.846 40.296-23.576-25.238-51.76-45.867-72.729-73.712 9.094-11.873 22.095-19.838 30.467-32.433-1.62-1.981-2.63-4.579-5.89-4.925zm-99.261 32.438c2.307 0.313 3.689 1.553 6.879 0.983 0.295-10.189 8.535-12.433 10.812-20.639-3.313-0.292-2.851-4.357-5.897-4.915-5.114 7.007-10.901 13.344-11.794 24.574zm-3.931-1.97c4.844-2.363 4.501-9.914 6.88-14.742-2.004-0.289-1.927-2.659-3.931-2.948-0.767 5.648-0.393 11.83-2.949 17.69zm119.9-11.79c0.697 7.821 2.364 14.671 1.966 23.588 3.703-0.755 4.697 1.199 7.862 0.983 2.51-10.64 0.07-38.157-9.83-24.57zm-102.21 4.91c1.593 4.304 7.558 4.236 7.863 9.828-9.43 6.587-23.373-1.098-32.433 0 0.151 2.445-1.544 3.042-1.966 4.914 11.993 5.869 40.96 8.327 49.141-2.949-6.326-5.795-11.231-13.012-18.673-17.69-1.397 1.88-3.733 2.82-3.932 5.9zm136.61 11.79c3.018 1.599 4.263 10.112 7.862 7.863-2.421-3.119 2.532-18.114-1.965-20.639-0.42 5.81-4.07 8.39-5.9 12.78zm-138.58-1.96c3.003 0.71 3.582-1.005 5.897-0.983-0.067-2.882-2.247-3.65-3.932-4.914-0.873 1.74-2.743 2.49-1.965 5.89zm-38.33 2.95c0.421-1.872 2.117-2.469 1.965-4.914-1.416 0.525-2.398-3.83-2.948-0.983 3.031 0.34-2.588 5 0.983 5.89zm72.727 14.74c5.28-6.126 15.631-17.355 4.914-19.657-12.463 13.09-25.018 26.088-36.364 40.295 1.995 2.265 3.902 4.616 5.897 6.88 2.924-7.34 17.993-18.73 25.557-27.51zm91.4-12.78c2.352 7.099 9.806 9.12 9.828 16.708 0.032 11.06-13.956 16.388-26.536 10.812 0.256 2.877-2.223 3.02-1.966 5.896 15.882 10.349 39.483 3.386 37.348-16.708-0.929-8.728-8.649-13.067-11.794-21.622-2.04 1.89-5.71 2.14-6.88 4.91zm-77.64 0.99c-2.675 2.239-6.068 3.76-6.88 7.862 13.762 12.119 24.262 27.5 39.313 38.33 1.22-2.056 2.858-3.693 4.914-4.914-12-15.73-24.07-26.16-37.34-41.28zm25.56 4.91c6.413 8.002 11.883 16.946 21.622 21.622 0.984-1.31 1.62-2.967 2.948-3.932-1.366-6.169-8.808-6.262-10.811-11.794 14.993-0.529 34.588 2.724 43.244 11.794 1.01-2.266 3.383-3.169 2.948-6.88-10.97-11.5-40.58-14.22-59.95-10.81zm57 3.93c-2.256-1.348-3.16-4.048-4.914-5.897-1.723 0.898-4.904 0.338-5.897 1.966 4.11 0.17 8.47 5.24 10.81 3.93zm-157.25 2.95c1.793-2.794 6.306-2.867 7.863-5.897-3.711-5.55-10.898 2.05-7.863 5.9zm12.777-3.93c-29.382 7.141-30.041 48.023-27.519 83.54 7.719-3.27 11.695-12.517 20.639-22.604 5.983-6.75 27.415-20.391 15.725-27.52-3.258-0.887-4.263 5.46-5.896 2.948 0.142-1.161 1.75-2.228 0-2.948-2.974 2.269-10.137 0.347-14.743 0.982-0.187 5.405-3.827 12.524-0.983 17.691 3.224-2.595 6.268-9.772 10.811-7.862-5.78 5.686-10.205 12.727-17.69 16.708-2.482-25.202 4.983-45.143 18.673-55.038 1.903 3.339 2.029 8.454 3.932 11.793 3.48 0.532 2.417-3.479 5.896-2.948 0.134-6.357-1.675-10.773-1.965-16.708-2.611-0.01-5.613 0.372-6.88-0.983v2.95zm9.828-0.98v6.88c2.905 0.146 6.937-2.857 7.863 0.982-3.841 10.521-18.085 14.954-29.485 14.742-1.424 2.46-2.38 3.859-0.983 6.88 27.191 1.311 36.683-15.08 47.176-30.467-10.071 0.1-15.822-0.96-24.571 0.99zm41.279 2.94c-18.959 23.901-41.592 44.568-60.935 66.832-6.25 7.194-14.885 15.212-16.708 25.553 25.449 0.706 45.51-1.257 62.9-6.879 16.405-5.305 32.096-15.57 41.279-26.536-5.187-6.108-10.644 2.153-14.742 4.914-20.371 13.717-50.012 26.072-77.643 19.656 23.07-27.382 50.431-50.473 72.729-78.626-1.88-2.04-2.69-5.17-6.89-4.9zm58.97 21.63c2.556 0.394 2.965 2.933 5.897 2.948 3.451-5.722 7.514-10.832 8.846-18.674-3.802 0.526-4.798-1.754-8.846-0.982-0.56 6.97-5.75 9.31-5.9 16.7zm18.67-8.85v2.948c4.509 1.577 6.677 0.071 11.794 0-0.75-3.87-8.32-4.93-11.79-2.95zm-92.382 28.5c5.636-0.002 8.707-5.904 15.726-6.88 15.1-2.099 25.138 6.685 32.433 10.812 1.017-2.587 3.897-3.311 4.914-5.897-9.549-8.47-18.783-17.254-27.519-26.536-8.89 8.95-18.962 17.27-25.542 28.51zm-27.519-13.76c2.08 6.015 8.335 12.541 10.812 2.949-2.195-4.96-7.954-11.52-10.812-2.95zm139.56 24.57c0.757-7.05 1.32-12.784 0-19.657-10.022 2.947-17.697-1.786-25.553-3.931 7.81 4.95 16.57 16.62 25.55 23.59zm-64.87-1.96c1.416 0.55 2.398 1.533 2.949 2.948 8.5-3.948 15.089-9.81 19.656-17.69-8.26-8.67-15.95 9.55-22.61 14.74zm-45.207-3.93c1.951 0.67 2.249 2.993 3.931 3.932 15.254-15.665 35.045-0.223 41.278 14.742 2.852-0.752 5.653-1.555 6.88-3.932-8.46-15.88-35.72-35.11-52.087-14.74zm68.797-6.88c-1.879 1.397-3.517 3.035-4.914 4.914 8.848 12.447 22.33 20.259 30.468 33.416-12.383 6.437-31.68 6.099-45.21 1.966-8.479-2.589-16.593-11.978-22.605-5.896 15.417 15.599 64.085 21.395 84.523 5.896-11.07-9.72-27.24-28.32-42.27-40.3zm-81.573 6.88c9.057 7.651 16.067 17.35 28.502 21.622 0.274-2.019 2.625-1.961 3.931-2.948-9.402-8.289-18.986-16.395-29.484-23.588-0.884 1.74-2.373 2.87-2.949 4.92zm25.553 5.89c1.911 4.968 6.282 7.477 9.828 10.811 3.251-3.301 7.895-5.21 9.828-9.828-5.09-6.3-13.05-4.36-19.66-0.98zm-29.485 1.97c3.379-0.43 5.509 0.389 7.863 0.983 0.157-2.778-2.953-2.289-2.949-4.914-2.881 0.06-3.65 2.24-4.914 3.93zm71.745 6.88c3.177-3.728 13.42-2.166 16.708-2.948-3.9-9.58-16.32-3.07-16.71 2.95zm-85.504 2.95c-1.68 16.578 29.64 5.433 27.519-5.897-1.953-0.013-1.25-2.682-3.932-1.966-4.758 3.656-9.761 15.677-17.69 9.828-0.084-9.143 12.512 0.085 12.776-7.862-7.438-5.04-18.052-0.23-18.673 5.9zm112.04 6.88c0.088-14.746-36.503-10.322-40.296 1.966 8.694 6.362 22.83-14.614 31.45-1.966-4.445 7.158-11.494-5.05-16.708 1.966 3.57 9.46 25.5 7.68 25.56-1.97zm-70.77-1.97c-2.639-0.687-6.249-5.48-7.862-3.932 2.284 1.99 4.902 8.36 7.862 3.93zm-17.686 0.98c5.499 12.392 16.049-1.3 2.949-4.914-0.577 2.05-2.066 3.18-2.949 4.91zm-37.348 13.76c13.617-2.108 29.92-1.53 39.313-7.863-7.24 0.965-25.57 7.453-27.519-5.896-3.007 5.52-9.731 7.31-11.794 13.76zm63.884 0.99c-4.981-0.996-8.282-4.467-12.776-0.982 3.487 10.143 24.154 7.688 28.501 0-5.06-5.5-8.81 0.51-15.73 0.98zm18.67 4.91c5.698-1.584 12.81 3.037 14.742-0.982-6.41 0.1-11-4.11-14.74 0.98z"/>
</g>
<metadata><rdf:RDF><cc:Work><dc:format>image/svg+xml</dc:format><dc:type rdf:resource="http://purl.org/dc/dcmitype/StillImage"/><cc:license rdf:resource="http://creativecommons.org/licenses/publicdomain/"/><dc:publisher><cc:Agent rdf:about="http://openclipart.org/"><dc:title>Openclipart</dc:title></cc:Agent></dc:publisher><dc:title>Architetto -- Decorazione</dc:title><dc:date>2009-05-01T21:22:57</dc:date><dc:description>Celtic ornament by Francesco 'Architetto' Rollandin.</dc:description><dc:source>http://openclipart.org/detail/25699/architetto----decorazione-by-anonymous-25699</dc:source><dc:creator><cc:Agent><dc:title>Anonymous</dc:title></cc:Agent></dc:creator><dc:subject><rdf:Bag><rdf:li>black and white</rdf:li><rdf:li>celtic</rdf:li><rdf:li>clip art</rdf:li><rdf:li>clipart</rdf:li><rdf:li>decoration</rdf:li><rdf:li>image</rdf:li><rdf:li>knotwork</rdf:li><rdf:li>media</rdf:li><rdf:li>medieval</rdf:li><rdf:li>ornament</rdf:li><rdf:li>outline</rdf:li><rdf:li>png</rdf:li><rdf:li>public domain</rdf:li><rdf:li>svg</rdf:li></rdf:Bag></dc:subject></cc:Work><cc:License rdf:about="http://creativecommons.org/licenses/publicdomain/"><cc:permits rdf:resource="http://creativecommons.org/ns#Reproduction"/><cc:permits rdf:resource="http://creativecommons.org/ns#Distribution"/><cc:permits rdf:resource="http://creativecommons.org/ns#DerivativeWorks"/></cc:License></rdf:RDF></metadata></svg>
