<?xml version="1.0"?>
<svg xmlns:rdf="http://www.w3.org/1999/02/22-rdf-syntax-ns#" xmlns="http://www.w3.org/2000/svg" xmlns:cc="http://creativecommons.org/ns#" xmlns:dc="http://purl.org/dc/elements/1.1/" xmlns:svg="http://www.w3.org/2000/svg" id="svg2" viewBox="0 0 300 200" version="1.1">
  <title id="title4069">Pointer</title>
  <g id="layer1" transform="translate(0 -852.36)">
    <g id="g4055" transform="matrix(.37425 0 0 -.37734 3.4534 1056.3)">
      <path id="path4057" d="m777 314c2-15 2-30 2-46 0-81-19-169-27-244-32 15-81 55-124 86-16 12-22 14-29 14-1 0-9-1-19-1h-5c-14-3-24-5-33-5-13 0-23 3-35 8-9-4-17-5-25-5-7 0-14 1-22 1-28 0-48 1-86 11-4 2-15 7-20 10-21 16-25 16-32 25-8 10-11 28-12 36-17 16-28 28-33 42-2 5-2 10-2 15 0 11 3 22 7 31-23 17-35 35-35 55 0 8 2 17 6 26h4c-5 12-2 17 5 27h-15c-55 0-100 9-159 9h-8l-33 4h-4c-23 0-43 22-43 44 0 8 3 17 11 24 9 8 30 24 49 25 65 4 134 6 199 6 75 0 145-3 195-8 78-18 150-80 205-118 37-26 82-41 118-72zm-311-156c3-10 11-9 6-19 6-1 11-1 15-1 6 0 11 1 20 4 8-2 13-6 21-7h3c9 0 24 3 37 5 12 1 22 4 31 3 25-4 113-75 132-88 8 73 28 142 28 214 0 14 0 27-2 41-36 27-72 35-110 62-56 38-107 90-181 112l-14 3c-39 4-87 6-140 6-77 0-164-3-250-7-17-1-29-7-35-13s-4-17-3-24c3-13 12-24 53-24h10c44 0 117-9 157-9h29l20 5c7 2 4 4 38 7 10 10 30 7 45 10 29 5 24 6 58 6 6 4 9 4 13 4h2c4 0 10 0 21 2 33 4 22-2 4-6-28-5-27-3-38-9-33 0-42-5-72-9-8-2-13-1-20-3-5-2-14-3-33-11h16c28 0 53-4 53-18 0-1 0-2-1-4-3-13-43-30-61-32-16 13-34 34-36 50-6-2-10-16-10-16-8-12-1-18 4-25 15-17 37-21 65-21 10 0 20 0 31 1 13 1 53 9 86 9 14 0 26-2 34-6 34-15 90-72 129-88-44 2-95 45-121 65-7 6-22 14-28 14 10-7 11-18 1-29 6 1 13 2 20 2 17 0 34-5 35-21v-1c0-30-38-51-52-57 17-3 36-6 41-18 2-2 4-7 4-12 0-16-13-42-55-47zm-144 248c-8-1-13 0-23-2 2-13 8-15 23-28 15 2 45 8 45 18 0 2-1 4-3 6-5 4-26 6-42 6zm124-67c-32-4-61-9-94-12h-1c-31 3-69 12-81 36-4-9-6-17-6-24 0-15 10-27 33-41 25-2 50-4 77-4 34 0 61 5 73 12 6 4 12 14 12 22 0 6-3 11-12 11h-1zm31-84c20 11 29 22 29 31 0 8-8 13-21 13-7 0-16-2-26-6-34-15-74-16-86-16-26 0-46 3-74 7-4-10-12-17-7-30 4-12 15-17 31-33 6-2 13-3 20-3 8 0 17 1 25 2 23 3 87 14 109 35zm-15-29-65-19c-17-4-33-7-51-7-5 0-11 0-17 1 1-5 2-10 7-17 7-9 21-25 43-33 31-8 50-11 71-11h9c6 7-2 11-4 17-7-2-21-1-21-1-12 0-28 0-31 1 24 14 70 7 86 33 3 7 4 13 4 18 0 15-13 18-25 18h-6z" fill="currentColor"/>
    </g>
  </g>
  <metadata>
    <rdf:RDF>
      <cc:Work>
        <dc:format>image/svg+xml</dc:format>
        <dc:type rdf:resource="http://purl.org/dc/dcmitype/StillImage"/>
        <cc:license rdf:resource="http://creativecommons.org/licenses/publicdomain/"/>
        <dc:publisher>
          <cc:Agent rdf:about="http://openclipart.org/">
            <dc:title>Openclipart</dc:title>
          </cc:Agent>
        </dc:publisher>
        <dc:title>pointer</dc:title>
        <dc:date>2012-05-06T09:03:43</dc:date>
        <dc:description>A pointing finger</dc:description>
        <dc:source>http://openclipart.org/detail/169880/pointer-by-frankes</dc:source>
        <dc:creator>
          <cc:Agent>
            <dc:title>frankes</dc:title>
          </cc:Agent>
        </dc:creator>
        <dc:subject>
          <rdf:Bag>
            <rdf:li>Finger</rdf:li>
            <rdf:li>Hand</rdf:li>
            <rdf:li>Zeichen</rdf:li>
            <rdf:li>Zeigefinger</rdf:li>
            <rdf:li>auf</rdf:li>
            <rdf:li>clip art</rdf:li>
            <rdf:li>clipart</rdf:li>
            <rdf:li>finger</rdf:li>
            <rdf:li>hand</rdf:li>
            <rdf:li>lineart</rdf:li>
            <rdf:li>point</rdf:li>
            <rdf:li>pointer</rdf:li>
            <rdf:li>sign</rdf:li>
            <rdf:li>zeigen</rdf:li>
          </rdf:Bag>
        </dc:subject>
      </cc:Work>
      <cc:License rdf:about="http://creativecommons.org/licenses/publicdomain/">
        <cc:permits rdf:resource="http://creativecommons.org/ns#Reproduction"/>
        <cc:permits rdf:resource="http://creativecommons.org/ns#Distribution"/>
        <cc:permits rdf:resource="http://creativecommons.org/ns#DerivativeWorks"/>
      </cc:License>
    </rdf:RDF>
  </metadata>
</svg>
