<?xml version="1.0"?>
<svg xmlns:rdf="http://www.w3.org/1999/02/22-rdf-syntax-ns#" xmlns="http://www.w3.org/2000/svg" xmlns:cc="http://web.resource.org/cc/" xmlns:xlink="http://www.w3.org/1999/xlink" xmlns:dc="http://purl.org/dc/elements/1.1/" xmlns:svg="http://www.w3.org/2000/svg" space="preserve" viewBox="0 0 406 379.262" enable-background="new 0 0 406 379.262" overflow="visible">
  <g id="Calque_1">
    <path d="m268.7 113.7c0.1-0.1 0.1-0.2 0.1-0.3-15.6-9.7-30.8-19.8-45.8-30.1-9.7-6.6-19.3-13.4-28.9-20.1-5.1-3.1-10-6.4-14.9-9.6-0.1-0.1-0.3-0.1-0.4-0.1 0 0.1-0.1 0.2-0.1 0.3-0.1 0.1-0.2 0.1-0.3 0.1 14.1 11.2 28.6 22.1 43.3 32.8 2.5 1.8 5.2 3.5 8.1 5 11 8.8 22.2 17.5 33.6 25.8 0 0 0.2 0.1 0.3 0.1 1.6-1.4 3.2-2.7 5-3.9z" fill="#080808"/>
    <path d="m257.4 122.7c0.4 0 0.7-0.4 0.8-0.9 1.2-0.3 1.4-0.7 0.4-1.1-0.2-0.1-0.2-0.1-0.4-0.1-4.1-3.2-8.3-6.1-12.8-8.9h-0.4c-3.8-3.3-7.9-6.3-12.3-8.9-0.1 0-0.2-0.1-0.4-0.1h-0.3c-0.2-0.3-0.4-0.5-0.5-0.8-0.2 0-0.3-0.1-0.4-0.1-8.9-6.4-18.4-12.1-28.5-17.3v0.4c0.8 0.6 1.7 1.1 2.6 1.6 0.1 0.1 0.2 0.1 0.3 0.1 0.3 0.6 0.7 1.1 1.2 1.4 0.1 0.1 0.1 0.2 0.1 0.3 15 10.4 29.6 21.1 43.8 32.3 2.4 1.8 4.7 2.6 6.8 2.1z" fill="#0A0A0A"/>
    <path d="m281.9 149.5c-0.1 0-0.2-0.1-0.3-0.1-0.2 0-0.3 0.1-0.4 0.1-0.2 0.1-0.3 0.2-0.5 0.4-0.1 0-0.3 0-0.3 0.1-1.6 2.3-3.5 4.4-5.6 6.2 2.3 1.2 3.6 2.8 3.8 4.7v0.8c0.2 0.7 0 1-0.4 0.9v0.8c0.2 0.7 0 1-0.5 0.9v0.4c-0.3 1.6-0.7 3-1.3 4.3v0.4c0 0.2 0 0.3 0.1 0.4 0.2 0.6-0.1 0.9-0.5 0.9v0.4c0 0.2 0 0.3 0.1 0.4 0.1 0.6 0 0.9-0.5 0.9v0.4c0 0.2 0 0.3 0.1 0.4 0.1 0.6-0.1 0.9-0.5 0.9v0.8c0.2 0.6 0 0.9-0.4 0.9 0 0.1 0 0.2-0.1 0.4-0.1 1-0.3 1.9-0.8 2.5v0.9c0.2 0.6 0 0.9-0.5 0.8v0.5c0 0.1 0 0.2 0.1 0.4 0.2 0.6 0 0.9-0.4 0.8v0.9c0.2 0.6 0 0.9-0.5 0.8v0.5c-0.2 0.9-0.5 1.7-0.8 2.5v0.9c0.1 0.6 0 0.9-0.4 0.8v0.9c0.2 0.6 0 0.9-0.5 0.8v0.8c0.2 0.7 0 1-0.4 0.9v1.3c0.2 0.1 0.3 0.3 0.4 0.5v0.3h0.5c0.4 0 0.8 0.1 1.2 0.2v0.3h0.8c0.5 0 0.9 0 1.3 0.1 0.1 0.1 0.1 0.1 0.1 0.3 6-12.3 11.3-25.2 16-38.7 0.1-0.1 0.1-0.2 0.1-0.4-3-2.2-6-4.3-9-6.3z" fill="#030303"/>
    <path d="m270.1 166.9c0-0.2 0-0.3-0.1-0.4-0.1-0.2-0.2-0.3-0.3-0.5-0.2 0-0.3 0.1-0.3 0.1-5 6.2-10 12.2-15 18.2 2.8 2.8 5.9 3.7 9 2.6 0.5-0.1 0.7-0.6 0.7-1.4v-1.2h0.5v-0.5c2-5.3 3.8-10.8 5.4-16.5 0.1-0.2 0.1-0.3 0.1-0.4z" fill="#070707"/>
    <path d="m174.6 229.8h-0.5c-0.6 0.1-0.9 0-0.8-0.5h-2.6v0.2c-1.4-0.2-3.4-0.7-5.9-1.5 0 0.2 0 0.3-0.1 0.3-0.4 0.1-0.8 0.1-1.2 0.1 0 0.2 0 0.3-0.1 0.4-0.2 0.2-0.5 0.3-0.7 0.5v5.1c1.4 3 3.3 3.4 5.6 1.4 0.2-0.3 0.5-0.1 0.8 0.5 0.2 0.2 0.3 0.6 0.4 1h1.2c1.3-0.7 2.5-1.4 3.8-2.2 0-0.1 0.1-0.2 0.1-0.3v-0.4h1.6v-1.7c-0.2-1.3-0.8-2.3-1.6-2.9z" fill="#040404"/>
    <path d="m124 246.7v0.2c-0.4 0.2-0.8 0.2-1.3 0.2h-1.2s-0.3 0-0.5 0-0.5 0-0.8 0h-1.7c0 0.2 0 0.2-0.1 0.2-0.3 0.2-0.7 0.2-1.2 0.2h-1.2s-0.3 0-0.5 0-0.5 0-0.8 0h-1.3c0 0.2 0 0.3-0.1 0.3-0.3 0.1-0.7 0.2-1.2 0.2h-3.8c6.8 2.4 13.6 4.8 20.4 7.1 0.1 0.1 0.3 0.1 0.4 0.1h1.2v-0.9c1.1-2 2-4.3 2.5-6.8 0.1-0.1 0.1-0.2 0.1-0.4 0-0.1 0-0.3-0.1-0.3 0-0.2-0.1-0.4-0.3-0.5h-3v0.2c-0.4 0.1-0.8 0.2-1.2 0.2h-4.3z" fill="#030303"/>
    <path d="m300.7 125.7l4.6 3.4-2.9 7.2-6.8-6.8-5.2 8.1 7.5 10.1-9.7-8-2.8 4.7v0.8l10.9 9.5-0.4 1.5c0.2 0.4 0.2 0.7 0 1.2-0.1 0.1-0.2 0.1-0.3 0.1l-0.5 1.7c0.1 0.3 0.1 0.6 0.1 0.9v0.2c-0.1 0.1-0.1 0.1-0.1 0.2h-0.4l-0.8 3-0.1 1.7-6.7 22.5c0 0.2 0 0.5 0.1 0.9 0 0 0 0.1-0.1 0.2h-0.2c0 0.1-0.1 0.1-0.2 0.1l-0.5 1.7c0.2 0.4 0.2 0.8 0 1.2v0.1h-0.4l-0.1 1.7-1.6 4.7 45.4-65-1.2-4.2-14.9-19.1-12.7 15.7z" fill="#020202"/>
    <path d="m118.5 53.5l6.3 5.6-22.6 23.7 7.4 4.2 22.7-24.6 5.3 6.4-19.1 24.6 4.7 3 22.1-25.7 6.7 3.6-20.8 27.6 6.8 6.8 22.1-28 7.7 4.1-23.4 26.4 6.4 3.5 22.9-23.2 6.4 1.9-22.5 27.6 5.9 5.5 23.8-27.2 8.9 6-20 29.3 7.3 5.1 22-30.2 7.7 4.3-20.8 30.1 5.9 5.1 21.7-28.6 9.3 5.3-21.6 28 5.5 4.7h1.3l26-24.8 1.6 0.5 7.2-4.2-141.8-95.9-39.1 29.7c1.1 1.8 2.7 3.2 4.8 4.2 0.8 0.5 1.5 0.4 2.2-0.1 10.3-8.1 20.8-16.2 31.2-24.5l4.3 5.4-20.9 24.3 4.7 6 23.8-25.5z" fill="#030303"/>
    <path d="m101.5 1.2h-1.7l-37.3 60.6 57.3-49.9-16.6-10.2-1.7-0.5z" fill="#020202"/>
    <path d="m276.4 109l16.6-15.6-180.9-93.4 164.3 109z" fill="#020202"/>
    <path d="m382.6 133.3l-2.2 0.4-3.3 9h1.7c0.2 0 0.2-0.1 0.3-0.1 0.1-0.1 0.1-0.2 0.1-0.4l3.4-0.3c0.2-0.1 0.2-0.1 0.3-0.2s0.1-0.2 0.1-0.3h1.7c0.2 0 0.3-0.1 0.4-0.1 0-0.1 0.1-0.2 0.1-0.3h1.2c0.2 0 0.3-0.1 0.4-0.1 0-0.1 0.1-0.2 0.1-0.4h1.7c0.1 0 0.2 0 0.3-0.1 0 0 0.1-0.1 0.1-0.3h1.3c0.1 0 0.2 0 0.2-0.1 0.1-0.1 0.2-0.2 0.2-0.3h1.7c0.1 0 0.2-0.1 0.3-0.1 0.1-0.1 0.1-0.2 0.1-0.3h1.3c0.1 0 0.2-0.1 0.3-0.1 0.1-0.1 0.1-0.2 0.1-0.4h1.7c0.2 0 0.3 0 0.3-0.1 0.1 0 0.1-0.1 0.1-0.3h1.3c0.2 0 0.3 0 0.3-0.1 0.1-0.1 0.1-0.2 0.1-0.3h1.3c0.2 0 0.3-0.1 0.3-0.1 0.1-0.1 0.1-0.2 0.1-0.3h1.7c0.2 0 0.3-0.1 0.4-0.1 0-0.1 0.1-0.2 0.1-0.4h1.2c0.2 0 0.3 0 0.4-0.1 0 0 0.1-0.1 0.1-0.3l2.1-0.4-4.3-0.9-2.1 0.1-0.8-0.5-11.5-1.3-3.8 0.1-0.9-0.5z" fill="#010101"/>
    <path d="m365.2 95.1l5.5 5.9 6.4-16.1-11.9 10.2z" fill="#0A0A0A"/>
    <path d="m382.2 169.4l-4.2 6.8 17.3 11.8-13.1-18.6z" fill="#070707"/>
    <path d="m154.2 207.6l-2.6-0.8-26.3-0.5-17.8 14.5 6.7 16.6 40-29.8z" fill="#020202"/>
    <path d="m209.4 185.2c0.1-0.1 0.2-0.1 0.3-0.2 0-0.1 0.1-0.2 0.1-0.3h1.3c0.1 0 0.2-0.1 0.3-0.1 0-0.1 0.1-0.2 0.1-0.3h1.3c0.1 0 0.2-0.1 0.2-0.1 0.1-0.1 0.2-0.2 0.2-0.4h1.7c0.1 0 0.2 0 0.3-0.1s0.1-0.1 0.1-0.3h0.9l5.1-11.4c0-0.2 0-0.3 0.1-0.3 0.2-0.1 0.4-0.2 0.7-0.2h0.4c0.2 0 0.3 0 0.4-0.1 0 0 0.1-0.1 0.1-0.3h2.5c0.2 0 0.2 0 0.3-0.1s0.1-0.2 0.1-0.3h2.2c0.1 0 0.2-0.1 0.3-0.1 0-0.1 0.1-0.2 0.1-0.3h1.7c0.1 0 0.2-0.1 0.3-0.1 0.1-0.1 0.1-0.2 0.1-0.4h2.1c0.2 0 0.3 0 0.4-0.1 0 0 0.1-0.1 0.1-0.3h1.2l1.3-0.8v-1.7c0.1 0 0.2-0.1 0.3-0.1 0.1-0.1 0.1-0.2 0.1-0.4v-2.1c0.2 0 0.3 0 0.3-0.1 0.1-0.1 0.1-0.2 0.1-0.3v-1.3c0.2 0 0.3 0 0.4-0.1 0-0.1 0.1-0.2 0.1-0.3 0-0.3 0-0.6 0.1-0.8 0-0.1 0.1-0.1 0.2-0.2h0.2l-0.1-2.4c0.1 0 0.2-0.1 0.3-0.1 0.1-0.1 0.1-0.2 0.1-0.3v-0.5l3-0.4c0.1 0 0.2 0 0.3-0.1s0.1-0.2 0.1-0.3h3c0.1 0 0.2-0.1 0.3-0.1 0.1-0.1 0.1-0.2 0.1-0.3h2.6l94.6-95-199.1 159.5 0.1 2-1.7 6.8-1.4 3.5 0.1 2-0.9 3.4-0.9 1.9-0.4 1.2-0.1 2.6-1.2 5.1-0.8 1.7v0.4c0.1 0.1 0.1 0.3 0.1 0.5 0 0 0 0.1-0.1 0.2h-0.2c0 0.1-0.1 0.1-0.2 0.1v2.2l13.1-6 13.5-33.1 34.5-17.8 10.2-12.4 3-0.3z" fill="#020202"/>
    <path d="m203.9 221.2l-0.2 0.7c-8.3 10.6-17.5 20.2-27.6 29-1.4 1.3-3 2.3-4.7 3.1-7.3 3.5-14.9 6.4-22.6 8.8l-10.3 2.4-16.6 21.8 8.4 7 23-18.9h1.3c0.1-0.1 0.3-0.2 0.4-0.4h1.3l0.4-0.4h1.7l0.4-0.4h1.3c0.2-0.2 0.3-0.3 0.4-0.5h1.3c0.2-0.1 0.3-0.2 0.4-0.4h1.3c0.2-0.1 0.3-0.3 0.4-0.4h1.7c0.2-0.2 0.3-0.3 0.5-0.4h1.2l0.5-0.5h1.2c0.2-0.1 0.3-0.2 0.5-0.4l3.4-0.3c0.1-0.1 0.2-0.1 0.3-0.2 0-0.1 0.1-0.2 0.1-0.3l3.4-0.4c0.1-0.1 0.2-0.3 0.4-0.5h1.3c0.1-0.1 0.2-0.3 0.4-0.4h1.3c0.1-0.2 0.2-0.3 0.4-0.4h1.3c0.1-0.2 0.2-0.3 0.4-0.5l154.6-197-132.9 149.9z" fill="#020202"/>
    <path d="m378 211.4c0.1 0 0.2 0 0.3-0.1 0 0 0.1-0.1 0.1-0.3l3.8-0.4-146.9-2.1-3 5.9 4.7 0.4c0.1 0 0.2 0 0.3-0.1 0 0 0.1-0.1 0.1-0.3h17.4c0.2 0 0.2 0 0.3-0.1s0.1-0.2 0.1-0.3h17c0.2 0 0.2-0.1 0.3-0.1 0.1-0.1 0.1-0.2 0.1-0.3h17.5c0.1 0 0.2-0.1 0.2-0.1 0.1-0.1 0.1-0.2 0.1-0.4h17.1c0.1 0 0.2 0 0.3-0.1 0 0 0.1-0.1 0.1-0.3h17.4c0.1 0 0.2 0 0.3-0.1s0.1-0.2 0.1-0.3h17c0.2 0 0.3-0.1 0.3-0.1 0.1-0.1 0.1-0.2 0.1-0.3h17.4c0.2 0 0.3-0.1 0.4-0.1 0-0.1 0.1-0.2 0.1-0.4h17z"/>
    <path d="m388.6 214.8c0.1 0 0.2 0 0.3-0.1 0 0 0.1-0.1 0.1-0.3l6-0.8c0.1 0 0.2-0.1 0.3-0.1 0-0.1 0.1-0.2 0.1-0.4h2.1l-3.8-0.4-0.7 0.4-9.1 0.5-0.6 0.4-8.7 0.4-0.7 0.4h-4l-0.6 0.4-18.5 1.3-0.6 0.4-8.8 0.5-0.6 0.4-13.8 0.9-22.7 6.8-12.8-2.5-19.9 8.9-15.7-3.4-18.1 6.8-0.6 0.3h-3.2l-0.6 0.4-3.6 0.1-0.7 0.4-11.7 0.8-0.6 0.5-4.9 0.4-8.5 13.6c0.3 0.1 0.6 0.3 0.9 0.5h0.4c0.2 0 0.3-0.1 0.3-0.2 0.1-0.1 0.1-0.2 0.1-0.3h1.7c0.2 0 0.3 0 0.3-0.1 0.1-0.1 0.1-0.2 0.1-0.3h1.7c0.2 0 0.3-0.1 0.4-0.1 0-0.1 0.1-0.2 0.1-0.4h1.7c0.1 0 0.2 0 0.3-0.1 0 0 0.1-0.1 0.1-0.3h1.7c0.1 0 0.2 0 0.3-0.1s0.1-0.1 0.1-0.3h1.3c0.1 0 0.2-0.1 0.3-0.2 0.1 0 0.1-0.1 0.1-0.2h2.1c0.2 0 0.3-0.1 0.4-0.1 0-0.1 0.1-0.2 0.1-0.3h1.2c0.2 0 0.3-0.1 0.4-0.2 0 0 0.1-0.1 0.1-0.3h1.9c0.1-0.2 0.2-0.3 0.2-0.4h1.7c0.1 0 0.2-0.1 0.3-0.1s0.1-0.2 0.1-0.3h2.1c0.2 0 0.3-0.1 0.4-0.1 0-0.1 0.1-0.2 0.1-0.4h1.7c0.1 0 0.2 0 0.3-0.1 0 0 0.1-0.1 0.1-0.3h1.3c0.1 0 0.2 0 0.2-0.1 0.1-0.1 0.2-0.2 0.2-0.3h1.7c0.1 0 0.2-0.1 0.3-0.2 0.1 0 0.1-0.1 0.1-0.2l3.8-0.4c0.2 0 0.3-0.1 0.3-0.1 0.1-0.1 0.1-0.2 0.1-0.4h1.7c0.2 0 0.3 0 0.4-0.1 0 0 0.1-0.2 0.1-0.3h1.7c0.1 0 0.2-0.1 0.3-0.1 0-0.1 0.1-0.1 0.1-0.3h1.7c0.1 0 0.2-0.1 0.3-0.1 0.1-0.1 0.1-0.2 0.1-0.4h1.3c0.1 0 0.2 0 0.3-0.1 0.1 0 0.1-0.1 0.1-0.2h1.7c0.2 0 0.3 0 0.3-0.1 0.1-0.2 0.1-0.3 0.1-0.4h1.7c0.2 0 0.3 0 0.4-0.1 0-0.1 0.1-0.2 0.1-0.3h1.7c0.1 0 0.2-0.1 0.2-0.1 0.1-0.1 0.2-0.2 0.2-0.4h2.1c0.2 0 0.3 0 0.3-0.1 0.1 0 0.1-0.1 0.1-0.3h1.3c0.2 0 0.2 0 0.3-0.1s0.1-0.1 0.1-0.3h1.7c0.2 0 0.3-0.1 0.4-0.1 0-0.1 0.1-0.2 0.1-0.3h1.7c0.1 0 0.2-0.1 0.2-0.1 0.1-0.1 0.1-0.2 0.1-0.3h1.8c0.1 0 0.2-0.1 0.3-0.2 0.1 0 0.1-0.1 0.1-0.3h2c0.1-0.2 0.1-0.3 0.1-0.4h1.7c0.2 0 0.3-0.1 0.3-0.1 0.1 0 0.1-0.2 0.1-0.3h1.7c0.2 0 0.3-0.1 0.4-0.1v-0.4h1.8c0.1 0 0.2 0 0.2-0.1 0.1 0 0.2-0.1 0.2-0.3h1.7c0.1 0 0.2 0 0.3-0.1s0.1-0.2 0.1-0.3h1.7c0.2 0 0.3-0.1 0.3-0.1 0.1-0.1 0.1-0.2 0.1-0.3h1.7c0.2 0 0.3 0 0.4-0.1v-0.4h1.7c0-0.1 0.1-0.2 0.1-0.4h2.1c0.1 0 0.2 0 0.3-0.1 0.1 0 0.1-0.2 0.1-0.3h1.2c0.2 0 0.3-0.1 0.4-0.1 0.1-0.1 0.1-0.1 0.1-0.3h1.7c0.2 0 0.3-0.1 0.3-0.1 0-0.1 0.1-0.2 0.1-0.4h1.7c0.2 0 0.2 0 0.4-0.1 0 0 0.1-0.1 0.1-0.2h1.7c0.1 0 0.2-0.1 0.3-0.2 0-0.1 0.1-0.2 0.1-0.3h1.6c0.2 0 0.3 0 0.4-0.2 0.1 0 0.1-0.1 0.1-0.2h1.7c0.1 0 0.2-0.1 0.3-0.1 0-0.1 0.1-0.2 0.1-0.4h1.3c0.1 0 0.2 0 0.3-0.1 0.1 0 0.1-0.1 0.1-0.3h2.1c0.1 0 0.3 0 0.4-0.1 0-0.1 0.1-0.1 0.1-0.3h1.6c0.2 0 0.3-0.1 0.4-0.1 0-0.1 0.1-0.2 0.1-0.3h1.3c0.1 0 0.2-0.1 0.2-0.2 0.1 0 0.2-0.1 0.2-0.2h2.1c0.2 0 0.2-0.1 0.3-0.2 0.1 0 0.1-0.1 0.1-0.3h1.6c0.1-0.1 0.1-0.2 0.1-0.4h1.7c0.2 0 0.3 0 0.4-0.1 0 0 0.1-0.2 0.1-0.3h1.7c0.1 0 0.2-0.1 0.3-0.1 0-0.1 0.1-0.1 0.1-0.3h1.7c0.1 0 0.2-0.1 0.3-0.1 0.1-0.1 0.1-0.2 0.1-0.4h2.1c0.2 0 0.3 0 0.4-0.1 0 0 0.1-0.1 0.1-0.2h1.2c0.2 0 0.3-0.1 0.4-0.2 0-0.1 0.1-0.2 0.1-0.3h1.7c0.1 0 0.2 0 0.3-0.1 0-0.1 0.1-0.2 0.1-0.3h1.7c0.1 0 0.2-0.1 0.3-0.1 0.1-0.1 0.1-0.2 0.1-0.4h1.7c0.1 0 0.2 0 0.3-0.1 0.1 0 0.1-0.1 0.1-0.3h1.7c0.2 0 0.2 0 0.3-0.1s0.1-0.1 0.1-0.3h1.3c0.2 0 0.3-0.1 0.3-0.1 0.1-0.1 0.1-0.2 0.1-0.3h2.2c0.1 0 0.2-0.1 0.2-0.1 0.1-0.1 0.2-0.2 0.2-0.4h1.7c0.1 0 0.2 0 0.3-0.1 0.1 0 0.1-0.1 0.1-0.3h1.7c0.2 0 0.2 0 0.3-0.1s0.1-0.2 0.1-0.3l3.5-0.4c0.1 0 0.2-0.1 0.3-0.1 0-0.1 0.1-0.2 0.1-0.4h1.7c0.1 0 0.2 0 0.3-0.1 0 0 0.1-0.1 0.1-0.3h1.7c0.1 0 0.2 0 0.3-0.1s0.1-0.2 0.1-0.3h1.7c0.2 0 0.3-0.1 0.3-0.1 0.1-0.1 0.1-0.2 0.1-0.3h1.7c0.2 0 0.3-0.1 0.4-0.1 0-0.1 0.1-0.2 0.1-0.4h1.2c0.2 0 0.3 0 0.4-0.1 0 0 0.1-0.1 0.1-0.3h2.1c0.1 0 0.2 0 0.3-0.1s0.1-0.2 0.1-0.3h1.7c0.1 0 0.2-0.1 0.3-0.1 0.1-0.1 0.1-0.2 0.1-0.3h1.3c0.1 0 0.2-0.1 0.3-0.1 0.1-0.1 0.1-0.2 0.1-0.4h2.1c0.2 0 0.3 0 0.4-0.1 0 0 0.1-0.1 0.1-0.3h1.7c0.1 0 0.2 0 0.2-0.1 0.1-0.1 0.2-0.2 0.2-0.3h1.3c0.1 0 0.2-0.1 0.3-0.1 0-0.1 0.1-0.2 0.1-0.3l4.2-0.4c0.2-0.1 0.3-0.1 0.4-0.2 0 0 0.1-0.1 0.1-0.3h1.2c0.2 0 0.3 0 0.4-0.1 0-0.1 0.1-0.2 0.1-0.3h1.7c0.1 0 0.2-0.1 0.3-0.1 0-0.1 0.1-0.2 0.1-0.3h1.7c0.1 0 0.2-0.1 0.3-0.1 0.1-0.1 0.1-0.2 0.1-0.4h1.7c0.2 0 0.3 0 0.3-0.1 0.1 0 0.1-0.1 0.1-0.3h1.3c0.2 0 0.3 0 0.3-0.1 0.1-0.1 0.1-0.2 0.1-0.3h2.2c0.1 0 0.2-0.1 0.3-0.1 0-0.1 0.1-0.2 0.1-0.3h1.7c0.1 0 0.2-0.1 0.3-0.1 0.1-0.1 0.1-0.2 0.1-0.4h1.7c0.1 0 0.2 0 0.3-0.1s0.1-0.1 0.1-0.3h1.7c0.2 0 0.2 0 0.3-0.1s0.1-0.2 0.1-0.3h1.7c0.2 0 0.3-0.1 0.4-0.1 0-0.1 0.1-0.2 0.1-0.3h1.2c0.2 0 0.3-0.1 0.4-0.1 0-0.1 0.1-0.2 0.1-0.4h1.7z" fill="#010101"/>
    <path d="m57.4 201.3l-8.1-3.9-1.1 0.1-1.7-0.4-3-0.5c-1.9-0.5-4.1-0.7-6.5-0.4-9.3 0.9-17.7 4.8-25.2 11.5-1.2 1.1-2.2 2.1-3.3 3.3-3.5 4-5.9 8.5-7.1 13.6 0 0.2-0.1 0.5 0 0.7l-0.6 2.7-0.2 4.3c-0.1 0-0.1 0.1-0.1 0.2-0.1 0.1-0.1 0.1-0.2 0.1s-0.2 0.1-0.3 0.1l0.4 7.6 0.5 2.6 0.9 1.5c0.8 7 4.2 12.5 9.9 16.3l-3.2-13.6-0.4-3-0.4-7.2c0.1 0 0.1 0 0.2-0.1 0.1 0 0.2-0.2 0.2-0.3v-3c0.1 0 0.2 0 0.3-0.1s0.1-0.1 0.1-0.3v-1.3h0.3c0.1-0.1 0.1-0.2 0.1-0.4v-1.3c0.2-0.1 0.3-0.3 0.3-0.4 1.3-2.9 3-5.4 5.1-7.6 5.1-5 11.1-8.6 18-10.6 0.2 0 0.3-0.1 0.3-0.1 0-0.1 0.1-0.2 0.1-0.4h1.3c0.1 0 0.2 0 0.3-0.1s0.1-0.2 0.1-0.3h1.2c0.2 0 0.3-0.1 0.4-0.2 0.1 0 0.1-0.1 0.1-0.2h2.1c0.2 0 0.3-0.1 0.4-0.1 0-0.1 0.1-0.2 0.1-0.4l14.9 1.7c2.5 0.9 5 2 7.6 3.1 4.2 1.9 7.5 4.8 9.6 8.7 0.1 0 0.2 0.1 0.4 0.1-0.1-1.1-0.4-2.2-0.8-3.3-3-7.2-7.4-13.5-13-18.7z" fill="#020202"/>
    <path d="m47.8 272.6l0.6 0.4h3c0.2 0 0.3 0 0.3-0.1 0.1-0.1 0.1-0.2 0.1-0.3 4.5 0.2 8.7-0.9 12.6-3.3 1.4-0.9 2.7-2.1 3.8-3.5 2.3-3 4.2-6.1 5.8-9.4 0.2-0.4 0.3-0.8 0.3-1.2l2.2-8.5 20.8-0.4c0.1 0 0.2 0 0.2-0.1 0.1-0.1 0.2-0.2 0.2-0.4 2.5 0 4-1.3 4.6-3.8 0.5-2.2 0.5-4.2 0.1-5.6-0.6-2.4-1.6-4.6-3-6.6l-31 2.9c-2.4 8.1-6.5 15.1-12.6 20.7-5.8 5.4-12.5 8.5-20.2 9.4l-0.5 0.4h-2.4l-2.3 0.9h-13.8l22.5 7.6 4.2 0.9h4.5z" fill="#010101"/>
    <path d="m55.7 225.5v2.4c-0.1 0-0.3 0.1-0.4 0.2-0.8 0.9-1.7 1.8-2.5 2.7-0.9 1-1.8 1.8-2.7 2.6-2.1 1.7-4.4 3-7 3.9l-3.6 0.5-1.1 0.5-4.8-1c0-0.2-0.1-0.4-0.2-0.5-0.4-0.4-0.9-0.7-1.4-1-1.3-1-1.8-2.3-1.5-3.9 0.5-2.6 1.3-5.1 2.5-7.6-3.2 1.2-6 3.2-8.2 6-1.7 1.9-3.1 3.9-4.3 6-0.8 1.1-1 2.3-0.8 3.5 1 4.8 3.8 8 8.5 9.6 1.3 0.5 2.7 0.9 4.2 1.1 1.1 0.1 2.1 0.4 2.9 0.9h2.5c0.2 0 0.2-0.1 0.3-0.1 0.1-0.1 0.1-0.2 0.1-0.4h1.3c0.2 0 0.3 0 0.3-0.1 0.1 0 0.1-0.1 0.1-0.3 2.2-0.1 4.2-0.6 6-1.6 5.8-2.8 9-7.4 9.8-13.6 0.1 0 0.2-0.1 0.2-0.2 0.1-0.1 0.2-0.2 0.2-0.3v-1.3c0.1 0 0.2 0 0.3-0.1s0.1-0.1 0.1-0.3l-0.8-7.6z" fill="#020202"/>
    <path d="m141.8 331.2c0.1-0.9 0.2-1.7 0.1-2.6-0.1-1.7-0.2-3.3-0.6-4.9-1.3-6-3.8-11.3-7.4-16l-10.7-10.9 1.7 5.3 0.9 2.5 1.7 6 0.4 4.7-0.1 8.7-0.3 4.2-0.6 3-0.4 1.7c-1.3 2.6-2.8 5.4-4.7 8.2-2.7 4.1-5.9 7.7-9.6 10.8l3.8-1.2 2.9-0.8c6.5-0.8 12.1-3.4 16.9-8 3.2-2.9 5.9-10.6 6-10.7z" fill="#020202"/>
    <path d="m80.208 284.56c-2.2 0.9-4.1 2.1-5.8 3.6-8.7 7.6-15.123 24.335-15.4 28.5s0 5.4 0.5 7.7c0.2 1.1 0.5 2.2 0.9 3.4 0.5 1.3 1 2.6 1.6 3.9 4.9 10.3 12.8 17.2 23.8 20.6 3 1 5.899 1.4 8.8 1.3-2.6 3.6-3.9 7.7-4.1 12.1 0 0-0.801 4.3-0.2 6.2 0.6 1.8 1.7 3.3 3.3 4.5 2.2 1.6 4.7 2.6 7.4 2.9 2.199-0.1 4.399-0.1 6.699-0.1 2-0.3 3.801-1.3 5.301-2.9 0.899-0.9 1.3-1.9 1.3-3 0.1-4.5-2.2-6.7-6.9-6.7-0.3 0.6-0.6 1.3-0.899 1.9-1 1.7-2.4 3.1-4.2 4-1.101-0.5-1.8-1.4-2.101-2.6-0.3-1.2-0.5-2.5-0.5-3.8l0.9-3.4 0.555-3.319 0.245-0.48s0.101-1.7 0.2-1.8c0 0.1 0 0.1 0.1 0 0 0 0-0.1 0.101-0.2v-0.1l0.5-3.4c-0.101-1-0.3-2-0.7-2.8-1.8-4.6-5.2-6.7-10.2-6.4-1.884-1.256-3.588-2.195-5.6-3-1.4-0.6-2.601-1.5-3.5-2.6-5.3-6.7-7.935-8.584-6.935-17.285l1.374-13.617 2.081-6.104c3.455-6.622 13.78-8.794 20.379-11.394 1.601-0.7 3.301-1 5.101-1 2.5-0.1 5.1-0.2 7.7-0.3-3.2-2.8-12-5-12-5-2.301-0.3-4.601-0.7-6.801-1.2-0.992-0.21-10.191 1.39-12.991 1.89z" fill="#010101"/>
    <path d="m88.8 319.7l0.9 3.2c0.1 2.1 0.8 4.1 2 6 2.3 3.5 5.7 5.3 10.2 5.3 0.2-0.7 4-0.9 5.3-1.1 6.4-1.6 11.2-5.2 14.3-10.8 0 0 0.2-1.6 0.4-1.7l0.4-2.1c-0.6-3.3-1.9-6.3-3.8-8.9-1.3-1.8-2.6-3-3.9-3.5l-0.3 6.5c-0.2 0.5-0.3 0.8-0.4 1.2-0.5 3.9-2.5 6.7-5.8 8.4l-2.5 0.5c-0.8 0.1-1.6 0-2.4-0.2-1.2-0.3-2.3-0.9-3.2-1.7-2.2-2.3-3.1-5-2.7-8.2l1.5-5.4c-1.4-0.1-2.7 0.5-4.1 1.7-2.7 2.6-4.6 5.7-5.5 9.6 0 0.1 0.1 1.2-0.4 1.2z" fill="#020202"/>
    <line x2="370.21" y1="113.57" x1="361.59" y2="105.81" fill="none"/>
    <line x2="367.62" y1="105.81" x1="370.21" y2="123.91" fill="none"/>
  </g>
  <metadata>
    <rdf:RDF>
      <cc:Work>
        <dc:format>image/svg+xml</dc:format>
        <dc:type rdf:resource="http://purl.org/dc/dcmitype/StillImage"/>
        <cc:license rdf:resource="http://creativecommons.org/licenses/publicdomain/"/>
        <dc:publisher>
          <cc:Agent rdf:about="http://openclipart.org/">
            <dc:title>Openclipart</dc:title>
          </cc:Agent>
        </dc:publisher>
        <dc:title>Architetto -- Forbici e petine</dc:title>
        <dc:date>2009-06-30T13:39:48</dc:date>
        <dc:description>Scissors and comb by Francesco Rollandin. From OCAL 0.18 release.</dc:description>
        <dc:source>http://openclipart.org/detail/26917/architetto----forbici-e-petine-by-anonymous</dc:source>
        <dc:creator>
          <cc:Agent>
            <dc:title>Anonymous</dc:title>
          </cc:Agent>
        </dc:creator>
        <dc:subject>
          <rdf:Bag>
            <rdf:li>black and white</rdf:li>
            <rdf:li>clip art</rdf:li>
            <rdf:li>clipart</rdf:li>
            <rdf:li>comb</rdf:li>
            <rdf:li>hairdresser</rdf:li>
            <rdf:li>image</rdf:li>
            <rdf:li>job</rdf:li>
            <rdf:li>media</rdf:li>
            <rdf:li>occupation</rdf:li>
            <rdf:li>public domain</rdf:li>
            <rdf:li>scissors</rdf:li>
            <rdf:li>svg</rdf:li>
            <rdf:li>tool</rdf:li>
          </rdf:Bag>
        </dc:subject>
      </cc:Work>
      <cc:License rdf:about="http://creativecommons.org/licenses/publicdomain/">
        <cc:permits rdf:resource="http://creativecommons.org/ns#Reproduction"/>
        <cc:permits rdf:resource="http://creativecommons.org/ns#Distribution"/>
        <cc:permits rdf:resource="http://creativecommons.org/ns#DerivativeWorks"/>
      </cc:License>
    </rdf:RDF>
  </metadata>
</svg>
