<?xml version="1.0"?>
<svg xmlns:rdf="http://www.w3.org/1999/02/22-rdf-syntax-ns#" xmlns="http://www.w3.org/2000/svg" xmlns:cc="http://web.resource.org/cc/" xmlns:dc="http://purl.org/dc/elements/1.1/" xmlns:svg="http://www.w3.org/2000/svg" id="Layer_1" style="enable-background:new 0 0 275.638 205.907" space="preserve" viewBox="0 0 275.638 205.907" version="1.1">
  <g id="g3" clip-rule="evenodd" fill-rule="evenodd">
    <path id="path5" stroke-width="0" stroke-miterlimit="10" d="m8.306 16.583c5.658-0.751 9.91-3.961 15.054-4.871 7.966-1.408 15.393-0.682 23.469 0.664 19.855 3.31 27.355 20.981 30.141 38.124 2.237 13.767 4.396 26.866 4.396 40.253 0 7.938-0.108 16.974 3.543 24.132 7.451 14.608 21.971 30.127 18.476 48.918-1.155 6.208-5.867 16.247-0.797 20.683 3.619 3.167 10.439-2.951 9.938-7.467-0.92-8.286-2.391-14.705 0.184-22.434 2.487-7.469 0.133-12.978-1.675-20.659 12.131 6.856 9.064 8.046 11.956 21.253 2.673 12.207 4.484 13.572 0 25.683 10.287-1.707 11.618-0.985 11.291-13.063-0.226-8.33-0.803-16.685-0.664-25.018 7.405 0.926 11.461-0.303 12.841 7.97 0.806 4.83-1.564 13.507-1.738 18.532-0.223 6.469-6.755 8.658-8.003 14.235 13.118-1.574 14.873-0.867 19.483-11.955 2.191-5.271 4.747-10.318 4.871-16.828 0.059-3.104-2.832-15.06 5.313-12.398 4.02 1.313 10.279 23.496 12.218 27.927 1.501 3.431-1.123 4.233 2.395 6.17 1.727 0.95 8.652 0.335 9.742-1.328 1.379-2.105-4.058-18.621-5.313-22.141-3.245-9.09-8.9-12.353-1.328-19.925 6.965-6.966 45.927 9.169 50.922 14.169 9.389 9.399 21.221 22.781 19.04 37.638-2.507 17.082-20.26 6.728-29.004 0.886-18.207-12.165-37.417-6.199-57.121-6.199-7.7 0-39.061 5.843-41.401 12.842-1.796 5.37 11.459-0.111 14.612-0.886 10.932-2.686 22.003-3.974 33.145-4.985 13.479-1.225 37.518 0.378 47.888 10.741 8.111 8.107 32.438 11.87 42.287 5.313 15.302-10.187 12.221-33.534 6.421-48.044-5.951-14.887-17.442-20.851-29.668-29.003-18.974-12.651-39.56-22.79-59.334-32.324-19.954-9.621-35.158-21.08-58.893-18.598-8.088 0.846-10.218 3.175-13.727-3.542-5.383-10.305-6.098-24.092-11.513-34.981-14.63-29.408-37.394-37.369-68.188-35.402-9.474 0.605-16.071-3.151-23.911 2.656-7.311 5.416-8.612 12.217 2.658 13.284"/>
    <path id="path7" d="m186.75 119.76c-0.567-1.132 0.713-8.815 0-9.299-1.796-1.218-5.485 4.738-7.085 5.756 0.412-2.907 1.589-5.699 2.657-8.414-10.642 4.817-9.41 25.704-19.927 30.997 6.446-7.52 8.768-20.107 9.3-29.667 4.953 0.35 5.787-7.51 0.442-8.856 1.319 5.123-0.247 9.953-3.986 3.543 0 9.765-1.398 19.192-6.198 27.896-2.753 4.993-7.945 8.021-8.414 11.954h-0.885c-4.363-8.285-5.897-27.334-4.871-36.752 0.461-4.235 3.497-17.252-1.771-7.084-2.644 5.103 0.131 15.991-2.657 18.597 0.374 5.08 2.165 9.904 2.214 15.056-16.787-11.187-3.271-21.083-6.199-36.31-6.649 3.043-6.469 15.883-5.756 22.141 0.745 6.535 8.23 17.125 0 17.269-2.245 0.039-6.318-3.339-8.855-3.985-3.045-0.776-5.731 1.959-8.856-1.329-4.876-5.129 0.514-13.096 2.656-17.268-3.723 3.138-5.347 9.802-7.084 14.612-4.712-3.594-1.771-11.756-3.101-16.384-1.219 6.244-0.885 13.303-0.885 19.925-6.484-4.64-7.686-17.425-6.199-24.795-6.701 6.351-0.663 22.9 3.984 25.682 0.443 3.39 1.127 8.926 2.658 11.955 1.962-3.017 0.814-7.83 0.886-11.955 3.154 4.768 3.605 14.609 2.656 20.367-0.123 0.746-1.806 5.01-2.435 7.528-1.195 4.785-0.892 10.391-1.551 15.055-0.314-0.819 0.975 6.438-2.657 5.757-3.45-0.647-0.174-7.898 0.665-10.406 3.471-10.383-2.555-23.473-2.437-34.316-0.329 0.405-1.098 1.066-1.771 1.771-3.59-7.876-8.404-13.487-12.841-20.146-5.774-8.668-0.547-12.455 3.099-19.262-12.1 6.855-4.592-15.177-3.985-19.484 1.938-13.758-2.919-27.364-6.863-39.188-4.582-13.735-8.808-23.578-23.246-29.446-8.372-3.402-16.021-4.872-25.019-4.872-4.94 0-11.241 3.776-11.733-3.099 12.712 1.674 26.367-2.521 40.072 0.221 8.837 1.769 28.488 16.257 28.56 24.132 7.162 9.133 14.17 23.932 14.17 35.646 0 5.28 0.987 20.41 7.972 18.376-0.565-0.52-1.568-2.124-2.214-2.656 22.395-6.557 47.227-0.049 66.198 13.506 8.578 6.129 21.4 10.146 31.217 15.054 14.111 7.056 27.819 17.188 39.852 27.232-0.19-0.4-0.485-0.548-0.885-0.443 11.14 7.996 23.328 19.11 25.682 33.21 3.411 20.429-6.316 34.817-27.453 33.653-15.512-0.854-26.648-15.324-41.624-18.154-22.29-4.213-46.68 2.188-67.747 8.854 9.437-10.641 38.041-11.751 51.808-12.84 8.16-0.646 17.678-0.683 25.239 3.1 9.131 4.566 19.825 11.915 29.668 14.612 15.646 4.288 22.29-11.641 19.704-24.575-4.725-23.628-30.677-36.69-50.479-45.166-7.46-3.19-16.96-4.83-23.69-7.29" fill="#fff"/>
    <path id="path9" d="m185.87 164.48c-3.987-3.978-7.477-12.479-6.643-18.154 2.82 5.45 5.31 12.09 6.64 18.15" fill="#fff"/>
    <path id="path11" d="m152.66 147.21c3.792-0.975 10.811-3.524 7.528-7.97-1.27 3.67-5.4 5.56-7.53 7.97" fill="#fff"/>
    <path id="path13" d="m159.3 148.98c2.089 5.8 1.856 12.406-2.657 16.384 3.15-5.66 1.35-10.01 2.66-16.38" fill="#fff"/>
    <path id="path15" d="m132.29 153.85c-0.36-0.855-0.592-1.775-0.886-2.657-1.306 2.21-2.584 23.923 0 25.684 3.06 2.09 1.3-19.52 0.89-23.02" fill="#fff"/>
    <path id="path17" d="m152.66 156.51c-0.701 4.056-1.792 9.594-5.313 11.069-0.017-3.924 1.665-8.535 0-11.512-0.585 4.93 0.064 11.762-1.55 16.605-1.298 3.894-4.173 5.795-5.535 9.52 10.323-1.986 10.822-5.458 13.948-14.834 0.98-2.97 1.75-16.9-1.55-10.86" fill="#fff"/>
    <path id="path19" d="m22.918 3.742c1.07 3.362 0.521 6.918-4.429 8.413-2.31 0.698-4.868-2.297-7.307-2.145-3.23 0.202-9.877 3.789-10.848 0.816-2.646-8.112 16.721-11.618 22.584-7.084" fill="#fff"/>
    <path id="path21" d="m16.276 11.27c-2.63 3.982-9.592 6.022-13.285 2.214 4.047-2.622 8.568-2.009 13.285-2.214" fill="#fff"/>
    <path id="path23" d="m111.92 150.75c-1.085 1.453-2.013 2.748-3.984 3.1-0.45-4.37 1.21-7.87 3.98-3.1"/>
    <path id="path25" d="m2.548 8.613c-0.164 0.281 0.979 1.078 1.329 1.328-0.111-0.148-1.843-0.989-2.213-1.328 0.441-0.172 2.446-0.684 2.655-0.886-0.335 0.203-1.762 0.904-1.771 0.886"/>
    <path id="path27" d="m15.389 3.742c-2.001-1.029-4.068-1.21-5.755 0 1.483 1.828 0.655 1.173 3.1 1.771-0.205-0.226-1.326-1.438-1.329-1.771 1.325 0 2.661 0.054 3.984 0"/>
    <path id="path29" stroke-width="0" stroke-miterlimit="10" d="m13.175 4.406c-0.591-1.476-1.181-1.476-1.771 0 0.591 1.476 1.18 1.476 1.771 0"/>
  </g>
  <metadata>
    <rdf:RDF>
      <cc:Work>
        <dc:format>image/svg+xml</dc:format>
        <dc:type rdf:resource="http://purl.org/dc/dcmitype/StillImage"/>
        <cc:license rdf:resource="http://creativecommons.org/licenses/publicdomain/"/>
        <dc:publisher>
          <cc:Agent rdf:about="http://openclipart.org/">
            <dc:title>Openclipart</dc:title>
          </cc:Agent>
        </dc:publisher>
        <dc:title>Architetto -- Dino 07</dc:title>
        <dc:date>2009-05-03T06:09:39</dc:date>
        <dc:description>Dino outline by Francesco 'Architetto' Rollandin.</dc:description>
        <dc:source>http://openclipart.org/detail/25747/architetto----dino-07-by-anonymous-25747</dc:source>
        <dc:creator>
          <cc:Agent>
            <dc:title>Anonymous</dc:title>
          </cc:Agent>
        </dc:creator>
        <dc:subject>
          <rdf:Bag>
            <rdf:li>animal</rdf:li>
            <rdf:li>black and white</rdf:li>
            <rdf:li>clip art</rdf:li>
            <rdf:li>clipart</rdf:li>
            <rdf:li>dinosaur</rdf:li>
            <rdf:li>extinct</rdf:li>
            <rdf:li>image</rdf:li>
            <rdf:li>media</rdf:li>
            <rdf:li>outline</rdf:li>
            <rdf:li>png</rdf:li>
            <rdf:li>public domain</rdf:li>
            <rdf:li>reptile</rdf:li>
            <rdf:li>svg</rdf:li>
          </rdf:Bag>
        </dc:subject>
      </cc:Work>
      <cc:License rdf:about="http://creativecommons.org/licenses/publicdomain/">
        <cc:permits rdf:resource="http://creativecommons.org/ns#Reproduction"/>
        <cc:permits rdf:resource="http://creativecommons.org/ns#Distribution"/>
        <cc:permits rdf:resource="http://creativecommons.org/ns#DerivativeWorks"/>
      </cc:License>
    </rdf:RDF>
  </metadata>
</svg>
