<?xml version="1.0"?>
<svg xmlns:rdf="http://www.w3.org/1999/02/22-rdf-syntax-ns#" xmlns="http://www.w3.org/2000/svg" xmlns:cc="http://creativecommons.org/ns#" xmlns:dc="http://purl.org/dc/elements/1.1/" xmlns:svg="http://www.w3.org/2000/svg" id="svg5645" viewBox="0 0 310 260.64" version="1.1">
  <title id="title6035">Cat</title>
  <g id="layer1" transform="translate(-139.01 -39.029)">
    <g id="g9244" transform="matrix(.30630 0 0 .30630 -396.84 -2.6635)">
      <path id="path6146" d="m1943.1 156.18c-2.1085 3.2767-3.7445 6.7968-5.5225 10.251-2.9302 5.4505-3.9266 11.338-4.5094 17.425-0.6881 12.97 2.6906 25.555 6.4717 37.824 1.6328 3.9141 4.385 10.76 6.3651 14.494 1.2424 2.3427 2.7068 4.5613 4.1151 6.8082 1.371 2.1875 2.6861 4.4178 4.2218 6.493 1.4199 1.9187 3.0849 3.6433 4.6274 5.4649l-0.2295 0.19793c-6.4635-7.358-3.0602-3.6842-10.237-10.996-5.5811-6.1578-10.796-12.775-14.553-20.22-1.1702-2.4436-2.4689-4.8297-3.5105-7.3308-4.42-10.613-6.4012-22.1-5.8867-33.568 0.3754-3.8467 0.4103-5.7529 1.3102-9.4279 0.9623-3.9295 2.707-7.6477 4.8689-11.049 2.1225-3.5118 4.457-6.9055 7.0268-10.107l5.4415 3.7416z"/>
      <path id="path6148" d="m1943 237.25c1.9204 8.376 4.8456 16.494 8.0633 24.451 3.1353 7.464 6.4515 14.876 10.763 21.751 1.3989 2.2306 5.036 7.3092 6.5779 9.4882 3.9492 4.8818 7.3909 10.151 11.677 14.752 0.8683 0.93209 1.6231 2.0023 2.6558 2.748 0.9212 0.66512 2.0688 0.94015 3.1032 1.4102 0 0-0.125 0.27603-0.125 0.27603-1.0491-0.47399-2.0794-0.99171-3.1471-1.422-1.2475-0.50272-2.5755-0.80449-3.7936-1.3749-6.1092-2.8609-11.218-7.4845-15.17-12.885-1.1981-1.5935-2.4606-3.1405-3.5942-4.7805-5.9653-8.6299-10.545-18.205-13.97-28.098-2.8726-8.4629-6.0364-16.972-6.8476-25.935l3.807-0.37972z"/>
      <path id="path6150" d="m1937.3 157.01c7.3019 4.1871 14.242 9.0264 21.12 13.879 12.613 9.1801 24.158 19.758 34.646 31.298 2.4913 2.7413 4.8608 5.5908 7.2911 8.3862 6.1981 8.2655 12.619 16.467 17.676 25.513 1.4069 2.5162 2.5569 5.1676 3.8298 7.7542 4.0591 8.2482 2.3906 4.605 5.6816 12.351l1.8132 4.6647-0.2491 0.17249c-1.2604-1.1387-2.5208-2.2774-3.7812-3.4162-1.4053-1.5532-2.8915-3.0368-4.2157-4.6596-1.5524-1.9024-2.9203-3.9484-4.4048-5.9043-1.7062-2.2481-3.5056-4.4259-5.1672-6.7072-5.8786-8.0708-11.022-16.695-17.699-24.172-2.3067-2.7209-4.5425-5.5036-6.9202-8.1628-10.053-11.243-21.231-21.467-33.233-30.589-6.7144-5.002-13.572-9.838-20.081-15.098 0 0 3.6933-5.3088 3.6933-5.3088z"/>
      <path id="path6154" d="m2042.8 253.67c6.738-0.89656 13.43 1.028 19.942 2.5151 2.1833 0.49866 4.3771 0.9502 6.5657 1.4253 18.177 4.4382 36.534 8.0753 54.848 11.891 11.206 2.8378 23.024 4.6175 33.401 10.031 4.9996 2.6082 6.1032 3.9676 10.189 7.5301 3.9315 5.3282 1.9595 2.8622 5.8658 7.4382l-0.2306 0.19668c-3.7973-4.4549-1.5046-2.5622-7.0165-5.5064-1.6391-0.73068-3.237-1.562-4.9174-2.192-1.9347-0.72542-3.9332-1.2685-5.9106-1.8679-10.853-3.2901-21.88-5.9834-32.938-8.4863-18.31-4.1696-36.718-7.9185-54.895-12.652-11.02-3.1559-1.9682-0.62539-11.855-3.241-3.9892-1.0553-8.0268-2.2821-12.203-2.1681l-0.8446-4.9139z"/>
      <path id="path6156" d="m2133.5 338.21c8.2928-3.8442 15.761-9.2934 23.07-14.725 8.9353-6.5826 17.733-13.375 26.053-20.728 4.8229-4.2624 7.529-6.938 12.163-11.372 5.9793-5.0034 11.172-10.824 16.429-16.551l0.2437 0.18013c-4.0173 6.8402-8.1149 13.63-12.515 20.234-1.8285 2.2052-3.563 4.4917-5.4854 6.6155-9.5984 10.604-21.234 19.098-32.83 27.349-8.0802 5.4626-16.075 11.492-25.511 14.409 0 0-1.6174-5.4111-1.6174-5.4111z"/>
      <path id="path6158" d="m2195 289.22c-1.2282-5.344-0.2805-10.772 1.9316-15.756 0.6781-1.5278 1.5597-2.9569 2.3396-4.4353 6.9897-12.196 17.782-21.146 28.548-29.851 8.3439-6.2583 17.101-12.026 26.482-16.624 4.087-2.003 7.3174-3.1868 11.502-4.8355 7.8843-2.3396 1.6374-0.96267 9.5613-1.4748 8.941-0.57786-0.8223-0.62158 7.5461-0.42832l0.1022 0.28529c-9.5807 8.3806 4.9712-4.1814-5.9086 4.6044-6.2468 5.0445-0.5011 1.653-7.852 5.3755-5.6591 2.4449-11.44 4.7854-16.903 7.652-6.7284 3.5308-13.075 7.7811-19.227 12.222-10.226 7.7323-20.5 15.77-27.696 26.558-2.9719 4.8466-6.1018 9.9404-5.945 15.838 0 0-4.4812 0.86909-4.4812 0.86909z"/>
      <path id="path6160" d="m2278.7 225.95c0.9272 5.5618 4.7619 10.815 7.877 15.37 6.2276 8.69 12.121 17.73 16.646 27.443 1.0845 2.328 2.036 4.7156 3.0539 7.0735 4.7235 12.136 7.8929 25.168 7.4188 38.286-0.086 2.3794-0.469 4.7387-0.7035 7.108-0.6837 5.9055-2.4396 11.578-3.7369 17.36 0 0-0.2957-0.0664-0.2957-0.0664 0.382-1.7004 0.9577-3.3686 1.1459-5.1012 0.3952-3.6385-0.1777-8.5168-0.4641-12.095-0.7887-4.763-1.4094-8.9054-2.4631-13.632-2.1631-9.7029-5.504-19.103-8.9204-28.42-2.7406-6.4356-5.658-12.637-9.0869-18.743-3.4286-6.1052-2.8667-4.6274-6.482-10.42-0.9558-1.5315-1.8495-3.1008-2.7743-4.6512-3.7203-6.5714-6.9887-11.712-7.087-19.512h5.8725z"/>
      <path id="path6162" d="m2303.7 280.05c1.5689 9.4962 2.2191 19.107 2.9512 28.694 0.4895 10.482-0.1856 20.955-1.5462 31.347-0.3672 2.8044-0.6879 5.6181-1.1973 8.4003-0.5239 2.8606-1.2669 5.6768-1.9003 8.5152-2.9165 11.466-7.401 22.454-13.463 32.616-2.3116 3.8753-5.7608 8.774-8.3448 12.532-1.0037 1.7777-2.0074 3.5554-3.0111 5.3331l-0.2638-0.14899c1.002-1.7748 2.0041-3.5496 3.0062-5.3243 5.7047-15.227 10.875-30.717 14.508-46.58 0.6901-3.604 2.4507-12.588 2.9937-16.257 1.4751-9.9667 2.0336-20.066 1.9311-30.133-0.052-9.6131-0.8436-19.209-0.5965-28.821l4.9327-0.17394z"/>
      <path id="path6164" d="m2288.4 394.21c1.1094 7.3418 2.4882 14.644 3.8261 21.95 0.3199 1.6348 0.6252 3.2725 0.9598 4.9043 0.911 4.4421 1.344 5.9806 2.1768 10.489 1.0802 5.8488 1.8086 11.74 2.5358 17.64 0.5438 10.484 0.5891 21.185-2.0611 31.429-0.5163 1.9957-1.2766 3.9202-1.9149 5.8803-2.5369 7.0264-1.3455 3.5968-3.5877 10.284 0 0-0.2944-0.0718-0.2944-0.0718 1.0728-6.8907 0.6919-3.3349 1.0864-10.673 0.076-12.017 0.6452-24.077-1.1188-36.021-0.9422-10.984-2.9606-21.818-4.7238-32.694-1.1647-7.5815-2.3306-15.219-2.3079-22.907l5.4237-0.21038z"/>
      <path id="path6166" d="m2249.5 406.89c-0.7132-6.8941-1.1833-13.821-1.4867-20.754 0.4147-7.3552 0.3898-14.827 2.0092-22.053 1.0997-4.9075 1.8474-6.3829 3.6249-11.092 2.9405-7.7366 8.2214-14.127 13.129-20.655 1.5793-2.101 6.1-8.4914 7.6026-10.605 2.0205-3.2853 4.8777-7.7113 6.5165-11.235 0.8563-1.8411 1.463-3.7884 2.1945-5.6826l0.2827 0.10918c-2.3115 5.984-4.4222 12.052-7.1298 17.875-0.9182 2.0392-1.7751 4.1072-2.7547 6.1177-4.349 8.9257-9.5157 17.433-13.975 26.303-0.6297 1.6493-1.3439 3.2688-1.8891 4.948-2.6914 8.289-4.0191 17.351-4.4489 26.03-0.4687 6.8485-0.4193 13.719-0.718 20.563l-2.9575 0.13237z"/>
      <path id="path6168" d="m2265.2 250.52c5.4513 7.6366 9.3022 16.484 11.447 25.614 0.6885 2.9311 1.0897 5.9223 1.6345 8.8835 1.569 9.502 0.6051 19.063 0.2776 28.597-0.1016 2.9594-0.087 5.9217-0.1298 8.8826 0 0-0.303 0.001-0.303 0.001-0.069-2.9521 0.04-5.9136-0.2058-8.8562-0.7752-9.2698-3.1703-18.344-5.0062-27.429-1.9451-7.3509-3.8978-14.65-6.9181-21.653-1.9826-4.5967-2.2761-4.4902-4.4075-8.5584-0.4411-0.84207-0.8262-1.7124-1.2394-2.5685l4.851-2.9134z"/>
      <path id="path6170" d="m2262.4 434.94c0.5255 0.63396 1.1081 1.2246 1.5764 1.9019 2.3625 3.4164 4.0701 7.3576 5.6849 11.158 0.7157 1.6842 1.4755 3.3534 2.0793 5.0808 0.6541 1.8717 1.1265 3.802 1.6897 5.703 2.3716 8.1561 3.896 16.563 4.5806 25.031 0.3191 3.9472 0.3224 9.0592 0.3767 13.007-0.261 9.0499-1.8173 17.964-6.3795 25.913-3.4205 5.9605-4.7047 6.6553-9.5056 11.612-8.3995 6.4363-4.2084 3.2361-12.573 9.6011l-0.1954-0.23163c7.4975-7.0106 4.178-3.1733 9.9874-11.487 2.7721-4.841 4.1531-6.8151 6.1531-11.95 2.9114-7.4747 4.1623-15.555 4.4544-23.53 0.068-2.0444 0.2197-4.0877 0.2055-6.1332-0.07-10.074-1.3525-20.122-3.5577-29.942-1.4254-4.9285-2.751-9.8674-4.6494-14.641-2.1214-5.3345-0.757-1.7371-2.9865-6.2628-0.2877-0.58394-0.507-1.1991-0.7604-1.7987l3.8196-3.0305z"/>
      <path id="path6172" d="m2250.5 534.58c-1.8505 6.9149-6.9988 11.714-12.102 16.376-9.0863 7.3112-19.44 12.742-30.115 17.313-5.7567 1.9845-6.3657 2.4049-12.391 3.6248-2.1407 0.43336-4.2854 0.95418-6.4672 1.0519-2.23 0.0999-4.4503-0.37193-6.6807-0.46306-15.861-0.64805 2.9309 0.60736-12.024-0.48816l-0.01-0.30298c3.7783-0.44206 7.9161-0.73771 11.557-1.9558 1.9941-0.66718 3.7866-1.8397 5.7447-2.6063 1.9137-0.74923 3.9136-1.2578 5.8541-1.9346 4.1029-1.431 7.2437-2.6959 11.285-4.2706 10.033-4.2498 19.707-9.3033 28.688-15.504 4.5426-3.3154 9.2188-7.0242 11.936-12.062l4.7216 1.221z"/>
      <path id="path6174" d="m2062.6 511.26c6.9094 2.8636 13.351 6.9425 18.693 12.204 1.5453 1.5223 2.936 3.1941 4.4039 4.7912 7.1692 8.4077 11.96 18.35 14.252 29.144 0.3146 1.482 0.467 2.9939 0.7005 4.4908 0.1267 1.1905 0.2535 2.381 0.3802 3.5715l-0.2925 0.0792c-0.4864-1.0749-0.9727-2.1497-1.459-3.2246-5.127-10.59-9.466-21.73-16.942-30.971-6.1503-6.69-12.668-13.182-20.779-17.483l1.0435-2.602z"/>
      <path id="path6176" d="m2104.8 554.02c6.1935-0.90445 12.556-1.5254 18.824-0.98773 2.1083 0.18085 4.1916 0.58458 6.2874 0.87687 2.3189 0.46614 4.666 0.8093 6.9567 1.3984 14.306 3.6791 28.649 11.063 41.649 17.932 5.8782 2.5381 11.165 6.288 17.005 8.8998 2.5573 1.1436 5.2638 1.9195 7.8956 2.8792l-0.099 0.28624c-8.7754-2.9041-17.699-5.3513-26.269-8.8459-3.1103-1.2045-6.2489-2.3386-9.331-3.6136-12.658-5.2361-24.922-11.697-38.416-14.631-8.0303-1.1525-16.075-1.9455-24.196-1.5766l-0.3068-2.6179z"/>
      <path id="path6178" d="m2029.3 498.07c0.011-7.0579 2.1592-13.144 4.7691-19.59 0.599-1.271 1.1307-2.576 1.797-3.8132 0.716-1.3294 1.5921-2.5667 2.3442-3.876 0.7812-1.3601 1.4821-2.7652 2.2547-4.1302 1.2019-2.1237 3.8972-6.547 5.0167-8.6835 0.7796-1.4879 1.4508-3.0301 2.1762-4.5452l0.2734 0.13089c-0.7232 1.51-1.5867 2.9606-2.1696 4.5301-1.1166 3.0065-1.6265 6.5413-2.205 9.6741-0.2771 1.5003-0.6331 2.9879-0.8339 4.5003-0.3694 2.7812-0.2237 5.6192-0.8581 8.3731-0.8597 5.7863-1.8214 11.6-2.2204 17.43h-10.344z"/>
      <path id="path6180" d="m2048.6 466.37c5.8708-1.3159 11.644-3.0518 17.449-4.6483 6.268-1.0945 12.623-2.1924 19.017-1.9286 2.9722 0.12262 6.7435 0.77401 9.6816 1.2188 6.0997 1.4801 11.852 4.512 15.816 9.4932 1.6452 2.067 2.8689 4.5186 4.1293 6.8222 0.4476 0.95545 0.8951 1.9109 1.3427 2.8663l-0.2413 0.18336-2.3172-1.9497c-0.9603-0.62735-1.8819-1.3182-2.8808-1.882-1.843-1.0403-4.7294-2.2197-6.6659-3.0474-1.1164-0.47714-2.2021-1.0344-3.3508-1.4274-0.1679-0.0574-7.3472-1.9383-7.4346-1.9612-1.3181-0.27142-2.6209-0.63219-3.9542-0.81428-7.0455-0.96218-14.282-0.32557-21.219 1.0369-6.3083 1.0735-12.459 2.9218-18.834 3.5638l-0.5389-7.5257z"/>
      <path id="path6182" d="m2052.1 480.01c0.5716 1.8588 0.8171 3.8492 1.7107 5.6026 0.3859 0.7571 0.9222 1.4276 1.3832 2.1415 0.499 0.77269 0.8918 1.6254 1.4969 2.3182 0.6565 0.75157 1.5011 1.3154 2.2516 1.9731 4.8841 4.273 10.9 6.1556 17.352 5.9606 1.6136-0.0488 3.2164-0.28198 4.8246-0.42296 8.0057-1.7935 15.605-5.3188 21.688-10.904 1.0105-0.92778 1.8944-1.9846 2.8416-2.9769 3.9361-4.9956 7.7-10.234 10.416-16.009 0 0 0.2887 0.0922 0.2887 0.0922-0.4961 2.7317-0.7012 5.536-1.3781 8.2324-1.0242 4.0795-2.3665 8.1295-4.798 11.604-1.0333 1.296-1.9773 2.6686-3.1 3.888-6.6398 7.2111-15.742 11.393-25.307 12.971-1.971 0.19688-3.9324 0.5702-5.9131 0.59064-8.223 0.0849-15.771-3.1028-21.715-8.6736-1.0666-1.4065-3.5021-4.4644-4.3255-6.1226-1.4561-2.9326-2.2426-6.9911-1.898-10.265h4.1823z"/>
      <path id="path6184" d="m2115.1 466.42c-8.5654 0.35794-17.12 0.017-25.673-0.49248-7.9418-0.92909-6.0751-0.81884-14.082-1.3206-2.3005-0.14415-4.6002-0.41355-6.9048-0.37473-2.1223 0.0357-4.2265 0.39853-6.3397 0.59779l-0.041-0.30029c9.1042-1.6157 18.188-3.2638 27.426-3.9371 5.6307-0.2096 11.256-0.35121 16.892-0.28909 0.573 0.006 5.513 0.17897 6.5158 0.16925 0.667-0.006 1.3323-0.0701 1.9984-0.10508 0 0 0.2081 6.0523 0.2081 6.0523z"/>
      <path id="path6186" d="m2080.4 473.92c-1.7708 4.8742-3.5434 9.7554-5.1347 14.694-0.097 0.59071-0.5815 2.8421-0.3874 3.6838 0.1476 0.63978 0.7178 0.24606 1.052 0.38749 0.4641 0.19639 0.8576 0.52939 1.2864 0.79408 0.9059 0.33394 1.8118 0.66788 2.7177 1.0018 3.9495 0.97422 8.6326 1.8172 12.713 1.4473 1.3962-0.12656 2.7398-0.59646 4.1097-0.89469l0.077 0.29296c-1.3572 0.42339-2.7271 0.80798-4.0716 1.2702-1.5038 0.51694-2.9439 1.2196-4.47 1.6661-3.7542 1.0983-5.5301 1.1126-9.3627 1.5116-2.8888-0.22618-5.6617-0.0217-8.1866-1.8237-3.9734-2.8357-3.5805-7.8093-1.8677-11.694 2.0538-4.9485 4.1503-9.87 6.8054-14.534l4.7189 2.1964z"/>
      <path id="path6188" d="m2088.5 479.87c-0.6595 1.7494-2.0407 3.3508-2.3485 5.2318-0.01 0.063 0.1424 0.16193 0.1625 0.10133 0.1876-0.56718 0.2553-1.1672 0.383-1.7508-0.4497-0.64438-1.0013-1.2285-1.3491-1.9332-0.124-0.25128 0.4856-0.22431 1.5698-0.55289 2.2445-0.68025 4.4654-1.4904 6.6797-2.2623 1.8928-0.925 3.8963-1.3844 5.9271-1.8361 1.185-0.26353 2.0489-0.56284 3.265-0.491 0 0 0.4077 0.44747 0.4077 0.44747-0.3771 3.6002-4.0365 6.0797-6.8547 7.8069-3.2374 1.8403-6.792 3.721-10.61 3.934-0.8857 0.0494-1.8519 0.18634-2.6541-0.19208-1.1836-0.55833-2.0229-1.6608-3.0344-2.4913-0.013-0.96915-0.1893-1.9499-0.039-2.9074 0.2298-1.4681 0.8083-1.4532 1.6818-2.3058 1.1084-1.082 2.0531-2.3409 3.1359-3.4483l3.678 2.6494z"/>
      <path id="path6190" d="m2083.5 485.89c3.8999-3.505 8.2808-6.608 12.864-9.1706 0.9281-0.51705 1.7615-0.91268 2.5739-1.5903 0.1269-0.10583 0.3965-0.52855 0.3028-0.39244-0.4346 0.63158-1.3217 1.1127-1.3259 1.8793-0.018 3.2586 2.6703 2.824 0.6084 2.9895-5.3354-0.50933-10.729-0.58172-16.09-0.65691-2.7832-0.0312-8.7814-0.87492-8.8982-4.8195-0.038-1.2772 0.931-2.38 1.3965-3.57 0.8532-0.41126 1.6564-0.94856 2.5596-1.2338 3.0658-0.96817 7.2734 0.0715 9.876 1.7831 0.7436 0.489 1.3879 1.1144 2.0818 1.6716 3.3102 3.4977 4.538 7.9038 4.4775 12.608-0.1918 2.7829-1.3561 5.2921-3.2776 7.2558-1.846 1.5787-4.3841 1.0463-6.6359 0.93341-2.3729 0.0212-4.6463-0.54364-6.9492-0.97592-2.7609-1.0637-4.6143-3.2345-5.578-5.9745-0.056-2.8189-0.133-0.0644 0.3034-2.6278 0.047-0.27887-0.024-0.56907 0.021-0.8484 0.1085-0.67804 0.4439-0.84335 0.4872-1.4977-0.1734-0.0801-0.3468-0.16021-0.5202-0.24031l0.1543-0.70117c0.3126 0.0269 0.6251 0.0537 0.9376 0.0806 0.3557 0.0607 0.7349 0.0413 1.0671 0.18225 0.8002 0.33959 1.2418 1.0845 1.9063 1.5487 0.2854 0.19942 0.6339 0.28955 0.9409 0.45387 0.2593 0.13879 0.5042 0.30301 0.7563 0.45452 0.7169 0.81286 1.2243 1.7586 2.0322 2.4723 1.5477 1.0133 3.324 1.5852 5.1164 2.0094 1.6796 0.34063 0.3143 0.0862 1.9252 0.32836 0.1804 0.0271 0.3566 0.0965 0.539 0.0944 0.079-0.00094 0.2529-0.17265 0.2143-0.10331-0.2494 0.44922-0.4029 0.11771-0.2556 0.36889-0.2405 1.0727 1.7883-3.5064 0.967-2.9207-0.3692-2.7618-0.6389-5.6659-2.704-7.7388-1.075-0.82015-2.258-1.5842-3.6107-1.8817-0.1986-0.0437-1.8784-0.0506-1.9592-0.13571-0.1164-0.1227 0.179-0.28713 0.2685-0.4307 0.1323-0.8429 0.5934-1.6984 0.397-2.5287-0.4593-1.9417-2.68-1.9263-0.6449-1.3634 0.3973 0.10989 0.7997 0.20127 1.2033 0.28492 0.6122 0.12686 1.2289 0.23096 1.8433 0.34644 5.4883 0.64873 11.029 0.83665 16.55 0.98547 2.4394 0.50954 4.1533 0.35848 4.9048 3.9716 0.5349 2.5715-3.4388 3.4632-4.7924 4.524-3.8653 2.799-7.7947 5.4936-11.236 8.8277l-4.7976-4.6522z"/>
      <path id="path6192" d="m2062.6 491.11c5.8666-2.9641 12.244-4.5019 18.602-6.0007l0.1115 0.28178c-5.5871 3.2178-11.202 6.3857-17.082 9.0408l-1.6313-3.3218z"/>
      <path id="path6194" d="m2066.6 471.71c7.2138-0.35437 14.363 0.7655 21.556 0.9616v0.30301c-7.1611 0.41244-14.268 1.5182-21.456 1.5412l-0.1048-2.8058z"/>
      <path id="path6196" d="m2060.1 474.41c3.6351 0.1079 7.1546 1.0531 10.698 1.7532 1.5037 0.29712 3.0264 0.49726 4.5246 0.82104 1.5287 0.33035 3.0088 0.88169 4.5512 1.1403 1.486 0.24912 3.003 0.2519 4.5045 0.37786 1.4286-0.1195 2.8573-0.239 4.286-0.3585 0 0 0.025 0.30199 0.025 0.30199-1.4382 0.11985-2.8764 0.23969-4.3146 0.35953-1.5217 0.0923-3.0462 0.14693-4.5651 0.27684-1.5841 0.13547-3.1532 0.44242-4.7411 0.51906-1.5405 0.0744-3.0842-0.0572-4.6264-0.0669-3.5287-0.0224-7.0709 0.10363-10.587-0.29283l0.2442-4.8315z"/>
      <path id="path6198" d="m2060.6 480.45c6.2047 3.5812 13.445 5.0964 20.422 6.4011 6.4255 0.5099 3.2182 0.39436 9.6216 0.35204l0.032 0.3013c-6.4746 1.3462-3.1912 0.91991-9.852 1.266-1.6804-0.0408-3.3642-0.008-5.0412-0.12244-6.0139-0.41043-12.183-1.9685-17.27-5.2835 0 0 2.0871-2.9145 2.0871-2.9145z"/>
      <path id="path6200" d="m1953.6 479.4c-0.3084-4.9955-0.6581-9.9882-0.9278-14.988-0.2562-4.696-1.0608-9.0775-3.0623-13.344-2.8425-4.674-7.6404-7.8072-11.75-11.316-2.3684-2.3456-5.0591-4.3421-6.941-7.141-4.1896-6.2311 1.0778 0.3894-3.2013-4.7785l0.2111-0.21737c0.6821 0.52905 1.2755 1.1984 2.0462 1.5872 0.8824 0.44507 1.8995 0.54985 2.8331 0.87391 3.0135 1.046 5.7979 2.5907 8.8195 3.616 7.2564 3.2009 12.47 6.4124 16.363 13.616 0.4279 0.98138 0.9287 1.9341 1.2837 2.9442 0.8995 2.5589 0.7053 2.9678 1.1081 5.5699 0.1439 0.92985 0.3999 1.8429 0.4955 2.7789 0.1877 1.8384-0.078 3.7054 0.2106 5.5399 0.053 4.9894-0.1378 9.9668-0.1278 14.953l-7.3605 0.30589z"/>
      <path id="path6202" d="m1950.6 473.03c-2.5838-2.853-5.4771-5.3728-8.4957-7.7565-3.6211-2.5531-6.2011-5.9417-8.2481-9.82-2.2422-4.2735-3.2728-9.0156-3.3525-13.811 0.1001-2.9333 0.512-5.8179 1.5182-8.5875 0.3785-1.0418 0.9585-2.0046 1.3151-3.054 0.3432-1.0098 0.5183-2.069 0.7774-3.1035 0 0 0.3011 0.0344 0.3011 0.0344 0.022 1.0382-0.1242 2.0938 0.067 3.1144 0.1949 1.0407 0.7322 1.9871 1.0758 2.9885 0.8871 2.5854 1.5881 5.2107 2.0794 7.9011 0.7427 3.7674 1.1377 7.6237 2.7904 11.148 1.5056 3.0633 3.6124 5.5741 6.3611 7.6294 3.1426 2.8135 6.2742 5.6425 9.0567 8.8186l-5.2458 4.4979z"/>
      <path id="path6204" d="m1942.8 463.75c-3.7555-3.5364-6.4458-8.0125-8.7752-12.571-1.0812-1.8759-2.1183-3.7773-3.1986-5.6524-0.6899-1.1976-1.294-1.8965-1.7887-3.1955-0.2319-0.60898-0.3506-1.2552-0.5259-1.8828-1.0085-2.7677-0.3373-5.1634 0.9238-7.6765l0.3709 0.0439c0.1665 0.50624 0.2634 1.0409 0.4995 1.5187 0.6708 1.3574 1.9601 2.2819 2.7778 3.5331 2.9548 2.9055 4.8206 6.6552 6.5425 10.384 2.0897 3.9079 3.8311 8.0674 7.0069 11.273 0 0-3.833 4.2254-3.833 4.2254z"/>
      <path id="path6206" d="m1947.6 459.49c-2.6746-3.7665-5.6402-7.3268-8.3575-11.068-1.3605-1.8054-2.5644-3.6912-3.6665-5.6608l0.2331-0.19374c1.7182 1.394 3.5063 2.571 5.5776 3.4044 4.9102 2.7636 7.7326 5.8706 10.636 10.659l-4.4232 2.8595z"/>
      <path id="path6208" d="m1941.7 469.8c-3.8274-1.0454-6.956-3.301-10.001-5.7381-3.8345-2.7744-5.655-6.9235-6.8354-11.354-1.5693-6.2711 0.199-11.464 2.9723-17.038 1.735-3.1446 1.0227-1.5376 2.1661-4.808 0 0 0.2916 0.0823 0.2916 0.0823-0.7239 3.3418-0.5554 1.6309-0.4753 5.1354 0.3476 4.9953 0.8306 9.9814 1.3636 14.959 0.837 3.2047 2.1313 6.0022 4.5583 8.324 2.289 2.1505 4.9088 3.9939 7.756 5.329 0 0-1.796 5.1086-1.796 5.1086z"/>
      <path id="path6210" d="m1952.4 434.57c1.3211-5.3598 1.9517-10.877 2.554-16.358 1.1275-9.8306 4.3575-19.209 8.369-28.197 2.2609-4.328 2.4531-5.0972 5.3268-9.0231 0.9933-1.357 2.1672-2.575 3.1661-3.9278 0.9427-1.2766 1.7687-2.6353 2.653-3.9529l0.2602 0.15537c-0.7317 1.3887-1.624 2.7039-2.195 4.166-0.5982 1.5319-0.8508 3.1773-1.2915 4.7618-1.5734 5.6577-1.1401 4.1178-3.0025 9.7584-3.0535 8.922-6.5109 17.746-8.1044 27.089-1.1877 5.6381-2.0916 11.355-4.0819 16.788l-3.6538-1.2598z"/>
      <path id="path6212" d="m1986.3 389.25c0.1401-0.84793 0.2129-1.7098 0.4203-2.5438 0.5233-2.1044 1.8444-5.6407 2.5587-7.5736 1.5644-4.2328 1.7374-5.0456 4.0473-9.0398 0.8567-1.4815 1.8506-2.8793 2.7759-4.3189 4.3873-5.1393 2.248-2.5635 6.4217-7.7244l0.2562 0.16187c-2.8047 5.8767-1.588 2.8498-3.6411 9.0845-1.0396 2.8128-2.3592 6.451-3.4872 9.2326-1.7812 4.3922-3.6352 8.7396-4.7304 13.373 0 0-4.6214-0.65182-4.6214-0.65182z"/>
      <path id="path6214" d="m2004.4 384.25c-3.1692-6.0181-3.0745-12.856-1.2592-19.302 0.5692-2.0214 1.4293-3.9494 2.144-5.9242 4.0128-8.606 9.117-16.73 15.102-24.106 1.3531-1.6678 7.3622-8.3789 8.8823-10.086 5.6581-5.585 2.9154-2.833 8.2342-8.2502l0.2358 0.19043c-4.149 6.303-2.1188 3.0232-6.0648 9.8549-2.3355 3.7753-4.5533 7.6231-6.9131 11.383-4.7987 7.6462-10.431 14.804-14.331 22.988-0.7041 1.7223-1.5002 3.4097-2.1123 5.1668-1.8191 5.2221-2.6909 11.168-0.9541 16.517l-2.9636 1.5676z"/>
      <path id="path6216" d="m1933.4 266.1c4.9084 6.3173 11.211 11.367 16.927 16.926 1.496 1.6665 4.4512 5.0736 6.2086 6.6081 0.9361 0.81733 2.0031 1.4713 3.0047 2.2069l-0.1714 0.24995c-3.6341-2.3221-7.3668-4.4468-11.222-6.3886-7.0319-4.7856-13.964-10.237-18.321-17.696l3.5742-1.9062z"/>
      <path id="path6218" d="m1963.5 307.97c3.005 2.3696 5.6855 5.137 8.42 7.8113l-0.1938 0.23295c-3.0992-2.183-6.2482-4.3014-9.2654-6.5932l1.0392-1.4511z"/>
      <path id="path6220" d="m1967.8 256.27c3.9478 8.9294 6.4059 18.426 8.3151 27.974 1.2431 5.2858 1.3913 10.679 2.4966 15.986 0.2512 1.206 0.4375 2.4364 0.855 3.5954 0.3315 0.91991 0.916 1.7278 1.3739 2.5917l-0.2487 0.1732c-0.6925-0.788-1.4619-1.5147-2.0777-2.364-2.2901-3.1585-2.3198-4.0112-3.8609-7.7706-2.966-7.2347-1.4587-3.0376-3.918-10.815-2.9188-9.0668-5.5097-18.23-8.5353-27.262l5.6-2.1083z"/>
      <path id="path6222" d="m1990.8 279.55c0.2086 7.8246 1.8165 15.486 2.904 23.212 0.9103 3.6776 1.1318 9.3471 4.1731 12.106 0.6237 0.5658 1.4748 0.81335 2.2122 1.22l-0.133 0.2723c-0.83-0.35885-1.7059-0.62618-2.49-1.0766-4.3531-2.5004-6.8481-6.8623-8.5502-11.426-0.4572-1.4559-1.0063-2.886-1.3715-4.3676-0.792-3.2137-1.0358-6.1364-1.3678-9.4182-0.3692-3.6494-0.7607-7.3253-0.3846-10.994l5.0078 0.47248z"/>
      <path id="path6224" d="m2013.8 280.98c0.1158 0.76714 0.2581 1.5307 0.3473 2.3014 0.1236 1.0688 0.1205 2.1524 0.2909 3.2147 0.8678 5.4088 2.5881 10.679 4.3877 15.832 0.96 2.6573 1.3981 4.5057 3.0894 6.7986 0.6468 0.87695 1.5166 1.5651 2.2749 2.3477l-0.205 0.22322c-2.9596-2.4241-5.9071-4.8592-8.155-8.0035-0.7376-1.3095-1.5523-2.5784-2.2126-3.9284-2.8532-5.8331-4.4993-12.428-4.1997-18.927l4.3821 0.14164z"/>
      <path id="path6226" d="m1961 336.51c-3.2348 5.9062-7.8803 11.003-12.689 15.669-9.4297 9.1784-18.027 19.183-26.857 28.936-4.7821 5.8714-10.156 11.307-14.604 17.452-1.1569 1.5981-2.13 3.3216-3.1951 4.9823l-0.2551-0.16359c1.066-1.6623 2.1948-3.2859 3.198-4.9868 3.8826-6.5825 6.9693-13.615 11.158-20.024 3.0842-5.13 5.0479-8.6522 8.5522-13.486 4.8307-6.6638 10.651-12.541 16.567-18.229 2.7309-2.7322 5.6538-5.284 8.2361-8.1593 4.8989-5.4547-0.6969 0.64286 3.4811-4.3494 0.4297-0.51344 0.9295-0.96384 1.3943-1.4458l5.0141 3.8052z"/>
      <path id="path6228" d="m1914.5 396.01c-3.2273 6.3812-4.4184 13.416-5.8643 20.341-1.1414 9.0467-2.4555 18.228-1.8667 27.373 0.127 1.9739 0.4256 3.933 0.6384 5.8994 1.9428 10.927 6.9217 21.003 13.12 30.13 1.2881 1.8967 2.701 3.7056 4.0515 5.5584 3.387 5.0118 7.4276 9.499 11.5 13.947 0 0-0.2041 0.22403-0.2041 0.22403-4.9054-3.7212-9.8283-7.4295-14.431-11.529-4.0678-4.2171-6.2843-6.2379-9.7851-11.003-5.8209-7.9231-9.6976-16.909-11.425-26.589-0.2158-2.1913-0.5381-4.3747-0.6474-6.5738-0.4784-9.6174 0.9941-19.267 2.618-28.708 0.3107-1.6626 0.5426-3.3419 0.9323-4.9878 1.4045-5.932 3.5578-11.864 6.765-17.055l4.5976 2.9722z"/>
      <path id="path6230" d="m1908.6 480.41c-1.9813-2.5528-4.1415-4.9748-6.3682-7.3136 0.8895-0.0927-1.7701-0.99951-1.2292-1.1376 1.8823-0.48036 3.8254-0.74016 5.7645-0.8574 0.279-0.0169 0.535 0.23865 0.6966 0.46677 0.5281 0.74578 0.8726 1.6061 1.331 2.3967 0.7 1.2072 1.4291 2.3972 2.1436 3.5958 6.506 9.6991 11.431 20.244 16.059 30.924 1.8021 3.3891 2.7311 7.0507 3.5477 10.762l-0.2799 0.11618c-2.0305-3.1204-4.3531-6.0001-6.4059-9.109-6.7299-9.4548-13.373-18.955-19.062-29.091-0.4304-0.74491-5.3999-8.8273-4.4949-9.7587 1.43-1.4719 3.7241-1.767 5.695-2.3392 0.4995-0.14505-0.3852 1.9206 0.3356 1.5241 1.0003 2.9775 2.4482 5.8162 4.1397 8.4585l-1.8733 1.3624z"/>
      <path id="path6232" d="m1915.5 521.62c0.052 6.3682 0.055 12.741-0.2308 19.104-0.4541 5.7384-1.0749 11.639-3.5289 16.938-1.2631 2.7274-2.6604 4.2785-4.4681 6.6295-0.873 0.93508-1.746 1.8702-2.619 2.8052-0.8737 0.80565-1.7902 1.5671-2.6209 2.4169-0.743 0.76012-1.3954 1.6038-2.0931 2.4057l-0.2388-0.18658c0.6049-0.86526 1.2955-1.6766 1.8147-2.5958 0.9016-1.5961 2.0439-4.7466 2.6945-6.4331 2.0917-7.292 3.7023-14.724 4.2129-22.311 0.3292-6.3537 0.6585-12.704 1.0042-19.056l6.0733 0.28269z"/>
      <path id="path6234" d="m1907.4 570.71c2.9789 4.5848 6.9928 8.5785 11.538 11.623 1.3961 0.93509 2.8886 1.7174 4.3329 2.5761 1.5386 0.96123 3.0467 1.9729 4.6156 2.8837 3.2148 1.8662 6.518 3.5763 9.7491 5.4139 2.8442 1.6175 5.6235 3.3554 8.5351 4.8479 1.1558 0.59247 2.3719 1.059 3.5578 1.5885l-0.1231 0.27694c-1.1851-0.52408-2.3305-1.1492-3.5554-1.5722-3.1177-1.0767-6.3922-1.6398-9.546-2.6056-4.7316-1.4491-6.2146-2.0348-10.736-4.1181-1.74-0.80168-3.4423-1.6826-5.1634-2.5239-6.6452-4.4962-13.882-9.1079-17.312-16.683l4.107-1.7068z"/>
      <path id="path6236" d="m1960.4 594.85c1.1923 5.7801 3.9374 10.46 7.5433 15.05 4.2144 4.3468 8.2808 8.8882 12.894 12.827 1.3169 1.1246 2.7008 2.1683 4.0513 3.2524 0 0-0.1391 0.26929-0.1391 0.26929-8.4697-2.4571-16.362-5.0526-22.371-11.915-0.9156-1.1367-1.9016-2.2202-2.7468-3.4102-3.154-4.4406-4.7402-9.5183-5.6916-14.82l6.4607-1.253z"/>
      <path id="path6238" d="m1977.5 604.59c2.5231 5.3579 7.7988 7.591 12.9 9.8946 4.3312 1.9069 8.8072 3.4503 13.192 5.2251 3.8534 1.5598 4.699 2.2031 8.7026 3.1527 1.3319 0.31591 2.7003 0.45102 4.0504 0.67653 0 0-0.026 0.30192-0.026 0.30192-4.6839-0.0414-3.911-0.0142-8.7738-0.1449-1.6577-0.0445-3.3214 0.003-4.9726-0.14925-5.0467-0.46662-9.9482-1.8658-14.638-3.7404-6.5697-3.1134-13.075-6.5497-15.276-14.009l4.8416-1.2073z"/>
      <path id="path6240" d="m1983.1 622.41c7.3158-0.50759 14.64-0.60947 21.949-1.2196 3.1748-0.0493 6.3293-0.48017 9.5003-0.59137 3.7254-0.13065 4.8002 0.27187 8.3956-0.4676 1.1694-0.24051 2.2813-0.70524 3.4219-1.0579l0.1031 0.28497c-6.3008 2.6178-0.3486 0.12534-7.1131 3.0211-1.4025 0.60037-2.7696 1.2945-4.214 1.7855-3.329 1.1316-6.2314 1.524-9.6804 2.1511-7.3919 0.57608-14.796 0.8178-22.209 0.54574l-0.153-4.452z"/>
      <path id="path6242" d="m2015 617.96c8.3902-0.61453 16.776-1.3239 25.146-2.1874 8.1762-1.014 16.438-1.794 24.493-3.5977 5.1286-1.1484 6.2836-1.694 11.174-3.3776 3.433-1.6787 6.3542-2.8741 9.3748-5.2862 1.4707-1.1744 2.7043-2.6182 4.0477-3.9362 1.5912-1.5612 3.2787-3.032 4.7559-4.7016 3.344-3.7794 5.3438-7.0735 8.122-11.237 0.8782-1.7719 1.7563-3.5438 2.6344-5.3157l0.273 0.13159c-0.8421 1.7965-1.6842 3.593-2.5263 5.3895-2.0091 4.7303-3.4844 8.3674-5.7535 13.016-1.1016 2.257-2.0311 4.6286-3.4655 6.6901-1.2449 1.7892-2.9122 3.2504-4.4942 4.7498-4.9398 4.6817-4.6748 4.0534-10.552 7.2967-2.0131 0.73556-3.9833 1.6014-6.0393 2.2067-2.0655 0.60806-4.1876 1.0097-6.3001 1.4258-8.3066 1.6363-16.749 2.4158-25.166 3.224-8.5088 0.59713-17.008 1.0947-25.541 1.0213l-0.1822-5.5123z"/>
      <path id="path6244" d="m1962.3 592.27c0.073-2.6073 0.4502-5.3665 1.3538-7.8363 0.4425-1.2093 1.0788-2.3387 1.6078-3.5127 1.5364-2.5851 3.1743-5.0915 4.5985-7.7383 0.7987-1.8397 1.0639-3.828 1.2777-5.8066-0.2003-0.69838 0.2879-1.2142 0.2702-1.8845 0-0.11766-0.062-0.46635-0.054-0.34893 0.07 1.0171-0.1142 2.0931 0.2401 3.049 0.2572 0.69385 0.9982 1.0926 1.4974 1.6389 0.043 0.0281 0.1785 0.0846 0.1275 0.0843-1.1861-0.006-2.1556-0.2153-2.7488-1.2767-0.053-0.30671-0.1052-0.61342-0.1577-0.92014 0-0.46752 0.074-0.93884 0.014-1.4026-0.2596-2.0195-0.4426-0.21198-0.2404-1.5744l0.2265-0.20141c0.1324-0.0711 0.3307-0.0786 0.3972-0.2134 0.1077-0.21804 0.01-0.49112 0.067-0.72646 0.3117-1.1976 0.3991-1.2148 0.9615-2.136 1.5442-1.1885 3.438-0.005 5.108 0.43314 0.7354 0.65809 1.7686 1.0897 2.206 1.9743 2.7666 5.5944 0.6447 2.2222 0.1059 4.0816-0.3826 1.3205 0.3625-0.29828-0.4333 1.2374-0.9535 2.422-1.1953 5.1062-2.6377 7.3374-1.4226 2.6517-3.2487 5.0661-4.8791 7.5886-1.6333 2.4801-2.6194 5.1892-2.8993 8.1538h-6.009z"/>
      <path id="path6246" d="m1977 564.65c3.6138 1.288 5.5106 1.5278 8.8802-0.35734 3.0963-2.0508 5.5683-4.8898 8.7479-6.824 1.4174-0.75283 0.8929-0.28328 1.6992-1.2542l0.2748 0.12771c-0.2376 1.2805-0.1875 0.54712 0.018 2.2053-0.055 5.4643-2.8125 9.7619-7.1675 12.953-0.9566 0.44732-1.8658 1.0145-2.8697 1.342-4.2268 1.3786-8.843 0.38371-12.722-1.4959 0 0 3.1387-6.696 3.1387-6.696z"/>
      <path id="path6248" d="m1943.7 544.31c-1.0732 3.9191-0.9008 8.005-0.024 11.934 1.3284 4.2405 3.6671 8.0382 5.8488 11.873 0.6989 1.4848 1.7316 2.7463 2.5954 4.1289l-0.4565 0.4581c-1.4019-0.8724-2.6696-1.92-4.1323-2.7004-4.6345-3.0645-8.96-6.6273-10.606-12.16-0.2258-0.91737-0.5219-1.8202-0.6775-2.7521-0.6976-4.1772-0.1098-8.3541 0.7687-12.447l6.683 1.6664z"/>
      <path id="path6250" d="m1952.5 573.34c2.3864 4.6682 4.4112 9.4503 6.0255 14.438 1.3811 3.1572 0.6287 1.6601 2.2326 4.5035l-0.3344 0.331c-3.0006-1.8118-1.5178-0.80304-4.4316-3.0511-0.8093-0.66816-1.677-1.2713-2.4279-2.0045-3.2374-3.1611-4.8402-7.388-7.0293-11.242l5.9651-2.9748z"/>
      <path id="path6252" d="m1941.6 536.86c1.5545-2.6826 3.4353-5.1299 5.1149-7.7416l0.2689 0.13976c-1.1834 2.8997-2.0703 5.9635-3.7366 8.6286l-1.6472-1.0268z"/>
      <path id="path6254" d="m1941.2 537.43c6.0608-4.4726 11.163-10.492 16.087-16.163l0.2544 0.16472c-3.5827 7.6945-6.7813 15.054-14.523 19.438l-1.8189-3.4395z"/>
      <path id="path6256" d="m1967.9 560.37c-1.6602-1.9653-3.9174-3.1984-6.0347-4.5817-3.7213-2.431-0.6749-0.76042-4.8861-2.8548-1.0009-0.31651-2.0017-0.63302-3.0026-0.94953l0.049-0.29901c1.0847 0.0272 2.1694 0.0545 3.2541 0.0817 1.5784 0.0934 4.7253 0.19686 6.2883 0.61239 3.2144 0.85461 5.9441 2.9926 7.8627 5.643l-3.531 2.3479z"/>
      <path id="path6258" d="m1908.3 549.76c-4.9147-3.9376-10.454-7.1416-16.414-9.2244-2.2443-0.78416-4.5615-1.3417-6.8423-2.0125-15.056-3.5895-30.758-4.224-46.094-2.0329-13.128 1.8757-18.641 4.0219-31.482 7.8009-20.731 9.4004-10.742 4.1622-29.994 15.664l-0.1554-0.26016c19.304-11.531 9.361-6.103 29.851-16.244 5.2608-2.2002 10.4-4.717 15.782-6.6005 20.557-7.1936 42.557-8.9938 63.847-4.305 2.4985 0.73161 5.0337 1.348 7.4956 2.1948 6.8014 2.3395 12.916 6.0728 17.634 11.533l-3.6272 3.4867z"/>
      <path id="path6260" d="m1901.3 574.53c-9.9595-0.46019-19.84 0.0655-29.568 2.4264-3.9304 0.95382-7.7798 2.2148-11.67 3.3222-4.4703 1.6635-9.018 3.1324-13.411 4.9905-21.163 8.9516-41.054 21.699-57.945 37.299-4.2882 3.9603-8.1466 8.3619-12.22 12.543-3.5038 4.1898-7.0076 8.3797-10.511 12.57l-0.2325-0.19441c3.509-4.1955 7.0179-8.3911 10.527-12.587 9.306-9.5512 15.383-16.149 25.45-24.998 16.834-14.797 35.531-27.515 56.696-35.226 4.0554-1.2278 8.0587-2.6434 12.166-3.6834 10.078-2.5515 20.872-3.9209 31.197-2.2189l-0.4788 5.7571z"/>
      <path id="path6262" d="m1897.8 587.04c-1.0736 0.57887-2.174 1.1105-3.2207 1.7366-7.1457 4.2745-13.718 9.4845-20.156 14.739-6.3722 5.2007-13.297 11.24-19.509 16.591-13.082 11.879-6.9979 5.6677-18.314 18.574l-0.2292-0.19831c11.179-13.089 5.6283-6.3326 16.626-20.289 12.293-14.311 24.912-29.248 41.619-38.562 0 0 3.1836 7.4091 3.1836 7.4091z"/>
      <path id="path6264" d="m1920.1 599.23c-9.3641 4.6879-17.976 10.799-25.706 17.86-3.0453 2.7821-5.8912 5.7748-8.8368 8.6622-14.401 15.013-26.954 31.619-38.983 48.55-2.7827 3.9168-5.7048 7.7449-8.2428 11.824-2.1691 3.4865-3.904 7.225-5.856 10.838l-0.2666-0.14407c1.9541-3.6162 3.9631-7.2034 5.8623-10.849 2.2338-4.2874 4.2239-8.7012 6.5357-12.947 10.121-18.587 22.312-36.055 36.618-51.666 10.84-10.75 22.058-22.479 36.799-27.703l2.076 5.5747z"/>
      <path id="path6266" d="m1918.7 608.21c-2.2295 5.7115-4.3099 11.47-6.6506 17.138-2.7261 6.5119-5.1793 13.108-7.0042 19.927-1.2044 3.7364-1.375 7.6411-1.7211 11.513-0.4105 4.5929-0.6358 9.1102-0.7309 13.723 0.025 6.5247 0.2363 13.157 1.6213 19.564 0.7449 3.446 1.9377 6.5107 3.1009 9.8263 1.5416 5.1084 4.4482 9.3984 7.506 13.678l-0.2331 0.19369c-3.765-3.9218-7.4842-7.8734-10.167-12.659-0.8067-1.659-1.7072-3.2755-2.4201-4.9768-3.4979-8.3483-4.6923-16.787-4.3982-25.791 0.2117-4.6944 0.2842-9.488 0.8133-14.16 0.4637-4.095 1.569-8.0916 2.3672-12.124 2.093-6.9515 4.9081-13.596 8.2362-20.047 2.5909-5.5359 5.1477-11.083 7.7635-16.602 0 0 1.9164 0.79645 1.9164 0.79645z"/>
      <path id="path6268" d="m1916 712.12c3.14 6.7762 6.8227 13.28 10.265 19.903 3.033 5.0721 5.9156 10.262 9.3432 15.087 3.3342 4.6937 7.1701 9.0572 10.83 13.495 6.1989 7.4918 12.821 14.944 17.08 23.784 0.8138 1.6891 1.4186 3.4712 2.128 5.2068l2.5344 4.1967-0.2593 0.15685c-0.844-1.3932-1.6881-2.7863-2.5322-4.1795-5.5206-5.2698-11.039-10.544-16.579-15.791-1.4223-1.3472-2.9296-2.6042-4.3271-3.9771-1.3914-1.3667-2.6899-2.8248-4.0349-4.2372-1.3202-1.4708-2.6866-2.9014-3.9607-4.4123-6.6374-7.8711-12.172-16.673-17.046-25.718-3.6547-6.7848-7.0994-13.713-9.8753-20.91l6.434-2.6041z"/>
      <path id="path6270" d="m2017.3 593.29c13.544 1.0035 26.937 3.5542 40.136 6.683 6.5838 1.5607 13.163 3.1568 19.671 5.0077 7.5367 2.1434 14.966 4.6476 22.449 6.9714 33.853 12.17 66.895 27.999 93.672 52.536 15.088 13.825 20.796 22.741 32.961 38.722 3.772 6.1742 7.5439 12.348 11.316 18.523l-0.2586 0.15798c-3.7649-6.1641-7.5297-12.328-11.295-18.492-5.1777-6.2425-9.9235-12.87-15.533-18.727-6.0015-6.2663-12.53-12.028-19.217-17.557-27.516-22.75-59.174-39.629-92.903-51.136-7.4075-2.3313-14.763-4.8335-22.222-6.994-19.343-5.6026-39.16-9.6087-59.046-12.705 0 0 0.2703-2.9886 0.2703-2.9886z"/>
      <path id="path6272" d="m2045.2 575.67c19.826-0.75374 39.674 0.79614 59.316 3.4442 7.1541 0.96448 14.275 2.1605 21.413 3.2408 38.898 7.7353 77.992 18.683 111.96 39.833 5.6853 3.5395 10.919 7.7575 16.378 11.636 16.234 15.021 8.7999 7.5354 22.466 22.294l-0.2224 0.20588c-13.58-14.671-5.876-7.6607-23.462-20.638-15.687-9.4201-19.448-12.249-36.6-20.066-29.088-13.256-59.916-22.529-91.306-28.386-7.0512-1.1951-14.075-2.5674-21.154-3.5852-19.468-2.7989-39.154-4.0015-58.793-4.6615v-3.3166z"/>
      <path id="path6274" d="m2039.3 600.69c1.7977 0.56759 7.7298 2.4356 8.5846 2.7387 11.617 4.1192 23.203 8.698 34.479 13.658 5.6275 2.4757 11.165 5.1506 16.748 7.726 26.314 13.131 51.645 28.748 72.69 49.526 13.385 13.214 16.303 18.59 27.05 33.589 12.315 21.093 6.7878 10.685 16.749 31.133l-0.2724 0.1327c-9.9248-20.379-4.1604-10.186-17.57-30.421-4.4043-5.2876-8.5814-10.773-13.213-15.863-9.0287-9.9227-21.83-22.041-32.323-30.348-5.8756-4.6518-12.053-8.9174-18.275-13.095-16.8-11.281-18.976-11.842-36.518-21.063-15.738-7.4722-15.624-7.6012-30.767-14.142-21.283-9.1927-2.441-0.90588-19.805-8.1389-2.7709-1.1542-5.4703-2.4746-8.2386-3.6354l0.68-1.7982z"/>
      <path id="path6276" d="m2054.7 588.95c17.874 1.4266 35.65 4.5046 53.091 8.6428 6.6299 1.5731 13.189 3.4324 19.783 5.1487 21.839 6.2703 43.465 13.782 63.653 24.339 6.5795 3.4408 13.073 7.0973 19.202 11.289 15.114 10.337 17.444 14.164 29.619 27.121 12.02 18.502 6.7437 9.3023 16.048 27.471l-0.2689 0.13966c-9.4159-17.882-3.6797-9.1995-17.591-25.792-4.5778-4.257-8.8871-8.8225-13.733-12.771-5.2778-4.3001-10.877-8.2073-16.579-11.926-25.027-16.323-52.894-27.327-81.421-35.838-6.5215-1.7675-13.011-3.6564-19.565-5.3026-17.322-4.3512-34.906-7.4692-52.588-9.9188l0.3494-2.6024z"/>
      <path id="path6278" d="m1966.1 818.18c-0.4558 0.33305-0.8859 0.70426-1.3672 0.99915-0.5319 0.32586-1.1216 0.54802-1.6632 0.8575-2.2376 1.2787-4.3622 2.7476-6.4648 4.2333-3.6704 2.5683-5.978 4.5196-8.1402 8.4777-3.0134 6.5044-3.789 13.659-4.7758 20.671-0.6374 6.6627-0.5144 13.347 1.1703 19.855 0.9185 3.5484 2.2735 7.0442 3.5128 10.483 2.3489 5.3408 4.9854 10.53 7.7711 15.652 0.8067 1.4834 1.5206 3.0217 2.4247 4.4478 0.7706 1.2155 1.7245 2.3046 2.5868 3.457l-0.2296 0.19788c-4.2787-4.3249-1.9804-2.1267-6.9297-6.5577-4.3965-4.3526-8.3133-9.2306-11.538-14.508-2.7051-4.9726-3.695-6.1366-5.2606-11.582-2.0945-7.2847-1.9327-14.923-1.0196-22.369 0.8618-8.096 2.1009-16.43 6.0753-23.657 1.1529-1.6619 1.9896-3.0265 3.4238-4.4693 2.1811-2.1942 4.9889-3.8567 7.6488-5.3734 3.4235-1.8852 7.0259-3.4215 10.693-4.7298 0 0 2.0823 3.914 2.0823 3.914z"/>
      <path id="path6280" d="m1962 903.44c5.6689 3.4698 10.487 8.0642 15.604 12.262 3.1213 3.0442 6.5634 5.671 10.003 8.3284 1.1833 0.91422 2.2899 1.9285 3.5063 2.7982 2.4929 1.7825 5.1559 3.3145 7.7216 4.9906 7.359 4.4762 15.099 8.2706 22.831 12.047 3.8201 1.5262 8.0677 3.1821 12.089 4.0846 1.2749 0.28615 2.5864 0.3741 3.8796 0.56116v0.30301c-2.7998 0.31654-5.5814 0.8431-8.3955 0.9837-3.3779 0.16877-5.9357-0.21074-9.2872-0.54206-1.5331-0.27752-3.0887-0.45089-4.5993-0.83255-7.5399-1.9051-14.028-6.4078-20.6-10.35-6.1334-4.0086-2.0279-1.2022-7.9493-5.5676-1.2811-0.94443-2.6278-1.8023-3.8651-2.8034-3.4261-2.7724-6.6171-6.0556-10.058-8.8315-4.3925-4.4798-8.9777-8.8567-13.887-12.759 0 0 3.0123-4.6735 3.0123-4.6735z"/>
      <path id="path6282" d="m2018.6 947.36c7.1814 2.2544 14.301 4.7296 21.452 7.0905 11.039 3.8109 22.464 6.4331 34.098 7.5451 3.0384 0.29044 6.0902 0.41997 9.1353 0.62995 3.3178 0.0469 6.6362 0.22118 9.9533 0.14077 11.152-0.27033 22.324-1.6194 33.387-2.931 12.008-1.4236 11.696-1.4212 23.685-2.9966 10.489-0.98254 20.952-2.437 31.487-2.8874 2.6287-0.11237 5.2642 0.0282 7.8929-0.0861 11.427-0.49665 1.4928-0.82662 11.896-0.20585 1.4619-0.57283 2.9239-1.1456 4.3858-1.7185l0.1105 0.28219-4.4253 1.7309c-1.6782 0.95666-3.2285 2.1848-5.0346 2.87-2.037 0.77282-4.2521 0.95262-6.3715 1.4574-2.5704 0.61216-5.1098 1.3582-7.6974 1.8933-10.299 2.1296-20.802 3.0855-31.148 4.9343-22.79 3.0369-45.664 6.7091-68.738 5.3293-3.2018-0.28503-6.4152-0.46158-9.6055-0.85511-12.088-1.4912-23.846-4.8764-35.114-9.4403-6.9834-2.8665-13.893-5.8751-20.527-9.4852l1.1807-3.2975z"/>
      <path id="path6284" d="m2185.9 953.2c13.406-3.9564 27.027-7.1109 40.695-10.007 22.334-4.4947 44.706-8.9152 67.198-12.554 9.136-1.2578 6.3174-1.0651 14.714-1.5509 3.5245-0.20393 5.406-0.48211 8.7504 0.14744 1.479 0.27842 2.9388 0.9388 4.3273 1.5091 0.257 0.12487 0.5141 0.24975 0.7711 0.37463l0.031 0.30144c-0.232 0.17544-0.4639 0.35089-0.6958 0.52633-1.1641 0.75291-2.6523 1.7667-3.8892 2.2896-3.1688 1.3397-4.8208 1.4218-8.357 2.1066-9.2627 1.7937-3.9738 0.8892-14.38 2.4225-22.413 3.3882-44.793 6.9645-67.076 11.14-13.64 2.7711-27.262 5.7465-41.031 7.8028l-1.0568-4.509z"/>
      <path id="path6286" d="m1976.2 820.04c5.6497 2.1685 11.058 4.9739 16.582 7.4593 12.306 6.1846 24.19 13.154 36.166 19.946 10.967 6.2118 22.346 11.707 34.088 16.293 7.2855 2.8454 11.157 4.1016 18.539 6.6525 10.909 3.5361 7.3439 2.5288 18.343 5.5072 3.0042 0.81347 5.9867 1.7191 9.0252 2.3934 2.9929 0.66411 6.033 1.094 9.0535 1.6183 2.9965 0.5201 5.9661 1.2664 8.9973 1.5147 2.9203 0.23921 5.86-0.0385 8.79-0.0577 2.7126-0.42987 5.4251-0.85973 8.1376-1.2896l0.047 0.29931c-2.7207 0.43082-5.4414 0.86164-8.1621 1.2925-1.4056 0.20304-17.134 2.4995-18.25 2.5579-3.2079 0.16796-6.4273-0.0739-9.6326-0.28466-3.2539-0.21397-6.5115-0.48083-9.7326-0.98878-5.3856-0.84931-14.054-3.1961-19.303-4.5366-3.2083-1.0402-6.4415-2.0068-9.625-3.1206-15.458-5.4083-30.261-12.502-44.488-20.584-11.808-6.8596-23.459-14.003-35.508-20.44-5.1222-3.0307-10.34-5.9006-15.438-8.9686 0 0 2.3696-5.2642 2.3696-5.2642z"/>
      <path id="path6302" d="m1889 684.64c-2.6388 3.1647-5.2545 6.3612-8.1329 9.3338-3.1 3.2286-6.4166 6.1876-9.983 8.8846-3.6476 1.9978-7.5049 3.6527-11.494 4.8428-3.0263 1.0362-5.9377 2.4107-8.9571 3.4392-2.8466 1.043-5.6625 2.136-8.4209 3.3921-4.864 2.4766-8.1939 6.8043-11.408 11.073-3.9794 5.3459-7.2261 11.144-10.474 16.945-1.4274 2.5496-2.9415 5.0525-4.2846 7.6475-2.7053 5.2269-5.393 11.498-7.7784 16.87l-2.8875 8.3863-0.2906-0.086c0.7167-2.8813 1.4334-5.7625 2.1501-8.6438 0.7147-3.0731 1.3149-6.1751 2.1442-9.2192 3.4663-12.725 8.4443-25.095 16.132-35.879 3.8763-5.1528 7.7739-10.519 13.95-13.039 2.9462-1.3768 5.9947-2.4158 9.1241-3.2896 3.0472-1.0943 6.1743-2.0067 9.3018-2.8515 3.5426-1.2316 7.3851-1.7045 10.644-3.6811 3.7863-1.836 6.9788-4.6088 10.171-7.3177 1.6654-1.3974 3.2455-2.8233 4.8362-4.2999 0.5064-0.47013 1.0847-0.86288 1.5638-1.3608 0.4613-0.47941 0.7841-1.0802 1.2458-1.5593 0.3817-0.39618 0.8474-0.70185 1.2711-1.0528l1.5754 1.4665z"/>
      <path id="path6304" d="m1809.1 745.71c0.7404 5.2536 0.5294 10.557 0.6401 15.847 0.033 1.0881 0.1111 2.1758 0.1 3.2644-0.011 1.0885-0.1441 2.1731-0.1672 3.2614-0.093 4.409 0.1119 8.8264 0.5223 13.213 1.6575 8.9852 6.8888 14.269 13.215 20.415 9.4059 8.5814 18.715 17.265 28.271 25.68 1.5121 1.1338 3.0242 2.2677 4.5364 3.4015l-0.1483 0.26429c-1.792-0.71994-3.5841-1.4399-5.3761-2.1598-1.9014-0.90344-3.8464-1.7204-5.7042-2.7103-9.7178-5.1779-18.481-12.079-26.535-19.529-7.1347-7.3519-13.498-14.219-14.534-24.889-0.4012-6.8115 0.1787-13.6 0.9018-20.372 0.4435-5.1091 0.6215-10.254 0.7693-15.372l3.5094-0.31413z"/>
      <path id="path6306" d="m1840 822.06c-0.3944 3.6667 0.05 7.4874 2.1082 10.636 0.5695 0.87131 1.268 1.6511 1.902 2.4767 0.8636 0.88551 1.6527 1.8504 2.5908 2.6565 7.8963 6.7848 18.132 10.179 27.874 13.254 14.815 4.0295 29.895 6.9808 44.911 10.153 5.9932 1.5986 3.1568 0.81939 8.5125 2.3251l-0.01 0.30287c-5.5841 1.1299-2.6122 0.66914-8.9305 1.2829-5.0255-0.0611-8.075-0.008-13.197-0.47741-11.366-1.041-22.558-3.6188-33.498-6.7954-4.2641-1.43-10.935-3.522-15.085-5.4595-2.0873-0.97451-4.0657-2.1716-6.0383-3.3614-4.7248-2.8499-9.0023-6.1591-12.343-10.601-0.6452-1.2077-1.3948-2.3652-1.9357-3.6232-1.8809-4.374-1.9363-9.0603-0.4999-13.554l3.6386 0.78408z"/>
      <path id="path6308" d="m2154 876.31c12.056-4.0904 24.864-4.8715 37.484-5.314 9.2883 0.30103 18.717 0.83212 27.841 2.7545 4.5492 0.95846 12.247 3.3712 16.646 5.1406 2.2607 0.90939 4.4193 2.0546 6.629 3.082 6.6467 3.7637 3.5524 1.9389 9.3044 5.4378l-0.1115 0.28179c-6.5121-1.3571-3.0408-0.65947-10.418-2.0723-16.404-3.4796-32.859-7.569-49.741-7.4928-2.7891 0.0182-5.58-0.0459-8.3674 0.0545-9.1304 0.32868-18.294 1.5552-27.103 4.0023 0 0-2.1635-5.8744-2.1635-5.8744z"/>
      <path id="path6310" d="m1958.8 788.36c0.2665 1.7262 1.1162 3.2333 1.7821 4.813 0.2226 0.52825 0.3444 1.0974 0.5897 1.6155 1.6157 3.4138 0.1819-0.53143 1.2588 2.6587-0.06 0.57799 1.0791 2.7908 0.1768 3.25-0.33 0.16791-0.7394-0.0399-1.1091-0.0599 0 0 0.2904-0.72573 0.2904-0.72573-0.1049 0.23881-0.01 0.73876-0.2713 0.73402-0.7294-0.0133-1.0577-1.8377-1.7397-1.9411-1.3825-2.2327-0.1974-0.10315-1.2648-2.8127-0.2197-0.5576-0.5453-1.0701-0.7573-1.6306-0.6619-1.7498-1.077-3.6127-1.5489-5.4184 0 0 2.5933-0.48283 2.5933-0.48283z"/>
      <path id="path6312" d="m1951.7 790.79c-2.2463-1.4934-5.2874-3.1572-7.9772-3.5816-0.9645-0.26502-1.9558-0.4484-2.8326 0.0186 0.1835 0.78115-2.1758-0.90357-2.2903-0.72053-0.067 0.10767 0.067 0.24507 0.1 0.36761-0.462 0.15877-0.095 0.0712-1.0417-0.39481-1.4528-0.71478-2.2585-1.5577-3.2013-2.881-1.608-1.9725-2.167-4.4324-2.9569-6.7837-0.2997-0.74836-0.8228-1.4012-1.0447-2.1367-0.084-0.0692-0.1452-0.23088-0.2512-0.20746-0.087 0.0191 0.1074 0.14845 0.1236 0.23566 0.023 0.12299-0.2329-0.0917-0.3519-0.13027-1.0349-0.33502 0.077 0.11169-1.315-0.50246-2.5378-1.2826-5.2563-2.0678-7.9726-2.8714-5.6959-2.1426-10.729-5.591-16.109-8.3736-7.5663-3.5688-15.285-6.8337-23.232-9.453-3.9181-1.0628-7.8988-1.7899-11.955-2.0112-1.4906-0.0813-2.9907-0.24457-4.4772-0.10689-1.7211 0.15941-3.3849 0.70657-5.0894 0.99296-2.0198 0.33936-4.0537 0.58915-6.0805 0.88372-2.0232 0.8402-4.0464 1.6804-6.0696 2.5206l-0.1413-0.2681c1.8664-1.2096 3.7329-2.4191 5.5994-3.6286 1.7206-1.3707 3.2939-2.9502 5.1619-4.1122 1.7187-1.0692 3.642-1.7752 5.5192-2.5323 1.7725-0.71491 3.5525-1.4594 5.4171-1.8788 5.0539-1.1366 10.172-0.40061 15.035 1.1232 8.4875 2.7034 16.714 6.163 24.689 10.131 2.117 1.1255 4.1814 2.2009 6.2619 3.3877 2.1542 1.2287 4.2655 2.6664 6.5544 3.6475 0.6349 0.27213 1.3067 0.44857 1.96 0.67286 2.982 1.1427 6.0446 2.0601 8.9505 3.3843 2.1163 1.0567 4.4572 2.339 5.5284 4.549 0.8237 1.4792 1.4172 2.9357 1.7599 4.6157 0.2156 1.4721 0.5213 2.9373 0.9425 4.364 0.2596 0.4119 0.7407 0.94679 0.8495 1.4269 0.011 0.047-0.1276 0.067-0.099 0.10556 0.1087 0.14501 0.2858 0.223 0.4287 0.33449 0.5407 0.57408 1.1027 1.203 0.7378 1.2116-0.2901 0.007-0.5616-0.16632-0.8513-0.18136-0.071-0.004 0.1044 0.0969 0.1566 0.14531 0.7836 0.52959-0.6369-0.46433 0.4187 0.4494 0.7029 0.60844 1.6248 0.99537 2.4384 1.4368 1.1824 0.77937 2.4784 1.3086 3.6694 2.0565 1.4637 0.91925 2.7423 2.1587 4.2656 2.999l-1.2271 1.6957z"/>
      <path id="path6314" d="m1846.2 756.71c-6.4088 3.0582-12.543 6.6574-18.561 10.418 0 0-0.1692-0.25142-0.1692-0.25142 5.8176-4.2065 11.571-8.5552 17.999-11.811l0.7308 1.6442z"/>
      <path id="path6316" d="m2080.8 853.54c5.405-3.3184 7.518-9.6202 9.2271-15.385 2.1799-6.9537 2.0764-14.23 2.4366-21.419 0.1352-3.1591 0.9772-5.9883 2.4116-8.7729l0.294 0.0737c0.01 0.66577-0.044 1.3356 0.029 1.9973 0.2521 2.2571 1.4576 4.2237 1.7491 6.4753 0.3253 2.2465 0.6833 4.1137 0.6254 6.4172-0.032 1.2814-0.2365 2.5529-0.3795 3.8268-0.4947 4.4064-1.2851 8.745-2.6939 12.964-2.3383 5.8636-4.9322 12.694-10.854 15.89-0.6655 0.35922-1.4251 0.50681-2.1377 0.76022l-0.7086-2.8272z"/>
      <path id="path6318" d="m2100.7 803.04c-0.4004-9.9306 5.7374-16.063 12.246-22.693 15.315-11.895 33.404-17.27 51.887-22.036 8.34-2.4069 17.036-2.7453 25.478-4.6238 2.2172-0.49338 4.3872-1.1792 6.5808-1.7688l0.095 0.28778c-10.134 3.9829-20.265 8.0804-30.771 10.988-14.677 4.5362-30.58 8.9298-43.786 16.973-2.0332 1.2383-3.899 2.7328-5.8485 4.0991-1.5688 1.3097-3.2385 2.5074-4.7064 3.9292-3.9512 3.8272-7.209 9.0409-7.9055 14.563l-3.2683 0.2817z"/>
      <path id="path6320" d="m2302.5 376.24c3.9471-0.77092 7.9886-0.62781 11.981-0.78876 8.8086-0.35517-0.057-0.48036 9.2138-0.16964 9.5015 0.27582 19.265 0.23709 28.444 3.0885 2.1946 0.68173 4.2873 1.6559 6.431 2.4839 2.0863 1.2059 4.2866 2.2332 6.2589 3.6176 8.3692 5.8747 13.691 13.691 17.664 22.972 0.788 1.841 1.3702 3.7634 2.0553 5.645 1.282 6.1605 0.544 3.2802 2.1327 8.6614l-0.2685 0.14046c-3.509-4.3953-1.6449-2.1116-5.6076-6.8387-3.6086-5.014-7.0962-10.082-11.084-14.81-1.3914-1.6493-2.7473-3.3382-4.2834-4.8537-3.9702-3.9168-5.1177-4.2736-9.7688-7.1521-1.8278-0.73329-3.6186-1.5667-5.4835-2.1999-8.5646-2.908-17.749-3.3605-26.675-4.2315-1.5445-0.0357-3.089-0.0714-4.6336-0.10717-1.4402-0.12488-2.8759-0.3245-4.3207-0.37464-3.9424-0.1368-7.9188 0.28112-11.859-0.0783 0 0-0.1955-5.0051-0.1955-5.0051z"/>
      <path id="path6322" d="m2383 392.7c13.84-1.5483 27.771-2.0369 41.661-2.983 22.528-1.326 45.055-2.5001 67.619-2.9463 9.3059 0.0297 10.561-0.16081 19.67 0.60916 5.1649 0.43661 11.659 1.0805 16.659 2.7388 5.5591 1.8434 7.5021 3.6109 12.182 6.7918 5.2955 6.0565 2.9764 2.8748 7.0158 9.502l-0.2382 0.18733c-5.1199-5.0466-2.3032-2.8495-8.4515-6.5894-1.7777-0.70441-3.4918-1.5978-5.3333-2.1132-2.0877-0.58433-4.2574-0.82455-6.3976-1.1702-11.588-1.8715-23.281-2.1553-35.001-2.1945-22.474 0.16287-44.944 0.80704-67.398 1.7652-13.821 0.42834-27.634 1.0318-41.451 1.5443l-0.5357-5.142z"/>
      <path id="path6324" d="m2562.2 402.53c0.9696 0.3724 1.9593 0.69596 2.9087 1.1172 0.9003 0.39946 8.3167 4.1031 8.6888 4.2862 6.1533 3.0286 12.143 6.2146 18.114 9.5922 11.908 7.122 22.405 16.657 29.859 28.441 1.6079 2.5417 2.9183 5.2599 4.3775 7.8899 6.7488 14.452 9.2225 30.287 9.4729 46.132 0.047 2.9681-0.092 5.9362-0.1379 8.9043-0.3204 6.9803-1.2213 13.902-1.7769 20.863l-0.3031 0.00094c-0.596-6.9108-1.5629-13.758-2.4618-20.637-2.0639-17.593-3.3987-35.628-10.836-51.97-1.3003-2.4331-2.4773-4.9363-3.9011-7.2994-6.7704-11.237-16.29-20.254-27.161-27.479-5.7126-3.5377-11.486-6.9437-17.421-10.1-1.3407-0.71318-6.8878-3.447-8.5478-4.3421-0.8387-0.45222-1.647-0.95861-2.4705-1.4379l1.596-3.9618z"/>
      <path id="path6326" d="m2642.4 505.8c5.588 4.6179 8.5343 11.255 11.586 17.643 3.9463 8.2456 8.0092 16.452 12.88 24.202 3.7365 5.9452 6.4836 9.6158 10.602 15.4 14.685 19.764 32.279 37.03 49.651 54.38 11.891 9.6879 5.8477 5.321 18.052 13.208l-0.1645 0.25451c-12.242-7.9124-5.9195-3.8729-18.974-12.106-3.618-2.3127-7.3654-4.4344-10.854-6.9381-7.6362-5.4808-13.3-10.798-19.971-17.387-8.5689-8.4627-16.468-17.528-23.708-27.154-1.9713-2.7584-4.0223-5.4616-5.9138-8.2753-6.9423-10.327-12.775-21.438-17.406-32.98-2.4739-5.9069-4.7782-12.093-8.5962-17.282 0 0 2.8172-2.966 2.8172-2.966z"/>
      <path id="path6328" d="m2697.1 597.03c5.7572 6.9073 10.472 14.651 13.932 22.957 1.0418 2.5006 1.8823 5.0803 2.8234 7.6204 5.0479 15.538 7.3572 31.852 7.4776 48.174 0.026 3.4846-0.2078 6.9664-0.3117 10.45-0.5942 15.052-3.9057 29.773-7.517 44.335 0 0-0.2941-0.073-0.2941-0.073 0.6081-2.4513 1.3412-4.8749 1.8242-7.3538 2.3648-12.137 2.2126-24.564 1.9668-36.864-0.2988-5.6929-0.7039-14.741-1.2805-20.415-0.3372-3.318-0.839-6.6173-1.3005-9.9202-1.2508-8.9517-2.7556-17.865-5.678-26.453-3.7787-10.383-7.8862-20.892-14.741-29.691l3.0985-2.7642z"/>
      <path id="path6330" d="m2511.4 763.79c7.4351 0.12509 14.629 2.189 21.606 4.6007 2.641 0.91288 5.2953 1.8035 7.8635 2.9045 2.7812 1.1923 5.4435 2.6448 8.1652 3.9672 15.318 7.946 28.917 19.173 38.15 33.915 1.9598 3.1292 3.4986 6.5031 5.2479 9.7546 3.3737 9.2103 4.8606 11.676 6.12 21.486 0.4682 3.6464 0.5218 7.3389 0.5557 11.015 0.091 9.9261-1.3526 19.563-2.8976 29.328l-0.2993-0.0474c1.326-8.375 1.9903-10.038 1.6705-18.733-0.5137-13.968-5.0283-27.397-10.669-40.056-4.2454-7.7627-5.241-10.369-10.732-17.313-8.0298-10.154-18.317-18.217-29.382-24.806-11.319-5.6433-22.71-11.082-35.398-12.758v-3.2596z"/>
      <path id="path6332" d="m2513.4 901.09c6.8503 2.1476 13.73 4.172 20.727 5.7926 7.0231 1.339 14.579 2.8321 21.657 0.84596 1.2905-0.36214 2.4952-0.97973 3.7428-1.4696 9.6041-4.4798 16.437-12.903 23.51-20.502 5.4599-6.0793 11.504-11.567 17.37-17.238l0.2361 0.18999c-4.3107 6.9864-8.236 14.232-13.338 20.7-7.156 9.0785-15.066 17.908-25.723 22.888-4.0164 1.2039-5.4392 1.867-9.6293 2.1958-6.4781 0.50833-12.901-0.94797-19.126-2.5332-7.0023-1.963-13.949-4.1295-20.565-7.1875l1.139-3.6816z"/>
      <path id="path6334" d="m2588.3 877.53c9.5812-1.7084 19.064-3.9212 28.552-6.0952 11.575-2.6528 23.197-5.6273 35.126-6.0824 1.5725-0.06 3.1472 0.0365 4.7208 0.0548 1.218 0.14094 2.4359 0.28188 3.6539 0.42282l0.042 0.30013c-1.1216 0.46764-2.2431 0.93528-3.3647 1.4029-12.696 4.2525-25.806 7.0306-38.89 9.7964-9.7526 2.0267-19.68 4.3421-29.703 3.8362l-0.1359-3.6355z"/>
      <path id="path6336" d="m2330.1 937.12c0.8522-0.0541 1.703-0.14205 2.5566-0.16232 6.8521-0.16273 0.063 0.29478 7.9217-0.14824 5.6296-0.31735 11.087-1.0593 16.637-2.0315 8.4044-1.8008 16.31-5.1956 24.248-8.3809 3.3762-1.3549 7.7329-2.9608 11.155-4.2398 6.874-2.3138 14.139-4.0166 20.524-7.5766 1.5845-0.88345 3.0474-1.9693 4.5711-2.954 0 0 0.1645 0.25452 0.1645 0.25452-1.526 0.98608-3.0908 1.9145-4.5779 2.9582-3.033 2.1288-5.802 4.6195-8.8463 6.7321-1.5247 1.0581-3.1289 1.9972-4.7117 2.9662-1.6015 0.98041-3.2269 1.921-4.8404 2.8816-11.692 5.8098-23.634 11.419-36.532 13.967-2.1345 0.37159-4.2565 0.82421-6.4035 1.1148-7.1765 0.97121-14.468 0.75736-21.684 0.56279 0 0-0.1824-5.9436-0.1824-5.9436z"/>
      <path id="path6338" d="m2410.1 910.79c7.0116-4.16 14.041-8.2982 21.547-11.531 2.5282-1.0888 5.119-2.0258 7.6785-3.0387 14.721-4.7884 30.346-9.0488 45.995-7.4906 2.8726 0.28603 5.6853 1.0058 8.5279 1.5087 6.7798 1.808 12.909 5.027 18.272 9.5361 1.195 1.0047 2.2297 2.1859 3.3445 3.2788l-0.1563 0.25963c-7.4277-2.2967-14.837-4.6872-22.544-5.905-2.5438-0.31146-5.0747-0.75878-7.6315-0.93438-14.733-1.0119-29.303 1.806-43.224 6.4751-5.7901 2.153-8.3097 2.9669-13.813 5.4636-3.2989 1.4966-6.5295 3.1408-9.755 4.7896-1.1427 0.58418-2.2369 1.2624-3.3918 1.8222-0.857 0.41539-1.7578 0.73331-2.6368 1.1l-2.213-5.3342z"/>
      <path id="path6340" d="m2709.2 655.8c-9.1151 5.4992-13.945 15.643-18.637 24.757-10.811 23.446-17.133 48.556-22.939 73.608-5.0914 25.784-9.7138 51.658-16.087 77.166-2.0197 7.8365-3.7408 15.764-6.017 23.534-2.4537 8.376-1.2864 2.3754-2.4691 10.196l-0.3013-0.0332c0.78-11.203 0.049 2.1662 0.016-10.584-0.021-8.1694 1.2403-16.298 2.2424-24.379 3.6279-26.137 8.1466-52.178 13.898-77.934 6.0401-25.736 12.718-51.536 23.803-75.636 1.4463-2.7853 2.7785-5.6329 4.3389-8.3559 4.5248-7.8961 10.369-15.367 18.419-19.867 0 0 3.7316 7.5264 3.7316 7.5264z"/>
      <path id="path6342" d="m2211.3 721.49c10.122-7.2305 21.034-13.253 31.844-19.377 7.7446-4.6698 15.838-8.8319 23.222-14.086 2.4157-1.7188 4.7026-3.6128 7.0091-5.4755 2.2331-1.8034 4.5094-3.5631 6.6078-5.5214 2.026-1.8907 3.8309-4.0053 5.7463-6.008 9.7709-10.676 15.903-23.754 21.637-36.867 1.7656-4.9405 4.0223-9.6768 6.0868-14.491 1.6137-3.7631 3.1256-7.4966 4.9359-11.173l0.9666-3.2956s0.2932 0.0766 0.2932 0.0766c-0.2562 1.1137-0.5124 2.2274-0.7685 3.3411-0.3001 9.595-2.0704 19.116-6.0789 27.896-6.0029 13.998-12.768 27.057-23.416 38.19-4.1335 3.9206-8.5865 8.3493-13.124 11.813-2.4224 1.8495-5.0153 3.465-7.5581 5.145-7.646 5.0515-15.528 9.726-23.796 13.697-4.4461 2.3233-10.162 5.2722-14.581 7.7249-3.7518 2.0824-7.4703 4.2258-11.159 6.4178-1.3202 0.78453-2.5872 1.6573-3.9172 2.4252-0.9198 0.53104-1.8849 0.97927-2.8274 1.4689l-1.1226-1.9001z"/>
      <path id="path6344" d="m2316.8 592.32c-0.9441-3.5413-1.7816-7.2587-1.7068-10.951 0.052-2.5713 0.6053-5.4193 1.0115-7.9397 1.4795-6.2298 3.3439-12.811 7.1588-18.08 0.5842-0.80671 1.285-1.5221 1.9276-2.2831 2.2802-2.3214 1.0574-1.3458 3.6233-2.9822l0.4481 0.24158c0.027 3.0818 0.1936 1.5044-0.5833 4.7228-0.3114 0.91767-0.5719 1.8543-0.9344 2.753-0.9465 2.3468-1.823 3.6949-2.9476 5.9878-1.6748 3.4147-3.0867 6.9457-4.1628 10.596-1.5108 5.6486-2.4282 11.449-1.3525 17.268 0 0-2.4819 0.66645-2.4819 0.66645z"/>
      <path id="path6346" d="m2309.5 563.04c-3.1034 0.30447-6.2468 0.48514-9.296 1.1956-1.7094 0.3983-3.9969 1.2539-5.6404 1.8314-5.548 2.4481-11.054 4.9793-16.663 7.29-2.6815 0.84481-5.2263 2.2496-7.9719 2.9036-0.8899 0.21195-2.4941 0.25744-3.3951 0.30625-0.6351-0.14048-1.307-0.16633-1.9053-0.42144-3.5559-1.5162-4.9088-5.55-4.8919-9.141 0.01-1.2921 0.2761-2.5694 0.4142-3.8541 1.2304-7.4874 4.9333-14.168 8.138-20.936 2.1547-4.5508 4.2376-9.1353 6.3646-13.699 3.46-7.2591 6.6495-14.656 10.195-21.875 1.1189-2.2781 2.368-4.4903 3.4999-6.762 2.3024-4.6209 3.5471-7.4862 5.6415-12.123l0.2823 0.11027c-0.6618 1.9939-1.3832 3.969-1.9854 5.9817-0.8787 2.9369-3.0339 11.439-3.7586 14.256-2.3072 7.8085-5.3387 15.411-8.7028 22.817-1.1009 2.3736-2.1717 4.7613-3.3026 7.1208-4.0192 8.3849-8.5942 16.621-11.038 25.652-0.1936 2.0618-1.1141 6.5543 1.11 7.946 3.3439 0.43972 6.665-1.3386 9.7834-2.2735 5.7712-2.0258 11.426-4.3562 17.208-6.3535 5.1848-1.511 10.558-2.67 15.99-2.1714l-0.076 2.1998z"/>
      <path id="path6348" d="m2037.2 386.6c-0.6162-1.5887-1.282-3.1495-2.086-4.6527-0.1838-0.34346-0.3439-0.70361-0.574-1.0178-0.109-0.14888-0.6092-0.31357-0.4284-0.35068 1.8432-0.3784 3.7333-0.47402 5.6-0.71102 2.8259 10.329 4.8501 20.873 6.7445 31.408 1.9181 11.466 3.9216 22.994 4.6961 34.611 0.2726 4.0897 0.2658 8.1934 0.4239 12.289-0.3139 5.2346-0.2369 2.8193-0.2899 7.2437l-0.3031-0.003c0.023-4.3614 0.2716-2.0179-1.0576-6.9907-1.0643-3.9515-2.3471-7.8431-3.3675-11.806-2.8902-11.225-4.4422-22.77-6.6004-34.142-2.0235-10.647-4.1264-21.281-6.2351-31.906 1.8263-0.58057 3.6056-1.3376 5.4788-1.7417 0.1932-0.0417-0.1164 0.38561-0.1076 0.58304 0.019 0.43014 0.1358 0.85049 0.1904 1.2776 0.2171 1.6982 0.4298 3.3925 0.8263 5.0626l-2.9104 0.84666z"/>
      <path id="path6350" d="m2054.3 438.12c0.2715-3.3913 0.2783-4.8051 1.1407-8.3935 2.6972-11.223 7.7173-21.808 12.59-32.2 3.4295-5.9691 7.0109-12.624 11.155-18.154 5.583-7.4503 12.604-14.178 20.027-19.781 1.926-1.4536 3.9998-2.7001 5.9997-4.0502 1.6048-1.1874 3.2096-2.3747 4.8143-3.5621 0 0 0.1803 0.24363 0.1803 0.24363-1.5999 1.1834-3.1997 2.3669-4.7995 3.5503-3.4093 3.5576-7.2862 7.5141-10.473 11.238-4.7755 5.5795-7.3147 9.1078-11.595 15.158-1.9832 2.8029-4.0306 5.5659-5.8575 8.4731-1.8341 2.9187-3.41 5.9919-5.115 8.9879-1.4979 2.9857-3.0819 5.9297-4.4937 8.9571-4.4402 9.5219-8.1454 19.444-10.445 29.706l-3.1283-0.17335z"/>
      <path id="path6352" d="m2102.2 463.31c10.137 1.1909 19.9 4.18 29.458 7.6614 3.6737 1.5625 9.6685 3.9913 13.161 5.9589 3.1675 1.7845 8.4084 5.5566 11.234 7.9285 0.8942 0.75056 7.0384 6.5866 8.155 7.6433l-0.1796 0.24411c-7.0448-3.9334-14.381-7.2797-21.664-10.745-2.0974-0.99777-4.1542-2.0804-6.2633-3.0531-2.1145-0.97524-4.2697-1.8597-6.4045-2.7895-9.2467-3.6313-18.521-7.2679-28.196-9.5904l0.7-3.2584z"/>
      <path id="path6354" d="m2077.7 511.31c9.6728-0.036 19.288-1.6114 28.616-4.1361 2.6886-0.72772 5.3384-1.592 8.0076-2.3881 7.6402-2.6467 15.773-4.2492 22.955-8.1236 2.1219-1.1447 4.0094-2.6791 6.0141-4.0186l0.1743 0.24784c-8.6815 6.4238-17.461 12.809-28.001 15.856-12.327 3.4369-25.133 6.7688-38.039 5.5812 0 0 0.273-3.0181 0.273-3.0181z"/>
      <path id="path6356" d="m2051 386.49c0.2792-7.8322 1.0383-15.706 2.8046-23.357 0.4985-2.1592 1.1457-4.2813 1.7185-6.422 2.463-8.1273 5.2912-16.663 11.019-23.174 3.3362-3.7927 4.5167-4.0342 8.7387-6.4789 5.4179-2.6792 2.7277-1.5249 8.0488-3.5137 0 0 0.1408 0.26833 0.1408 0.26833-4.4385 3.1258-2.2679 1.4056-6.4854 5.1939-6.6583 9.095-12.076 18.441-15.326 29.336-2.4858 9.4115-4.5407 18.906-5.5126 28.608l-5.146-0.46062z"/>
      <path id="path6358" d="m2072.6 366.1c0.3338-1.0151 0.5822-2.0624 1.0014-3.0453 3.107-7.2849 8.3612-14.426 13.597-20.291 1.7237-1.9306 3.606-3.7136 5.4089-5.5704 1.9341-1.7375 3.841-3.5057 5.8023-5.2124 1.886-1.6412 3.7612-3.2995 5.7381-4.83 5.1276-3.9695 10.776-7.2797 16.153-10.894l0.169 0.25151c-1.6257 1.0925-3.357 2.0422-4.8771 3.2775-3.1451 2.5557-6.6147 6.6469-9.3033 9.5992-7.0551 7.7473-2.9854 3.0944-9.8653 11.207-6.9948 8.6007-14.204 17.149-19.278 27.08l-4.5464-1.5728z"/>
      <path id="path6360" d="m2033.4 368.83c0.1319-0.91099 0.1749-1.8394 0.3958-2.733 1.7067-6.9018 5.1526-13.795 9.5363-19.361 1.4616-1.8561 3.15-3.5219 4.725-5.2828 8.4659-7.6849 18.74-12.958 29.938-15.301 1.7319-0.36252 3.4967-0.54466 5.245-0.81699 5.9383-0.3198 3.1008-0.0783 8.5158-0.68196l0.042 0.30008c-5.3227 0.90745-2.5917 0.25739-8.1701 2.0443-11.877 3.7577-23.585 8.3311-32.849 16.98-1.5352 1.592-3.174 3.0902-4.6055 4.776-5.0341 5.928-8.4496 12.912-10.325 20.422l-2.4485-0.34536z"/>
      <path id="path6362" d="m1951.7 408.31c-0.3781-4.2654-0.7809-8.5584-0.5588-12.847 0.1464-2.825 0.6982-6.5333 1.0694-9.3236 0.955-4.5969 2.2296-9.2553 4.3233-13.487 1.6663-3.3675 2.7674-4.3695 4.7952-7.4752 0.7803-1.1951 1.4877-2.4364 2.2315-3.6546l0.2655 0.14613c-0.6281 1.2743-1.3343 2.513-1.8844 3.8228-0.5056 1.2039-2.3778 6.9499-2.8003 8.1636-1.4852 4.2655-2.8743 8.5269-3.6406 12.999-1.273 7.0162-1.9905 14.177-1.1324 21.297 0 0-2.6684 0.35828-2.6684 0.35828z"/>
      <path id="path6364" d="m2009.6 280c5.4505 5.8024 11.046 11.485 16.699 17.097 1.9929 2.0578 4.1129 3.9474 6.0339 6.0711 0 0-0.1699 0.25092-0.1699 0.25092-2.759-1.0361-5.3061-2.3939-7.7627-4.0413-3.0255-2.1125-3.8485-2.5911-6.7458-5.0276-3.3128-2.786-6.287-5.8681-9.3462-8.9152-0.706-0.70326-1.4505-1.3668-2.1758-2.0503l3.4678-3.3844z"/>
      <path id="path6366" d="m1989.9 283.61c4.4971 7.5049 10.736 13.72 16.593 20.145 3.6603 4.3897 1.922 2.4605 5.6065 6.3186 1.1918 1.2479 3.0888 3.4064 4.6318 4.36 0.7093 0.43838 1.5444 0.62936 2.3166 0.94404l-0.1003 0.28595c-1.0799-0.32175-4.594-1.3488-5.4833-1.7068-3.8997-1.5698-7.2141-4.122-10.544-6.6305-6.8541-6.2778-13.395-13.283-17.84-21.507l4.8197-2.2094z"/>
      <path id="path6368" d="m1964.7 257.46c5.1104 8.386 8.2472 17.74 10.829 27.157 1.3585 6.7274 0.6106 3.5191 2.2 9.6349 0 0-0.288 0.0942-0.288 0.0942-2.3262-5.8543-1.0127-2.8498-3.9935-8.9902-3.88-8.7874-7.877-17.512-12.468-25.955l3.7205-1.9407z"/>
      <path id="path6370" d="m1941.9 211.58c4.9479 10.448 12.797 19.191 19.919 28.189 5.136 6.7539 10.783 13.078 16.504 19.333 0 0-0.2071 0.2213-0.2071 0.2213-6.684-5.3471-13.048-11.07-18.859-17.371-8.085-8.8293-16.129-18.132-21.309-29.02l3.9522-1.3526z"/>
      <path id="path6372" d="m1960.4 257.29c0.6066 1.8404 0.9442 3.0298 1.8684 4.877 3.5316 7.0592 8.4434 13.483 12.886 19.972 2.7438 3.9089 5.2023 7.695 8.451 11.219 1.4669 1.5911 3.1443 2.9742 4.7165 4.4614l-0.2029 0.2251c-5.2645-4.5221-10.554-9.0396-15.147-14.27-5.6632-6.928-12.466-15.059-15.101-23.799-0.2385-0.79085-0.2933-1.6258-0.44-2.4387l2.9678-0.24667z"/>
      <path id="path6374" d="m2260.2 249.81c-0.5918-0.61431-0.7007-0.97726-1.614-1.017-3.0153-0.13127-8.5923 3.8357-10.813 5.2079-6.4944 4.08-12.367 9.0508-18.374 13.795-2.2371 1.7669-4.556 3.4355-6.7044 5.3092-2.5128 2.1913-8.2547 8.0926-10.723 10.595l-0.2158-0.21284c3.5325-3.5804 7.1929-7.0351 10.662-10.677 1.9759-2.0742 3.7929-4.2954 5.7582-6.3796 5.3917-5.7181 11.184-11.007 17.249-16.002 4.5254-3.1406 12.135-9.3169 17.416-3.9402 0.4165 0.42403 0.6536 0.9929 0.9805 1.4894l-3.622 1.8324z"/>
      <path id="path6376" d="m2270.9 246.41c5.6283 7.3305 8.8296 15.937 11.936 24.533l-0.281 0.11337c-0.9217-2.0621-1.7682-4.1595-2.765-6.1864-2.9459-5.99-6.5123-11.733-10.666-16.958l1.7753-1.5024z"/>
      <path id="path6378" d="m2193.4 289.88c-5.1851 0.31106-8.6801 4.6162-11.826 8.2528-8.0993 9.6951-15.227 20.16-22.433 30.524-5.0631 6.207-10.003 12.55-14.415 19.238l-0.2556-0.16278c4.194-6.8263 7.7195-14.048 10.944-21.382 6.261-11.421 12.97-22.683 21.79-32.354 3.6001-3.5149 7.4067-7.8538 12.709-8.5847 1.2619-0.17395 3.0267 0.13908 4.2987 0.31197l-0.8118 4.1567z"/>
      <path id="path6380" d="m2195.9 279.59c-7.0211 6.9929-13.601 14.425-19.987 21.999-7.3647 8.3634-14.263 17.19-22.23 25.007-1.1338 1.1124-11.721 10.763-12.973 11.907-3.7139 3.6198-8.0365 6.5174-11.922 9.9309-1.5495 1.3612-2.9717 2.8607-4.4575 4.2911l-0.2102-0.21833c1.4861-1.4307 3.0321-2.8017 4.4584-4.292 3.5678-3.7279 6.7074-7.8516 10.379-11.485 11.558-12.359 22.62-25.173 33.611-38.035 6.7101-7.5553 13.359-15.26 21.39-21.467 0 0 1.9419 2.3624 1.9419 2.3624z"/>
      <path id="path6382" d="m2166.7 296.37c-0.4138-2.8349 0.067-6.8104-1.952-9.0499-1.6365-0.21994-3.1553-0.62036-4.8469-0.56979-5.2345 0.1565-10.261 1.54-15.262 2.9312l-0.096-0.28753c1.8944-0.7381 3.8198-1.4015 5.6834-2.2143 4.5418-1.981 11.403-6.6784 16.658-4.5783 0.9131 0.36488 1.5509 1.2091 2.3263 1.8136 0.4146 0.71775 0.9529 1.3771 1.2438 2.1533 0.9693 2.5869 0.037 7.0335 0.055 9.8018h-3.8089z"/>
      <path id="path6384" d="m2317.8 469.19c6.0797 5.2945 11.045 11.9 14.719 19.068 1.0687 2.0852 1.9645 4.2545 2.9468 6.3817 4.3594 10.877 5.3566 22.699 3.6376 34.276-0.6529 4.3965-3.718 15.971-4.7969 20.209-1.0637 3.3358-2.1275 6.6716-3.1913 10.007 0 0-0.2887-0.0921-0.2887-0.0921l3.1851-9.9849c0.7403-3.4011 1.7247-6.7582 2.2211-10.203 0.4764-3.3067 0.6003-6.6592 0.6894-9.9989 0.2964-11.105-1.5439-22.008-5.4384-32.413-0.8914-2.0191-1.6812-4.0861-2.674-6.0573-3.4494-6.8484-8.0033-13.036-13.193-18.651 0 0 2.184-2.5414 2.184-2.5414z"/>
      <path id="path6386" d="m2336.6 529.15c0.41 7.6764-0.012 15.383-0.776 23.027-1.5267 12.401-5.2459 24.397-8.7558 36.35-0.6041 2.3747-1.2025 4.7508-1.8121 7.124-1.9245 7.492-3.7767 14.952-5.0881 22.583-0.9227 5.3695-1.443 9.7595-2.1479 15.149-0.2554 5.4451-0.682 8.6773 0.1311 14.081 0.3324 2.2094 1.0332 4.3475 1.5498 6.5212 0 0-0.2948 0.0704-0.2948 0.0704-1.6444-6.8576-3.4114-13.714-3.9728-20.772-0.1301-2.5917-0.3995-5.1801-0.3904-7.7751 0.035-10.017 1.8563-21.699 4.1805-31.449 0.5774-2.4218 1.3115-4.8034 1.9672-7.2052 3.2318-11.733 7.0284-23.345 9.1165-35.363 1.1086-7.415 1.8335-14.873 2.4305-22.342h3.8623z"/>
      <path id="path6388" d="m2458.6 472.6c13.113-2.8342 26.163-5.8908 39.132-9.3416 18.808-5.4931 37.63-11.08 55.931-18.109 1.7642-0.835 3.5285-1.67 5.2928-2.505l0.1296 0.27392c-1.7658 0.83574-3.5317 1.6715-5.2976 2.5072-7.8706 4.1227-15.743 8.3674-23.927 11.847-10.042 4.2701-20.505 7.3825-30.999 10.313-13.084 3.3497-26.247 6.8024-39.688 8.3507l-0.5733-3.3359z"/>
      <path id="path6390" d="m2511 482.94c13.396 0.15111 26.789 0.49903 40.164 1.2772 9.4385 0.65341 18.711 2.4939 27.706 5.4034 5.4319 1.7569 8.1869 3.0428 13.31 5.2108l-0.1182 0.27907c-2.0105-0.85153-3.9479-1.9023-6.0316-2.5546-5.3122-1.663-10.453-2.0839-15.975-2.5698-6.167-0.54257-12.942-0.85367-19.113-1.1865-4.868-0.18739-13.713-0.54366-18.675-0.67477-7.2987-0.19288-14.648-0.1114-21.853-1.5041l0.5857-3.6808z"/>
      <path id="path6392" d="m2551.7 512.6c1.1085-0.13637 2.2106-0.34326 3.3255-0.40913 3.0359-0.17934 11.807-0.15136 14.127-0.12647 5.4791 0.0588 16.659 0.30135 21.912 0.63159 3.9956 0.2512 7.9766 0.69598 11.965 1.044 3.8262 0.16483 7.6523 0.32966 11.478 0.49449l-0.012 0.30282c-3.826-0.1353-7.6519-0.2706-11.478-0.4059-3.9954 0.11776-7.9895 0.29036-11.986 0.35328-7.2858 0.11472-14.574 0.0314-21.86 0.12653-4.6911 0.0613-9.3818 0.29054-14.073 0.22049-1.1142-0.0166-2.2236-0.14878-3.3354-0.22317l-0.064-2.0085z"/>
      <path id="path6394" d="m2626.9 612.16c0.8022-0.4475 1.5485-1.0151 2.4068-1.3425 2.7048-1.0318 5.7782-1.3465 8.6222-1.5205 6.9272-0.42371 13.661 0.39799 20.524 1.2224 11.518 1.5509 23.487 3.1244 33.944 8.5641 1.341 0.69759 2.5855 1.5667 3.8783 2.35 2.5192 1.3912 3.9522 2.6216 5.194 5.1242l-0.2582 0.15863c-0.276-0.35687-0.4504-0.82356-0.8278-1.0706-0.859-0.56221-4.6017-1.5038-5.1373-1.6541-12.475-2.6567-24.927-5.4496-37.506-7.5859-9.2382-1.1286-19.126-3.0178-28.316-0.79088l-2.5237-3.4549z"/>
      <path id="path6396" d="m2658.7 634.78c1.5073 0.53275 6.7068 2.3457 7.7096 2.8313 5.3161 2.5742 11.849 7.1717 16.21 11.102 1.7481 1.5754 3.2932 3.3624 4.9397 5.0436 3.0573 4.4232 4.5144 6.059 6.6569 10.915 0.7124 1.6147 1.164 3.3324 1.746 4.9985l-0.2695 0.13858c-0.9806-1.3727-1.877-2.8095-2.9416-4.1181-2.9949-3.6814-4.9637-5.2726-8.4739-8.5361-3.6136-3.289-6.133-5.7234-10.025-8.6973-4.5354-3.4659-5.2507-3.6332-9.9667-6.4578-5.0195-3.0064-2.2653-1.6778-6.7226-3.5577l1.1364-3.6619z"/>
      <path id="path6398" d="m2637.8 684.31c9.7629 4.5065 18.971 10.217 27.787 16.352 5.1624 4.0807 12.955 10.619 13.614 17.754 0.08 0.86655-0.1348 1.7352-0.2022 2.6029 0 0-0.303 0.008-0.303 0.008-0.111-0.76851-0.083-1.5705-0.333-2.3055-0.6993-2.0549-2.0739-3.525-3.5724-5.0382-3.5523-3.5872-7.8698-6.0964-11.851-9.1582-5.2062-3.5126-10.443-6.9574-15.854-10.15-3.7635-2.2203-5.0285-2.779-8.5885-4.9128-0.8609-0.51602-1.696-1.0738-2.5441-1.6107l1.8479-3.5415z"/>
      <path id="path6400" d="m2629.2 727.2c8.3482 2.0611 16.528 5.1572 24.153 9.1508 1.7873 0.9361 3.4846 2.0348 5.2269 3.0522 4 2.3897 7.8009 5.2349 10.955 8.69 0.6874 0.75294 1.2464 1.6139 1.8861 2.4078 1.8617 2.3103 1.0908 0.90388 2.076 3.2081-0.031 0.36195-0.063 0.72391-0.094 1.0859l-0.343 0.0221c-0.069-0.21609-0.1376-0.43219-0.2064-0.64829-0.7092-0.58595-2.0744-1.7356-2.7355-2.1568-0.8031-0.51178-1.6725-0.91127-2.5027-1.3778-3.8822-2.1817-7.7554-4.3816-11.59-6.6466-9.0469-4.7928-18.168-9.4888-27.92-12.711l1.0949-4.0768z"/>
      <path id="path6402" d="m2632.6 752.43c4.2607 6.2382 9.2489 11.998 13.153 18.482 0.9404 1.562 1.7457 3.2016 2.6185 4.8024 2.7708 5.4288 4.8314 11.388 4.657 17.541l-0.4041 0.0265c-0.1089-0.64745-0.1296-1.3161-0.3267-1.9423-1.5508-4.9273-5.275-8.8464-7.6867-13.317-3.0454-4.418-6.0011-8.9092-9.1204-13.275-2.3814-3.3331-4.9427-6.5484-6.8049-10.224l3.9142-2.0927z"/>
      <path id="path6404" d="m2639 787.39c3.9259 11.093 3.8066 22.061 3.2211 33.652 0.038 2.2713 0.076 4.5425 0.1134 6.8138 0 0-0.303 0.005-0.303 0.005-0.038-2.2656-0.075-4.5312-0.1127-6.7968-1.3132-6.5713-2.7279-13.129-4.4792-19.601-0.4741-1.752-1.0808-3.466-1.5609-5.2164-2.4529-8.9428 0.2367-0.2502-1.9813-7.2241l5.1026-1.6328z"/>
      <path id="path6406" d="m2611.6 689.23c4.5198-2.5159 9.3791-4.2693 14.154-6.2106 2.6802-1.0896 5.3207-2.2766 8.0135-3.3348 6.6949-2.6308 11.248-4.1244 18.053-6.4768 7.558-2.0929 14.884-4.8111 22.113-7.8225l0.1166 0.27974c-7.2311 3.0126-14.329 6.292-21.186 10.1-5.2324 2.4765-12.071 5.7714-17.397 8.0612-7.319 3.1468-14.75 6.0472-22.141 9.0192l-1.726-3.6151z"/>
      <path id="path6408" d="m2266 886.64c-1.4381 0.52275-2.8417 1.1148-4.2145 1.7891-0.2355 0.11571-0.7158 0.61805-0.7023 0.35595 0.2158-4.1761 0.1103-3.5228 2.8825-3.4962 9.1436-0.50197 18.257-1.3612 27.384-2.0767 2.4773-0.18995 11.671-2.0077 12.163 2.4912 0.1289 1.1769-0.7648 2.2409-1.1472 3.3613-0.7759 0.69084-1.4964 1.4494-2.3275 2.0725-3.2821 2.4608-7.0683 4.3377-10.598 6.3971-5.1998 3.1312-2.6088 1.603-7.7715 4.5873-3.0514 1.9069-6.0936 3.816-8.9801 5.9668-0.6103 0.45471-1.2316 0.89694-1.8107 1.3907-0.241 0.20549-0.7026 1.0113-0.6418 0.70052 0.1098-0.56125 0.5343-1.0113 0.8015-1.5169 0.022-0.36303-0.2899-1.0078 0.065-1.0891 0.8378-0.19227 1.6778 0.39002 2.5312 0.4934 1.3663 0.16553 2.743 0.23228 4.117 0.31205 4.9841 0.28934 9.9651 0.40004 14.956 0.39213 2.5957 0.0805 14.301-1.4313 14.48 3.4424 0.052 1.4205-1.2021 2.5761-1.8032 3.8642-1.0128 0.67213-1.9765 1.4248-3.0383 2.0164-2.6182 1.4587-5.9465 2.7052-8.7186 3.7397-4.614 1.7219-9.2926 3.2789-13.944 4.8954-1.8518-0.48694-3.0907 1.8714-4.8197 1.9236-0.3897 0.0118 0.893-0.28787 0.9571-0.67246 0.1578-0.94646-1.0113-2.1422-0.3688-2.8549 0.6159-0.68332 1.832 0.18926 2.7517 0.21127 1.3409 0.0321 2.6824-0.0328 4.0236-0.0491 5.5587-0.1517 11.049 0.6864 16.549 1.3251 0 0-0.02 0.30239-0.02 0.30239-1.1078-0.0172-2.2195-0.14581-3.3234-0.0517-4.3856 0.37393-8.6273 1.9598-13.051 2.1009-1.4018 0.099-2.8028 0.21132-4.2054 0.29703-1.1372 0.0695-2.3795 0.64642-3.4138 0.16857-7.9021-3.651-0.1026-6.2716 3.2341-7.496 7.8845-2.8058 16.089-5.1387 23.298-9.4898 0.5505 1.7605 0.049 1.2962 1.92 2.1142 0.2685 0.11741-0.4805-0.35905-0.7631-0.43674-0.7546-0.20746-1.5342-0.32279-2.3121-0.40866-1.7726-0.19569-5.8978-0.31013-7.502-0.36945-5.0722-0.16343-10.15-0.15765-15.219-0.43399-0.2117-0.0115-7.4109-0.46842-8.0629-0.73077-1.2268-0.49367-2.1399-1.5545-3.2098-2.3317 0.1366-1.0449 0.027-2.1528 0.41-3.1348 0.4022-1.0323 2.61-2.2356 3.3564-2.7117 3.1041-1.9798 6.1453-4.0607 9.3671-5.8497 6.3004-3.9447 13.085-7.1732 18.932-11.805 0.6594 1.2176 0.2367 0.83184 1.7272 1.5241 0.1789 0.0831-0.3223-0.23967-0.5101-0.30031-2.5382-0.81988-5.2107-0.26286-7.8195-0.36124-9.215 0.46753-18.396 1.2451-27.59 1.9663-3.2927 0.10084-3.5701 0.96099-4.1232-3.7919-0.038-0.3245 0.6317-0.17179 0.9544-0.22279 1.5052-0.23786 3.0388-0.33001 4.5225-0.71363l0.6285 2.1938z"/>
      <path id="path6410" d="m2146.4 901.45c8.9091-1.1148 17.756-2.6684 26.6-4.2067 3.7347-0.57304 7.475-0.9769 11.245-1.1702 1.4936-0.0766 2.9904-0.31914 4.4659-0.0543 0 0 0.028 0.58815 0.028 0.58815-4.9745 1.5685-10.046 2.82-15.15 3.8911-8.9081 1.6769-17.821 3.4662-26.859 4.2856 0 0-0.3306-3.3336-0.3306-3.3336z"/>
      <path id="path6412" d="m2163.5 907.73c-1.2209 1.2555-4.9254 3.9685-4.7054 5.8403 1.6113-0.63293-0.2762-1.953 0.2296-2.7023 0.2536-0.37572 0.9064 0.0297 1.3586 0.061 0.9776 0.0675 1.9527 0.16867 2.9303 0.2354 2.784 0.18999 5.9927 0.33896 8.7557 0.47909 7.8526 0.43563 15.716 0.68927 23.535 1.5678 2.4655 0.67434 6.3072 0.79836 5.3102 4.5776-0.1435 0.54389-0.751 0.8376-1.1265 1.2564-3.6033 2.1528-7.5034 3.1465-11.126 5.2953-2.7308 1.6202-4.8939 3.9029-7.1075 6.1359-1.348 1.5896 0.8103-0.91191 0.9483-1.6101 0.145-0.7338-0.6202-1.4364-0.5343-2.1794 0.03-0.25988 0.524 0.0692 0.7672 0.16559 5.9538 2.3607-2.8273-0.69698 4.3978 1.732 4.2818 1.7426 8.9805 2.162 13.088 4.2982 0.6369 0.84672 1.7095 1.4999 1.9109 2.5401 1.2101 6.2504-5.8801 8.7713-10.21 10.747-1.4097 0.64333-2.8137 1.2992-4.2205 1.9488-3.814 1.5903-7.7492 3.3246-11.927 3.6865-1.9304 0.16724-3.8752-0.058-5.8129-0.043l-0.1199-0.27828c1.3423-1.3994 2.5153-2.9692 3.9662-4.2557 3.1025-2.751 7.019-4.4008 10.767-6.0298 1.3343-0.58916 2.6936-1.1248 4.003-1.7675 1.8218-0.8942 3.4932-2.0853 5.3455-2.9147 0.1828-0.0819 0.5106-0.26386 0.5953-0.0823 1.7084 3.6616-0.9936 1.1397 1.5881 3.1464-0.63-0.79236-2.5309-1.1781-3.3756-1.4686-2.6814-0.92204-5.381-1.79-8.0749-2.6748-3.0719-1.1793-9.0734-2.5295-9.3699-6.7426-0.1699-2.4135 0.784-2.7858 2.0701-3.52 3.0159-1.8926 6.1694-3.6468 9.5018-4.8996 3.5498-1.1293 7.1828-2.2667 10.505-3.9504 0.2687 0.57983 0.2419 1.2719 0.5295 1.8426 0.096 0.19138 0.4357 0.14635 0.5551 0.32429 0.061 0.0903-0.2173 0.009-0.3257 0.0175-1.5437 0.11884-1.0479 0.0814-2.857 0.33046-7.8779-0.0636-15.73-0.71744-23.596-1.0789-2.9101-0.23171-6.0893-0.45577-9.0019-0.79295-2.886-0.3341-7.0381-0.32997-8.3417-3.6906-0.2858-0.73667 0.2563-1.5594 0.3845-2.3391 2.1314-2.074-0.3046 0.10369 2.0416-1.4429 0.4049-0.26694 0.731-0.63877 1.1167-0.93272 1.347-1.0263 2.8256-1.8491 4.2348-2.7822l1.3965 1.9502z"/>
      <path id="path6414" d="m2078 882.12c5.2701 8.1151 9.575 16.76 13.37 25.646 2.1352 5.986 4.3651 11.948 5.6848 18.178l-0.2927 0.0783c-1.9419-5.9774-4.3918-11.769-7.5627-17.213-4.4971-8.3818-9.007-16.775-14.104-24.811l2.9043-1.8775z"/>
      <path id="path6416" d="m2082.4 928.35c0.1288 0.61728 0.1937 1.2514 0.3864 1.8518 2.1641 6.7423 6.5195 12.655 10.077 18.688l3.3805 3.7839-0.226 0.20188c-1.1309-1.2661-2.2618-2.5323-3.3926-3.7984-1.283-1.2504-2.6468-2.4229-3.8488-3.7513-4.2342-4.6795-7.8064-10.443-8.6399-16.781l2.2638-0.19513z"/>
      <path id="path6418" d="m2004.2 861.59c-3.4254-0.0356-6.8301-0.31186-10.262-0.16684-2.7793 0.50871-4.6873 2.2374-6.322 4.4494-3.4628 5.8744-3.7003 12.838-4.3542 19.45-0.8187 13.026 1.7783 24.712 5.386 37.108 0.9118 1.7553 1.8235 3.5106 2.7353 5.2659l-0.2689 0.13968c-0.9148-1.7616-1.8295-3.5232-2.7443-5.2847-1.1195-1.8907-2.3278-3.7315-3.3585-5.6721-5.2431-9.8718-8.1277-20.805-7.6259-32.015 0.458-7.8375 0.8898-16.295 5.7362-22.83 3.2129-3.4237 6.0174-5.7317 10.972-5.4416 3.5419 0.34731 7.0974 0.92309 10.551 1.7611l-0.445 3.2366z"/>
      <path id="path6420" d="m1848.9 754.73c-5.0191 1.0893-9.1804 4.0552-13.152 7.154-0.7924 0.64748-1.5849 1.295-2.3774 1.9424-0.8292 0.57911-1.6991 1.104-2.4878 1.7373-0.7401 0.59438-1.3663 1.3199-2.0876 1.937-1.7795 1.5225-3.5783 2.955-5.2935 4.5574l-0.2391-0.18618c1.1376-2.0566 2.2161-4.3016 3.5628-6.2242 0.5729-0.81803 1.2868-1.5281 1.9078-2.3103 3.038-3.827 0.7386-1.3855 4.3565-4.856 4.5693-3.5739 9.4356-6.9888 15.378-7.6017l0.4316 3.8503z"/>
      <path id="path6422" d="m2235.6 677.1c9.2444 5.9488 19.088 10.811 28.957 15.617 4.7635 2.3401 9.4128 4.8938 14.104 7.3729 2.7302 1.4429 4.1839 2.3082 7.1553 2.9762l1.1109-0.50367 0.2644 0.55921c-0.4776 0.23303-0.9553 0.46606-1.4329 0.69909-0.6777 0.0319-1.3607 0.18597-2.0331 0.0956-1.184-0.15917-5.0733-1.5514-5.9362-1.8663-5.0047-1.826-10.046-3.559-14.943-5.6665-10.191-4.5525-20.257-9.4465-29.676-15.466l2.4302-3.8176z"/>
      <path id="path6424" d="m2278.8 684.49c-5.3545-2.1469-10.836-3.9852-16.4-5.5081-3.024-0.44004-7.0601-1.7317-10.094-1.0204-0.077-0.00037-1.1068-0.0251-1.2855 0.0359-0.1397 0.0477-0.2373 0.17577-0.3559 0.26365 0.054-1.8873-0.5105-3.8973 0.1611-5.6619 0.2545-0.66884 1.4087-0.26243 2.1208-0.33413 1.0426-0.10499 2.0918-0.13026 3.1377-0.19539 13.066-0.35023 26.105 0.83382 39.096 2.0731 5.4875 0.3716 10.909 1.1387 16.336 1.969 1.0834 0.16576 2.1817 0.22958 3.2616 0.41751 2.8738 0.50015 1.2654 0.54383 2.3345 0.49801-0.2878 0.49192-0.304 1.3668-0.8634 1.4758-0.5847 0.11388-0.9259-0.77043-1.4658-1.0221-1.0645-0.49627-2.201-0.82129-3.3111-1.2049-4.559-1.5754-9.1218-2.5316-13.846-3.4692-3.9759-1.0065-8.0801-1.3965-12.158-1.7229-1.025-0.082-2.0585-0.0479-3.0804-0.16161-1.6504-0.18366-3.2733-0.56547-4.9176-0.7977-2.9481-0.82219-6.6736-2.5982-6.4415-6.3567 0.2012-3.2572 1.9952-4.1421 4.1365-6.1944 1.3788-0.71621 2.7098-1.5332 4.1365-2.1486 3.799-1.6388 6.4873-2.2358 10.554-3.094 3.1925-0.67364 7.854-1.5064 11.134-1.7928 1.627-0.1421 3.2644-0.11829 4.8965-0.17743 1.6441-0.1072 12.38-0.73997 10.656 4.3931-0.7108 2.1154-5.5716 2.2749-7.1483 2.4657-4.2658-0.12998-8.4503 0.70752-12.707 0.80089-1.0287 0.0226-2.079 0.14492-3.0861-0.066-0.9501-0.19899-2.406-0.20993-2.6791-1.1414-0.6294-2.1471 0.2532-4.4678 0.3798-6.7016 1.3694-0.77176 2.6863-1.6452 4.1083-2.3153 1.6215-0.76405 3.3299-1.3282 5.0008-1.977 6.3635-2.471 12.814-4.7684 19.422-6.5102 2.2099-0.58249 4.4557-1.0193 6.6835-1.529 8.2828-0.46945 4.4142 0.31644 11.656-2.0994l0.1264 0.27538c-6.6804 3.9798-3.3298 1.7009-9.9747 6.9485-2.0777 1.0087-4.1143 2.1067-6.233 3.0261-8.1991 3.5578-16.926 5.7618-25.097 9.395-0.5556-1.4892-0.877-3.0882-1.6669-4.4674-0.1289-0.22508-0.927 0.16786-0.7123 0.31329 1.2231 0.82819 4.9734 1.0918 5.9708 1.184 4.8892 0.45196 3.5871 0.36059 8.293-0.0819 6.14-0.52416 1.8374-1.1436 2.874 1.083 0.4968 1.067 1.7131 1.7423 2.0616 2.8664 0.1155 0.37258-0.7803-0.004-1.1702 0.009-2.7113 0.0917-3.2982 0.17333-6.2884 0.39946-9.1967 1.0693-18.614 2.0437-27.168 5.8344-0.4901 0.27008-0.9577 0.58582-1.4703 0.81023-0.041 0.0181-1.2361 0.20245-1.2765 0.25829-0.7835 1.0816 1.9007 2.1119 2.2575 2.3498 3.042 1.4318 0.7458 0.49335 4.3178 1.5208 4.9438 1.4221 9.9075 2.8505 15.022 3.5462 10.112 2.4682-0.5398-0.17222 9.5876 2.4625 5.1404 1.3373 3.5016 0.65424 8.0039 2.4383 0.9321 0.36936 2.1903 0.35563 2.7692 1.1743 0.6034 0.8535 0.18 2.0828 0.27 3.1242-1.5775 0.90499-2.133 1.3883-4.1182 1.6714-1.1792 0.16813-2.3802 0.1135-3.5713 0.12224-5.4996 0.0403-10.947-0.61198-16.417-1.1012-12.724-1.1401-25.46-2.654-38.253-2.5284-0.959 0.007-1.918 0.0297-2.8769 0.02-0.4291-0.004-1.1057 0.3272-1.2859-0.0623-3.4029-7.3555-2.1273-5.191 0.666-4.7774 1.819 0.82789 0.2878 0.23879 2.4467 0.72607 2.6868 0.60641 5.2629 1.6109 7.8843 2.4351 5.4781 1.9972 10.831 4.3014 16.172 6.6362l-0.5147 1.1979z"/>
      <path id="path6426" d="m2211.8 708.12c-7.3302 6.256-14.856 12.284-22.655 17.946-7.9702 5.8448-16.498 10.826-25.13 15.605-2.7933 1.334-1.5929 0.62387-3.666 2.0168 0 0-0.3277-0.40034-0.3277-0.40034 1.8569-1.8206 0.8021-0.83661 3.2004-2.9128 3.3936-2.2866 6.6775-4.7331 10.089-6.9926 4.7667-3.157 9.6215-6.1847 14.333-9.4274 7.8555-5.4694 15.559-11.143 22.802-17.41l1.3547 1.5763z"/>
      <path id="path6428" d="m2192.7 741.3c-7.2158 3.524-14.085 7.6992-21.052 11.682-4.3684 2.6358-6.5756 4.0548-11.127 6.4412-1.9815 1.0389-4.0711 1.8701-6.0171 2.974-1.928 1.0938-3.724 2.4056-5.5861 3.6084l-0.17-0.25087c1.8106-1.2859 3.6702-2.5054 5.4316-3.8578 1.781-1.3674 3.41-2.9251 5.1883-4.296 3.949-3.0443 6.5196-4.5827 10.683-7.27 6.9181-4.386 13.973-8.7502 21.69-11.595l0.9583 2.5648z"/>
      <path id="path6430" d="m2485.7 887.95c-1.5467-4.1708-1.0233-7.66 3.0397-10.228 1.1357-0.71792 2.4401-1.1255 3.6602-1.6882 1.575-0.25216 3.1341-0.64152 4.725-0.75647 7.9226-0.57245 16.27 1.4169 23.47 4.6398 1.7755 0.79472 3.4421 1.8134 5.1632 2.7201 2.2423 1.6119 5.6861 3.9672 7.7773 5.8985 1.9502 1.8011 3.6584 4.0286 5.3036 6.1133 0 0-0.2136 0.21496-0.2136 0.21496-2.124-1.6364-4.4463-2.5423-6.819-3.7783-8.5939-4.4766 1.5486 0.3908-8.1595-4.1457-9.2981-4.2062-19.189-8.013-29.58-6.3065-0.8806 0.19866-1.792 0.29141-2.6419 0.59597-2.7307 0.97865-3.2902 3.4268-2.8115 6.0148 0 0-2.9136 0.70632-2.9136 0.70632z"/>
      <path id="path6432" d="m2466.5 852.99c2.6484 0.42439 5.3572 0.44402 7.9964 0.92922 2.1599 0.39708 4.2812 0.98204 6.4127 1.5106 8.3617 2.0733 16.545 4.5136 24.732 7.1871 8.0648 2.5988 16.051 5.3054 23.831 8.6673 0.9005 0.38913 9.5326 4.2212 10.926 4.9786 1.2525 0.68076 2.395 1.5468 3.5925 2.3203 0.9401 0.45909 1.8802 0.91818 2.8203 1.3773l-0.1246 0.27625c-0.9637-0.3994-1.9274-0.7988-2.8911-1.1982-1.3729-0.32943-2.765-0.58725-4.1187-0.98827-3.8161-1.1305-7.5291-2.5835-11.301-3.8528-7.9637-2.6797-15.821-5.6292-23.805-8.2504-12.648-4.0034-25.266-8.2882-38.32-10.776l0.2499-2.181z"/>
      <path id="path6434" d="m2474.6 833.08c13.633-2.4551 27.296 0.98286 40.515 4.0995 6.9234 1.9871 13.569 4.5924 19.803 8.2023 2.1175 1.2264 5.2209 3.1062 7.0489 4.9288 0.5844 0.58268 0.9734 1.3329 1.4601 1.9994-0.011 0.50922-0.021 1.0184-0.032 1.5277 0 0-0.2988 0.0504-0.2988 0.0504l-0.4245-0.79942c-4.5987-2.9474-9.6472-4.638-14.774-6.4379-11.273-3.9578-1.8352-0.85536-14.006-4.7257-2.6656-0.74827-5.3061-1.5928-7.9969-2.2448-9.904-2.3998-20.255-3.805-30.441-2.925l-0.8536-3.6751z"/>
      <path id="path6436" d="m2465.1 808.62c1.7546-1.7479 2.685-2.9334 5.1266-4.0208 1.5147-0.67464 3.138-1.0999 4.7595-1.4469 7.1106-1.522 13.562-0.79203 20.698-0.0439 10.692 1.4681 21.413 4.2643 30.489 10.332 1.0601 0.70867 2.0234 1.5524 3.0351 2.3286 2.3413 2.4154 1.5414 1.1452 2.6697 3.6265l-0.2855 0.20373c-1.7508-1.5251-0.6835-0.74713-3.3342-2.1407-10.74-4.0544-21.778-7.4852-33.066-9.617-7.6684-0.79113-15.486-1.6778-23.028 0.46899-0.9172 0.26108-1.8418 0.53841-2.6894 0.97536-0.4715 0.24304-0.8061 0.6896-1.2091 1.0344l-3.1649-1.6997z"/>
      <path id="path6438" d="m2457.1 784.04c13.823-0.99357 27.141 4.2446 39.799 9.1361 6.7148 3.3122 9.6145 4.3753 15.631 8.7457 2.1083 1.5315 3.9746 3.3716 5.9884 5.0255 1.7341 1.4243 3.503 2.8058 5.2545 4.2088l-0.1816 0.24262c-1.8231-1.2724-3.5249-2.7394-5.4694-3.8173-2.2215-1.2313-4.6455-2.0552-6.9703-3.078-9.7202-4.2761-5.9034-2.6244-15.98-6.8405-11.211-4.3013-22.662-8.5102-34.738-9.5238-0.8474-0.0711-1.7007-0.002-2.551-0.002l-0.7824-4.0968z"/>
      <path id="path6440" d="m2334.9 471.54c-1.4701 0.19461-5.5764 0.8775-6.2609-1.1952-1.029-3.116 0.9046-4.1961 2.6377-6.099 9.0084-7.4343 19.065-13.715 29.511-18.938 2.3756-1.1876 4.8333-2.2031 7.2499-3.3047 8.2051-3.6147 4.2623-1.9264 11.82-5.0854l0.1318 0.27287c-7.1295 3.9365-3.4473 1.7887-11.016 6.4948-11.588 7.7217-23.708 14.777-34.37 23.785-3.0403 2.8065-0.2086 0.0962-3.3491-0.0146-0.2479-0.009 0.4782 0.13558 0.723 0.17556 1.3018 0.21263 1.266 0.14434 2.6259 0.0974l0.2977 3.8109z"/>
      <path id="path6442" d="m2340.4 493.41c13.991-6.9117 29.144-11.095 44.129-15.241 9.8832-2.2028 19.789-4.5819 29.897-5.5243 4.6626-0.43469 9.3559-0.42666 14.034-0.64202 0 0 0.017 0.30256 0.017 0.30256-2.0612 0.13907-4.1451 0.0823-6.1838 0.41719-2.5421 0.41762-5.0053 1.2224-7.5083 1.8321-9.758 2.3771-19.554 4.6166-29.209 7.3961-14.739 4.0875-29.517 8.31-43.496 14.609 0 0-1.6805-3.1505-1.6805-3.1505z"/>
      <path id="path6444" d="m2374.6 506.98c13.979-4.6069 28.929-5.4107 43.493-6.7053 15.347-1.1701 30.782-1.8261 46.174-1.2551 0.3082 0.0114 15.968 0.96673 17.154 1.039l-0.014 0.30274c-2.6015-0.0744-5.2026-0.28076-7.8046-0.22316-3.1025 0.0687-6.1941 0.39153-9.2902 0.60162-15.294 1.0378-30.572 2.2773-45.855 3.4609-14.206 1.3788-28.599 2.4818-42.465 6.0206 0 0-1.3927-3.2413-1.3927-3.2413z"/>
      <path id="path6446" d="m2393.8 545.3c19.118-1.3182 38.253-2.4022 57.378-3.6181 15.902-0.75299 31.837-0.9938 47.749-0.41888 11.23 0.40574 16.188 0.92194 27.12 1.8082 0 0-0.024 0.30205-0.024 0.30205-4.2182-0.34205-8.4273-0.82447-12.654-1.0262-20.694-0.98732-41.401 0.54872-62.053 1.6445-19.127 1.0592-38.238 2.4592-57.383 3.1554l-0.1322-1.847z"/>
      <path id="path6448" d="m2509.7 531.41c1.2562-0.39811 2.4849-0.89714 3.7687-1.1943 10.985-2.5426 24.092-2.4747 35.196-1.1563 4.0239 0.47779 7.9929 1.3398 11.989 2.0097 12.535 2.6601 24.931 6.3489 36.602 11.706 10.21 4.6864 19.513 10.937 28.856 17.1l6.8584 5.0578-0.1799 0.24389c-2.2814-1.6827-4.5629-3.3653-6.8444-5.048-2.8051-1.8174-5.5221-3.7789-8.4155-5.4523-6.8167-3.9424-13.73-7.0065-21.039-9.9269-11.765-4.7009-23.878-8.4129-36.281-11.023-8.0123-1.3288-14.592-2.6578-22.683-3.1064-9.1182-0.50546-18.325 0.32118-27.178 2.5379l-0.6496-1.7482z"/>
      <path id="path6450" d="m2399.2 586.98c1.2093-0.074 2.4164-0.224 3.6281-0.22191 16.612 0.0285 32.904 3.3723 49.069 6.8318 11.33 2.788 22.663 6.0259 33.101 11.364 7.1529 3.658 13.542 8.4517 19.739 13.498 0 0-0.1884 0.23736-0.1884 0.23736-4.9094-3.7978-6.1368-5.0899-11.965-8.0245-2.7364-1.3778-5.5956-2.5002-8.4353-3.6502-10.683-4.3264-21.649-7.9586-32.84-10.727-4.0762-0.90805-8.1298-1.925-12.229-2.7242-13.11-2.556-26.445-3.8486-39.77-4.499l-0.1085-2.084z"/>
      <path id="path6452" d="m2436 619.84c13.671 0.53007 26.717 5.4422 39.456 10.026 9.744 4.2009 5.8653 2.2601 14.82 7.129 5.0664 2.7548 10.059 5.5729 14.392 9.4349 0.906 0.8075 1.6838 1.7483 2.5257 2.6224 2.4626 2.062 1.4641 1.0117 3.1162 3.0315l-0.2221 0.20619c-1.8368-1.7354-0.7725-0.79551-3.2462-2.7579-4.0781-2.0034-8.1387-4.0404-12.21-6.0582-2-0.99132-3.937-2.1128-5.973-3.0279-2.3425-1.0529-4.7735-1.8971-7.1502-2.8704-2.5873-1.0595-5.161-2.1519-7.7415-3.2279-2.6843-1.0589-5.3365-2.2033-8.0531-3.1766-9.6561-3.4597-19.735-5.9796-29.892-7.3841 0 0 0.1785-3.9464 0.1785-3.9464z"/>
      <path id="path6454" d="m2432.6 637.68c1.0904 0.24583 2.203 0.40801 3.2711 0.7375 1.6735 0.51626 3.3009 1.1722 4.9378 1.7949 7.8769 2.9963 15.436 6.5238 22.766 10.7 2.9254 1.6667 5.76 3.4878 8.64 5.2318 8.1134 5.219 15.893 11.207 22.228 18.548 4.6402 5.3769 8.4475 11.755 11.94 17.916 0.7721 1.3991 1.5441 2.7982 2.3161 4.1972l-0.2653 0.1464c-0.7687-1.3935-1.5375-2.787-2.3062-4.1805-2.7506-3.8423-4.7193-6.8053-7.9636-10.36-1.8071-1.9802-3.7699-3.8135-5.7084-5.6652-6.8295-6.5237-14.145-12.454-21.986-17.733-2.8167-1.7236-5.5824-3.5336-8.4502-5.171-7.118-4.0641-14.656-7.6879-22.243-10.798-1.5877-0.65087-3.236-1.1445-4.8334-1.771-1.0205-0.40025-2.0115-0.87207-3.0172-1.3081l0.6746-2.2836z"/>
      <path id="path6456" d="m2460.4 673.94c11.424 3.9597 21.215 11.442 30.719 18.707 7.5689 5.7799 13.965 12.883 19.442 20.648 1.6887 2.3941 3.1489 4.9414 4.745 7.3982l-0.2495 0.17197c-0.7581-1.0377-1.4471-2.1296-2.2743-3.1131-1.0374-1.2336-2.2008-2.3556-3.3091-3.5259-1.332-1.4064-2.6186-2.8583-4.0118-4.2041-5.2793-5.0996-11.054-9.689-16.471-14.636-4.7181-3.729-7.5424-6.1066-12.501-9.4626-5.3727-3.6363-11.076-6.8367-16.841-9.7987l0.7509-2.1845z"/>
      <path id="path6458" d="m2465.7 698.99c8.0181 4.1893 15.177 10.028 21.528 16.441 1.9485 1.9673 3.7301 4.0932 5.5952 6.1398 6.5375 8.3776 11.015 18.034 15.812 27.442l-0.27 0.13765c-1.0625-2.0842-1.9973-4.2386-3.1874-6.2527-4.1036-6.9446-9.3917-13.133-14.85-19.028-7.7572-8.3195-15.849-16.613-25.732-22.428l1.1039-2.4521z"/>
      <path id="path6460" d="m2525.1 557.48c15.519 1.4094 30.766 4.8905 45.896 8.5046 12.731 2.8077 25.229 6.7764 36.894 12.655 5.1017 2.5709 7.1859 4.0543 11.833 7.0264l-0.1498 0.26345c-1.8465-0.92492-3.6557-1.9285-5.5396-2.7748-14.023-6.2988-29.099-9.612-43.841-13.721-15.054-3.4154-30.131-6.7722-45.399-9.1021l0.3063-2.8516z"/>
      <path id="path6462" d="m2581.9 600c10.994 1.123 21.936 2.6738 32.833 4.5044 1.5087 0.49955 8.1149 1.0808 8.994 3.0546 1.7037 3.8253-4.8134 5.6252-6.8545 6.5455-1.6586 0.5986-3.328 1.1681-4.9758 1.7958-2.7264 1.0385-10.049 3.6384-12.213 5.645-0.3248 0.30121-0.8298 1.1816-0.3955 1.2687 0.5297 0.10622 0.7864-0.74098 1.1796-1.1115 7.4608 1.8152 15.151 2.4286 22.668 3.9338 7.6324 1.5284 9.1871 2.2292 16.565 4.5428 2.4556 0.8896 4.9111 1.7792 7.3667 2.6688l-0.087 0.29015c-2.5133-0.60809-5.0265-1.2162-7.5397-1.8243-8.299-1.2208-16.62-2.1673-24.932-3.2944-2.6408-0.35812-9.9345-1.2391-12.819-2.05-1.4882-0.41839-2.8666-1.1582-4.2999-1.7374-0.326-1.2459-1.2016-2.4694-0.978-3.7377 0.2201-1.2488 4.925-2.8934 5.2338-3.0073 4.7927-1.7679 9.848-2.753 14.479-4.9692 6.8245-3.3784 1.2065-0.41382 5.5161-3.0248 0.2453-0.14864 0.8225-0.0952 0.7732-0.37775-0.3407-1.9544-6.8851-2.7837-7.9476-3.1133-10.824-2.0487-21.703-3.7893-32.7-4.5976l0.1341-1.4043z"/>
      <path id="path6464" d="m2253.2 723.62c17.748-2.1007 35.127-6.4186 52.423-10.792 8.2334-2.3839 16.518-4.6412 24.452-7.9258 1.767-0.73154 3.4809-1.5853 5.2213-2.3779 0 0 0.1256 0.2758 0.1256 0.2758-9.5847 4.3647-19.192 8.7598-29.248 11.95-8.4341 2.7002-12.325 4.0915-20.96 6.2622-10.41 2.6171-21.031 4.636-31.664 6.0646l-0.3495-3.4569z"/>
      <path id="path6466" d="m2327.3 663.84c-0.2643 0.94417-0.4525 1.913-0.7929 2.8325-0.5268 1.4233-1.1747 2.7993-1.803 4.1809-3.2638 7.1772-7.0728 14.007-11.4 20.604-1.952 2.9762-4.0437 5.8584-6.0656 8.7876-9.0819 12.281-19.554 23.423-29.737 34.774-4.1098 4.5807-8.1508 9.2227-12.255 13.809l-0.2259-0.20209c4.0868-4.5668 8.2653-9.1476 12.151-13.885 9.6024-11.707 18.517-23.985 26.793-36.661 7.0951-11.202 14.188-22.602 18.562-35.196 0 0 4.772 0.95738 4.772 0.95738z"/>
      <path id="path6468" d="m2203.4 790.81c-10.034 5.1444-19.968 10.471-29.827 15.942-12.962 7.3129-25.848 14.796-38.197 23.111-1.437 1.1151-2.874 2.2303-4.3111 3.3454 0 0-0.1858-0.23941-0.1858-0.23941l4.3169-3.3498c2.8263-2.2812 7.7799-6.3392 10.653-8.3986 8.4772-6.0766 17.512-11.424 26.521-16.654 9.9374-5.4222 19.902-10.863 30.185-15.6l0.8449 1.8435z"/>
      <path id="path6470" d="m2126.6 850.24c10.662-2.8473 21.801-3.8295 32.819-3.5976 3.194 0.0672 6.378 0.38089 9.567 0.57133 6.9186 0.94841 11.053 1.2608 17.732 3.1366 4.7464 1.333 8.7523 3.1542 13.211 5.1424 5.5204 2.4617 3.4937 1.3643 7.9972 4.369 0.8591 0.48795 1.7183 0.97589 2.5774 1.4638 0 0-0.1488 0.26398-0.1488 0.26398-0.8577-0.48007-1.7154-0.96013-2.5731-1.4402-2.8232-0.99946-5.562-2.2277-8.386-3.225-4.89-1.727-8.1758-2.437-13.327-3.601-9.7963-2.2136-6.9991-1.5971-17.267-3.1239-3.1208-0.19931-6.2373-0.4872-9.3626-0.59791-10.842-0.38405-21.701 0.59845-32.347 2.6453l-0.4927-2.0068z"/>
      <path id="path6472" d="m2160.4 796.88c12.42 8.1774 26.521 13.161 40.269 18.574 11.046 3.5746 22.12 8.512 33.927 8.7433 2.2424 0.0439 4.475-0.30708 6.7125-0.46062l0.021 0.30234c-2.2522 0.15347-4.4992 0.45939-6.7566 0.46042-11.918 0.005-23.633-2.639-34.91-6.2877-3.1296-1.0561-6.2955-2.0103-9.3889-3.1682-2.9178-1.0922-13.923-5.8045-16.983-7.1758-4.3688-1.9581-7.9481-3.5796-11.983-6.0364-1.1204-0.68218-2.153-1.4993-3.2295-2.2489l2.3227-2.7027z"/>
      <path id="path6474" d="m2189.2 788.79c7.8596-1.3823 15.83-1.9749 23.738-2.9967 9.693-1.2524 10.546-1.5045 20.377-3.1848 12.866-2.1269 25.535-5.2982 37.807-9.7089 2.2098-0.7942 4.458-1.509 6.5828-2.5086 1.7497-0.82318 3.3335-1.9606 5.0003-2.9409 1.2032-0.95605 2.4065-1.9121 3.6097-2.8681l0.1885 0.2373c-1.2119 0.96218-2.4237 1.9244-3.6356 2.8866-2.5415 1.742-8.4813 5.8919-10.945 7.2094-11.744 6.2806-25.008 9.127-37.895 11.92-3.5507 0.59259-7.0916 1.2471-10.652 1.7778-11.078 1.6511-22.25 2.5009-33.36 3.8421l-0.8165-3.6647z"/>
      <path id="path6476" d="m2230.4 754.3c11.069-7.8942 24.476-11.177 37.359-14.826 12.311-3.5603 24.868-6.144 37.234-9.4789 1.4495-0.4262 3.2943-0.65879 3.9748-2.2019l0.298 0.0553c-0.021 0.36561 0.1264 0.78331-0.063 1.0968-0.4169 0.69079-3.365 2.5281-3.595 2.6828-11.625 5.6677-24.358 8.4376-36.802 11.693-11.427 2.9817-23.221 6.049-33.662 11.758-0.9297 0.5083-1.7804 1.1493-2.6706 1.724 0 0-2.0738-2.5026-2.0738-2.5026z"/>
      <path id="path6478" d="m2270.3 732.31c2.9319-1.078 4.4216-1.6584 7.7255-2.6618 5.3986-1.6395 10.851-3.0975 16.259-4.705 3.4256-1.0182 6.8451-2.0565 10.268-3.0848l11.018-3.2632c14.836-4.8232 7.5158-2.2308 21.964-7.7678l0.1085 0.28298c-14.461 5.5418-7.1957 2.7686-21.797 8.3193-3.6087 1.3155-7.19 2.7089-10.826 3.9464-11.27 3.8356-22.802 6.8926-34.157 10.46l-0.562-1.5259z"/>
      <path id="path6480" d="m2262.5 857.58c6.6628-2.3946 13.916-2.288 20.89-2.0109 9.692 0.38515 8.1496 0.39866 17.995 1.5368 11.142 1.3363 22.328 2.8576 33.061 6.2648 2.7376 0.86905 7.7868 2.8866 10.606 3.9886 1.2815 0.49124 2.5631 0.98249 3.8446 1.4737l-0.097 0.28703c-1.3096-0.38631-2.6192-0.77263-3.9288-1.1589-9.0479-1.9485-0.7744-0.24247-11.009-2.0965-10.926-1.9792-21.778-4.4028-32.812-5.747-4.899-0.52549-12.711-1.4464-17.697-1.6638-2.5059-0.10925-5.0165-0.0256-7.5247-0.0153-4.1236 0.0169-8.2463-0.0996-12.206 1.2493l-1.1213-2.1077z"/>
      <path id="path6482" d="m2351.3 851.24c1.0304 0.20018 2.0696 0.35946 3.0912 0.60053 5.7305 1.3523 11.402 2.9313 17.163 4.1722 5.7345 1.2352 10.556 2.0623 16.351 3.1173 11.724 2.186 23.398 4.6345 35.057 7.1401l-0.054 0.29823c-11.82-1.7283-23.7-2.892-35.506-4.697-12.324-2.2771-24.735-4.5711-36.679-8.4179l0.5764-2.2134z"/>
      <path id="path6484" d="m2375.7 856.93c10.462-2.9816 21.379-4.1347 32.11-5.7985 9.6191-1.6687 19.322-2.9853 28.723-5.7006 1.8842-0.54424 3.777-1.0809 5.6009-1.8018 1.5804-0.62461 3.058-1.4832 4.587-2.2248 1.1768-0.80416 2.3536-1.6083 3.5305-2.4125 0 0 0.1824 0.242 0.1824 0.242-1.1208 0.92749-2.2415 1.855-3.3623 2.7824-3.7039 2.4638-5.5916 3.9031-9.7395 5.8384-9.0921 4.242-19.068 6.019-28.931 7.3566-10.712 1.4407-21.406 3.0729-32.132 4.3666l-0.5689-2.648z"/>
      <path id="path6486" d="m2388.1 819.6c10.1-0.46122 20.214-0.005 30.314-0.46756 2.5665-0.11746 5.1277-0.33083 7.6916-0.49624 8.7365-0.92675 19.169-0.9233 26.793-6.0157 0.8503-0.56794 1.5362-1.35 2.3043-2.025l0.2043 0.22379c-1.942 1.8406-3.0753 3.0795-5.4449 4.5382-7.1264 4.387-15.459 6.1079-23.658 7.026-12.731 0.52971-25.473 0.43411-38.204-0.1147v-2.6688z"/>
      <path id="path6488" d="m2393.2 792c11.168-1.3872 22.424-1.9608 33.65-2.7159 6.12-0.7189 12.282-0.97798 18.4-1.719 1.7754-0.21505 5.7835-0.74642 7.6723-1.3774 0.7176-0.23971 1.3477-0.68796 2.0216-1.0319 0.8175-1.1636 0.8137-0.58002 0.093-1.7482l0.4534-0.28616c1.4672 2.2995 1.4696 1.1601 0.2536 3.4086-2.1896 1.4197-2.8678 1.9857-5.5063 3.0357-7.3185 2.9124-15.297 3.7099-23.082 4.1999-11.183 0.77189-22.375 1.0938-33.571 1.5937l-0.3849-3.3594z"/>
      <path id="path6490" d="m2408.7 769.81c-2.3186-0.63274-4.6004-1.3905-6.9043-2.0782-0.4947-0.14768-1.0287-0.19216-1.4894-0.42535-0.4867-0.24639-0.8695-0.65919-1.3042-0.98879 0.2709-1.2635 0.02-2.7697 0.8126-3.7905 0.7319-0.94287 6.5786-2.2134 7.233-2.3408 6.0755-1.1833 12.307-1.8027 18.432-2.6782 8.0077-1.5688 16.242-2.3687 24.058-4.8279 3.4229-1.077 4.2931-1.6424 7.3484-3.1586 0.9288-0.67968 3.1453-1.9085 3.4139-3.3835 0.1318-0.72352-0.3036-1.4392-0.4553-2.1588 0 0 0.291-0.0844 0.291-0.0844 0.3018 0.84375 0.8494 1.6369 0.9053 2.5312 0.158 2.5262-1.1974 3.59-2.5807 5.4817-1.0704 0.88241-2.0578 1.8764-3.2112 2.6472-8.5254 5.6979-19.07 7.2905-28.983 8.6643-6.044 0.79988-12.099 1.5126-18.134 2.3791-1.204 0.17288-2.4019 0.39024-3.6093 0.53823-0.4637 0.0568-1.0966 0.43144-1.3993 0.0757-0.5538-0.65066-0.4314-1.6535-0.647-2.4802-0.6491 0.45393-0.6738 0.2891 0.5336 1.1357 1.9415 1.3613 4.2669 2.1488 6.3217 3.3088l-0.6316 1.6332z"/>
      <path id="path6492" d="m2405.7 719.63c12.788-1.5898 25.15-5.1622 37.351-9.1908 4.9414-1.7524 9.9878-3.2244 14.357-6.2085 0.6318-0.43148 1.2684-0.88146 1.7761-1.4539 0.6169-0.69565-0.8087-0.55664-1.1472-0.58192-8.3816-1.9909-17.096-2.0174-25.652-2.5578-19.739-1.2466 2.4659-0.0615-15.807-0.99067-2.4614-0.28542-7.8538-0.83505-10.575-1.3913-0.9893-0.20223-2.1258-0.19405-2.9153-0.8236-3.6331-2.8969-2.1232-4.9617 1.5704-7.5094 1.2929-0.89176 3.0204-0.86254 4.5306-1.2938 11.944-2.1219 23.92-4.057 35.805-6.5082 3.1016-0.73885 6.3349-0.57631 9.4329-1.3142 0.2607-0.0621 0.6852-0.038 0.7463-0.29896 0.057-0.24292-0.3732-0.33122-0.5598-0.49683l0.2548-0.24298c0.3688 0.41682 0.9964 0.7049 1.1062 1.2505 0.6188 3.074-7.7137 6.3925-9.4597 7.2491-4.8307 1.3886-6.0383 1.8302-11.151 2.8775-8.1331 1.6661-16.419 2.3943-24.586 3.8651-1.069 0.21114-2.2175 1.0896-3.207 0.63341-0.7037-0.32447 0.032-1.6419-0.39-2.2918-0.3696-0.56916-1.5654-1.6706-1.7615-1.021-0.2037 0.67465 1.0429 0.98528 1.6837 1.2786 2.9149 1.3341 6.9073 1.9152 9.9016 2.53 7.9464 1.5413 15.908 2.716 23.956 3.6133 4.5499 0.50727 9.1267 0.75737 13.673 1.2986 1.4141 0.16836 2.8153 0.43041 4.223 0.64562 0.8311 0.62748 2.0161 0.95682 2.4933 1.8825 0.8269 1.6042-1.7002 3.5894-2.4636 4.1372-1.1264 0.80814-2.3955 1.3962-3.5986 2.085-6.3659 3.6451-3.5598 2.1325-10.819 5.5854-12.278 4.7597-25.117 9.0178-38.37 9.65l-0.3986-4.4061z"/>
      <path id="path6494" d="m2378.7 651.29c2.7134-1.2527 3.9458-1.915 7.0378-2.8328 1.8751-0.55658 3.7923-0.96058 5.6972-1.4043 7.048-1.6419 14.162-2.8589 21.285-4.1192 6.4622-1.08 12.922-2.1963 19.346-3.4883 2.8925-0.58175 5.8112-1.0495 8.507-2.3301 0.9604-0.45623 1.785-1.1557 2.6775-1.7336l0.1944 0.23246c-0.7862 0.82627-1.4885 1.7414-2.3587 2.4788-7.6548 6.4866-18.111 7.6865-27.586 9.4553-10.236 1.6484-20.661 2.9945-30.666 5.8002-0.8462 0.2373-1.6602 0.57726-2.4903 0.86589 0 0-1.6432-2.9243-1.6432-2.9243z"/>
      <path id="path6496" d="m2362.9 597.37c1.3726-0.3217 2.7318-0.70742 4.1178-0.9651 2.0567-0.38234 4.1366-0.62754 6.2029-0.95355 11.891-1.876 23.796-3.6596 35.677-5.5904 7.5262-1.448 15.125-2.6061 22.584-4.3931 2.3762-0.56928 6.615-1.7174 8.9892-2.7847 0.9704-0.43623 1.8424-1.0647 2.7636-1.597l0.1581 0.25853c-0.913 0.58936-1.7898 1.2388-2.7389 1.7681-9.5885 5.3475-20.791 6.9446-31.423 8.8592-15.302 2.343-30.64 4.4988-45.834 7.4685l-0.4965-2.0703z"/>
      <path id="path6498" d="m2376.5 562.91c13.286-0.3509 26.536-1.1669 39.767-2.4432 8.3892-0.81843 16.737-2.1485 25-3.8078 2.3133-0.46453 9.4047-2 11.872-2.9948 1.4201-0.57255 2.6748-1.4909 4.0122-2.2363 0 0 0.1485 0.26419 0.1485 0.26419-2.0928 1.1858-7.1298 4.1022-9.1262 4.9399-10.018 4.204-21.019 5.1174-31.68 6.3653-13.276 1.0994-26.607 1.9122-39.931 1.8916l-0.063-1.9788z"/>
      <path id="path6500" d="m2339.3 522.3c14.784-5.0172 30.111-8.2469 45.25-11.994l0.073 0.29417c-15.1 3.7373-30.25 7.4933-44.854 12.914l-0.4685-1.2141z"/>
      <path id="path6502" d="m2317.1 485.04c-0.3738 0.71183-0.7049 1.4478-1.1214 2.1355-1.2496 2.0629-3.3281 4.8756-4.7129 6.7221-3.7929 5.0574-7.81 9.9146-11.866 14.761-6.1899 7.0931-13.192 13.458-20.314 19.599-14.529 12.528 4.3287-4.1509-7.6294 6.4766l-2.4933 2.4159-0.2108-0.21763c0.8318-0.80606 1.6637-1.6121 2.4955-2.4182 6.3528-6.4245-0.272 0.38565 6.8149-7.3065 1.4467-1.5703 2.9715-3.0677 4.4099-4.6455 4.8373-5.3059 9.3614-10.892 14.183-16.212 6.2423-7.386 12.147-15.02 17.881-22.803l2.564 1.4918z"/>
      <path id="path6504" d="m2305.2 533.9c-3.1614 6.7892-8.7658 11.861-14.052 16.99-6.2115 6.0269-13.246 11.138-20.416 15.957-0.7142 0.54861-1.4284 1.0972-2.1426 1.6458 0 0-0.1959-0.23117-0.1959-0.23117 0.6574-0.61417 1.3148-1.2284 1.9723-1.8425 5.8309-6.3062 11.678-12.626 18.162-18.273 5.0506-4.7434 10.111-9.6435 13.901-15.485l2.7702 1.2398z"/>
      <path id="path6506" d="m2253.9 436.86c-6.443-1.8905-12.682-4.4552-18.839-7.1203-3.6328-1.6963-7.2852-3.4041-10.725-5.4765-3.0193-1.8191-5.036-3.24-8.2944-4.7005 0 0 0.1095-0.28257 0.1095-0.28257 2.9441 0.96981 2.5842 0.92209 5.7632 1.655 1.1731 0.27046 2.3691 0.44169 3.5326 0.75078 3.8791 1.0305 7.5904 2.6277 11.299 4.1305 6.1036 2.6022 12.168 5.2955 18.334 7.746l-1.1807 3.2975z"/>
      <path id="path6508" d="m2216.1 408.56c0.9983-8.7834 3.5196-17.21 6.3552-25.547 2.5551-8.5846 6.9084-16.411 10.671-24.48 0.9534-2.0445 1.8232-4.127 2.7348-6.1905l0.2772 0.12246c-0.9105 2.0609-1.9208 4.0806-2.7315 6.1828-0.8134 2.109-1.4322 4.288-2.1351 6.4363-2.0539 6.2778-4.1304 12.543-6.4827 18.718-2.7451 8.1697-5.4963 16.447-6.8283 24.982l-1.8609-0.224z"/>
      <path id="path6510" d="m2091.9 508.65c6.6755-0.65585 12.937-3.144 19.034-5.7977 6.4754-3.1044 11.714-7.9174 16.939-12.72 1.4242-1.3402 2.9377-2.4578 4.6663-3.3505l0.4379 0.42189c-0.8393 1.7861-1.918 3.3589-3.2302 4.8476-5.1435 5.3219-11.117 9.8729-17.846 13.012-6.411 2.8176-12.792 4.7351-19.783 5.4206l-0.2174-1.8334z"/>
      <path id="path6512" d="m2136.6 493.38c-2.3148 5.5222-6.3965 9.9486-10.634 14.066-2.9726 2.611-6.2193 4.4709-9.9126 5.8158l-0.229-0.38035c2.7533-2.5058 5.8152-4.6108 8.5622-7.1276 4.4334-3.9672 7.5388-8.086 10.457-13.259 0 0 1.7564 0.88569 1.7564 0.88569z"/>
      <path id="path6514" d="m2102 530.05c7.1942-0.57694 14.196-3.0954 20.562-6.4304 1.7763-0.93053 3.4667-2.0166 5.2001-3.0248 6.7074-4.3422 13.604-8.4864 19.728-13.644 0 0 0.1952 0.23179 0.1952 0.23179-6.1936 5.2165-11.693 11.318-18.79 15.397-8.3591 4.6865-17.009 9.4829-26.896 9.2679v-1.7975z"/>
      <path id="path6516" d="m1956.9 512.39c5.9974-6.7676 10.191-14.797 14.381-22.739 0.6932-1.6139 1.3864-3.2278 2.0796-4.8416l0.2805 0.11481c-0.6404 1.6438-1.2809 3.2876-1.9213 4.9314-0.6909 1.6929-1.3112 3.4163-2.0727 5.0787-3.0313 6.6175-7.2278 12.591-11.622 18.359 0 0-1.1246-0.90252-1.1246-0.90252z"/>
    </g>
  </g>
  <metadata>
    <rdf:RDF>
      <cc:Work>
        <dc:format>image/svg+xml</dc:format>
        <dc:type rdf:resource="http://purl.org/dc/dcmitype/StillImage"/>
        <cc:license rdf:resource="http://creativecommons.org/licenses/publicdomain/"/>
        <dc:publisher>
          <cc:Agent rdf:about="http://openclipart.org/">
            <dc:title>Openclipart</dc:title>
          </cc:Agent>
        </dc:publisher>
        <dc:title>Cat linedrawing</dc:title>
        <dc:date>2011-01-13T11:12:21</dc:date>
        <dc:description>Black and white linedrawing of a cat</dc:description>
        <dc:source>http://openclipart.org/detail/104599/cat-linedrawing-by-pesasa</dc:source>
        <dc:creator>
          <cc:Agent>
            <dc:title>pesasa</dc:title>
          </cc:Agent>
        </dc:creator>
        <dc:subject>
          <rdf:Bag>
            <rdf:li>animal</rdf:li>
            <rdf:li>bw</rdf:li>
            <rdf:li>cat</rdf:li>
            <rdf:li>clip art</rdf:li>
            <rdf:li>clipart</rdf:li>
            <rdf:li>linedrawing</rdf:li>
          </rdf:Bag>
        </dc:subject>
      </cc:Work>
      <cc:License rdf:about="http://creativecommons.org/licenses/publicdomain/">
        <cc:permits rdf:resource="http://creativecommons.org/ns#Reproduction"/>
        <cc:permits rdf:resource="http://creativecommons.org/ns#Distribution"/>
        <cc:permits rdf:resource="http://creativecommons.org/ns#DerivativeWorks"/>
      </cc:License>
    </rdf:RDF>
  </metadata>
</svg>
