<?xml version="1.0"?>
<svg xmlns:rdf="http://www.w3.org/1999/02/22-rdf-syntax-ns#" xmlns="http://www.w3.org/2000/svg" xmlns:cc="http://web.resource.org/cc/" xmlns:xlink="http://www.w3.org/1999/xlink" xmlns:dc="http://purl.org/dc/elements/1.1/" xmlns:svg="http://www.w3.org/2000/svg" id="svg1" viewBox="0 0 744.09 1052.4" version="1.0" y="0" x="0">
  <path id="path713" fill-rule="evenodd" stroke-width="1pt" d="m122.19 337.08c18.58 45.12 61.47 112.66 98.53 154.78l4.06-15.19c-17.64-22.17-35.1-53.71-45.37-78.69 29.86 14.6 79.14 28.71 91.44 31.79 41.42 11.2 101.2 20.46 144.9 22.81 11.39 12.17 16.86 24.88 23.85 36.47l9-7.63c-6.81-9.01-20.16-29.59-35.63-48.47-16.12-20.48-52.07-61.85-92-90.06-21.58 24.91-33.38 39.67-49.75 68.59l21.56 4.04c4.08-7.35 8.88-15.08 13.66-22.22l11.97 4.59-2.69-17.59c1.19-1.57 2.42-3.27 3.53-4.63 34.16 17.87 64.4 41.72 87.6 65.56-86.12 0.31-199.11-33.17-284.66-104.15zm77.25 81.56l22.59 36.59 9.75-3.65-32.34-32.94zm414 12.63c-69.85 5.41-95.05 13.17-173.22 13.18l5.47 8.25c22.74 3.15 46.37 6.27 65.06 7.5-17.25 10.35-50.63 31.26-64.84 39.69-25.31 14.51-70.14 41.71-105.22 71.53-31.97-17.28-56.56-39.72-85.09-63.28l-2.35 10.63c27.31 33.79 71.52 67.36 125.44 102.09 54.16 33.73 118.2 56.44 166.56 61.87-23.8-68.16-42.72-119.99-66.53-167.5l-19.34 7.32c19.81 41.19 39.16 81.1 51.47 121.37-14.25-0.75-32.94-6.87-49.44-11.84 15.49 10.01 28.05 14.14 38.72 20.59-25.88-4.49-70.58-23.3-95.66-39l45.16 14.1c-19.98-11.84-35.82-21.39-55.03-36.25-3.28 2.54-6.46 6.05-9.82 10.87-7.06-2.31-29.53-20.86-33.93-23.75 33.2-26.83 64.38-48.19 96.65-65.81 31.56-17.52 105.58-54.9 165.94-81.56zm-354.78 3.84c-7.99 12.42-22.56 51.38-29.38 70.09-18.22 49.41-29.26 143.28-19.37 215.94 3.35 0.89 10.36 6.65 13.72 7.53 36.38-50.51 63.1-87.58 100-123l-13.16-11.44c-24.05 19.98-55.83 51.75-82.06 83.57-1.49-17.59 0.51-39.55 3-57.63-5.64 6.97-11.28 21.41-13.94 29.88-0.66-20.75 3.15-41 6.97-60.75 2.81 5.04 6.28 8.72 9.25 12.5-0.72-24.1 5.22-89.45 8.41-101.38 4.5-18.3 15.51-41.84 23.65-59.94l-7.09-5.37zm70.12 12.81c7.18 11.07 10.87 29.63 4.88 40.85-2.75 4.92-2.73 9.83-0.72 14.46l10.47-11.4-4.56 19.69c4.29 4.32 10.11 8.2 16.75 11.4-0.42-8.39-3.79-11.65 3.06-18.9 5.63-5.47 16.48-9.63 0.59-21.35-4.55-3.49-7.6-12.51-10.34-17.69-6.3-12.48-14.65-15.18-20.13-17.06zm50 15.5c-6.83 0.12-13.58 0.56-19.37 0.97l2.66 7.63c11.06-1.09 44.89 1.97 43.68 10.06-1.1 7.96-28.8 23.4-44.65 26.65l0.75 5.04c19.92-3.87 59.37-22.1 59.15-34.16-0.24-14.13-21.7-16.54-42.22-16.19zm-51.84 8.28c-19.92 3.87-62.54 17.82-62.22 29.88 0.32 11.52 41.47 14.43 61.6 15.25l-3.88-10.06c-11.06 1.09-42.56-3.77-42.47-7.63 0.11-4.27 31.86-19.15 47.72-22.41l-0.75-5.03zm-53.69 102.47l-7.31 0.6-0.62 25.03 7.93-25.63zm196.41 0.6c-3.25 1.62-6.5 3.24-9.75 4.87 16.47 14.84 26.83 29.69 40.25 44.53-7.73-16.47-22.16-39.04-30.5-49.4zm-40.25 7.34c-3.05 3.25-6.11 6.5-9.16 9.75 20.94 6.91 43.11 19.91 61 29.87-13.01-11.99-32.73-28.85-51.84-39.62z"/>
  <metadata>
    <rdf:RDF>
      <cc:Work>
        <dc:format>image/svg+xml</dc:format>
        <dc:type rdf:resource="http://purl.org/dc/dcmitype/StillImage"/>
        <cc:license rdf:resource="http://creativecommons.org/licenses/publicdomain/"/>
        <dc:publisher>
          <cc:Agent rdf:about="http://openclipart.org/">
            <dc:title>Openclipart</dc:title>
          </cc:Agent>
        </dc:publisher>
        <dc:title>elder sign nubldoff 01r</dc:title>
        <dc:date>2010-05-20T03:13:19</dc:date>
        <dc:description>originally uploaded by Nurbldoff from OCAL 0.18</dc:description>
        <dc:source>http://openclipart.org/detail/61327/elder-sign-nubldoff-01r-by-anonymous</dc:source>
        <dc:creator>
          <cc:Agent>
            <dc:title>Anonymous</dc:title>
          </cc:Agent>
        </dc:creator>
        <dc:subject>
          <rdf:Bag>
            <rdf:li>clip art</rdf:li>
            <rdf:li>clipart</rdf:li>
            <rdf:li>lovecraft</rdf:li>
            <rdf:li>pentagram</rdf:li>
            <rdf:li>religion</rdf:li>
            <rdf:li>symbol</rdf:li>
          </rdf:Bag>
        </dc:subject>
      </cc:Work>
      <cc:License rdf:about="http://creativecommons.org/licenses/publicdomain/">
        <cc:permits rdf:resource="http://creativecommons.org/ns#Reproduction"/>
        <cc:permits rdf:resource="http://creativecommons.org/ns#Distribution"/>
        <cc:permits rdf:resource="http://creativecommons.org/ns#DerivativeWorks"/>
      </cc:License>
    </rdf:RDF>
  </metadata>
</svg>
