<?xml version="1.0"?>
<svg xmlns:rdf="http://www.w3.org/1999/02/22-rdf-syntax-ns#" xmlns="http://www.w3.org/2000/svg" xmlns:cc="http://creativecommons.org/ns#" xmlns:dc="http://purl.org/dc/elements/1.1/" xmlns:svg="http://www.w3.org/2000/svg" id="svg3003" xml:space="preserve" viewBox="-0.531 -0.83 576 508" version="1.1">
<path id="path3007" stroke="#000" fill="#fff" d="m4.648 459.4 256-443.42c5.53-9.578 15.76-15.48 26.82-15.48 11.063 0 21.284 5.902 26.815 15.482l256 443.41c5.531 9.58 5.531 21.384 0 30.964-5.53 9.58-15.753 15.482-26.815 15.482h-512c-11.062 0-21.284-5.902-26.815-15.482s-5.531-21.384 0-30.964z"/>
<path id="path3009" d="m31.374 493.46h512.19c6.618 0 12.734-3.531 16.044-9.264 3.31-5.731 3.31-12.794 0-18.525l-256.09-443.57c-3.31-5.732-9.425-9.263-16.044-9.263s-12.734 3.531-16.043 9.263l-256.09 443.57c-3.31 5.731-3.31 12.794 0 18.525 3.309 5.732 9.425 9.264 16.044 9.264z" fill="#ff0101"/>
<polygon id="polygon3011" points="511.3 456.3 63.642 456.3 287.47 68.62" fill="#fff"/>
<path id="polyline3015-4" stroke-linejoin="round" d="m252.12 207.25c-12.372 0-22.375 10.004-22.375 22.375 0 9.2532 5.589 17.209 13.594 20.625v7.0625h-1.4999c-5.1849 0.16768-8.6285 2.9066-11.781 5.7812-3.1528 2.8747-6.2689 6.7857-9.1875 10.531-5.4538 6.9991-10.897 14.818-15.438 19.875l-28.625 10.656c-1.7167 0.63848-3.1751 1.9909-3.9375 3.6562-0.7624 1.6654-0.82598 3.6271-0.1875 5.3438 0.63849 1.7167 1.9909 3.1438 3.6562 3.9062 1.6654 0.7624 3.6271 0.85724 5.3438 0.21875l30.26-11.28 1.5312-0.5625 1.125-1.1875c6.0808-6.4073 11.894-14.046 17.312-21 0.15076-0.19347 0.28759-0.37189 0.4375-0.5625v43.344l-16.5 33.375-0.59375 1.0625-0.1875 1.2188-5.3125 37.219-2.0312-0.0937c-2.0398-0.39442-4.2408 0.0822-5.9375 1.2812s-2.8781 3.1018-3.1875 5.1562 0.26289 4.2295 1.5312 5.875 3.2158 2.7449 5.2812 2.9688l13.469 2.0312 7.5938 1.1562 1.2188-7.5625 6.3125-39.656 16.781-32.344h5.3125l13.469 32.969 0.6875 1.6562 1.375 1.1562 22.312 19.062-0.65625 0.875c-1.3365 1.5283-2.0154 3.5996-1.875 5.625 0.14042 2.0254 1.1216 3.9833 2.6562 5.3125s3.6003 1.9938 5.625 1.8438c2.0247-0.1501 3.9594-1.1153 5.2812-2.6562l9.2188-10.625 5.0938-5.9062-5.94-5.04-25.59-21.94-15.53-36.06v-43.375c0.38659 0.26991 0.76405 0.53413 1.1562 0.8125 6.307 4.4765 13.293 8.161 19.25 12.688l-0.13 27.88c-0.0336 1.8465 0.70931 3.6791 2 5s3.122 2.1159 4.9688 2.125c1.8468 0.009 3.6964-0.75441 5-2.0625 0.39217-0.39351 0.71355-0.8681 1-1.3438l20.219 7.5625 2.2812 1.0938 2.5312-1.7812c5.7891-4.053 12.162-9.7869 18.25-14.469 2.0386-1.5678 3.9546-2.9934 5.6562-4.1875l-17.719 53.719c1.8868 0.62397 3.7708 1.1544 5.6562 1.6562-1.8625 3.0674-4.21 6.1969-7.2812 9.4688l-1.3125 1.4062-0.15625 1.9062-1.9375 29.031-2.1562 0.0312c-2.8913-0.0602-5.5648 2.515-5.625 5.4062-0.0602 2.8913 2.515 5.5648 5.4062 5.625l9.8125 0.21875 5.1875 0.0937 0.40625-5.1562 2.5312-30.906c4.2042-4.5952 7.9573-9.3497 10.969-14.312 5.6507 0.50152 11.196 0.45828 16.531-0.125 1.9432 3.9225 7.3233 8.5483 11.75 12.031l0.4375 0.34375 0.5 0.25 26 12.781-0.28125 0.71875c-0.67208 1.3057-0.80908 2.8884-0.34375 4.2812 0.46534 1.3929 1.5218 2.5792 2.8438 3.2188 1.322 0.63957 2.9003 0.71841 4.2812 0.21875s2.5496-1.5689 3.1562-2.9062l3.25-6.75 2.375-4.9062-4.8438-2.4375-28.25-13.812c-2.7011-2.7542-3.3648-4.5525-4.0625-6.875 1.3984-0.51023 2.7825-1.0583 4.125-1.6562l-18.16-52.95c0.7827 0.51843 1.6403 1.1062 2.5625 1.8125 3.7478 2.8702 8.6382 7.0084 14.594 11.344l5.4062 24.031c0.3402 1.506 1.3195 2.8632 2.625 3.6875 1.3055 0.82426 2.9315 1.1216 4.4375 0.78125s2.8634-1.3194 3.6875-2.625c0.82414-1.3056 1.1217-2.9316 0.78125-4.4375l-5.9375-26.156-0.53125-2.2188-1.8438-1.3125c-6.353-4.4634-11.394-8.8625-16.062-12.438-4.6681-3.575-9.1359-6.8263-15.125-6.8125-0.15758 0.00037-0.34108 0.00026-0.5 0v-5.1875c6.1838-2.2272 10.625-8.1426 10.625-15.094 0-8.8596-7.2029-16.031-16.062-16.031-8.8596 0-16.031 7.1717-16.031 16.031 0 6.0758 3.3948 11.371 8.375 14.094v6c-3.7721 0.16815-5.5017 1.7512-8.0625 3.375-2.7313 1.732-5.7437 3.9741-8.9062 6.4062-5.4529 4.1935-11.162 8.7988-15.969 12.344l-19.031-7.0938 0.0937-23.312v-3.5312l-2.8125-2.0938c-6.1394-4.5786-14.352-11.202-22.125-16.719-3.8865-2.7585-7.4489-5.6411-11-7.5625-3.2304-1.7478-6.0475-3.2681-9.9688-3.4375v-7.0312c8.109-3.3695 13.812-11.39 13.812-20.719 0-12.372-10.035-22.375-22.406-22.375z" transform="translate(-.531 -.83)" stroke="#000" stroke-linecap="round" stroke-width=".12988"/><metadata><rdf:RDF><cc:Work><dc:format>image/svg+xml</dc:format><dc:type rdf:resource="http://purl.org/dc/dcmitype/StillImage"/><cc:license rdf:resource="http://creativecommons.org/licenses/publicdomain/"/><dc:publisher><cc:Agent rdf:about="http://openclipart.org/"><dc:title>Openclipart</dc:title></cc:Agent></dc:publisher><dc:title>School exit warning tab</dc:title><dc:date>2013-09-03T16:47:20</dc:date><dc:description>Panneau de signalisation avertissant une sortie d'&#xC3;&#xA9;cole.</dc:description><dc:source>http://openclipart.org/detail/182878/school-exit-warning-tab-by-justin-ternet-182878</dc:source><dc:creator><cc:Agent><dc:title>Justin Ternet</dc:title></cc:Agent></dc:creator><dc:subject><rdf:Bag><rdf:li>attention</rdf:li><rdf:li>avertissement</rdf:li><rdf:li>childhood</rdf:li><rdf:li>circulation</rdf:li><rdf:li>code</rdf:li><rdf:li>enfants</rdf:li><rdf:li>panneau</rdf:li><rdf:li>pictograph</rdf:li><rdf:li>road</rdf:li><rdf:li>route</rdf:li><rdf:li>school</rdf:li><rdf:li>sign</rdf:li><rdf:li>sign caution</rdf:li><rdf:li>tab</rdf:li><rdf:li>warning</rdf:li><rdf:li>&#xC3;&#xA9;cole</rdf:li></rdf:Bag></dc:subject></cc:Work><cc:License rdf:about="http://creativecommons.org/licenses/publicdomain/"><cc:permits rdf:resource="http://creativecommons.org/ns#Reproduction"/><cc:permits rdf:resource="http://creativecommons.org/ns#Distribution"/><cc:permits rdf:resource="http://creativecommons.org/ns#DerivativeWorks"/></cc:License></rdf:RDF></metadata></svg>
