<?xml version="1.0"?>
<svg xmlns:rdf="http://www.w3.org/1999/02/22-rdf-syntax-ns#" xmlns="http://www.w3.org/2000/svg" xmlns:cc="http://web.resource.org/cc/" xmlns:dc="http://purl.org/dc/elements/1.1/" xmlns:sodipodi="http://inkscape.sourceforge.net/DTD/sodipodi-0.dtd" xmlns:svg="http://www.w3.org/2000/svg" id="Layer_1" style="enable-background:new 0 0 193.547 237.906" xml:space="preserve" sodipodi:version="0.32" viewBox="0 0 193.547 237.906" version="1.0" sodipodi:docname="Pecora.svg" sodipodi:docbase="F:\openclip\svg3">
<sodipodi:namedview id="base" bordercolor="#666666" borderopacity="1.0" pagecolor="#ffffff"/>
<g id="g3">
	<path id="path5" d="m133.89 8.152c6.32-1.534 15.891-0.26 17.78 7.26 0.694 2.764 0.591 5.271 0.591 8.074 0 2.768 2.246 2.34 4.444 4.223 4.591 3.932 0.793 6.767 2.668 10.519 0.933 1.867 12.069 6.048 14.518 7.259 8.455 4.185 12.679 10.171 16 19.333 1.748 4.821 5.309 11.363 1.187 13.853-8.605 5.198-27.951 2.901-35.556-2.814-4.047-3.042-7.856-6.321-11.705-9.63-0.291 6.638-0.456 13.28-0.934 19.908-0.33 4.583-3.195 17.305-0.548 19.5 3.096 2.567 12.396-0.235 13.261 5.852 0.437 3.075 1.356 6.157 0.666 9.258 8.788-1.464 11.853 6.947 11.853 13.719 0 0.355 6.903 1.809 8.147 2.432 2.819 1.41 4.783 3.915 5.334 6.963 0.875 4.839-3.378 8.074 1.553 11.037 5.403 3.246 8.698 9.476 7.929 16.074-0.175 1.502-2.372 4.86-2.222 5.925 0.108 0.766 2.624 2.984 3.11 4.002 1.583 3.311 1.235 7.358 1.556 10.888 0.416 4.603-5.283 5.602-8.445 6.816-5.517 2.119-3.461 7.131-7.777 9.851-3.299 2.078-7.489-0.853-10.816 0.593-3.905 1.697-6.792 7.186-10.74 9.557-6.369 3.824-12.052 0.822-16.815 4.074-4.019 2.743-5.205 5.186-10.371 6.223-1.631 0.327-3.263 0.474-4.887 0.741-0.794 0.131-2.032-0.365-2.741-0.669-0.709-0.303-3.103 2.972-4 3.705-7.221 5.902-21.55 7.527-28.814 1.111-1.875-1.656-2.947-4.518-5.779-4.742-2.01-0.159-4.982 2.185-7.408 2.37-7.908 0.604-11.527-4.537-16.17-10.046 0.066 0.079-10.947 2.043-13.163 1.158-4.559-1.82-10.564-7.232-8.742-12.594-6.942 1.009-12.202-2.481-16.519-7.406-2.039-2.327-3.185-5.605-3.185-8.668 0-3.775-3.321-4.691-5.779-7.777-3.613-4.536-5.594-10.228-3.481-15.853 0.875-2.331 2.65-3.238 4.148-5.036 0.987-1.184 5.136-2.682 5.555-3.556 2.083-4.338-3.719-13.542 2.964-16.891 1.984-0.994 5.889-1.19 6.518-3.704 0.656-2.622-0.56-5.737 0.148-8.592 1.243-5.012 4.807-8.945 9.927-10.223 4.254-1.061 2.495-3.686 4.667-7.407 2.05-3.513 7.86-6.041 9.26-9.333 0.682-1.604-1.123-6.434-1.263-8.259-0.27-3.521-0.516-7.029-0.664-10.557-0.269-6.414-0.28-12.867-0.888-19.26-4.785 2.964-7.433 8.099-12.675 11.095-7.5 4.286-18.637 7.316-27.326 7.275-17.553-0.083-2.604-25.992 3.424-32.423 2.886-3.079 6.17-5.612 9.7-7.896 1.973-1.276 11.072-3.494 11.914-5.014 0.572-1.034-1.41-4.718-1.334-6.074 0.136-2.436 0.859-3.712 2.296-5.63 1.06-1.415 2.038-2.422 3.556-3.334 1.972-1.184-0.31-5.027-0.223-7.333 0.261-6.947 6.689-10.895 13.26-10.296 3.966 0.361 3.524 0.275 6.889-1.408 2.22-1.109 4.386-1.511 6.815-1.926 2.647-0.453 4.276-0.612 6.814 0 1.935 0.466 4.411 3.041 6.371 1.408 6.171-5.141 19.024-7.389 23.705 2.148 6.37-7.514 29.4-13.495 32.45 0.146"/>
	<path id="path7" fill="#F2FFFF" d="m130.19 12.3c-0.53 8.266 4.947 1.588 7.558 1.037 2.624-0.554 7.866 2.336 9.259 4.667 1.613 2.702-2.146 8.569 0.073 11.037 2.747 3.055 6.52 0.219 6.52 6.148 0 10.724-18.29-4.625-13.63 6.963 1.568 3.901-1.775 8.42-5.63 9.704-5.817 1.938-9.031-7.414-13.112-4.074-1.425 1.166 0.188 3.764-1.703 5.185-1.794 1.35-4.48 1.189-6.593 0.889-1.981-0.281-5.072-0.413-6.593-1.408-1.081-0.707-2.03-4.49-3.406-4.592-3.046-0.227-3.396 7.104-5.334 9.037-4.449 4.438-5.847-1.457-7.481-5.259-4.163-9.685-7.715 2.339-11.927 5.111-4.355 2.866-8.56 0.959-12.815-0.741-4.42-1.766 0.443-10.304-4.666-11.704-5.05-1.384-1.129 6.792-5.482 7.334-4.288 0.534-7.064-0.77-7.851-5.112-0.807-4.453 4.409-7.568-1.333-8.741-2.445-0.499-5.93 3.323-8.742 0.741-3.964-3.641 0.819-7.983 4.224-8.741 7.736-1.722 2.9-4.053 1.407-8.889-0.905-2.932-0.18-7.818 3.334-8.519 4.314-0.859 11.298 7.84 14.148 4.815 1.686-1.79-0.862-7.638 2.815-9.481 5.579-2.797 10.301 7.456 13.629 9.925 4.189-2.693 3.88-8.463 9.186-9.777 6.269-1.553 8.475 3.094 11.853 5.629 6.534 4.903 7.015-1.878 11.703-4.815 5.99-3.759 16.3-1.855 20.58 3.631"/>
	<path id="path9" fill="#BFBFBF" d="m180.41 54.671c2.254 3.385 4.187 7.132 5.556 10.963 0.619 1.73 1.407 3.511 1.705 5.334 0.583 3.564 1.678 3.083-1.187 4.741-7.548 4.368-17.182-1.339-23.926-3.26-9.732-2.771-17.57-10.767-20.815-20.148 3.993 5.157 8.661 9.622 14.458 12.691 4.498 2.382 16.393 6.213 20.284 1.457 2.528-3.092-6.044-17.12-10.148-18.148-4.166-1.043-6.014-5.942-10.667-6.519 9.8 1.282 17.46 7.406 24.75 12.889"/>
	<path id="path11" fill="#E0C8E0" d="m154.19 45.93c8.101 1.8 15.069 9.238 16.74 17.186-8.77 2.178-14.991-3.671-21.332-8.741-3.651-2.92-6.779-6.34-4.446-10.963 0.7-1.388 8.51 0.671 9.04 2.518"/>
	<path id="path13" d="m164.86 58.375c-0.866 5.333-13.709-7.668-16.004-9.491-2.156-1.712 1.003-1.465 2.078-1.175 1.583 0.426 3.428 2.305 4.742 3.259 3.18 2.315 6.23 4.788 9.18 7.407"/>
	<path id="path15" fill="#BFBFBF" d="m38.04 45.338c-4.781 2.29-9.759 3.692-13.777 8.296-2.505 2.87-13.023 17.247-5.482 18 6.421 0.641 13.339-2.869 18.742-5.778 3.928-2.114 5.132-5.454 8.074-8.223 1.381-1.299 0.684-3.233 2.37-0.889-4.007 3.285-4.288 10.19-8.509 13.26-10.284 7.479-22.798 11.979-35.64 11.481 1.777-8.867 3.725-17.481 10.091-24.274 3.766-4.017 18.644-17.431 24.131-11.873"/>
	<path id="path17" fill="#BFBFBF" d="m137.6 54.375c-0.716 1.768-0.231 2.973 0.445 4.667 1.35 3.38 0.919 6.466 0.74 10.148-0.506 10.447-1.429 20.889-3.051 31.226-2.788 17.771-4.155 44.92-17.985 58.256-7.221 6.963-18.921 5.827-27.854 3.037-10.031-3.133-14.917-9.821-19.617-18.753-8.99-17.085-14.332-33.121-15.94-52.137-0.657-7.774-6.273-35.705 4.89-36.594 2.632-0.209 7.889 6.938 12.593 8 5.042 1.138 10.599-0.069 14.814-3.258 3.283 6.895 17.27 5.822 18.667-1.927 6.442 3.38 13.872 2.28 18.741-2.592 1.786-1.788 3.379 0.702 5.11 1.111 3.76 0.873 4.84 0.598 8.46-1.198"/>
	<path id="path19" fill="#E0C8E0" d="m43.819 53.042c0.414 1.734-3.814 6.732-5.556 7.777-5.297 3.182-11.041 5.639-17.407 6.593 3.544-8.605 10.783-17.696 20.593-18.963 0.46 1.586 1.823 3.762 2.37 4.593"/>
	<path id="path21" d="m41.152 51.561c-2.769 2.888-6.065 5.356-9.186 7.852-0.945 0.756-6.456 7.026-6.519 2.814-0.035-2.378 13.29-12.644 15.705-10.666"/>
	<path id="path23" d="m106.49 69.486c2.375 3.71 0.021 10.322-5.035 7.556-5.679-3.102 1.73-10.44 5.03-7.556"/>
	<path id="path25" d="m89.301 73.042c-1.333 4.816-7.63 6.465-8.814 0.519-1.361-6.831 7.402-4.744 8.814-0.519"/>
	<path id="path27" fill="#F2FFFF" d="m150.49 116.75c0.066 2.691-1.69 7.223 0.74 9.334 2.079 1.806 7.592 0.383 10.074 3.482 2.799 3.495-0.7 6.112-0.002 9.11 0.537 2.305 2.36 2.322 4.444 3.555 0.043-0.582 0.32-1.075 0.299-1.777 9.21 2.304 10.925 4.908 8.741 13.334-2.301 8.877 12.639 6.728 11.111 16.741-0.574 3.763-6.668 5.792-2.742 9.704 2.604 2.594 5.46 9.063 3.333 12.666-2.271 3.848-6.401 1.971-9.333 5.631-3.264 4.075-4.124 5.776-9.928 5.186 0.627-6.193 5.531-6.223 7.336-11.631 1.502-4.504 1.594-8.888 0.369-13.48-0.539-2.019-3.309-4.557-2.889-6.668 0.934-4.683-1.532-10.626-6.592-12.369-8.015-2.761-0.636 5.005 0.445 7.702 1.111 2.774-0.525 3.701-0.299 6.073 0.273 2.863 1.372 2.604 2.667 5.188 2.346 4.679 1.356 9.918-2.368 13.036-2.251 1.885-3.972 1.309-5.038 4.742-1.03 3.318 1.011 6.598-1.407 9.702-2.157 2.77-6.248 5.206-9.26 6.963-1.814 1.059-3.563 1.657-5.63 2.001-1.82 0.303-2.969-1.589-3.852-1.481-3.805 0.465-7.385 6.956-13.408 8.297-5.892 1.311-8.003-4.643-12.223 0.739-3.858 4.921-4.521 6.648-11.704 7.853-9.245 1.551-11.196-2.705-16.445-8.593-4.126-4.628-4.738-1.005-9.852 1.038-3.394 1.355-10.058-1.487-12.074-4.148-1.115-1.472-0.461-3.99-2.519-4.889-2.126-0.928-6.684 2.087-9.185 2.296-4.696 0.392-11.851-1.584-11.851-7.408 0-1.785 1.289-3.633 0.444-5.407-0.622-1.306-3.981-2.5-5.111-3.629-2.674-2.671-4.548-9.331-1.852-12.816 2.146-2.774 8.302-1.217 5.779-6.666-0.81-1.749-3.469-2.071-4.445-3.777-1.352-2.364-1.018-5.578-0.444-8.149 0.326-1.458 4.167-11.305-0.889-8.147-3.597 2.247-5.162 9.225-5.186 12.963-0.011 1.695 0.198 3.651 0.963 5.185 1.7 3.406 0.068 3.581-1.26 7.556-2.211 6.621 0.111 10.618 1.482 16.446-4.987-1.505-9.333-3.271-9.333-9.187 0-5.451 4.458-5.221-0.148-8.593-2.967-2.171-9.836-4.571-7.926-10.297 0.665-1.992 2.505-3.673 4.222-4.814 1.629-1.084 4.077-0.478 4.89-0.888 3.716-1.877 2.933-4.051 0.519-7.262-3.277-4.356 0.175-8.888 3.925-11.703 1.576-1.183 10.141-2.698 8.52-4.963-3.324-4.643-3.718-9.013-0.297-13.555 3.848-5.108 9.284 1.693 12.37-2.964 2.267-3.422-2.845-6.527-1.925-10.224 0.503-2.02 4.268-5.078 6.075-5.776 4.212 15.103 9.861 28.532 19.37 41.099 3.897 5.149 10.584 12.673 16.778 15.05 6.558 2.518 17.611 1.67 24.155-0.323 12.492-3.805 19.988-24.093 23.727-35.314 2.068-6.21 3.929-12.216 4.861-18.733 0.4-2.88 9.07-0.15 9.77 2.96"/>
	<path id="path29" d="m115.82 146.38c3.685 9.731-29.018 11.014-32.446 0.741-1.982-5.941 5.913-8.445 10.593-8.445 6.503-0.01 22.583-1.63 21.853 7.7"/>
</g>
<metadata><rdf:RDF><cc:Work><dc:format>image/svg+xml</dc:format><dc:type rdf:resource="http://purl.org/dc/dcmitype/StillImage"/><cc:license rdf:resource="http://creativecommons.org/licenses/publicdomain/"/><dc:publisher><cc:Agent rdf:about="http://openclipart.org/"><dc:title>Openclipart</dc:title></cc:Agent></dc:publisher><dc:title>Architetto -- pecora</dc:title><dc:date>2010-03-20T14:22:42</dc:date><dc:description>Drawing by Francesco 'Architetto' Rollandin. From OCAL 0.18 release.</dc:description><dc:source>http://openclipart.org/detail/32767/architetto----pecora-by-anonymous</dc:source><dc:creator><cc:Agent><dc:title>Anonymous</dc:title></cc:Agent></dc:creator><dc:subject><rdf:Bag><rdf:li>animal</rdf:li><rdf:li>cartoon</rdf:li><rdf:li>clip art</rdf:li><rdf:li>clipart</rdf:li><rdf:li>mammal</rdf:li><rdf:li>sheep</rdf:li></rdf:Bag></dc:subject></cc:Work><cc:License rdf:about="http://creativecommons.org/licenses/publicdomain/"><cc:permits rdf:resource="http://creativecommons.org/ns#Reproduction"/><cc:permits rdf:resource="http://creativecommons.org/ns#Distribution"/><cc:permits rdf:resource="http://creativecommons.org/ns#DerivativeWorks"/></cc:License></rdf:RDF></metadata></svg>
