<?xml version="1.0"?>
<svg xmlns:rdf="http://www.w3.org/1999/02/22-rdf-syntax-ns#" xmlns="http://www.w3.org/2000/svg" xmlns:cc="http://creativecommons.org/ns#" xmlns:dc="http://purl.org/dc/elements/1.1/" xmlns:svg="http://www.w3.org/2000/svg" id="svg2985" height="210mm" width="297mm" version="1.1">
  <g id="layer2">
    <g id="g3840" transform="matrix(1.6013 0 0 1.6013 -275.9 -255.55)">
      <path id="path3006" d="m554.52 217.79s11.884-2.7607 17.851-4.0308c4.7863-1.0189 9.5188-2.4755 14.396-2.8791 5.933-0.49103 11.945-0.17919 17.851 0.57582 6.0508 0.77362 12.055 2.1279 17.851 4.0308 3.1848 1.0457 9.2132 4.0308 9.2132 4.0308s4.948-3.8954 7.4858-5.7583c3.7775-2.7728 7.3182-5.9804 11.517-8.0616 4.5141-2.2377 9.4342-3.7302 14.396-4.6066 4.7292-0.83538 9.6231-1.1102 14.396-0.57583 5.1361 0.5751 10.215 2.0101 14.972 4.0308 5.1506 2.188 14.396 8.6374 14.396 8.6374l1.7275 4.0308s-8.1304-5.624-12.668-7.4858c-4.393-1.8024-9.1522-2.5831-13.82-3.455-4.5635-0.85244-9.1864-1.439-13.82-1.7275-3.6398-0.22661-7.5419-1.3221-10.941 0-2.912 1.1327-5.1105 3.7796-6.9099 6.3341-2.2788 3.235-3.9448 7.0395-4.6066 10.941-0.51468 3.0337-0.4461 6.3108 0.57583 9.2132 1.3265 3.7674 6.9099 9.7891 6.9099 9.7891s7.0656 10.159 11.517 14.396c3.0868 2.9384 8.1927 3.8191 10.365 7.4857 1.5775 2.6628 2.8018 6.5949 1.1516 9.2132-0.64724 1.027-2.3016 1.5303-3.455 1.1517-3.7948-1.2457-4.3694-6.7071-6.9099-9.7891-4.0584-4.9234-13.244-13.82-13.244-13.82s7.9138 10.588 11.517 16.123c2.6756 4.1108 6.2642 7.9179 7.4858 12.668 1.5783 6.1373-0.36258 12.669-0.57583 19.002-0.17451 5.1831-1.4621 10.438-0.57583 15.547 0.3533 2.0369 1.9124 3.7283 2.3033 5.7583 0.65336 3.3926 0.52634 6.9502 0 10.365-1.1652 7.5596-5.4033 14.382-6.9099 21.881-0.4176 2.0785-0.22171 4.2438-0.57583 6.3341-0.92533 5.462-1.0389 11.461-4.0308 16.123-0.66376 1.0344-1.6555 2.4183-2.8791 2.3033-1.7619-0.1656-1.8906-3.2036-3.455-4.0308-1.5365-0.8125-3.5056-1.0334-5.1824-0.57583-1.8517 0.50535-2.692 3.591-4.6066 3.455-1.083-0.077-1.72-1.3875-2.3033-2.3033-2.4137-3.7899-2.013-8.999-4.6066-12.668-2.44-3.4518-6.3357-5.6239-9.789-8.0616-2.743-1.9363-6.0971-2.9869-8.6374-5.1824-2.0639-1.7839-4.1385-3.8137-5.1824-6.3341-0.7382-1.7822 0.61253-4.2388-0.57583-5.7583-1.7579-2.2477-5.5118-1.5983-8.0616-2.8791-3.0921-1.5533-8.6374-5.7583-8.6374-5.7583s0.82594-5.1312 0-7.4858c-0.40682-1.1598-1.8965-1.7194-2.3033-2.8791-1.0166-2.898 0.12763-6.1448 0-9.2132-0.096-2.3093-0.22837-4.6249-0.57583-6.9099-0.26603-1.7495-0.91575-3.4286-1.1516-5.1824-1.0503-7.8087 0.52641-15.911-1.1517-23.609-0.22014-1.0099-0.95618-1.8641-1.1516-2.8791-0.72595-3.7696 0-7.6777 0-11.517v-7.4857c0-4.4147 0.48172-8.8557 0-13.244-0.38619-3.5181 1.233-10.508-2.3033-10.365-6.9706 0.28129-2.3981 13.77-2.8791 20.73-0.31762 4.5956 0 9.2132 0 13.82v20.729c0 4.4147 1.6894 9.1654 0 13.244-0.41551 1.0031-1.8096 1.3362-2.3033 2.3033-2.2096 4.3282-2.6992 9.5522-2.3033 14.396 0.19777 2.4198 1.5858 4.5905 2.3033 6.9099 0.82596 2.6699 2.3033 8.0616 2.3033 8.0616s-2.8777 2.6212-4.6066 3.455c-4.1095 1.9818-10.132 0.11819-13.244 3.455-2.1309 2.2852 0.30861 6.8431-1.7275 9.2132-2.6503 3.0851-8.6368 1.1586-11.517 4.0308-2.45 2.4436-1.3306 7.0577-3.455 9.7891-1.2746 1.6388-3.3867 2.4129-5.1824 3.455-2.9697 1.7234-7.4081 1.6858-9.2132 4.6066-2.1191 3.4288 0.28574 8.0717 0 12.092-0.0962 1.3538 0.12425 2.868-0.57582 4.0308-1.3466 2.2366-6.3341-1.1516-6.3341 4.6066 0 5.7583 1.7275 14.972 1.7275 14.972l-4.0308-4.0308s0.13442-7.7391-0.57583-11.517c-0.33648-1.7896-1.069-3.4847-1.7275-5.1824-2.0507-5.2875-4.6784-10.334-6.9099-15.547-1.3885-3.2442-3.0702-6.3935-4.0308-9.789-1.9584-6.923-2.6669-14.154-3.455-21.306-0.71609-6.498-0.7923-13.051-1.1516-19.578-0.41202-7.4842-2.0498-15.016-1.1517-22.457 0.48023-3.979 3.455-9.2132 3.455-11.517 0-2.3033 0.92131-5.8218-0.57582-8.0616-1.1926-1.7841-4.6301-1.0537-5.7583-2.8791-0.80728-1.3062-0.58762-3.188 0-4.6066 1.4543-3.511 5.2086-5.551 8.0616-8.0616 4.0063-3.5254 9.1653-5.7631 12.668-9.789 2.0315-2.3349 3.5015-5.1706 4.6066-8.0616 1.9626-5.1341 2.8759-10.657 3.455-16.123 0.22243-2.0996 0.3382-4.25 0-6.3341-0.38891-2.3966-0.89573-4.9317-2.3033-6.9099-1.8251-2.565-4.765-4.1747-7.4858-5.7583-3.4199-1.9905-7.0317-3.9922-10.941-4.6066-4.3776-0.68801-8.8627 0.48769-13.244 1.1516-4.4668 0.67691-8.7292 2.7162-13.244 2.8791-1.3564 0.049-4.0308-0.57582-4.0308-0.57582s10.143-4.6028 15.547-5.7583c5.6435-1.2066 11.53-1.7012 17.275-1.1516 3.7539 0.35913 7.3004 1.8946 10.941 2.8791 3.4614 0.93615 7.0319 1.5567 10.365 2.8791 3.8307 1.5199 8.1602 2.7164 10.941 5.7583 1.6835 1.8417 2.8791 6.9099 2.8791 6.9099z"/>
      <path id="path3008" fill="#fff" d="m522.27 317.12c-0.70894-0.80543-2.2593-1.1479-3.167-0.57582-0.92573 0.58342-0.82607 2.0734-0.86374 3.167-0.0674 1.9563 0.68309 3.8577 1.1516 5.7583 0.40709 1.6512 1.4396 3.7429 1.4396 4.8945s1.7087 3.6102 3.167 4.8945c1.9973 1.7589 4.5874 2.9366 7.1978 3.455 1.697 0.33696 3.4756-0.005 5.1824-0.28792 2.458-0.40741 4.9634-0.91317 7.1978-2.0154 1.7214-0.84912 3.7482-1.7382 4.6066-3.455 0.4292-0.85839 0-1.9194 0-2.8791 0-2.3033 0.66746-4.7054 0-6.9099-0.50137-1.6559-1.4396-4.3187-2.8791-4.3187-1.4396 0-2.8791-1.4396-2.8791-1.4396s1.4413 5.9396 1.1517 8.9253c-0.11722 1.2083-0.6871 2.3334-1.1517 3.455-0.32849 0.79305-0.50813 1.7352-1.1516 2.3033-1.297 1.145-3.175 1.5357-4.8945 1.7275-1.6326 0.18212-3.2912-0.21825-4.8945-0.57583-1.7773-0.39637-3.6988-0.67179-5.1824-1.7275-1.2825-0.91256-2.2511-2.2996-2.8791-3.7429-0.69877-1.6059-0.67346-3.4415-0.86374-5.1824-0.19839-1.8152 0.91853-4.0997-0.28791-5.4704z"/>
      <path id="path3010" fill="#fff" d="m522.56 312.8s1.7062-2.0515 2.8791-2.5912c2.0222-0.93051 4.3962-0.83031 6.622-0.86374 1.9288-0.029 3.994-0.20411 5.7583 0.57583 1.1809 0.52205 2.8791 2.5912 2.8791 2.5912s-1.1193-3.1962-2.3033-4.3187c-1.1529-1.093-2.7488-1.7726-4.3187-2.0154-2.1999-0.34027-4.4833 0.24631-6.622 0.86374-1.3202 0.38113-2.8489 0.68394-3.7429 1.7275-0.90909 1.0612-1.1517 4.0308-1.1517 4.0308z"/>
      <path id="path3012" fill="#fff" d="m529.18 314.53c-1.2049 0.24219-2.3713 1.652-2.3033 2.8791 0.06 1.0841 1.4564 1.6239 2.3033 2.3033 0.97608 0.78298 1.9656 1.6656 3.167 2.0154 1.8429 0.53665 3.9002 0.48147 5.7583 0 0.95649-0.24785 2.0901-0.58797 2.5912-1.4396 0.73004-1.2407 1.0831-3.3704 0-4.3187-1.0927-0.95667-2.8671 0.53137-4.3187 0.57583-1.3464 0.0412-2.7382 0.0912-4.0308-0.28792-1.1539-0.33847-1.9881-1.9644-3.167-1.7275z"/>
      <path id="path3014" fill="#fff" d="m640.32 317.41c1.1188-1.7932 3.1869-2.7854 4.8945-4.0308 1.2905-0.9412 2.5174-2.0803 4.0308-2.5912 2.2805-0.76989 7.1978-0.57583 7.1978-0.57583l-0.57582 2.8791s-3.0398-0.38-4.3187 0.28792c-1.0894 0.56897-1.5862 1.881-2.3033 2.8791-0.93202 1.2972-1.1141 3.4229-2.5912 4.0308-0.81824 0.33672-1.8743-1.0944-2.5912-0.57583-0.78148 0.56529-0.30378 1.9148-0.28792 2.8791 0.0239 1.4521-0.12114 3.0446 0.57583 4.3187 0.78432 1.4338 2.414 2.2157 3.7429 3.167 0.91003 0.65152 1.769 1.5855 2.8791 1.7275 1.6869 0.21571 3.2875-0.88322 4.8945-1.4396 0.97676-0.33815 2.0162-0.58265 2.8791-1.1517 1.9262-1.2702 3.7919-2.8677 4.8945-4.8945 1.3133-2.4141 0.92637-5.4327 1.7275-8.0616 0.15065-0.49437 0.57582-1.4396 0.57582-1.4396s0.0283 5.2-0.28791 7.7737c-0.22725 1.8495-0.21898 3.8571-1.1516 5.4704-1.2247 2.1183-3.3135 3.7392-5.4704 4.8945-2.3596 1.264-5.0983 2.1065-7.7737 2.0154-1.5166-0.0516-2.846-1.0738-4.3187-1.4396-1.6997-0.42216-3.8008 0.21246-5.1824-0.86374-1.3223-1.03-1.5219-3.0048-2.0154-4.6066-0.46002-1.493-0.90154-3.0448-0.86374-4.6066 0.0501-2.0711 0.34294-4.2885 1.4396-6.0462z"/>
      <path id="path3016" fill="#fff" d="m640.9 311.65s5.732-4.7599 9.2132-5.7583c2.5831-0.74081 5.4506-0.63529 8.0616 0 3.0446 0.74078 8.3495 4.3187 8.3495 4.3187s-2.5984-4.3408-4.6066-5.7583c-2.1572-1.5227-4.8725-2.2125-7.4858-2.5912-2.0917-0.30311-4.6066 0-6.3341 0.28792-1.7275 0.28791-7.1978 9.5011-7.1978 9.5011z"/>
      <path id="path3018" fill="#fff" d="m652.41 316.54c-1.3717 0.88328-1.2231 3.8148 0 4.8945 1.1601 1.0241 3.2459 0.16125 4.6066-0.57582 1.437-0.77844 3.4957-2.1419 3.167-3.7429-0.17259-0.84086-0.86374-1.4396-2.3033-1.1516-1.4396 0.28791-1.294 1.8669-2.3033 2.0154-1.1473 0.16882-2.1921-2.0674-3.167-1.4396z"/>
      <path id="path3788" stroke="#000" stroke-width="1px" d="m486.86 202.24s1.0218 3.2568 2.0154 4.6066c1.1293 1.5341 2.6031 2.9148 4.3187 3.7429 1.407 0.67915 3.0453 0.8087 4.6066 0.86374 2.5102 0.0885 5.0194-0.38797 7.4858-0.86374 2.1489-0.41453 4.1789-1.3471 6.3341-1.7275 1.1381-0.20086 2.3231-0.52136 3.455-0.28791 1.5979 0.32958 3.2934 1.0342 4.3187 2.3033 0.87818 1.0869 1.3996 2.6556 1.1517 4.0308-0.40185 2.2291-2.1591 4.1948-4.0308 5.4704-1.2312 0.83901-3.068 0.34198-4.3187 1.1516-1.6608 1.0752-2.8581 2.837-3.7429 4.6066-0.88481 1.7696-1.0654 3.8155-1.4396 5.7583-0.40297 2.0925-0.39725 4.2549-0.86374 6.3341-0.41861 1.8658-0.42673 4.0687-1.7275 5.4704-1.0547 1.1365-3.4835 0.42119-4.3187 1.7275-0.98359 1.5384-0.238 3.7218 0.28791 5.4704 1.0903 3.6253 5.7583 9.789 5.7583 9.789s1.1516 0.28791 1.1516-0.86374-3.1217-5.5544-3.455-8.6374c-0.12548-1.1608 0.0998-2.3889 0.57583-3.455 0.50109-1.1222 1.0874-2.7002 2.3033-2.8791 3.3448-0.49236 5.1215 4.7531 8.3495 5.7583 0.54979 0.1712 1.5071 0.53199 1.7275 0 1.4543-3.511-6.4497-4.6201-8.0616-8.0616-0.89924-1.9199-2.0154-5.7583-0.57583-6.3341 1.4396-0.57582 4.597 4.0136 5.7583 2.3033 1.4109-2.0781-4.9421-2.9701-5.1824-5.4704-0.11972-1.2456 1.3575-2.1026 2.0154-3.167 1.1768-1.9041 1.2171-5.7102 3.455-5.7583 5.7481-0.12347 6.2206 9.674 9.5012 14.396 1.7634 2.538 2.4137 7.0297 5.4704 7.4858 0.94921 0.14162 2.1676-0.77741 2.3033-1.7275 0.5429-3.8003-4.837-5.9822-6.9099-9.2132-2.0638-3.2169-4.7947-6.3152-5.4704-10.077-0.23994-1.3359-0.28791-2.5912 0.57583-4.0308s2.3033-5.1824 3.7429-5.7583c1.4396-0.57583 2.6764-0.808 4.0308-1.1517 1.7153-0.43521 3.7802-2.2311 5.1824-1.1516 1.9027 1.4648-0.25421 4.8586 0.28791 7.1978 0.80521 3.4744 0.94128 10.935 4.3187 9.7891 3.4608-1.174-2.3033-9.5011-2.5912-10.653-0.28791-1.1516 0.62414-5.6495-0.57582-8.0616-0.90881-1.8268-3.0615-2.6982-4.6066-4.0308-1.9077-1.6452-3.4455-3.896-5.7583-4.8945-3.1915-1.3779-6.897-1.3918-10.365-1.1516-5.8285 0.4037-13.82 4.8945-16.987 4.3187-3.167-0.57583-9.5011-3.167-9.5011-3.167z"/>
      <path id="path3790" d="m707.98 218.65s-3.455 2.8791-4.8945 2.8791c-1.4396 0-2.8812-0.16438-4.3187-0.28791-1.8268-0.15698-3.6544-0.32264-5.4704-0.57583-2.219-0.30939-4.4444-0.62444-6.622-1.1516-1.5636-0.37856-3.0757-0.94525-4.6066-1.4396-0.57761-0.1865-1.1283-0.4786-1.7275-0.57583-1.421-0.23059-3.246-0.96008-4.3187 0-1.2951 1.1592-2.0154 4.8945-0.57582 5.1824 1.4396 0.28792 2.5912 1.1517 3.455 2.0154 0.86374 0.86374 4.137 4.397 4.8945 7.1978 0.72841 2.693-1.3898 5.6811-0.57582 8.3495 0.63857 2.0932 3.1375 3.1846 4.0308 5.1824 0.87592 1.9591 0.89971 4.203 1.1517 6.3341 0.20313 1.7182 0.33062 3.4528 0.28791 5.1824-0.0453 1.833 0.2348 3.8258-0.57583 5.4704-1.1705 2.3747-3.5908 3.95-5.7583 5.4704-1.2298 0.86265-2.6497 2.6064-4.0308 2.0154-1.2001-0.51352-0.40334-2.6733-1.1516-3.7429-2.2777-3.2556-6.6494-4.4312-9.5012-7.1978-2.7432-2.6613-5.4158-5.5442-7.1978-8.9253-0.46718-0.88639-1.0913-1.9034-0.86374-2.8791 1.7274-7.4066 10.799-13.059 15.547-16.699 3.7143-2.8472-4.516 8.2009-6.622 12.38-0.90796 1.8018-2.3924 3.4625-2.5912 5.4704-0.11697 1.1813-0.24349 3.0269 0.86374 3.455 3.5502 1.3726 5.7054-6.0509 9.5012-6.3341 3.72-0.27758-5.3578 3.1132-5.4704 5.7583-0.0522 1.2279 1.2342 2.2729 2.3033 2.8791 1.8537 1.051 4.2365 0.48833 6.3341 0.86374 1.7419 0.31176 4.0751-0.22872 5.1824 1.1517 0.84072 1.0481 1.1429 3.3244 0 4.0308-0.54764 0.33846-1.1304-0.62299-1.7275-0.86374-1.492-0.6016-3.008-1.6203-4.6066-1.4396-1.3248 0.1498-3.2639 0.69588-3.455 2.0154-0.32109 2.2173 2.5855 3.9276 4.6066 4.8945 1.1288 0.54003 2.603 0.80415 3.7429 0.28791 1.7485-0.79188 2.9443-2.7564 3.455-4.6066 0.97569-3.5349 0.93707-7.9267-1.1517-10.941-0.48893-0.70553-1.775-0.47507-2.3033-1.1517-1.089-1.3948 0.0919-3.9234-1.1517-5.1824-1.1778-1.1925-4.5634 0.49138-4.8945-1.1516-0.25787-1.2796 2.5747-1.1401 3.167-2.3033 0.91454-1.796 0.39525-4.0699 0-6.0462-0.24468-1.2234-0.68471-2.4616-1.4396-3.455-1.0338-1.3605-2.9222-1.8667-4.0308-3.167-0.64104-0.75192-0.87305-1.7817-1.4396-2.5912-1.0922-1.5608-2.0476-3.4497-3.7429-4.3187-1.8866-0.96711-4.3018 0.0279-6.3341-0.57582-1.7696-0.52572-3.3653-1.5571-4.8945-2.5912-1.3539-0.91549-5.4704-1.7275-3.7429-3.167 1.7275-1.4396 4.6066-7.7737 6.0462-7.4858 1.4396 0.28791 4.5939 0.85381 6.9099 1.1517 3.1541 0.40564 6.3657 0.33256 9.5012 0.86374 3.1211 0.52876 6.3034 1.0567 9.2132 2.3033 3.1326 1.3421 5.5418 4.0449 8.6374 5.4704 2.3714 1.092 4.9152 1.8474 7.4857 2.3033 1.7979 0.31889 5.4704 0.28792 5.4704 0.28792z"/>
      <path id="path3792" d="m569.78 352.53c-1.3082 1.2146-2.6617 2.6066-3.167 4.3187-0.46264 1.5675-0.28791 3.167 0.28791 4.8945 0.57583 1.7275 3.7086 3.5872 5.4704 5.4704 1.394 1.49 0.86374 5.4704 4.0308 4.6066 3.167-0.86374 6.8029-0.82307 7.1978-3.455 0.25197-1.6791-2.5912-1.4396-3.7429-3.455-1.1516-2.0154-1.4396-4.8945 0-5.4704 1.4396-0.57583 3.167-1.1516 4.3187 0s0.48091 4.7358 2.0154 6.3341c0.77797 0.81031 3.167-0.57582 3.167 1.1517s0.0786 6.4967-2.3033 7.7737c-1.1504 0.61677-2.476-1.4663-3.7429-1.1517-0.79033 0.1963-1.5906 0.92473-1.7275 1.7275-0.44747 2.6235 2.0387 4.9446 3.455 7.1978 0.98103 1.5608 2.2954 2.8855 3.455 4.3187 0.85793 1.0604 2.0154 1.1516 2.5912 3.167 0.57582 2.0154 1.2057 2.8286 0.57582 4.0308-0.99596 1.9009-3.6125 2.8456-5.7583 2.8791-1.3739 0.0215-2.6024-0.96108-3.7429-1.7275-1.6344-1.0983-3.167-4.0308-4.3187-4.0308-1.1516 0-5.4704-0.57583-6.622 0.28791s-2.6552 2.2452-3.455 3.7429c-1.1623 2.1765 0.40812 5.962-1.7275 7.1978-1.4719 0.85178-3.3409-0.7479-4.8945-1.4396-1.3383-0.59581-2.5912-2.3033-3.7429-2.3033-1.1516 0-4.0639 2.3679-5.1824 4.3187-0.29037 0.50643-1.4396 0.28791-0.28791 1.7275 1.1516 1.4396 2.8791 3.167 4.8945 3.167h9.2132c2.0154 0 3.4699-2.3848 5.4704-2.8791 2.0497-0.50647 6.0462-1.4396 6.3341 0 0.28791 1.4396 2.6616 2.3223 4.3187 2.5912 3.4935 0.56692 6.9112-1.5296 10.365-2.3033 2.9762-0.66672 5.9089-1.5642 8.9253-2.0154 3.8073-0.56946 7.7148-1.469 11.517-0.86374 1.7425 0.2774 3.7429 1.4396 4.8945 2.0154 1.1516 0.57582 4.6066 0.57582 6.9099 1.7275 2.3033 1.1516 8.6374-0.86374 8.6374-0.86374l2.8791-0.86374s-6.3572-1.2426-9.5012-2.0154c-2.4195-0.59471-5.6922-0.0302-7.1978-2.0154-0.81194-1.0705 0.3087-2.7231 0-4.0308-0.44374-1.8797-1.0563-4.0101-2.5912-5.1824-1.5556-1.1882-4.3187-1.1516-5.7583-1.1516s-3.7674 1.1796-4.8945 0c-1.4602-1.5281-2.3033-6.3341 0.28792-6.3341s5.7327 0.39986 7.4858-1.4396c1.4045-1.4738 0.92023-4.0111 0.86374-6.0462-0.0407-1.4675-0.23862-2.9904-0.86374-4.3187-0.84246-1.7902-2.8352-2.8486-3.7429-4.6066-0.82256-1.5931-0.94202-3.46-1.4396-5.1824-0.27806-0.96261 0-4.3187-0.86374-2.8791s-3.1809 3.2778-4.8945 2.5912c-1.4086-0.56436-1.1965-2.8209-1.4396-4.3187-0.0769-0.47366-0.86374 0 0-1.4396s2.5912-2.5912 4.3187-2.5912 1.9932 3.5653 3.7429 4.3187c2.0293 0.87386 4.5416 0.45614 6.622-0.28791 1.3555-0.48479 3.455-2.5912 3.455-2.5912s-4.3187-0.28791-5.1824-1.7275c-0.86374-1.4396-0.85228-5.1386-2.3033-7.1978-1.183-1.6789-2.8422-3.6622-4.8945-3.7429-1.9418-0.0763-3.0308 2.6167-4.8945 3.167-1.3806 0.40772-2.8791 0.28792-4.3187 0-1.4396-0.28791-5.5655-0.75499-8.3495-0.57582-1.9534 0.12572-5.1824 0-5.7583 1.1516-0.57582 1.1516-2.7998 1.7078-4.3187 2.3033-1.7554 0.68823-3.7396 0.6915-5.4704 1.4396-1.6622 0.71841-3.2796 1.6471-4.6066 2.8791z"/>
      <path id="path3794" d="m535.23 400.33s3.1826 3.7792 5.1824 5.1824c2.7764 1.9482 6.0518 3.0903 9.2132 4.3187 2.9991 1.1653 6.0672 2.2048 9.2132 2.8791 4.7256 1.013 9.5762 1.366 14.396 1.7275 6.3192 0.47395 19.002 0.57583 19.002 0.57583l3.167-2.5912s-4.0308 0.86374-5.4704 0.86374-11.526-0.19301-17.275-0.57583c-4.8118-0.32043-9.706-0.31536-14.396-1.4396-1.8024-0.43208-4.0308-1.4396-5.1824-2.0154-1.1516-0.57582-5.1442-0.69054-7.4858-1.7275-3.8461-1.7032-10.365-7.1978-10.365-7.1978z"/>
      <path id="path3796" d="m597.42 414.43s6.1394 0.43461 9.2132 0.57583c3.261 0.14982 6.5647 0.79771 9.789 0.28791 5.6368-0.89123 10.964-3.3186 16.123-5.7583 1.5177-0.71768 2.7701-1.9429 4.3187-2.5912 2.8342-1.1866 6.2008-0.88285 8.9253-2.3033 3.9229-2.0452 9.5011-6.622 10.077-8.6374 0.57582-2.0154 1.6758-4.3398 2.0154-6.622 0.1695-1.1391 0-2.3033 0-3.455 0-2.2073-0.56655-4.4886 0-6.622 0.19859-0.74782 1.1516-2.0154 1.1516-2.0154s-2.5243-0.26764-3.7429 0c-1.3421 0.29478-3.3908 0.39924-3.7429 1.7275-0.2115 0.79802 1.1516 0.86374 1.4396 2.0154 0.28792 1.1517 2.3775 2.8578 2.5912 4.6066 0.35024 2.8658-0.87716 5.8392-2.3033 8.3495-1.5759 2.7738-4.054 5.0172-6.622 6.9099-1.9002 1.4005-4.2288 2.0994-6.3341 3.167-3.3688 1.7084-6.5113 3.9363-10.077 5.1824-4.6196 1.6144-9.5653 2.0953-14.396 2.8791-6.11 0.99152-18.426 2.3033-18.426 2.3033z"/>
      <path id="path3800" d="m627.08 412.99c1.0312-1.4791 3.1961-1.6979 4.8945-2.3033 1.1182-0.39858 2.422-0.27886 3.455-0.86374 1.2992-0.73558 3.167-3.167 3.167-3.167s-0.86374 4.3187-0.86374 5.4704c0 1.1516-0.6356 7.4813-0.57582 11.229 0.0553 3.4665 0.86374 6.8979 0.86374 10.365 0 2.3113 0.14551 4.7141-0.57583 6.9099-0.9144 2.7835-3.5512 4.7526-4.6066 7.4858-0.56277 1.4574-0.26426 3.1639-0.86374 4.6066-0.71503 1.7208-2.2344 2.9934-3.167 4.6066-1.2247 2.1182-2.4836 4.2726-3.167 6.622-1.5662 5.3835-1.4366 11.122-2.0154 16.699-0.68623 6.6115-1.7275 19.866-1.7275 19.866s11.342-0.44291 16.987 0c1.8404 0.1444 3.6791 0.41717 5.4704 0.86374 2.8566 0.71217 6.2666 0.79866 8.3495 2.8791 1.8682 1.866 2.5187 4.8462 2.5912 7.4858 0.0768 2.7937-2.3033 8.0616-2.3033 8.0616s-5.341-5.4706-8.3495-8.3495c-1.632-1.5617 4.603 2.4526 6.622 1.4396 1.0365-0.52006 1.4211-2.0076 1.4396-3.167 0.0199-1.2475-0.55977-2.5704-1.4396-3.455-1.9106-1.921-4.8741-2.4458-7.4858-3.167-4.0164-1.1092-8.2386-1.271-12.38-1.7275-3.5411-0.39029-10.653-0.86374-10.653-0.86374s0.36157-5.568 0.57583-8.3495c0.34769-4.5136 0.95954-9.0091 1.1516-13.532 0.15477-3.6436-0.60098-7.3437 0-10.941 0.53516-3.2031 1.7869-6.2736 3.167-9.2132 1.0982-2.3391 5.0687-4.2555 4.0308-6.622-0.78618-1.7926-5.7583-1.1516-5.7583-1.1516s-3.0466-2.9057-4.6066-4.3187c-1.5123-1.3698-3.7635-2.1728-4.6066-4.0308-0.79314-1.7479-0.21403-3.8508 0-5.7583 0.24143-2.1517 0.60157-4.3376 1.4396-6.3341 0.61819-1.4728 1.3847-2.9841 2.5912-4.0308 1.9138-1.6604 5.2912-1.2178 6.9099-3.167 0.75838-0.91327 0.66775-2.2842 0.86374-3.455 0.3658-2.1853-0.69136-4.8045 0.57583-6.622z"/>
      <path id="path3802" d="m498.95 498.79s2.7542-8.1216 4.8945-11.804c3.54-6.0913 8.2383-11.467 12.956-16.699 4.0909-4.5371 8.012-9.5144 13.244-12.668 1.8194-1.0967 4.0129-1.3998 6.0462-2.0154 7.331-2.2196 14.588-4.9536 22.169-6.0462 4.7504-0.68459 9.6119 0.10016 14.396-0.28792 3.382-0.27436 6.7041-1.0693 10.077-1.4396 1.2438-0.13654 3.7429-0.28792 3.7429-0.28792l13.244-16.123s-6.2115 5.4917-9.2132 8.3495c-1.7694 1.6845-4.0308 4.6066-5.1824 5.1824-1.1517 0.57583-4.001 0.98891-6.0462 1.1517-3.2541 0.25895-6.5283-0.44284-9.7891-0.28792-3.8644 0.1836-7.7057 0.77278-11.517 1.4396-6.0087 1.0514-12.025 2.2206-17.851 4.0308-4.4418 1.3803-9.0555 2.6486-12.956 5.1824-4.1547 2.699-7.3683 6.6557-10.653 10.365-3.6776 4.153-7.1215 8.5496-10.077 13.244-2.3554 3.7412-4.5745 7.6357-6.0462 11.804-0.78323 2.2186-1.4396 6.9099-1.4396 6.9099z"/>
      <path id="path3804" d="m587.34 451.29s2.3492 16.501 3.455 24.761c0.50068 3.7402 1.1992 7.4628 1.4396 11.229 0.18955 2.9691 0 5.9502 0 8.9253 0 3.7429-0.15137 7.4888 0 11.229 0.14407 3.5597-0.34385 7.3011 0.86374 10.653 0.79418 2.2042 2.6132 3.8928 4.0308 5.7583 1.2788 1.6828 1.9236 4.7306 4.0308 4.8945 1.1522 0.0896 2.0325-1.2917 2.5912-2.3033 1.129-2.044 0.95906-4.5828 1.1517-6.9099 0.17415-2.1042 0-6.3341 0-6.3341s-1.6257 0.9331-2.0154 1.7275c-0.84641 1.7254-0.23991 3.837-0.28791 5.7583-0.0432 1.7269 0.57181 3.5523 0 5.1824-0.20341 0.57987-1.1516 1.4396-1.1516 1.4396s-4.6811-5.958-5.7583-9.5011c-2.4591-8.0886-0.52149-16.906-1.1516-25.336-0.34523-4.6186-0.80582-9.2319-1.4396-13.82-0.7729-5.5953-1.6611-11.183-2.8791-16.699-0.79321-3.5918-2.8791-10.653-2.8791-10.653z"/>
      <path id="path3806" d="m605.19 529.02s5.0458 4.8905 8.0616 6.622c2.3964 1.3758 5.1049 2.1628 7.7737 2.8791 3.2915 0.88351 6.6977 2.1692 10.077 1.7275 2.5123-0.32844 4.9823-1.5226 6.9099-3.167 1.3163-1.1229 1.2684-3.6872 2.8791-4.3187 2.2972-0.90059 4.7936 2.282 7.1978 1.7275 2.0595-0.47502 3.8593-2.1881 4.8945-4.0308 0.99721-1.7749 1.2544-4.0482 0.86374-6.0462-0.25584-1.3085-2.0154-3.455-2.0154-3.455s-0.36534 2.3066-0.57583 3.455c-0.35289 1.9254 0.1164 4.2671-1.1516 5.7583-1.0624 1.2493-2.9707 1.6127-4.6066 1.7275-0.88264 0.0619-2.0054 0.0873-2.5912-0.57582-1.3403-1.5173 0.47754-4.3173-0.57582-6.0462-0.83107-1.364-2.7657-1.6161-4.0308-2.5912-2.4748-1.9074-6.9099-6.3341-6.9099-6.3341s2.7178 4.1564 4.3187 6.0462c1.4914 1.7605 4.0116 2.7629 4.8945 4.8945 0.36727 0.88666 0.29963 1.9674 0 2.8791-0.70715 2.1518-2.2713 4.044-4.0308 5.4704-0.90082 0.73024-2.0337 1.1941-3.167 1.4396-2.5325 0.54856-5.2035 0.32972-7.7737 0-2.2627-0.29027-4.4689-0.97382-6.622-1.7275-2.6764-0.93682-5.1978-2.2695-7.7737-3.455-2.0278-0.93323-6.0462-2.8791-6.0462-2.8791z"/>
      <path id="path3808" d="m504.08 233.91s-0.0512 4.4636-0.81434 6.5147c-0.51191 1.3759-1.3144 2.7257-2.443 3.6645-0.79466 0.66101-2.3041 0.34392-2.8502 1.2215-1.3644 2.1924-0.17035 5.2193 0.40717 7.7362 0.62576 2.7271 1.5701 5.5042 3.2574 7.7362 1.0481 1.3865 3.2284 1.7376 4.0717 3.2574 1.1272 2.0314 1.5065 4.7042 0.81434 6.9219-2.2635 7.2519-10.871 10.767-15.065 17.101-2.0779 3.1382-4.886 10.179-4.886 10.179s6.0306-7.7857 9.3649-11.401c3.8395-4.1628 7.1421-9.291 12.215-11.808 1.5992-0.7934 4.142-2.1788 5.2932-0.81435 2.2142 2.6243-2.4052 6.446-3.2574 9.7721-0.7532 2.9399-1.4281 5.9295-1.6287 8.9578-0.37715 5.6944 0.5429 11.401 0.81435 17.101 0.13572 2.8502 0.17439 5.7067 0.40717 8.5506 0.47932 5.8559 1.2286 11.689 2.0358 17.508 0.58557 4.2214 1.2024 8.4428 2.0359 12.622 0.57296 2.8733 3.4601 5.9902 2.0358 8.5506-0.41729 0.75014-1.5942 0.94198-2.443 0.81434-2.3091-0.34722-4.1835-2.2965-5.7004-4.0717-1.3801-1.6151-2.3791-3.6289-2.8502-5.7004-1.8363-8.0741 0.40717-24.837 0.40717-24.837s-2.8022 14.099-4.0717 21.173c-0.72914 4.063-1.5315 8.1182-2.0359 12.215-0.83181 6.7569-1.1735 13.566-1.6287 20.359-0.33627 5.0178-0.96199 10.038-0.81434 15.065 0.21254 7.2362 2.5599 16.816 2.443 21.58-0.3529 14.387 3.2574 8.9578 4.886 13.437 1.6287 4.4789 7.904 3.6132 8.7602 8.4313 0.76465 4.3032-2.4073 6.35-4.2813 10.299-1.3833 2.9145-1.7835 6.207-2.443 9.3649-0.53373 2.5556-0.42478 5.2501-1.2215 7.7362-0.55571 1.7341-1.6336 3.2549-2.443 4.886-1.7683 3.5633-3.7148 7.2156-5.2728 10.706-1.689 3.7836-1.0674 7.3349-3.6356 10.586-1.1897 1.5062-2.3949 3.1376-4.0717 4.0717-2.0707 1.1535-4.6058 1.1247-6.9219 1.6287-2.7049 0.58854-5.3805 1.8007-8.1434 1.6287-2.9986-0.18669-5.9156-1.4068-8.5506-2.8502-3.2161-1.7617-3.8423-3.3066-5.3835-6.634-5.0212-10.84-1.3509-19.956-3.2164-35.831-0.53857-4.5831 4.0225-8.3314 6.5147-12.215 1.9352-3.0157 5.6519-5.0728 6.5147-8.5506 0.90427-3.6446 2.4376-6.748-0.11926-10.249-1.9624-2.687 0.30837-7.3785 0.30837-10.636 0-3.2574-1.6042-11.807-3.2574-17.508-0.61064-2.1059-2.0077-3.9585-2.443-6.1076-1.4015-6.9184-0.3393-14.114-0.40717-21.173-0.0274-2.8501 1.4396-8.8385 1.4396-8.8385s-1.9538 17.39-2.2539 25.94c-0.12389 3.5292-0.71914 7.0688-0.40717 10.586 0.39276 4.4285 2.3158 8.6159 2.8502 13.029 0.63648 5.2566 2.0466 15.761-2.472 13.001-11.928-7.2864-16.788-13.714-27.033-22.246-7.7607-6.4628-15.182-13.323-22.802-19.951-5.0092-4.3576-9.6878-9.1354-15.065-13.029-3.8459-2.785-8.2027-4.7899-12.215-7.3291-5.7892-3.6636-10.622-9.1745-17.101-11.401-3.4752-1.1941-7.6973-2.4382-10.994-0.81434-5.099 2.512-6.1681 9.5509-9.3649 14.251-2.5201 3.7051-4.3896 8.0139-7.7362 10.994-4.0369 3.5943-10.16 4.2035-14.251 7.7362-2.0544 1.7742-3.3854 4.2528-4.8861 6.5147-2.0849 3.1423-4.6576 6.1481-5.7004 9.7721-1.164 4.0455 0.24385 8.4633-0.40717 12.622-0.61123 3.9048-2.0893 7.625-3.2574 11.401-0.76108 2.4601-2.0305 4.7872-2.443 7.3291-0.6957 4.2871-0.1495 8.6889 0 13.029 0.1358 3.943-0.19032 7.9927 0.81434 11.808 1.7623 6.6924 7.8716 12.627 8.9578 18.73 0.50395 2.8314-5.823 1.1512-8.1434 2.8502-1.0951 0.80178-1.6011 2.1928-2.443 3.2574-0.65753 0.83146-1.1276 1.8964-2.0358 2.443-2.2579 1.3589-5.6259 0.0503-7.7362 1.6287-1.6047 1.2002-2.3603 3.3501-2.8502 5.2932-0.79632 3.1585-0.0856 6.5159 0 9.7721 0.0679 2.5814 1.284 5.3073 0.40717 7.7362-0.81528 2.2586-4.886 5.2932-4.886 5.2932l-1.2215-2.8502s3.4678-5.7376 3.6645-8.9578c0.0944-1.5446-0.9079-2.9635-1.2215-4.4789-0.58349-2.8194 0.73472-6.4381-1.2215-8.5506-1.7004-1.8362-5.0209-2.5958-7.3291-1.6287-2.3619 0.9896-3.1537 4.1241-4.0717 6.5147-0.83989 2.1872-1.0172 4.5879-1.2215 6.9219-0.14206 1.6225 0 4.8861 0 4.8861s-6.264-2.2149-7.7362-4.8861c-1.4413-2.615-0.16512-5.9764 0-8.9578 0.2039-3.6814 0.5201-7.3739 1.2215-10.994 1.1527-5.9485 4.0641-11.505 4.8861-17.508 0.49711-3.6307 0.27256-7.3392 0-10.994-0.20415-2.7372-0.8897-5.4187-1.2215-8.1434-0.52733-4.3302-1.0177-8.672-1.2215-13.029-0.0761-1.6269 0-3.2574 0-4.886 0-2.9859-0.57611-6.0279 0-8.9578 0.62245-3.1655 2.3938-5.9925 3.6645-8.9578 1.699-3.9646 4.1458-7.65 5.2932-11.808 1.236-4.479 1.0568-9.2327 1.6287-13.844 0.77501-6.2483 1.6105-12.489 2.443-18.73 0.39847-2.9871 0.70719-5.9884 1.2215-8.9578 0.44977-2.5966 0.90759-5.2015 1.6287-7.7362 3.2776-11.521 8.7631-22.325 12.215-33.795 1.3282-4.4131 2.4438-8.9004 3.2574-13.437 0.82029-4.5734 0.64461-9.3028 1.6287-13.844 1.509-6.9635 3.5654-13.872 6.5147-20.359 2.823-6.2083 6.4511-12.085 10.586-17.508 4.4241-5.802 10.232-10.414 15.065-15.88 3.9598-4.4785 7.7838-9.0842 11.401-13.844 2.0048-2.6381 3.1916-5.9789 5.7004-8.1434 3.9064-3.3703 8.9966-5.1548 13.844-6.9219 3.2784-1.1952 6.7387-1.8609 10.179-2.443 5.3796-0.91019 10.834-1.4508 16.287-1.6287 3.9362-0.12837 7.9302-0.28103 11.808 0.40717 8.5787 1.5225 16.75 4.9031 24.837 8.1434 6.1425 2.461 17.916 8.5506 17.916 8.5506l19.951 6.9219 17.916 9.3649z"/>
      <path id="path3810" d="m455.19 473.46s-1.0842 7.6642-1.4396 11.517c-0.59174 6.4143-0.65427 12.868-1.1516 19.29-0.46896 6.0554-0.68007 12.156-1.7275 18.139-0.59812 3.4163-1.5932 6.7554-2.5912 10.077-0.84713 2.8195-2.3563 5.4523-2.8791 8.3495-0.68192 3.779-0.28792 9.789-0.28792 11.517 0 1.7275 0.52201 10.169-0.86374 14.972-0.88118 3.0541-3.8138 5.2713-4.6066 8.3495-0.76599 2.974 0 9.2132 0 9.2132s0.28791 6.0462 0.57583 8.0616c0.28791 2.0154 4.6066 10.365 4.6066 11.517 0 1.1517 4.2936 3.8044 6.622 5.4704 2.3828 1.7049 4.578 4.2475 7.4858 4.6066 1.8978 0.2344 3.5805-1.4362 5.4704-1.7275 0.56911-0.0877 1.1516 0 1.7275 0 2.3993 0 4.8017-0.12361 7.1978 0 2.7943 0.14415 5.5522 0.92782 8.3495 0.86374 1.9404-0.0444 4.0004-0.041 5.7583-0.86374 3.14-1.4697 4.7206-5.2672 7.7737-6.9099 2.624-1.4119 5.8935-1.1415 8.6374-2.3033 1.0306-0.43637 2.8791-1.7275 2.8791-1.7275s0.57124-6.7286 0.28791-10.077c-0.16504-1.9505-0.59389-3.882-1.1516-5.7583-0.4418-1.4862-1.7275-3.167-1.7275-4.3187s-0.90488-4.4168-2.0154-6.3341c-0.78304-1.3519-2.1545-2.2652-3.167-3.455-1.5057-1.7692-2.6557-3.8481-4.3187-5.4704-0.68698-0.67015-1.6359-1.0378-2.3033-1.7275-1.6294-1.6836-3.9559-3.4165-4.0308-5.7583-0.0826-2.5828 3.7429-5.4704 4.0308-6.622 0.28791-1.1516 0.68821-5.7492 0.86374-8.6374 0.26788-4.4076 0.02-8.8364 0.28791-13.244 0.35107-5.7763 0.76722-11.568 1.7275-17.275 0.68754-4.086 2.8791-12.092 2.8791-12.092s-3.645 7.299-4.6066 11.229c-1.2598 5.1483-0.9432 10.558-1.4396 15.835-0.65017 6.912 0.0895 14.114-2.0154 20.73-0.70376 2.212-2.4917 3.9342-3.455 6.0462-0.84388 1.8502-2.06 3.7252-2.0154 5.7583 0.034 1.5501 0.69275 3.164 1.7275 4.3187 1.0888 1.215 2.9941 1.3508 4.3187 2.3033 1.9292 1.3872 3.3826 3.3432 5.1824 4.8945 1.2943 1.1156 3.1596 1.6971 4.0308 3.167 0.89287 1.5066 2.0526 3.8965 0.86375 5.1824-1.5041 1.6269-4.4084-0.47976-6.622-0.57582-1.4382-0.0624-4.119-1.4256-4.3187 0-0.38763 2.7677 8.0616 2.3033 8.0616 2.3033s3.29 0.56742 4.3187 1.7275c1.977 2.2295 3.4514 5.8877 2.3033 8.6374-0.29812 0.71401-1.2676 0.95306-2.0154 1.1516-0.55654 0.1478-1.3203-0.40717-1.7275 0-1.0858 1.0858 1.0858 3.5208 0 4.6066-1.7644 1.7644-5.1324 0.82944-7.4858 0-4.7638-1.679-6.8414-10.44-11.804-9.5011-0.76026 0.14383-1.3208 1.2604-1.1516 2.0154 0.51236 2.2862 4.1058 2.3698 5.7583 4.0308 2.1404 2.1515 4.5674 4.5138 5.1824 7.4858 0.19835 0.95841-0.43098 1.9112-0.57582 2.8791-0.14273 0.95388 0.5367 2.3789-0.28792 2.8791-0.88373 0.53613-2.0356-0.55425-2.8791-1.1517-0.83253-0.58963-1.4762-1.4372-2.0154-2.3033-0.65935-1.0592-0.20634-3.644-1.4396-3.455-2.0956 0.32115 0.16199 4.3466-0.57583 6.3341-0.28731 0.77396-0.71387 1.6218-1.4396 2.0154-1.9421 1.0534-4.4301 0.56556-6.622 0.28792-2.289-0.28994-4.7326-0.69103-6.622-2.0154-1.9647-1.3772-3.2876-3.5919-4.3187-5.7583-1.0204-2.1438-1.1516-4.6066-1.7275-6.9099-0.47986-1.9194-2.0902-3.8898-1.4396-5.7583 0.51759-1.4865 3.7429-2.8791 3.7429-2.8791s-2.6578-0.80784-4.0308-0.86374c-2.2242-0.0906-4.5762-0.0136-6.622 0.86374-2.3831 1.022-6.0462 4.8945-6.0462 4.8945s4.9797 1.0198 7.4858 1.4396c1.3386 0.22419 2.9663-0.26612 4.0308 0.57583 2.2644 1.791 2.5467 5.2419 3.167 8.0616 0.35115 1.5962 0.1385 3.267 0.28792 4.8945 0.0707 0.7705 2.0154-0.57583 0.28791 2.3033s-3.194 1.4502-4.8945 1.4396c-1.3053-0.008-2.5565-0.60724-3.7429-1.1516-2.783-1.2771-5.7393-2.6059-7.7737-4.8945-1.483-1.6684-2.1157-3.9486-2.8791-6.0462-0.9155-2.5155-1.6768-5.1183-2.0154-7.7737-0.33992-2.6656 0.0537-5.3749 0-8.0616-0.048-2.4007-1.0459-4.9194-0.28791-7.1978 0.62456-1.8773 2.5912-2.8791 3.7429-4.6066 1.1516-1.7275 3.7852-3.022 4.6066-5.1824 0.61391-1.6147 0.1789-3.4642 0-5.1824-0.19298-1.8534-0.88337-3.6263-1.1516-5.4704-0.67929-4.6691-1.6403-9.4149-1.1516-14.108 0.3837-3.6846 2.0533-7.1196 3.167-10.653 1.6423-5.21 5.1824-13.532 5.1824-15.547v-2.5912c0-2.4952 0.0466-4.9909 0-7.4858-0.19198-10.274-1.1516-30.807-1.1516-30.807z"/>
      <path id="path3812" d="m280.95 500.61s3.0977 2.6916 4.8861 3.6645c2.4141 1.3133 4.9888 2.9128 7.7362 2.8502 2.7973-0.0637 4.9417-3.1175 7.7362-3.2574 1.8437-0.0923 3.4535 1.7809 5.2932 1.6287 1.8147-0.15019 3.2699-1.6041 4.886-2.443 1.7786-0.92323 3.4978-1.96 5.2932-2.8502 1.4693-0.72847 3.3193-0.87623 4.4789-2.0358s0.62625-3.6408 2.0359-4.4789c1.6374-0.97357 3.8846 0.98324 5.7004 0.40718 1.8387-0.58333 3.6528-1.9214 4.4789-3.6645 0.40685-0.85855 0.12832-1.9088 0-2.8502-0.34245-2.5123-0.9599-5.0332-2.0358-7.3291-0.91065-1.9432-2.2273-3.6996-3.6645-5.2932-1.6761-1.8584-5.7004-4.886-5.7004-4.886s2.4599 3.6624 3.2574 5.7004c1.3196 3.3726 3.8947 7.2686 2.443 10.586-0.43861 1.0025-1.8194 1.2616-2.8502 1.6287-1.5554 0.55398-3.3748 1.4795-4.886 0.81434-2.9632-1.3043-1.6287-7.7362-5.2932-8.1434-3.6645-0.40717-3.6645-1.2215-3.6645-1.2215s3.0908 4.4312 4.0717 6.9219c0.45855 1.1643 0.72223 2.4166 0.81434 3.6645 0.14023 1.8998 0.77297 4.205-0.40717 5.7004-1.6753 2.1228-5.3988 3.8029-7.7362 2.443-1.6797-0.97721-1.2215-5.7004-1.2215-5.7004s-1.3247 4.2219-2.8502 5.7004c-1.3954 1.3525-3.8165 1.1799-5.2932 2.443-1.1156 0.95427-1.0829 3.112-2.443 3.6645-1.8004 0.73134-3.8097-0.77255-5.7004-1.2215-3.1388-0.74533-9.3649-2.443-9.3649-2.443z"/>
      <path id="path3814" d="m348.13 362.98c3.6645-1.2215 9.7721-4.4789 11.401-4.4789 1.6287 0 4.8873 0.53218 7.3291 0.81434 3.3948 0.39229 6.8775 0.34007 10.179 1.2215 6.698 1.7881 12.431 6.3847 19.137 8.1434 7.1329 1.8707 21.987 2.443 21.987 2.443s-16.565-2.861-24.43-5.7004c-2.2836-0.8244-4.2911-2.2827-6.5147-3.2574-3.8555-1.6899-7.8423-3.0665-11.808-4.4789-4.0432-1.44-7.9276-3.8772-12.215-4.0717-2.3679-0.10741-4.8366 0.50182-6.9219 1.6287-3.2939 1.78-8.1434 7.7362-8.1434 7.7362z"/>
      <path id="path3816" d="m384.78 366.24s2.8848 6.7294 4.886 9.7721c1.8526 2.8167 6.5147 7.7362 6.5147 7.7362s3.3371 5.6563 4.886 8.5506c2.2912 4.2812 4.3432 8.6863 6.5147 13.029 1.3572 2.7145 1.9257 5.9974 4.0717 8.1434 0.85839 0.85839 2.443 1.6287 3.2574 1.6287 0.81435 0 7.5941 1.1329 11.401 1.6287 2.3038 0.30002 4.6034 0.96278 6.9219 0.81435 2.2338-0.14302 4.301-1.2969 6.5147-1.6287 2.5538-0.38279 5.503 0.8894 7.7362-0.40717 1.9535-1.1342 3.6645-5.7004 3.6645-5.7004s-2.4454-3.8708-4.0717-3.2574c-2.1922 0.82688 0.40717 7.3291-1.2215 6.9219-1.6287-0.40717-3.3193-0.87624-4.4789-2.0359-1.1596-1.1596-1.17-3.0861-2.0359-4.4789-1.0184-1.6382-2.0292-5.502-3.6645-4.4789-3.2948 2.0614 6.9807 7.3127 4.8861 10.586-0.73149 1.1432-2.7168 0.0794-4.0717 0-2.3192-0.13596-4.2562-4.2969-6.1076-5.7004-1.9885-1.5074-3.8164 0.45477-3.6645-2.0358 0.15162-2.4869 1.4095-5.4551 3.6645-6.5147 1.3734-0.64534 3.0481 0.30887 4.4789 0.81434 3.207 1.133 8.2188 10.289 7.7362 6.9219-1.3106-9.1449-20.766-18.73-20.766-18.73s-9.1026-11.548-15.88-14.251c-2.1431-0.85485-3.4142-1.7242-5.7004-2.0359-2.5123-0.34245-4.9269-1.2245-7.3291-2.0358-2.7698-0.93554-8.1434-3.2574-8.1434-3.2574z"/>
      <path id="path3818" d="m398.21 194.82c1.2703-3.3034-3.7134-6.0289-5.7004-8.9578-1.6919-2.4938-2.969-5.4109-5.2932-7.3291-3.2315-2.667-7.3735-4.1373-11.401-5.2932-3.1553-0.90566-6.5015-0.93965-9.7721-1.2215-2.8429-0.245-5.712-0.11636-8.5506-0.40717-2.5971-0.26607-5.1295-1.3646-7.7362-1.2215-4.6355 0.2544-9.5091 1.1893-13.437 3.6645-3.3378 2.1035-7.7362 8.9578-7.7362 8.9578s5.4283 0.28499 8.1434 0.40717c3.3924 0.15265 6.9286-0.57487 10.179 0.40717 3.4983 1.0568 7.1675 2.7804 9.3649 5.7004 1.861 2.473 2.0322 5.8902 2.443 8.9578 0.41434 3.094-2.5696 7.5925 0 9.3649 5.9759 4.122 13.46-5.4768 20.359-7.7362 6.2898-2.06 16.762 0.88431 19.137-5.2932z"/>
    </g>
  </g>
  <metadata>
    <rdf:RDF>
      <cc:Work>
        <dc:format>image/svg+xml</dc:format>
        <dc:type rdf:resource="http://purl.org/dc/dcmitype/StillImage"/>
        <cc:license rdf:resource="http://creativecommons.org/licenses/publicdomain/"/>
        <dc:publisher>
          <cc:Agent rdf:about="http://openclipart.org/">
            <dc:title>Openclipart</dc:title>
          </cc:Agent>
        </dc:publisher>
        <dc:title>Dog</dc:title>
        <dc:date>2013-07-28T16:10:05</dc:date>
        <dc:description/>
        <dc:source>http://openclipart.org/detail/181240/dog-by-artbejo-181240</dc:source>
        <dc:creator>
          <cc:Agent>
            <dc:title>artbejo</dc:title>
          </cc:Agent>
        </dc:creator>
        <dc:subject>
          <rdf:Bag>
            <rdf:li>dog</rdf:li>
          </rdf:Bag>
        </dc:subject>
      </cc:Work>
      <cc:License rdf:about="http://creativecommons.org/licenses/publicdomain/">
        <cc:permits rdf:resource="http://creativecommons.org/ns#Reproduction"/>
        <cc:permits rdf:resource="http://creativecommons.org/ns#Distribution"/>
        <cc:permits rdf:resource="http://creativecommons.org/ns#DerivativeWorks"/>
      </cc:License>
    </rdf:RDF>
  </metadata>
</svg>
