<?xml version="1.0"?>
<svg xmlns:rdf="http://www.w3.org/1999/02/22-rdf-syntax-ns#" xmlns="http://www.w3.org/2000/svg" xmlns:cc="http://web.resource.org/cc/" xmlns:dc="http://purl.org/dc/elements/1.1/" xmlns:sodipodi="http://inkscape.sourceforge.net/DTD/sodipodi-0.dtd" xmlns:svg="http://www.w3.org/2000/svg" id="Layer_1" style="enable-background:new 0 0 229.798 246.839" xml:space="preserve" sodipodi:version="0.32" viewBox="0 0 229.798 246.839" version="1.0" sodipodi:docname="Gatto Nero.svg" sodipodi:docbase="F:\openclip\svg2">
<sodipodi:namedview id="base" bordercolor="#666666" borderopacity="1.0" pagecolor="#ffffff"/>
<path id="path3" d="m165.5 235.42c-3.691 4.926-9.064 9.127-15.517 9.127-2.961 0-5.592-1.742-8.251-2.883-2.705-1.161-5.847-1.786-8.683-2.592 10.967 0.785 20.313-7.705 23.514-17.841 3.565-11.293 4.694-22.057 4.068-33.878-2.361 0.175-1.304 3.169-1.223 5.106 0.127 3.032-0.039 6.081-0.172 9.11-0.248 5.668-1.496 11.658-3.725 16.863-4.556 10.637-11.736 20.195-24.491 18.408 5.147-6.028 6.134-13.841 10.749-20.078 4.789-6.472 10.114-13.091 11.967-21.094-3.313 2.23-6.626 4.461-9.939 6.691-0.209-3.367-0.405-6.931-0.405-10.344-0.129-0.001-1.007 0.141-1.216 0.203 0.516 3.209 1.442 8.821-1.48 11.162-1.139 0.911-2.697 0.874-2.576 2.629 0.073 1.053 1.85 1.58 1.262 2.751-2.479 4.943-6.962-1.32-9.274 1.003-1.775 1.784-0.507 9.711-0.507 12.674 2.569-0.608 5.138-1.216 7.707-1.824-1.25 3.332-2.294 7.013-4.063 10.103-1.5 2.622-6.243 7.15-2.63 9.368 0.468 0.287 1.539 0.338 2.101 0.468 2.384 0.553 4.667 1.231 6.951 2.109 3.835 1.475 7.389 3.002 11.426 3.868 8.699 1.866 16.284-5.201 20.547-11.893 4.75-7.458 3.375-16.771 4.106-25.169 0.853-9.799 1.375-19.583 0.908-29.417-1.179 0.597-2.307 1.353-3.447 1.926-2.112 1.062-1.102 3.682-1.015 5.982 0.201 5.352 0.097 10.674-0.202 16.023-0.299 5.346-0.993 10.767-2.028 16.023-0.51 2.59-1.241 5.157-1.928 7.706-0.57 2.1-1.14 6.36-2.54 7.7"/>
<path id="path5" d="m146.64 186.55c3.976-5.883-3.597-12.98-5.882-17.85-3.234-6.892-5.109-13.014-11.156-18.049 0 2.498 0.294 2.311 1.927 3.954 1.313 1.322 2.531 2.375 3.551 3.954 1.962 3.038 2.605 6.891 3.649 10.344-2.107-1.205-3.654-2.537-6.286-2.232 2.785 7.671 4.221 15.516 5.679 23.529 1.225-0.36 3.65-1.905 3.65-0.001 0 0.782 0.165 1.487 0.406 2.231 1.594 0.037 0.925-1.297 1.216-2.637 0.4-1.89 1.44-2.68 3.24-3.23"/>
<path id="path7" d="m149.4 144.63c-0.41-3.49-9.96-1.26-4.31-5.49 1.42-1.06 2.19-4.52 2.9-6.11 0.86-1.91 1.8-3.77 2.73-5.64 4.01-8.02 8.52-15.76 12.87-23.59 4.4-7.924 7.76-16.334 10.69-24.892 1.35-3.95 2.02-8.241 2.51-12.379 0.19-1.59 1.01-4.043 0.3-5.459-0.42-0.828-1.05-1.341-0.71-2.23 0.29 0.255 0.72 0.357 1.01 0.608-1.41-16.232-2.39-31.559-8.52-46.851-3.41 6.144-2.06 13.405-4.46 19.876-1.73-0.912-1.69-3.465-3.65-4.056v15.211c-1.49-1.567-6.77-15.34-8.31-14.197-1.81-3.615-4.1-6.988-6.59-10.175-1.22-1.568-2.51-3.062-3.96-4.429-1.54-1.453-2.98-3.617-4.77-2.084-0.93 0.794-1.36 1.839-2.29 0.905-1.04-1.042-0.9-1.035-2.27-0.645-1.8 0.514-3.22 2.844-4.32 4.169-1.23 1.482-2.23 3.187-3.6 4.559-0.93 0.94-1.56 0.331-1.41-0.413-2.79 3.48-4.28 7.567-5.68 11.763-1.01-0.879-2.03-1.757-3.04-2.636-0.88 2.839-1.76 5.678-2.64 8.517-0.67-0.473-1.35-0.946-2.02-1.418-2.36 6.409-4.73 12.818-7.09 19.227-0.4 1.091-3.122-0.229-3.46-0.771-0.581-0.931-0.204-3.011-0.204-4.057 0-2.539 0.072-6.562-2.949-3.947-2.989 2.586-5.978 5.173-8.966 7.759-0.275 0.238-3.077-0.938-3.535-1.069-1.222-0.348-3.006-0.338-4.259-0.158-2.589 0.372-4.587 1.123-6.416-0.783-2.716-2.832-5.433-5.663-8.149-8.495v13.177c0 1.942 0.54 2.4-1.423 2.547-2.23 0.167-4.459 0.334-6.689 0.501 0.733 1.72 5.295 0.811 6.749 0.811h64.641c0.44 0 0.2 10.203 0.2 11.137 0 1.223-0.31 13.608 0.29 13.608 4.23 0 7.93 1.636 10.68 4.849 3.29 3.843 2.5 8.66 2.32 13.3-0.21 5.25-0.69 10.52-1.37 15.73-0.6 4.67-2.35 9.79-5.23 13.58-1.6 2.12-3.62 3.66-5.74 5.2-1.86 1.33-0.95 4.81-0.95 6.97 2.04-2.41 7.19-2.01 10.12-1.48 2.85 0.52 9.51 3.12 10.64 6.12 3.05 8.14 5.24 16.48 7.03 24.97 0.44 2.08 0.83 4.08 1.06 6.19 0.1 0.94 0.65 5.89 1.27 5.27 0.17-0.17 0.79-0.1 0.91-0.3 0.34-0.56-0.31-2.78-0.38-3.45-0.25-2.28-0.54-4.52-0.92-6.78-1.48-8.87-4.11-17.36-6.94-25.87-0.76-2.28 8.55-0.13 9.51 0.59 3.22 2.42 6.19 5.1 7.19 9.09 1.73 6.93 2.31 14.45 2.9 21.55 0.99-0.28 2.44-0.99 3.25-1.63 0.38-0.3 1.43-0.59 1.39-1.08-0.1-1.36-0.2-2.71-0.31-4.07-0.39-5.15-1.89-9.93-3.4-14.84-1.52-4.93-3.23-8.72-8.03-11.24-4.15-2.18-9.61-4.18-14.2-5.07m19.88-55.979h1.02c-0.34 1.014-0.68 2.029-1.02 3.043-0.7-0.809-0.16-1.994 0-3.043m-43.2-33.056c-1.48-0.519 0.17-3.402 1.22-3.042-0.41 1.014-0.81 2.028-1.22 3.042"/>
<path id="path11" d="m126.56 55.121c0.271 0.136 0.541 0.272 0.812 0.408 0.405-1.014 0.812-2.028 1.217-3.042-1.15-0.394-1.56 1.685-2.03 2.634"/>
<path id="path13" fill-rule="evenodd" clip-rule="evenodd" d="m128.79 236.24c-6.209-1.556-11.918 0.452-18.122-0.021-3.558-0.271-6.514-0.806-8.75-3.731-2.238-2.928-3.79-6.109-5.296-9.459-2.563-5.698-3.653-11.952-4.715-18.064-0.548-3.154-0.56-6.54-0.826-9.731-0.175-2.095 0.921-5.305-1.435-5.438 0 9.436 0.178 18.408 2.308 27.645 2.185 9.475 7.691 15.998 15.744 21.031-5.277 2.93-14.187 4.695-19.013-0.371-5.131-5.386-9.858-11.516-11.515-18.968-1.649-7.412-2.59-14.826-2.328-22.44 0.133-3.872 0.536-7.763 0.803-11.629 0.042-0.611-3.302-1.642-3.845-1.961 0 3.695-0.406 7.38-0.406 11.054 0 4.442 1.014 8.916 1.014 13.461 0 7.985-0.271 17.885 5.077 24.465 5.812 7.152 11.983 12.352 21.776 11.574 8.693-0.689 17.476-4.261 26.207-3.924 1.378 0.053 2.756 0.106 4.134 0.159v-4.26c-0.25 0.42-0.6 0.41-0.81 0.61"/>
<path id="path15" d="m108.91 128.34c0.116-1.023-0.486-3.054 0.813-3.65-0.993 0.597-1.479 3.576 0 4.258 1.694-5.645 1.913-10.766 1.42-16.427 0.033 0.625 0.331 1.226 0.608 1.623v-3.042c0.142 0.361 0.439 0.663 0.608 1.014 1.752-7.022 0.753-19.279 8.188-23.285 0.663-0.358 9.051-2.818 9.051-1.899v-15.2c0-1.134 0.595-9.509-0.46-9.509h-70.525c1.607 1.768 2.736 2.817-0.203 3.551-1.331 0.332-2.848-0.006-4.055 0.709 0.738 1.297 4.53 3.493 4.056 5.071-0.187 0.623-2.891 1.939-3.448 2.028l22.911 21.033c1.135 1.042 1.392 1.809 2.884 1.382 2.029-0.581 4.151-1.453 6.25-1.728 5.052-0.661 5.868 2.85 7.301 6.896 2.982 8.424 4.864 17.173 3.314 26.08-0.74 4.251-2.4 8.687-5.254 12.015-1.544 1.802-2.612 3.646-4.873 4.402-1.647 0.552-3.646 1.991-4.967 3.124-2.52 2.159-4.689 4.885-6.067 7.921 7.222-5.211 14.444-10.421 21.667-15.632 3.308-2.387 6.616-4.773 9.923-7.159 1.08-0.78 0.85-2.28 0.85-3.57m15.01-58.413c1.243 0.819-1.724 4.291-2.434 5.475-1.25-0.818 1.72-4.291 2.43-5.475m-51.716 5.071l-4.462-4.057c0.836-0.474 2.032-1.624 3.042-1.624 2.565 0 1.42 3.484 1.42 5.681m2.027-5.681c1.452 0.836 3.009 2.331 3.549 3.956 0.955 2.872-2.036 2.029-4.563 2.333 0.338-2.096 0.677-4.192 1.014-6.289m3.449 9.331c1.383 0 8.288-0.783 5.17 2.332-2.047 2.046-5.034 0.251-5.17-2.332m11.357-2.232c-1.227-0.66-2.466-1.294-3.65-2.028 1.501 1.555 3.515-2.331 4.462-3.446-0.271 1.824-0.542 3.649-0.812 5.474m4.462-1.418c-2.546 0.766-1.622-2.361-1.622-3.976 0-1.915 1.987-1.095 3.65-1.095-0.784 1.521-1.804 3.318-2.028 5.071"/>
<path id="path17" d="m78.288 160.18c3.419-3.847 6.316-9.688 10.627-12.562 2.452-1.633 4.949-3.412 8.032-3.259 2.852 0.142 5.076 2.312 7.707 3.246-9.281 4.638-11.423 12.63-12.948 22.3-0.635 4.026-1.858 8.762-1.858 12.788 0 2.097-1.383 7.517 1.216 7.504 0.603-12.13 2.897-23.52 6.934-34.96 1.057-2.994 2.354-5.399 5.945-5.399 2.618 0 5.526 0.978 7.718 2.441 1.564 1.044 1.952 0.996 1.915 2.83-0.026 1.317-1.008 3.004-1.418 4.258-0.818 2.503-1.625 5.271-1.014 7.912 2.287-4.309 2.958-9.171 5.146-13.539 2.74-5.474 9.313-2.523 13.309-0.658 0-1.859 0.089-1.931-0.912-2.941-0.258-0.261-2.12-0.525-1.419-1.216 0.683-0.673 1.404-1.411 2.128-2.131 0.938-0.934 0.203-5.127 0.203-6.491-0.497 0.325-1.119 0.438-1.621 0.813-2.683-3.61-4.082-8.158-6.085-12.17-1.505 3.56-4.488 4.525-7.706 6.086-1.343 0.651-2.786 1.355-3.405 2.802-0.809 1.89 1.335 1.563 2.694 2.47 3.68 2.457 0.096 4.896-3.145 4.057-3.439-0.89-5.883-4.149-9.734-3.244 2.681-3.255 6.824-4.938 7.908-9.531-5.679 4.098-11.358 8.194-17.037 12.292-3.62 2.611-7.239 5.223-10.859 7.834-2.003 1.445-3.858 2.297-4.806 4.571-2.372 5.696-3.192 11.978-3.601 18.096-0.078 1.163-1.2 8.32-0.203 8.823 1.237 0.625 2.393 1.134 3.651 1.722 0.64-8.26 1.887-16.48 2.643-24.74m41.982-26.16c0.361 3.446 6.096 8.475 2.229 11.357-1.383-2.932-2.098-6.009-5.07-7.908-0.181 2.936 1.997 5.308 2.535 8.012 0.269 1.347 0.963 2.736-0.708 2.736h-5.477c4.224-1.759 4.078-3.695 2.636-7.707-1.55-4.33-0.55-5.54 3.86-6.49"/>
<path id="path21" d="m108.71 209.26c0.235-5.29-0.399-10.291 0.406-15.615-2.7-0.757-1.984 1.349-2.232 3.65-0.363 3.377-0.803 6.35-0.202 9.734-2.283-1.095-3.588-3.709-6.084-4.258 1.007 6.385 2.556 12.728 5.678 18.455 1.248 2.288 11.229 15.92 13.995 12.982-2.264-1.511-4.211-3.119-6.269-4.881-1.418-1.213-4.549-5.52-3.569-7.492 0.77-1.551 0.725-5.336 3.348-4.867 2.099 0.375 1.013 6.715 1.013 8.721 4.777-1.048 9.554-2.095 14.332-3.143 1.328-0.291 0.474-10.687 0.474-12.475-6.02 2.21-16.1 5.55-20.89-0.8"/>
<path id="path23" d="m109.52 167.89c-1.256 6.305-7.604 9.928-9.431 16.021-0.468 1.561-1.185 3.161 0.696 3.396 1.465 0.184 2.814 0.264 4.07 1.068 2.07 1.325 1.507 5.525 3.65 5.07 1.218-0.259 1.729-5.83 2.232-7.709 0.904-3.369 2.172-6.571 3.726-9.686 0.775-1.555 4.281-6.648 3.176-7.747-2.03-2-5.69-0.64-8.13-0.41m-4.26 17.44c-0.203-0.068-0.405-0.137-0.607-0.205 0.473-1.014 0.946-2.027 1.419-3.041 1.16 0.68-0.31 2.26-0.81 3.25"/>
<path id="path25" d="m67.539 70.739c1.555 1.419 3.11 2.839 4.665 4.259 0-2.197 1.146-5.681-1.42-5.681-1.257 0-2.157 1.552-3.245 1.422" fill-rule="evenodd" clip-rule="evenodd" fill="#fff"/>
<path id="path27" d="m74.027 69.317c-0.27 2.096-0.54 4.192-0.81 6.289 2.528-0.303 5.518 0.539 4.563-2.333-0.53-1.595-2.199-3.402-3.753-3.956" fill-rule="evenodd" clip-rule="evenodd" fill="#fff"/>
<path id="path29" d="m91.877 74.998c2.101 0.571 2.805-3.431 3.65-5.071-0.497 0-3.65-0.16-3.65 0.142v4.929" fill-rule="evenodd" clip-rule="evenodd" fill="#fff"/>
<path id="path31" d="m86.196 74.998c0.274 0.22-0.526-0.475-0.81-0.61 0.284 0.135 1.085 0.83 0.81 0.61" fill-rule="evenodd" clip-rule="evenodd" fill="#fff"/>
<path id="path33" fill="#fff" d="m88.834 76.416l1.014-5.475c-1.149 1.352-2.299 2.705-3.448 4.057 0.711 0.382 2.338 1.293 2.434 1.418"/>
<path id="path35" d="m77.68 78.444c0.042 2.648 3.021 4.684 5.17 2.536 3.261-3.258-4.281-2.122-5.17-2.536" fill-rule="evenodd" clip-rule="evenodd" fill="#fff"/>
<path id="path37" d="m117.23 137.46c3.196 1.374 3.967 5.143 5.272 7.908 3.866-2.883-1.868-7.911-2.229-11.357-4.414 0.95-5.411 2.159-3.854 6.49 1.442 4.012 1.588 5.948-2.636 7.707h5.477c1.671 0 0.977-1.39 0.708-2.736-0.48-2.4-1.98-5.94-2.74-8.01" fill-rule="evenodd" clip-rule="evenodd" fill="#fff"/>
<path id="path39" d="m88.834 238.26c6.268 3.76 12.483 3.744 18.862 0.203-4.715-2.947-9.501-6.229-11.995-11.438-2.712-5.665-4.41-11.32-5.3-17.546-0.852-5.961-0.757-11.918-0.757-17.925 0-1.891 0.023-1.757-1.788-2.277-1.443-0.416-2.828-1.014-4.259-1.421-2.72-0.774-5.202-2.287-7.946-2.938-0.677 9.803-1.375 19.463 0.404 29.207 1.687 9.28 6.431 18.45 12.775 24.15" fill-rule="evenodd" clip-rule="evenodd" fill="#fff"/>
<path id="path41" d="m104.65 147.4c-2.806-0.314-4.797-2.896-7.707-3.041-2.871-0.143-6.46 1.594-8.485 3.618-2.1 2.099-3.892 4.386-5.712 6.726-1.924 2.473-4.392 4.568-4.666 7.707-0.551 6.322-1.124 12.682-2.087 18.95-0.242 1.571-1.004 3.371 0.706 3.864 1.412 0.406 2.642 1.219 4.057 1.622 2.99 0.852 5.873 2.09 8.886 2.944 0-7.635 1.323-15.196 2.516-22.763 0.669-4.242 1.857-8.054 3.683-11.929 0.881-1.872 2.504-3.392 4.042-4.711 1.387-1.19 3.737-1.77 4.767-2.99" fill-rule="evenodd" clip-rule="evenodd" fill="#fff"/>
<path id="path43" fill="#fff" d="m143.59 202.16c3.381-2.163 6.761-4.325 10.142-6.488-1.782 7.698-6.886 14.879-11.832 20.929-2.382 2.913-3.521 6.636-4.8 10.101-1.402 3.803-3.476 7.088-6.084 10.143 25.229 3.534 28.923-31.61 28.19-49.084-4.355 1.84-9.188 2.815-13.776 3.952-1.571 0.39-1.622-0.082-2.043 1.321-0.254 0.845 0.122 2.368 0.203 3.246 0.16 1.65 0.85 5.08 0 5.88"/>
<path id="path45" d="m145.62 176.41c1.419 2.097 2.964 7.103 1.419 9.529-0.617 0.969-2.172 1.359-3.042 2.233-0.884 0.888-0.608 2.714-0.608 3.853 4.437-0.366 8.73-2.286 12.995-3.349 3.257-0.812 2.762-1.308 2.25-4.551-0.356-2.254-0.523-4.462-0.994-6.699-1.734-8.259-3.648-16.485-6.617-24.402-1.401-3.736-6.051-6.561-9.864-7.647-2.786-0.794-9.194-1.562-11.155 1.014-2.777 3.648 2.662 6.433 4.478 9.152 2.417 3.62 4.052 7.605 5.664 11.637 0.683 1.707 1.537 3.3 2.448 4.896 0.65 1.12 2.96 4.11 3.03 4.34" fill-rule="evenodd" clip-rule="evenodd" fill="#fff"/>
<path id="path47" fill="#fff" d="m127.37 149.43c0.757 0.466 1.491 0.835 2.229 1.219v-4.057c-0.75 0.75-2.89 2.44-2.23 2.84"/>
<path id="path49" fill="#fff" d="m130 194.25c-1.513 0.551-0.406 13.494-0.406 15.818 1.503-1.572 4.141 0.675 6.086 0.813 2.597 0.185 4.968-2.125 2.839-4.26-1.85-1.854 2.464-3.171 3.245-4.463 1.527-2.525 0.952-6.984 0.406-9.734-3.824 0.64-8.293 1.668-12.17 1.42 0.17 0.31 0.01 0.4 0 0.4"/>
<path id="path51" d="m138.12 189.99c-1.589-7.93-2.91-15.7-5.679-23.324 2.632-0.305 4.179 1.027 6.286 2.232-2.05-6.78-3.333-11.49-9.127-15.818v34.882c0 0.891 0.122 5.884 0.722 5.884 3.881 0 8.027-0.779 11.854-1.42-0.241-0.744-0.406-1.449-0.406-2.231 0.01-2.07-2.66 0.08-3.64-0.2" fill-rule="evenodd" clip-rule="evenodd" fill="#fff"/>
<path id="path53" fill="#fff" d="m137.1 220.62c-2.487 0.604-7.505 0.409-7.505 3.303v11.705c2.088-2.503 3.429-4.824 4.868-7.706 0.85-1.69 2.91-5.8 2.63-7.29"/>
<path id="path55" d="m119.46 195.06c0.142-1.52-4.428-0.846-5.78-1.114-1.231-0.244-2.804-0.304-4.057-0.304-0.955 0-0.84 2.536-0.966 3.41-0.408 2.834-0.151 5.707-0.151 8.541 0 0.747-0.131 3.247 0.204 3.869 0.473 0.878 2.7 1.793 3.568 2.275 4.592 2.551 10.769 0.72 15.323-0.94 1.193-0.435 1.998-0.28 1.998-1.547v-14.999c-2.74 0.27-7.87 1.68-10.13 0.8" fill-rule="evenodd" clip-rule="evenodd" fill="#fff"/>
<path id="path57" d="m114.59 216.97c-4.429-0.568-4.451 5.77-3.289 8.48 1.678 3.914 5.547 6.478 8.969 8.76-2.816 2.99-12.529-10.637-13.883-12.803-3.417-5.467-4.803-12.375-5.791-18.635 2.496 0.549 3.801 3.163 6.084 4.258-0.407-2.291-0.452-4.385-0.204-6.691 0.128-1.192 1.491-5.914 0.61-6.895-0.947-1.054-6.603-1.112-8.113-1.422-2.653-0.544-5.277-1.164-7.91-1.824 0 14.276 1.905 30.583 10.851 42.287 4.811 6.294 14.252 2.939 20.946 2.939 1.696 0 6.737 1.818 6.737-0.363v-12.617l-14.805 3.246c-0.01-2.53 0.77-6.54-0.21-8.75" fill-rule="evenodd" clip-rule="evenodd" fill="#fff"/>
<path id="path59" fill="#fff" d="m99.583 187.15c0.446-4.931 3.081-8.159 6.028-11.952 1.5-1.93 3.099-3.933 3.809-6.301 0.521-1.736 4.121-1.622 5.881-1.622 1.027 0 2.023 0.707 2.731 1.411 0.467 0.465-0.778 2.051-1.112 2.622-1.307 2.238-2.468 4.561-3.545 6.92-2.212 4.842-3.455 10.173-4.258 15.412 1.948-0.121 4.139 0.22 6.084 0.404 2.05 0.195 3.896 0.889 4.567-1.126 1.237-3.715 3.768-6.445 5.574-9.825 2.042 2.122 3.022 4.491 4.258 7.1v-37.018c0-1.08-5.134-2.26-5.983-2.43-2.86-0.572-5.114 0.232-6.936 2.421-3.207 3.851-3.216 9.739-5.535 14.108-0.711-3.072 0.445-6.433 1.418-9.328 0.299-0.889 1.898-3.81 0.902-4.472-1.472-0.978-2.887-1.904-4.551-2.527-3.101-1.161-6.852-2.074-9.33 0.811-2.164 2.519-2.968 7.38-4.019 10.534-2.227 6.684-3.236 13.78-3.972 20.756-0.207 1.96-0.366 3.893-0.463 5.861-0.106 2.123 2.523 1.929 4.383 2.396 3.724 0.936 7.751 1.815 11.576 2.133 0.48-4.91-3.61-5.81-7.497-6.27"/>
<path id="path61" d="m154.95 225.49c-5.084 7.988-11.944 14.303-21.904 13.59 3.251 0.924 6.613 1.756 9.734 3.043 3.736 1.54 6.152 2.821 10.314 2.071 3.669-0.661 6.78-2.907 9.511-5.3 3.038-2.662 4-5.884 5.021-9.676 4.17-15.481 4.948-30.768 4.359-46.725-3.273 1.759-6.948 3.397-10.456 4.566-1.718 0.572-0.673 4.61-0.575 6.368 0.125 2.271-0.083 4.538-0.203 6.808-0.246 4.653-0.955 9.176-1.913 13.73-0.58 2.83-2.27 9.94-3.88 11.53" fill-rule="evenodd" clip-rule="evenodd" fill="#fff"/>
<path id="path63" fill="#fff" d="m168.54 158.76c-2.712-3.861-5.714-6.907-10.262-8.424-0.757-0.253-6.322-0.361-5.896 0.919 0.784 2.353 1.761 4.71 2.423 7.098 2.68 9.659 4.715 19.031 5.824 29.003 2.702-0.901 5.309-2.065 7.91-3.244 0.609-0.276 3.479-1.262 3.427-1.876-0.128-1.543-0.171-3.139-0.426-4.666-1.04-6.28-1.44-12.61-2.99-18.81"/>
<path id="path65" d="m104.65 185.12c1.071 0.369 2.5-2.408 1.419-3.041-0.47 1.02-0.94 2.03-1.42 3.04" fill-rule="evenodd" clip-rule="evenodd" fill="#fff"/>
<path id="path67" fill-rule="evenodd" clip-rule="evenodd" d="m129.4 194.25h0.811c-0.095-0.151-0.128-0.274-0.202-0.406-0.58 0.08-0.22 0.25-0.61 0.41"/>
<path id="path69" d="m130 193.85c0.08-1.121-0.406-3.074-0.406-3.448 0.01 1.13-0.36 2.98 0.41 3.45"/>
<path id="path71" fill-rule="evenodd" clip-rule="evenodd" d="m121.29 194.25c-1.009-0.13-2.11-0.257-1.826 1.014l10.14-1.014v-0.406c-2.51 0.73-5.7 0.41-8.31 0.41"/>
<path id="path73" fill-rule="evenodd" clip-rule="evenodd" d="m119.46 194.05c0.997 0.354 2.315 0.205 3.447 0.205 1.39 0 4.704 0.41 5.881-0.205 3.373-1.766-1.606-9.039-3.446-10.951-1.97 3.68-5.01 7.39-5.88 10.94"/>
<path id="path75" d="m66.119 111.3c-6.098-4.065-12.679-7.161-19.774-9.028-3.108-0.817-17.428-3.526-17.746 1.726-0.172 2.85 4.537 2.991 6.718 3.68 2.397 0.757 4.795 1.514 7.192 2.271 2.226 0.703 1.698 0.045 3.735-1.085 5.972-3.31 14.078 0.45 19.875 2.44" fill-rule="evenodd" clip-rule="evenodd" fill="#3F3F3F"/>
<path id="path77" fill="#3F3F3F" d="m0 144.77c0.244 0.322 0.696 0.557 1.014 0.811 1.588-3.913 3.026-7.453 5.477-10.951 1.125-1.606 2.555-3.713 4.766-2.232 1.447 0.968 2.644 2.886 3.346 4.463-0.411-4.11 0.472-6.104 1.725-9.838 0.374-1.113-1.654-4.586-2.13-5.78-0.775-1.944-1.606-3.869-2.23-5.88-3.679 4.045-5.62 8.564-7.099 13.789-0.826 2.916-1.414 5.867-2.374 8.746-0.671 2.01-1.166 5.4-2.495 6.87"/>
<path id="path79" fill="#3F3F3F" d="m19.877 123.88c5.667-0.244 8.041 3.67 11.763 7.1 1.947-3.083-4.253-5.526-1.428-9.066 1.148-1.438 4.872 5.61 5.281 6.43 1.521-0.657 0.948-1.912 0.406-3.042-0.889-1.856-1.922-2.665-1.318-5.07 0.517-2.064 1.054-4.463 3.651-4.463 2.61 0 4.839 1.948 7.199 2.841-2.056-2.135-3.942-5.746-1.216-8.113-5.138-1.623-10.276-3.246-15.415-4.869-0.004 1.76 3.231 4.616 1.243 5.702-3.433 1.874-5.344-0.949-6.516-3.875-0.526 1.267 1.629 4.801 0 5.475-1.547 0.64-3.767-3.386-4.868-4.057-0.131 3.481 3.78 5.769 3.054 8.678-1.468 5.886-3.907-3.469-6.298-4.011-1.508-0.342-3.643 1.244-3.147 2.727 1.192 3.572 2.869 6.932 4.162 10.456 1.007-0.9 2.913-2.37 3.447-2.86"/>
<path id="path81" d="m57.802 12.124c-1.96-2.096-3.92-4.191-5.88-6.287 0.41 1.364 2.048 4.756 1.014 6.084-1.848 2.373-2.932-2.667-4.36-3.144-3.734-1.245 1.395 4.719 1.723 5.374 2.097 4.191-3.154 2.789-5.13 1.209-0.962-0.77-1.778-1.743-2.84-2.381-1.956-1.174-2.014-0.749-2.868 1.247-1.298 3.033-1.91 5.956-2.127 9.231-0.392 5.889 0.391 11.96 0.391 17.873 2.104-3.111 0.595-6.841 1.72-10.233 1.635-4.934 6.781 0.128 8.421 2.323-0.905-2.683-1.947-10.786 2.396-11.41 4.541-0.653 8.527 5.074 10.787 8.368-0.694-1.587-4.951-8.033-0.608-7.911 2.911 0.082 2.933 5.513 5.88 5.882-1.794-2.802-3.722-7.461-3.042-10.751 1.054-5.106 5.186-2.978 7.707-0.202-0.43-1.658-2.142-4.896-0.705-6.046 2.12-1.696 4.23-2.05 6.878-1.521 4.383 0.876 7.991 4.031 12.485 4.931-6.79-4.365-13.077-8.79-20.518-12.044-2.814-1.231-9.305-5.004-10.512-0.733-0.877 3.103 2.456 7.846-0.812 10.141" fill-rule="evenodd" clip-rule="evenodd" fill="#3F3F3F"/>
<path id="path83" fill="#3F3F3F" d="m227.15 133.2c-2.003 0.355-5.427 3.265-6.894 4.668-1.163 1.113-2.039 3.297-2.841 4.664 4.269 0.367 3.746 8.2 2.636 10.951 1.661-2.141 5.962-6.549 7.911-2.432 1.473 3.11-0.587 7.204 1.826 9.938-0.7-9.63 1.57-18.65-2.65-27.79"/>
<path id="path85" d="m217.22 137.26c-0.233-2.508 2.077-3.146 3.041-5.069 0.53-1.058 0.912-2.373-0.606-2.231-1.097 0.103-1.111 1.155-1.624 1.826-1.14 1.49-2.065 2.909-2.94 0.304-0.401-1.194 0.688-3.596 1.116-4.767-1.893 2.028-3.786 4.056-5.679 6.084-2.325-2.224-0.609-6.048-0.609-8.833 0-5.184-6.332-1.897-9.126-0.698-7.315 3.141-13.925 7.194-20.282 11.965 4.276-0.862 7.646-3.8 11.846-4.729 2.012-0.445 4.139-0.346 5.834 0.971 1.998 1.552 0.378 3.91-0.237 6.192 2.337-2.462 6.571-4.718 7.505 0.203 0.738 3.889-1.799 6.571-2.84 10.141 2.693-0.394 2.734-4.791 5.07-5.375 4.519-1.131 0.334 6.164-0.203 7.404 2.497-2.384 4.148-6.458 7.616-7.61 2.04-0.679 1.99-0.784 3.337-2.125 0.685-0.681 1.4-2.136 1.825-3.042-1.11 0.44-2.15 0.07-3.06-0.6" fill-rule="evenodd" clip-rule="evenodd" fill="#3F3F3F"/>
<metadata><rdf:RDF><cc:Work><dc:format>image/svg+xml</dc:format><dc:type rdf:resource="http://purl.org/dc/dcmitype/StillImage"/><cc:license rdf:resource="http://creativecommons.org/licenses/publicdomain/"/><dc:publisher><cc:Agent rdf:about="http://openclipart.org/"><dc:title>Openclipart</dc:title></cc:Agent></dc:publisher><dc:title>Architetto -- Gatto nero</dc:title><dc:date>2009-07-04T15:34:31</dc:date><dc:description>Black cat on a Halloween pumpkin by Francesco Rollandin. From OCAL 0.18 release.</dc:description><dc:source>http://openclipart.org/detail/26973/architetto----gatto-nero-by-anonymous</dc:source><dc:creator><cc:Agent><dc:title>Anonymous</dc:title></cc:Agent></dc:creator><dc:subject><rdf:Bag><rdf:li>autumn</rdf:li><rdf:li>black</rdf:li><rdf:li>cat</rdf:li><rdf:li>clip art</rdf:li><rdf:li>clipart</rdf:li><rdf:li>halloween</rdf:li><rdf:li>image</rdf:li><rdf:li>media</rdf:li><rdf:li>public domain</rdf:li><rdf:li>pumpkin</rdf:li><rdf:li>season</rdf:li><rdf:li>svg</rdf:li></rdf:Bag></dc:subject></cc:Work><cc:License rdf:about="http://creativecommons.org/licenses/publicdomain/"><cc:permits rdf:resource="http://creativecommons.org/ns#Reproduction"/><cc:permits rdf:resource="http://creativecommons.org/ns#Distribution"/><cc:permits rdf:resource="http://creativecommons.org/ns#DerivativeWorks"/></cc:License></rdf:RDF></metadata></svg>
