<?xml version="1.0"?>
<svg xmlns:rdf="http://www.w3.org/1999/02/22-rdf-syntax-ns#" xmlns="http://www.w3.org/2000/svg" xmlns:cc="http://creativecommons.org/ns#" xmlns:dc="http://purl.org/dc/elements/1.1/" xmlns:svg="http://www.w3.org/2000/svg" id="Layer_1" xml:space="preserve" viewBox="0 0 595.28 841.89" version="1.1" y="0px" x="0px" enable-background="new 0 0 595.28 841.89">
<g id="g3">
	<path id="path5" d="m223.11 83.584c0.368-0.287 0.647-0.631 0.863-1.013-1.25 1.266-2.05 1.831-0.86 1.013zm212.43 659.64c-5.026-9.68-18.061-16.806-17.862-36 0.186-19.168-5.621-63.408-5.807-64.817-0.206-1.344-6.044-39.721-13.837-52.557-7.85-12.799-18.88-37.114-18.88-37.114s-8.419-37.172-9.238-54.971c-0.788-17.792-1.198-42.889-1.198-42.889l6.634-0.385s-10.025-52.563-16.87-62.64c-6.786-10.064-8.81-40.729-8.42-54.121 0.404-13.468 1.429-30.838 1.429-30.838s49.547-27.672 52.345-34.55c2.793-6.953-1.019-46.878-1.019-49.642 0-2.726-14.251-63.792-15.225-66.59-1.005-2.74-6.806-17.988-8.648-21.746-1.806-3.77-9.412-12.842-21.243-12.267 0 0 7.626-1.532 12.216 1.032 4.635 2.56-5.614-4.361-9.604-4.744-4.009-0.406-4.206-1.985-6.05-3.157 0 0 9.653 2.75 11.255 3.739 1.62 0.957-3.021-18.39-9.411-23.53 0 0 7.395 5.333 9.021 11.258 0 0 0.199-6.309-5.441-13.229-5.603-6.915-7.99-8.68-10.193-13.22 0 0 8.406-3.753 14.24 7.883 5.799 11.649 4.001 8.498 7.604 11.267 3.611 2.779-3.208-3.567-4.199-8.298-1.019-4.749-7.83-15.629-13.055-17.212-5.206-1.549-7.816-6.308-12.031-15.936 0 0 2.012-1.424 5.615 5.667 3.6 7.122 10.033 11.288 13.228 13.066 3.222 1.747-7.209-7.708-12.427-18.007-5.237-10.234-9.808-6.503-12.855-10.883-3.01-4.323-17.242-45.413-49.536-30.814 0 0-23.067-8.882-36.111 5.346-13.016 14.249-9.208 23.919-13.438 24.321-4.208 0.373-10.618-0.632-14.633 2.362-3.994 2.955-4.38 7.518-4.38 7.518s2.356-2.769 7.185-5.343c4.831-2.557 10.034-0.195 12.846-1.769 0 0-3.824 8.125-6.233 9.262-2.398 1.191-6.801 2.598-6.993 10.298-0.165 6.566 0.935 11.271-0.346 13.597 1.521-1.522 3.72-4.186 3.955-6.888 0 0 0.986 10.282-1.235 12.052-2.182 1.789-8.021 4.725-8.414 6.715-0.379 2.008 5.425 4.347 6.419 7.891 0.837 3.022 2.387-2.009 1.913-5.471 1.076 2.803 2.783 7.292 2.303 8.23-0.783 1.593-2.612 5.75-3.197 6.729-0.601 1.015 0.397-1.937-2.216 7.328-2.614 9.317-1.607 11.66 1.824 6.123 3.398-5.53 1.369-10.647 4.592-14.827 3.226-4.151 7.032-8.896 4.817-0.976-2.205 7.881-5.613 17.753-9.238 20.345-3.601 2.584-1.595 5.519-0.983 6.926 0.604 1.348 6.012-7.135 8.017-11.468 1.989-4.344 0 10.453-3.409 12.815-3.403 2.42-11.22 0.833-11.032 5.549 0.192 4.754 3.806 6.145 5.191 6.145 1.42 0-3.187-2.969-0.585-5.925 2.631-2.986 8.829-2.603 11.027-6.926 2.223-4.352 2.029 2.172 0.796 4.171-1.194 1.941-1.194 3.932-4.187 6.094-3.018 2.151 3.614 2.793 7.612-0.382 0 0-3.998 6.729-20.838 14.247-16.88 7.465-22.693 40.109-22.693 40.109s-8.812 36.74-15.454 42.85-8.221 6.964-13.244 55.144-1.175 4.535 6.251 6.936 33.69 19.962 39.532 20.937c0 0-18.483 61.025-28.299 80.806-9.836 19.79-10.25 34.368-10.25 34.368l21.29 3.015s8.196 68.352 6.414 93.858c-1.807 25.475-5.034 41.487-6.414 46.052-1.428 4.533-7.672 28.215-3.854 52.327 3.854 24.137 4.637 52.383 5.439 58.684 0.795 6.325 4.011 25.699 3.595 35.398-0.373 9.698-3.595 15.038-6.402 19.38-2.83 4.333-2.83 18.938-2.83 18.938s-1.783 34.009 1.228 38.522c3 4.572 21.856 9.726 27.692 8.118 5.817-1.588 13.215-7.867 13.822-13.016 0.591-5.134-5.84-17.235-5.613-28.285 0.193-11.057-0.391-28.465-0.391-30.418 0-2.01-2.835-10.685-2.41-21.742 0.41-11.083 6.21-44.055 11.824-67.596 5.613-23.464 4.421-57.877 4.619-60.252 0.194-2.369 0.194-7.504 7.419-28.638 7.233-21.135 8.022-47.64 9.217-51.001 1.215-3.329 11.026-57.108 11.026-57.108l21.27 0.794s24.675 78.851 28.106 84.389c3.374 5.52 8.797 23.112 24.463 46.641 0 0 4.987 6.915 15.846 45.021 10.826 38.126 18.638 37.748 28.285 65.617 9.624 27.856 7.018 54.528 7.018 54.528s-2.407 23.747-12.458 34.982c-9.981 11.275-12.019 19.194-9.981 20.386 1.958 1.185 50.917 6.492 55.719-13.65 4.84-20.168 2.228-24.123 4.424-29.443 2.18-5.37 9.19-14.83 4.22-24.51zm-70.63-525.67l8.816 36.348-12.017 8.129 3.2-44.48zm-138.8 82.21l-23.681-16.587 28.288-75.086c-7.442 36.167 10.823 46.038 10.823 46.038l1.819 8.925c2.6 18.93-17.25 36.72-17.25 36.72z" fill="#050606"/>
</g>
<metadata><rdf:RDF><cc:Work><dc:format>image/svg+xml</dc:format><dc:type rdf:resource="http://purl.org/dc/dcmitype/StillImage"/><cc:license rdf:resource="http://creativecommons.org/licenses/publicdomain/"/><dc:publisher><cc:Agent rdf:about="http://openclipart.org/"><dc:title>Openclipart</dc:title></cc:Agent></dc:publisher><dc:title>Architetto</dc:title><dc:date>2010-06-21T15:13:27</dc:date><dc:description>Architetto, Carriera, Donna, Woman, clip art, clipart, </dc:description><dc:source>http://openclipart.org/detail/68047/architetto-by-emilie.rollandin</dc:source><dc:creator><cc:Agent><dc:title>emilie.rollandin</dc:title></cc:Agent></dc:creator><dc:subject><rdf:Bag><rdf:li>Architetto</rdf:li><rdf:li>Carriera</rdf:li><rdf:li>Donna</rdf:li><rdf:li>Woman</rdf:li><rdf:li>clip art</rdf:li><rdf:li>clipart</rdf:li></rdf:Bag></dc:subject></cc:Work><cc:License rdf:about="http://creativecommons.org/licenses/publicdomain/"><cc:permits rdf:resource="http://creativecommons.org/ns#Reproduction"/><cc:permits rdf:resource="http://creativecommons.org/ns#Distribution"/><cc:permits rdf:resource="http://creativecommons.org/ns#DerivativeWorks"/></cc:License></rdf:RDF></metadata></svg>
