<?xml version="1.0" encoding="UTF-8" standalone="no"?>
<!-- Created with Inkscape (http://www.inkscape.org/) -->

<svg
   xmlns:dc="http://purl.org/dc/elements/1.1/"
   xmlns:cc="http://creativecommons.org/ns#"
   xmlns:rdf="http://www.w3.org/1999/02/22-rdf-syntax-ns#"
   xmlns:svg="http://www.w3.org/2000/svg"
   xmlns="http://www.w3.org/2000/svg"
   xmlns:sodipodi="http://sodipodi.sourceforge.net/DTD/sodipodi-0.dtd"
   xmlns:inkscape="http://www.inkscape.org/namespaces/inkscape"
   width="569.625"
   height="350.26862"
   id="svg3077"
   version="1.1"
   inkscape:version="0.48.4 r9939"
   sodipodi:docname="dog-jumping.svg"
   inkscape:export-filename="/home/chaunce/Documents/runeman.org/clipart/dog-jumping.png"
   inkscape:export-xdpi="26.859776"
   inkscape:export-ydpi="26.859776">
  <title
     id="title3134">Dog Jumping</title>
  <defs
     id="defs3079" />
  <sodipodi:namedview
     id="base"
     pagecolor="#ffffff"
     bordercolor="#666666"
     borderopacity="1.0"
     inkscape:pageopacity="0.0"
     inkscape:pageshadow="2"
     inkscape:zoom="1"
     inkscape:cx="460.75935"
     inkscape:cy="201.85232"
     inkscape:document-units="px"
     inkscape:current-layer="layer1"
     showgrid="false"
     fit-margin-top="0"
     fit-margin-left="0"
     fit-margin-right="0"
     fit-margin-bottom="0"
     inkscape:window-width="1366"
     inkscape:window-height="717"
     inkscape:window-x="-3"
     inkscape:window-y="28"
     inkscape:window-maximized="1" />
  <metadata
     id="metadata3082">
    <rdf:RDF>
      <cc:Work
         rdf:about="">
        <dc:format>image/svg+xml</dc:format>
        <dc:type
           rdf:resource="http://purl.org/dc/dcmitype/StillImage" />
        <dc:title>Dog Jumping</dc:title>
        <dc:date>2014-01-06</dc:date>
        <dc:creator>
          <cc:Agent>
            <dc:title>Algot Runeman</dc:title>
          </cc:Agent>
        </dc:creator>
        <dc:rights>
          <cc:Agent>
            <dc:title>Algot Runeman</dc:title>
          </cc:Agent>
        </dc:rights>
        <dc:publisher>
          <cc:Agent>
            <dc:title>runeman.org</dc:title>
          </cc:Agent>
        </dc:publisher>
        <dc:identifier>dog-jumping.svg</dc:identifier>
        <dc:contributor>
          <cc:Agent>
            <dc:title>Andrew Magill (flcker photo)
&quot;Dog Days&quot;</dc:title>
          </cc:Agent>
        </dc:contributor>
        <cc:license
           rdf:resource="http://creativecommons.org/licenses/publicdomain/" />
      </cc:Work>
      <cc:License
         rdf:about="http://creativecommons.org/licenses/publicdomain/">
        <cc:permits
           rdf:resource="http://creativecommons.org/ns#Reproduction" />
        <cc:permits
           rdf:resource="http://creativecommons.org/ns#Distribution" />
        <cc:permits
           rdf:resource="http://creativecommons.org/ns#DerivativeWorks" />
      </cc:License>
    </rdf:RDF>
  </metadata>
  <g
     inkscape:label="Layer 1"
     inkscape:groupmode="layer"
     id="layer1"
     transform="translate(2,-122.90625)">
    <g
       id="g3100">
      <path
         sodipodi:nodetypes="cccccccccccccccccccccccscccccccccccssssccccccscccccccccccccccccccccccccccccccccccccccccccccccccccccccccsccccccccccccccccccccccccccccccccc"
         inkscape:connector-curvature="0"
         id="path3018"
         d="m 120.92969,123.47716 6.36396,3.53553 0.7071,12.02082 0,4.94974 7.77818,-4.24264 -4.24264,4.24264 19.09188,0 -4.24264,2.12132 14.84924,0 4.24264,4.24264 -7.07106,-0.7071 3.53553,4.24264 10.6066,0 1.41422,2.12132 9.89949,2.12132 28.28427,11.31371 14.14214,7.07107 16.97056,11.3137 9.19239,4.24264 19.79899,8.48529 11.31371,4.24264 4.94974,5.65685 6.36396,0 c 0,0 15.82188,0.0769 22.62742,3.53553 1.4858,0.75511 3.53554,3.53554 3.53554,3.53554 l 5.65685,0 4.94975,4.24264 2.12132,-1.41421 21.92031,4.94974 3.53553,1.53554 20.5061,7.77817 5.65685,2 9.8995,3.53554 14.84924,7.07106 4.94975,4.24264 c 0,0 11.8333,-1.49519 17.67767,-0.7071 5.3928,0.72719 10.28141,3.61329 15.55635,4.94974 4.88441,1.23751 9.94945,1.65329 14.84924,2.82843 7.39866,1.77445 14.41675,5.10482 21.92031,6.36396 9.3097,1.56222 28.28427,1.41422 28.28427,1.41422 l 17.67767,3.53553 13.43503,-1.41421 9.19239,-5.65686 4.24264,-6.36396 -3.53554,-7.77817 c 0,0 7.0063,1.67167 9.19239,4.24264 2.85236,3.35454 3.53554,12.72792 3.53554,12.72792 l -4.24265,7.07107 -19.79899,7.77817 8.48529,3.53554 -21.92031,-4.94975 4.94974,9.89949 -6.36396,-6.36396 1.41422,8.48528 c -0.63236,-2.82843 -5.32273,-5.65685 -10.60661,-8.48528 l -6.36396,2.82843 6.36396,4.94975 c -2.2052,-1.85766 -4.9536,-3.53425 -12.72792,-3.53554 l 0.70711,6.36396 c -0.41538,-3.77123 -5.28814,-7.54247 -11.31371,-11.3137 l 2.82843,9.19238 2.12132,5.65686 c -4.78367,-3.77124 -7.23974,-7.54247 -19.09189,-11.31371 l -19.09188,-6.36396 -24.74874,-3.53554 16.97057,25.45585 9.19239,7.77817 3.53553,14.84925 c 1.56694,2.70624 1.77861,6.4967 7.77817,5.65685 l -7.77817,2.12132 c 4.24264,5.03771 8.48528,5.51589 12.72792,4.94975 l -10.6066,5.65685 c 3.06413,2.76686 6.12826,4.72749 9.19239,2.82843 l -7.07107,2.12132 c 3.29983,3.17183 6.59966,3.85762 9.89949,4.24264 l -10.6066,2.12132 14.14214,13.43503 11.31371,7.77817 12.72792,6.36396 4.24264,0.70711 4.94975,10.6066 15.55635,40.30509 5.65685,7.77817 5.19239,4.82843 -7.31371,10.02082 -5.65685,0 -16.97057,-45.25484 17.67767,46.66905 -9.19238,13.43503 c -12.89345,4.43332 -24.42143,3.40478 -34.64824,-2.82843 l 14.14214,-15.55635 12.02081,-3.53553 -13.43503,-31.1127 -7.77817,-10.6066 -24.74874,-15.55635 -28.28427,-15.55635 -25.45584,-20.5061 -21.92031,-25.45584 -9.19239,-6.36396 -19.79899,4.94975 -7.77818,-4.94975 -67.17514,-5.65686 -55.15433,-2.12132 c 0,0 -31.1127,-4.94974 -34.64823,-10.6066 C 195.88301,298.83964 184.5693,294.597 184.5693,294.597 L 164.0632,276.21222 152.74949,252.8777 142.85,241.56399 c -3.71762,0.39376 -4.25094,3.17575 -4.24264,6.36396 -0.7596,-10.45358 -6.98223,-17.48297 -10.60661,-25.45584 l -10.6066,-9.19239 -2.12132,5.65685 -2.82842,-1.41421 c -1.86444,2.12132 -3.66325,4.24264 0,6.36396 l -6.36397,-8.48528 -19.091877,-7.07107 -27.57716,3.53553 -16.97057,-1.41421 -13.43503,5.65685 -11.3137,-9.19238 5.65685,-4.94975 -2.12132,-5.65685 7.77817,4.94974 24.74874,-8.48528 -28.28427,2.82843 -16.2634501,0 -8.48529004,-9.8995 -2.12131996,-7.77817 31.1127001,-9.8995 7.77818,-5.65685 2.82842,-4.24264 -0.7071,-4.94975 14.14213,-8.48528 10.6066,-6.36396 15.55635,-2.47488 18.38478,-1.76776 z"
         style="fill:#000000;stroke:#000000;stroke-width:1px;stroke-linecap:butt;stroke-linejoin:miter;stroke-opacity:1;display:inline" />
      <path
         sodipodi:nodetypes="scscccccccscccscccscss"
         inkscape:connector-curvature="0"
         id="path2997"
         d="m 149.06973,208.56312 c -5.6426,3.68856 -3,20 -3,20 0,0 4.32637,17.23714 11,22 4.10584,2.93027 15,2 15,2 l 21,4 -18,16 -20,11 -8,10 1,11 15,13 c 0,0 -0.0709,3.68015 1,5 3.19901,3.94261 14,6 14,6 l 13,-2 6,-10 c 0,0 -6.77375,-9.83522 -12,-12 -4.31144,-1.78586 -14,0 -14,0 l -2,-5 58,-25 c 0,0 12.05495,1.16253 15,-3 2.7227,-3.84826 -2,-14 -2,-14 0,0 -8.09519,-22.19854 -17,-29 -20.3061,-15.50971 -52.61257,-33.98094 -74,-20 z"
         style="fill:#000000;stroke:#1a1a1a;stroke-width:1px;stroke-linecap:butt;stroke-linejoin:miter;stroke-opacity:1;display:inline" />
      <path
         inkscape:connector-curvature="0"
         id="path3020"
         d="m 476.6044,363.18636 22.62741,19.79899"
         style="fill:none;stroke:#000000;stroke-width:1px;stroke-linecap:butt;stroke-linejoin:miter;stroke-opacity:1;display:inline" />
      <path
         inkscape:connector-curvature="0"
         id="path3022"
         d="m 512.66684,390.05641 16.97057,38.18377"
         style="fill:none;stroke:#000000;stroke-width:1px;stroke-linecap:butt;stroke-linejoin:miter;stroke-opacity:1;display:inline" />
      <path
         inkscape:connector-curvature="0"
         id="path3024"
         d="m 477.3115,364.60057 26.87006,20.5061 6.36396,6.36396 9.8995,32.52691 12.02081,32.52691"
         style="fill:none;stroke:#4d4d4d;stroke-width:1px;stroke-linecap:butt;stroke-linejoin:miter;stroke-opacity:1;display:inline" />
    </g>
  </g>
</svg>
