<?xml version="1.0"?>
<svg xmlns:rdf="http://www.w3.org/1999/02/22-rdf-syntax-ns#" xmlns="http://www.w3.org/2000/svg" xmlns:cc="http://creativecommons.org/ns#" xmlns:dc="http://purl.org/dc/elements/1.1/" xmlns:svg="http://www.w3.org/2000/svg" id="svg2" viewBox="0 0 555.43 396.53" version="1.1">
  <g id="layer1" transform="translate(-1673.7 -765)">
    <path id="path2993" d="m1744.9 902.48c-2.1388-2.9267-15.887-17.372-17.502-16.727-0.9537-3.6719-5.8481 14.274-5.2419 22.143 0.2052 2.6626-7.2122 7.7271-10.021 10.293-28.111 25.677-31.774 46.151-23.098 63.986-5.8603 8.4018-11.377 16.2-12.212 21.548-4.4402 2.4977-4.558 10.884 2.9911 7.7192 1.2923 3.2775 3.7044 3.3545 8.7327 5.8609 5.6884 2.8355 10.232-7.5198 19.345-15.084 6.0397-5.0136 8.4154-3.9463 8.7424-0.2067 0.3736 4.2731-2.1018 9.2298-3.1526 13.845-1.5079-0.3444-3.0758-0.6479-4.5234-1.0331-5.3106-1.4136-7.3444 1.0762-6.7654 2.8928 3.4226 7.7008 8.1028 13.559 10.228 20.87 0.7162 2.4638 6.9069 0.8833 8.134-1.0331 10.144-15.843 10.595-28.489 19.645-40.707 2.4164-3.2622 6.1554-8.0564 14.063-7.8522 19.809 0.51165 24.191-2.9226 36.792-13.225 7.6292 6.8194 11.69 11.229 11.862 19.837 8.3402 0.7868 15.55 3.4939 22.275 7.0256 1.5777 5.5007 6.2738 7.7689-1.3272 20.044-8.0403 12.984-10.857 27.411-19.938 39.005-9.5083 7.045-20.85 40.596-30.83 57.654-4.6571 5.157-3.0012 3.2269-6.4603 8.8852-41.725 14.194-44.168 18.61-26.832 18.391l38.978-0.493c12.861-0.1627 14.394-7.8697 20.885-21.824l11.172-19.217c10.155-9.4053 18.744-19.471 26.527-28.102 12.642-13.5 21.181-29.02 33.824-42.52 22.383 40.598 46.27 74.319 55.247 113.65-14.956 5.0164-32.242 7.006-30.824 13.431 20.006-0.551 40.012-1.1021 60.018-1.6531 0.024-3.375 0.05-6.7501 0.074-10.125-7.1604-22.568-12.495-46.765-29.05-63.644-4.9732-24.656-18.197-49.424-26.162-69.016 10.474-18.623 5.2829-25.775-2.2868-38.434 15.374-11.637 35.504-17.498 54.959-24.796 7.8076 9.6162 15.15 17.836 24.673 25.623 29.966 46.698 59.47 74.716 68.812 124.3 1.9482 12.743 3.8167 16.604-8.6235 30.582-15.285 2.9672-43.236 13.531-21.512 10.745 19.448-0.069 38.897-0.1376 58.346-0.2065-1.5742-18.253-3.1479-36.506-4.722-54.758 3.1694-18.806-8.6932-21.837-18.32-35.239-2.0279-3.9949-4.0556-7.9899-6.0836-11.985 4.0036-0.7577 8.0073-1.5154 12.011-2.2731 17.79 8.0755 30.633 12.616 54.395 14.878 47.765 24.727 44.848 22.79 66.842 55.519 12.02 12.086 21.615 19.774 22.508 34.301-8.9319 4.1327-17.863 8.2654-26.795 12.398 16.395-1.5842 32.79-3.1684 49.184-4.7526 9.9832-21.138 5.3915-37.435-9.5104-49.179-21.932-40.05-37.382-36.272-64.374-71.224-7.3489-1.3087-14.698-2.6174-22.047-3.926-14.053-11.609-28.282-21.62-43.299-31.409-9.4789-11.021-18.958-22.041-28.437-33.062 17.222-45.774-8.9698-68.607-35.175-97.532 51.838-15.793 80.294-14.487 99.169 4.1327 9.5488 9.4194 13.959 17.958 25.737 25.21-8.623-5.8349-12.443-10.527-14.409-18.184 18.375 4.1027 24.986 12.305 33.528 20.457-2.5093-4.3393-5.0189-8.6787-7.5282-13.018 13.333 4.7077 11.868 9.6166 15.397 16.737 1.0751 2.0322 4.0295 3.3062 6.0445 4.9592-0.2919-2.4108-1.4933-4.601-0.8755-7.2322 0.7976-35.388-33.511-67.57-71.587-82.861 16.383-1.965 23.967 2.262 33.564 5.1659-8.573-5.7762-15.835-8.5342-28.776-10.745-4.2748-4.192-5.4649-6.5647-3.1568-12.191 7.3964 3.5129 20.432 3.2471 30.789 3.7194-16.878-2.0739-23.537-7.7601-36.454-10.952 3.1168-0.41327 6.6501-1.363 9.3503-1.2398 5.0565 0.23062 8.3434 1.952 13.304 2.273 4.7163 0.30522 10.288-0.27552 15.432-0.41328-4.3587-0.34439-9.1316-0.35016-13.076-1.0332-5.2545-0.90994-8.657-3.1771-14.368-3.7194-3.2773-0.3112-7.83 0.82655-11.745 1.2398-0.5704-1.8597-1.1408-3.7194-1.7113-5.5792 15.588-9.7289 19.12-4.6117 30.826-2.273-16.713-6.5458-15.894-9.5043-41.242-3.5128 9.624-4.4824 13.024-6.931 22.463-8.0588-14.082-0.46525-21.53 2.9357-36.109 7.6455 5.3185-5.8572 11.889-8.3366 21.132-12.191-11.289 2.4796-23.371 2.7844-33.866 7.4389-25.133 11.146-26.291 21.83-24.284 31.615 1.6787 8.1853 11.076 13.872 9.5823 22.317-12.364 13.32-41.739 15.105-57.127 16.737-26.53-13.515-77.193-18.403-128.28-1.8597-15.144-1.7144-14.048-0.56225-29.723 7.0256-7.5471 6.2872-12.633 8.3111-23.184 12.191-11.405 9.0056-19.506 17.413-29.226 25.829-8.5234 7.3806-23.818 10.789-35.727 16.184z"/>
  </g>
  <metadata>
    <rdf:RDF>
      <cc:Work>
        <dc:format>image/svg+xml</dc:format>
        <dc:type rdf:resource="http://purl.org/dc/dcmitype/StillImage"/>
        <cc:license rdf:resource="http://creativecommons.org/licenses/publicdomain/"/>
        <dc:publisher>
          <cc:Agent rdf:about="http://openclipart.org/">
            <dc:title>Openclipart</dc:title>
          </cc:Agent>
        </dc:publisher>
        <dc:title>Weird shadow of a dog</dc:title>
        <dc:date>2013-09-05T10:53:03</dc:date>
        <dc:description>Terrible shadow of a dog.&#xD;\nhttp://imgur.com/6Md2C</dc:description>
        <dc:source>http://openclipart.org/detail/183019/weird-shadow-of-a-dog-by-rones-183019</dc:source>
        <dc:creator>
          <cc:Agent>
            <dc:title>rones</dc:title>
          </cc:Agent>
        </dc:creator>
        <dc:subject>
          <rdf:Bag>
            <rdf:li>dog</rdf:li>
            <rdf:li>shadow</rdf:li>
            <rdf:li>silhouette</rdf:li>
            <rdf:li>weird</rdf:li>
            <rdf:li>wild</rdf:li>
          </rdf:Bag>
        </dc:subject>
      </cc:Work>
      <cc:License rdf:about="http://creativecommons.org/licenses/publicdomain/">
        <cc:permits rdf:resource="http://creativecommons.org/ns#Reproduction"/>
        <cc:permits rdf:resource="http://creativecommons.org/ns#Distribution"/>
        <cc:permits rdf:resource="http://creativecommons.org/ns#DerivativeWorks"/>
      </cc:License>
    </rdf:RDF>
  </metadata>
</svg>
