<?xml version="1.0"?>
<svg xmlns:rdf="http://www.w3.org/1999/02/22-rdf-syntax-ns#" xmlns="http://www.w3.org/2000/svg" xmlns:cc="http://creativecommons.org/ns#" xmlns:dc="http://purl.org/dc/elements/1.1/" xmlns:svg="http://www.w3.org/2000/svg" id="svg8761" viewBox="0 0 644.41 699.92" version="1.1">
  <g id="layer1" transform="translate(-33.214 -71.697)">
    <text id="text8780" style="word-spacing:0px;letter-spacing:0px" xml:space="preserve" font-size="40px" line-height="125%" y="771.61969" x="309.1806" font-family="Sans" fill="#000000">
      <tspan id="tspan8782" y="771.61969" x="309.1806">B22a</tspan>
    </text>
    <g id="g6214">
      <path id="path8784" d="m400 568.79a322.14 322.14 0 1 1 -644.29 0 322.14 322.14 0 1 1 644.29 0z" transform="matrix(.99557 0 0 .99557 277.91 -172.37)" stroke="#000" stroke-width="3.0134" fill="#fff"/>
      <path id="path8784-6" transform="matrix(.90230 0 0 .90230 285.17 -119.33)" fill="#00f" d="m400 568.79a322.14 322.14 0 1 1 -644.29 0 322.14 322.14 0 1 1 644.29 0z"/>
      <g id="g6197" transform="matrix(1.377 0 0 1.377 -127.03 -127.08)">
        <path id="path12275" stroke="#fff" stroke-width="10" fill="none" d="m284.52 321.22 117.14 2.1428"/>
        <path id="path12277" stroke="#fff" stroke-width="10" fill="none" d="m410.94 299.79-45.71 132.86"/>
        <path id="path12279" stroke="#fff" stroke-width="10" fill="none" d="m280.23 336.22 80.714 92.857"/>
        <path id="path12285" stroke="#fff" stroke-width="10" fill="none" d="m354.87 387.29 15.357 78.929"/>
        <path id="path12289" stroke="#fff" stroke-width="1px" fill="#fff" d="m420.92 287.6h-35.608c-5.5558 0-8.5863 2.0203-8.5863 6.8185s6.3135 6.3134 12.374 8.5863c6.0609 2.2728 16.162 9.3439 28.537 4.0406 12.374-5.3033 14.142-7.8287 14.395-11.364 0.2526-3.5355-2.2097-8.0812-11.112-8.0812z"/>
        <path id="path12293" d="m1045.5 427.08c0 1.3947-1.1306 2.5254-2.5254 2.5254-1.3947 0-2.5253-1.1306-2.5253-2.5254 0-1.3947 1.1306-2.5254 2.5253-2.5254 1.3948 0 2.5254 1.1306 2.5254 2.5254z" transform="matrix(23.654 0 0 23.654 -24430 -9685.3)" stroke="#fff" stroke-width=".38635" fill="none"/>
        <path id="path12291" transform="matrix(4.783 0 0 4.783 -4748.3 -1626.1)" fill="#fff" d="m1045.5 427.08c0 1.3947-1.1306 2.5254-2.5254 2.5254-1.3947 0-2.5253-1.1306-2.5253-2.5254 0-1.3947 1.1306-2.5254 2.5253-2.5254 1.3948 0 2.5254 1.1306 2.5254 2.5254z"/>
        <path id="path12287" stroke="#fff" stroke-width="10" fill="none" d="m308.8 282.29s-20-0.71428-27.857-0.71428c-5.7143 0-11.69 7.1397-11.786 10.714-0.1431 5.3518 3.8126 9.7631 12.174 10.532 11.58 1.0649 3.8979 16.611 0.6837 25.897-3.2143 9.2857-15.714 50.357-15.714 50.357s-9.4232 34.42-26.429 38.214"/>
        <rect id="rect12295" transform="rotate(-7.4904)" rx="0" ry="0" height="9.2662" width="19.544" y="426.69" x="291.46" fill="#fff"/>
        <rect id="rect12297" ry="0" rx="0" transform="rotate(-7.4904)" height="9.2662" width="19.544" y="504.19" x="296.81" fill="#fff"/>
        <path id="path12325" d="m1045.5 427.08c0 1.3947-1.1306 2.5254-2.5254 2.5254-1.3947 0-2.5253-1.1306-2.5253-2.5254 0-1.3947 1.1306-2.5254 2.5253-2.5254 1.3948 0 2.5254 1.1306 2.5254 2.5254z" transform="matrix(23.654 0 0 23.654 -24210 -9685.3)" stroke="#fff" stroke-width=".38635" fill="none"/>
        <path id="path12327" transform="matrix(4.783 0 0 4.783 -4528.3 -1626.1)" fill="#fff" d="m1045.5 427.08c0 1.3947-1.1306 2.5254-2.5254 2.5254-1.3947 0-2.5253-1.1306-2.5253-2.5254 0-1.3947 1.1306-2.5254 2.5253-2.5254 1.3948 0 2.5254 1.1306 2.5254 2.5254z"/>
        <path id="path12281" stroke="#fff" stroke-width="10" fill="none" d="m403.44 324.07 60 95"/>
        <path id="path12283" stroke="#fff" stroke-width="10" fill="none" d="m363.8 424.43 100-7.1429"/>
        <path id="path12375" stroke="#fff" transform="translate(-800.48 -12.574)" fill="#fff" d="m1181.4 436.65c0 10.257-8.3147 18.571-18.571 18.571-10.257 0-18.572-8.3147-18.572-18.571 0-10.257 8.3148-18.571 18.572-18.571s18.571 8.3147 18.571 18.571z"/>
      </g>
    </g>
  </g>
  <metadata>
    <rdf:RDF>
      <cc:Work>
        <dc:format>image/svg+xml</dc:format>
        <dc:type rdf:resource="http://purl.org/dc/dcmitype/StillImage"/>
        <cc:license rdf:resource="http://creativecommons.org/licenses/publicdomain/"/>
        <dc:publisher>
          <cc:Agent rdf:about="http://openclipart.org/">
            <dc:title>Openclipart</dc:title>
          </cc:Agent>
        </dc:publisher>
        <dc:title>B22a</dc:title>
        <dc:date>2012-11-25T03:47:39</dc:date>
        <dc:description>Road, Sign, France</dc:description>
        <dc:source>http://openclipart.org/detail/173318/b22a-by-desmoric-173318</dc:source>
        <dc:creator>
          <cc:Agent>
            <dc:title>Desmoric</dc:title>
          </cc:Agent>
        </dc:creator>
        <dc:subject>
          <rdf:Bag>
            <rdf:li>France</rdf:li>
            <rdf:li>Road</rdf:li>
            <rdf:li>Sign</rdf:li>
            <rdf:li>clip art</rdf:li>
            <rdf:li>clipart</rdf:li>
          </rdf:Bag>
        </dc:subject>
      </cc:Work>
      <cc:License rdf:about="http://creativecommons.org/licenses/publicdomain/">
        <cc:permits rdf:resource="http://creativecommons.org/ns#Reproduction"/>
        <cc:permits rdf:resource="http://creativecommons.org/ns#Distribution"/>
        <cc:permits rdf:resource="http://creativecommons.org/ns#DerivativeWorks"/>
      </cc:License>
    </rdf:RDF>
  </metadata>
</svg>
