<?xml version="1.0"?>
<svg xmlns:rdf="http://www.w3.org/1999/02/22-rdf-syntax-ns#" xmlns="http://www.w3.org/2000/svg" xmlns:cc="http://creativecommons.org/ns#" xmlns:dc="http://purl.org/dc/elements/1.1/" xmlns:svg="http://www.w3.org/2000/svg" id="svg2" viewBox="0 0 310.67 321.63" version="1.1">
  <title id="title10171">Dog Footprint</title>
  <g id="layer1" transform="translate(-281.8 -121.87)">
    <path id="path10146" d="m416.78 121.88c-5.7486 0.14955-11.04 2.3487-13.969 6.7812-7.6124 11.521-6.8723 26.455-1.9688 41.219s14.156 29.904 25.75 43.156c4.5468 5.1971 11.226 7.6385 18.344 9.1562 7.1177 1.5177 14.612 2.1807 21.094-1.9375 20.359-12.936 23.327-38.892 9.6875-56.625-24.088-31.319-44.262-42.132-58.938-41.75zm-77.344 28.312c-3.1776 0.14735-6.5952 1.0668-9.2812 3.4688-5.3012 4.7406-7.85 11.937-9.4688 20.562-1.6187 8.6259-1.857 18.754-0.0625 29 3.5889 20.492 16.28 42.092 42.594 48.188 16.464 3.8139 30.043-4.0687 37.281-14.719 7.2382-10.65 9.8165-23.808 5.3438-34.312-6.02-14.13-17.88-26.87-30.35-36.41s-24.88-16.3-36.06-15.78zm174.75 46.312c-6.096-0.0204-11.028 3.7891-14.188 8.1875-3.1594 4.3984-5.2393 9.7195-6.875 15.375-3.2715 11.311-4.5312 23.955-4.4688 32.312 0.0763 10.208 5.783 20.002 14.188 26.969 8.4045 6.9671 20.297 11.068 32.406 7.2812 10.118-3.1638 16.347-11.853 20.156-20.031 1.9045-4.0892 3.2151-8.155 3.9688-11.812 0.75364-3.6575 1.2388-6.581 0.28125-10.156-2.56-9.53-8.94-20.66-16.91-30.15s-17.22-17.93-28.56-17.97zm-197.69 89.16c-8.8653 0.19922-16.371 2.1983-22.156 5.1875s-10.363 6.6846-11.625 12.719c-4.13 19.74 6.2459 37.159 19.125 49.594s28.264 20.677 39 23.469c11.492 2.9884 24.699-3.6044 32.438-18.344 3.4666-6.603 7.6352-15.912 7.9688-26.344 0.33356-10.432-4.0672-22.133-16.094-30.281-17.892-12.121-34.863-16.31-48.656-16zm157.53 21.46c-8.852 0.0291-17.495 4.3098-24.531 9.75-3.5182 2.7201-6.5765 5.7704-8.875 9.1875s-4.0713 7.4106-3.4062 12.031c0.0396 0.27532 0.10719 0.54619 0.1875 0.8125 0.0802 0.26611 2.2283 8.0249 4.2188 18.062 1.9904 10.038 3.5372 22.284 2.6562 28.844-0.50075 3.7285-3.3214 10.028-6.2812 15.562-1.4799 2.7674-2.9688 5.4063-4.1875 7.75s-2.343 3.7435-2.6875 7.2188c-0.55294 5.5779 0.95428 11.776 4.625 17.938 1.8354 3.0806 4.3754 6.1004 8.2188 7.9062 3.8433 1.8058 8.8965 1.7752 13.312-0.34375l126.28-60.6c3.6076-1.731 6.5418-4.233 8-7.625s1.0222-7.2087-0.3125-10c-2.6694-5.5827-7.7423-8.8158-13.719-9.5-10.325-1.1821-24.25-1.2588-32.067-0.89732-7.8174 0.36144-27.827-13.723-30.948-16.68-11.193-10.607-25.388-22.676-28.579-25.391-3.4342-2.9227-7.7998-4.0447-11.906-4.0312z"/>
  </g>
  <metadata>
    <rdf:RDF>
      <cc:Work>
        <dc:format>image/svg+xml</dc:format>
        <dc:type rdf:resource="http://purl.org/dc/dcmitype/StillImage"/>
        <cc:license rdf:resource="http://creativecommons.org/licenses/publicdomain/"/>
        <dc:publisher>
          <cc:Agent rdf:about="http://openclipart.org/">
            <dc:title>Openclipart</dc:title>
          </cc:Agent>
        </dc:publisher>
        <dc:title>Actual Dog Footprint</dc:title>
        <dc:date>2013-01-23T15:58:57</dc:date>
        <dc:description>An actual footprint of a foot of my Irish Wolfhound</dc:description>
        <dc:source>http://openclipart.org/detail/174430/actual-dog-footprint-by-hroncok-174430</dc:source>
        <dc:creator>
          <cc:Agent>
            <dc:title>hroncok</dc:title>
          </cc:Agent>
        </dc:creator>
        <dc:subject>
          <rdf:Bag>
            <rdf:li>clip art</rdf:li>
            <rdf:li>clipart</rdf:li>
            <rdf:li>dog</rdf:li>
            <rdf:li>foot</rdf:li>
            <rdf:li>footprint</rdf:li>
            <rdf:li>real</rdf:li>
          </rdf:Bag>
        </dc:subject>
      </cc:Work>
      <cc:License rdf:about="http://creativecommons.org/licenses/publicdomain/">
        <cc:permits rdf:resource="http://creativecommons.org/ns#Reproduction"/>
        <cc:permits rdf:resource="http://creativecommons.org/ns#Distribution"/>
        <cc:permits rdf:resource="http://creativecommons.org/ns#DerivativeWorks"/>
      </cc:License>
    </rdf:RDF>
  </metadata>
</svg>
