<?xml version="1.0"?>
<svg xmlns:rdf="http://www.w3.org/1999/02/22-rdf-syntax-ns#" xmlns="http://www.w3.org/2000/svg" xmlns:cc="http://web.resource.org/cc/" xmlns:xlink="http://www.w3.org/1999/xlink" xmlns:dc="http://purl.org/dc/elements/1.1/" xmlns:svg="http://www.w3.org/2000/svg" id="Calque_1" version="1.1" xml:space="preserve" viewBox="0 0 313.056 371.719" enable-background="new 0 0 313.056 371.719" y="0px" x="0px">
	<path fill-rule="evenodd" clip-rule="evenodd" d="m153.5 275.24c-3.953 9.15-6.207 19.354-9.002 30-2.678 10.205-8.648 20.52-9 30-0.27 7.322 4.592 14.381-1 21-8.232 0.234-14.23-1.77-17-7-9.17 7.5-33.281 5.379-48 4 8.289-10.797 28.389-10.602 35-24 0.768-5.1-6.383-2.281-6-7 3.598-25.387 21.771-51.971 25-75 1.203-8.578-1.346-15.891 3-22 3.197-4.49 14.521-8.137 21-11 21.625-9.555 45.143-18.748 69.002-26v-8c-6.805-5.861-20.922-4.408-29-9-4.121-0.787-1.877 4.789-6 4h-116c-2.33 57.336-0.334 119-1 178-3.285 2.047-10.125 0.541-15 1-0.66-59.004 1.326-120.66-1-178-14.033-2.299-32.306-0.357-47.999-1v-16c20.043 0.708 37.001-1.665 56.999-1 0.896-9.771 11.463-9.872 14-18 1.387-44.343-4.467-82.237-13-118 3.363-0.495 7.965-3.306 10-2 11.143 33.674 19.164 74.424 27 113-5.043-0.711-5.59 3.075-11 2-2.918-3.748-2.465-10.867-5-15-2.32 5.346-0.342 14.991-1 22 11.203 6.464 16.229 19.107 36 17 2.834-0.834 1.189-6.145 3-8 16.781-0.363 21.201 2.051 36.002 2-0.053-7.236-11.082-5.55-15.002-6-2.451-3.274 2.564-4.54 5-6 13.582-8.136 12.617 0.943 24.002 7 14.334 7.625 31.926 2.27 47-1 3.904-22.097 1.115-50.886 14-64-4.482-5.918 2.625-11.807-1-19-6.84-0.489-11.201 6.773-17 4-6.086-3.914-5.412-14.586-12-18 0.111-15.176-6.742-25.051-11-33 11.754-9.548 32.09-23.486 49-13 7.453 9.556 12.625 25.57 9 43 4.844 4.624 7.828 10.429 14 15 3.076 2.277 7.889 2.28 11 6 4.674 5.584 9.6 22.231 11 31 4.063 25.429 4.734 60.727-4 80 9.252 22.314 0.883 47.246-11 60 16.758 4.115 16.732-15.568 19-32 3.898-28.23 7.049-64.681 13-91 6.836 3.881 1.596 13.489 1 20-0.619 6.788-1.398 13.309-2 19-3.457 32.711-2.301 71.875-19 91-9.172 1.494-20.422 0.912-31 1-2.275 10.391-0.373 24.959-1 37 0 0 0.385 63.201 10.918 65.785 16.508 5.16 38.076 5.258 55 10 0.557 7.74-0.555 10.188-4 11-7.305 1.725-4.686-8.324-10-10-13.902 1.041-29.697-4.555-44-3-3.121 0.34-7.273 4.119-12 5-18.928 3.527-42.049-10.631-46 8h-8c0.592-4.258-0.719-6.613-1-10 7.807-1.941 16.779-3.287 25.008-5.451 35.006 0.045 19.074-81.334 19.074-81.334-0.646-14.158 0.414-17.588 1-26-11.713-2.287-27.631-0.367-41-1-6.609-0.131-2.354 21.52-2.354 21.52 0.293 15.828 7.666 30.486 12.252 45.602l4.133 7.299c4.52 9.678 4.67 20.08 2.148 30.924-4.219 2.227-10.865 7.34-14.215 0.221-3.73 4.188-7.947 3.803-11.717 7.629 0 0-20.506 7.807-21.121 2.025s12.547-8.609 3.992-6.49 8.555-2.119 20.148-18.424c0.107-2.861-1.883-5.375-2.01-8.199-6.758-2.863-13.076-1.584-19.771-3.834-3.379-18.396-6.693-36.805-10.416-55.146" fill="#69664C"/>
		<path d="m152.59 275.16c-3.139 7.484-5.241 15.294-7.255 23.142-2.255 8.789-5.395 17.089-8.372 25.642-2.784 8-2.235 14.183-0.932 22.313 0.501 3.129 0.073 5.685-1.399 8.479-0.895 1.696-4.458 0.723-5.87 0.552-4.38-0.531-8.116-2.667-10.371-6.46-0.27-0.452-1.198-0.21-1.513 0.029-9.259 7.022-24.449 5.375-35.31 4.706-2.692-0.166-5.38-0.396-8.066-0.632-3.861-0.339-1.87-1.237 0.567-3.156 4.239-3.336 9.625-5.19 14.527-7.31 5.006-2.163 18.26-8.013 16.76-15.236-0.804-3.865-6.553-0.707-5.644-6.645 1.144-7.474 3.609-14.739 6.257-21.792 4.69-12.498 10.609-24.499 14.911-37.148 1.966-5.779 3.487-11.765 3.899-17.867 0.463-6.84-1.606-15.197 4.415-20.23 4.247-3.549 10.269-5.356 15.334-7.399 6.839-2.758 13.546-5.849 20.362-8.667 15.185-6.278 30.615-11.957 46.27-16.951 1.828-0.583 3.664-1.146 5.499-1.707 0.273-0.084 0.816-0.314 0.816-0.682 0-2.43 0.618-5.83-0.008-8.165-0.319-1.192-3.522-2.415-4.538-2.804-5.628-2.16-11.682-2.678-17.538-3.939-2.523-0.543-7.629-4.208-10.206-2.25-1.102 0.836-1.44 1.887-2.013 3.126-0.737 1.596-11.375 0.487-13.116 0.487h-104.2c-0.406 0-1.303 0.168-1.325 0.731-1.21 30.41-1.246 60.847-1.111 91.276 0.069 15.477 0.187 30.953 0.236 46.43 0.024 7.699 0.025 15.397 0 23.097-0.013 3.827-0.037 7.653-0.068 11.48-0.016 1.964 0.791 5.492-2.347 5.982-1.82 0.284-3.722 0.09-5.553 0.017-3.574-0.142-5.208 0.918-5.249-3.278-0.038-3.824-0.06-7.647-0.077-11.472-0.036-7.694-0.03-15.39-0.012-23.084 0.037-15.476 0.155-30.95 0.23-46.425 0.152-31.072 0.131-62.156-1.103-93.209-0.016-0.378-0.276-0.492-0.622-0.545-9.585-1.453-19.306-1.213-28.969-1.022-5.78 0.114-11.558 0.222-17.339 0.082-1.978-0.048-1.069-13.74-1.069-15.515-0.441 0.244-0.883 0.487-1.325 0.731 19.018 0.582 37.982-1.544 56.999-1 0.45 0.013 1.246-0.175 1.325-0.731 0.772-5.457 4.452-7.926 8.548-10.997 1.924-1.442 5.374-4.311 5.452-7.003 0.398-13.787 0.145-27.564-0.781-41.326-1.742-25.928-6.232-51.578-12.227-76.84-0.27 0.282-0.539 0.564-0.809 0.846 1.681-0.35 3.267-0.899 4.885-1.467 3.716-1.306 4.645 1.113 5.539 3.92 1.567 4.919 3.012 9.876 4.411 14.846 2.765 9.815 5.211 19.72 7.539 29.646 4.958 21.142 9.183 42.449 13.503 63.727l1.317-0.897c-2.774-0.175-10.09 3.351-11.593 0.254-1.992-4.104-1.711-8.924-3.869-13.021-0.292-0.554-1.627-0.151-1.803 0.333-2.549 7.01-0.56 14.883-1.061 22.167-0.013 0.186 0.056 0.329 0.219 0.427 5.733 3.444 10.2 8.495 15.652 12.321 6.232 4.375 13.55 5.449 20.998 4.794 1.245-0.109 2.368-1.304 2.634-2.474 0.358-1.583 0.406-3.198 0.709-4.791 0.272-1.436 8.103-0.662 9.333-0.605 8.729 0.4 17.316 1.847 26.079 1.873 0.521 0.001 1.375-0.227 1.317-0.897-0.536-6.222-7.746-6.237-12.556-6.277-0.563-0.001-1.126-0.008-1.689-0.021-3.179-0.053 0.932-3.553 1.79-3.977 2.087-1.032 4.078-2.238 6.203-3.189 5.372-2.404 8.395 1.235 11.962 4.525 15.189 14.01 36.638 7.712 54.481 3.785 0.324-0.071 0.755-0.321 0.816-0.681 1.901-11.218 2.236-22.616 3.463-33.914 1.124-10.367 2.972-21.859 10.357-29.761 0.179-0.191 0.241-0.411 0.096-0.638-3.717-5.809 1.736-12.511-0.924-18.853-0.102-0.243-0.351-0.379-0.614-0.379-4.274 0.001-7.482 1.958-11.241 3.79-8.141 3.967-10.088-7.853-12.711-12.593-0.986-1.785-2.083-3.205-3.663-4.481-1.708-1.38-1.164-6.913-1.463-8.833-0.89-5.71-3.134-11.229-5.813-16.317-1.132-2.15-2.319-4.267-3.505-6.387-1.382-2.47 2.096-3.879 3.873-5.204 5.828-4.346 12.143-8.102 19.015-10.529 7.323-2.587 15.029-2.569 22.023 0.916 2.861 1.426 4.736 5.84 6.073 8.514 1.561 3.119 2.651 6.452 3.56 9.81 1.891 6.987 2.053 14.317 1.153 21.462-0.486 3.863-1.008 3.301 1.579 6.106 2.441 2.647 4.543 5.6 6.939 8.291 3.879 4.356 7.852 5.687 12.907 8.107 5.12 2.452 7.226 9.686 9.005 14.583 8.344 22.97 9.357 49.763 6.875 73.853-0.663 6.437-1.855 12.828-3.779 19.009-0.878 2.822-2.604 4.637-1.515 7.398 1.637 4.144 2.506 8.554 3.028 12.961 1.878 15.847-3.821 33.157-14.487 44.949-0.271 0.299-0.22 0.736 0.223 0.831 20.756 4.462 19.644-25.669 21.37-38.86 3.702-28.295 5.961-56.931 12.175-84.832-0.576 0.205-1.152 0.409-1.729 0.613 5.813 3.94 2.315 11.824 1.129 17.3-1.484 6.856-1.601 14.292-2.348 21.273-1.469 13.733-2.067 27.542-3.436 41.286-1.283 12.895-3.186 26.068-8.362 38.045-1 2.315-2.223 4.522-3.544 6.666-2.491 4.039-4.399 4.627-8.972 4.993-8.09 0.648-16.255 0.238-24.361 0.279-0.477 0.002-1.213 0.165-1.325 0.731-2.375 11.963-1.09 24.944-0.999 37.079 0.029 3.981 0.151 7.962 0.3 11.94 0.554 14.913 1.084 30.535 5.111 44.985 1.245 4.467 2.735 8.33 7.377 9.728 12.777 3.847 26.389 4.595 39.515 6.627 3.69 0.572 7.349 1.288 10.983 2.14 3.621 0.849 3.105 5.774 2.035 8.59-1.98 5.212-6.352 0.937-7.354-1.78-0.614-1.663-1.133-3.244-2.192-4.683-2.424-3.288-8.982-1.472-12.418-1.743-7.47-0.589-14.844-2.087-22.304-2.799-4.019-0.385-8.039-0.388-12.057-0.028-3.002 0.27-5.812 2.43-8.428 3.733-7.451 3.716-17.443 1.519-25.313 0.411-10.17-1.431-22.317-2.782-25.338 9.585 0.442-0.244 0.884-0.488 1.325-0.731-3.064 0-7.174 1.314-7.269-2.708-0.054-2.313-0.83-4.619-1.117-6.913-0.27 0.282-0.539 0.564-0.809 0.847 9.951-2.399 20.232-3.633 30.122-6.098 4.218-1.051 7.931-3.885 10.427-7.393 6.951-9.766 7.81-23.089 7.959-34.668 0.144-11.036-0.902-22.109-2.533-33.015-1.628-10.879-0.887-21.333-0.076-32.294 0.028-0.382-0.313-0.489-0.622-0.544-8.055-1.439-16.266-1.212-24.412-1.031-4.991 0.111-9.979 0.224-14.972 0.095-1.481-0.038-3.05-0.26-4.269 0.786-4.914 4.217-2.06 16.07-1.029 21.512 0.753 3.976 0.675 8.136 1.494 12.158 0.933 4.578 2.384 9.05 3.868 13.473 2.373 7.065 4.243 15.344 7.909 21.82 3.427 6.05 5.902 11.772 6.71 18.813 0.598 5.215-0.068 10.526-1.05 15.646-0.4 2.089-1.908 2.393-3.615 3.322-3.578 1.95-7.042 1.915-9.132-1.798-0.308-0.546-1.374-0.131-1.684 0.174-2.715 2.668-5.974 3.396-8.978 5.461-1.157 0.796-2.061 1.807-3.375 2.276-3.425 1.224-6.92 2.259-10.475 3.032-3.573 0.778-11.917 0.837-6.571-4.681 1.136-1.173 4.681-1.971 5.204-3.487 0.153-0.445-0.602-0.583-0.868-0.542-1.062 0.163-2.106 0.489-3.146 0.749 0.104 0.392 0.21 0.784 0.314 1.176 3.288-0.871 6.286-3.266 8.837-5.377 3.675-3.043 6.808-6.681 9.744-10.421 0.45-0.573 2.428-2.771 2.376-3.473-0.21-2.871-1.601-5.365-2.01-8.199-0.027-0.189-0.243-0.283-0.395-0.34-4.888-1.844-9.894-2.063-15.027-2.728-5.2-0.674-4.957-4.074-5.745-8.38-0.581-3.172-1.163-6.344-1.746-9.516-2.332-12.69-4.718-25.37-7.274-38.018-0.162-0.804-2.099-0.311-1.932 0.518 3.707 18.337 7.038 36.746 10.416 55.146 0.033 0.182 0.237 0.293 0.395 0.34 5.377 1.592 10.975 1.496 16.425 2.712 3.219 0.718 3.567 3.508 4.517 6.212 1.217 3.465-3.538 7.766-5.733 10.239-3.331 3.752-8.059 8.757-13.161 10.107-1.183 0.313-0.866 1.471 0.314 1.176 0.607-0.151 1.215-0.304 1.821-0.457 0.767 0.006 0.876-0.399 0.326-1.213-0.642 0.344-1.312 0.629-1.947 0.987-1.596 0.901-3.476 2.04-4.445 3.663-2.2 3.681 0.232 5.602 3.866 5.692 5.074 0.125 10.386-1.758 15.126-3.358 0.876-0.296 2.07-0.524 2.848-1.061 3.901-2.692 8.482-4.426 11.888-7.773-0.561 0.058-1.122 0.115-1.684 0.174 1.567 2.785 3.995 4.537 7.309 3.692 1.67-0.425 8.358-2.537 8.77-4.413 2.521-11.5 2.315-23.204-3.597-33.645-2.417-4.27-3.839-8.448-5.464-13.104-2.52-7.216-5.223-14.35-7.192-21.743-2.13-7.99-2.968-17.036-3.54-25.355-0.231-3.374-0.99-10.896 3.904-10.701 6.859 0.272 13.745-0.09 20.604-0.2 2.906-0.047 18.312-1.18 17.987 2.773-0.356 4.357-0.866 8.682-0.999 13.056-0.312 10.265 1.838 19.976 2.837 30.146 1.407 14.329 1.97 29.546-1.931 43.548-1.749 6.277-4.99 12.78-10.966 15.954-3.115 1.654-6.502 1.378-9.804 2.219-7.678 1.955-15.531 3.143-23.233 4.999-0.388 0.094-0.865 0.394-0.809 0.847 0.419 3.346 1.283 6.414 0.992 9.835-0.028 0.343 0.31 0.544 0.622 0.544h8c0.496 0 1.188-0.168 1.325-0.731 3.472-14.22 21.295-8.03 31.691-6.982 5.37 0.541 11.109 0.653 16.256-1.162 2.624-0.925 4.974-2.539 7.495-3.698 4.491-2.064 11.702-0.568 16.481-0.041 7.973 0.879 15.833 2.455 23.868 2.732 3.626 0.124 6.305-0.062 7.805 3.758 0.72 1.832 1.166 3.683 2.51 5.176 1.611 1.791 5.131 1.313 6.971 0.184 3.748-2.3 3.137-7.323 2.915-11.131-0.01-0.175-0.256-0.303-0.395-0.34-9.131-2.467-18.517-3.65-27.876-4.883-5.474-0.721-10.939-1.479-16.369-2.489-3.547-0.66-8.804-1.078-11.823-3.17-3.075-2.129-4.031-7.742-4.826-11.076-1.361-5.713-2.074-11.588-2.691-17.42-1.131-10.679-1.632-21.433-1.866-32.166-0.077-3.524 0.065-7.025 0.069-10.552 0.011-10.16-1.128-20.478 0.867-30.524-0.442 0.244-0.884 0.488-1.325 0.731 8.287-0.041 16.577 0.234 24.854-0.283 1.903-0.119 5.489 0.148 7.12-0.978 1.865-1.287 3.386-4.326 4.535-6.189 7.143-11.582 9.271-26.052 10.867-39.305 1.902-15.798 2.424-31.729 4.116-47.548 0.832-7.778 1.152-15.78 3.045-23.381 1.298-5.213 2.677-11.01-2.432-14.473-0.51-0.346-1.589-0.011-1.729 0.613-5.98 26.853-8.328 54.414-11.768 81.666-1.373 10.878-1.618 23.001-5.425 33.365-0.75 2.043-1.87 3.895-3.371 5.471-1.246 1.31-2.954 1.946-4.7 2.236 0.283-0.047-4.586-0.021-4.126-0.53 3.746-4.141 6.574-9.079 8.883-14.132 5.085-11.129 6.555-23.743 4.374-35.747-0.433-2.378-3.471-8.227-2.513-10.416 0.844-1.927 1.499-3.939 2.123-5.945 1.796-5.771 2.72-11.808 3.401-17.798 2.658-23.353 1.218-49.102-5.992-71.553-1.603-4.988-3.495-10.119-6.503-14.451-1.25-1.799-3.16-3.11-5.169-3.921-4.004-1.617-6.976-2.986-10.177-6.076-2.608-2.517-4.75-5.524-7.057-8.308-1.132-1.366-3.1-2.709-2.69-4.846 0.445-2.331 0.632-4.702 0.78-7.066 0.441-7.079-0.762-14.215-2.991-20.916-1.551-4.663-4.306-11.885-8.73-14.445-4.949-2.863-10.824-3.392-16.396-2.796-12.21 1.305-23.336 9.266-32.604 16.737-0.27 0.217-0.447 0.449-0.267 0.783 2.56 4.717 5.261 9.325 7.327 14.291 1.144 2.747 1.949 5.608 2.605 8.505 0.359 1.587 0.554 3.205 0.747 4.817 0.17 1.422-0.419 4.485 0.32 5.387 1.826 2.228 3.599 3.093 4.949 5.881 1.051 2.169 1.8 4.485 2.79 6.684 1.326 2.944 3.693 6.328 7.298 6.281 2.451-0.032 13.524-5.856 14.446-3.659 2.088 4.979-1.964 10.303-0.741 15.445 0.552 2.318 0.463 2.436-1.004 4.526-1.389 1.979-2.518 4.04-3.504 6.245-2.201 4.92-3.258 10.334-4.103 15.624-1.947 12.205-2.002 24.632-3.761 36.865-0.498 3.467-4.756 3.265-7.631 3.915-3.761 0.85-7.533 1.613-11.343 2.215-8.521 1.346-17.235 1.258-25.259-2.204-4.664-2.013-7.774-5.691-11.641-8.77-2.382-1.896-5.107-2.875-8.149-2.019-4.057 1.143-8.401 3.334-11.81 5.82-1.694 1.235-1.766 4.238 0.636 4.437 4.769 0.395 13.169-1.152 13.749 5.568l1.317-0.897c-9.238-0.026-18.32-1.516-27.53-1.938-1.877-0.086-8.141-1.202-9.617 0.344-0.714 0.747-0.904 1.738-1.09 2.714-0.185 0.969-0.205 1.991-0.331 2.97-0.376 2.938-4.752 2.153-6.507 2.095-9.386-0.308-15.919-6.147-22.605-11.958-1.099-0.955-2.23-1.868-3.384-2.754-2.729-2.099-3.17-2.784-3.182-6.395-0.02-5.716-1.198-11.854 0.806-17.367-0.601 0.111-1.201 0.222-1.803 0.333 2.503 4.75 2.004 10.464 5 15 0.508 0.769 2.741 0.397 3.522 0.366 2.963-0.117 4.748-2.34 8.016-2.134 0.464 0.029 1.448-0.253 1.317-0.897-4.806-23.671-9.535-47.365-15.196-70.851-2.762-11.461-5.806-22.855-9.248-34.132-0.602-1.971-1.176-8.57-3.938-8.688-3.406-0.146-6.462 1.66-9.74 2.342-0.351 0.073-0.912 0.411-0.809 0.846 5.725 24.125 9.974 48.54 11.963 73.269 1.141 14.173 1.431 28.402 1.086 42.614-0.136 5.593-5.091 8.058-8.963 11.134-2.908 2.31-4.574 5.156-5.094 8.818 0.442-0.244 0.884-0.487 1.325-0.731-19.018-0.543-37.982 1.583-56.999 1-0.389-0.012-1.325 0.179-1.325 0.731v16c0 0.35 0.286 0.533 0.622 0.545 8.29 0.291 16.579 0.007 24.869-0.124 4.533-0.071 9.063-0.04 13.592 0.163 2.163 0.097 4.317 0.297 6.469 0.531 3.141 0.34 2.566 2.906 2.659 5.448 0.69 18.922 0.896 37.862 0.946 56.795 0.105 38.548-0.57 77.095-0.158 115.64 0.006 0.473 0.474 0.564 0.869 0.542 5.065-0.298 10.765 1.16 15.513-1.138 0.206-0.1 0.563-0.317 0.565-0.592 0.641-59.329-1.36-118.69 1-178-0.442 0.244-0.884 0.487-1.325 0.731h110.1c2.22 0 5.244 0.586 7.384 0.016 0.757-0.202 1.513-0.412 1.99-1.098 1.522-2.184 1.303-3.094 4.54-1.889 5.221 1.944 10.782 2.529 16.217 3.609 2.942 0.585 5.783 1.445 8.433 2.871 1.7 0.915 1.713 2.398 1.713 4.146 0 2.899 0.252 4.285-2.852 5.249-14.679 4.558-29.122 9.868-43.387 15.584-12.336 4.942-25.136 9.758-37.004 15.753-3.577 1.807-6.334 3.92-8.096 7.555-2.568 5.301-1.086 12.289-1.47 17.96-0.912 13.477-7.629 26.696-12.826 38.926-3.738 8.797-7.377 17.636-10.02 26.834-0.853 2.967-3.283 8.961-2.313 12.006 0.642 2.014 2.359 2.41 4.207 3.028 5.642 1.885-3.802 9.513-5.709 10.805-3.229 2.188-6.946 3.677-10.517 5.204-6.146 2.628-12.497 5.27-16.837 10.57-0.358 0.438-0.079 0.822 0.442 0.87 9.229 0.861 18.469 1.585 27.744 1.281 7.153-0.235 15.34-1.074 21.23-5.542-0.504 0.01-1.008 0.02-1.513 0.029 3.712 6.241 10.815 7.302 17.538 7.231 1.669-0.017 2.679-2.309 3.127-3.594 1.614-4.628 0.426-8.969-0.43-13.634-1.955-10.672 4.343-21.287 7.625-31.099 3.685-11.012 5.428-22.465 9.944-33.238 0.4-1-1.54-0.88-1.83-0.18z"/>
<metadata><rdf:RDF><cc:Work><dc:format>image/svg+xml</dc:format><dc:type rdf:resource="http://purl.org/dc/dcmitype/StillImage"/><cc:license rdf:resource="http://creativecommons.org/licenses/publicdomain/"/><dc:publisher><cc:Agent rdf:about="http://openclipart.org/"><dc:title>Openclipart</dc:title></cc:Agent></dc:publisher><dc:title>computer desk</dc:title><dc:date>2013-08-16T15:31:57</dc:date><dc:description/><dc:source>http://openclipart.org/detail/181869/computer-desk-by-presquesage-181869</dc:source><dc:creator><cc:Agent><dc:title>presquesage</dc:title></cc:Agent></dc:creator><dc:subject><rdf:Bag><rdf:li>computer desk</rdf:li><rdf:li>ordinateur de bureau</rdf:li></rdf:Bag></dc:subject></cc:Work><cc:License rdf:about="http://creativecommons.org/licenses/publicdomain/"><cc:permits rdf:resource="http://creativecommons.org/ns#Reproduction"/><cc:permits rdf:resource="http://creativecommons.org/ns#Distribution"/><cc:permits rdf:resource="http://creativecommons.org/ns#DerivativeWorks"/></cc:License></rdf:RDF></metadata></svg>
