<?xml version="1.0"?>
<svg xmlns:rdf="http://www.w3.org/1999/02/22-rdf-syntax-ns#" xmlns="http://www.w3.org/2000/svg" xmlns:cc="http://web.resource.org/cc/" xmlns:dc="http://purl.org/dc/elements/1.1/" xmlns:sodipodi="http://inkscape.sourceforge.net/DTD/sodipodi-0.dtd" xmlns:svg="http://www.w3.org/2000/svg" id="svg1323" space="preserve" sodipodi:version="0.32" viewBox="0 0 127.4833984 121.4946289" sodipodi:docname="Chodsk&#xFD; pes.svg" sodipodi:docbase="M:\Projekty\Aktivn&#xED;\Open Clip Art Library\my.1\Jun&#xE1;k">
  <sodipodi:namedview id="base" bordercolor="#666666" borderopacity="1.0" pagecolor="#ffffff"/>
  <g id="Vrstva_x0020_1" stroke="#000">
    <g id="g1326" clip-rule="evenodd" fill-rule="evenodd">
      <path id="path1328" d="m110.38 0c-20.08-0.14844-28.109 6.4497-32.026 9.0557-23.315 1.1807-23.718 1.5571-24.09 1.7563-3.6577 1.0322-5.4678 3.7183-6.0195 4.5283-29.701 0.79248-29.062 2.6743-29.013 3.5239-6.7881-1.3115-5.6968 5.332-3.2295 5.4805 0.27246 9.0557 7.0605 6.9458 7.6064 11.371v3.5757c-3.1494-1.0493-5.0898-1.46-8.2637-3.5757-19.211-14.741-24.79 6.741 9.25 8.001-2.6719 12.34 26.285 12.033 35.088 11.873-0.17969 13.059-15.597 8.7534-18.393 5.8335-2.3496 2.7661-2.3496 4.8813-0.98584 8.0005-25.386 6.2617-18.009 20.057-16.31 23.244 3.106-7.6475 8.8833-7.0879 11.989-6.8428-12.541 13.225 0.83691 21.042 3.8311 22.787-0.24805-9.1523 3.7754-11.337 4.7612-11.873-2.4302 16.464 10.836 18.962 15.988 19.926-5.8584-18.163 32.459-12.027 17.296 4.8301 18.889-0.10254 27.48-15.751 22.881-21.688 21.214 3.7129 23.186-7.8809 24.034-13.024-24.636 3.5693-15.163-17.713-0.71289-7.1973-6.9795-7.6465-3.7754-28.524-4.2402-34.688-0.56348-7.4766-3.7754-5.4746-2.7393-6.6665 1.2266-3.918 4.252-3.7354 5.2012-6.792 0.41504-27.669 5.2012-26.534 5.2012-26.534-7.5947-1.9048-18.227 2.9766-22.441 4.9043-1.73-6.0348 5.18-10.021 5.34-9.8043zm-50.643 44.27c-9.8506-15.597-29.831-9.8086-28.467-3.5244 13.396-1.9102 18.864-1.3628 28.467 3.5244zm-27.096 0.627c24.351-0.77002 26.372 2.8569 27.37 4.6533-24.822 1.1631-26.737-3.5244-27.37-4.6533z"/>
      <path id="path1330" d="m64.275 21.322c0.074219 0.23926 0.11133 0.49023 0.11133 0.74707 0 1.4995-1.3076 2.7026-2.938 2.7026s-2.9448-1.2031-2.9448-2.7026c0-0.78711 0.36572-1.5 0.94824-1.9902-2.8574-0.98682-3.2852-1.8135-3.5459-1.8423 6.0195-1.8872 14.098 2.1328 13.415 3.895-1.9648-0.25635-3.6328-0.52441-5.0459-0.80957z" fill="#fff"/>
    </g>
  </g>
  <metadata>
    <rdf:RDF>
      <cc:Work>
        <dc:format>image/svg+xml</dc:format>
        <dc:type rdf:resource="http://purl.org/dc/dcmitype/StillImage"/>
        <cc:license rdf:resource="http://creativecommons.org/licenses/publicdomain/"/>
        <dc:publisher>
          <cc:Agent rdf:about="http://openclipart.org/">
            <dc:title>Openclipart</dc:title>
          </cc:Agent>
        </dc:publisher>
        <dc:title>chodovian 39's dog by  01r</dc:title>
        <dc:date>2010-10-12T22:33:15</dc:date>
        <dc:description>Originally uploaded for OCAL 0.18 by Martin Kozak</dc:description>
        <dc:source>http://openclipart.org/detail/90457/chodovian-39-s-dog-by--01r-by-anonymous</dc:source>
        <dc:creator>
          <cc:Agent>
            <dc:title>Anonymous</dc:title>
          </cc:Agent>
        </dc:creator>
        <dc:subject>
          <rdf:Bag>
            <rdf:li>clip art</rdf:li>
            <rdf:li>clipart</rdf:li>
            <rdf:li>fix</rdf:li>
            <rdf:li>keyword</rdf:li>
            <rdf:li>librarian</rdf:li>
            <rdf:li>tag</rdf:li>
          </rdf:Bag>
        </dc:subject>
      </cc:Work>
      <cc:License rdf:about="http://creativecommons.org/licenses/publicdomain/">
        <cc:permits rdf:resource="http://creativecommons.org/ns#Reproduction"/>
        <cc:permits rdf:resource="http://creativecommons.org/ns#Distribution"/>
        <cc:permits rdf:resource="http://creativecommons.org/ns#DerivativeWorks"/>
      </cc:License>
    </rdf:RDF>
  </metadata>
</svg>
