<?xml version="1.0"?>
<svg xmlns:rdf="http://www.w3.org/1999/02/22-rdf-syntax-ns#" xmlns="http://www.w3.org/2000/svg" xmlns:cc="http://creativecommons.org/ns#" xmlns:dc="http://purl.org/dc/elements/1.1/" xmlns:svg="http://www.w3.org/2000/svg" id="Layer_1" xml:space="preserve" viewBox="0 0 595.28 841.89" version="1.1" y="0px" x="0px" enable-background="new 0 0 595.28 841.89">
<path id="path3" fill="#010202" fill-rule="evenodd" clip-rule="evenodd" d="m328.22 95.273c-1.134 9.06-4.65 17.555-4.968 28.286 7.38 4.546 12.769 12.21 19.876 16.836 5.624 3.664 22.924 9.147 29.812 11.479 9.042 3.022 25.309 3.666 29.827 10.68 1.306 2.107 0.625 3.879 1.642 6.157 5.818 12.741 10.126 30.119 14.08 44.347 0.564 5.352 1.129 10.707 1.687 16.042 5.868 22.291 7.54 48.003 13.221 71.889 2.597 10.9 0.042 23.092 2.481 33.632 2.063 8.707-0.634 19.854-0.805 27.578-0.551 23.882-0.991 44.771-0.86 67.295-3.187 1.08-4.417 0.706-4.944 4.562 2.237 2.916 6.75 23.853 4.128 30.626-0.759 1.997-3.915 2.89-4.957 4.563-5.868 9.287-14.915 22.622-28.973 23.703 0.36-5.313 2.96-7.145 4.15-11.461 1.901-7.228-0.538-17.585-2.529-22.201-0.81-0.231-1.621-0.466-2.477-0.748v0.748c-4.788 7.725 0.361 18.83-11.571 19.895-0.184-10.024 0.539-29.007 3.288-37.46 1.132-3.476 3.403-6.708 4.152-10.687h-1.646c-1.539-0.955-4.718-0.834-7.469-0.793-2.141 2.813-2.635 5.228-2.508 10.725-8.974 10.485-6.946 40.716-5.771 59.646 0.25 3.815 2.938 7.854 1.67 12.25-0.679 2.227-3.521 4.859-4.151 6.858 0.27 8.683 0.533 17.325 0.837 26.033 0.044 5.236 3.72 9.736 1.645 15.3-0.452 1.147-2.797 2.104-3.324 3.014-1.545 2.816-0.36 6.986-0.823 9.176-1.635 7.917 3.605 12.581 0.823 20.68-5.595 16.388-9.67 34.34-15.722 51.219-1.394 3.836-4.645 7.75-5.811 11.507-3.638 11.667 2.884 23.916-0.817 34.414-2.529 7.203-8.938 7.331-9.111 17.578 11.231 13.84-3.116 40.876-8.258 52-2.827 5.957-2.529 10.582-11.628 10.716-2.272-1.592-5.888-1.592-9.943-1.547-1.692 3.086-3.254 8.244-4.15 9.918-0.814 0.535-1.635 1.077-2.462 1.622-1.194 3.123 2.684 10.038 0.827 14.461-0.381 0.916-2.973 2.708-3.309 3.83 0.291 1.287 0.517 2.583 0.793 3.831-0.14 0.918-1.313 3.209-1.604 4.582-10.922 6.254-49.431 13.003-50.563-5.323 2.87-2.592 2.934-5.672 4.99-9.214 4.628-7.997 8.639-8.923 5.792-20.621 0.281-4.588 0.573-9.176 0.817-13.751-1.557-4.543-6.366-6.584-7.449-12.259 1.328-1.031 0.951-0.497 1.673-2.328-8.798-5.672-5.531-16.745-9.118-27.496-3.426-10.336-3.836-24.375-6.635-35.962-0.265-6.084-0.536-12.248-0.833-18.332-2.415-9.876-1.669-22.496-4.124-32.914-0.277-5.589-0.564-11.214-0.813-16.837-3.384-10.672-7.805-18.193-10.792-30.573-0.264-11.222-0.535-22.436-0.829-33.623 0.293-1.353 1.542-5.123 0.829-7.665-3.963-14.539-6.397-34.64-10.753-49.706-2.604-8.96 0.158-20.766-2.508-29.854-2.39-8.295-6.11-15.439-9.925-22.146-2.616-4.661-3.024-12.243-9.927-13.038-2.729 1.518-9.07-0.461-13.266-0.727 0.049-29.197-10.558-49.671-16.562-74.217-0.56-10.183-1.127-20.408-1.669-30.574-3.517-15.004-0.361-28.857 3.343-42.834 4.595-17.464 5.185-35.247 9.898-52.002 0.574-4.621 1.11-9.167 1.673-13.768 3.726-13.065 8.257-34.4 15.77-44.358 6.679-8.913 23.459-8.807 34.745-13.788 7.179-3.147 16.035-5.336 23.19-9.148 6.075-3.247 12.844-12.932 18.253-17.625 0.158-14.229-3.45-22.42-4.171-34.394h-6.61c-0.817-1.347-1.036-1.293-1.673-3.058-3.942-4.567-2.371-15.294-0.833-20.648 3.702-1.017 5.327-0.127 5.795-4.601-2.857-4.09-0.469-15.835 0.86-19.105 5.027-12.583 17.87-23.527 34.767-24.478 21.072-1.184 37.005 13.273 40.607 29.06-0.849 6.625-1.669 13.269-2.474 19.935 5.119 1.543 7.509 2.734 8.258 8.397-4.83 6.782-1.59 16.865-14.13 16.805zm46.38 170.54c-10.822 22.434-1.927 69.539 3.296 91.037v9.939c2.325 9.604 3.066 19.687 6.629 27.528 0.835 0.285 1.672 0.517 2.509 0.758v-0.758c0.659-0.901 0.608-1.296 0.805-3.028-3.518-5.516 0.88-16.75-0.805-23.749-0.767-3.059-1.699-8.848-2.509-12.251v-22.125c-3.116-13.289-2.712-28.332-5.773-41.31-1.9-7.939 2.028-19.773-2.484-25.27-0.87-0.61-0.26-0.31-1.68-0.77zm-154.9 8.39c-1.849 5.234-0.722 11.248-2.458 16.876-0.837 2.603-3.525 6.5-4.13 9.146-1.222 5.19 3.455 10.875 1.648 17.623-2.146 7.876-5.212 26.708-1.648 36.708h1.648v-1.544c4.622-6.352 4.399-16.394 6.609-25.244 4.289-17.124 8.756-23.416 2.481-42.059-1.401-4.238-0.09-7.801-2.481-10.676-0.84-0.64-0.23-0.32-1.67-0.84zm76.21 234.85c-1.084 1.438-1.084 0.62-1.642 3.045-7.385 10.12 2.773 25.705 0 36.722-3.869 15.247 0.445 28.944 4.128 43.585-0.271 6.083-0.548 12.24-0.819 18.361 3.091 14.005 0.674 34.467 4.161 50.461h2.434c7.896-12.705 3.789-40.791 8.301-56.582 0.533-1.869 2.611-18.843 2.497-19.153-0.329-0.77-2.949-1.004-3.312-1.48-1.309-1.995 0.385-5.252-0.833-6.933-1.172-1.634-4.4-1.612-5.799-3.028-2.345-2.396-4.968-10.754-5.782-13.809-2.438-8.773 5.872-14.688 7.443-19.875 1.001-3.267-7.166-25.959-8.292-30.563-0.82-0.27-1.66-0.5-2.49-0.75z"/>
<metadata><rdf:RDF><cc:Work><dc:format>image/svg+xml</dc:format><dc:type rdf:resource="http://purl.org/dc/dcmitype/StillImage"/><cc:license rdf:resource="http://creativecommons.org/licenses/publicdomain/"/><dc:publisher><cc:Agent rdf:about="http://openclipart.org/"><dc:title>Openclipart</dc:title></cc:Agent></dc:publisher><dc:title>Il capo architetto</dc:title><dc:date>2010-06-21T15:14:05</dc:date><dc:description>Man, clip art, clipart, ufficio, uomo, </dc:description><dc:source>http://openclipart.org/detail/68059/il-capo-architetto-by-emilie.rollandin</dc:source><dc:creator><cc:Agent><dc:title>emilie.rollandin</dc:title></cc:Agent></dc:creator><dc:subject><rdf:Bag><rdf:li>Man</rdf:li><rdf:li>clip art</rdf:li><rdf:li>clipart</rdf:li><rdf:li>ufficio</rdf:li><rdf:li>uomo</rdf:li></rdf:Bag></dc:subject></cc:Work><cc:License rdf:about="http://creativecommons.org/licenses/publicdomain/"><cc:permits rdf:resource="http://creativecommons.org/ns#Reproduction"/><cc:permits rdf:resource="http://creativecommons.org/ns#Distribution"/><cc:permits rdf:resource="http://creativecommons.org/ns#DerivativeWorks"/></cc:License></rdf:RDF></metadata></svg>
