<?xml version="1.0"?>
<svg xmlns:rdf="http://www.w3.org/1999/02/22-rdf-syntax-ns#" xmlns="http://www.w3.org/2000/svg" xmlns:cc="http://web.resource.org/cc/" xmlns:dc="http://purl.org/dc/elements/1.1/" xmlns:svg="http://www.w3.org/2000/svg" id="Layer_1" style="enable-background:new 0 0 265.004 204.256" xml:space="preserve" viewBox="0 0 265.004 204.256" version="1.1">
<g id="g3">
	<path id="path5" fill-rule="evenodd" clip-rule="evenodd" d="m205.67 63.899c-0.473-2.854-0.772-5.422-1.862-8.155-1.031-2.586-3.118-4.947-5.181-6.76-4.307-3.786-10.227-6.001-15.71-7.378-11.511-2.89-24.467-2.635-35.972 0.083-5.806 1.372-11.787 2.864-17.104 5.634-5.309 2.766-10.282 5.965-14.843 9.842-9.033 7.679-17.371 16.386-24.481 25.909-7.189 9.629-5.707 22.303 2 31.005 3.664 4.136 9.271 7.172 14.44 8.906 5.686 1.907 11.254 1.917 17.137 2.413 12.008 1.014 23.843 3.909 35.884 4.542 11.15 0.586 24.575 1.27 33.486-6.689 8.188-7.313 12.771-16.689 13.759-27.612 0.454-5.036 1.13-10.409 0.503-15.452-0.68-5.407-2.07-10.823-2.07-16.287"/>
	<path id="path7" d="m205.14 63.899c-0.718-4.305-1.438-7.89-4.125-11.497-2.583-3.468-6.512-5.709-10.354-7.464-4.04-1.845-8.121-3.083-12.528-3.766-2.039-0.315-4.084-0.47-6.141-0.629-1.369-0.106-6.262 0.312-5.7-1.509 9.257 0.713 17.7 1.547 26.238 5.445 3.942 1.8 7.071 4.569 9.682 7.922 2.761 3.546 3.272 7.162 3.99 11.497-0.33 0.001-0.76 0.09-1.07 0.001"/>
	<path id="path9" d="m166.29 40.104c-6.078 0.321-12.069 0.498-18.025 1.827-5.986 1.336-11.98 3.03-17.536 5.633-10.228 4.793-20.032 12.693-27.385 21.222-0.747 0.866-1.494 1.732-2.24 2.599-1.595-0.917 0.315-2.095 1.103-3.007 0.948-1.1 1.895-2.145 2.918-3.173 2.016-2.025 4.198-3.809 6.291-5.75 4.226-3.919 9.134-7.83 14.234-10.564 10.848-5.816 22.728-8.91 34.989-9.557 1.884-0.1 3.768-0.199 5.651-0.298 0.01 0.329 0.1 0.753 0.01 1.068"/>
	<path id="path11" d="m166.29 39.035v1.069-1.069"/>
	<path id="path13" d="m101.11 71.385c-3.576 4.131-7.092 8.235-10.486 12.501-1.523 1.916-2.681 4.528-3.351 6.882-0.338 1.187-0.513 2.386-0.665 3.61-0.141 1.13 0.206 3.73-1.463 3.208 0.601-5.432 1.636-10.22 4.71-14.854 2.91-4.386 6.932-8.272 10.454-12.149 0.23 0.237 0.64 0.508 0.8 0.802"/>
	<path id="path15" d="m100.31 70.583c0.267 0.267 0.533 0.535 0.8 0.802-0.27-0.267-0.54-0.535-0.8-0.802"/>
	<path id="path17" d="m86.207 97.586c0.66 3.979 0.878 7.988 3.193 11.497 2.154 3.266 4.729 6.313 7.982 8.555 7.346 5.064 15.526 6.547 24.212 7.219 0.1 1.643-1.551 0.962-2.631 0.872-1.206-0.101-2.412-0.203-3.618-0.305-2.263-0.191-4.458-0.717-6.652-1.269-4.284-1.077-8.356-3.266-11.934-5.781-3.325-2.337-7.142-5.539-8.691-9.426-0.804-2.019-1.518-3.908-2.207-5.985-0.366-1.11-1.674-5.987 0.349-5.374"/>
	<path id="path19" d="m85.143 97.586h1.063-1.063"/>
	<path id="path21" d="m121.6 124.86c11.973 0 24.015 3.106 35.919 4.304 5.746 0.578 11.679 0.868 17.426 0.227 2.876-0.321 5.735-0.564 8.521-1.362 1.3-0.373 2.537-0.771 3.751-1.38 0.642-0.323 1.285-0.632 1.899-1.002 0.093-0.056 0.734-0.545 0.862-0.519 0.227 0.047 0.59 0.756 0.395 0.912-4.433 3.566-10.658 3.892-16.035 4.488-5.835 0.647-11.93 0.239-17.755-0.377-6.009-0.637-12.004-1.268-17.988-2.103-5.69-0.793-11.525-2.12-17.262-2.12 0.08-0.34 0.1-0.78 0.27-1.07"/>
	<path id="path23" d="m121.6 124.86c-0.089 0.356-0.178 0.712-0.268 1.068 0.09-0.36 0.17-0.72 0.27-1.07"/>
	<path id="path25" d="m189.97 125.12c4.443-3.569 8.524-6.911 11.331-11.99 2.949-5.338 4.794-10.939 5.348-17.024 0.25-2.748 0.616-5.531 0.616-8.29v-5.149c0-0.022 1.066-0.318 1.066 0.163v2.988c0 6.003-0.729 11.911-1.798 17.809-0.399 2.202-1.702 4.486-2.532 6.564-1.016 2.549-2.179 4.658-3.856 6.825-1.385 1.789-2.815 3.116-4.387 4.694-0.8 0.81-5.11 5.54-5.79 3.41"/>
	<path id="path27" d="m190.51 125.92c-0.178-0.267-0.355-0.534-0.533-0.801 0.17 0.27 0.35 0.54 0.53 0.8"/>
	<path id="path29" d="m207.27 82.614c0-3.138-0.642-6.252-1.104-9.35-0.259-1.737-0.58-3.476-0.772-5.221-0.132-1.195-0.967-4.144 0.536-4.144 0.182 0 1.221 8.556 1.34 9.357 0.263 1.76 0.525 3.52 0.789 5.279 0.16 1.135 1.06 4.196-0.8 4.079"/>
	<path id="path31" d="m208.33 82.614c-0.129-0.387-0.604-0.244-1.066 0 0.36 0 0.72 0.018 1.07 0"/>
	<path id="path33" d="m205.14 63.899h1.063-1.06"/>
	<path id="path35" fill-rule="evenodd" clip-rule="evenodd" d="m87.004 89.03c-4.026 4.046-7.859 8.591-13.944 9.1-2.687 0.225-6.383 0.935-8.967 0.07-2.809-0.94-5.539-1.988-8.218-3.288-2.698-1.309-5.246-2.803-8.041-3.927-3.174-1.277-4.558-0.12-5.726 2.814-2.139 5.374-3.61 10.948-5.657 16.352-2.068 5.459-5.192 10.179-9.579 14.036-4.361 3.836-10.098 5.656-14.634 9.224-2.24 1.762-3.459 4.396-3.459 7.189 0 1.695 0.153 2.562 1.221 3.9 0.391 0.489 0.656 1.173 0.909 1.744 0.058 0.131 0.557 1.893 0.532 1.871 0.673 0.58 2.719 0.435 3.625 0.888 1.309 0.654 2.438 1.006 3.825 1.251 2.512 0.443 5.506-0.146 7.615-1.73 3.415-2.567 6.103-6.146 6.22-10.566 0.06-2.256-0.114-3.327-1.729-4.947-1.32-1.325-3.562-2.36-5.19-3.342 10.813-4.344 11.972-18.178 19.565-25.808 1.825-1.834 4.327-3.066 6.984-3.066 1.377 0 2.702-0.063 4.049 0.267 1.432 0.351 2.704 1.186 4.125 1.47 5.532 1.109 11.469 0.02 16.688-1.854 6.579-2.361 12.679-5.945 18.831-9.241-3.014-0.795-6.029-1.597-9.045-2.399"/>
	<path id="path37" d="m87.271 89.565c-2.979 2.836-5.853 6.147-9.578 8.021-1.569 0.789-3.706 0.995-5.449 1.154-1.079 0.099-2.12 0.183-3.201 0.183-1.204 0-2.792 0.588-2.792-0.792 0-0.356 5.175-0.398 6.091-0.475 1.853-0.155 3.868-0.554 5.489-1.485 1.674-0.962 3.057-2.09 4.453-3.419 1.007-0.96 3.873-5.054 4.987-3.187"/>
	<path id="path39" d="m66.251 98.923c-4.301 0-8.892-2.529-12.606-4.539-2.035-1.101-8.818-5.65-10.274-2.146-2.646-0.583 1.439-3.002 3.134-2.322 2.188 0.877 4.395 1.624 6.479 2.752 2.316 1.253 4.705 2.218 7.049 3.397 1.179 0.592 2.338 1.022 3.588 1.441 1.066 0.358 3.098-0.128 2.63 1.417"/>
	<path id="path41" d="m66.251 98.923v-1.07 1.07"/>
	<path id="path43" d="m43.37 92.238c-1.222 3.066-2.414 6.11-3.567 9.201-1.111 2.978-1.628 6.185-2.878 9.118-1.355 3.178-2.908 6.125-4.732 9.062-0.772 1.242-2.102 2.27-3.134 3.309-0.875 0.881-2.598 3.383-3.516 1.661 4.625-4.067 8.435-8.846 10.404-14.784 2.022-6.1 3.984-12.135 6.358-18.101 0.319 0.155 0.805 0.289 1.065 0.529"/>
	<path id="path45" d="m43.37 92.238c-0.355-0.178-0.71-0.356-1.065-0.535 0.355 0.179 0.71 0.357 1.065 0.535"/>
	<path id="path47" d="m26.34 125.39c-3.392 2.729-7.625 4.186-11.174 6.686-1.766 1.244-3.369 2.556-4.656 4.278-0.675 0.904-0.94 1.905-1.157 2.999-0.255 1.286 0.447 2.138-1.371 1.813 0.34-2.054 0.42-4.434 1.972-5.992 1.446-1.452 2.746-2.895 4.505-3.955 2.06-1.242 4.145-2.414 6.254-3.57 1.132-0.62 2.255-1.239 3.36-1.905 0.898-0.54 1.508-1.78 2.267-0.35"/>
	<path id="path49" d="m26.34 125.39c-0.266-0.267-0.532-0.534-0.798-0.801 0.267 0.27 0.532 0.53 0.798 0.8"/>
	<path id="path51" d="m9.312 141.16c-0.184 1.41 0.6 2.507 1.342 3.625 0.258 0.389 2.179 3.326 1.043 3.326-1.415 0-3.286-5.355-3.715-6.951 0.415 0 0.926-0.08 1.33 0"/>
	<path id="path53" d="m7.982 141.16h1.33-1.33"/>
	<path id="path55" d="m11.708 147.58c1.588 0.317 3.057 0.66 4.523 1.338 0.492 0.228 1.378 0.801 1.872 0.801 1.082 0 2.119-0.162 2.119 1.059 0 0.894-7.821-1.935-8.78-2.131 0.081-0.33 0.097-0.78 0.266-1.07"/>
	<path id="path57" d="m10.91 148.12c0.048 1.153 0.81 0.247 0.798-0.533 0.088 0.178 0.177 0.355 0.266 0.533-0.34 0-0.735 0.07-1.064 0"/>
	<path id="path59" d="m20.222 149.99c1.772-0.354 3.823-0.336 5.321-1.469 1.49-1.127 2.535-2.148 3.866-3.484 1.154-1.158 1.9-2.892 2.213-4.463 0.179-0.899 0.413-1.717 0.573-2.613 0.05-0.279-0.18-1.146 0-1.338 0.61-0.652 1.064 0.228 1.064 0.669 0 4.006-1.827 6.677-4.125 9.759-1.01 1.355-2.707 2.319-4.257 2.94-0.944 0.37-5.339 2.3-4.655-0.01"/>
	<path id="path61" d="m20.222 151.06v-1.07 1.07"/>
	<path id="path63" d="m32.195 136.62c0.314-1.947-1.183-2.76-2.462-3.726-0.983-0.742-1.78-1.349-2.917-1.806-1.2-0.483-1.504-1.039-0.476-1.955 1.627 1.227 3.444 2.128 5.057 3.342 0.855 0.66 3.324 4.91 0.798 4.16"/>
	<path id="path65" d="m33.259 136.62h-1.064 1.064"/>
	<path id="path67" d="m25.542 129.13c11.286-4.536 10.989-18.986 19.689-25.934 2.018-1.611 4.411-2.94 7.126-2.94 0.373 0 2.1 0.145 1.122 1.069-0.16 0.151-1.641 0.063-1.995 0.134-1.208 0.243-3.072 0.415-3.982 1.328-0.833 0.835-1.819 1.292-2.661 2.139-0.991 0.997-1.639 2.356-2.463 3.515-1.62 2.277-2.807 5.064-4.051 7.563-1.608 3.23-3.344 6.089-5.477 8.95-0.887 1.189-2.024 2.331-3.218 3.231-1.054 0.8-3.576 3.08-4.09 0.95"/>
	<path id="path69" d="m25.542 130.2c-0.282-0.105-0.546-0.364-0.798-0.533 0.166-0.195 0.557-0.445 0.798-0.535 0.125 0.367 0.44 0.692 0.532 1.068 0.114-0.328 0.236-0.724 0.266-1.068-0.263 0.35-0.561 0.69-0.798 1.06"/>
	<path id="path71" d="m53.48 100.26c1.963 0 3.973 0.259 5.753 1.152 1.004 0.503 1.985 0.724 3.085 0.945 1.182 0.237 1.882-0.303 1.54 1.378-1.861-0.375-3.77-0.556-5.489-1.42-0.945-0.475-1.86-0.645-2.894-0.853-0.993-0.21-2.444 0.31-1.995-1.21"/>
	<path id="path73" d="m53.48 100.26v1.069-1.07"/>
	<path id="path75" d="m63.858 102.4c5.915 0 11.036-1.323 16.496-3.476 5.362-2.114 10.353-5.3 15.431-8.021 1.36 1.524-1.432 2.122-2.559 2.726-1.33 0.713-2.66 1.426-3.991 2.139-2.657 1.424-5.379 2.734-8.074 4.087-5.45 2.737-11.394 3.22-17.304 3.882 0.001-0.44-0.063-0.92 0.001-1.34"/>
	<path id="path77" d="m63.858 103.74v-1.337 1.34"/>
	<path id="path79" d="m96.051 91.972c1.033-1.681-2.248-1.719-3.324-1.997-1.908-0.493-3.815-0.986-5.722-1.479-1.033 1.68 2.249 1.719 3.324 1.997 1.907 0.493 3.815 0.986 5.722 1.479"/>
	<path id="path81" d="m96.316 91.972c0.444-0.178 0.888-0.357 1.332-0.535-0.444-0.178-0.888-0.356-1.332-0.535-0.051 0.349-0.276 0.72-0.266 1.07-0.104-0.344-0.214-0.714-0.266-1.07 0.177 0.355 0.371 0.707 0.532 1.07"/>
	<path id="path83" d="m87.004 88.496c-0.784 0.178-0.353 0.72 0.266 1.069h-0.532c0.085-0.338 0.109-0.761 0.266-1.069"/>
	<path id="path85" fill-rule="evenodd" clip-rule="evenodd" d="m141.55 115.5c-2.275 5.716-5.325 9.927-10.776 12.967-5.199 2.899-10.698 5.102-15.964 7.886-4.931 2.607-10.278 5.447-13.17 10.429-2.883 4.967-3.497 10.898-4.603 16.437-0.534 2.678-0.782 6.465-2.128 8.833-1.382 2.431-2.816 4.643-4.789 6.626-4 4.019-8.803 7.527-10.23 13.278-0.605 2.438-0.625 5.543 0.069 7.979 0.151 0.531 0.639 3.526 0.831 3.526h5.865c1.306 0 2.72 0.224 3.943-0.267 1.404-0.563 2.701-1.347 4.021-2.082 2.425-1.353 4.23-2.775 5.69-5.136 1.533-2.478 2.129-5.028 2.129-7.962 0-2.921-3.002-3.954-4.124-6.21-0.559-1.124-1.462-2.237-1.462-3.534v-4.545c0-3.001 0.838-5.986 1.556-8.874 1.339-5.38 4.278-10.682 8.553-14.326 1.968-1.678 4.395-3.378 6.917-4.012 2.823-0.709 5.578-0.199 8.407-0.555 7.707-0.97 14.851-5.547 19.687-11.605 2.43-3.043 3.539-6.078 4.08-9.893 0.57-4.13-1.77-6.24-4.51-8.99"/>
	<path id="path87" d="m142.08 115.76c-2.772 6.952-7.493 12.167-14.43 15.268-6.807 3.043-14.257 5.79-20.16 10.4-0.284-0.296-0.595-0.713-0.798-1.07 3.268-1.969 6.536-3.85 9.909-5.634 3.23-1.709 6.794-2.891 10.08-4.542 6.75-3.392 11.516-7.871 14.333-14.955 0.33 0.15 0.81 0.28 1.07 0.52"/>
	<path id="path89" d="m107.49 141.43c-4.213 3.532-6.51 7.122-8.022 12.438-1.496 5.258-2.168 10.83-3.419 16.17-1.959 0.086-0.445-2.756-0.166-3.878 0.378-1.524 0.618-3.084 0.907-4.628 0.502-2.684 0.911-5.451 1.655-8.07 0.769-2.704 1.626-5.392 3.193-7.753 0.78-1.18 4.78-6.31 5.85-4.28"/>
	<path id="path91" d="m106.69 140.36c0.085 0.421 0.395 0.814 0.798 1.07-0.26-0.35-0.52-0.72-0.8-1.07"/>
	<path id="path93" d="m96.051 170.04c-1.269 5.1-5.47 9.387-9.312 12.834-1.989 1.785-3.853 3.466-5.07 5.912-0.589 1.183-1.062 2.438-1.384 3.723-0.364 1.45 0.478 2.979-1.528 2.664 0.303-2.438 0.755-5.383 2.129-7.486 1.449-2.217 3.452-4.005 5.287-5.849 1.858-1.866 3.583-3.871 5.434-5.729 1.059-1.062 1.58-2.235 2.316-3.53 0.578-1 0.65-3.41 2.128-2.52"/>
	<path id="path95" d="m96.051 170.04c-0.354-0.089-0.709-0.177-1.064-0.266 0.354 0.09 0.709 0.18 1.064 0.27"/>
	<path id="path97" d="m80.086 195.17c0 1.37-0.072 2.813 0.308 4.148 0.316 1.114 1.677 4.255-0.308 4.139-0.191-1.539-0.651-2.979-0.867-4.496-0.116-0.818-0.228-1.636-0.33-2.455-0.159-1.27-0.058-1.08 1.197-1.33"/>
	<path id="path99" d="m78.756 195.17c0.172 0.465 0.773 0.111 1.33 0-0.442 0-0.887-0.01-1.33 0"/>
	<path id="path101" d="m80.62 202.93h5.49c0.243 0 5.313-0.348 3.822 1.066-0.623 0.591-4.628 0-5.49 0-1.079-0.01-4.413 0.78-3.822-1.07"/>
	<path id="path103" d="m80.086 203.46c0.324 0.994 0.797 0.354 0.534-0.533 0.177 0.089 0.354 0.177 0.532 0.266-0.348 0.08-0.71 0.22-1.066 0.26"/>
	<path id="path105" d="m89.666 202.93c6.699-2.706 12.239-6.913 12.239-14.705 3.205-0.18-1.378 8.436-2.263 9.623-2.322 3.115-6.198 4.739-9.71 6.148-0.077-0.33-0.27-0.73-0.261-1.06"/>
	<path id="path107" d="m89.932 203.99c-0.16-0.304-0.182-0.73-0.266-1.066h0.266c0 0.36 0.005 0.72 0 1.07"/>
	<path id="path109" d="m101.9 188.49c0.255-2.146-1.973-4.388-3.351-5.772-0.797-0.801-3.889-5.076-1.172-4.923 0 2.48 1.576 3.456 3.034 5.285 0.63 0.78 4.37 5.58 1.49 5.41"/>
	<path id="path111" d="m102.97 188.49c-0.129-0.385-0.603-0.243-1.064 0v-0.266c0.33 0.09 0.76 0.11 1.06 0.27"/>
	<path id="path113" d="m96.316 178.06c0-6.116 0.734-11.764 2.883-17.528 2.125-5.699 6.495-9.373 10.954-13.22 0.281 0.281 0.611 0.72 0.798 1.07-4.775 3.432-8.367 7.215-10.703 12.703-1.177 2.766-2.096 5.963-2.467 8.954-0.194 1.564-0.399 3.089-0.399 4.666-0.002 1.15 0.691 3.9-1.068 3.36"/>
	<path id="path115" d="m96.316 178.06c0.355 0.005 0.71 0 1.066 0v-0.27c-0.335 0.09-0.762 0.11-1.066 0.27"/>
	<path id="path117" d="m110.42 147.31c2.985-1.495 5.854-1.871 9.179-1.871 2.921 0 6.592-0.054 9.179-1.604 0.202 0.251 0.449 0.76 0.532 1.07-3.129 1.255-6.076 1.604-9.445 1.604-3.378 0-5.889 0.492-8.913 1.871-0.17-0.33-0.43-0.7-0.53-1.07"/>
	<path id="path119" d="m110.15 147.31c0.402 0.128 0.69 0.566 0.798 1.07-0.26-0.35-0.54-0.7-0.8-1.07"/>
	<path id="path121" d="m128.78 143.84c4.216-2.473 8.987-5.076 12.083-8.963 1.712-2.148 2.661-4.096 3.866-6.514 0.535-1.073 0.576-2.374 0.743-3.556 0.148-1.042-0.135-2.843 1.401-2.356-0.633 5.097-1.806 9.435-5.322 13.369-3.438 3.847-8.002 6.251-12.24 9.09-0.16-0.33-0.46-0.72-0.53-1.07"/>
	<path id="path123" d="m129.31 144.91c-0.177-0.356-0.354-0.714-0.532-1.07 0.18 0.36 0.35 0.71 0.53 1.07"/>
	<path id="path125" d="m145.8 122.45c-0.309-1.433-0.863-2.741-1.912-3.795-0.844-0.847-3.569-2.756-1.811-3.691 2.08 2.508 4.135 4.191 4.789 7.486-0.33-0.01-0.75 0.08-1.07-0.01"/>
	<path id="path127" d="m146.87 122.45h-1.066 1.07"/>
	<path id="path129" d="m142.08 114.96c-0.123-0.202-0.365-0.366-0.533-0.535-0.189 0.162-0.455 0.565-0.533 0.803 0.355 0.143 0.696 0.442 1.066 0.533-0.246 0.042-0.552 0.025-0.801 0 0.25-0.24 0.5-0.58 0.79-0.79"/>
	<path id="path131" fill-rule="evenodd" clip-rule="evenodd" d="m204.61 78.603c5.775-0.829 11.244-2.76 15.897-6.395 4.508-3.521 8.796-7.75 13.946-10.337 4.979-2.5 10.609-5.078 16.186-3.32 1.267 0.399 2.395-0.028 2.395 1.44v6.34c0 2.625-0.414 5.243-1.081 7.792-2.979 11.376-7.146 22.324-10.358 33.622 2.803-4.695 5.878-10.037 10.907-12.565 2.039-1.025 5.49-2.044 7.716-1.069 0.551 0.241 1.108 0.834 1.598 1.203 0.249 0.188 1.544 0.602 1.596 0.669 0.461 0.602 1.064 3.367 1.064 4.144 0 6.16-2.563 10.451-7.451 14.035-3.757 2.755-11.09 5.767-15.488 2.813-2.893-1.942-3.831-6.809-4.432-10.025-0.714-3.822-0.747-8.107 0.193-11.878 1.97-7.903 3.822-16.125 4.828-24.22-3.24 1.626-6.133 3.697-9.117 5.75-2.363 1.625-5.475 3.706-8.311 4.276-3.103 0.624-6.682 0.134-9.855 0.134-3.61 0.008-7.06-0.794-10.25-2.399"/>
	<path id="path133" d="m204.61 78.068c6.26-0.896 11.209-3.395 16.339-7 4.597-3.23 8.688-7.443 13.727-9.976 2.631-1.323 5.005-2.258 7.85-3.075 1.33-0.382 2.577-0.535 3.958-0.535 0.398 0 1.785-0.234 2.027 0 1.183 1.145-1.354 1.07-1.668 1.07-5.622 0-10.801 2.986-15.359 5.882-4.621 2.936-8.761 6.75-13.258 9.914-2.036 1.433-4.65 2.819-7.065 3.481-1.253 0.344-2.507 0.684-3.756 1.042-1.61 0.462-2.43 1.042-2.79-0.803"/>
	<path id="path135" d="m248.51 57.481c1.271-0.132 4.935 0.639 4.523 2.14-1.468-0.296-3.323-1.289-4.789-1.07 0.09-0.338 0.11-0.762 0.27-1.07"/>
	<path id="path137" d="m248.51 57.481c-0.16 0.305-0.182 0.733-0.266 1.07h0.266v-1.07"/>
	<path id="path139" d="m252.5 59.086c1.825-0.579 1.064 2.535 1.064 3.607 0 0.777 0.57 5.258 0 5.75-1.541 1.327-1.064-3.233-1.064-3.607v-5.75"/>
	<path id="path141" d="m253.03 58.551c1.108 0.093 0.319 0.787-0.531 0.535 0.138 0.187 0.346 0.396 0.531 0.535 0-0.346 0.06-0.73 0-1.07"/>
	<path id="path143" d="m253.56 68.443c-1.283 6.771-2.949 13.484-5.057 20.053-1.042 3.247-2.306 6.422-3.38 9.658-0.53 1.597-1.094 3.187-1.575 4.8-0.363 1.216-0.726 5.55-2.492 4.523 3.915-13.118 8.882-25.811 11.439-39.301 0.33 0.089 0.79 0.102 1.07 0.274"/>
	<path id="path145" d="m253.56 68.443c-0.303-0.16-0.729-0.183-1.064-0.267v0.267c0.36 0 0.71 0.005 1.06 0"/>
	<path id="path147" d="m241.06 107.21c3.984-6.677 9.173-13.903 17.66-13.903 0.252 0 0.32 0.932 0.166 1.069-0.225 0.2-1.274-0.033-1.598 0-0.876 0.089-2.054 0.291-2.868 0.618-1.986 0.798-3.515 1.988-5.215 3.267-3.079 2.315-5.18 6.634-7.349 9.75-0.23-0.24-0.62-0.5-0.79-0.8"/>
	<path id="path149" d="m241.06 107.48c0.257 0.189 0.532 0.357 0.797 0.535-0.283-0.246-0.522-0.546-0.797-0.802 0.357 0.16 0.723 0.34 1.063 0.534-0.35-0.09-0.71-0.17-1.06-0.27"/>
	<path id="path151" d="m258.89 93.308c1.983-0.238 2.838 2.13 4.521 2.139 0.04 2.574-3.433-1.295-4.789-1.07 0.08-0.332 0.1-0.773 0.27-1.069"/>
	<path id="path153" d="m258.89 93.308c-0.161 0.305-0.184 0.733-0.268 1.069h0.268v-1.069"/>
	<path id="path155" d="m263.94 95.982c0.306 1.23 2.149 4.848 0 4.813 0.23-1.247-2.26-4.921 0-4.818"/>
	<path id="path157" d="m263.41 95.447c0.935 0.449 0.335 0.826-0.531 0.802 0.089 0.089 0.177 0.178 0.266 0.267 0.08-0.34 0.25-0.72 0.26-1.069"/>
	<path id="path159" d="m265 100.79c0 5.319-2.447 9.882-6.585 13.208-2.034 1.636-4.333 2.913-6.851 3.634-1.222 0.35-2.469 0.489-3.726 0.669-1.104 0.157-3.166 1.071-3.06-0.668 4.747-0.597 9.613-1.481 13.305-4.813 3.595-3.244 5.854-7.417 5.854-12.299 0.34 0.09 0.78 0.11 1.07 0.27"/>
	<path id="path161" d="m265 100.53c-0.127 0.39-0.602 0.245-1.063 0v0.268c0.34-0.09 0.76-0.11 1.06-0.27"/>
	<path id="path163" d="m244.78 118.71c-3.099-0.683-4.909-1.969-6.178-4.951-0.616-1.447-3.764-8.789-1.271-8.685 0.5 2.845 0.928 5.895 2.129 8.555 0.438 0.97 1.484 2.353 2.395 2.94 1.05 0.67 3.81 0.5 2.92 2.13"/>
	<path id="path165" d="m245.05 118.71c-0.384-0.131-0.243-0.607 0-1.07h-0.266c0.09 0.34 0.11 0.76 0.27 1.07"/>
	<path id="path167" d="m236.27 105.34c0-2.78-0.31-5.507 0-8.288 0.329-2.957 1.167-5.935 1.863-8.823 1.389-5.759 2.729-11.494 3.459-17.378 1.784-0.106 0.742 2.577 0.601 3.723-0.2 1.612-0.535 3.211-0.815 4.811-0.53 3.022-1.464 6.046-2.164 9.036-0.683 2.917-1.561 5.915-1.879 8.898-0.121 1.137-0.401 3.057-0.246 4.149 0.15 1.09 1.08 4.45-0.82 3.87"/>
	<path id="path169" d="m236.27 105.34c0.354 0.005 0.71 0 1.064 0v-0.267c-0.33 0.09-0.76 0.11-1.06 0.27"/>
	<path id="path171" d="m242.39 71.385c-3.36 1.687-6.196 4.004-9.401 5.937-1.3 0.783-10.076 6.271-10.022 3.153 3.56 0.308 6.949-2.609 9.771-4.4 1.639-1.04 3.405-1.987 4.955-3.155 0.81-0.62 4.12-3.535 4.69-1.535"/>
	<path id="path173" d="m242.66 71.117c0.069-0.333 0-0.727 0-1.069-0.822 0.268-0.923 0.773-0.268 1.337-0.271-0.155-0.554-0.339-0.797-0.535 0.36 0.088 0.72 0.154 1.07 0.267"/>
	<path id="path175" d="m223.23 81.543c-6.312 0.354-13.115 0.5-18.891-2.405 0.398-1.386 3.262 0.218 4.366 0.495 1.623 0.408 3.271 0.746 4.946 0.841 1.608 0.091 3.259 0 4.87 0 1.21 0.001 5.27-0.85 4.7 1.069"/>
	<path id="path177" d="m223.23 81.543c0.005-0.356 0-0.712 0-1.069h-0.268c0.09 0.337 0.11 0.765 0.27 1.069"/>
	<path id="path179" d="m204.34 79.138c-0.532-0.268-1.065-0.535-1.598-0.802 1.626-0.234 1.798-0.596 2.129 1.069 0.044-0.343 0.016-0.723 0-1.069-0.17 0.263-0.39 0.52-0.53 0.802"/>
	<path id="path181" fill-rule="evenodd" clip-rule="evenodd" d="m193.7 49.193c4.742-3.813 8.544-8.366 12.26-13.166 3.098-4 5.957-10.03 10.622-12.367 1.209-0.606 1.677 0.555 2.46 0.971 1.484 0.79 2.984 1.557 4.457 2.371 2.598 1.435 4.922 3.061 7.343 4.763 5.033 3.54 9.232 7.879 13.555 12.227 0.218 0.219 0.436 0.438 0.653 0.657 3.964-3.984 7.738-8.437 13.703-9.104 1.717-0.192 2.237-0.509 3.326 0.548 1.119 1.086 1.33 2.451 1.33 4.069 0 1.577-0.161 1.979-1.196 3.016-0.792 0.794-1.118 2.914-1.648 3.978-2.566 5.15-9.614 5.965-14.489 4.129-5.538-2.086-9.729-6.953-14.122-10.736-3.754-3.234-7.017-5.413-12.021-6.04-5.17-0.647-8.203 3.951-10.677 7.683-2.313 3.49-4.274 8.356-7.839 10.745-0.947 0.636-4.79 3.351-4.79 0.525 0-2.508-0.59-3.484-2.92-4.269"/>
	<path id="path183" d="m193.43 48.926c4.991-4.454 9.481-9.489 13.332-14.968 2.136-3.039 4.423-5.85 6.792-8.708 0.857-1.035 2.177-2.198 3.558-2.258 1.108-0.048 3.302 1.205 1.596 2.139-0.844-0.849-1.04-1.162-2.127-0.802-1.375 0.455-2.374 1.849-3.362 2.842-2.376 2.387-4.251 5.588-6.177 8.33-3.688 5.249-8.084 10.212-13.078 14.228-0.16-0.249-0.44-0.521-0.53-0.803"/>
	<path id="path185" d="m219.24 24.063c4.695 2.775 10.324 5.177 14.405 8.825 2.177 1.946 4.202 4.036 6.35 6.013 0.992 0.913 1.957 1.833 2.908 2.788 0.859 0.864 3.315 2.237 1.614 3.228-3.923-3.94-7.913-7.961-12.251-11.452-2.282-1.835-4.632-3.398-7.172-4.857-1.206-0.692-2.415-1.363-3.643-2.017-1.11-0.591-3.52-1.053-2.21-2.528"/>
	<path id="path187" d="m218.71 25.131c0.104-0.364 0.362-0.729 0.531-1.069 0.32 0.409-0.01 0.775-0.53 1.069"/>
	<path id="path189" d="m244.52 44.114c2.305-2.15 4.83-5.182 7.587-6.763 1.287-0.738 9.349-4.291 9.175-1.525-3.199 0.321-6.638 0.88-9.193 3.021-1.175 0.984-2.365 1.958-3.486 3.004-0.93 0.872-3.06 4.079-4.08 2.263"/>
	<path id="path191" d="m244.52 44.916c0.123 0.202 0.363 0.366 0.531 0.535 0.393-0.559 0.049-0.999-0.531-1.337 0.237-0.04 0.562-0.04 0.799 0-0.26 0.257-0.51 0.593-0.8 0.802"/>
	<path id="path193" d="m261.28 34.756c1.661 0.795 2.662 2.634 2.662 4.575 0 1.052 0.17 2.196-0.268 3.179-0.45 1.01-1.417 1.764-2.129 0.534 2.325-0.783 1.681-6.606-0.531-7.218 0.09-0.337 0.11-0.765 0.27-1.07"/>
	<path id="path195" d="m261.01 34.756c0.384 0.13 0.243 0.607 0 1.07h0.266c-0.08-0.337-0.11-0.765-0.27-1.07"/>
	<path id="path197" d="m262.61 43.579c-0.755 2.272-1.729 5.348-3.843 6.763-1.11 0.744-7.762 4.084-7.599 1.258 2.302 0.083 5.958-0.69 7.312-2.732 0.671-1.013 1.438-1.756 1.999-2.882 0.51-1.02 0.69-3.283 2.13-2.407"/>
	<path id="path199" d="m261.54 43.044c0.11 0.391 0.562 0.549 1.066 0.535-0.089 0.089-0.177 0.179-0.266 0.268-0.23-0.242-0.63-0.508-0.8-0.803"/>
	<path id="path201" d="m251.44 52.669c-6.902 0-11.425-4.083-16.23-8.555-4.689-4.364-9.129-8.357-15.699-9.09-0.181-2.924 7.454 1.109 8.644 1.792 2.831 1.626 5.282 4.098 7.646 6.304 2.356 2.199 4.668 4.386 7.288 6.268 1.395 1.001 2.723 1.218 4.301 1.747 1.24 0.417 4.54-0.092 4.05 1.534"/>
	<path id="path203" d="m251.44 52.669c0.005-0.356 0-0.713 0-1.069h-0.266c0.08 0.337 0.11 0.764 0.27 1.069"/>
	<path id="path205" d="m219.77 35.024c-2.671 0.383-4.104 0.785-6.258 2.517-1.985 1.597-3.183 3.975-4.508 6.138-0.93 1.518-8.708 13.784-10.521 10.327 4.95-2.836 6.997-7.195 10.033-11.775 1.55-2.338 2.991-4.522 5.198-6.295 1.02-0.813 6.21-3.424 6.06-0.912"/>
	<path id="path207" d="m219.77 33.954c-0.388 0.129-0.244 0.606 0 1.07h-0.268c0.09-0.336 0.11-0.765 0.27-1.07"/>
	<path id="path209" d="m199.02 55.076c-0.832-0.138-1.333 0.474-2.127 0-0.854-0.51-0.665-1.63-0.799-2.407-0.125-0.729-0.212-1.883-0.801-2.406-0.752-0.667-2.039 0.033-1.594-1.604 3.489 0.756 2.729 2.835 3.725 5.614 0.77-0.384 1.68-0.489 1.6 0.803"/>
	<path id="path211" d="m199.29 54.809c-0.089 0.089-0.177 0.178-0.266 0.267 0.015-0.505-0.144-0.958-0.533-1.07 0.25 0.259 0.5 0.587 0.8 0.803"/>
	<path id="path213" d="m193.7 49.729c-0.443-0.089-0.887-0.178-1.33-0.267 0.663-0.563 1.31-0.688 1.596 0.267-0.069-0.355-0.154-0.724-0.266-1.069 0 0.355-0.02 0.714 0 1.069"/>
	<path id="path215" fill-rule="evenodd" clip-rule="evenodd" d="m141.55 46.788c-5.201-1.204-7.022-9.732-8.249-14.037-1.5-5.264-2.246-11.006-1.793-16.472 0.207-2.489 0.475-6.061 2.593-7.724 2.198-1.726 3.921-0.16 6.245-0.379 7.633-0.719 15.266-1.438 22.898-2.157 2.432-0.229 3.948-1.841 5.63-3.532 1.929-1.939 5.096-2.145 7.501-1.338 4.811 1.614 7.607 8.071 3.627 12.081-4.101 4.13-10.508 2.281-15.172 0.406-2.311-0.929-4.16-1.703-6.647-1.379-4.093 0.534-8.187 1.068-12.279 1.603-1.867 0.244-3.734 0.487-5.603 0.731-1.397 0.182-0.922 0.997-0.988 2.398-0.163 3.449-0.368 6.892-0.631 10.334-0.52 6.794 0.85 13.032 2.87 19.465"/>
	<path id="path217" d="m141.28 47.323c-3.488-0.958-6.075-6.549-7.126-9.726-1.363-4.117-2.316-8.238-2.886-12.535-0.533-4.02-0.668-8.287 0.127-12.287 0.399-2.009 1.16-3.201 2.563-4.612 1.079-1.086 6.312-1.659 4.93 0.66-4.039-2.793-6.412 2.683-6.694 5.806-0.379 4.195-0.177 8.163 0.414 12.319 0.558 3.931 1.79 7.631 3.032 11.385 0.656 1.98 1.773 3.692 2.915 5.411 0.383 0.578 1.127 1.265 1.664 1.707 0.73 0.581 2.22 0.893 1.08 1.872"/>
	<path id="path219" d="m139.16 7.753c-0.1 0.303 0 0.747 0 1.07 4.534-0.427 9.069-0.854 13.604-1.282 2.948-0.277 5.896-0.555 8.843-0.833 1.031-0.097 3.691 0.34 3.097-1.362-8.52 0.802-17.03 1.605-25.54 2.407"/>
	<path id="path221" d="m138.89 8.823c0.162-0.222 0.434-0.449 0.266-1.07-0.09 0.355-0.2 0.71-0.27 1.07"/>
	<path id="path223" d="m164.43 5.346l4.422-3.333c1.694-1.276 3.082-1.667 5.154-2.013 0.311 1.749-0.345 1.115-1.596 1.337-1.119 0.199-1.803 0.85-2.719 1.465-1.641 1.101-3.176 2.398-4.73 3.614-0.15-0.324-0.45-0.717-0.52-1.07"/>
	<path id="path225" d="m164.7 6.417c0.357-0.167 0.075-0.632-0.266-1.07h0.266c0 0.356 0.01 0.714 0 1.07"/>
	<path id="path227" d="m174.01 0c2.148 0.359 4.538 1.019 5.966 2.813 0.692 0.869 4.191 6.157 1.485 6.01-0.696-4.205-3.169-7.486-7.717-7.486 0.09-0.446 0.18-0.891 0.27-1.337"/>
	<path id="path229" d="m174.01 0c-0.089 0.446-0.177 0.891-0.266 1.337h0.266c0-0.432 0.06-0.911 0-1.337"/>
	<path id="path231" d="m182.52 8.823c0.212 1.784-1.293 4.282-2.66 5.347-1.001 0.779-6.26 3.491-6.121 1.07 2.169-0.364 4.102-0.647 5.717-2.268 0.646-0.648 1.19-1.717 1.602-2.544 0.4-0.807-0.13-2.563 1.46-1.605"/>
	<path id="path233" d="m182.52 8.555c-0.128 0.388-0.603 0.245-1.064 0v0.268c0.33-0.084 0.76-0.107 1.06-0.268"/>
	<path id="path235" d="m174.01 16.308c-2.359-0.237-5.142-0.179-7.282-1.253-2.237-1.123-4.653-1.946-7.083-2.489-0.1-1.778 2.033-0.77 3.081-0.375 1.397 0.526 2.74 1.108 4.103 1.712 1.316 0.583 2.626 0.797 4.04 1 1.13 0.161 3.67-0.302 3.14 1.405"/>
	<path id="path237" d="m174.01 16.308c0.005-0.356 0-0.712 0-1.069h-0.266c0.09 0.337 0.11 0.764 0.27 1.069"/>
	<path id="path239" d="m159.91 12.565c0.128-1.62-1.307-0.934-2.326-0.801-2.363 0.308-4.726 0.617-7.088 0.925-3.78 0.493-7.56 0.987-11.34 1.48-0.128 1.62 1.307 0.934 2.326 0.801 2.363-0.308 4.726-0.617 7.088-0.925 3.78-0.493 7.56-0.986 11.34-1.48"/>
	<path id="path241" d="m159.91 11.496c-0.384 0.13-0.243 0.607 0 1.07h-0.266c0.09-0.337 0.11-0.765 0.27-1.07"/>
	<path id="path243" d="m139.95 14.704c-0.262 5.483-0.799 10.979-0.799 16.466 0 5.451 1.376 10.423 2.928 15.617-1.642 0.945-1.748-1.902-2.101-3.024-0.436-1.387-0.834-2.76-1.093-4.195-0.498-2.762-1.036-5.457-1.066-8.288-0.031-2.91 0.487-5.912 0.668-8.822 0.092-1.484 0.133-2.936 0.133-4.423 0-1.761-0.78-3.499 1.33-3.331"/>
	<path id="path245" d="m139.16 14.169c-0.315 0.164-0.546 0.159-0.531 0.535 0.436-0.054 0.896 0.066 1.33 0-0.128 0.187-0.35 0.402-0.533 0.535-0.09-0.34-0.27-0.721-0.27-1.07"/>
	<path id="path247" d="m142.08 46.788c0.216 0.323 0.358 0.721 0.531 1.069l-1.332-0.534c0.192-0.242 0.304-0.599 0.533-0.803-0.272 0.155-0.555 0.339-0.799 0.535 0.36-0.089 0.73-0.155 1.07-0.267"/>
	<path id="path249" fill-rule="evenodd" clip-rule="evenodd" d="m102.97 72.989c-5.235-3.008-7.618-8.205-10.356-13.36-2.779-5.232-5.56-9.895-11.835-10.682-5.402-0.679-10.772 4.746-14.524 7.829-4.463 3.669-8.836 5.691-14.251 7.635-5.788 2.077-11.354 4.433-17.275 6.134-2.853 0.819-5.834 1.108-8.786 1.108-0.905 0-2.087-0.71-2.922-1.014-2.158-0.785-4.316-1.569-6.474-2.354-0.901-0.328-2.27-1.157-3.242-1.178-1.325-0.029-3.255 0.909-4.523 1.337-2.475 0.835-5.277 1.803-6.779 4.07-3.436 5.188 0.483 10.902 6.483 10.902 2.348 0 5.522-0.438 7.214-2.139 1.785-1.793-0.083-5.437 2.127-6.55 2.367-1.193 5.067-0.218 7.632 0.194 3.023 0.487 6.169 1.276 9.233 1.276 5.822 0 11.787-2.701 17.124-4.785 5.458-2.132 10.539-4.423 16.3-5.643 3.333-0.706 6.548-0.802 9.944-0.802 3.124 0 6.013 2.786 8.325 4.595 2.369 1.853 4.814 4.456 7.805 5.298 3.47 0.978 5.722-0.642 8.78-1.871"/>
	<path id="path251" d="m102.7 73.523c-5.237-3.009-8.012-8.348-10.622-13.592-1.336-2.684-3.091-4.936-4.732-7.411-0.57-0.859-2.213-1.993-3.211-2.327-1.14-0.381-4.028-0.192-3.518-1.802 3.102 0.391 5.708 1.111 7.793 3.625 1.948 2.347 3.499 5.017 4.926 7.708 1.434 2.704 2.661 5.55 4.574 7.917 0.798 0.987 1.555 1.927 2.542 2.753 0.98 0.815 3.53 1.786 2.25 3.129"/>
	<path id="path253" d="m80.62 49.461c-2.111 0.353-4.873 0.6-6.588 1.98-1.857 1.495-3.823 2.86-5.694 4.363-1.922 1.544-3.764 3.33-5.875 4.603-1.293 0.779-5.142 4.018-5.789 1.619 4.565-1.53 7.791-4.781 11.441-7.753 3.85-3.135 7.591-5.175 12.505-5.882 0 0.33 0.091 0.757 0 1.07"/>
	<path id="path255" d="m80.62 48.392v1.07-1.07"/>
	<path id="path257" d="m57.205 63.097c-2.64 0.995-5.277 1.946-7.953 2.842-2.488 0.833-4.782 2.341-7.301 3.064-2.687 0.772-5.349 1.708-8.092 2.26-1.365 0.274-8.21 2.206-8.052-0.146 10.848 0 21.111-5.536 31.131-9.09 0.083 0.331 0.278 0.732 0.267 1.07"/>
	<path id="path259" d="m57.205 63.097c0.015-0.504-0.144-0.958-0.532-1.07 0.168 0.337 0.302 0.774 0.532 1.07"/>
	<path id="path261" d="m25.808 72.187c0.667-0.973-0.224-0.991-0.968-1.277-1.673-0.644-3.346-1.288-5.018-1.931-1.673-0.644-3.346-1.288-5.019-1.931-0.951-0.366-1.508-0.807-1.766 0.594 4.257 1.514 8.514 3.03 12.771 4.545"/>
	<path id="path263" d="m26.074 72.187c-0.056-0.152-0.058-0.676-0.266-1.07 0.088 0.351 0.138 0.732 0.266 1.07"/>
	<path id="path265" d="m13.303 67.641c-2.624 0.824-6.041 1.462-8.367 3.021-1.256 0.842-2.506 1.417-3.004 2.92-0.192 0.581-0.397 1.279-0.603 1.813-0.099 0.256-0.064 0.91-0.266 1.069-0.225 0.178-1.063 0.097-1.063-0.209 0-6.581 8.141-8.145 13.037-9.683 0.082 0.329 0.279 0.734 0.266 1.069"/>
	<path id="path267" d="m13.569 66.572c-0.167-0.027-0.363 0-0.532 0 0.166 0.315 0.1 0.753 0.266 1.069h-0.266c0.168-0.337 0.301-0.773 0.532-1.069"/>
	<path id="path269" d="m1.064 76.464c0.782 3.937 2.652 5.748 6.652 6.416 0.119 2.492-4.446-0.38-5.449-0.985-1.679-1.013-1.932-3.746-2.267-5.431 0.331 0 0.748-0.086 1.064 0"/>
	<path id="path271" d="m0 76.464h1.064-1.064"/>
	<path id="path273" d="m7.45 82.88c1.988 0 5.144-0.055 6.918-1.069 0.657-0.376 1.436-1.391 1.665-2.08 0.168-0.506 0.197-0.875 0.197-1.406 0-0.904 1.063-1.153 1.063-0.514 0 2.385-0.901 4.281-3.191 5.337-1.225 0.566-7.292 1.845-6.652-0.268"/>
	<path id="path275" d="m7.45 83.95c-0.005-0.356 0-0.713 0-1.07h0.266c-0.084 0.337-0.106 0.766-0.266 1.07"/>
	<path id="path277" d="m16.23 77.534c0-4.953 4.333-3.934 7.944-3.354 2.24 0.36 4.481 0.71 6.719 1.085 1.153 0.193 2.234 0.396 3.4 0.396 1.018 0 2.242-0.389 2.158 1.07-4.37 0-8.289-0.611-12.564-1.506-1.701-0.356-3.324-0.366-5.055-0.366-1.946 0.001-0.869 3.164-2.602 2.675"/>
	<path id="path279" d="m16.23 77.534h1.063-1.063"/>
	<path id="path281" d="m36.186 75.663c5.791-1.059 11.322-3.111 16.751-5.358 5.665-2.345 10.976-4.224 16.996-5.435 1.263-0.253 2.607-0.436 3.895-0.436h2.675c0.254 0 0.126 0.632 0.126 0.792 0 0.486-0.497 0.277-0.926 0.277-3.106 0-6.015 0.451-9.041 1.126-5.799 1.295-11.139 3.868-16.664 6.027-2.492 0.973-4.982 1.841-7.544 2.614-1.249 0.377-6.396 2.552-6.268 0.393"/>
	<path id="path283" d="m36.452 76.732c-0.088-0.356-0.177-0.713-0.266-1.07 0.088 0.357 0.177 0.714 0.266 1.07"/>
	<path id="path285" d="m76.629 64.434c4.445 0 7.537 2.441 10.642 5.346 1.48 1.385 3.292 2.982 5.189 3.744 1.042 0.418 2.014 0.806 3.118 1.027 1.289 0.258 2.129-0.445 1.805 1.378-4.486-0.642-7.299-2.527-10.828-5.282-0.764-0.597-1.503-1.271-2.209-1.936-0.863-0.812-1.663-1.052-2.562-1.73-0.905-0.682-1.773-1.12-2.895-1.345-1.022-0.205-2.742 0.387-2.26-1.202"/>
	<path id="path287" d="m76.629 64.434v1.069-1.069"/>
	<path id="path289" d="m97.382 74.592c1.707 0.282 3.98-1.6 5.587-2.139 1.016 1.705-4.228 3.022-5.587 3.476-0.001-0.425-0.078-0.92-0.001-1.337"/>
	<path id="path291" d="m97.382 75.929v-1.337 1.337"/>
	<path id="path293" d="m103.24 73.523c0.365-0.121 0.72-0.362 1.064-0.535-0.268-0.211-0.74-0.428-1.064-0.535-0.155 0.35-0.434 0.701-0.532 1.07 0.052-0.356 0.162-0.726 0.266-1.07 0.08 0.354 0.2 0.711 0.26 1.07"/>
	<path id="path295" fill="#fff" d="m132.77 75.261c0-9.023 5.525-20.186 15.832-20.186s15.832 11.162 15.832 20.186-5.525 20.186-15.832 20.186-15.83-11.162-15.83-20.186"/>
	<path id="path297" d="m132.24 75.261c0-9.32 5.758-20.721 16.364-20.721 10.604 0 16.363 11.402 16.363 20.721s-5.759 20.721-16.363 20.721c-10.6 0-16.36-11.401-16.36-20.721" stroke="#000" stroke-linecap="square" stroke-miterlimit="10" stroke-width=".5105" fill="none"/>
	<path id="path299" fill="#fff" d="m164.43 70.048c0-9.102 6.056-19.25 16.096-19.25s16.098 10.147 16.098 19.25c0 9.102-6.058 19.25-16.098 19.25s-16.1-10.149-16.1-19.25"/>
	<path id="path301" d="m163.9 70.048c0-9.396 6.294-19.785 16.629-19.785s16.631 10.388 16.631 19.785-6.296 19.785-16.631 19.785-16.63-10.389-16.63-19.785" stroke="#000" stroke-linecap="square" stroke-miterlimit="10" stroke-width=".5105" fill="none"/>
	<path id="path303" d="m120.53 83.95c0.962 5.806 2.679 11.074 5.056 16.442 2.324 5.251 6.896 9.477 11.588 12.621 9.018 6.043 22.191 4.295 31.874 1.304 7.321-2.261 13.421-6.006 19.863-10.047-4.243 3.958-8.382 7.82-13.6 10.441-5.064 2.545-11.128 2.24-16.618 2.413-6.21 0.195-12.236 0.349-18.417-0.342-5.222-0.584-12.673-1.773-15.307-7.065-3.79-7.61-3.79-17.409-4.43-25.75" fill-rule="evenodd" clip-rule="evenodd" fill="#fff"/>
	<path id="path305" fill="#fff" d="m121.06 83.95c1.911 10.53 5.663 21.349 14.9 27.538-0.2 0.353-0.511 0.781-0.797 1.069-9.235-7.21-13.293-17.31-15.167-28.607 0.33-0.003 0.76-0.093 1.07-0.003"/>
	<path id="path307" fill="#fff" d="m135.96 111.49c15.884 10.645 38.781 2.717 52.682-7.753 1.388 1.126-3.333 3.613-4.326 4.212-2.355 1.42-4.721 2.76-7.217 3.917-4.383 2.033-9.263 3.693-13.998 4.703-9.635 2.056-19.371 0.912-27.938-4.01 0.27-0.34 0.5-0.78 0.81-1.07"/>
	<path id="path309" fill="#fff" d="m135.16 112.56c0.266-0.356 0.531-0.713 0.797-1.069-0.26 0.35-0.53 0.71-0.8 1.07"/>
	<path id="path311" fill="#fff" d="m189.18 104.54c-3.928 3.946-7.838 7.812-12.871 10.344-2.338 1.176-5.045 1.948-7.64 2.256-1.408 0.167-2.89 0.501-4.307 0.501-0.812 0-4.496 0.525-4.983 0-1.38-1.486 3.216-1.07 3.582-1.07 1.407 0 2.729-0.157 4.13-0.333 2.856-0.357 5.771-0.962 8.353-2.256 5.147-2.58 8.918-6.205 12.938-10.243 0.24 0.24 0.63 0.5 0.8 0.8"/>
	<path id="path313" fill="#fff" d="m188.64 103.74c0.189 0.258 0.355 0.535 0.533 0.802-0.266-0.267-0.544-0.525-0.799-0.802 0.255 0.276 0.533 0.535 0.799 0.802-0.17-0.27-0.34-0.55-0.53-0.8"/>
	<path id="path315" fill="#fff" d="m159.38 117.9c-6.543 0-12.958 0.037-19.467-0.618-1.309-0.131-3.112-0.036-4.331-0.494-1.338-0.504-3.355-0.689-4.543-1.371-1.199-0.689-8.213-4.291-5.717-5.804 2.807 5.072 10.42 6.156 15.584 6.672 6.207 0.62 12.237 0.476 18.474 0.279 0.01 0.44 0.03 0.89 0.01 1.33"/>
	<path id="path317" fill="#fff" d="m159.38 117.64v-1.07 1.07"/>
	<path id="path319" fill="#fff" d="m124.52 110.42c-3.335-8.379-3.84-17.553-4.523-26.469 1.661-0.519 1.208 1.731 1.296 2.804 0.078 0.939 0.181 1.877 0.274 2.815 0.253 2.542 0.498 5.083 0.795 7.621 0.269 2.298 0.553 4.64 1.187 6.871 0.34 1.199 0.769 2.402 1.012 3.625 0.23 1.14 1.19 2-0.04 2.74"/>
	<path id="path321" fill="#fff" d="m124.52 110.42c0.266-0.268 0.532-0.535 0.798-0.803-0.27 0.26-0.53 0.53-0.8 0.8"/>
	<path id="path323" fill="#fff" d="m120 83.95h1.064-1.06 1.064-1.06"/>
	<path id="path325" d="m125.85 71.385c0.936 2.689 2.297 4.95 1.33 7.753-0.804 2.329-2.738 4.214-5.085 5-2.597 0.87-5.354 0.27-7.818-0.723-1.27-0.511-2.452-1.205-3.696-1.773-0.819-0.374-1.638-0.748-2.457-1.122-0.166-0.076-0.771 1.078-0.898 1.291 5.322 1.513 10.491 5.756 16.497 3.209 2.14-0.908 4.523-3.145 4.523-5.625 0-1.445 0.274-2.639-0.197-4.06-0.43-1.329-1.52-2.714-2.19-3.95" fill-rule="evenodd" clip-rule="evenodd" fill="#fff"/>
	<path id="path327" fill="#fff" d="m126.38 71.385c-0.332-0.018-0.74 0.186-1.066 0.267 0.431 1.235 1.195 6.168 2.928 5.081-0.62-1.783-1.24-3.566-1.86-5.348"/>
	<path id="path329" fill="#fff" d="m128.25 76.999c-0.368 2.22-0.94 3.885-2.549 5.503-0.844 0.849-4.978 3.798-6.231 2.518-1.149-1.174 1.783-1.146 2.262-1.338 0.976-0.392 1.627-0.911 2.468-1.475 1.91-1.281 2.625-3.299 2.986-5.476 0.32 0.083 0.77 0.099 1.06 0.268"/>
	<path id="path331" fill="#fff" d="m128.25 76.732c0.465 0.403-0.656 0.24-1.064 0v0.267c0.33-0.084 0.75-0.106 1.06-0.267"/>
	<path id="path333" fill="#fff" d="m119.46 85.021c-4.341 0-7.845-2.247-11.708-4.011 0.313-1.778 1.634-0.566 2.701-0.08 1.117 0.51 2.208 1.075 3.306 1.626 0.871 0.438 2.028 0.978 2.982 1.169 1.09 0.217 3.21-0.289 2.72 1.296"/>
	<path id="path335" fill="#fff" d="m119.46 85.021v-1.07 1.07"/>
	<path id="path337" fill="#fff" d="m108.56 80.742c-0.295 0.388-0.574 0.762-0.798 1.07v-0.268c-0.93 2.459-1.62-2.724 0.8-0.802"/>
	<path id="path339" fill="#fff" d="m108.29 79.94c-0.177-0.089-0.355-0.178-0.532-0.267-0.429 0.633 0.105 0.916 0.798 1.069-0.223 0.12-0.548 0.229-0.798 0.268 0.17-0.348 0.31-0.749 0.53-1.07"/>
	<path id="path341" fill="#fff" d="m107.49 81.277c2.033 1.085 4.269 1.666 6.248 2.857 0.908 0.547 2.089 0.669 3.115 0.817 1.34 0.192 2.407-0.44 2.079 1.406-2.246-0.322-4.304-0.56-6.356-1.589-1.052-0.528-2.115-1.242-3.222-1.619-1.03-0.349-2.72-0.292-1.87-1.872"/>
	<path id="path343" fill="#fff" d="m107.23 82.347c0.011-0.349 0.181-0.729 0.266-1.07 0.39 0.417 0.04 0.604-0.27 1.07"/>
	<path id="path345" fill="#fff" d="m118.93 85.021c1.746 0 5.824 0.061 6.786-1.873 0.479-0.964 1.289-1.613 1.649-2.703 0.361-1.09 0.043-3.359 1.674-2.911-0.858 2.528-0.537 4.821-2.925 6.683-2.122 1.655-4.622 1.817-7.184 2.14-0.01-0.429-0.08-0.915-0.01-1.336"/>
	<path id="path347" fill="#fff" d="m118.93 86.357v-1.336 1.336"/>
	<path id="path349" fill="#fff" d="m127.98 77.534c-0.48-1.011-0.354-1.974-0.992-2.979-0.893-1.409-2.376-2.407-0.604-3.438 0.55 1.015 1.301 2.054 1.665 3.15 0.167 0.504 0.582 0.92 0.729 1.396 0.195 0.628-0.032 1.219 0.266 1.872-0.35-0.001-0.76 0.082-1.08-0.001"/>
	<path id="path351" fill="#fff" d="m129.04 77.534h-1.063 1.06"/>
	<path id="path353" fill="#fff" d="m126.38 71.117c-0.362 0.162-0.711 0.357-1.066 0.535 0.35-0.107 0.716-0.16 1.066-0.267-0.347 0.188-0.706 0.373-1.066 0.534 0.36-0.267 0.71-0.545 1.07-0.802"/>
	<path id="path355" d="m184.65 91.972c-0.764 1.395 0.317 4.467 0.591 5.931 0.511 2.735 0.382 4.74 3.391 5.495 4.426 1.111 7.944-5.065 10.917-7.149-1.855 1.865-3.405 3.954-5.241 5.803-2.056 2.069-3.843 2.752-6.721 2.752-2.025 0-3.309-3.582-3.562-5.109-0.48-2.888-0.54-4.985 0.62-7.719" fill-rule="evenodd" clip-rule="evenodd" fill="#fff"/>
	<path id="path357" fill="#fff" d="m185.18 91.972c-0.638 1.172 0.228 3.621 0.418 4.863 0.259 1.684 0.601 3.354 0.912 5.028-1.808 0.559-1.715-3.392-1.929-4.682-0.191-1.159-0.368-2.32-0.597-3.472-0.23-1.196-0.38-2.107 1.2-1.734"/>
	<path id="path359" fill="#fff" d="m186.25 101.6c2.482 1.008 3.37 1.77 5.986 0.267 2.366-1.358 4.074-3.156 5.986-5.079 1.664 0.914-0.51 2.118-1.328 2.94-1.007 1.011-1.987 1.894-3.193 2.674-2.748 1.778-5.63 2.218-8.25 0 0.23-0.24 0.49-0.64 0.79-0.8"/>
	<path id="path361" fill="#fff" d="m185.45 101.86c-0.015 0.175 0 0.359 0 0.535 0.176-0.315 0.585-0.51 0.799-0.802 0.089 0.089 0.177 0.178 0.266 0.267-0.35-0.01-0.73 0.05-1.07-0.01"/>
	<path id="path363" fill="#fff" d="m198.22 96.784c0.166 0.295 0.558 0.56 0.799 0.802 0.738-0.679 1.025-1.32 0-1.872-0.26 0.341-0.61 0.69-0.8 1.07"/>
	<path id="path365" fill="#fff" d="m198.22 96.784c0.267 0.267 0.532 0.535 0.799 0.802-0.27-0.267-0.53-0.535-0.8-0.802"/>
	<path id="path367" fill="#fff" d="m199.82 96.516c-1.79 2.156-3.521 4.341-5.499 6.328-2.118 2.127-4.101 2.495-7.007 2.495-0.088-1.501 1.92-1.123 3.027-1.309 1.145-0.192 2.285-1.104 3.092-1.898 2-1.97 3.794-4.254 5.588-6.417 0.24 0.241 0.64 0.509 0.8 0.803"/>
	<path id="path369" fill="#fff" d="m199.02 95.714c0.267 0.268 0.532 0.535 0.799 0.802-0.27-0.267-0.53-0.535-0.8-0.802 0.267 0.268 0.532 0.535 0.799 0.802-0.27-0.267-0.53-0.535-0.8-0.802"/>
	<path id="path371" fill="#fff" d="m187.04 105.34c-3.966-1.678-4.334-7.831-3.723-11.497 1.604-0.072 0.799 1.904 0.799 3.042 0 1.144 0.35 2.462 0.572 3.585 0.22 1.104 0.628 2.065 1.427 2.87 0.71 0.72 2.02 0.73 0.92 2"/>
	<path id="path373" fill="#fff" d="m187.31 105.34c-0.135-0.009-0.268-0.49-0.268-0.134 0 0.255 0.452-0.724 0.535-0.935-0.09 0.34-0.16 0.71-0.27 1.06"/>
	<path id="path375" fill="#fff" d="m183.32 93.842c1.4 0.862 1.49-0.874 1.861-1.871-1.39-0.861-1.48 0.876-1.86 1.871"/>
	<path id="path377" fill="#fff" d="m183.32 93.842c0.354 0.089 0.71 0.179 1.064 0.268-0.35-0.089-0.7-0.178-1.06-0.268"/>
	<path id="path379" fill="#fff" d="m184.12 91.704c0.357 0.069 0.709 0.179 1.063 0.268-0.441 0-0.888 0.021-1.328 0 0.44 0.021 0.887 0 1.328 0-0.35-0.089-0.7-0.2-1.06-0.268"/>
	<path id="path381" d="m136.23 68.978c0-5.233 3.666-10.694 9.313-10.694s9.314 5.46 9.314 10.694c0 5.234-3.667 10.695-9.314 10.695s-9.31-5.461-9.31-10.695"/>
	<path id="path383" d="m135.7 68.978c0-5.526 3.903-11.229 9.844-11.229s9.846 5.701 9.846 11.229c0 5.527-3.904 11.23-9.846 11.23s-9.84-5.704-9.84-11.23" stroke="#000" stroke-linecap="square" stroke-miterlimit="10" stroke-width=".5105" fill="none"/>
	<path id="path385" d="m171.08 65.102c0-5.243 3.615-10.828 9.311-10.828s9.313 5.584 9.313 10.828-3.616 10.828-9.313 10.828c-5.69-0.001-9.31-5.586-9.31-10.828"/>
	<path id="path387" d="m170.55 65.102c0-5.537 3.854-11.363 9.846-11.363s9.844 5.826 9.844 11.363-3.853 11.363-9.844 11.363-9.85-5.826-9.85-11.363" stroke="#000" stroke-linecap="square" stroke-miterlimit="10" stroke-width=".5105" fill="none"/>
	<path id="path389" fill-rule="evenodd" clip-rule="evenodd" d="m96.051 107.74c-2.252 1.98-4.537 3.688-6.917 5.48-2.263 1.706-5.528 2.28-8.206 3.088-2.859 0.862-5.991 0.521-8.949 0.521-2.945 0-5.337-1.281-8.121-1.871-1.243-0.264-2.811-0.268-4.091-0.268-1.697 0-2.187 0.412-3.566 0.872-2.369 0.788-3.562 3.964-4.178 6.129-0.787 2.765 0.622 5.03 0.995 7.654 0.406 2.854 1.123 5.651 1.82 8.447 1.5 6.018 4.533 11.288 7.832 16.501 1.485 2.346 2.772 4.753 3.895 7.289 0.564 1.274 1.132 2.545 1.719 3.809 0.375 0.808 0.75 1.615 1.126 2.423 0.019 0.041-1.23 0.82-1.421 1.013-2.279 2.294-5.707 13.506-0.193 13.506 5.918 0 11.682-0.884 14.688-6.684 0.889-1.716 2.31-5.695 0.665-7.353-2.375-2.394-3.629 0.924-6.193 0.064-2.158-0.724-1.919-3.467-2.766-5.382-1.174-2.657-2.302-5.3-3.318-8.022-0.946-2.533-1.486-5.1-2.695-7.531-1.268-2.548-2.153-5.377-3.207-8.022-2.051-5.15-3.668-10.439-5.635-15.623 7.556 0 15.35 1.134 22.617-1.604 3.395-1.278 6.471-3.531 9.459-5.536 1.353-0.907 2.551-2.702 3.312-4.089 0.929-1.7 1.056-2.9 1.328-4.82"/>
	<path id="path391" d="m96.583 108.01c-2.51 2.522-5.414 4.993-8.614 6.6-1.613 0.811-3.5 1.169-5.221 1.688-0.917 0.276-4.646 1.863-5.587 1.07-1.226-1.032 1.287-1.062 1.538-1.111 1.006-0.201 1.958-0.477 2.941-0.773 1.812-0.547 3.671-1.071 5.423-1.775 3.27-1.313 6.271-4.035 8.722-6.499 0.238 0.23 0.637 0.5 0.798 0.79"/>
	<path id="path393" d="m70.774 116.3h6.167c0.366 0 0.402 1.132 0.219 1.338-0.379 0.427-3.648 0-4.24 0-1.618 0-2.276 0.48-2.146-1.34"/>
	<path id="path395" d="m77.161 117.37v-1.07 1.07"/>
	<path id="path397" d="m70.508 117.37c-1.858-0.34-4.042-0.559-5.753-1.42-0.971-0.488-1.745-0.37-2.791-0.545-1.1-0.185-2.364 0.268-2.364-0.967 0-1.094 10.289 1.65 11.439 1.861-0.161 0.33-0.293 0.81-0.531 1.08"/>
	<path id="path399" d="m70.774 117.64c-0.368-0.399-0.084-0.893 0.266-1.338h-0.266c0 0.43-0.064 0.91 0 1.34"/>
	<path id="path401" d="m59.601 115.23c-2.147 0-4.258 0.886-5.406 2.811-0.689 1.156-1.168 2.299-1.591 3.575-0.225 0.68-0.187 1.282-0.187 2.002 0 0.323-1.064 0.406-1.064-0.318 0-2.456 0.952-4.946 2.659-6.733 0.707-0.74 5.774-4.29 5.589-1.34"/>
	<path id="path403" d="m59.601 114.16c-0.389 0.129-0.245 0.606 0 1.07 0-0.35 0.018-0.71 0-1.07"/>
	<path id="path405" d="m52.417 123.79c0 1.399 0.146 2.314 0.587 3.644 0.345 1.041 1.604 3.688-0.321 3.575-0.198-1.396-0.552-2.609-0.936-3.96-0.277-0.97-1.247-3.84 0.67-3.25"/>
	<path id="path407" d="m51.353 123.79h1.064-1.064"/>
	<path id="path409" d="m53.746 130.74c1.001 4.361 1.83 8.645 3.68 12.733 1.858 4.108 3.932 7.832 6.432 11.599-1.549 1.439-3.337-3.055-4.135-4.313-1.331-2.1-2.338-4.216-3.182-6.547-0.774-2.141-1.706-4.022-2.264-6.252-0.598-2.39-1.083-4.812-1.596-7.221 0.331 0 0.75-0.09 1.065 0"/>
	<path id="path411" d="m53.746 130.74c-0.354-0.005-0.709 0-1.064 0v0.268c0.335-0.09 0.761-0.11 1.064-0.27"/>
	<path id="path413" d="m63.858 155.07c1.226 2.156 2.354 4.259 3.357 6.524 0.524 1.185 1.054 2.364 1.6 3.538 0.512 1.104 1.961 2.68 0.098 3.037-1.975-4.249-3.803-8.494-6.121-12.568 0.322-0.16 0.715-0.46 1.066-0.53"/>
	<path id="path415" d="m63.858 155.07c-0.355 0.177-0.71 0.354-1.066 0.531 0.355-0.18 0.71-0.35 1.066-0.53"/>
	<path id="path417" d="m69.71 168.44c-1.944 0.073-2.846 3.133-3.459 4.677-0.43 1.081-0.53 2.263-0.756 3.403-0.255 1.286 0.447 2.138-1.372 1.813 0.417-2.513 0.634-4.669 1.596-7.086 0.431-1.08 3.286-5.71 3.991-2.8"/>
	<path id="path419" d="m69.977 167.63c0.232 0.453 0.353 0.66-0.266 0.803-0.124-0.365-0.45-0.695-0.532-1.07-0.119 0.225-0.227 0.551-0.266 0.803 0.345-0.16 0.745-0.31 1.064-0.53"/>
	<path id="path421" d="m65.454 178.06c-0.148 1.717 0.651 2.68 1.595 4.01-1.356 1.035-1.624-0.326-2.21-1.505-0.731-1.46-1.149-2.14 0.615-2.5"/>
	<path id="path423" d="m64.124 178.33c0.443-0.089 0.887-0.179 1.33-0.268v0.268c-0.43 0-0.907 0.06-1.33 0"/>
	<path id="path425" d="m66.517 181.8h3.862c0.328 0 3.51-0.315 2.259 1.07-0.354 0.392-3.32 0-3.862 0-1.018 0-2.77 0.54-2.259-1.07"/>
	<path id="path427" d="m65.985 182.61c0.189 0.177 0.253 0.309 0.532 0.268-0.073-0.341 0.076-0.73 0-1.07 0.177 0.089 0.354 0.179 0.532 0.268-0.34 0.16-0.7 0.42-1.064 0.53"/>
	<path id="path429" d="m72.372 181.8c3.259-0.656 5.495-1.79 7.839-4.137 0.954-0.955 2.007-2.288 2.339-3.626 0.22-0.885 0.44-1.769 0.66-2.653 0.076-0.307-0.09-1.172 0.069-1.348 0.169-0.188 1.066-0.091 1.066 0.209 0 3.271-1.227 6.011-3.459 8.346-2.482 2.597-4.877 3.359-8.248 4.279-0.083-0.33-0.27-0.72-0.266-1.07"/>
	<path id="path431" d="m72.638 182.87c-0.16-0.305-0.182-0.733-0.266-1.07h0.266c0 0.36 0.005 0.72 0 1.07"/>
	<path id="path433" d="m83.279 170.04c-0.36-0.759-0.159-1.287-0.798-1.871-0.67-0.613-1.875-0.161-1.063-1.605 1.859 0.936 2.503 1.359 2.927 3.477-0.331 0-0.749 0.09-1.066 0"/>
	<path id="path435" d="m84.345 170.04h-1.066 1.066"/>
	<path id="path437" d="m81.418 167.63c-1.337 0.18-2.64 0.994-3.991 1.338-0.852-1.425 2.517-2.222 3.725-2.408 0.083 0.34 0.27 0.73 0.266 1.07"/>
	<path id="path439" d="m81.418 166.56c-0.385 0.131-0.244 0.607 0 1.07h-0.266c0.084-0.33 0.106-0.76 0.266-1.07"/>
	<path id="path441" d="m77.161 168.97c-2.656-0.744-2.685-3.271-3.459-5.615 1.494-0.898 1.72 1.712 2.072 2.772 0.105 0.318 0.342 1.505 0.722 1.505 0.909-0.01 1.139 0.54 0.665 1.33"/>
	<path id="path443" d="m77.427 168.97c-0.385-0.131-0.244-0.608 0-1.072h-0.266c0.084 0.34 0.105 0.77 0.266 1.07"/>
	<path id="path445" d="m73.702 163.36c-1.324-2.997-2.825-6.016-3.748-9.168-0.521-1.778-0.899-3.646-1.727-5.309-0.593-1.191-2.728-4.145-0.646-4.506 2.427 6.086 4.016 12.711 7.184 18.449-0.317 0.16-0.717 0.47-1.063 0.54"/>
	<path id="path447" d="m74.765 163.09c-0.166-0.358-0.628-0.074-1.063 0.268 0.353-0.09 0.715-0.16 1.063-0.27"/>
	<path id="path449" d="m66.517 144.91c-1.408-3.541-2.88-7.075-4.08-10.694-0.59-1.78-1.14-3.578-1.805-5.332-0.508-1.341-2.9-4.897-0.766-5.362 1.294 3.576 2.548 7.154 3.747 10.764 0.62 1.867 1.184 3.76 1.911 5.588 0.522 1.3 3.016 4.67 0.993 5.03"/>
	<path id="path451" d="m67.581 144.37c-0.354 0.179-0.709 0.356-1.064 0.535 0.355-0.17 0.71-0.35 1.064-0.53"/>
	<path id="path453" d="m59.333 123.25c0.612 0 6.426-0.403 5.057 1.07-0.292 0.313-2.631 0-3.067 0-1.04 0-2.434 0.47-1.99-1.07"/>
	<path id="path455" d="m58.801 124.05c-0.141-0.223-0.182-0.551-0.266-0.803 0.822-0.208 1.028 0.3 0.797 1.07 0.197-0.231 0.397-0.529 0.534-0.801-0.35 0.18-0.734 0.33-1.065 0.53"/>
	<path id="path457" d="m64.39 123.25c1.294 0.06 6.471-0.592 5.853 1.338-1.296-0.06-6.472 0.59-5.853-1.34"/>
	<path id="path459" d="m64.39 123.25v1.07-1.07"/>
	<path id="path461" d="m70.242 123.52c3.472 0 6.508-0.633 9.864-1.477 1.811-0.455 3.413-1.014 4.997-2.009 0.709-0.445 1.418-0.891 2.128-1.337 0.753-0.473 1.867-0.098 1.039 0.526-1.326 0.998-2.557 1.737-4.042 2.482-1.625 0.815-3.158 1.073-4.829 1.703-1.687 0.637-3.255 0.816-5.043 1.017-1.16 0.14-4.691 0.99-4.114-0.9"/>
	<path id="path463" d="m70.242 124.59v-1.068 1.07"/>
	<path id="path465" d="m88.068 118.17c1.909-1.279 4.001-2.628 5.323-4.546 1.436-2.084 1.782-3.711 2.127-6.149 2.454-0.144-0.148 5.468-0.955 6.48-1.716 2.155-3.688 3.491-5.961 5.016-0.163-0.24-0.45-0.52-0.534-0.8"/>
	<path id="path467" d="m88.602 118.97l-0.534-0.801c0.178 0.27 0.356 0.54 0.534 0.8"/>
	<path id="path469" d="m96.583 107.74c0.089-0.535 0.179-1.069 0.268-1.604-0.708 0.711-1.541 1.179-0.268 1.872-0.357-0.161-0.724-0.341-1.064-0.535 0.353 0.09 0.715 0.16 1.064 0.26"/>
	<path id="path471" fill-rule="evenodd" clip-rule="evenodd" d="m174.54 41.173c2.712-0.628 4.326-2.694 5.963-4.749 1.785-2.241 4.218-3.895 6.054-6.203 1.718-2.16 2.951-5.093 4.347-7.497 1.394-2.4 2.898-4.942 3.925-7.519 1.158-2.91 2.314-5.822 3.475-8.731 1.295-3.247 3.749-3.8 6.97-3.8 5.388 0 11.657 3.281 16.121 6.041 2.344 1.449 4.886 2.661 7.465 3.632 2.646 0.997 5.564 1.183 8.159 2.299 2.194 0.944 5.515 2.569 6.504-0.416 0.738-2.231 4.659-3.001 6.728-3.001 0.509 0 1.451-0.299 1.451 0.317v7.169c0 2.849-0.525 5.34-3.459 6.149-2.408 0.664-5.484 1.348-7.182-0.802-1.814-2.298-2.159-5.081-5.739-5.081-6.039 0-11.796-1.761-17.677-2.941-2.707-0.543-5.614-1.617-8.082-2.857-1.51-0.759-5.713-3.591-7.35-2.222-0.572 0.479-0.96 2.813-1.247 3.533-0.478 1.2-1.606 2.241-2.212 3.418-1.22 2.368-2.688 4.852-3.608 7.351-1.129 3.065-2.208 6.134-3.529 9.122-1.11 2.511-3.123 4.518-4.561 6.827-1.53 2.458-3.252 5.307-6.454 5.307-2.81 0.001-3.93-3.878-6.06-5.346"/>
	<path id="path473" d="m174.28 40.638c2.643-0.886 3.829-2.16 5.588-4.277 2.385 1.274-3.877 5.15-5.322 5.346-0.09-0.334-0.28-0.728-0.27-1.069"/>
	<path id="path475" d="m179.86 36.361c1.385-1.391 2.877-2.627 4.258-4.011 1.45 0.79 0.092 1.585-0.734 2.249-0.981 0.787-1.839 1.672-2.725 2.564-0.24-0.239-0.64-0.508-0.8-0.802"/>
	<path id="path477" d="m179.86 36.361c0.267 0.267 0.532 0.535 0.799 0.802-0.26-0.267-0.53-0.535-0.8-0.802"/>
	<path id="path479" d="m184.12 32.35c2.659-3.676 4.906-7.573 7.182-11.497 1.585 0.467-0.164 2.195-0.661 3.051-0.608 1.045-1.066 2.161-1.563 3.263-0.952 2.108-2.808 4.115-4.16 5.985-0.24-0.242-0.63-0.506-0.8-0.802"/>
	<path id="path481" d="m184.92 33.152c-0.266-0.268-0.531-0.535-0.797-0.802 0.27 0.268 0.53 0.535 0.8 0.802"/>
	<path id="path483" d="m191.3 20.854c1.996-3.341 3.353-6.813 4.791-10.427 2.165 0.46-0.437 4.3-0.975 5.652-0.764 1.916-1.884 3.602-3.016 5.31-0.24-0.164-0.61-0.31-0.8-0.535"/>
	<path id="path485" d="m192.1 21.389c-0.267-0.178-0.534-0.357-0.801-0.535 0.27 0.178 0.54 0.356 0.8 0.535"/>
	<path id="path487" d="m196.09 10.427c0.753-1.891 1.432-3.738 2.476-5.486 1.151-1.926 2.252-2.436 4.44-2.802 0.48 1.566-0.787 0.791-1.463 1.471-0.49 0.493-1.297 0.713-1.862 1.47-1.205 1.614-1.784 4.016-2.526 5.883-0.32-0.161-0.81-0.296-1.07-0.536"/>
	<path id="path489" d="m197.16 10.962l-1.064-0.535c0.35 0.178 0.7 0.357 1.06 0.535"/>
	<path id="path491" d="m203.01 2.139c5.943 0 11.149 2.063 16.311 4.856 2.641 1.429 5.276 2.911 8.036 4.1 1.233 0.531 2.422 1.121 3.735 1.414 0.53 0.118 5.073 0.948 3.316 1.929-0.563 0.313-3.692-0.861-4.366-1.03-1.368-0.344-2.719-1.027-4.012-1.584-2.617-1.128-4.879-3.018-7.459-4.13-2.656-1.144-5.308-2.712-8.111-3.416-1.276-0.32-2.562-0.494-3.868-0.64-1.17-0.13-4.12 0.206-3.59-1.499"/>
	<path id="path493" d="m203.01 2.139v1.069-1.069"/>
	<path id="path495" d="m234.67 13.368c1.491 0.375 2.763 1.06 4.207 1.475 0.539 0.155 4.452 0.529 3.242 1.733-0.519 0.517-3.623-0.617-4.156-0.885-1.12-0.565-4.18-0.831-3.29-2.323"/>
	<path id="path497" d="m234.67 13.368c-0.089 0.356-0.177 0.713-0.266 1.07 0.1-0.357 0.18-0.714 0.27-1.07"/>
	<path id="path499" d="m242.12 15.506c0.555-0.627 0.826-1.455 1.33-2.139 1.364 0.746-0.182 2.837-1.33 3.208 0-0.34-0.07-0.737 0-1.069"/>
	<path id="path501" d="m242.12 16.576v-1.07 1.07"/>
	<path id="path503" d="m243.45 13.368c1.378-1.718 3.792-2.328 5.855-2.674 0.348 1.908-0.818 1.26-2.131 1.605-1.205 0.316-2.076 1.016-2.926 1.871-0.23-0.239-0.63-0.508-0.79-0.802"/>
	<path id="path505" d="m243.45 13.368c0.267 0.267 0.532 0.535 0.799 0.802-0.26-0.268-0.53-0.535-0.8-0.802"/>
	<path id="path507" d="m249.31 10.694h1.918c0.538 0 0.907 0.908 0.475 1.337-0.204 0.203-1.618 0-1.918 0-0.72 0-0.57-0.651-0.47-1.337"/>
	<path id="path509" d="m249.31 10.694v1.337-1.337"/>
	<path id="path511" d="m252.23 11.229c0 0.559 0.447 5.599-1.063 4.278-0.266-0.232 0-2.307 0-2.668 0-0.981-0.35-2.028 1.06-1.61"/>
	<path id="path513" d="m251.7 10.694c0.989 0.324 0.356 0.797-0.531 0.535 0.129 0.262 0.326 0.596 0.531 0.802 0-0.439 0.05-0.901 0-1.337"/>
	<path id="path515" d="m252.23 15.506c0 2.256 0.052 4.45-0.266 6.684-0.443-0.089-0.887-0.178-1.33-0.267 0.403-1.214 0.533-2.042 0.533-3.318 0.01-1.085-0.68-3.634 1.07-3.099"/>
	<path id="path517" d="m251.17 15.506h1.063-1.06"/>
	<path id="path519" d="m251.97 22.19c-0.784 1.744-1.707 2.608-3.459 3.208-1.192 0.409-5.192 1.505-5.055-0.535 1.743 0 3.323-0.044 4.996-0.604 1.36-0.459 2.19-2.786 3.51-2.069"/>
	<path id="path521" d="m251.97 22.19c-0.089 0.089-0.177 0.178-0.266 0.267 0.09-0.088 0.18-0.178 0.27-0.267-0.429-0.149-0.882-0.241-1.33-0.267 0.44 0.089 0.88 0.179 1.33 0.267"/>
	<path id="path523" d="m243.45 25.934c-1.458 0.082-2.968-1.255-3.519-2.545-0.413-0.969-0.677-1.67-1.411-2.41-0.672-0.676-1.311-1.083-0.125-1.729 1.449 1.299 3.005 6.166 5.32 5.614-0.08 0.339-0.11 0.762-0.27 1.07"/>
	<path id="path525" d="m243.72 25.934c-0.384-0.13-0.243-0.607 0-1.07h-0.266c0.09 0.337 0.11 0.765 0.27 1.07"/>
	<path id="path527" d="m237.87 20.319c-0.632-0.375-1.495-0.802-2.245-0.802-1.173 0-2.544 0.548-2.544-0.792 0-1.091 4.638 0.25 5.32 0.525-0.17 0.333-0.3 0.78-0.53 1.069"/>
	<path id="path529" d="m238.4 19.25c-0.104 0.364-0.362 0.729-0.531 1.069-0.33-0.409 0.01-0.775 0.53-1.069"/>
	<path id="path531" d="m233.08 19.517c-3.695-0.336-7.273-1.14-10.91-1.872-0.07-2.061 4.218-0.275 5.519-0.014 1.902 0.382 3.724 0.64 5.657 0.816-0.09 0.33-0.1 0.779-0.27 1.07"/>
	<path id="path533" d="m233.08 19.517c0.16-0.305 0.182-0.732 0.266-1.069h-0.266c0 0.356-0.01 0.713 0 1.069"/>
	<path id="path535" d="m222.17 17.645c-4.104-1.03-7.96-2.131-11.973-3.476 0.365-2.121 4.686 0.493 6.005 1.024 1.21 0.487 7.14 0.496 5.97 2.452"/>
	<path id="path537" d="m222.17 17.645c0.089-0.356 0.177-0.712 0.266-1.069-0.1 0.357-0.18 0.713-0.27 1.069"/>
	<path id="path539" d="m210.2 14.169c-1.242-0.624-2.484-1.247-3.727-1.871-1.108-0.557-3.861-0.675-3.459-2.139 1.4 0.479 2.603 0.375 3.992 1.069 1.226 0.612 2.338 1.681 3.725 1.872-0.16 0.332-0.29 0.785-0.52 1.069"/>
	<path id="path541" d="m210.2 14.169c0.177-0.356 0.354-0.712 0.531-1.069-0.18 0.357-0.36 0.713-0.53 1.069"/>
	<path id="path543" d="m203.01 11.229c-0.089 0.089-0.177 0.178-0.266 0.267v-0.267c-0.417 0.739-0.511 1.611-0.797 2.407-1.854-0.457-0.505-2.96 0.797-3.476 0.09 0.336 0.27 0.724 0.27 1.069"/>
	<path id="path545" d="m203.01 10.16c-0.385 0.13-0.243 0.606 0 1.069 0-0.356 0.02-0.714 0-1.069"/>
	<path id="path547" d="m201.95 13.635c-0.386 0.645-2.531 4.811-3.135 4.406-1.392-0.932 1.531-3.705 2.07-4.941 0.33 0.169 0.76 0.304 1.06 0.535"/>
	<path id="path549" d="m201.95 13.635c-0.354-0.178-0.71-0.356-1.064-0.535 0.35 0.179 0.7 0.357 1.06 0.535"/>
	<path id="path551" d="m199.02 18.18c-1.145 2.302-2.317 4.582-3.209 6.999-0.532 1.443-1.064 2.887-1.597 4.33-0.377 1.023-0.582 3.543-2.11 2.574 1.829-4.967 3.762-9.699 6.117-14.438 0.25 0.166 0.61 0.311 0.8 0.535"/>
	<path id="path553" d="m198.22 17.645c0.267 0.178 0.532 0.357 0.799 0.535-0.27-0.178-0.53-0.357-0.8-0.535"/>
	<path id="path555" d="m193.17 32.35c-1.384 3.134-3.016 5.555-5.055 8.288-1.682-0.892 1.047-3.399 1.788-4.442 0.75-1.063 1.69-4.819 3.26-3.846"/>
	<path id="path557" d="m193.17 32.35c-0.354-0.089-0.708-0.178-1.063-0.268 0.35 0.09 0.7 0.179 1.06 0.268"/>
	<path id="path559" d="m188.11 40.638c-1.154 1.545-2.232 3.312-3.592 4.679-0.785 0.79-4.161 3.274-4.125 0.669 3.105 0.396 5.467-3.962 6.918-6.149 0.23 0.242 0.62 0.506 0.79 0.801"/>
	<path id="path561" d="m187.31 39.836c0.267 0.267 0.532 0.535 0.799 0.802-0.27-0.267-0.53-0.534-0.8-0.802"/>
	<path id="path563" d="m180.4 47.055c-3.062 0.563-4-4.271-6.387-5.348 0.936-2.23 2.434 0.588 3.203 1.67 0.718 1.011 2.037 2.876 3.451 2.609-0.08 0.332-0.1 0.772-0.26 1.069"/>
	<path id="path565" d="m180.66 47.055c-0.388-0.129-0.244-0.606 0-1.069h-0.268c0.09 0.336 0.11 0.764 0.27 1.069"/>
	<path id="path567" d="m174.01 41.707c-0.295-0.201-0.545-0.548-0.797-0.802 0.262-0.144 0.765-0.26 1.064-0.267 0.051 0.351 0.271 0.717 0.266 1.069 0.116-0.335 0.215-0.718 0.266-1.069-0.27 0.354-0.57 0.697-0.8 1.069"/>
</g>
<metadata><rdf:RDF><cc:Work><dc:format>image/svg+xml</dc:format><dc:type rdf:resource="http://purl.org/dc/dcmitype/StillImage"/><cc:license rdf:resource="http://creativecommons.org/licenses/publicdomain/"/><dc:publisher><cc:Agent rdf:about="http://openclipart.org/"><dc:title>Openclipart</dc:title></cc:Agent></dc:publisher><dc:title>Architetto -- mostricciatolo 03</dc:title><dc:date>2010-03-18T17:03:41</dc:date><dc:description>Drawing by Francesco 'Architetto' Rollandin. From OCAL 0.18 release.</dc:description><dc:source>http://openclipart.org/detail/32293/architetto----mostricciatolo-03-by-anonymous</dc:source><dc:creator><cc:Agent><dc:title>Anonymous</dc:title></cc:Agent></dc:creator><dc:subject><rdf:Bag><rdf:li>animal</rdf:li><rdf:li>black</rdf:li><rdf:li>black and white</rdf:li><rdf:li>clip art</rdf:li><rdf:li>clipart</rdf:li><rdf:li>spider</rdf:li></rdf:Bag></dc:subject></cc:Work><cc:License rdf:about="http://creativecommons.org/licenses/publicdomain/"><cc:permits rdf:resource="http://creativecommons.org/ns#Reproduction"/><cc:permits rdf:resource="http://creativecommons.org/ns#Distribution"/><cc:permits rdf:resource="http://creativecommons.org/ns#DerivativeWorks"/></cc:License></rdf:RDF></metadata></svg>
